%TF.GenerationSoftware,KiCad,Pcbnew,(6.0.7)*%
%TF.CreationDate,2022-09-18T01:13:12+03:00*%
%TF.ProjectId,tl40_fr4_gerbers,746c3430-5f66-4723-945f-676572626572,rev?*%
%TF.SameCoordinates,Original*%
%TF.FileFunction,Drillmap*%
%TF.FilePolarity,Positive*%
%FSLAX45Y45*%
G04 Gerber Fmt 4.5, Leading zero omitted, Abs format (unit mm)*
G04 Created by KiCad (PCBNEW (6.0.7)) date 2022-09-18 01:13:12*
%MOMM*%
%LPD*%
G01*
G04 APERTURE LIST*
%ADD10C,0.200000*%
G04 APERTURE END LIST*
D10*
X4463408Y-3154477D02*
G75*
G03*
X4047960Y-3456524I-27392J-399061D01*
G01*
X30783582Y-5940496D02*
X29823623Y-2733970D01*
X9560770Y-1588357D02*
X4029384Y-1918421D01*
X11672324Y-5401151D02*
G75*
G03*
X12086139Y-5200838I64279J394805D01*
G01*
X29541438Y-3801538D02*
G75*
G03*
X29541438Y-3801538I-110000J0D01*
G01*
X12086139Y-5200838D02*
X12906581Y-3726367D01*
X8711282Y-5402046D02*
X10001718Y-5191937D01*
X14674561Y-3626788D02*
G75*
G03*
X14274563Y-3226788I-399998J2D01*
G01*
X7565927Y-5539688D02*
X6631269Y-5691869D01*
X2259563Y-9195038D02*
G75*
G03*
X2259563Y-9195038I-110000J0D01*
G01*
X16787499Y-10150754D02*
X20865813Y-10241788D01*
X30732063Y-9195038D02*
G75*
G03*
X30732063Y-9195038I-110000J0D01*
G01*
X22783411Y-2789999D02*
G75*
G03*
X22369368Y-2783603I-225278J-1178667D01*
G01*
X22769908Y-5191937D02*
G75*
G03*
X22384218Y-5191937I-192845J-1184401D01*
G01*
X24060344Y-5402046D02*
X22769908Y-5191937D01*
X24060343Y-5402049D02*
G75*
G03*
X24470430Y-5208290I64279J394804D01*
G01*
X14243236Y-5602907D02*
G75*
G03*
X14674563Y-5204133I31326J398771D01*
G01*
X10387408Y-5191937D02*
X11672324Y-5401148D01*
X1988044Y-5940496D02*
G75*
G03*
X1836314Y-6613066I4789939J-1433999D01*
G01*
X31300404Y-8982517D02*
X30935312Y-6613066D01*
X7011236Y-3505520D02*
X7847450Y-4943842D01*
X22384218Y-5191937D02*
X21099301Y-5401148D01*
X20685489Y-5200836D02*
G75*
G03*
X21099301Y-5401148I349534J194491D01*
G01*
X30935312Y-6613066D02*
G75*
G03*
X30783582Y-5940496I-4941659J-761430D01*
G01*
X8301198Y-5208289D02*
G75*
G03*
X8711282Y-5402046I345805J201043D01*
G01*
X7011238Y-3505519D02*
G75*
G03*
X6692823Y-3307504I-345805J-201046D01*
G01*
X15832556Y-1810753D02*
X10828809Y-1579811D01*
X11905813Y-10241788D02*
X15984127Y-10150754D01*
X10387408Y-5191937D02*
G75*
G03*
X10001718Y-5191937I-192845J-1184401D01*
G01*
X1836314Y-6613066D02*
X1471221Y-8982517D01*
X16787499Y-10150754D02*
G75*
G03*
X15984127Y-10150754I-401686J-17995684D01*
G01*
X3101276Y-10276220D02*
X4878658Y-10385597D01*
X3450188Y-3801538D02*
G75*
G03*
X3450188Y-3801538I-110000J0D01*
G01*
X10402258Y-2783603D02*
G75*
G03*
X9988215Y-2789999I-188765J-1185063D01*
G01*
X1853589Y-9792306D02*
X2203366Y-9999898D01*
X12619970Y-3136855D02*
X10402258Y-2783603D01*
X4463408Y-3154477D02*
X6692823Y-3307504D01*
X13719744Y-3226788D02*
X14274563Y-3226788D01*
X1471221Y-8982517D02*
G75*
G03*
X1853589Y-9792306I790669J-121829D01*
G01*
X23210856Y-1588357D02*
G75*
G03*
X21942817Y-1579811I-714783J-11978718D01*
G01*
X14243237Y-5602904D02*
X12870728Y-5495084D01*
X12552521Y-4901822D02*
X13370211Y-3432297D01*
X3264779Y-2301711D02*
G75*
G03*
X2948003Y-2733970I449617J-661699D01*
G01*
X4029384Y-1918422D02*
G75*
G03*
X3627420Y-2055301I47649J-798574D01*
G01*
X10828809Y-1579810D02*
G75*
G03*
X9560770Y-1588357I-553256J-11987265D01*
G01*
X3627420Y-2055301D02*
X3264779Y-2301711D01*
X15832556Y-1810753D02*
G75*
G03*
X16939070Y-1810753I553257J11987220D01*
G01*
X2948003Y-2733970D02*
X1988044Y-5940496D01*
X28742242Y-1918421D02*
X23210856Y-1588357D01*
X3749551Y-4650160D02*
X4047960Y-3456524D01*
X13719744Y-3226788D02*
G75*
G03*
X13370211Y-3432297I-1J-399998D01*
G01*
X14674563Y-3626788D02*
X14674563Y-5204133D01*
X9988215Y-2789999D02*
X7758971Y-3216074D01*
X21942817Y-1579811D02*
X16939070Y-1810753D01*
X3749551Y-4650160D02*
G75*
G03*
X4038912Y-5134807I388056J-97015D01*
G01*
X12906584Y-3726368D02*
G75*
G03*
X12619970Y-3136855I-349531J194493D01*
G01*
X7565927Y-5539687D02*
G75*
G03*
X7847450Y-4943842I-64284J394802D01*
G01*
X30918037Y-9792307D02*
G75*
G03*
X31300404Y-8982517I-408304J687962D01*
G01*
X7758972Y-3216080D02*
G75*
G03*
X7488259Y-3810006I75091J-392886D01*
G01*
X12552522Y-4901822D02*
G75*
G03*
X12870728Y-5495084I349532J-194491D01*
G01*
X2203366Y-9999898D02*
G75*
G03*
X3101276Y-10276220I1020756J1719904D01*
G01*
X6142336Y-5670364D02*
X4038912Y-5134807D01*
X6142336Y-5670364D02*
G75*
G03*
X6631269Y-5691869I296087J1162899D01*
G01*
X7488259Y-3810006D02*
X8301195Y-5208290D01*
X4049819Y-5837584D02*
X6142336Y-6370364D01*
X28723668Y-3456524D02*
G75*
G03*
X28308217Y-3154477I-388055J-97012D01*
G01*
X7853821Y-6815120D02*
X7013818Y-8781305D01*
X7853821Y-6815120D02*
G75*
G03*
X7421702Y-6263170I-367837J157149D01*
G01*
X20219105Y-4901822D02*
X19401414Y-3432297D01*
X26629290Y-5670364D02*
X28732714Y-5134807D01*
X26078803Y-3307505D02*
G75*
G03*
X25760390Y-3505520I27390J-399060D01*
G01*
X10066573Y-8756712D02*
X12647944Y-8902930D01*
X13523757Y-8719300D02*
G75*
G03*
X13882213Y-8941788I358456J177515D01*
G01*
X14418440Y-6316667D02*
X12952057Y-6201473D01*
X25760390Y-3505520D02*
X24924176Y-4943842D01*
X22896219Y-8761144D02*
G75*
G03*
X22705053Y-8756712I-123306J-1193662D01*
G01*
X19900898Y-5495087D02*
G75*
G03*
X20219105Y-4901822I-31326J398772D01*
G01*
X28721807Y-5837584D02*
X26629290Y-6370364D01*
X10387408Y-5891937D02*
G75*
G03*
X10001718Y-5891937I-192845J-1184401D01*
G01*
X25283372Y-3810009D02*
G75*
G03*
X25012655Y-3216074I-345809J201044D01*
G01*
X29210349Y-6135668D02*
G75*
G03*
X28721807Y-5837584I-389847J-89548D01*
G01*
X29725970Y-8380396D02*
X29210350Y-6135667D01*
X29355314Y-8869485D02*
G75*
G03*
X29725970Y-8380396I-19192J399540D01*
G01*
X26144836Y-9023695D02*
X29355314Y-8869485D01*
X20151656Y-3136858D02*
G75*
G03*
X19865044Y-3726367I62917J-395017D01*
G01*
X7471515Y-8412187D02*
X8353136Y-6348587D01*
X13882213Y-8941788D02*
X15054905Y-8941788D01*
X18528389Y-5602904D02*
X19900898Y-5495084D01*
X7471514Y-8412187D02*
G75*
G03*
X7880452Y-8967219I367839J-157148D01*
G01*
X20151656Y-3136855D02*
X22369368Y-2783603D01*
X29022075Y-4650160D02*
X28723666Y-3456524D01*
X10066573Y-8756711D02*
G75*
G03*
X9875407Y-8761143I-67860J-1198094D01*
G01*
X13029019Y-8326058D02*
X12040805Y-6330535D01*
X8656691Y-6110935D02*
X10001718Y-5891937D01*
X12952057Y-6201472D02*
G75*
G03*
X12562276Y-6777757I-31324J-398774D01*
G01*
X12562276Y-6777757D02*
X13523758Y-8719300D01*
X15430580Y-8404425D02*
X14762788Y-6578076D01*
X25757806Y-8781306D02*
G75*
G03*
X26144836Y-9023695I367837J157151D01*
G01*
X26140357Y-6391869D02*
X25349924Y-6263170D01*
X22783411Y-2789999D02*
X25012655Y-3216074D01*
X6626790Y-9023693D02*
G75*
G03*
X7013818Y-8781305I19193J399538D01*
G01*
X18097063Y-3626788D02*
X18097063Y-5204133D01*
X19401414Y-3432297D02*
G75*
G03*
X19051882Y-3226788I-349532J-194489D01*
G01*
X18097066Y-5204133D02*
G75*
G03*
X18528389Y-5602904I399997J-3D01*
G01*
X4049819Y-5837583D02*
G75*
G03*
X3561275Y-6135667I-98696J-387633D01*
G01*
X6626790Y-9023695D02*
X3416311Y-8869485D01*
X28308217Y-3154477D02*
X26078803Y-3307504D01*
X6631269Y-6391869D02*
X7421702Y-6263170D01*
X8656691Y-6110935D02*
G75*
G03*
X8353136Y-6348587I64282J-394801D01*
G01*
X7880452Y-8967219D02*
X9875407Y-8761143D01*
X12647943Y-8902939D02*
G75*
G03*
X13029019Y-8326058I22620J399364D01*
G01*
X12040805Y-6330535D02*
G75*
G03*
X11746633Y-6113246I-358453J-177510D01*
G01*
X15054905Y-8941787D02*
G75*
G03*
X15430580Y-8404425I-2J400001D01*
G01*
X24924176Y-4943842D02*
G75*
G03*
X25205699Y-5539688I345807J-201044D01*
G01*
X25205699Y-5539688D02*
X26140357Y-5691869D01*
X3045655Y-8380396D02*
G75*
G03*
X3416311Y-8869485I389848J-89549D01*
G01*
X26140357Y-6391868D02*
G75*
G03*
X26629290Y-6370364I192846J1184403D01*
G01*
X19051882Y-3226788D02*
X18497063Y-3226788D01*
X3045655Y-8380396D02*
X3561275Y-6135667D01*
X10387408Y-5891937D02*
X11746633Y-6113246D01*
X6142336Y-6370364D02*
G75*
G03*
X6631269Y-6391869I296087J1162899D01*
G01*
X14762785Y-6578077D02*
G75*
G03*
X14418440Y-6316667I-375673J-137358D01*
G01*
X22769908Y-5891937D02*
G75*
G03*
X22384218Y-5891937I-192845J-1184401D01*
G01*
X18497063Y-3226785D02*
G75*
G03*
X18097063Y-3626788I0J-400000D01*
G01*
X20685487Y-5200838D02*
X19865044Y-3726367D01*
X25283367Y-3810006D02*
X24470430Y-5208290D01*
X28732715Y-5134812D02*
G75*
G03*
X29022075Y-4650160I-98702J387637D01*
G01*
X26140357Y-5691868D02*
G75*
G03*
X26629290Y-5670364I192846J1184403D01*
G01*
X16176671Y-4269256D02*
G75*
G03*
X16321696Y-4331531I145022J137720D01*
G01*
X17264201Y-5522816D02*
X16594954Y-4818073D01*
X17119175Y-5860538D02*
X15652439Y-5860538D01*
X22384218Y-5891937D02*
X21024993Y-6113246D01*
X16321696Y-4331531D02*
X16449929Y-4331531D01*
X19742606Y-8326058D02*
G75*
G03*
X20123682Y-8902930I358455J-177512D01*
G01*
X16594952Y-4818075D02*
G75*
G03*
X16449928Y-4755795I-145029J-137720D01*
G01*
X15507413Y-5522814D02*
G75*
G03*
X15652439Y-5860538I145030J-137721D01*
G01*
X25300111Y-8412187D02*
X24418490Y-6348587D01*
X25349923Y-6263175D02*
G75*
G03*
X24917805Y-6815120I-64280J-394801D01*
G01*
X18889413Y-8941787D02*
G75*
G03*
X19247868Y-8719300I0J400001D01*
G01*
X18353186Y-6316665D02*
G75*
G03*
X18008838Y-6578076I31327J-398771D01*
G01*
X24114935Y-6110935D02*
X22769908Y-5891937D01*
X24418490Y-6348587D02*
G75*
G03*
X24114935Y-6110935I-367837J-157149D01*
G01*
X22705053Y-8756712D02*
X20123682Y-8902930D01*
X19742607Y-8326058D02*
X20730821Y-6330535D01*
X21024993Y-6113247D02*
G75*
G03*
X20730821Y-6330535I64280J-394799D01*
G01*
X18889413Y-8941788D02*
X17716721Y-8941788D01*
X18353186Y-6316667D02*
X19819569Y-6201473D01*
X17119175Y-5860535D02*
G75*
G03*
X17264201Y-5522816I-2J200000D01*
G01*
X17264214Y-3564519D02*
G75*
G03*
X17119182Y-3226791I-145031J137723D01*
G01*
X16594954Y-4269254D02*
X17264209Y-3564514D01*
X16176672Y-4818072D02*
X15507413Y-5522815D01*
X16321697Y-4755795D02*
X16449928Y-4755795D01*
X16449929Y-4331529D02*
G75*
G03*
X16594954Y-4269254I4J199994D01*
G01*
X15507416Y-3564526D02*
X16176672Y-4269255D01*
X17341045Y-8404425D02*
G75*
G03*
X17716721Y-8941788I375678J-137361D01*
G01*
X20209348Y-6777756D02*
G75*
G03*
X19819569Y-6201473I-358455J177511D01*
G01*
X20209350Y-6777757D02*
X19247868Y-8719300D01*
X17341046Y-8404425D02*
X18008838Y-6578076D01*
X24891173Y-8967219D02*
G75*
G03*
X25300111Y-8412187I41100J397884D01*
G01*
X24891173Y-8967219D02*
X22896219Y-8761143D01*
X24917805Y-6815120D02*
X25757807Y-8781305D01*
X15652439Y-3226806D02*
G75*
G03*
X15507416Y-3564526I4J-200000D01*
G01*
X15652439Y-3226802D02*
X17119182Y-3226791D01*
X26219993Y-10410640D02*
G75*
G03*
X27892968Y-10385597I567370J17991015D01*
G01*
X27892968Y-10385597D02*
X29670350Y-10276220D01*
X29823621Y-2733971D02*
G75*
G03*
X29506846Y-2301711I-766388J-229435D01*
G01*
X29506846Y-2301711D02*
X29144206Y-2055301D01*
X29144206Y-2055301D02*
G75*
G03*
X28742242Y-1918421I-449613J-661695D01*
G01*
X6551633Y-10410640D02*
X11905813Y-10241788D01*
X30568259Y-9999898D02*
X30918037Y-9792306D01*
X20865813Y-10241788D02*
X26219993Y-10410640D01*
X29670350Y-10276221D02*
G75*
G03*
X30568259Y-9999898I-122847J1996225D01*
G01*
X4878658Y-10385597D02*
G75*
G03*
X6551633Y-10410640I1105605J17965972D01*
G01*
X16564920Y-8941783D02*
G75*
G03*
X16940594Y-8679151I3J399998D01*
G01*
X15319588Y-5285087D02*
X15892891Y-4681387D01*
X14974564Y-5147364D02*
G75*
G03*
X15319588Y-5285087I199999J-2D01*
G01*
X14974563Y-5147364D02*
X14974563Y-3939974D01*
X17797066Y-3939967D02*
G75*
G03*
X17452034Y-3802243I-200003J2D01*
G01*
X17797049Y-5147364D02*
X17797059Y-3939967D01*
X17512356Y-7115440D02*
G75*
G03*
X17136680Y-6578076I-375673J137364D01*
G01*
X15892890Y-4405940D02*
X15319587Y-3802249D01*
X16878731Y-4681386D02*
X17452023Y-5285084D01*
X15837518Y-8664849D02*
X15331913Y-7101138D01*
X16321697Y-4755798D02*
G75*
G03*
X16176672Y-4818072I-4J-199998D01*
G01*
X15892893Y-4681389D02*
G75*
G03*
X15892890Y-4405940I-145030J137723D01*
G01*
X17512355Y-7115439D02*
X16940594Y-8679151D01*
X15712513Y-6578075D02*
G75*
G03*
X15331913Y-7101138I0J-400001D01*
G01*
X16564920Y-8941788D02*
X16218118Y-8941788D01*
X16878734Y-4405942D02*
G75*
G03*
X16878731Y-4681386I145029J-137723D01*
G01*
X15837513Y-8664851D02*
G75*
G03*
X16218118Y-8941788I380600J123066D01*
G01*
X17452034Y-3802243D02*
X16878732Y-4405941D01*
X15319586Y-3802250D02*
G75*
G03*
X14974563Y-3939974I-145023J-137725D01*
G01*
X15712513Y-6578076D02*
X17136680Y-6578076D01*
X17452026Y-5285081D02*
G75*
G03*
X17797049Y-5147364I145027J137715D01*
G01*
X29541438Y-12953775D02*
G75*
G03*
X29541438Y-12953775I-110000J0D01*
G01*
X3450188Y-12953775D02*
G75*
G03*
X3450188Y-12953775I-110000J0D01*
G01*
X30732063Y-18347275D02*
G75*
G03*
X30732063Y-18347275I-110000J0D01*
G01*
X2259563Y-18347275D02*
G75*
G03*
X2259563Y-18347275I-110000J0D01*
G01*
X27442063Y-17194275D02*
G75*
G03*
X27467063Y-17169275I0J25000D01*
G01*
X27442063Y-17194275D02*
X26003254Y-17194275D01*
X27467063Y-16709275D02*
X27467063Y-17169275D01*
X27552063Y-17169275D02*
G75*
G03*
X27577063Y-17194275I25000J0D01*
G01*
X27552063Y-17169275D02*
X27552063Y-16709275D01*
X27692375Y-17194275D02*
X27577063Y-17194275D01*
X27692375Y-17279275D02*
X26003254Y-17279275D01*
X27977373Y-17479275D02*
G75*
G03*
X27692375Y-17194275I-285000J0D01*
G01*
X27892375Y-17479274D02*
G75*
G03*
X27692375Y-17279274I-200002J-2D01*
G01*
X27892375Y-18069025D02*
X27892375Y-17479274D01*
X27977375Y-18069025D02*
X27977375Y-17479275D01*
X27952375Y-18094028D02*
G75*
G03*
X27977375Y-18069025I-3J25003D01*
G01*
X27952375Y-18094025D02*
X27917375Y-18094025D01*
X27892373Y-18069025D02*
G75*
G03*
X27917375Y-18094025I25000J0D01*
G01*
X5079250Y-17194273D02*
G75*
G03*
X4794250Y-17479274I3J-285003D01*
G01*
X4794250Y-18069025D02*
X4794250Y-17479274D01*
X5079250Y-17194274D02*
X5194563Y-17194274D01*
X5079250Y-17279273D02*
G75*
G03*
X4879250Y-17479275I3J-200003D01*
G01*
X4879250Y-18069025D02*
X4879250Y-17479275D01*
X5079250Y-17279275D02*
X6768372Y-17279275D01*
X5304563Y-17169275D02*
G75*
G03*
X5329563Y-17194275I25000J0D01*
G01*
X5329563Y-17194275D02*
X6768372Y-17194275D01*
X5304563Y-16709275D02*
X5304563Y-17169275D01*
X5194563Y-17194276D02*
G75*
G03*
X5219563Y-17169274I0J25000D01*
G01*
X5219563Y-16709275D02*
X5219563Y-17169274D01*
X4854250Y-18094023D02*
G75*
G03*
X4879250Y-18069025I3J24998D01*
G01*
X4854250Y-18094025D02*
X4819250Y-18094025D01*
X4794253Y-18069025D02*
G75*
G03*
X4819250Y-18094025I25000J0D01*
G01*
X17162904Y-13118118D02*
X17989972Y-13269433D01*
X14781654Y-13269433D02*
X15608722Y-13118118D01*
X5304564Y-15574275D02*
X5304564Y-15859275D01*
X5304564Y-14804275D02*
X5304564Y-15089275D01*
X5244564Y-14779276D02*
G75*
G03*
X5219564Y-14804275I-1J-24999D01*
G01*
X5219564Y-14804275D02*
X5219564Y-15859275D01*
X5279564Y-14779275D02*
X5244564Y-14779275D01*
X5304563Y-14804275D02*
G75*
G03*
X5279564Y-14779275I-25000J0D01*
G01*
X5279564Y-15884276D02*
G75*
G03*
X5304564Y-15859275I-1J25001D01*
G01*
X5279564Y-15884275D02*
X5244564Y-15884275D01*
X5219563Y-15859275D02*
G75*
G03*
X5244564Y-15884275I25000J0D01*
G01*
X5504563Y-15374277D02*
G75*
G03*
X5304565Y-15574277I-1J-199998D01*
G01*
X5304563Y-15089275D02*
G75*
G03*
X5504563Y-15289275I200000J0D01*
G01*
X6768372Y-15374275D02*
X5504563Y-15374275D01*
X5504563Y-15289275D02*
X6768372Y-15289275D01*
X5244563Y-16684276D02*
G75*
G03*
X5219563Y-16709275I0J-25000D01*
G01*
X5244563Y-16684275D02*
X5279563Y-16684275D01*
X5304563Y-16709275D02*
G75*
G03*
X5279563Y-16684275I-25000J0D01*
G01*
X17618938Y-16614025D02*
X17618938Y-16899025D01*
X27467063Y-15574275D02*
X27467063Y-15859275D01*
X27467063Y-14804275D02*
X27467063Y-15089275D01*
X27467063Y-13669275D02*
X27467063Y-13954275D01*
X5219563Y-13669275D02*
X5219563Y-13954275D01*
X5219564Y-13954275D02*
G75*
G03*
X5244563Y-13979275I24999J-1D01*
G01*
X5244563Y-13979275D02*
X5279563Y-13979275D01*
X5279563Y-13979275D02*
G75*
G03*
X5304563Y-13954275I0J25000D01*
G01*
X5304563Y-13669275D02*
X5304563Y-13954275D01*
X5504564Y-13469275D02*
G75*
G03*
X5304563Y-13669275I-1J-200000D01*
G01*
X5504563Y-13384275D02*
G75*
G03*
X5219563Y-13669275I0J-285000D01*
G01*
X6768372Y-13469275D02*
X5504563Y-13469275D01*
X5504563Y-13384275D02*
X6768372Y-13384275D01*
X17508938Y-15194020D02*
G75*
G03*
X17533938Y-15169025I5J24995D01*
G01*
X17533938Y-14994025D02*
X17533938Y-15169025D01*
X17333938Y-15194025D02*
X17508938Y-15194025D01*
X17533943Y-15304025D02*
G75*
G03*
X17508938Y-15279025I-25000J0D01*
G01*
X17508938Y-15279025D02*
X17333938Y-15279025D01*
X17533938Y-15304025D02*
X17533938Y-15479025D01*
X17643938Y-15279030D02*
G75*
G03*
X17618938Y-15304025I-5J-24995D01*
G01*
X17618938Y-15479025D02*
X17618938Y-15304025D01*
X17818938Y-15279025D02*
X17643938Y-15279025D01*
X17618933Y-15169025D02*
G75*
G03*
X17643938Y-15194025I25000J0D01*
G01*
X17618938Y-14994025D02*
X17618938Y-15169025D01*
X17643938Y-15194025D02*
X17818938Y-15194025D01*
X15152683Y-15304025D02*
G75*
G03*
X15127688Y-15279025I-25000J0D01*
G01*
X15152688Y-15479025D02*
X15152688Y-15304025D01*
X14952688Y-15279025D02*
X15127688Y-15279025D01*
X15262688Y-15279030D02*
G75*
G03*
X15237688Y-15304025I-5J-24995D01*
G01*
X15237688Y-15479025D02*
X15237688Y-15304025D01*
X15262688Y-15279025D02*
X15437688Y-15279025D01*
X15237683Y-15169025D02*
G75*
G03*
X15262688Y-15194025I25000J0D01*
G01*
X15262688Y-15194025D02*
X15437688Y-15194025D01*
X15237688Y-15169025D02*
X15237688Y-14994025D01*
X15127688Y-15194020D02*
G75*
G03*
X15152688Y-15169025I5J24995D01*
G01*
X14952688Y-15194025D02*
X15127688Y-15194025D01*
X15152688Y-14994026D02*
X15152688Y-15169025D01*
X15152688Y-14513776D02*
X15152688Y-14994026D01*
X6768372Y-15374275D02*
G75*
G03*
X7309950Y-15245113I1J1200000D01*
G01*
X7364176Y-15217688D02*
X7309950Y-15245113D01*
X7905754Y-15088526D02*
G75*
G03*
X7364176Y-15217688I-2J-1199999D01*
G01*
X8673372Y-15088525D02*
X7905754Y-15088525D01*
X17618938Y-15479025D02*
X17618938Y-15959275D01*
X17818938Y-15279025D02*
X19240206Y-15279025D01*
X17818938Y-15194025D02*
X19240206Y-15194025D01*
X17618938Y-14513775D02*
X17618938Y-14994025D01*
X17989972Y-13354432D02*
G75*
G03*
X18205932Y-13374025I215961J1180407D01*
G01*
X19240206Y-13374025D02*
X18205932Y-13374025D01*
X17648437Y-13291948D02*
X17989972Y-13354433D01*
X17989972Y-13269432D02*
G75*
G03*
X18205931Y-13289025I215961J1180407D01*
G01*
X18205931Y-13289025D02*
X19240206Y-13289025D01*
X17162904Y-13203118D02*
G75*
G03*
X16946945Y-13183525I-215961J-1180407D01*
G01*
X17162904Y-13203118D02*
X17513437Y-13267249D01*
X16946945Y-13183525D02*
X15824681Y-13183525D01*
X17162904Y-13118118D02*
G75*
G03*
X16946945Y-13098525I-215961J-1180407D01*
G01*
X15824681Y-13098525D02*
X16946945Y-13098525D01*
X15824681Y-13183525D02*
G75*
G03*
X15608722Y-13203118I2J-1200000D01*
G01*
X15258189Y-13267249D02*
X15608722Y-13203118D01*
X15824681Y-13098525D02*
G75*
G03*
X15608722Y-13118118I2J-1200000D01*
G01*
X14565695Y-13374026D02*
G75*
G03*
X14781654Y-13354433I-2J1200000D01*
G01*
X14781654Y-13354433D02*
X15123189Y-13291948D01*
X14565695Y-13374025D02*
X13531420Y-13374025D01*
X14565695Y-13289026D02*
G75*
G03*
X14781654Y-13269433I-2J1200000D01*
G01*
X13531420Y-13289025D02*
X14565695Y-13289025D01*
X15152678Y-13316540D02*
G75*
G03*
X15123189Y-13291948I-24995J4D01*
G01*
X15152688Y-13863775D02*
X15152688Y-13316540D01*
X15258189Y-13267249D02*
G75*
G03*
X15237688Y-13291841I4504J-24596D01*
G01*
X15237688Y-13863775D02*
X15237688Y-13291841D01*
X17533938Y-13291841D02*
G75*
G03*
X17513437Y-13267249I-25005J-4D01*
G01*
X17533938Y-13863775D02*
X17533938Y-13291841D01*
X17648439Y-13291938D02*
G75*
G03*
X17618938Y-13316540I-4496J-24598D01*
G01*
X17618938Y-13863775D02*
X17618938Y-13316540D01*
X17533938Y-15479025D02*
X17533938Y-15959275D01*
X17333938Y-15279025D02*
X15437688Y-15279025D01*
X15437688Y-15194025D02*
X17333938Y-15194025D01*
X17533938Y-14513775D02*
X17533938Y-14994025D01*
X15237688Y-14513775D02*
X15237688Y-14994025D01*
X15237688Y-15479025D02*
X15237688Y-15959275D01*
X15152688Y-15479025D02*
X15152688Y-15959275D01*
X13531420Y-15279025D02*
X14952688Y-15279025D01*
X13531420Y-15194025D02*
X14952688Y-15194025D01*
X16428313Y-16311650D02*
X16428313Y-18739026D01*
X16343313Y-16311650D02*
X16343313Y-18739026D01*
X16368313Y-16286645D02*
G75*
G03*
X16343313Y-16311650I0J-25000D01*
G01*
X16368313Y-16286650D02*
X16403313Y-16286650D01*
X16428318Y-16311650D02*
G75*
G03*
X16403313Y-16286650I-25005J-5D01*
G01*
X16343313Y-18739026D02*
G75*
G03*
X16368313Y-18764026I25000J0D01*
G01*
X16368313Y-18764026D02*
X16403313Y-18764026D01*
X16403313Y-18764025D02*
G75*
G03*
X16428313Y-18739026I0J25000D01*
G01*
X19240206Y-17184025D02*
X17818938Y-17184025D01*
X17818938Y-17099025D02*
X19240206Y-17099025D01*
X17558938Y-16589030D02*
G75*
G03*
X17533938Y-16614025I-5J-24995D01*
G01*
X17533938Y-16899025D02*
X17533938Y-16614025D01*
X17558938Y-16589025D02*
X17593938Y-16589025D01*
X17618943Y-16614025D02*
G75*
G03*
X17593938Y-16589025I-25000J0D01*
G01*
X17618943Y-16899025D02*
G75*
G03*
X17818938Y-17099025I200000J0D01*
G01*
X17533943Y-16899025D02*
G75*
G03*
X17818938Y-17184025I285000J0D01*
G01*
X17533933Y-13863775D02*
G75*
G03*
X17558938Y-13888775I25000J0D01*
G01*
X17558938Y-13888775D02*
X17593938Y-13888775D01*
X17593938Y-13888770D02*
G75*
G03*
X17618938Y-13863775I5J24995D01*
G01*
X17533933Y-15959275D02*
G75*
G03*
X17558938Y-15984275I25000J0D01*
G01*
X17558938Y-15984275D02*
X17593938Y-15984275D01*
X17593938Y-15984270D02*
G75*
G03*
X17618938Y-15959275I5J24995D01*
G01*
X17558938Y-14488780D02*
G75*
G03*
X17533938Y-14513775I-5J-24995D01*
G01*
X17558938Y-14488775D02*
X17593938Y-14488775D01*
X17618943Y-14513775D02*
G75*
G03*
X17593938Y-14488775I-25000J0D01*
G01*
X14952688Y-17184025D02*
X13531420Y-17184025D01*
X13531420Y-17099025D02*
X14952688Y-17099025D01*
X15177688Y-16589030D02*
G75*
G03*
X15152688Y-16614025I-5J-24995D01*
G01*
X15152688Y-16614025D02*
X15152688Y-16899025D01*
X15177688Y-16589025D02*
X15212688Y-16589025D01*
X15237693Y-16614025D02*
G75*
G03*
X15212688Y-16589025I-25000J0D01*
G01*
X15237688Y-16614025D02*
X15237688Y-16899025D01*
X14952688Y-17099020D02*
G75*
G03*
X15152688Y-16899025I5J199995D01*
G01*
X14952688Y-17184030D02*
G75*
G03*
X15237688Y-16899025I-5J285005D01*
G01*
X15152683Y-15959275D02*
G75*
G03*
X15177688Y-15984275I25000J0D01*
G01*
X15177688Y-15984275D02*
X15212688Y-15984275D01*
X15212688Y-15984270D02*
G75*
G03*
X15237688Y-15959275I5J24995D01*
G01*
X15152683Y-13863775D02*
G75*
G03*
X15177688Y-13888775I25000J0D01*
G01*
X15177688Y-13888775D02*
X15212688Y-13888775D01*
X15212688Y-13888770D02*
G75*
G03*
X15237688Y-13863775I5J24995D01*
G01*
X15177688Y-14488780D02*
G75*
G03*
X15152688Y-14513775I-5J-24995D01*
G01*
X15177688Y-14488775D02*
X15212688Y-14488775D01*
X15237693Y-14513775D02*
G75*
G03*
X15212688Y-14488775I-25000J0D01*
G01*
X19287688Y-18794025D02*
X20865813Y-18794025D01*
X19287688Y-17394025D02*
X20865813Y-17394025D01*
X18722688Y-18794025D02*
X17144563Y-18794025D01*
X17144563Y-17394025D02*
X18722688Y-17394025D01*
X14048938Y-18794025D02*
X15627063Y-18794025D01*
X14048938Y-17394025D02*
X15627063Y-17394025D01*
X13483938Y-18794025D02*
X11905813Y-18794025D01*
X11905813Y-17394025D02*
X13483938Y-17394025D01*
X7054563Y-18889275D02*
G75*
G03*
X7084563Y-18859275I0J30000D01*
G01*
X5684563Y-18859275D02*
G75*
G03*
X5714563Y-18889275I30000J0D01*
G01*
X7084563Y-17519275D02*
G75*
G03*
X7054563Y-17489275I-30000J0D01*
G01*
X5714563Y-17489275D02*
G75*
G03*
X5684563Y-17519275I0J-30000D01*
G01*
X7084563Y-17519275D02*
X7084563Y-18859275D01*
X5684563Y-17519275D02*
X5684563Y-18859275D01*
X5714563Y-18889275D02*
X7054563Y-18889275D01*
X5714563Y-17489275D02*
X7054563Y-17489275D01*
X27057063Y-18889275D02*
G75*
G03*
X27087063Y-18859275I0J30000D01*
G01*
X25687063Y-18859275D02*
G75*
G03*
X25717063Y-18889275I30000J0D01*
G01*
X27087063Y-17519275D02*
G75*
G03*
X27057063Y-17489275I-30000J0D01*
G01*
X25717063Y-17489275D02*
G75*
G03*
X25687063Y-17519275I0J-30000D01*
G01*
X27087063Y-17519275D02*
X27087063Y-18859275D01*
X25687063Y-17519275D02*
X25687063Y-18859275D01*
X25717063Y-18889275D02*
X27057063Y-18889275D01*
X25717063Y-17489275D02*
X27057063Y-17489275D01*
X20865813Y-18794025D02*
G75*
G03*
X20895813Y-18764025I0J30000D01*
G01*
X20895813Y-17424025D02*
G75*
G03*
X20865813Y-17394025I-30000J0D01*
G01*
X20895813Y-17424025D02*
X20895813Y-18764025D01*
X19257693Y-18764025D02*
G75*
G03*
X19287688Y-18794025I30000J0D01*
G01*
X19287688Y-17394020D02*
G75*
G03*
X19257688Y-17424025I5J-30005D01*
G01*
X19257688Y-17424025D02*
X19257688Y-18764025D01*
X18722688Y-18794030D02*
G75*
G03*
X18752688Y-18764025I-5J30005D01*
G01*
X18752683Y-17424025D02*
G75*
G03*
X18722688Y-17394025I-30000J0D01*
G01*
X18752688Y-17424025D02*
X18752688Y-18764025D01*
X17114563Y-18764025D02*
G75*
G03*
X17144563Y-18794025I30000J0D01*
G01*
X17144563Y-17394025D02*
G75*
G03*
X17114563Y-17424025I0J-30000D01*
G01*
X17114563Y-17424025D02*
X17114563Y-18764025D01*
X15627063Y-18794025D02*
G75*
G03*
X15657063Y-18764025I0J30000D01*
G01*
X15657063Y-17424025D02*
G75*
G03*
X15627063Y-17394025I-30000J0D01*
G01*
X15657063Y-17424025D02*
X15657063Y-18764025D01*
X14018943Y-18764025D02*
G75*
G03*
X14048938Y-18794025I30000J0D01*
G01*
X14048938Y-17394020D02*
G75*
G03*
X14018938Y-17424025I5J-30005D01*
G01*
X14018938Y-17424025D02*
X14018938Y-18764025D01*
X13483938Y-18794030D02*
G75*
G03*
X13513938Y-18764025I-5J30005D01*
G01*
X13513933Y-17424025D02*
G75*
G03*
X13483938Y-17394025I-30000J0D01*
G01*
X13513938Y-17424025D02*
X13513938Y-18764025D01*
X11875813Y-18764025D02*
G75*
G03*
X11905813Y-18794025I30000J0D01*
G01*
X11905813Y-17394025D02*
G75*
G03*
X11875813Y-17424025I0J-30000D01*
G01*
X11875813Y-17424025D02*
X11875813Y-18764025D01*
X30152688Y-18698780D02*
G75*
G03*
X30182688Y-18668775I-5J30005D01*
G01*
X28782693Y-18668775D02*
G75*
G03*
X28812688Y-18698775I30000J0D01*
G01*
X30182683Y-17328775D02*
G75*
G03*
X30152688Y-17298775I-30000J0D01*
G01*
X28812688Y-17298770D02*
G75*
G03*
X28782688Y-17328775I5J-30005D01*
G01*
X30182688Y-17328775D02*
X30182688Y-18668775D01*
X28782688Y-17328775D02*
X28782688Y-18668775D01*
X28812688Y-18698775D02*
X30152688Y-18698775D01*
X28812688Y-17298775D02*
X30152688Y-17298775D01*
X3958938Y-18698780D02*
G75*
G03*
X3988938Y-18668775I-5J30005D01*
G01*
X2588943Y-18668775D02*
G75*
G03*
X2618938Y-18698775I30000J0D01*
G01*
X3988933Y-17328775D02*
G75*
G03*
X3958938Y-17298775I-30000J0D01*
G01*
X2618938Y-17298770D02*
G75*
G03*
X2588938Y-17328775I5J-30005D01*
G01*
X3988938Y-17328775D02*
X3988938Y-18668775D01*
X2588938Y-17328775D02*
X2588938Y-18668775D01*
X2618938Y-18698775D02*
X3958938Y-18698775D01*
X2618938Y-17298775D02*
X3958938Y-17298775D01*
X24913938Y-18603530D02*
G75*
G03*
X24943938Y-18573525I-5J30005D01*
G01*
X23543943Y-18573525D02*
G75*
G03*
X23573938Y-18603525I30000J0D01*
G01*
X24943933Y-17233525D02*
G75*
G03*
X24913938Y-17203525I-30000J0D01*
G01*
X23573938Y-17203520D02*
G75*
G03*
X23543938Y-17233525I5J-30005D01*
G01*
X24943938Y-17233525D02*
X24943938Y-18573525D01*
X23543938Y-17233525D02*
X23543938Y-18573525D01*
X23573938Y-18603525D02*
X24913938Y-18603525D01*
X23573938Y-17203525D02*
X24913938Y-17203525D01*
X22770813Y-18603525D02*
G75*
G03*
X22800813Y-18573525I0J30000D01*
G01*
X21400813Y-18573525D02*
G75*
G03*
X21430813Y-18603525I30000J0D01*
G01*
X22800813Y-17233525D02*
G75*
G03*
X22770813Y-17203525I-30000J0D01*
G01*
X21430813Y-17203525D02*
G75*
G03*
X21400813Y-17233525I0J-30000D01*
G01*
X22800813Y-17233525D02*
X22800813Y-18573525D01*
X21400813Y-17233525D02*
X21400813Y-18573525D01*
X21430813Y-18603525D02*
X22770813Y-18603525D01*
X21430813Y-17203525D02*
X22770813Y-17203525D01*
X11340813Y-18603525D02*
G75*
G03*
X11370813Y-18573525I0J30000D01*
G01*
X9970813Y-18573525D02*
G75*
G03*
X10000813Y-18603525I30000J0D01*
G01*
X11370813Y-17233525D02*
G75*
G03*
X11340813Y-17203525I-30000J0D01*
G01*
X10000813Y-17203525D02*
G75*
G03*
X9970813Y-17233525I0J-30000D01*
G01*
X11370813Y-17233525D02*
X11370813Y-18573525D01*
X9970813Y-17233525D02*
X9970813Y-18573525D01*
X10000813Y-18603525D02*
X11340813Y-18603525D01*
X10000813Y-17203525D02*
X11340813Y-17203525D01*
X9197688Y-18603530D02*
G75*
G03*
X9227688Y-18573525I-5J30005D01*
G01*
X7827693Y-18573525D02*
G75*
G03*
X7857688Y-18603525I30000J0D01*
G01*
X9227683Y-17233525D02*
G75*
G03*
X9197688Y-17203525I-30000J0D01*
G01*
X7857688Y-17203520D02*
G75*
G03*
X7827688Y-17233525I5J-30005D01*
G01*
X9227688Y-17233525D02*
X9227688Y-18573525D01*
X7827688Y-17233525D02*
X7827688Y-18573525D01*
X7857688Y-18603525D02*
X9197688Y-18603525D01*
X7857688Y-17203525D02*
X9197688Y-17203525D01*
X27057063Y-16984275D02*
G75*
G03*
X27087063Y-16954275I0J30000D01*
G01*
X25687063Y-16954275D02*
G75*
G03*
X25717063Y-16984275I30000J0D01*
G01*
X27087063Y-15614275D02*
G75*
G03*
X27057063Y-15584275I-30000J0D01*
G01*
X25717063Y-15584275D02*
G75*
G03*
X25687063Y-15614275I0J-30000D01*
G01*
X27087063Y-15614275D02*
X27087063Y-16954275D01*
X25687063Y-15614275D02*
X25687063Y-16954275D01*
X25717063Y-16984275D02*
X27057063Y-16984275D01*
X25717063Y-15584275D02*
X27057063Y-15584275D01*
X7054563Y-16984275D02*
G75*
G03*
X7084563Y-16954275I0J30000D01*
G01*
X5684563Y-16954275D02*
G75*
G03*
X5714563Y-16984275I30000J0D01*
G01*
X7084563Y-15614275D02*
G75*
G03*
X7054563Y-15584275I-30000J0D01*
G01*
X5714563Y-15584275D02*
G75*
G03*
X5684563Y-15614275I0J-30000D01*
G01*
X7084563Y-15614275D02*
X7084563Y-16954275D01*
X5684563Y-15614275D02*
X5684563Y-16954275D01*
X5714563Y-16984275D02*
X7054563Y-16984275D01*
X5714563Y-15584275D02*
X7054563Y-15584275D01*
X19437063Y-16889025D02*
G75*
G03*
X19467063Y-16859025I0J30000D01*
G01*
X18067063Y-16859025D02*
G75*
G03*
X18097063Y-16889025I30000J0D01*
G01*
X19467063Y-15519025D02*
G75*
G03*
X19437063Y-15489025I-30000J0D01*
G01*
X18097063Y-15489025D02*
G75*
G03*
X18067063Y-15519025I0J-30000D01*
G01*
X19467063Y-15519025D02*
X19467063Y-16859025D01*
X18067063Y-15519025D02*
X18067063Y-16859025D01*
X18097063Y-16889025D02*
X19437063Y-16889025D01*
X18097063Y-15489025D02*
X19437063Y-15489025D01*
X14674563Y-16889025D02*
G75*
G03*
X14704563Y-16859025I0J30000D01*
G01*
X13304563Y-16859025D02*
G75*
G03*
X13334563Y-16889025I30000J0D01*
G01*
X14704563Y-15519025D02*
G75*
G03*
X14674563Y-15489025I-30000J0D01*
G01*
X13334563Y-15489025D02*
G75*
G03*
X13304563Y-15519025I0J-30000D01*
G01*
X14704563Y-15519025D02*
X14704563Y-16859025D01*
X13304563Y-15519025D02*
X13304563Y-16859025D01*
X13334563Y-16889025D02*
X14674563Y-16889025D01*
X13334563Y-15489025D02*
X14674563Y-15489025D01*
X29676438Y-16793780D02*
G75*
G03*
X29706438Y-16763775I-5J30005D01*
G01*
X28306443Y-16763775D02*
G75*
G03*
X28336438Y-16793775I30000J0D01*
G01*
X29706433Y-15423775D02*
G75*
G03*
X29676438Y-15393775I-30000J0D01*
G01*
X28336438Y-15393770D02*
G75*
G03*
X28306438Y-15423775I5J-30005D01*
G01*
X29706438Y-15423775D02*
X29706438Y-16763775D01*
X28306438Y-15423775D02*
X28306438Y-16763775D01*
X28336438Y-16793775D02*
X29676438Y-16793775D01*
X28336438Y-15393775D02*
X29676438Y-15393775D01*
X4435188Y-16793780D02*
G75*
G03*
X4465188Y-16763775I-5J30005D01*
G01*
X3065193Y-16763775D02*
G75*
G03*
X3095188Y-16793775I30000J0D01*
G01*
X4465183Y-15423775D02*
G75*
G03*
X4435188Y-15393775I-30000J0D01*
G01*
X3095188Y-15393770D02*
G75*
G03*
X3065188Y-15423775I5J-30005D01*
G01*
X4465188Y-15423775D02*
X4465188Y-16763775D01*
X3065188Y-15423775D02*
X3065188Y-16763775D01*
X3095188Y-16793775D02*
X4435188Y-16793775D01*
X3095188Y-15393775D02*
X4435188Y-15393775D01*
X25152063Y-16698525D02*
G75*
G03*
X25182063Y-16668525I0J30000D01*
G01*
X23782063Y-16668525D02*
G75*
G03*
X23812063Y-16698525I30000J0D01*
G01*
X25182063Y-15328525D02*
G75*
G03*
X25152063Y-15298525I-30000J0D01*
G01*
X23812063Y-15298525D02*
G75*
G03*
X23782063Y-15328525I0J-30000D01*
G01*
X25182063Y-15328525D02*
X25182063Y-16668525D01*
X23782063Y-15328525D02*
X23782063Y-16668525D01*
X23812063Y-16698525D02*
X25152063Y-16698525D01*
X23812063Y-15298525D02*
X25152063Y-15298525D01*
X21342063Y-16698525D02*
G75*
G03*
X21372063Y-16668525I0J30000D01*
G01*
X19972063Y-16668525D02*
G75*
G03*
X20002063Y-16698525I30000J0D01*
G01*
X21372063Y-15328525D02*
G75*
G03*
X21342063Y-15298525I-30000J0D01*
G01*
X20002063Y-15298525D02*
G75*
G03*
X19972063Y-15328525I0J-30000D01*
G01*
X21372063Y-15328525D02*
X21372063Y-16668525D01*
X19972063Y-15328525D02*
X19972063Y-16668525D01*
X20002063Y-16698525D02*
X21342063Y-16698525D01*
X20002063Y-15298525D02*
X21342063Y-15298525D01*
X12769563Y-16698525D02*
G75*
G03*
X12799563Y-16668525I0J30000D01*
G01*
X11399563Y-16668525D02*
G75*
G03*
X11429563Y-16698525I30000J0D01*
G01*
X12799563Y-15328525D02*
G75*
G03*
X12769563Y-15298525I-30000J0D01*
G01*
X11429563Y-15298525D02*
G75*
G03*
X11399563Y-15328525I0J-30000D01*
G01*
X12799563Y-15328525D02*
X12799563Y-16668525D01*
X11399563Y-15328525D02*
X11399563Y-16668525D01*
X11429563Y-16698525D02*
X12769563Y-16698525D01*
X11429563Y-15298525D02*
X12769563Y-15298525D01*
X8959563Y-16698525D02*
G75*
G03*
X8989563Y-16668525I0J30000D01*
G01*
X7589563Y-16668525D02*
G75*
G03*
X7619563Y-16698525I30000J0D01*
G01*
X8989563Y-15328525D02*
G75*
G03*
X8959563Y-15298525I-30000J0D01*
G01*
X7619563Y-15298525D02*
G75*
G03*
X7589563Y-15328525I0J-30000D01*
G01*
X8989563Y-15328525D02*
X8989563Y-16668525D01*
X7589563Y-15328525D02*
X7589563Y-16668525D01*
X7619563Y-16698525D02*
X8959563Y-16698525D01*
X7619563Y-15298525D02*
X8959563Y-15298525D01*
X23247063Y-16412775D02*
G75*
G03*
X23277063Y-16382775I0J30000D01*
G01*
X21877063Y-16382775D02*
G75*
G03*
X21907063Y-16412775I30000J0D01*
G01*
X23277063Y-15042775D02*
G75*
G03*
X23247063Y-15012775I-30000J0D01*
G01*
X21907063Y-15012775D02*
G75*
G03*
X21877063Y-15042775I0J-30000D01*
G01*
X23277063Y-15042775D02*
X23277063Y-16382775D01*
X21877063Y-15042775D02*
X21877063Y-16382775D01*
X21907063Y-16412775D02*
X23247063Y-16412775D01*
X21907063Y-15012775D02*
X23247063Y-15012775D01*
X10864563Y-16412775D02*
G75*
G03*
X10894563Y-16382775I0J30000D01*
G01*
X9494563Y-16382775D02*
G75*
G03*
X9524563Y-16412775I30000J0D01*
G01*
X10894563Y-15042775D02*
G75*
G03*
X10864563Y-15012775I-30000J0D01*
G01*
X9524563Y-15012775D02*
G75*
G03*
X9494563Y-15042775I0J-30000D01*
G01*
X10894563Y-15042775D02*
X10894563Y-16382775D01*
X9494563Y-15042775D02*
X9494563Y-16382775D01*
X9524563Y-16412775D02*
X10864563Y-16412775D01*
X9524563Y-15012775D02*
X10864563Y-15012775D01*
X27057063Y-15079275D02*
G75*
G03*
X27087063Y-15049275I0J30000D01*
G01*
X25687063Y-15049275D02*
G75*
G03*
X25717063Y-15079275I30000J0D01*
G01*
X27087063Y-13709275D02*
G75*
G03*
X27057063Y-13679275I-30000J0D01*
G01*
X25717063Y-13679275D02*
G75*
G03*
X25687063Y-13709275I0J-30000D01*
G01*
X27087063Y-13709275D02*
X27087063Y-15049275D01*
X25687063Y-13709275D02*
X25687063Y-15049275D01*
X25717063Y-15079275D02*
X27057063Y-15079275D01*
X25717063Y-13679275D02*
X27057063Y-13679275D01*
X7054563Y-15079275D02*
G75*
G03*
X7084563Y-15049275I0J30000D01*
G01*
X5684563Y-15049275D02*
G75*
G03*
X5714563Y-15079275I30000J0D01*
G01*
X7084563Y-13709275D02*
G75*
G03*
X7054563Y-13679275I-30000J0D01*
G01*
X5714563Y-13679275D02*
G75*
G03*
X5684563Y-13709275I0J-30000D01*
G01*
X7084563Y-13709275D02*
X7084563Y-15049275D01*
X5684563Y-13709275D02*
X5684563Y-15049275D01*
X5714563Y-15079275D02*
X7054563Y-15079275D01*
X5714563Y-13679275D02*
X7054563Y-13679275D01*
X19437063Y-14984025D02*
G75*
G03*
X19467063Y-14954025I0J30000D01*
G01*
X18067063Y-14954025D02*
G75*
G03*
X18097063Y-14984025I30000J0D01*
G01*
X19467063Y-13614025D02*
G75*
G03*
X19437063Y-13584025I-30000J0D01*
G01*
X18097063Y-13584025D02*
G75*
G03*
X18067063Y-13614025I0J-30000D01*
G01*
X19467063Y-13614025D02*
X19467063Y-14954025D01*
X18067063Y-13614025D02*
X18067063Y-14954025D01*
X18097063Y-14984025D02*
X19437063Y-14984025D01*
X18097063Y-13584025D02*
X19437063Y-13584025D01*
X14674563Y-14984025D02*
G75*
G03*
X14704563Y-14954025I0J30000D01*
G01*
X13304563Y-14954025D02*
G75*
G03*
X13334563Y-14984025I30000J0D01*
G01*
X14704563Y-13614025D02*
G75*
G03*
X14674563Y-13584025I-30000J0D01*
G01*
X13334563Y-13584025D02*
G75*
G03*
X13304563Y-13614025I0J-30000D01*
G01*
X14704563Y-13614025D02*
X14704563Y-14954025D01*
X13304563Y-13614025D02*
X13304563Y-14954025D01*
X13334563Y-14984025D02*
X14674563Y-14984025D01*
X13334563Y-13584025D02*
X14674563Y-13584025D01*
X29438313Y-14888775D02*
G75*
G03*
X29468313Y-14858775I0J30000D01*
G01*
X28068313Y-14858775D02*
G75*
G03*
X28098313Y-14888775I30000J0D01*
G01*
X29468313Y-13518775D02*
G75*
G03*
X29438313Y-13488775I-30000J0D01*
G01*
X28098313Y-13488775D02*
G75*
G03*
X28068313Y-13518775I0J-30000D01*
G01*
X29468313Y-13518775D02*
X29468313Y-14858775D01*
X28068313Y-13518775D02*
X28068313Y-14858775D01*
X28098313Y-14888775D02*
X29438313Y-14888775D01*
X28098313Y-13488775D02*
X29438313Y-13488775D01*
X4673313Y-14888775D02*
G75*
G03*
X4703313Y-14858775I0J30000D01*
G01*
X3303313Y-14858775D02*
G75*
G03*
X3333313Y-14888775I30000J0D01*
G01*
X4703313Y-13518775D02*
G75*
G03*
X4673313Y-13488775I-30000J0D01*
G01*
X3333313Y-13488775D02*
G75*
G03*
X3303313Y-13518775I0J-30000D01*
G01*
X4703313Y-13518775D02*
X4703313Y-14858775D01*
X3303313Y-13518775D02*
X3303313Y-14858775D01*
X3333313Y-14888775D02*
X4673313Y-14888775D01*
X3333313Y-13488775D02*
X4673313Y-13488775D01*
X25152063Y-14793525D02*
G75*
G03*
X25182063Y-14763525I0J30000D01*
G01*
X23782063Y-14763525D02*
G75*
G03*
X23812063Y-14793525I30000J0D01*
G01*
X25182063Y-13423525D02*
G75*
G03*
X25152063Y-13393525I-30000J0D01*
G01*
X23812063Y-13393525D02*
G75*
G03*
X23782063Y-13423525I0J-30000D01*
G01*
X25182063Y-13423525D02*
X25182063Y-14763525D01*
X23782063Y-13423525D02*
X23782063Y-14763525D01*
X23812063Y-14793525D02*
X25152063Y-14793525D01*
X23812063Y-13393525D02*
X25152063Y-13393525D01*
X21342063Y-14793525D02*
G75*
G03*
X21372063Y-14763525I0J30000D01*
G01*
X19972063Y-14763525D02*
G75*
G03*
X20002063Y-14793525I30000J0D01*
G01*
X21372063Y-13423525D02*
G75*
G03*
X21342063Y-13393525I-30000J0D01*
G01*
X20002063Y-13393525D02*
G75*
G03*
X19972063Y-13423525I0J-30000D01*
G01*
X21372063Y-13423525D02*
X21372063Y-14763525D01*
X19972063Y-13423525D02*
X19972063Y-14763525D01*
X20002063Y-14793525D02*
X21342063Y-14793525D01*
X20002063Y-13393525D02*
X21342063Y-13393525D01*
X17055813Y-14793525D02*
G75*
G03*
X17085813Y-14763525I0J30000D01*
G01*
X15685813Y-14763525D02*
G75*
G03*
X15715813Y-14793525I30000J0D01*
G01*
X17085813Y-13423525D02*
G75*
G03*
X17055813Y-13393525I-30000J0D01*
G01*
X15715813Y-13393525D02*
G75*
G03*
X15685813Y-13423525I0J-30000D01*
G01*
X17085813Y-13423525D02*
X17085813Y-14763525D01*
X15685813Y-13423525D02*
X15685813Y-14763525D01*
X15715813Y-14793525D02*
X17055813Y-14793525D01*
X15715813Y-13393525D02*
X17055813Y-13393525D01*
X12769563Y-14793525D02*
G75*
G03*
X12799563Y-14763525I0J30000D01*
G01*
X11399563Y-14763525D02*
G75*
G03*
X11429563Y-14793525I30000J0D01*
G01*
X12799563Y-13423525D02*
G75*
G03*
X12769563Y-13393525I-30000J0D01*
G01*
X11429563Y-13393525D02*
G75*
G03*
X11399563Y-13423525I0J-30000D01*
G01*
X12799563Y-13423525D02*
X12799563Y-14763525D01*
X11399563Y-13423525D02*
X11399563Y-14763525D01*
X11429563Y-14793525D02*
X12769563Y-14793525D01*
X11429563Y-13393525D02*
X12769563Y-13393525D01*
X8959563Y-14793525D02*
G75*
G03*
X8989563Y-14763525I0J30000D01*
G01*
X7589563Y-14763525D02*
G75*
G03*
X7619563Y-14793525I30000J0D01*
G01*
X8989563Y-13423525D02*
G75*
G03*
X8959563Y-13393525I-30000J0D01*
G01*
X7619563Y-13393525D02*
G75*
G03*
X7589563Y-13423525I0J-30000D01*
G01*
X8989563Y-13423525D02*
X8989563Y-14763525D01*
X7589563Y-13423525D02*
X7589563Y-14763525D01*
X7619563Y-14793525D02*
X8959563Y-14793525D01*
X7619563Y-13393525D02*
X8959563Y-13393525D01*
X23247063Y-14507775D02*
G75*
G03*
X23277063Y-14477775I0J30000D01*
G01*
X21877063Y-14477775D02*
G75*
G03*
X21907063Y-14507775I30000J0D01*
G01*
X23277063Y-13137775D02*
G75*
G03*
X23247063Y-13107775I-30000J0D01*
G01*
X21907063Y-13107775D02*
G75*
G03*
X21877063Y-13137775I0J-30000D01*
G01*
X23277063Y-13137775D02*
X23277063Y-14477775D01*
X21877063Y-13137775D02*
X21877063Y-14477775D01*
X21907063Y-14507775D02*
X23247063Y-14507775D01*
X21907063Y-13107775D02*
X23247063Y-13107775D01*
X10864563Y-14507775D02*
G75*
G03*
X10894563Y-14477775I0J30000D01*
G01*
X9494563Y-14477775D02*
G75*
G03*
X9524563Y-14507775I30000J0D01*
G01*
X10894563Y-13137775D02*
G75*
G03*
X10864563Y-13107775I-30000J0D01*
G01*
X9524563Y-13107775D02*
G75*
G03*
X9494563Y-13137775I0J-30000D01*
G01*
X10894563Y-13137775D02*
X10894563Y-14477775D01*
X9494563Y-13137775D02*
X9494563Y-14477775D01*
X9524563Y-14507775D02*
X10864563Y-14507775D01*
X9524563Y-13107775D02*
X10864563Y-13107775D01*
X27057063Y-13174275D02*
G75*
G03*
X27087063Y-13144275I0J30000D01*
G01*
X25687063Y-13144275D02*
G75*
G03*
X25717063Y-13174275I30000J0D01*
G01*
X27087063Y-11804275D02*
G75*
G03*
X27057063Y-11774275I-30000J0D01*
G01*
X25717063Y-11774275D02*
G75*
G03*
X25687063Y-11804275I0J-30000D01*
G01*
X27087063Y-11804275D02*
X27087063Y-13144275D01*
X25687063Y-11804275D02*
X25687063Y-13144275D01*
X25717063Y-13174275D02*
X27057063Y-13174275D01*
X25717063Y-11774275D02*
X27057063Y-11774275D01*
X7054563Y-13174275D02*
G75*
G03*
X7084563Y-13144275I0J30000D01*
G01*
X5684563Y-13144275D02*
G75*
G03*
X5714563Y-13174275I30000J0D01*
G01*
X7084563Y-11804275D02*
G75*
G03*
X7054563Y-11774275I-30000J0D01*
G01*
X5714563Y-11774275D02*
G75*
G03*
X5684563Y-11804275I0J-30000D01*
G01*
X7084563Y-11804275D02*
X7084563Y-13144275D01*
X5684563Y-11804275D02*
X5684563Y-13144275D01*
X5714563Y-13174275D02*
X7054563Y-13174275D01*
X5714563Y-11774275D02*
X7054563Y-11774275D01*
X19437063Y-13079025D02*
G75*
G03*
X19467063Y-13049025I0J30000D01*
G01*
X18067063Y-13049025D02*
G75*
G03*
X18097063Y-13079025I30000J0D01*
G01*
X19467063Y-11709025D02*
G75*
G03*
X19437063Y-11679025I-30000J0D01*
G01*
X18097063Y-11679025D02*
G75*
G03*
X18067063Y-11709025I0J-30000D01*
G01*
X19467063Y-11709025D02*
X19467063Y-13049025D01*
X18067063Y-11709025D02*
X18067063Y-13049025D01*
X18097063Y-13079025D02*
X19437063Y-13079025D01*
X18097063Y-11679025D02*
X19437063Y-11679025D01*
X14674563Y-13079025D02*
G75*
G03*
X14704563Y-13049025I0J30000D01*
G01*
X13304563Y-13049025D02*
G75*
G03*
X13334563Y-13079025I30000J0D01*
G01*
X14704563Y-11709025D02*
G75*
G03*
X14674563Y-11679025I-30000J0D01*
G01*
X13334563Y-11679025D02*
G75*
G03*
X13304563Y-11709025I0J-30000D01*
G01*
X14704563Y-11709025D02*
X14704563Y-13049025D01*
X13304563Y-11709025D02*
X13304563Y-13049025D01*
X13334563Y-13079025D02*
X14674563Y-13079025D01*
X13334563Y-11679025D02*
X14674563Y-11679025D01*
X28962063Y-12983775D02*
G75*
G03*
X28992063Y-12953775I0J30000D01*
G01*
X27592063Y-12953775D02*
G75*
G03*
X27622063Y-12983775I30000J0D01*
G01*
X28992063Y-11613775D02*
G75*
G03*
X28962063Y-11583775I-30000J0D01*
G01*
X27622063Y-11583775D02*
G75*
G03*
X27592063Y-11613775I0J-30000D01*
G01*
X28992063Y-11613775D02*
X28992063Y-12953775D01*
X27592063Y-11613775D02*
X27592063Y-12953775D01*
X27622063Y-12983775D02*
X28962063Y-12983775D01*
X27622063Y-11583775D02*
X28962063Y-11583775D01*
X5149563Y-12983775D02*
G75*
G03*
X5179563Y-12953775I0J30000D01*
G01*
X3779563Y-12953775D02*
G75*
G03*
X3809563Y-12983775I30000J0D01*
G01*
X5179563Y-11613775D02*
G75*
G03*
X5149563Y-11583775I-30000J0D01*
G01*
X3809563Y-11583775D02*
G75*
G03*
X3779563Y-11613775I0J-30000D01*
G01*
X5179563Y-11613775D02*
X5179563Y-12953775D01*
X3779563Y-11613775D02*
X3779563Y-12953775D01*
X3809563Y-12983775D02*
X5149563Y-12983775D01*
X3809563Y-11583775D02*
X5149563Y-11583775D01*
X25152063Y-12888525D02*
G75*
G03*
X25182063Y-12858525I0J30000D01*
G01*
X23782063Y-12858525D02*
G75*
G03*
X23812063Y-12888525I30000J0D01*
G01*
X25182063Y-11518525D02*
G75*
G03*
X25152063Y-11488525I-30000J0D01*
G01*
X23812063Y-11488525D02*
G75*
G03*
X23782063Y-11518525I0J-30000D01*
G01*
X25182063Y-11518525D02*
X25182063Y-12858525D01*
X23782063Y-11518525D02*
X23782063Y-12858525D01*
X23812063Y-12888525D02*
X25152063Y-12888525D01*
X23812063Y-11488525D02*
X25152063Y-11488525D01*
X21342063Y-12888525D02*
G75*
G03*
X21372063Y-12858525I0J30000D01*
G01*
X19972063Y-12858525D02*
G75*
G03*
X20002063Y-12888525I30000J0D01*
G01*
X21372063Y-11518525D02*
G75*
G03*
X21342063Y-11488525I-30000J0D01*
G01*
X20002063Y-11488525D02*
G75*
G03*
X19972063Y-11518525I0J-30000D01*
G01*
X21372063Y-11518525D02*
X21372063Y-12858525D01*
X19972063Y-11518525D02*
X19972063Y-12858525D01*
X20002063Y-12888525D02*
X21342063Y-12888525D01*
X20002063Y-11488525D02*
X21342063Y-11488525D01*
X17055813Y-12888525D02*
G75*
G03*
X17085813Y-12858525I0J30000D01*
G01*
X15685813Y-12858525D02*
G75*
G03*
X15715813Y-12888525I30000J0D01*
G01*
X17085813Y-11518525D02*
G75*
G03*
X17055813Y-11488525I-30000J0D01*
G01*
X15715813Y-11488525D02*
G75*
G03*
X15685813Y-11518525I0J-30000D01*
G01*
X17085813Y-11518525D02*
X17085813Y-12858525D01*
X15685813Y-11518525D02*
X15685813Y-12858525D01*
X15715813Y-12888525D02*
X17055813Y-12888525D01*
X15715813Y-11488525D02*
X17055813Y-11488525D01*
X12769563Y-12888525D02*
G75*
G03*
X12799563Y-12858525I0J30000D01*
G01*
X11399563Y-12858525D02*
G75*
G03*
X11429563Y-12888525I30000J0D01*
G01*
X12799563Y-11518525D02*
G75*
G03*
X12769563Y-11488525I-30000J0D01*
G01*
X11429563Y-11488525D02*
G75*
G03*
X11399563Y-11518525I0J-30000D01*
G01*
X12799563Y-11518525D02*
X12799563Y-12858525D01*
X11399563Y-11518525D02*
X11399563Y-12858525D01*
X11429563Y-12888525D02*
X12769563Y-12888525D01*
X11429563Y-11488525D02*
X12769563Y-11488525D01*
X8959563Y-12888525D02*
G75*
G03*
X8989563Y-12858525I0J30000D01*
G01*
X7589563Y-12858525D02*
G75*
G03*
X7619563Y-12888525I30000J0D01*
G01*
X8989563Y-11518525D02*
G75*
G03*
X8959563Y-11488525I-30000J0D01*
G01*
X7619563Y-11488525D02*
G75*
G03*
X7589563Y-11518525I0J-30000D01*
G01*
X8989563Y-11518525D02*
X8989563Y-12858525D01*
X7589563Y-11518525D02*
X7589563Y-12858525D01*
X7619563Y-12888525D02*
X8959563Y-12888525D01*
X7619563Y-11488525D02*
X8959563Y-11488525D01*
X23247063Y-12602775D02*
G75*
G03*
X23277063Y-12572775I0J30000D01*
G01*
X21877063Y-12572775D02*
G75*
G03*
X21907063Y-12602775I30000J0D01*
G01*
X23277063Y-11232775D02*
G75*
G03*
X23247063Y-11202775I-30000J0D01*
G01*
X21907063Y-11202775D02*
G75*
G03*
X21877063Y-11232775I0J-30000D01*
G01*
X23277063Y-11232775D02*
X23277063Y-12572775D01*
X21877063Y-11232775D02*
X21877063Y-12572775D01*
X21907063Y-12602775D02*
X23247063Y-12602775D01*
X21907063Y-11202775D02*
X23247063Y-11202775D01*
X10864563Y-12602775D02*
G75*
G03*
X10894563Y-12572775I0J30000D01*
G01*
X9494563Y-12572775D02*
G75*
G03*
X9524563Y-12602775I30000J0D01*
G01*
X10894563Y-11232775D02*
G75*
G03*
X10864563Y-11202775I-30000J0D01*
G01*
X9524563Y-11202775D02*
G75*
G03*
X9494563Y-11232775I0J-30000D01*
G01*
X10894563Y-11232775D02*
X10894563Y-12572775D01*
X9494563Y-11232775D02*
X9494563Y-12572775D01*
X9524563Y-12602775D02*
X10864563Y-12602775D01*
X9524563Y-11202775D02*
X10864563Y-11202775D01*
X27267063Y-15374275D02*
X26003254Y-15374275D01*
X26003254Y-15289275D02*
X27267063Y-15289275D01*
X27267063Y-13469275D02*
X26003254Y-13469275D01*
X26003254Y-13384275D02*
X27267063Y-13384275D01*
X27492063Y-16684275D02*
G75*
G03*
X27467063Y-16709275I0J-25000D01*
G01*
X27492063Y-16684275D02*
X27527063Y-16684275D01*
X27552063Y-16709275D02*
G75*
G03*
X27527063Y-16684275I-25000J0D01*
G01*
X27552063Y-14804275D02*
G75*
G03*
X27527063Y-14779275I-25000J0D01*
G01*
X27552063Y-14804275D02*
X27552063Y-15859275D01*
X27492063Y-14779275D02*
X27527063Y-14779275D01*
X27492063Y-14779275D02*
G75*
G03*
X27467063Y-14804275I0J-25000D01*
G01*
X27467063Y-15859275D02*
G75*
G03*
X27492063Y-15884275I25000J0D01*
G01*
X27492063Y-15884275D02*
X27527063Y-15884275D01*
X27527063Y-15884275D02*
G75*
G03*
X27552063Y-15859275I0J25000D01*
G01*
X27467063Y-15574275D02*
G75*
G03*
X27267063Y-15374275I-200000J0D01*
G01*
X27267063Y-15289275D02*
G75*
G03*
X27467063Y-15089275I0J200000D01*
G01*
X27467063Y-13954275D02*
G75*
G03*
X27492063Y-13979275I25000J0D01*
G01*
X27492063Y-13979275D02*
X27527063Y-13979275D01*
X27527063Y-13979275D02*
G75*
G03*
X27552063Y-13954275I0J25000D01*
G01*
X27552063Y-13669275D02*
X27552063Y-13954275D01*
X27467063Y-13669275D02*
G75*
G03*
X27267063Y-13469275I-200000J0D01*
G01*
X27552063Y-13669275D02*
G75*
G03*
X27267063Y-13384275I-285000J0D01*
G01*
X25461676Y-13340113D02*
G75*
G03*
X26003254Y-13469275I541577J1070838D01*
G01*
X25407450Y-13312688D02*
X25461676Y-13340113D01*
X25461676Y-13255113D02*
G75*
G03*
X26003254Y-13384275I541577J1070838D01*
G01*
X25407450Y-13227688D02*
X25461676Y-13255113D01*
X25407450Y-13312687D02*
G75*
G03*
X24865871Y-13183525I-541577J-1070838D01*
G01*
X24098254Y-13183525D02*
X24865871Y-13183525D01*
X25407450Y-13227687D02*
G75*
G03*
X24865871Y-13098525I-541577J-1070838D01*
G01*
X24098254Y-13098525D02*
X24865871Y-13098525D01*
X23556676Y-13054364D02*
G75*
G03*
X24098254Y-13183525I541577J1070838D01*
G01*
X23502449Y-13026938D02*
X23556676Y-13054363D01*
X23556676Y-12969364D02*
G75*
G03*
X24098254Y-13098525I541577J1070838D01*
G01*
X23502449Y-12941938D02*
X23556676Y-12969363D01*
X23502450Y-13026937D02*
G75*
G03*
X22960871Y-12897775I-541577J-1070838D01*
G01*
X22193254Y-12897775D02*
X22960871Y-12897775D01*
X23502450Y-12941937D02*
G75*
G03*
X22960871Y-12812775I-541577J-1070838D01*
G01*
X22193254Y-12812775D02*
X22960871Y-12812775D01*
X22193254Y-12812776D02*
G75*
G03*
X21651676Y-12941938I-1J-1199999D01*
G01*
X21597450Y-12969363D02*
X21651676Y-12941938D01*
X22193254Y-12897776D02*
G75*
G03*
X21651676Y-13026938I-1J-1199999D01*
G01*
X21597450Y-13054363D02*
X21651676Y-13026938D01*
X21055872Y-13183525D02*
G75*
G03*
X21597450Y-13054363I1J1199999D01*
G01*
X20198920Y-13183525D02*
X21055872Y-13183525D01*
X21055872Y-13098525D02*
G75*
G03*
X21597450Y-12969363I1J1199999D01*
G01*
X20198920Y-13098525D02*
X21055872Y-13098525D01*
X20198920Y-13098524D02*
G75*
G03*
X19815524Y-13161420I3J-1200001D01*
G01*
X19623602Y-13226130D02*
X19815524Y-13161420D01*
X20198920Y-13183524D02*
G75*
G03*
X19815524Y-13246420I3J-1200001D01*
G01*
X19623602Y-13311130D02*
X19815524Y-13246420D01*
X19240206Y-13374026D02*
G75*
G03*
X19623602Y-13311130I-3J1200001D01*
G01*
X19240206Y-13289026D02*
G75*
G03*
X19623602Y-13226130I-3J1200001D01*
G01*
X25461676Y-17150114D02*
G75*
G03*
X26003254Y-17279275I541577J1070838D01*
G01*
X25461676Y-17150113D02*
X25407450Y-17122688D01*
X25461676Y-17065114D02*
G75*
G03*
X26003254Y-17194275I541577J1070838D01*
G01*
X25407450Y-17037688D02*
X25461676Y-17065113D01*
X25407450Y-17122687D02*
G75*
G03*
X24865872Y-16993525I-541577J-1070838D01*
G01*
X24865872Y-16993525D02*
X24098254Y-16993525D01*
X25407450Y-17037687D02*
G75*
G03*
X24865872Y-16908525I-541577J-1070838D01*
G01*
X24098254Y-16908525D02*
X24865872Y-16908525D01*
X23556676Y-16864363D02*
G75*
G03*
X24098254Y-16993525I541577J1070838D01*
G01*
X23556676Y-16864363D02*
X23502450Y-16836938D01*
X23556676Y-16779363D02*
G75*
G03*
X24098254Y-16908525I541577J1070838D01*
G01*
X23502450Y-16751938D02*
X23556676Y-16779363D01*
X23502450Y-16836937D02*
G75*
G03*
X22960871Y-16707775I-541577J-1070838D01*
G01*
X22960871Y-16707775D02*
X22193254Y-16707775D01*
X23502450Y-16751937D02*
G75*
G03*
X22960871Y-16622775I-541577J-1070838D01*
G01*
X22193254Y-16622775D02*
X22960871Y-16622775D01*
X22193254Y-16622776D02*
G75*
G03*
X21651676Y-16751938I-1J-1199999D01*
G01*
X21597450Y-16779363D02*
X21651676Y-16751938D01*
X22193254Y-16707776D02*
G75*
G03*
X21651676Y-16836938I-1J-1199999D01*
G01*
X21651676Y-16836938D02*
X21597450Y-16864363D01*
X21055872Y-16993525D02*
G75*
G03*
X21597450Y-16864363I1J1199999D01*
G01*
X21055872Y-16993525D02*
X20198920Y-16993525D01*
X21055872Y-16908525D02*
G75*
G03*
X21597450Y-16779363I1J1199999D01*
G01*
X20198920Y-16908525D02*
X21055872Y-16908525D01*
X20198920Y-16908524D02*
G75*
G03*
X19815524Y-16971420I3J-1200001D01*
G01*
X19623602Y-17036131D02*
X19815524Y-16971420D01*
X20198920Y-16993524D02*
G75*
G03*
X19815524Y-17056420I3J-1200001D01*
G01*
X19815524Y-17056420D02*
X19623602Y-17121131D01*
X19240206Y-17184026D02*
G75*
G03*
X19623602Y-17121131I-3J1200001D01*
G01*
X19240206Y-17099026D02*
G75*
G03*
X19623602Y-17036131I-3J1200001D01*
G01*
X25461676Y-15245113D02*
G75*
G03*
X26003254Y-15374275I541577J1070838D01*
G01*
X25461676Y-15245113D02*
X25407450Y-15217688D01*
X25461676Y-15160113D02*
G75*
G03*
X26003254Y-15289275I541577J1070838D01*
G01*
X25407450Y-15132688D02*
X25461676Y-15160113D01*
X25407450Y-15132687D02*
G75*
G03*
X24865871Y-15003525I-541577J-1070838D01*
G01*
X24098254Y-15003525D02*
X24865871Y-15003525D01*
X25407450Y-15217687D02*
G75*
G03*
X24865871Y-15088525I-541577J-1070838D01*
G01*
X24865871Y-15088525D02*
X24098254Y-15088525D01*
X23556676Y-14959363D02*
G75*
G03*
X24098254Y-15088525I541577J1070838D01*
G01*
X23556676Y-14959363D02*
X23502450Y-14931938D01*
X23556676Y-14874363D02*
G75*
G03*
X24098254Y-15003525I541577J1070838D01*
G01*
X23502450Y-14846938D02*
X23556676Y-14874363D01*
X23502450Y-14931937D02*
G75*
G03*
X22960872Y-14802775I-541577J-1070838D01*
G01*
X22960872Y-14802775D02*
X22193254Y-14802775D01*
X23502450Y-14846937D02*
G75*
G03*
X22960872Y-14717775I-541577J-1070838D01*
G01*
X22193254Y-14717775D02*
X22960872Y-14717775D01*
X22193254Y-14717776D02*
G75*
G03*
X21651676Y-14846938I-1J-1199999D01*
G01*
X21597450Y-14874363D02*
X21651676Y-14846938D01*
X22193254Y-14802776D02*
G75*
G03*
X21651676Y-14931938I-1J-1199999D01*
G01*
X21651676Y-14931938D02*
X21597450Y-14959363D01*
X21055871Y-15088525D02*
G75*
G03*
X21597450Y-14959363I2J1199999D01*
G01*
X21055871Y-15088525D02*
X20198920Y-15088525D01*
X21055871Y-15003525D02*
G75*
G03*
X21597450Y-14874363I2J1199999D01*
G01*
X20198920Y-15003525D02*
X21055871Y-15003525D01*
X20198920Y-15003524D02*
G75*
G03*
X19815524Y-15066420I3J-1200001D01*
G01*
X19623602Y-15131130D02*
X19815524Y-15066420D01*
X20198920Y-15088524D02*
G75*
G03*
X19815524Y-15151420I3J-1200001D01*
G01*
X19815524Y-15151420D02*
X19623602Y-15216130D01*
X19240206Y-15279026D02*
G75*
G03*
X19623602Y-15216130I-3J1200001D01*
G01*
X19240206Y-15194026D02*
G75*
G03*
X19623602Y-15131130I-3J1200001D01*
G01*
X6768372Y-17279275D02*
G75*
G03*
X7309950Y-17150113I1J1199999D01*
G01*
X7309950Y-17150113D02*
X7364176Y-17122688D01*
X6768372Y-17194275D02*
G75*
G03*
X7309950Y-17065113I1J1199999D01*
G01*
X7364176Y-17037688D02*
X7309950Y-17065113D01*
X7905754Y-16993526D02*
G75*
G03*
X7364176Y-17122688I-1J-1199999D01*
G01*
X7905754Y-16993525D02*
X8673372Y-16993525D01*
X7905754Y-16908526D02*
G75*
G03*
X7364176Y-17037688I-1J-1199999D01*
G01*
X8673372Y-16908525D02*
X7905754Y-16908525D01*
X8673372Y-16993525D02*
G75*
G03*
X9214950Y-16864363I1J1199999D01*
G01*
X9214950Y-16864363D02*
X9269176Y-16836938D01*
X8673372Y-16908525D02*
G75*
G03*
X9214950Y-16779363I1J1199999D01*
G01*
X9269176Y-16751938D02*
X9214950Y-16779363D01*
X9810754Y-16707776D02*
G75*
G03*
X9269176Y-16836938I-1J-1199999D01*
G01*
X9810754Y-16707775D02*
X10578372Y-16707775D01*
X9810754Y-16622776D02*
G75*
G03*
X9269176Y-16751938I-1J-1199999D01*
G01*
X10578372Y-16622775D02*
X9810754Y-16622775D01*
X11119950Y-16836937D02*
G75*
G03*
X10578372Y-16707775I-541577J-1070838D01*
G01*
X11119950Y-16836938D02*
X11174176Y-16864363D01*
X11119950Y-16751937D02*
G75*
G03*
X10578372Y-16622775I-541577J-1070838D01*
G01*
X11174176Y-16779363D02*
X11119950Y-16751938D01*
X11174176Y-16864363D02*
G75*
G03*
X11715754Y-16993525I541577J1070838D01*
G01*
X11715754Y-16993525D02*
X12572706Y-16993525D01*
X11174176Y-16779363D02*
G75*
G03*
X11715754Y-16908525I541577J1070838D01*
G01*
X12572706Y-16908525D02*
X11715754Y-16908525D01*
X12956101Y-16971421D02*
G75*
G03*
X12572706Y-16908525I-383399J-1137104D01*
G01*
X13148024Y-17036130D02*
X12956102Y-16971420D01*
X12956101Y-17056421D02*
G75*
G03*
X12572706Y-16993525I-383399J-1137104D01*
G01*
X12956102Y-17056420D02*
X13148024Y-17121130D01*
X13148024Y-17121129D02*
G75*
G03*
X13531420Y-17184025I383399J1137104D01*
G01*
X13148024Y-17036129D02*
G75*
G03*
X13531420Y-17099025I383399J1137104D01*
G01*
X13148024Y-15216129D02*
G75*
G03*
X13531420Y-15279025I383398J1137104D01*
G01*
X13148024Y-15216130D02*
X12956102Y-15151420D01*
X13148024Y-15131129D02*
G75*
G03*
X13531420Y-15194025I383398J1137104D01*
G01*
X12956102Y-15066420D02*
X13148024Y-15131130D01*
X12956101Y-15151421D02*
G75*
G03*
X12572706Y-15088525I-383399J-1137104D01*
G01*
X12572706Y-15088525D02*
X11715754Y-15088525D01*
X12956101Y-15066421D02*
G75*
G03*
X12572706Y-15003525I-383398J-1137104D01*
G01*
X11715754Y-15003525D02*
X12572706Y-15003525D01*
X11174176Y-14959363D02*
G75*
G03*
X11715754Y-15088525I541577J1070838D01*
G01*
X11174176Y-14959363D02*
X11119950Y-14931938D01*
X11174176Y-14874363D02*
G75*
G03*
X11715754Y-15003525I541577J1070838D01*
G01*
X11119950Y-14846938D02*
X11174176Y-14874363D01*
X11119950Y-14931937D02*
G75*
G03*
X10578372Y-14802775I-541577J-1070838D01*
G01*
X10578372Y-14802775D02*
X9810754Y-14802775D01*
X11119950Y-14846937D02*
G75*
G03*
X10578372Y-14717775I-541577J-1070838D01*
G01*
X9810754Y-14717775D02*
X10578372Y-14717775D01*
X9810754Y-14717776D02*
G75*
G03*
X9269176Y-14846938I-1J-1199999D01*
G01*
X9214950Y-14874363D02*
X9269176Y-14846938D01*
X9810754Y-14802776D02*
G75*
G03*
X9269176Y-14931938I-1J-1199999D01*
G01*
X9269176Y-14931938D02*
X9214950Y-14959363D01*
X8673372Y-15088525D02*
G75*
G03*
X9214950Y-14959363I1J1199999D01*
G01*
X8673372Y-15003525D02*
G75*
G03*
X9214950Y-14874363I1J1199999D01*
G01*
X7905754Y-15003525D02*
X8673372Y-15003525D01*
X7905754Y-15003526D02*
G75*
G03*
X7364176Y-15132688I-1J-1199999D01*
G01*
X7309950Y-15160113D02*
X7364176Y-15132688D01*
X6768372Y-15289275D02*
G75*
G03*
X7309950Y-15160113I1J1199999D01*
G01*
X13148024Y-13311129D02*
G75*
G03*
X13531420Y-13374025I383399J1137104D01*
G01*
X13148024Y-13311130D02*
X12956102Y-13246420D01*
X13148024Y-13226129D02*
G75*
G03*
X13531420Y-13289025I383399J1137104D01*
G01*
X12956102Y-13161420D02*
X13148024Y-13226130D01*
X12956101Y-13246421D02*
G75*
G03*
X12572706Y-13183525I-383399J-1137104D01*
G01*
X12572706Y-13183525D02*
X11715754Y-13183525D01*
X12956102Y-13161421D02*
G75*
G03*
X12572706Y-13098525I-383399J-1137104D01*
G01*
X11715754Y-13098525D02*
X12572706Y-13098525D01*
X11174176Y-13054363D02*
G75*
G03*
X11715754Y-13183525I541577J1070838D01*
G01*
X11174176Y-13054363D02*
X11119950Y-13026938D01*
X11174176Y-12969363D02*
G75*
G03*
X11715754Y-13098525I541577J1070838D01*
G01*
X11119950Y-12941938D02*
X11174176Y-12969363D01*
X11119950Y-13026937D02*
G75*
G03*
X10578372Y-12897775I-541577J-1070838D01*
G01*
X10578372Y-12897775D02*
X9810754Y-12897775D01*
X11119950Y-12941937D02*
G75*
G03*
X10578372Y-12812775I-541577J-1070838D01*
G01*
X9810754Y-12812775D02*
X10578372Y-12812775D01*
X9810754Y-12812776D02*
G75*
G03*
X9269176Y-12941938I-1J-1199999D01*
G01*
X9214950Y-12969363D02*
X9269176Y-12941938D01*
X9810754Y-12897776D02*
G75*
G03*
X9269176Y-13026938I-1J-1199999D01*
G01*
X9269176Y-13026938D02*
X9214950Y-13054363D01*
X7905754Y-13183526D02*
G75*
G03*
X7364176Y-13312688I-1J-1199999D01*
G01*
X7364176Y-13312688D02*
X7309950Y-13340113D01*
X8673372Y-13183525D02*
X7905754Y-13183525D01*
X7905754Y-13098526D02*
G75*
G03*
X7364176Y-13227688I-1J-1199999D01*
G01*
X7309950Y-13255113D02*
X7364176Y-13227688D01*
X7905754Y-13098525D02*
X8673372Y-13098525D01*
X8673372Y-13183525D02*
G75*
G03*
X9214950Y-13054363I1J1199999D01*
G01*
X8673372Y-13098525D02*
G75*
G03*
X9214950Y-12969363I1J1199999D01*
G01*
X6768371Y-13469275D02*
G75*
G03*
X7309950Y-13340113I1J1199999D01*
G01*
X6768372Y-13384275D02*
G75*
G03*
X7309950Y-13255113I1J1199999D01*
G01*
X16787499Y-19302992D02*
G75*
G03*
X15984127Y-19302992I-401686J-17995684D01*
G01*
X16787499Y-19302992D02*
X20865813Y-19394025D01*
X11905813Y-19394025D02*
X15984127Y-19302992D01*
X15832556Y-10962991D02*
G75*
G03*
X16939070Y-10962991I553257J11987314D01*
G01*
X15832556Y-10962991D02*
X10828809Y-10732048D01*
X21942817Y-10732048D02*
X16939070Y-10962991D01*
X23210856Y-10740595D02*
G75*
G03*
X21942817Y-10732048I-714783J-11978641D01*
G01*
X28742242Y-11070658D02*
X23210856Y-10740595D01*
X10828809Y-10732048D02*
G75*
G03*
X9560770Y-10740595I-553256J-11987187D01*
G01*
X9560770Y-10740595D02*
X4029384Y-11070658D01*
X4029384Y-11070658D02*
G75*
G03*
X3627420Y-11207539I47653J-798581D01*
G01*
X3627420Y-11207539D02*
X3264779Y-11453949D01*
X3264779Y-11453948D02*
G75*
G03*
X2948003Y-11886208I449617J-661699D01*
G01*
X2948003Y-11886208D02*
X1988044Y-15092734D01*
X30935311Y-15765303D02*
G75*
G03*
X30783582Y-15092734I-4941668J-761422D01*
G01*
X31300404Y-18134755D02*
X30935312Y-15765303D01*
X30783582Y-15092734D02*
X29823623Y-11886208D01*
X1988044Y-15092734D02*
G75*
G03*
X1836314Y-15765303I4789941J-1433997D01*
G01*
X1836314Y-15765303D02*
X1471221Y-18134755D01*
X2203366Y-19152135D02*
G75*
G03*
X3101276Y-19428458I1020755J1719901D01*
G01*
X3101276Y-19428458D02*
X4878658Y-19537835D01*
X1853589Y-18944544D02*
X2203366Y-19152135D01*
X1471221Y-18134755D02*
G75*
G03*
X1853589Y-18944544I790670J-121829D01*
G01*
X30918038Y-18944547D02*
G75*
G03*
X31300404Y-18134755I-408306J687961D01*
G01*
X30568259Y-19152135D02*
X30918037Y-18944544D01*
X29144206Y-11207538D02*
G75*
G03*
X28742242Y-11070658I-449613J-661697D01*
G01*
X29506846Y-11453949D02*
X29144206Y-11207539D01*
X29823622Y-11886208D02*
G75*
G03*
X29506846Y-11453949I-766390J-229438D01*
G01*
X29670350Y-19428459D02*
G75*
G03*
X30568259Y-19152135I-122847J1996224D01*
G01*
X27892968Y-19537835D02*
X29670350Y-19428458D01*
X26219993Y-19562878D02*
G75*
G03*
X27892968Y-19537835I567370J17991012D01*
G01*
X20865813Y-19394025D02*
X26219993Y-19562877D01*
X4878658Y-19537835D02*
G75*
G03*
X6551633Y-19562877I1105605J17965969D01*
G01*
X6551633Y-19562877D02*
X11905813Y-19394025D01*
X1709510Y-19892298D02*
X1709510Y-19692298D01*
X1757129Y-19692298D01*
X1785700Y-19701822D01*
X1804748Y-19720869D01*
X1814272Y-19739917D01*
X1823795Y-19778012D01*
X1823795Y-19806584D01*
X1814272Y-19844679D01*
X1804748Y-19863727D01*
X1785700Y-19882774D01*
X1757129Y-19892298D01*
X1709510Y-19892298D01*
X1909510Y-19892298D02*
X1909510Y-19758965D01*
X1909510Y-19797060D02*
X1919033Y-19778012D01*
X1928557Y-19768488D01*
X1947605Y-19758965D01*
X1966653Y-19758965D01*
X2033319Y-19892298D02*
X2033319Y-19758965D01*
X2033319Y-19692298D02*
X2023795Y-19701822D01*
X2033319Y-19711346D01*
X2042843Y-19701822D01*
X2033319Y-19692298D01*
X2033319Y-19711346D01*
X2157129Y-19892298D02*
X2138081Y-19882774D01*
X2128557Y-19863727D01*
X2128557Y-19692298D01*
X2261891Y-19892298D02*
X2242843Y-19882774D01*
X2233319Y-19863727D01*
X2233319Y-19692298D01*
X2490462Y-19892298D02*
X2490462Y-19692298D01*
X2557129Y-19835155D01*
X2623795Y-19692298D01*
X2623795Y-19892298D01*
X2804748Y-19892298D02*
X2804748Y-19787536D01*
X2795224Y-19768488D01*
X2776176Y-19758965D01*
X2738081Y-19758965D01*
X2719034Y-19768488D01*
X2804748Y-19882774D02*
X2785700Y-19892298D01*
X2738081Y-19892298D01*
X2719034Y-19882774D01*
X2709510Y-19863727D01*
X2709510Y-19844679D01*
X2719034Y-19825631D01*
X2738081Y-19816108D01*
X2785700Y-19816108D01*
X2804748Y-19806584D01*
X2899986Y-19758965D02*
X2899986Y-19958965D01*
X2899986Y-19768488D02*
X2919033Y-19758965D01*
X2957129Y-19758965D01*
X2976176Y-19768488D01*
X2985700Y-19778012D01*
X2995224Y-19797060D01*
X2995224Y-19854203D01*
X2985700Y-19873250D01*
X2976176Y-19882774D01*
X2957129Y-19892298D01*
X2919033Y-19892298D01*
X2899986Y-19882774D01*
X3080938Y-19873250D02*
X3090462Y-19882774D01*
X3080938Y-19892298D01*
X3071414Y-19882774D01*
X3080938Y-19873250D01*
X3080938Y-19892298D01*
X3080938Y-19768488D02*
X3090462Y-19778012D01*
X3080938Y-19787536D01*
X3071414Y-19778012D01*
X3080938Y-19768488D01*
X3080938Y-19787536D01*
M02*
