<?xml version="1.0" standalone="no"?>
 <!DOCTYPE svg PUBLIC "-//W3C//DTD SVG 1.1//EN" 
 "http://www.w3.org/Graphics/SVG/1.1/DTD/svg11.dtd"> 
<svg
  xmlns:svg="http://www.w3.org/2000/svg"
  xmlns="http://www.w3.org/2000/svg"
  xmlns:xlink="http://www.w3.org/1999/xlink"
  version="1.1"
  width="28.585160cm" height="13.759180cm" viewBox="0 0 285851600 137591800">
<title>SVG Picture created as teethless40_csl_pcb_schema-User_Eco2.svg date 2022/09/05 02:10:17 </title>
  <desc>Picture generated by PCBNEW </desc>
<g style="fill:#000000; fill-opacity:1.000000;stroke:#000000; stroke-opacity:1.000000;
stroke-linecap:round; stroke-linejoin:round;"
 transform="translate(0 0) scale(1 1)">
</g>
<g style="fill:#000000; fill-opacity:0.0; 
stroke:#000000; stroke-width:0.000000; stroke-opacity:1; 
stroke-linecap:round; stroke-linejoin:round;">
</g>
<g style="fill:#000000; fill-opacity:0.0; 
stroke:#000000; stroke-width:50000.000000; stroke-opacity:1; 
stroke-linecap:round; stroke-linejoin:round;">
<path d="M188081875 64997500
L188081875 77997500
" />
<path d="M174081875 77997500
L174081875 64997500
" />
<path d="M187581875 78497500
L174581875 78497500
" />
<path d="M174581875 64497500
L187581875 64497500
" />
<path d="M174081875.000000 77997500.000000 A500000.000000 500000.000000 0.0 0 0 174581875.000000 78497500.000000" />
<path d="M188081874.999999 64997500.000000 A500001.000000 500001.000000 0.0 0 0 187581875.000000 64497500.000001" />
<path d="M174581875.000000 64497500.000000 A500000.000000 500000.000000 0.0 0 0 174081875.000000 64997500.000000" />
<path d="M187579111.000000 78496383.999999 A500001.000000 500001.000000 0.0 0 0 188079110.999999 77996384.000000" />
<path d="M185200625 78497500
L172200625 78497500
" />
<path d="M171700625 77997500
L171700625 64997500
" />
<path d="M185700625 64997500
L185700625 77997500
" />
<path d="M172200625 64497500
L185200625 64497500
" />
<path d="M185700625.000000 64997500.000000 A500000.000000 500000.000000 0.0 0 0 185200625.000000 64497500.000000" />
<path d="M185200625.000000 78497500.000000 A500000.000000 500000.000000 0.0 0 0 185700625.000000 77997500.000000" />
<path d="M171700625.000001 77997500.000000 A500001.000000 500001.000000 0.0 0 0 172200625.000000 78497499.999999" />
<path d="M172203389.000000 64498616.000001 A500001.000000 500001.000000 0.0 0 0 171703389.000001 64998616.000000" />
<path d="M166150625 78497500
L153150625 78497500
" />
<path d="M152650625 77997500
L152650625 64997500
" />
<path d="M166650625 64997500
L166650625 77997500
" />
<path d="M153150625 64497500
L166150625 64497500
" />
<path d="M166650625.000000 64997500.000000 A500000.000000 500000.000000 0.0 0 0 166150625.000000 64497500.000000" />
<path d="M166150625.000000 78497500.000000 A500000.000000 500000.000000 0.0 0 0 166650625.000000 77997500.000000" />
<path d="M152650625.000001 77997500.000000 A500001.000000 500001.000000 0.0 0 0 153150625.000000 78497499.999999" />
<path d="M153153389.000000 64498616.000001 A500001.000000 500001.000000 0.0 0 0 152653389.000001 64998616.000000" />
<path d="M164269375 64997500
L164269375 77997500
" />
<path d="M150269375 77997500
L150269375 64997500
" />
<path d="M163769375 78497500
L150769375 78497500
" />
<path d="M150769375 64497500
L163769375 64497500
" />
<path d="M150269375.000000 77997500.000000 A500000.000000 500000.000000 0.0 0 0 150769375.000000 78497500.000000" />
<path d="M164269374.999999 64997500.000000 A500001.000000 500001.000000 0.0 0 0 163769375.000000 64497500.000001" />
<path d="M150769375.000000 64497500.000000 A500000.000000 500000.000000 0.0 0 0 150269375.000000 64997500.000000" />
<path d="M163766611.000000 78496383.999999 A500001.000000 500001.000000 0.0 0 0 164266610.999999 77996384.000000" />
<path d="M135694375 64997500
L135694375 77997500
" />
<path d="M121694375 77997500
L121694375 64997500
" />
<path d="M135194375 78497500
L122194375 78497500
" />
<path d="M122194375 64497500
L135194375 64497500
" />
<path d="M121694375.000000 77997500.000000 A500000.000000 500000.000000 0.0 0 0 122194375.000000 78497500.000000" />
<path d="M135694374.999999 64997500.000000 A500001.000000 500001.000000 0.0 0 0 135194375.000000 64497500.000001" />
<path d="M122194375.000000 64497500.000000 A500000.000000 500000.000000 0.0 0 0 121694375.000000 64997500.000000" />
<path d="M135191611.000000 78496383.999999 A500001.000000 500001.000000 0.0 0 0 135691610.999999 77996384.000000" />
<path d="M119815889.000000 64498616.000001 A500001.000000 500001.000000 0.0 0 0 119315889.000001 64998616.000000" />
<path d="M119313125.000001 77997500.000000 A500001.000000 500001.000000 0.0 0 0 119813125.000000 78497499.999999" />
<path d="M132813125.000000 78497500.000000 A500000.000000 500000.000000 0.0 0 0 133313125.000000 77997500.000000" />
<path d="M133313125.000000 64997500.000000 A500000.000000 500000.000000 0.0 0 0 132813125.000000 64497500.000000" />
<path d="M119813125 64497500
L132813125 64497500
" />
<path d="M133313125 64997500
L133313125 77997500
" />
<path d="M119313125 77997500
L119313125 64997500
" />
<path d="M132813125 78497500
L119813125 78497500
" />
<path d="M113763125 78497500
L100763125 78497500
" />
<path d="M100263125 77997500
L100263125 64997500
" />
<path d="M114263125 64997500
L114263125 77997500
" />
<path d="M100763125 64497500
L113763125 64497500
" />
<path d="M114263125.000000 64997500.000000 A500000.000000 500000.000000 0.0 0 0 113763125.000000 64497500.000000" />
<path d="M113763125.000000 78497500.000000 A500000.000000 500000.000000 0.0 0 0 114263125.000000 77997500.000000" />
<path d="M100263125.000001 77997500.000000 A500001.000000 500001.000000 0.0 0 0 100763125.000000 78497499.999999" />
<path d="M100765889.000000 64498616.000001 A500001.000000 500001.000000 0.0 0 0 100265889.000001 64998616.000000" />
<path d="M111881875 64997500
L111881875 77997500
" />
<path d="M97881875 77997500
L97881875 64997500
" />
<path d="M111381875 78497500
L98381875 78497500
" />
<path d="M98381875 64497500
L111381875 64497500
" />
<path d="M97881875.000000 77997500.000000 A500000.000000 500000.000000 0.0 0 0 98381875.000000 78497500.000000" />
<path d="M111881874.999999 64997500.000000 A500001.000000 500001.000000 0.0 0 0 111381875.000000 64497500.000001" />
<path d="M98381875.000000 64497500.000000 A500000.000000 500000.000000 0.0 0 0 97881875.000000 64997500.000000" />
<path d="M111379111.000000 78496383.999999 A500001.000000 500001.000000 0.0 0 0 111879110.999999 77996384.000000" />
<path d="M267403750 63703750
L280403750 63703750
" />
<path d="M280903750 64203750
L280903750 77203750
" />
<path d="M266903750 77203750
L266903750 64203750
" />
<path d="M280403750 77703750
L267403750 77703750
" />
<path d="M266903750.000000 77203750.000000 A500000.000000 500000.000000 0.0 0 0 267403750.000000 77703750.000000" />
<path d="M267403750.000000 63703750.000000 A500000.000000 500000.000000 0.0 0 0 266903750.000000 64203750.000000" />
<path d="M280903749.999999 64203750.000000 A500001.000000 500001.000000 0.0 0 0 280403750.000000 63703750.000001" />
<path d="M280400986.000000 77702633.999999 A500001.000000 500001.000000 0.0 0 0 280900985.999999 77202634.000000" />
<path d="M249947500 65791250
L249947500 78791250
" />
<path d="M235947500 78791250
L235947500 65791250
" />
<path d="M249447500 79291250
L236447500 79291250
" />
<path d="M236447500 65291250
L249447500 65291250
" />
<path d="M235947500.000000 78791250.000000 A500000.000000 500000.000000 0.0 0 0 236447500.000000 79291250.000000" />
<path d="M249947499.999999 65791250.000000 A500001.000000 500001.000000 0.0 0 0 249447500.000000 65291250.000001" />
<path d="M236447500.000000 65291250.000000 A500000.000000 500000.000000 0.0 0 0 235947500.000000 65791250.000000" />
<path d="M249444736.000000 79290133.999999 A500001.000000 500001.000000 0.0 0 0 249944735.999999 78790134.000000" />
<path d="M215016250 62910000
L228016250 62910000
" />
<path d="M228516250 63410000
L228516250 76410000
" />
<path d="M214516250 76410000
L214516250 63410000
" />
<path d="M228016250 76910000
L215016250 76910000
" />
<path d="M214516250.000000 76410000.000000 A500000.000000 500000.000000 0.0 0 0 215016250.000000 76910000.000000" />
<path d="M215016250.000000 62910000.000000 A500000.000000 500000.000000 0.0 0 0 214516250.000000 63410000.000000" />
<path d="M228516249.999999 63410000.000000 A500001.000000 500001.000000 0.0 0 0 228016250.000000 62910000.000001" />
<path d="M228013486.000000 76908883.999999 A500001.000000 500001.000000 0.0 0 0 228513485.999999 76408884.000000" />
<path d="M207085000 63410000
L207085000 76410000
" />
<path d="M193085000 76410000
L193085000 63410000
" />
<path d="M206585000 76910000
L193585000 76910000
" />
<path d="M193585000 62910000
L206585000 62910000
" />
<path d="M193085000.000000 76410000.000000 A500000.000000 500000.000000 0.0 0 0 193585000.000000 76910000.000000" />
<path d="M207084999.999999 63410000.000000 A500001.000000 500001.000000 0.0 0 0 206585000.000000 62910000.000001" />
<path d="M193585000.000000 62910000.000000 A500000.000000 500000.000000 0.0 0 0 193085000.000000 63410000.000000" />
<path d="M206582236.000000 76908883.999999 A500001.000000 500001.000000 0.0 0 0 207082235.999999 76408884.000000" />
<path d="M92785000 63410000
L92785000 76410000
" />
<path d="M78785000 76410000
L78785000 63410000
" />
<path d="M92285000 76910000
L79285000 76910000
" />
<path d="M79285000 62910000
L92285000 62910000
" />
<path d="M78785000.000000 76410000.000000 A500000.000000 500000.000000 0.0 0 0 79285000.000000 76910000.000000" />
<path d="M92784999.999999 63410000.000000 A500001.000000 500001.000000 0.0 0 0 92285000.000000 62910000.000001" />
<path d="M79285000.000000 62910000.000000 A500000.000000 500000.000000 0.0 0 0 78785000.000000 63410000.000000" />
<path d="M92282236.000000 76908883.999999 A500001.000000 500001.000000 0.0 0 0 92782235.999999 76408884.000000" />
<path d="M57853750 62910000
L70853750 62910000
" />
<path d="M71353750 63410000
L71353750 76410000
" />
<path d="M57353750 76410000
L57353750 63410000
" />
<path d="M70853750 76910000
L57853750 76910000
" />
<path d="M57353750.000000 76410000.000000 A500000.000000 500000.000000 0.0 0 0 57853750.000000 76910000.000000" />
<path d="M57853750.000000 62910000.000000 A500000.000000 500000.000000 0.0 0 0 57353750.000000 63410000.000000" />
<path d="M71353749.999999 63410000.000000 A500001.000000 500001.000000 0.0 0 0 70853750.000000 62910000.000001" />
<path d="M70850986.000000 76908883.999999 A500001.000000 500001.000000 0.0 0 0 71350985.999999 76408884.000000" />
<path d="M49922500 65791250
L49922500 78791250
" />
<path d="M35922500 78791250
L35922500 65791250
" />
<path d="M49422500 79291250
L36422500 79291250
" />
<path d="M36422500 65291250
L49422500 65291250
" />
<path d="M35922500.000000 78791250.000000 A500000.000000 500000.000000 0.0 0 0 36422500.000000 79291250.000000" />
<path d="M49922499.999999 65791250.000000 A500001.000000 500001.000000 0.0 0 0 49422500.000000 65291250.000001" />
<path d="M36422500.000000 65291250.000000 A500000.000000 500000.000000 0.0 0 0 35922500.000000 65791250.000000" />
<path d="M49419736.000000 79290133.999999 A500001.000000 500001.000000 0.0 0 0 49919735.999999 78790134.000000" />
<path d="M5466250 63703750
L18466250 63703750
" />
<path d="M18966250 64203750
L18966250 77203750
" />
<path d="M4966250 77203750
L4966250 64203750
" />
<path d="M18466250 77703750
L5466250 77703750
" />
<path d="M4966250.000000 77203750.000000 A500000.000000 500000.000000 0.0 0 0 5466250.000000 77703750.000000" />
<path d="M5466250.000000 63703750.000000 A500000.000000 500000.000000 0.0 0 0 4966250.000000 64203750.000000" />
<path d="M18966249.999999 64203750.000000 A500001.000000 500001.000000 0.0 0 0 18466250.000000 63703750.000001" />
<path d="M18463486.000000 77702633.999999 A500001.000000 500001.000000 0.0 0 0 18963485.999999 77202634.000000" />
<path d="M276141250 45153750
L276141250 58153750
" />
<path d="M262641250 44653750
L275641250 44653750
" />
<path d="M262141250 58153750
L262141250 45153750
" />
<path d="M275641250 58653750
L262641250 58653750
" />
<path d="M276141249.999999 45153750.000000 A500001.000000 500001.000000 0.0 0 0 275641250.000000 44653750.000001" />
<path d="M262141250.000000 58153750.000000 A500000.000000 500000.000000 0.0 0 0 262641250.000000 58653750.000000" />
<path d="M275638486.000000 58652633.999999 A500001.000000 500001.000000 0.0 0 0 276138485.999999 58152634.000000" />
<path d="M262641250.000000 44653750.000000 A500000.000000 500000.000000 0.0 0 0 262141250.000000 45153750.000000" />
<path d="M249947500 46741250
L249947500 59741250
" />
<path d="M235947500 59741250
L235947500 46741250
" />
<path d="M249447500 60241250
L236447500 60241250
" />
<path d="M236447500 46241250
L249447500 46241250
" />
<path d="M235947500.000000 59741250.000000 A500000.000000 500000.000000 0.0 0 0 236447500.000000 60241250.000000" />
<path d="M249947499.999999 46741250.000000 A500001.000000 500001.000000 0.0 0 0 249447500.000000 46241250.000001" />
<path d="M236447500.000000 46241250.000000 A500000.000000 500000.000000 0.0 0 0 235947500.000000 46741250.000000" />
<path d="M249444736.000000 60240133.999999 A500001.000000 500001.000000 0.0 0 0 249944735.999999 59740134.000000" />
<path d="M230897500 44360000
L230897500 57360000
" />
<path d="M216897500 57360000
L216897500 44360000
" />
<path d="M230397500 57860000
L217397500 57860000
" />
<path d="M217397500 43860000
L230397500 43860000
" />
<path d="M216897500.000000 57360000.000000 A500000.000000 500000.000000 0.0 0 0 217397500.000000 57860000.000000" />
<path d="M230897499.999999 44360000.000000 A500001.000000 500001.000000 0.0 0 0 230397500.000000 43860000.000001" />
<path d="M217397500.000000 43860000.000000 A500000.000000 500000.000000 0.0 0 0 216897500.000000 44360000.000000" />
<path d="M230394736.000000 57858883.999999 A500001.000000 500001.000000 0.0 0 0 230894735.999999 57358884.000000" />
<path d="M211847500 41185000
L211847500 54185000
" />
<path d="M197847500 54185000
L197847500 41185000
" />
<path d="M211347500 54685000
L198347500 54685000
" />
<path d="M198347500 40685000
L211347500 40685000
" />
<path d="M197847500.000000 54185000.000000 A500000.000000 500000.000000 0.0 0 0 198347500.000000 54685000.000000" />
<path d="M211847499.999999 41185000.000000 A500001.000000 500001.000000 0.0 0 0 211347500.000000 40685000.000001" />
<path d="M198347500.000000 40685000.000000 A500000.000000 500000.000000 0.0 0 0 197847500.000000 41185000.000000" />
<path d="M211344736.000000 54683883.999999 A500001.000000 500001.000000 0.0 0 0 211844735.999999 54183884.000000" />
<path d="M192797500 44360000
L192797500 57360000
" />
<path d="M178797500 57360000
L178797500 44360000
" />
<path d="M192297500 57860000
L179297500 57860000
" />
<path d="M179297500 43860000
L192297500 43860000
" />
<path d="M178797500.000000 57360000.000000 A500000.000000 500000.000000 0.0 0 0 179297500.000000 57860000.000000" />
<path d="M192797499.999999 44360000.000000 A500001.000000 500001.000000 0.0 0 0 192297500.000000 43860000.000001" />
<path d="M179297500.000000 43860000.000000 A500000.000000 500000.000000 0.0 0 0 178797500.000000 44360000.000000" />
<path d="M192294736.000000 57858883.999999 A500001.000000 500001.000000 0.0 0 0 192794735.999999 57358884.000000" />
<path d="M173747500 45947500
L173747500 58947500
" />
<path d="M159747500 58947500
L159747500 45947500
" />
<path d="M173247500 59447500
L160247500 59447500
" />
<path d="M160247500 45447500
L173247500 45447500
" />
<path d="M159747500.000000 58947500.000000 A500000.000000 500000.000000 0.0 0 0 160247500.000000 59447500.000000" />
<path d="M173747499.999999 45947500.000000 A500001.000000 500001.000000 0.0 0 0 173247500.000000 45447500.000001" />
<path d="M160247500.000000 45447500.000000 A500000.000000 500000.000000 0.0 0 0 159747500.000000 45947500.000000" />
<path d="M173244736.000000 59446383.999999 A500001.000000 500001.000000 0.0 0 0 173744735.999999 58946384.000000" />
<path d="M149935000 43566250
L149935000 56566250
" />
<path d="M135935000 56566250
L135935000 43566250
" />
<path d="M149435000 57066250
L136435000 57066250
" />
<path d="M136435000 43066250
L149435000 43066250
" />
<path d="M135935000.000000 56566250.000000 A500000.000000 500000.000000 0.0 0 0 136435000.000000 57066250.000000" />
<path d="M149934999.999999 43566250.000000 A500001.000000 500001.000000 0.0 0 0 149435000.000000 43066250.000001" />
<path d="M136435000.000000 43066250.000000 A500000.000000 500000.000000 0.0 0 0 135935000.000000 43566250.000000" />
<path d="M149432236.000000 57065133.999999 A500001.000000 500001.000000 0.0 0 0 149932235.999999 56565134.000000" />
<path d="M126122500 45947500
L126122500 58947500
" />
<path d="M112122500 58947500
L112122500 45947500
" />
<path d="M125622500 59447500
L112622500 59447500
" />
<path d="M112622500 45447500
L125622500 45447500
" />
<path d="M112122500.000000 58947500.000000 A500000.000000 500000.000000 0.0 0 0 112622500.000000 59447500.000000" />
<path d="M126122499.999999 45947500.000000 A500001.000000 500001.000000 0.0 0 0 125622500.000000 45447500.000001" />
<path d="M112622500.000000 45447500.000000 A500000.000000 500000.000000 0.0 0 0 112122500.000000 45947500.000000" />
<path d="M125619736.000000 59446383.999999 A500001.000000 500001.000000 0.0 0 0 126119735.999999 58946384.000000" />
<path d="M107072500 44360000
L107072500 57360000
" />
<path d="M93072500 57360000
L93072500 44360000
" />
<path d="M106572500 57860000
L93572500 57860000
" />
<path d="M93572500 43860000
L106572500 43860000
" />
<path d="M93072500.000000 57360000.000000 A500000.000000 500000.000000 0.0 0 0 93572500.000000 57860000.000000" />
<path d="M107072499.999999 44360000.000000 A500001.000000 500001.000000 0.0 0 0 106572500.000000 43860000.000001" />
<path d="M93572500.000000 43860000.000000 A500000.000000 500000.000000 0.0 0 0 93072500.000000 44360000.000000" />
<path d="M106569736.000000 57858883.999999 A500001.000000 500001.000000 0.0 0 0 107069735.999999 57358884.000000" />
<path d="M88022500 41185000
L88022500 54185000
" />
<path d="M74022500 54185000
L74022500 41185000
" />
<path d="M87522500 54685000
L74522500 54685000
" />
<path d="M74522500 40685000
L87522500 40685000
" />
<path d="M74022500.000000 54185000.000000 A500000.000000 500000.000000 0.0 0 0 74522500.000000 54685000.000000" />
<path d="M88022499.999999 41185000.000000 A500001.000000 500001.000000 0.0 0 0 87522500.000000 40685000.000001" />
<path d="M74522500.000000 40685000.000000 A500000.000000 500000.000000 0.0 0 0 74022500.000000 41185000.000000" />
<path d="M87519736.000000 54683883.999999 A500001.000000 500001.000000 0.0 0 0 88019735.999999 54183884.000000" />
<path d="M68972500 44360000
L68972500 57360000
" />
<path d="M54972500 57360000
L54972500 44360000
" />
<path d="M68472500 57860000
L55472500 57860000
" />
<path d="M55472500 43860000
L68472500 43860000
" />
<path d="M54972500.000000 57360000.000000 A500000.000000 500000.000000 0.0 0 0 55472500.000000 57860000.000000" />
<path d="M68972499.999999 44360000.000000 A500001.000000 500001.000000 0.0 0 0 68472500.000000 43860000.000001" />
<path d="M55472500.000000 43860000.000000 A500000.000000 500000.000000 0.0 0 0 54972500.000000 44360000.000000" />
<path d="M68469736.000000 57858883.999999 A500001.000000 500001.000000 0.0 0 0 68969735.999999 57358884.000000" />
<path d="M49922500 46741250
L49922500 59741250
" />
<path d="M35922500 59741250
L35922500 46741250
" />
<path d="M49422500 60241250
L36422500 60241250
" />
<path d="M36422500 46241250
L49422500 46241250
" />
<path d="M35922500.000000 59741250.000000 A500000.000000 500000.000000 0.0 0 0 36422500.000000 60241250.000000" />
<path d="M49922499.999999 46741250.000000 A500001.000000 500001.000000 0.0 0 0 49422500.000000 46241250.000001" />
<path d="M36422500.000000 46241250.000000 A500000.000000 500000.000000 0.0 0 0 35922500.000000 46741250.000000" />
<path d="M49419736.000000 60240133.999999 A500001.000000 500001.000000 0.0 0 0 49919735.999999 59740134.000000" />
<path d="M23728750 45153750
L23728750 58153750
" />
<path d="M10228750 44653750
L23228750 44653750
" />
<path d="M9728750 58153750
L9728750 45153750
" />
<path d="M23228750 58653750
L10228750 58653750
" />
<path d="M23728749.999999 45153750.000000 A500001.000000 500001.000000 0.0 0 0 23228750.000000 44653750.000001" />
<path d="M9728750.000000 58153750.000000 A500000.000000 500000.000000 0.0 0 0 10228750.000000 58653750.000000" />
<path d="M23225986.000000 58652633.999999 A500001.000000 500001.000000 0.0 0 0 23725985.999999 58152634.000000" />
<path d="M10228750.000000 44653750.000000 A500000.000000 500000.000000 0.0 0 0 9728750.000000 45153750.000000" />
<path d="M260260000 25603750
L273260000 25603750
" />
<path d="M273760000 26103750
L273760000 39103750
" />
<path d="M259760000 39103750
L259760000 26103750
" />
<path d="M273260000 39603750
L260260000 39603750
" />
<path d="M259760000.000000 39103750.000000 A500000.000000 500000.000000 0.0 0 0 260260000.000000 39603750.000000" />
<path d="M273759999.999999 26103750.000000 A500001.000000 500001.000000 0.0 0 0 273260000.000000 25603750.000001" />
<path d="M273257236.000000 39602633.999999 A500001.000000 500001.000000 0.0 0 0 273757235.999999 39102634.000000" />
<path d="M260260000.000000 25603750.000000 A500000.000000 500000.000000 0.0 0 0 259760000.000000 26103750.000000" />
<path d="M249947500 27691250
L249947500 40691250
" />
<path d="M235947500 40691250
L235947500 27691250
" />
<path d="M249447500 41191250
L236447500 41191250
" />
<path d="M236447500 27191250
L249447500 27191250
" />
<path d="M235947500.000000 40691250.000000 A500000.000000 500000.000000 0.0 0 0 236447500.000000 41191250.000000" />
<path d="M249947499.999999 27691250.000000 A500001.000000 500001.000000 0.0 0 0 249447500.000000 27191250.000001" />
<path d="M236447500.000000 27191250.000000 A500000.000000 500000.000000 0.0 0 0 235947500.000000 27691250.000000" />
<path d="M249444736.000000 41190133.999999 A500001.000000 500001.000000 0.0 0 0 249944735.999999 40690134.000000" />
<path d="M230897500 25310000
L230897500 38310000
" />
<path d="M216897500 38310000
L216897500 25310000
" />
<path d="M230397500 38810000
L217397500 38810000
" />
<path d="M217397500 24810000
L230397500 24810000
" />
<path d="M216897500.000000 38310000.000000 A500000.000000 500000.000000 0.0 0 0 217397500.000000 38810000.000000" />
<path d="M230897499.999999 25310000.000000 A500001.000000 500001.000000 0.0 0 0 230397500.000000 24810000.000001" />
<path d="M217397500.000000 24810000.000000 A500000.000000 500000.000000 0.0 0 0 216897500.000000 25310000.000000" />
<path d="M230394736.000000 38808883.999999 A500001.000000 500001.000000 0.0 0 0 230894735.999999 38308884.000000" />
<path d="M211847500 22135000
L211847500 35135000
" />
<path d="M197847500 35135000
L197847500 22135000
" />
<path d="M211347500 35635000
L198347500 35635000
" />
<path d="M198347500 21635000
L211347500 21635000
" />
<path d="M197847500.000000 35135000.000000 A500000.000000 500000.000000 0.0 0 0 198347500.000000 35635000.000000" />
<path d="M211847499.999999 22135000.000000 A500001.000000 500001.000000 0.0 0 0 211347500.000000 21635000.000001" />
<path d="M198347500.000000 21635000.000000 A500000.000000 500000.000000 0.0 0 0 197847500.000000 22135000.000000" />
<path d="M211344736.000000 35633883.999999 A500001.000000 500001.000000 0.0 0 0 211844735.999999 35133884.000000" />
<path d="M192797500 25310000
L192797500 38310000
" />
<path d="M178797500 38310000
L178797500 25310000
" />
<path d="M192297500 38810000
L179297500 38810000
" />
<path d="M179297500 24810000
L192297500 24810000
" />
<path d="M178797500.000000 38310000.000000 A500000.000000 500000.000000 0.0 0 0 179297500.000000 38810000.000000" />
<path d="M192797499.999999 25310000.000000 A500001.000000 500001.000000 0.0 0 0 192297500.000000 24810000.000001" />
<path d="M179297500.000000 24810000.000000 A500000.000000 500000.000000 0.0 0 0 178797500.000000 25310000.000000" />
<path d="M192294736.000000 38808883.999999 A500001.000000 500001.000000 0.0 0 0 192794735.999999 38308884.000000" />
<path d="M173747500 26897500
L173747500 39897500
" />
<path d="M159747500 39897500
L159747500 26897500
" />
<path d="M173247500 40397500
L160247500 40397500
" />
<path d="M160247500 26397500
L173247500 26397500
" />
<path d="M159747500.000000 39897500.000000 A500000.000000 500000.000000 0.0 0 0 160247500.000000 40397500.000000" />
<path d="M173747499.999999 26897500.000000 A500001.000000 500001.000000 0.0 0 0 173247500.000000 26397500.000001" />
<path d="M160247500.000000 26397500.000000 A500000.000000 500000.000000 0.0 0 0 159747500.000000 26897500.000000" />
<path d="M173244736.000000 40396383.999999 A500001.000000 500001.000000 0.0 0 0 173744735.999999 39896384.000000" />
<path d="M149935000 24516250
L149935000 37516250
" />
<path d="M135935000 37516250
L135935000 24516250
" />
<path d="M149435000 38016250
L136435000 38016250
" />
<path d="M136435000 24016250
L149435000 24016250
" />
<path d="M135935000.000000 37516250.000000 A500000.000000 500000.000000 0.0 0 0 136435000.000000 38016250.000000" />
<path d="M149934999.999999 24516250.000000 A500001.000000 500001.000000 0.0 0 0 149435000.000000 24016250.000001" />
<path d="M136435000.000000 24016250.000000 A500000.000000 500000.000000 0.0 0 0 135935000.000000 24516250.000000" />
<path d="M149432236.000000 38015133.999999 A500001.000000 500001.000000 0.0 0 0 149932235.999999 37515134.000000" />
<path d="M126122500 26897500
L126122500 39897500
" />
<path d="M112122500 39897500
L112122500 26897500
" />
<path d="M125622500 40397500
L112622500 40397500
" />
<path d="M112622500 26397500
L125622500 26397500
" />
<path d="M112122500.000000 39897500.000000 A500000.000000 500000.000000 0.0 0 0 112622500.000000 40397500.000000" />
<path d="M126122499.999999 26897500.000000 A500001.000000 500001.000000 0.0 0 0 125622500.000000 26397500.000001" />
<path d="M112622500.000000 26397500.000000 A500000.000000 500000.000000 0.0 0 0 112122500.000000 26897500.000000" />
<path d="M125619736.000000 40396383.999999 A500001.000000 500001.000000 0.0 0 0 126119735.999999 39896384.000000" />
<path d="M107072500 25310000
L107072500 38310000
" />
<path d="M93072500 38310000
L93072500 25310000
" />
<path d="M106572500 38810000
L93572500 38810000
" />
<path d="M93572500 24810000
L106572500 24810000
" />
<path d="M93072500.000000 38310000.000000 A500000.000000 500000.000000 0.0 0 0 93572500.000000 38810000.000000" />
<path d="M107072499.999999 25310000.000000 A500001.000000 500001.000000 0.0 0 0 106572500.000000 24810000.000001" />
<path d="M93572500.000000 24810000.000000 A500000.000000 500000.000000 0.0 0 0 93072500.000000 25310000.000000" />
<path d="M106569736.000000 38808883.999999 A500001.000000 500001.000000 0.0 0 0 107069735.999999 38308884.000000" />
<path d="M88022500 22135000
L88022500 35135000
" />
<path d="M74022500 35135000
L74022500 22135000
" />
<path d="M87522500 35635000
L74522500 35635000
" />
<path d="M74522500 21635000
L87522500 21635000
" />
<path d="M74022500.000000 35135000.000000 A500000.000000 500000.000000 0.0 0 0 74522500.000000 35635000.000000" />
<path d="M88022499.999999 22135000.000000 A500001.000000 500001.000000 0.0 0 0 87522500.000000 21635000.000001" />
<path d="M74522500.000000 21635000.000000 A500000.000000 500000.000000 0.0 0 0 74022500.000000 22135000.000000" />
<path d="M87519736.000000 35633883.999999 A500001.000000 500001.000000 0.0 0 0 88019735.999999 35133884.000000" />
<path d="M68972500 25310000
L68972500 38310000
" />
<path d="M54972500 38310000
L54972500 25310000
" />
<path d="M68472500 38810000
L55472500 38810000
" />
<path d="M55472500 24810000
L68472500 24810000
" />
<path d="M54972500.000000 38310000.000000 A500000.000000 500000.000000 0.0 0 0 55472500.000000 38810000.000000" />
<path d="M68972499.999999 25310000.000000 A500001.000000 500001.000000 0.0 0 0 68472500.000000 24810000.000001" />
<path d="M55472500.000000 24810000.000000 A500000.000000 500000.000000 0.0 0 0 54972500.000000 25310000.000000" />
<path d="M68469736.000000 38808883.999999 A500001.000000 500001.000000 0.0 0 0 68969735.999999 38308884.000000" />
<path d="M49922500 27691250
L49922500 40691250
" />
<path d="M35922500 40691250
L35922500 27691250
" />
<path d="M49422500 41191250
L36422500 41191250
" />
<path d="M36422500 27191250
L49422500 27191250
" />
<path d="M35922500.000000 40691250.000000 A500000.000000 500000.000000 0.0 0 0 36422500.000000 41191250.000000" />
<path d="M49922499.999999 27691250.000000 A500001.000000 500001.000000 0.0 0 0 49422500.000000 27191250.000001" />
<path d="M36422500.000000 27191250.000000 A500000.000000 500000.000000 0.0 0 0 35922500.000000 27691250.000000" />
<path d="M49419736.000000 41190133.999999 A500001.000000 500001.000000 0.0 0 0 49919735.999999 40690134.000000" />
<path d="M12610000 25603750
L25610000 25603750
" />
<path d="M26110000 26103750
L26110000 39103750
" />
<path d="M12110000 39103750
L12110000 26103750
" />
<path d="M25610000 39603750
L12610000 39603750
" />
<path d="M12110000.000000 39103750.000000 A500000.000000 500000.000000 0.0 0 0 12610000.000000 39603750.000000" />
<path d="M26109999.999999 26103750.000000 A500001.000000 500001.000000 0.0 0 0 25610000.000000 25603750.000001" />
<path d="M25607236.000000 39602633.999999 A500001.000000 500001.000000 0.0 0 0 26107235.999999 39102634.000000" />
<path d="M12610000.000000 25603750.000000 A500000.000000 500000.000000 0.0 0 0 12110000.000000 26103750.000000" />
<path d="M268997500 7053750
L268997500 20053750
" />
<path d="M254997500 20053750
L254997500 7053750
" />
<path d="M268497500 20553750
L255497500 20553750
" />
<path d="M255497500 6553750
L268497500 6553750
" />
<path d="M254997500.000000 20053750.000000 A500000.000000 500000.000000 0.0 0 0 255497500.000000 20553750.000000" />
<path d="M268997499.999999 7053750.000000 A500001.000000 500001.000000 0.0 0 0 268497500.000000 6553750.000001" />
<path d="M255497500.000000 6553750.000000 A500000.000000 500000.000000 0.0 0 0 254997500.000000 7053750.000000" />
<path d="M268494736.000000 20552633.999999 A500001.000000 500001.000000 0.0 0 0 268994735.999999 20052634.000000" />
<path d="M249444736.000000 22140133.999999 A500001.000000 500001.000000 0.0 0 0 249944735.999999 21640134.000000" />
<path d="M236447500.000000 8141250.000000 A500000.000000 500000.000000 0.0 0 0 235947500.000000 8641250.000000" />
<path d="M249947499.999999 8641250.000000 A500001.000000 500001.000000 0.0 0 0 249447500.000000 8141250.000001" />
<path d="M235947500.000000 21641250.000000 A500000.000000 500000.000000 0.0 0 0 236447500.000000 22141250.000000" />
<path d="M236447500 8141250
L249447500 8141250
" />
<path d="M249447500 22141250
L236447500 22141250
" />
<path d="M235947500 21641250
L235947500 8641250
" />
<path d="M249947500 8641250
L249947500 21641250
" />
<path d="M230897500 6260000
L230897500 19260000
" />
<path d="M216897500 19260000
L216897500 6260000
" />
<path d="M230397500 19760000
L217397500 19760000
" />
<path d="M217397500 5760000
L230397500 5760000
" />
<path d="M216897500.000000 19260000.000000 A500000.000000 500000.000000 0.0 0 0 217397500.000000 19760000.000000" />
<path d="M230897499.999999 6260000.000000 A500001.000000 500001.000000 0.0 0 0 230397500.000000 5760000.000001" />
<path d="M217397500.000000 5760000.000000 A500000.000000 500000.000000 0.0 0 0 216897500.000000 6260000.000000" />
<path d="M230394736.000000 19758883.999999 A500001.000000 500001.000000 0.0 0 0 230894735.999999 19258884.000000" />
<path d="M211847500 3085000
L211847500 16085000
" />
<path d="M197847500 16085000
L197847500 3085000
" />
<path d="M211347500 16585000
L198347500 16585000
" />
<path d="M198347500 2585000
L211347500 2585000
" />
<path d="M197847500.000000 16085000.000000 A500000.000000 500000.000000 0.0 0 0 198347500.000000 16585000.000000" />
<path d="M211847499.999999 3085000.000000 A500001.000000 500001.000000 0.0 0 0 211347500.000000 2585000.000001" />
<path d="M198347500.000000 2585000.000000 A500000.000000 500000.000000 0.0 0 0 197847500.000000 3085000.000000" />
<path d="M211344736.000000 16583883.999999 A500001.000000 500001.000000 0.0 0 0 211844735.999999 16083884.000000" />
<path d="M192797500 6260000
L192797500 19260000
" />
<path d="M178797500 19260000
L178797500 6260000
" />
<path d="M192297500 19760000
L179297500 19760000
" />
<path d="M179297500 5760000
L192297500 5760000
" />
<path d="M178797500.000000 19260000.000000 A500000.000000 500000.000000 0.0 0 0 179297500.000000 19760000.000000" />
<path d="M192797499.999999 6260000.000000 A500001.000000 500001.000000 0.0 0 0 192297500.000000 5760000.000001" />
<path d="M179297500.000000 5760000.000000 A500000.000000 500000.000000 0.0 0 0 178797500.000000 6260000.000000" />
<path d="M192294736.000000 19758883.999999 A500001.000000 500001.000000 0.0 0 0 192794735.999999 19258884.000000" />
<path d="M173747500 7847500
L173747500 20847500
" />
<path d="M159747500 20847500
L159747500 7847500
" />
<path d="M173247500 21347500
L160247500 21347500
" />
<path d="M160247500 7347500
L173247500 7347500
" />
<path d="M159747500.000000 20847500.000000 A500000.000000 500000.000000 0.0 0 0 160247500.000000 21347500.000000" />
<path d="M173747499.999999 7847500.000000 A500001.000000 500001.000000 0.0 0 0 173247500.000000 7347500.000001" />
<path d="M160247500.000000 7347500.000000 A500000.000000 500000.000000 0.0 0 0 159747500.000000 7847500.000000" />
<path d="M173244736.000000 21346383.999999 A500001.000000 500001.000000 0.0 0 0 173744735.999999 20846384.000000" />
<path d="M149935000 5466250
L149935000 18466250
" />
<path d="M135935000 18466250
L135935000 5466250
" />
<path d="M149435000 18966250
L136435000 18966250
" />
<path d="M136435000 4966250
L149435000 4966250
" />
<path d="M135935000.000000 18466250.000000 A500000.000000 500000.000000 0.0 0 0 136435000.000000 18966250.000000" />
<path d="M149934999.999999 5466250.000000 A500001.000000 500001.000000 0.0 0 0 149435000.000000 4966250.000001" />
<path d="M136435000.000000 4966250.000000 A500000.000000 500000.000000 0.0 0 0 135935000.000000 5466250.000000" />
<path d="M149432236.000000 18965133.999999 A500001.000000 500001.000000 0.0 0 0 149932235.999999 18465134.000000" />
<path d="M126122500 7847500
L126122500 20847500
" />
<path d="M112122500 20847500
L112122500 7847500
" />
<path d="M125622500 21347500
L112622500 21347500
" />
<path d="M112622500 7347500
L125622500 7347500
" />
<path d="M112122500.000000 20847500.000000 A500000.000000 500000.000000 0.0 0 0 112622500.000000 21347500.000000" />
<path d="M126122499.999999 7847500.000000 A500001.000000 500001.000000 0.0 0 0 125622500.000000 7347500.000001" />
<path d="M112622500.000000 7347500.000000 A500000.000000 500000.000000 0.0 0 0 112122500.000000 7847500.000000" />
<path d="M125619736.000000 21346383.999999 A500001.000000 500001.000000 0.0 0 0 126119735.999999 20846384.000000" />
<path d="M107072500 6260000
L107072500 19260000
" />
<path d="M93072500 19260000
L93072500 6260000
" />
<path d="M106572500 19760000
L93572500 19760000
" />
<path d="M93572500 5760000
L106572500 5760000
" />
<path d="M93072500.000000 19260000.000000 A500000.000000 500000.000000 0.0 0 0 93572500.000000 19760000.000000" />
<path d="M107072499.999999 6260000.000000 A500001.000000 500001.000000 0.0 0 0 106572500.000000 5760000.000001" />
<path d="M93572500.000000 5760000.000000 A500000.000000 500000.000000 0.0 0 0 93072500.000000 6260000.000000" />
<path d="M106569736.000000 19758883.999999 A500001.000000 500001.000000 0.0 0 0 107069735.999999 19258884.000000" />
<path d="M88022500 3085000
L88022500 16085000
" />
<path d="M74022500 16085000
L74022500 3085000
" />
<path d="M87522500 16585000
L74522500 16585000
" />
<path d="M74522500 2585000
L87522500 2585000
" />
<path d="M74022500.000000 16085000.000000 A500000.000000 500000.000000 0.0 0 0 74522500.000000 16585000.000000" />
<path d="M88022499.999999 3085000.000000 A500001.000000 500001.000000 0.0 0 0 87522500.000000 2585000.000001" />
<path d="M74522500.000000 2585000.000000 A500000.000000 500000.000000 0.0 0 0 74022500.000000 3085000.000000" />
<path d="M87519736.000000 16583883.999999 A500001.000000 500001.000000 0.0 0 0 88019735.999999 16083884.000000" />
<path d="M68972500 6260000
L68972500 19260000
" />
<path d="M54972500 19260000
L54972500 6260000
" />
<path d="M68472500 19760000
L55472500 19760000
" />
<path d="M55472500 5760000
L68472500 5760000
" />
<path d="M54972500.000000 19260000.000000 A500000.000000 500000.000000 0.0 0 0 55472500.000000 19760000.000000" />
<path d="M68972499.999999 6260000.000000 A500001.000000 500001.000000 0.0 0 0 68472500.000000 5760000.000001" />
<path d="M55472500.000000 5760000.000000 A500000.000000 500000.000000 0.0 0 0 54972500.000000 6260000.000000" />
<path d="M68469736.000000 19758883.999999 A500001.000000 500001.000000 0.0 0 0 68969735.999999 19258884.000000" />
<path d="M49922500 8641250
L49922500 21641250
" />
<path d="M35922500 21641250
L35922500 8641250
" />
<path d="M49422500 22141250
L36422500 22141250
" />
<path d="M36422500 8141250
L49422500 8141250
" />
<path d="M35922500.000000 21641250.000000 A500000.000000 500000.000000 0.0 0 0 36422500.000000 22141250.000000" />
<path d="M49922499.999999 8641250.000000 A500001.000000 500001.000000 0.0 0 0 49422500.000000 8141250.000001" />
<path d="M36422500.000000 8141250.000000 A500000.000000 500000.000000 0.0 0 0 35922500.000000 8641250.000000" />
<path d="M49419736.000000 22140133.999999 A500001.000000 500001.000000 0.0 0 0 49919735.999999 21640134.000000" />
<path d="M30872500 7053750
L30872500 20053750
" />
<path d="M16872500 20053750
L16872500 7053750
" />
<path d="M30372500 20553750
L17372500 20553750
" />
<path d="M17372500 6553750
L30372500 6553750
" />
<path d="M16872500.000000 20053750.000000 A500000.000000 500000.000000 0.0 0 0 17372500.000000 20553750.000000" />
<path d="M30872499.999999 7053750.000000 A500001.000000 500001.000000 0.0 0 0 30372500.000000 6553750.000001" />
<path d="M17372500.000000 6553750.000000 A500000.000000 500000.000000 0.0 0 0 16872500.000000 7053750.000000" />
<path d="M30369736.000000 20552633.999999 A500001.000000 500001.000000 0.0 0 0 30869735.999999 20052634.000000" />
<g >
</g>
<g >
</g>
<g >
</g>
<g >
</g>
<g >
</g>
<g >
</g>
<g >
</g>
<g >
</g>
<g >
</g>
<g >
</g>
<g >
</g>
<g >
</g>
<g >
</g>
<g >
</g>
<g >
</g>
<g >
</g>
<g >
</g>
<g >
</g>
<g >
</g>
<g >
</g>
<g >
</g>
<g >
</g>
<g >
</g>
<g >
</g>
<g >
</g>
<g >
</g>
<g >
</g>
<g >
</g>
<g >
</g>
<g >
</g>
<g >
</g>
<g >
</g>
<g >
</g>
<g >
</g>
<g >
</g>
<g >
</g>
<g >
</g>
<g >
</g>
<g >
</g>
<g >
</g>
<g >
</g>
<g >
</g>
<g >
</g>
<g >
</g>
<g >
</g>
<g >
</g>
<g >
</g>
<g >
</g>
<g >
</g>
<g >
</g>
<g >
</g>
<g >
</g>
<g >
</g>
<g >
</g>
<g >
</g>
<g >
</g>
<g >
</g>
<g >
</g>
<g >
</g>
<g >
</g>
<g >
</g>
<g >
</g>
<g >
</g>
<g >
</g>
<g >
</g>
<g >
</g>
<g >
</g>
<g >
</g>
<g >
</g>
<g >
</g>
<g >
</g>
<g >
</g>
<g >
</g>
<g >
</g>
<g >
</g>
<g >
</g>
<g >
</g>
<g >
</g>
<g >
</g>
<g >
</g>
<g >
</g>
<g >
</g>
<g >
</g>
<g >
</g>
<g >
</g>
<g >
</g>
<g >
</g>
<g >
</g>
<g >
</g>
<g >
</g>
<g >
</g>
<g >
</g>
<g >
</g>
<g >
</g>
<g >
</g>
<g >
</g>
<g >
</g>
<g >
</g>
<g >
</g>
<g >
</g>
<g >
</g>
<g >
</g>
<g >
</g>
<g >
</g>
<g >
</g>
<g >
</g>
<g >
</g>
<g >
</g>
<g >
</g>
<g >
</g>
<g >
</g>
<g >
</g>
<g >
</g>
<g >
</g>
<g >
</g>
<g >
</g>
<g >
</g>
<g >
</g>
<g >
</g>
<g >
</g>
<g >
</g>
<g >
</g>
<g >
</g>
<g >
</g>
<g >
</g>
</g>
<g style="fill:#000000; fill-opacity:0.0; 
stroke:#000000; stroke-width:50000.000000; stroke-opacity:1; 
stroke-linecap:round; stroke-linejoin:round;">
<g >
</g>
<g >
</g>
<g >
</g>
<g >
</g>
<g >
</g>
<g >
</g>
<g >
</g>
<g >
</g>
<g >
</g>
<g >
</g>
<g >
</g>
<g >
</g>
<g >
</g>
<g >
</g>
<g >
</g>
<g >
</g>
<g >
</g>
<g >
</g>
<g >
</g>
<g >
</g>
<g >
</g>
<g >
</g>
<g >
</g>
<g >
</g>
<g >
</g>
<g >
</g>
<g >
</g>
<g >
</g>
<g >
</g>
<g >
</g>
<g >
</g>
<g >
</g>
<g >
</g>
<g >
</g>
<g >
</g>
<g >
</g>
<g >
</g>
<g >
</g>
<g >
</g>
<g >
</g>
<g >
</g>
<g >
</g>
<g >
</g>
<g >
</g>
<g >
</g>
<g >
</g>
<g >
</g>
<g >
</g>
<g >
</g>
<g >
</g>
<g >
</g>
<g >
</g>
<g >
</g>
<g >
</g>
<g >
</g>
<g >
</g>
<g >
</g>
<g >
</g>
<g >
</g>
<g >
</g>
<g >
</g>
<g >
</g>
<g >
</g>
<g >
</g>
<g >
</g>
<g >
</g>
<g >
</g>
<g >
</g>
<g >
</g>
<g >
</g>
<g >
</g>
<g >
</g>
<g >
</g>
<g >
</g>
<g >
</g>
<g >
</g>
<g >
</g>
<g >
</g>
<g >
</g>
<g >
</g>
<g >
</g>
<g >
</g>
<g >
</g>
<g >
</g>
<g >
</g>
<g >
</g>
<g >
</g>
<g >
</g>
<g >
</g>
<g >
</g>
<g >
</g>
<g >
</g>
<g >
</g>
<g >
</g>
<g >
</g>
<g >
</g>
<g >
</g>
<g >
</g>
<g >
</g>
<g >
</g>
<g >
</g>
<g >
</g>
<g >
</g>
<g >
</g>
<g >
</g>
<g >
</g>
<g >
</g>
<g >
</g>
<g >
</g>
<g >
</g>
<g >
</g>
<g >
</g>
<g >
</g>
<g >
</g>
<g >
</g>
<g >
</g>
<g >
</g>
<g >
</g>
<g >
</g>
<g >
</g>
<g >
</g>
<g >
</g>
<g >
</g>
<g >
</g>
<g >
</g>
</g> 
</svg>
