<?xml version="1.0" standalone="no"?>
 <!DOCTYPE svg PUBLIC "-//W3C//DTD SVG 1.1//EN" 
 "http://www.w3.org/Graphics/SVG/1.1/DTD/svg11.dtd"> 
<svg
  xmlns:svg="http://www.w3.org/2000/svg"
  xmlns="http://www.w3.org/2000/svg"
  xmlns:xlink="http://www.w3.org/1999/xlink"
  version="1.1"
  width="28.585160cm" height="13.759180cm" viewBox="0 0 285851600 137591800">
<title>SVG Picture created as teethless40_csl_pcb_schema-User_Drawings.svg date 2022/09/05 02:10:17 </title>
  <desc>Picture generated by PCBNEW </desc>
<g style="fill:#000000; fill-opacity:1.000000;stroke:#000000; stroke-opacity:1.000000;
stroke-linecap:round; stroke-linejoin:round;"
 transform="translate(0 0) scale(1 1)">
</g>
<g style="fill:#000000; fill-opacity:0.0; 
stroke:#000000; stroke-width:0.000000; stroke-opacity:1; 
stroke-linecap:round; stroke-linejoin:round;">
</g>
<g style="fill:#000000; fill-opacity:0.0; 
stroke:#000000; stroke-width:150000.000000; stroke-opacity:1; 
stroke-linecap:round; stroke-linejoin:round;">
<text x="142585000.000000" y="95670625.000000"
textLength="15195000.000000" font-size="1333333.000000" lengthAdjust="spacingAndGlyphs"
text-anchor="middle" opacity="0">Molex-0548190589</text>
<g class="stroked-text"><desc>Molex-0548190589</desc>
<path d="M135323095 95623005
L135323095 94623005
L135656428 95337291
L135989761 94623005
L135989761 95623005
" />
<path d="M136608809 95623005
L136513571 95575386
L136465952 95527767
L136418333 95432529
L136418333 95146815
L136465952 95051577
L136513571 95003958
L136608809 94956339
L136751666 94956339
L136846904 95003958
L136894523 95051577
L136942142 95146815
L136942142 95432529
L136894523 95527767
L136846904 95575386
L136751666 95623005
L136608809 95623005
" />
<path d="M137513571 95623005
L137418333 95575386
L137370714 95480148
L137370714 94623005
" />
<path d="M138275476 95575386
L138180238 95623005
L137989761 95623005
L137894523 95575386
L137846904 95480148
L137846904 95099196
L137894523 95003958
L137989761 94956339
L138180238 94956339
L138275476 95003958
L138323095 95099196
L138323095 95194434
L137846904 95289672
" />
<path d="M138656428 95623005
L139180238 94956339
" />
<path d="M138656428 94956339
L139180238 95623005
" />
<path d="M139561190 95242053
L140323095 95242053
" />
<path d="M140989761 94623005
L141085000 94623005
L141180238 94670625
L141227857 94718244
L141275476 94813482
L141323095 95003958
L141323095 95242053
L141275476 95432529
L141227857 95527767
L141180238 95575386
L141085000 95623005
L140989761 95623005
L140894523 95575386
L140846904 95527767
L140799285 95432529
L140751666 95242053
L140751666 95003958
L140799285 94813482
L140846904 94718244
L140894523 94670625
L140989761 94623005
" />
<path d="M142227857 94623005
L141751666 94623005
L141704047 95099196
L141751666 95051577
L141846904 95003958
L142085000 95003958
L142180238 95051577
L142227857 95099196
L142275476 95194434
L142275476 95432529
L142227857 95527767
L142180238 95575386
L142085000 95623005
L141846904 95623005
L141751666 95575386
L141704047 95527767
" />
<path d="M143132619 94956339
L143132619 95623005
" />
<path d="M142894523 94575386
L142656428 95289672
L143275476 95289672
" />
<path d="M143799285 95051577
L143704047 95003958
L143656428 94956339
L143608809 94861101
L143608809 94813482
L143656428 94718244
L143704047 94670625
L143799285 94623005
L143989761 94623005
L144085000 94670625
L144132619 94718244
L144180238 94813482
L144180238 94861101
L144132619 94956339
L144085000 95003958
L143989761 95051577
L143799285 95051577
L143704047 95099196
L143656428 95146815
L143608809 95242053
L143608809 95432529
L143656428 95527767
L143704047 95575386
L143799285 95623005
L143989761 95623005
L144085000 95575386
L144132619 95527767
L144180238 95432529
L144180238 95242053
L144132619 95146815
L144085000 95099196
L143989761 95051577
" />
<path d="M145132619 95623005
L144561190 95623005
" />
<path d="M144846904 95623005
L144846904 94623005
L144751666 94765863
L144656428 94861101
L144561190 94908720
" />
<path d="M145608809 95623005
L145799285 95623005
L145894523 95575386
L145942142 95527767
L146037380 95384910
L146085000 95194434
L146085000 94813482
L146037380 94718244
L145989761 94670625
L145894523 94623005
L145704047 94623005
L145608809 94670625
L145561190 94718244
L145513571 94813482
L145513571 95051577
L145561190 95146815
L145608809 95194434
L145704047 95242053
L145894523 95242053
L145989761 95194434
L146037380 95146815
L146085000 95051577
" />
<path d="M146704047 94623005
L146799285 94623005
L146894523 94670625
L146942142 94718244
L146989761 94813482
L147037380 95003958
L147037380 95242053
L146989761 95432529
L146942142 95527767
L146894523 95575386
L146799285 95623005
L146704047 95623005
L146608809 95575386
L146561190 95527767
L146513571 95432529
L146465952 95242053
L146465952 95003958
L146513571 94813482
L146561190 94718244
L146608809 94670625
L146704047 94623005
" />
<path d="M147942142 94623005
L147465952 94623005
L147418333 95099196
L147465952 95051577
L147561190 95003958
L147799285 95003958
L147894523 95051577
L147942142 95099196
L147989761 95194434
L147989761 95432529
L147942142 95527767
L147894523 95575386
L147799285 95623005
L147561190 95623005
L147465952 95575386
L147418333 95527767
" />
<path d="M148561190 95051577
L148465952 95003958
L148418333 94956339
L148370714 94861101
L148370714 94813482
L148418333 94718244
L148465952 94670625
L148561190 94623005
L148751666 94623005
L148846904 94670625
L148894523 94718244
L148942142 94813482
L148942142 94861101
L148894523 94956339
L148846904 95003958
L148751666 95051577
L148561190 95051577
L148465952 95099196
L148418333 95146815
L148370714 95242053
L148370714 95432529
L148418333 95527767
L148465952 95575386
L148561190 95623005
L148751666 95623005
L148846904 95575386
L148894523 95527767
L148942142 95432529
L148942142 95242053
L148894523 95146815
L148846904 95099196
L148751666 95051577
" />
<path d="M149418333 95623005
L149608809 95623005
L149704047 95575386
L149751666 95527767
L149846904 95384910
L149894523 95194434
L149894523 94813482
L149846904 94718244
L149799285 94670625
L149704047 94623005
L149513571 94623005
L149418333 94670625
L149370714 94718244
L149323095 94813482
L149323095 95051577
L149370714 95146815
L149418333 95194434
L149513571 95242053
L149704047 95242053
L149799285 95194434
L149846904 95146815
L149894523 95051577
" />
</g></g>
<g style="fill:#000000; fill-opacity:0.0; 
stroke:#000000; stroke-width:120000.000000; stroke-opacity:1; 
stroke-linecap:round; stroke-linejoin:round;">
<path d="M190606875 81022500
L190606875 61972500
" />
<path d="M190606875 61972500
L171556875 61972500
" />
<path d="M171556875 61972500
L171556875 81022500
" />
<path d="M171556875 81022500
L190606875 81022500
" />
<path d="M190606875 81022500
L190606875 61972500
" />
<path d="M166794375 61972500
L166794375 81022500
" />
<path d="M190606875 61972500
L166794375 61972500
" />
<path d="M166794375 81022500
L190606875 81022500
" />
<path d="M171556875 81022500
L171556875 61972500
" />
<path d="M147744375 61972500
L147744375 81022500
" />
<path d="M171556875 61972500
L147744375 61972500
" />
<path d="M147744375 81022500
L171556875 81022500
" />
<path d="M166794375 81022500
L166794375 61972500
" />
<path d="M166794375 61972500
L147744375 61972500
" />
<path d="M147744375 61972500
L147744375 81022500
" />
<path d="M147744375 81022500
L166794375 81022500
" />
<path d="M138219375 81022500
L138219375 61972500
" />
<path d="M138219375 61972500
L119169375 61972500
" />
<path d="M119169375 61972500
L119169375 81022500
" />
<path d="M119169375 81022500
L138219375 81022500
" />
<path d="M114406875 81022500
L138219375 81022500
" />
<path d="M138219375 61972500
L114406875 61972500
" />
<path d="M114406875 61972500
L114406875 81022500
" />
<path d="M138219375 81022500
L138219375 61972500
" />
<path d="M119169375 81022500
L119169375 61972500
" />
<path d="M95356875 61972500
L95356875 81022500
" />
<path d="M119169375 61972500
L95356875 61972500
" />
<path d="M95356875 81022500
L119169375 81022500
" />
<path d="M114406875 81022500
L114406875 61972500
" />
<path d="M114406875 61972500
L95356875 61972500
" />
<path d="M95356875 61972500
L95356875 81022500
" />
<path d="M95356875 81022500
L114406875 81022500
" />
<path d="M261997500 61178750
L261997500 80228750
" />
<path d="M285810000 80228750
L285810000 61178750
" />
<path d="M261997500 80228750
L285810000 80228750
" />
<path d="M285810000 61178750
L261997500 61178750
" />
<path d="M252472500 81816250
L252472500 62766250
" />
<path d="M252472500 62766250
L233422500 62766250
" />
<path d="M233422500 62766250
L233422500 81816250
" />
<path d="M233422500 81816250
L252472500 81816250
" />
<path d="M209610000 60385000
L209610000 79435000
" />
<path d="M233422500 79435000
L233422500 60385000
" />
<path d="M209610000 79435000
L233422500 79435000
" />
<path d="M233422500 60385000
L209610000 60385000
" />
<path d="M209610000 79435000
L209610000 60385000
" />
<path d="M209610000 60385000
L190560000 60385000
" />
<path d="M190560000 60385000
L190560000 79435000
" />
<path d="M190560000 79435000
L209610000 79435000
" />
<path d="M95310000 79435000
L95310000 60385000
" />
<path d="M95310000 60385000
L76260000 60385000
" />
<path d="M76260000 60385000
L76260000 79435000
" />
<path d="M76260000 79435000
L95310000 79435000
" />
<path d="M52447500 60385000
L52447500 79435000
" />
<path d="M76260000 79435000
L76260000 60385000
" />
<path d="M52447500 79435000
L76260000 79435000
" />
<path d="M76260000 60385000
L52447500 60385000
" />
<path d="M52447500 81816250
L52447500 62766250
" />
<path d="M52447500 62766250
L33397500 62766250
" />
<path d="M33397500 62766250
L33397500 81816250
" />
<path d="M33397500 81816250
L52447500 81816250
" />
<path d="M60000 61178750
L60000 80228750
" />
<path d="M23872500 80228750
L23872500 61178750
" />
<path d="M60000 80228750
L23872500 80228750
" />
<path d="M23872500 61178750
L60000 61178750
" />
<path d="M285810000 61178750
L285810000 42128750
" />
<path d="M285810000 42128750
L252472500 42128750
" />
<path d="M252472500 42128750
L252472500 61178750
" />
<path d="M252472500 61178750
L285810000 61178750
" />
<path d="M252472500 62766250
L252472500 43716250
" />
<path d="M252472500 43716250
L233422500 43716250
" />
<path d="M233422500 43716250
L233422500 62766250
" />
<path d="M233422500 62766250
L252472500 62766250
" />
<path d="M233422500 60385000
L233422500 41335000
" />
<path d="M233422500 41335000
L214372500 41335000
" />
<path d="M214372500 41335000
L214372500 60385000
" />
<path d="M214372500 60385000
L233422500 60385000
" />
<path d="M214372500 57210000
L214372500 38160000
" />
<path d="M214372500 38160000
L195322500 38160000
" />
<path d="M195322500 38160000
L195322500 57210000
" />
<path d="M195322500 57210000
L214372500 57210000
" />
<path d="M195322500 60385000
L195322500 41335000
" />
<path d="M195322500 41335000
L176272500 41335000
" />
<path d="M176272500 41335000
L176272500 60385000
" />
<path d="M176272500 60385000
L195322500 60385000
" />
<path d="M176272500 61972500
L176272500 42922500
" />
<path d="M176272500 42922500
L157222500 42922500
" />
<path d="M157222500 42922500
L157222500 61972500
" />
<path d="M157222500 61972500
L176272500 61972500
" />
<path d="M152460000 59591250
L152460000 40541250
" />
<path d="M152460000 40541250
L133410000 40541250
" />
<path d="M133410000 40541250
L133410000 59591250
" />
<path d="M133410000 59591250
L152460000 59591250
" />
<path d="M128647500 61972500
L128647500 42922500
" />
<path d="M128647500 42922500
L109597500 42922500
" />
<path d="M109597500 42922500
L109597500 61972500
" />
<path d="M109597500 61972500
L128647500 61972500
" />
<path d="M109597500 60385000
L109597500 41335000
" />
<path d="M109597500 41335000
L90547500 41335000
" />
<path d="M90547500 41335000
L90547500 60385000
" />
<path d="M90547500 60385000
L109597500 60385000
" />
<path d="M90547500 57210000
L90547500 38160000
" />
<path d="M90547500 38160000
L71497500 38160000
" />
<path d="M71497500 38160000
L71497500 57210000
" />
<path d="M71497500 57210000
L90547500 57210000
" />
<path d="M71497500 60385000
L71497500 41335000
" />
<path d="M71497500 41335000
L52447500 41335000
" />
<path d="M52447500 41335000
L52447500 60385000
" />
<path d="M52447500 60385000
L71497500 60385000
" />
<path d="M52447500 62766250
L52447500 43716250
" />
<path d="M52447500 43716250
L33397500 43716250
" />
<path d="M33397500 43716250
L33397500 62766250
" />
<path d="M33397500 62766250
L52447500 62766250
" />
<path d="M33397500 61178750
L33397500 42128750
" />
<path d="M33397500 42128750
L60000 42128750
" />
<path d="M60000 42128750
L60000 61178750
" />
<path d="M60000 61178750
L33397500 61178750
" />
<path d="M252472500 23078750
L252472500 42128750
" />
<path d="M281047500 23078750
L252472500 23078750
" />
<path d="M281047500 42128750
L281047500 23078750
" />
<path d="M252472500 42128750
L281047500 42128750
" />
<path d="M252472500 43716250
L252472500 24666250
" />
<path d="M252472500 24666250
L233422500 24666250
" />
<path d="M233422500 24666250
L233422500 43716250
" />
<path d="M233422500 43716250
L252472500 43716250
" />
<path d="M233422500 41335000
L233422500 22285000
" />
<path d="M233422500 22285000
L214372500 22285000
" />
<path d="M214372500 22285000
L214372500 41335000
" />
<path d="M214372500 41335000
L233422500 41335000
" />
<path d="M214372500 38160000
L214372500 19110000
" />
<path d="M214372500 19110000
L195322500 19110000
" />
<path d="M195322500 19110000
L195322500 38160000
" />
<path d="M195322500 38160000
L214372500 38160000
" />
<path d="M195322500 41335000
L195322500 22285000
" />
<path d="M195322500 22285000
L176272500 22285000
" />
<path d="M176272500 22285000
L176272500 41335000
" />
<path d="M176272500 41335000
L195322500 41335000
" />
<path d="M176272500 42922500
L176272500 23872500
" />
<path d="M176272500 23872500
L157222500 23872500
" />
<path d="M157222500 23872500
L157222500 42922500
" />
<path d="M157222500 42922500
L176272500 42922500
" />
<path d="M152460000 40541250
L152460000 21491250
" />
<path d="M152460000 21491250
L133410000 21491250
" />
<path d="M133410000 21491250
L133410000 40541250
" />
<path d="M133410000 40541250
L152460000 40541250
" />
<path d="M128647500 42922500
L128647500 23872500
" />
<path d="M128647500 23872500
L109597500 23872500
" />
<path d="M109597500 23872500
L109597500 42922500
" />
<path d="M109597500 42922500
L128647500 42922500
" />
<path d="M109597500 41335000
L109597500 22285000
" />
<path d="M109597500 22285000
L90547500 22285000
" />
<path d="M90547500 22285000
L90547500 41335000
" />
<path d="M90547500 41335000
L109597500 41335000
" />
<path d="M90547500 38160000
L90547500 19110000
" />
<path d="M90547500 19110000
L71497500 19110000
" />
<path d="M71497500 19110000
L71497500 38160000
" />
<path d="M71497500 38160000
L90547500 38160000
" />
<path d="M71497500 41335000
L71497500 22285000
" />
<path d="M71497500 22285000
L52447500 22285000
" />
<path d="M52447500 22285000
L52447500 41335000
" />
<path d="M52447500 41335000
L71497500 41335000
" />
<path d="M52447500 43716250
L52447500 24666250
" />
<path d="M52447500 24666250
L33397500 24666250
" />
<path d="M33397500 24666250
L33397500 43716250
" />
<path d="M33397500 43716250
L52447500 43716250
" />
<path d="M4822500 23078750
L4822500 42128750
" />
<path d="M33397500 23078750
L4822500 23078750
" />
<path d="M33397500 42128750
L33397500 23078750
" />
<path d="M4822500 42128750
L33397500 42128750
" />
<path d="M271522500 23078750
L271522500 4028750
" />
<path d="M271522500 4028750
L252472500 4028750
" />
<path d="M252472500 4028750
L252472500 23078750
" />
<path d="M252472500 23078750
L271522500 23078750
" />
<path d="M233422500 24666250
L252472500 24666250
" />
<path d="M233422500 5616250
L233422500 24666250
" />
<path d="M252472500 5616250
L233422500 5616250
" />
<path d="M252472500 24666250
L252472500 5616250
" />
<path d="M233422500 22285000
L233422500 3235000
" />
<path d="M233422500 3235000
L214372500 3235000
" />
<path d="M214372500 3235000
L214372500 22285000
" />
<path d="M214372500 22285000
L233422500 22285000
" />
<path d="M214372500 19110000
L214372500 60000
" />
<path d="M214372500 60000
L195322500 60000
" />
<path d="M195322500 60000
L195322500 19110000
" />
<path d="M195322500 19110000
L214372500 19110000
" />
<path d="M195322500 22285000
L195322500 3235000
" />
<path d="M195322500 3235000
L176272500 3235000
" />
<path d="M176272500 3235000
L176272500 22285000
" />
<path d="M176272500 22285000
L195322500 22285000
" />
<path d="M176272500 23872500
L176272500 4822500
" />
<path d="M176272500 4822500
L157222500 4822500
" />
<path d="M157222500 4822500
L157222500 23872500
" />
<path d="M157222500 23872500
L176272500 23872500
" />
<path d="M152460000 21491250
L152460000 2441250
" />
<path d="M152460000 2441250
L133410000 2441250
" />
<path d="M133410000 2441250
L133410000 21491250
" />
<path d="M133410000 21491250
L152460000 21491250
" />
<path d="M128647500 23872500
L128647500 4822500
" />
<path d="M128647500 4822500
L109597500 4822500
" />
<path d="M109597500 4822500
L109597500 23872500
" />
<path d="M109597500 23872500
L128647500 23872500
" />
<path d="M109597500 22285000
L109597500 3235000
" />
<path d="M109597500 3235000
L90547500 3235000
" />
<path d="M90547500 3235000
L90547500 22285000
" />
<path d="M90547500 22285000
L109597500 22285000
" />
<path d="M90547500 19110000
L90547500 60000
" />
<path d="M90547500 60000
L71497500 60000
" />
<path d="M71497500 60000
L71497500 19110000
" />
<path d="M71497500 19110000
L90547500 19110000
" />
<path d="M71497500 22285000
L71497500 3235000
" />
<path d="M71497500 3235000
L52447500 3235000
" />
<path d="M52447500 3235000
L52447500 22285000
" />
<path d="M52447500 22285000
L71497500 22285000
" />
<path d="M52447500 24666250
L52447500 5616250
" />
<path d="M52447500 5616250
L33397500 5616250
" />
<path d="M33397500 5616250
L33397500 24666250
" />
<path d="M33397500 24666250
L52447500 24666250
" />
<path d="M33397500 23078750
L33397500 4028750
" />
<path d="M33397500 4028750
L14347500 4028750
" />
<path d="M14347500 4028750
L14347500 23078750
" />
<path d="M14347500 23078750
L33397500 23078750
" />
</g>
<g style="fill:#000000; fill-opacity:0.0; 
stroke:#000000; stroke-width:150000.000000; stroke-opacity:1; 
stroke-linecap:round; stroke-linejoin:round;">
<path d="M147157000 98500625
L138013000 98500625
" />
<path d="M146435000 96500625
L138735000 96500625
" />
<path d="M146435000 96500625
L146435000 100250625
" />
<path d="M138735000 96500625
L138735000 100250625
" />
<g >
</g>
<g >
</g>
<g >
</g>
<g >
</g>
<g >
</g>
<g >
</g>
<g >
</g>
<g >
</g>
<g >
</g>
<g >
</g>
<g >
</g>
<g >
</g>
<g >
</g>
<g >
</g>
<g >
</g>
<g >
</g>
<g >
</g>
<g >
</g>
<g >
</g>
<g >
</g>
<g >
</g>
<g >
</g>
<g >
</g>
<g >
</g>
<g >
</g>
<g >
</g>
<g >
</g>
<g >
</g>
<g >
</g>
<g >
</g>
<g >
</g>
<g >
</g>
<g >
</g>
<g >
</g>
<g >
</g>
<g >
</g>
<g >
</g>
<g >
</g>
<g >
</g>
<g >
</g>
<g >
</g>
<g >
</g>
<g >
</g>
<g >
</g>
<g >
</g>
<g >
</g>
<g >
</g>
<g >
</g>
<g >
</g>
<g >
</g>
<g >
</g>
<g >
</g>
<g >
</g>
<g >
</g>
<g >
</g>
<g >
</g>
<g >
</g>
<g >
</g>
<g >
</g>
<g >
</g>
<g >
</g>
<g >
</g>
<g >
</g>
<g >
</g>
<g >
</g>
<g >
</g>
<g >
</g>
<g >
</g>
<g >
</g>
<g >
</g>
<g >
</g>
<g >
</g>
<g >
</g>
<g >
</g>
<g >
</g>
<g >
</g>
<g >
</g>
<g >
</g>
<g >
</g>
<g >
</g>
<g >
</g>
<g >
</g>
<g >
</g>
<g >
</g>
<g >
</g>
<g >
</g>
<g >
</g>
<g >
</g>
<g >
</g>
<g >
</g>
<g >
</g>
<g >
</g>
<g >
</g>
<g >
</g>
<g >
</g>
<g >
</g>
<g >
</g>
<g >
</g>
<g >
</g>
<g >
</g>
<g >
</g>
<g >
</g>
<g >
</g>
<g >
</g>
<g >
</g>
<g >
</g>
<g >
</g>
<g >
</g>
<g >
</g>
<g >
</g>
<g >
</g>
<g >
</g>
<g >
</g>
<g >
</g>
<g >
</g>
<g >
</g>
<g >
</g>
<g >
</g>
<g >
</g>
<g >
</g>
<g >
</g>
<g >
</g>
<g >
</g>
<g >
</g>
<g >
</g>
</g>
<g style="fill:#000000; fill-opacity:0.0; 
stroke:#000000; stroke-width:150000.000000; stroke-opacity:1; 
stroke-linecap:round; stroke-linejoin:round;">
<g >
</g>
<g >
</g>
<g >
</g>
<g >
</g>
<g >
</g>
<g >
</g>
<g >
</g>
<g >
</g>
<g >
</g>
<g >
</g>
<g >
</g>
<g >
</g>
<g >
</g>
<g >
</g>
<g >
</g>
<g >
</g>
<g >
</g>
<g >
</g>
<g >
</g>
<g >
</g>
<g >
</g>
<g >
</g>
<g >
</g>
<g >
</g>
<g >
</g>
<g >
</g>
<g >
</g>
<g >
</g>
<g >
</g>
<g >
</g>
<g >
</g>
<g >
</g>
<g >
</g>
<g >
</g>
<g >
</g>
<g >
</g>
<g >
</g>
<g >
</g>
<g >
</g>
<g >
</g>
<g >
</g>
<g >
</g>
<g >
</g>
<g >
</g>
<g >
</g>
<g >
</g>
<g >
</g>
<g >
</g>
<g >
</g>
<g >
</g>
<g >
</g>
<g >
</g>
<g >
</g>
<g >
</g>
<g >
</g>
<g >
</g>
<g >
</g>
<g >
</g>
<g >
</g>
<g >
</g>
<g >
</g>
<g >
</g>
<g >
</g>
<g >
</g>
<g >
</g>
<g >
</g>
<g >
</g>
<g >
</g>
<g >
</g>
<g >
</g>
<g >
</g>
<g >
</g>
<g >
</g>
<g >
</g>
<g >
</g>
<g >
</g>
<g >
</g>
<g >
</g>
<g >
</g>
<g >
</g>
<g >
</g>
<g >
</g>
<g >
</g>
<g >
</g>
<g >
</g>
<g >
</g>
<g >
</g>
<g >
</g>
<g >
</g>
<g >
</g>
<g >
</g>
<g >
</g>
<g >
</g>
<g >
</g>
<g >
</g>
<g >
</g>
<g >
</g>
<g >
</g>
<g >
</g>
<g >
</g>
<g >
</g>
<g >
</g>
<g >
</g>
<g >
</g>
<g >
</g>
<g >
</g>
<g >
</g>
<g >
</g>
<g >
</g>
<g >
</g>
<g >
</g>
<g >
</g>
<g >
</g>
<g >
</g>
<g >
</g>
<g >
</g>
<g >
</g>
<g >
</g>
<g >
</g>
<g >
</g>
<g >
</g>
<g >
</g>
<g >
</g>
<g >
</g>
<g >
</g>
</g> 
</svg>
