%TF.GenerationSoftware,KiCad,Pcbnew,(6.0.7)*%
%TF.CreationDate,2022-09-16T03:14:30+03:00*%
%TF.ProjectId,teethless40_csl_pcb_schema,74656574-686c-4657-9373-34305f63736c,rev?*%
%TF.SameCoordinates,Original*%
%TF.FileFunction,Drillmap*%
%TF.FilePolarity,Positive*%
%FSLAX45Y45*%
G04 Gerber Fmt 4.5, Leading zero omitted, Abs format (unit mm)*
G04 Created by KiCad (PCBNEW (6.0.7)) date 2022-09-16 03:14:30*
%MOMM*%
%LPD*%
G01*
G04 APERTURE LIST*
%ADD10C,0.200000*%
%ADD11C,0.040000*%
%ADD12C,0.060000*%
%ADD13C,0.101600*%
%ADD14C,0.220000*%
%ADD15C,0.300000*%
G04 APERTURE END LIST*
D10*
X16622771Y-10466005D02*
G75*
G03*
X15819399Y-10466005I-401686J-17995684D01*
G01*
X16622771Y-10466005D02*
X20701085Y-10557039D01*
X11741085Y-10557039D02*
X15819399Y-10466005D01*
X15667828Y-2126004D02*
G75*
G03*
X16774342Y-2126004I553257J11987314D01*
G01*
X15667828Y-2126004D02*
X10664081Y-1895061D01*
X21778089Y-1895061D02*
X16774342Y-2126004D01*
X23046128Y-1903608D02*
G75*
G03*
X21778089Y-1895061I-714783J-11978641D01*
G01*
X28577514Y-2233672D02*
X23046128Y-1903608D01*
X10664081Y-1895061D02*
G75*
G03*
X9396042Y-1903608I-553256J-11987187D01*
G01*
X9396042Y-1903608D02*
X3864656Y-2233672D01*
X3864656Y-2233672D02*
G75*
G03*
X3462692Y-2370552I47653J-798581D01*
G01*
X3462692Y-2370552D02*
X3100051Y-2616962D01*
X3100051Y-2616962D02*
G75*
G03*
X2783275Y-3049221I449617J-661699D01*
G01*
X2783275Y-3049221D02*
X1823316Y-6255747D01*
X30770583Y-6928317D02*
G75*
G03*
X30618854Y-6255747I-4941668J-761422D01*
G01*
X31135676Y-9297768D02*
X30770584Y-6928317D01*
X30618854Y-6255747D02*
X29658895Y-3049221D01*
X1823316Y-6255747D02*
G75*
G03*
X1671586Y-6928316I4789941J-1433997D01*
G01*
X1671586Y-6928316D02*
X1306494Y-9297768D01*
X2038638Y-10315148D02*
G75*
G03*
X2936548Y-10591471I1020754J1719901D01*
G01*
X2936548Y-10591471D02*
X4713930Y-10700848D01*
X1688861Y-10107557D02*
X2038638Y-10315149D01*
X1306494Y-9297768D02*
G75*
G03*
X1688861Y-10107557I790669J-121829D01*
G01*
X30753310Y-10107560D02*
G75*
G03*
X31135676Y-9297768I-408306J687961D01*
G01*
X30403531Y-10315149D02*
X30753309Y-10107557D01*
X28979478Y-2370551D02*
G75*
G03*
X28577514Y-2233672I-449613J-661697D01*
G01*
X29342118Y-2616962D02*
X28979478Y-2370552D01*
X29658895Y-3049221D02*
G75*
G03*
X29342118Y-2616962I-766390J-229438D01*
G01*
X29505622Y-10591472D02*
G75*
G03*
X30403531Y-10315149I-122847J1996224D01*
G01*
X27728240Y-10700848D02*
X29505622Y-10591471D01*
X26055265Y-10725891D02*
G75*
G03*
X27728240Y-10700848I567370J17991012D01*
G01*
X20701085Y-10557039D02*
X26055265Y-10725890D01*
X4713930Y-10700848D02*
G75*
G03*
X6386905Y-10725890I1105605J17965969D01*
G01*
X6386905Y-10725890D02*
X11741085Y-10557039D01*
X19073802Y-8266034D02*
G75*
G03*
X19457197Y-8203140I8J1199964D01*
G01*
X5138159Y-6741285D02*
X5138159Y-6781285D01*
X5138159Y-7876285D02*
X5138159Y-8161285D01*
X5338159Y-6456285D02*
X6601967Y-6456285D01*
X12789698Y-4328428D02*
G75*
G03*
X12406302Y-4265535I-383398J-1137152D01*
G01*
X25241045Y-8204698D02*
G75*
G03*
X24699467Y-8075535I-541576J-1070822D01*
G01*
X23336045Y-4193947D02*
X23390272Y-4221373D01*
X7143546Y-4422122D02*
X7197772Y-4394698D01*
X7197772Y-4479698D02*
X7143546Y-4507122D01*
X17805659Y-6446029D02*
G75*
G03*
X17605659Y-6646035I1J-200001D01*
G01*
X7739350Y-8160537D02*
G75*
G03*
X7197772Y-8289697I0J-1200013D01*
G01*
X27300659Y-6256285D02*
X27300659Y-6216285D01*
X11007772Y-6126372D02*
X10953546Y-6098947D01*
X17520665Y-5026035D02*
G75*
G03*
X17545659Y-5051035I24995J-5D01*
G01*
X12406302Y-8075535D02*
X11549350Y-8075535D01*
X14833155Y-4741035D02*
G75*
G03*
X14633159Y-4541035I-199995J5D01*
G01*
X17520665Y-6931035D02*
G75*
G03*
X17545659Y-6956035I24995J-5D01*
G01*
X5078159Y-7851279D02*
G75*
G03*
X5053159Y-7876285I1J-25001D01*
G01*
X23390272Y-6041371D02*
G75*
G03*
X23931850Y-6170535I541578J1070821D01*
G01*
X19073802Y-4456035D02*
G75*
G03*
X19457198Y-4393140I8J1199955D01*
G01*
X12981619Y-8203141D02*
G75*
G03*
X13365015Y-8266035I383401J1137151D01*
G01*
X11549350Y-6170535D02*
X12406302Y-6170535D01*
X23931850Y-8075535D02*
X24699467Y-8075535D01*
X17805659Y-8266035D02*
X19073802Y-8266035D01*
X25241045Y-4479698D02*
G75*
G03*
X24699467Y-4350535I-541576J-1070822D01*
G01*
X22026850Y-4064785D02*
X22794467Y-4064785D01*
X11007772Y-4221372D02*
X10953546Y-4193947D01*
X21431046Y-6041372D02*
X21485272Y-6013947D01*
X27325659Y-5946279D02*
G75*
G03*
X27300659Y-5971285I1J-25001D01*
G01*
X9644350Y-5969786D02*
G75*
G03*
X9102772Y-6098947I0J-1200014D01*
G01*
X23390272Y-7946371D02*
G75*
G03*
X23931850Y-8075535I541578J1070821D01*
G01*
X14918165Y-5876035D02*
G75*
G03*
X14893159Y-5851035I-25005J-5D01*
G01*
X12789697Y-8138431D02*
G75*
G03*
X12406302Y-8075535I-383407J-1137149D01*
G01*
X12789697Y-6233430D02*
X12981620Y-6298140D01*
X9102772Y-4193947D02*
X9048546Y-4221372D01*
X14833159Y-4741035D02*
X14833159Y-5026035D01*
X21485272Y-8003947D02*
X21431046Y-8031372D01*
X11007773Y-6126371D02*
G75*
G03*
X11549350Y-6255535I541577J1070821D01*
G01*
X22026850Y-3979785D02*
G75*
G03*
X21485272Y-4108947I0J-1200005D01*
G01*
X23336045Y-7918948D02*
G75*
G03*
X22794467Y-7789785I-541576J-1070822D01*
G01*
X5138159Y-6256285D02*
X5138159Y-6216285D01*
X17520659Y-8066035D02*
X17520659Y-7781035D01*
X9644350Y-7874785D02*
X10411967Y-7874785D01*
X23336046Y-7918947D02*
X23390272Y-7946372D01*
X27300659Y-6781285D02*
X27300659Y-6741285D01*
X12789698Y-6233429D02*
G75*
G03*
X12406302Y-6170535I-383398J-1137141D01*
G01*
X22026850Y-7789785D02*
G75*
G03*
X21485272Y-7918947I0J-1200005D01*
G01*
X27385665Y-5971285D02*
G75*
G03*
X27360659Y-5946285I-25005J-5D01*
G01*
X7143546Y-8317122D02*
X7197772Y-8289697D01*
X20889467Y-8160535D02*
X20032515Y-8160535D01*
X23336045Y-4108948D02*
G75*
G03*
X22794467Y-3979785I-541575J-1070822D01*
G01*
X11549350Y-4265535D02*
X12406302Y-4265535D01*
X5053165Y-7026285D02*
G75*
G03*
X5078159Y-7051285I24995J-5D01*
G01*
X11007772Y-7946371D02*
G75*
G03*
X11549350Y-8075535I541578J1070821D01*
G01*
X9644350Y-7789785D02*
G75*
G03*
X9102772Y-7918947I0J-1200005D01*
G01*
X5338159Y-4551285D02*
X6601967Y-4551285D01*
X27385659Y-7876285D02*
X27385659Y-8161285D01*
X23390273Y-4136371D02*
G75*
G03*
X23931850Y-4265535I541577J1070821D01*
G01*
X25836850Y-6456285D02*
X27100659Y-6456285D01*
X14918165Y-4741035D02*
G75*
G03*
X14633159Y-4456035I-285005J-5D01*
G01*
X27300659Y-7876285D02*
X27300659Y-8121285D01*
X17545659Y-7756035D02*
X17580659Y-7756035D01*
X25241046Y-8204697D02*
X25295272Y-8232122D01*
X25241046Y-4479698D02*
X25295272Y-4507122D01*
X14893159Y-6956029D02*
G75*
G03*
X14918159Y-6931035I1J24999D01*
G01*
X8506967Y-4350535D02*
X7739350Y-4350535D01*
X21431046Y-7946372D02*
X21485272Y-7918947D01*
X19073802Y-6361035D02*
G75*
G03*
X19457198Y-6298140I8J1199955D01*
G01*
X23931850Y-4265535D02*
X24699467Y-4265535D01*
X23336045Y-8003948D02*
G75*
G03*
X22794467Y-7874785I-541576J-1070822D01*
G01*
X8506967Y-8075538D02*
G75*
G03*
X9048546Y-7946372I-7J1200008D01*
G01*
X20889467Y-8075538D02*
G75*
G03*
X21431046Y-7946372I-7J1200008D01*
G01*
X12406302Y-6255535D02*
X11549350Y-6255535D01*
X14833155Y-6646035D02*
G75*
G03*
X14633159Y-6446035I-199995J5D01*
G01*
X22026850Y-7874785D02*
G75*
G03*
X21485272Y-8003947I0J-1200005D01*
G01*
X25241046Y-4394698D02*
X25295272Y-4422122D01*
X10953546Y-6098948D02*
G75*
G03*
X10411967Y-5969785I-541576J-1070822D01*
G01*
X23336046Y-6013947D02*
X23390272Y-6041372D01*
X7739350Y-6255535D02*
G75*
G03*
X7197772Y-6384697I0J-1200005D01*
G01*
X17520659Y-5026035D02*
X17520659Y-4741035D01*
X23390272Y-6126371D02*
G75*
G03*
X23931850Y-6255535I541578J1070821D01*
G01*
X25295272Y-4507121D02*
G75*
G03*
X25836850Y-4636285I541578J1070821D01*
G01*
X22026850Y-5969786D02*
G75*
G03*
X21485272Y-6098947I0J-1200014D01*
G01*
X12789697Y-4413431D02*
G75*
G03*
X12406302Y-4350535I-383407J-1137149D01*
G01*
X13365015Y-8266035D02*
X14633159Y-8266035D01*
X23931850Y-4350535D02*
X24699467Y-4350535D01*
X6601967Y-4636285D02*
X5338159Y-4636285D01*
X5338159Y-4551285D02*
G75*
G03*
X5053159Y-4836285I0J-285000D01*
G01*
X27360659Y-7051279D02*
G75*
G03*
X27385659Y-7026285I1J24999D01*
G01*
X20032515Y-8160535D02*
G75*
G03*
X19649120Y-8223430I-5J-1199965D01*
G01*
X17805659Y-4456039D02*
G75*
G03*
X17520659Y-4741035I1J-285001D01*
G01*
X5138165Y-6256285D02*
G75*
G03*
X5338159Y-6456285I199995J-5D01*
G01*
X25836850Y-8361285D02*
X27100659Y-8361285D01*
X5078159Y-5946279D02*
G75*
G03*
X5053159Y-5971285I1J-25001D01*
G01*
X17545659Y-6956035D02*
X17580659Y-6956035D01*
X6601967Y-6541285D02*
X5338159Y-6541285D01*
X7739350Y-6170535D02*
X8506967Y-6170535D01*
X7197772Y-8204697D02*
X7143546Y-8232122D01*
X17545659Y-7756039D02*
G75*
G03*
X17520659Y-7781035I1J-25001D01*
G01*
X14858159Y-5851035D02*
X14893159Y-5851035D01*
X10953545Y-4193948D02*
G75*
G03*
X10411967Y-4064785I-541575J-1070822D01*
G01*
X19649120Y-8223430D02*
X19457197Y-8288140D01*
X20889467Y-6255536D02*
G75*
G03*
X21431046Y-6126372I-7J1200016D01*
G01*
X17545659Y-5051035D02*
X17580659Y-5051035D01*
X14633159Y-8351035D02*
X13365015Y-8351035D01*
X24699467Y-6255535D02*
X23931850Y-6255535D01*
X27300659Y-4876285D02*
X27300659Y-5121285D01*
X5138165Y-8161285D02*
G75*
G03*
X5338159Y-8361285I199995J-5D01*
G01*
X12981620Y-6383140D02*
G75*
G03*
X13365015Y-6446035I383400J1137140D01*
G01*
X20889467Y-8160538D02*
G75*
G03*
X21431046Y-8031372I-7J1200008D01*
G01*
X14918159Y-5876035D02*
X14918159Y-6931035D01*
X14833155Y-6931035D02*
G75*
G03*
X14858159Y-6956035I25005J5D01*
G01*
X22026850Y-4064785D02*
G75*
G03*
X21485272Y-4193947I0J-1200005D01*
G01*
X25836850Y-4551285D02*
X27100659Y-4551285D01*
X5053159Y-5121285D02*
X5053159Y-4836285D01*
X11007772Y-7946372D02*
X10953546Y-7918947D01*
X19073802Y-4541035D02*
X17805659Y-4541035D01*
X23390273Y-4221371D02*
G75*
G03*
X23931850Y-4350535I541577J1070821D01*
G01*
X13365015Y-4456035D02*
X14633159Y-4456035D01*
X14918159Y-7781035D02*
X14918159Y-8066035D01*
X14633159Y-4541035D02*
X13365015Y-4541035D01*
X9644350Y-7874785D02*
G75*
G03*
X9102772Y-8003947I0J-1200005D01*
G01*
X7739350Y-8160535D02*
X8506967Y-8160535D01*
X9102772Y-6098947D02*
X9048546Y-6126372D01*
X17580659Y-6956029D02*
G75*
G03*
X17605659Y-6931035I1J24999D01*
G01*
X7739350Y-6170535D02*
G75*
G03*
X7197772Y-6299697I0J-1200005D01*
G01*
X19457198Y-4393140D02*
X19649120Y-4328430D01*
X11007772Y-8031371D02*
G75*
G03*
X11549350Y-8160535I541578J1070821D01*
G01*
X9102772Y-7918947D02*
X9048546Y-7946372D01*
X5338159Y-6541285D02*
G75*
G03*
X5138159Y-6741285I0J-200000D01*
G01*
X5338159Y-4636285D02*
G75*
G03*
X5138159Y-4836285I0J-200000D01*
G01*
X20032515Y-4350534D02*
G75*
G03*
X19649120Y-4413430I-5J-1199956D01*
G01*
X27100659Y-8361289D02*
G75*
G03*
X27300659Y-8161285I1J199999D01*
G01*
X12981619Y-4393141D02*
G75*
G03*
X13365015Y-4456035I383401J1137151D01*
G01*
X9644350Y-5884787D02*
G75*
G03*
X9102772Y-6013947I0J-1200013D01*
G01*
X8506967Y-6255537D02*
G75*
G03*
X9048546Y-6126372I-7J1200017D01*
G01*
X27100659Y-4636285D02*
X25836850Y-4636285D01*
X19073802Y-6446035D02*
G75*
G03*
X19457198Y-6383140I8J1199955D01*
G01*
X17605659Y-5876035D02*
X17605659Y-6121035D01*
X20889467Y-6255535D02*
X20032516Y-6255535D01*
X27325659Y-7851285D02*
X27360659Y-7851285D01*
X6601967Y-8446287D02*
G75*
G03*
X7143546Y-8317122I-7J1200017D01*
G01*
X5138155Y-5971285D02*
G75*
G03*
X5113159Y-5946285I-24995J5D01*
G01*
X14833155Y-5026035D02*
G75*
G03*
X14858159Y-5051035I25005J5D01*
G01*
X27325659Y-5946285D02*
X27360659Y-5946285D01*
X14633159Y-8266039D02*
G75*
G03*
X14833159Y-8066035I1J199999D01*
G01*
X11007773Y-4221371D02*
G75*
G03*
X11549350Y-4350535I541577J1070821D01*
G01*
X17805659Y-6361035D02*
X19073802Y-6361035D01*
X22026850Y-7789785D02*
X22794467Y-7789785D01*
X11007773Y-4136371D02*
G75*
G03*
X11549350Y-4265535I541577J1070821D01*
G01*
X6601967Y-6541283D02*
G75*
G03*
X7143546Y-6412122I3J1200003D01*
G01*
X6601967Y-8361287D02*
G75*
G03*
X7143546Y-8232122I-7J1200017D01*
G01*
X19457197Y-8203140D02*
X19649120Y-8138430D01*
X22794467Y-5969785D02*
X22026850Y-5969785D01*
X27385665Y-7876285D02*
G75*
G03*
X27360659Y-7851285I-25005J-5D01*
G01*
X25295273Y-8232121D02*
G75*
G03*
X25836850Y-8361285I541577J1070821D01*
G01*
X12789697Y-6318431D02*
G75*
G03*
X12406302Y-6255535I-383407J-1137149D01*
G01*
X27360659Y-5146279D02*
G75*
G03*
X27385659Y-5121285I1J24999D01*
G01*
X27100659Y-8446285D02*
X25836850Y-8446285D01*
X6601967Y-6456288D02*
G75*
G03*
X7143546Y-6327122I-7J1200008D01*
G01*
X25295272Y-6327121D02*
G75*
G03*
X25836850Y-6456285I541578J1070821D01*
G01*
X20032515Y-4265535D02*
X20889467Y-4265535D01*
X13365015Y-6361035D02*
X14633159Y-6361035D01*
X25295272Y-4422121D02*
G75*
G03*
X25836850Y-4551285I541578J1070821D01*
G01*
X5053159Y-7876285D02*
X5053159Y-8161285D01*
X27325659Y-7851279D02*
G75*
G03*
X27300659Y-7876285I1J-25001D01*
G01*
X24699467Y-8160535D02*
X23931850Y-8160535D01*
X25295272Y-8317122D02*
X25241046Y-8289697D01*
X12789698Y-4328430D02*
X12981620Y-4393140D01*
X20032515Y-8075535D02*
X20889467Y-8075535D01*
X23931850Y-6170535D02*
X24699467Y-6170535D01*
X25241045Y-8289698D02*
G75*
G03*
X24699467Y-8160535I-541576J-1070822D01*
G01*
X5113159Y-5946285D02*
X5078159Y-5946285D01*
X25241045Y-6299698D02*
G75*
G03*
X24699467Y-6170535I-541575J-1070822D01*
G01*
X10953546Y-8003947D02*
X11007772Y-8031372D01*
X23390272Y-6126372D02*
X23336046Y-6098947D01*
X25241045Y-6299697D02*
X25295272Y-6327122D01*
X20032516Y-6255535D02*
G75*
G03*
X19649120Y-6318430I-6J-1199965D01*
G01*
X23390272Y-8031371D02*
G75*
G03*
X23931850Y-8160535I541578J1070821D01*
G01*
X25295273Y-8317121D02*
G75*
G03*
X25836850Y-8446285I541577J1070821D01*
G01*
X23336045Y-4193948D02*
G75*
G03*
X22794467Y-4064785I-541575J-1070822D01*
G01*
X27300655Y-6741285D02*
G75*
G03*
X27100659Y-6541285I-199995J5D01*
G01*
X10411967Y-5969785D02*
X9644350Y-5969785D01*
X17605659Y-6646035D02*
X17605659Y-6686035D01*
X8506967Y-4265537D02*
G75*
G03*
X9048546Y-4136372I-7J1200017D01*
G01*
X5338159Y-8361285D02*
X6601967Y-8361285D01*
X19073802Y-8351034D02*
G75*
G03*
X19457197Y-8288140I8J1199964D01*
G01*
X12981620Y-6383140D02*
X12789698Y-6318430D01*
X17580659Y-5051039D02*
G75*
G03*
X17605659Y-5026035I1J24999D01*
G01*
X8506967Y-6170538D02*
G75*
G03*
X9048546Y-6041372I-7J1200008D01*
G01*
X9644350Y-5884785D02*
X10411967Y-5884785D01*
X20889467Y-4350538D02*
G75*
G03*
X21431046Y-4221372I-7J1200008D01*
G01*
X7739350Y-8075537D02*
G75*
G03*
X7197772Y-8204697I0J-1200013D01*
G01*
X19457198Y-6298140D02*
X19649120Y-6233430D01*
X10411967Y-4064785D02*
X9644350Y-4064785D01*
X5138159Y-6781285D02*
X5138159Y-7026285D01*
X6601967Y-4551288D02*
G75*
G03*
X7143546Y-4422122I-7J1200008D01*
G01*
X22026850Y-3979785D02*
X22794467Y-3979785D01*
X19649120Y-6318430D02*
X19457198Y-6383140D01*
X27325659Y-5146285D02*
X27360659Y-5146285D01*
X22026850Y-5884785D02*
X22794467Y-5884785D01*
X14918159Y-5026035D02*
X14918159Y-4741035D01*
X12406302Y-4350535D02*
X11549350Y-4350535D01*
X12789698Y-8223430D02*
X12981620Y-8288140D01*
X8506967Y-8075535D02*
X7739350Y-8075535D01*
X21485272Y-6098947D02*
X21431046Y-6126372D01*
X21431046Y-4221372D02*
X21485272Y-4193947D01*
X14633159Y-6361039D02*
G75*
G03*
X14833159Y-6161035I1J199999D01*
G01*
X5053165Y-5121285D02*
G75*
G03*
X5078159Y-5146285I24995J-5D01*
G01*
X27100659Y-6456289D02*
G75*
G03*
X27300659Y-6256285I1J199999D01*
G01*
X8506967Y-8160538D02*
G75*
G03*
X9048546Y-8031372I-7J1200008D01*
G01*
X20032516Y-6170535D02*
G75*
G03*
X19649120Y-6233430I-6J-1199965D01*
G01*
X5138159Y-5971285D02*
X5138159Y-6216285D01*
X27325659Y-7051285D02*
X27360659Y-7051285D01*
X5113159Y-5146289D02*
G75*
G03*
X5138159Y-5121285I1J24999D01*
G01*
X17605659Y-6686035D02*
X17605659Y-6931035D01*
X5113159Y-5146285D02*
X5078159Y-5146285D01*
X17805659Y-4456035D02*
X19073802Y-4456035D01*
X9048546Y-4136372D02*
X9102772Y-4108947D01*
X10953546Y-6013948D02*
G75*
G03*
X10411967Y-5884785I-541576J-1070822D01*
G01*
X27300655Y-5121285D02*
G75*
G03*
X27325659Y-5146285I25005J5D01*
G01*
X17520659Y-6931035D02*
X17520659Y-5876035D01*
X14633159Y-8351029D02*
G75*
G03*
X14918159Y-8066035I1J284999D01*
G01*
X23336045Y-4108947D02*
X23390272Y-4136373D01*
X17605665Y-8066035D02*
G75*
G03*
X17805659Y-8266035I199995J-5D01*
G01*
X20032515Y-8075535D02*
G75*
G03*
X19649120Y-8138430I-5J-1199965D01*
G01*
X25295272Y-6412122D02*
X25241045Y-6384697D01*
X6601967Y-8446285D02*
X5338159Y-8446285D01*
X22026850Y-5884786D02*
G75*
G03*
X21485272Y-6013947I0J-1200014D01*
G01*
X17605655Y-5876035D02*
G75*
G03*
X17580659Y-5851035I-24995J5D01*
G01*
X12981619Y-8288141D02*
G75*
G03*
X13365015Y-8351035I383401J1137151D01*
G01*
X27300659Y-6781285D02*
X27300659Y-7026285D01*
X8506967Y-6255535D02*
X7739350Y-6255535D01*
X27100659Y-6541285D02*
X25836850Y-6541285D01*
X23390272Y-8031372D02*
X23336046Y-8003947D01*
X7143546Y-6327122D02*
X7197772Y-6299697D01*
X27300659Y-4836285D02*
X27300659Y-4876285D01*
X7739350Y-4265536D02*
G75*
G03*
X7197772Y-4394698I0J-1200005D01*
G01*
X5113159Y-7851285D02*
X5078159Y-7851285D01*
X6601967Y-4636288D02*
G75*
G03*
X7143546Y-4507122I-7J1200008D01*
G01*
X27385659Y-5971285D02*
X27385659Y-7026285D01*
X17605655Y-7781035D02*
G75*
G03*
X17580659Y-7756035I-24995J5D01*
G01*
X7739350Y-4350536D02*
G75*
G03*
X7197772Y-4479698I0J-1200005D01*
G01*
X25241045Y-4394698D02*
G75*
G03*
X24699467Y-4265535I-541576J-1070822D01*
G01*
X19457198Y-4478140D02*
X19649120Y-4413430D01*
X17545659Y-5851035D02*
X17580659Y-5851035D01*
X9644350Y-4064787D02*
G75*
G03*
X9102772Y-4193947I0J-1200013D01*
G01*
X17605659Y-4781035D02*
X17605659Y-4741035D01*
X5053155Y-8161285D02*
G75*
G03*
X5338159Y-8446285I285005J5D01*
G01*
X20889467Y-6170536D02*
G75*
G03*
X21431046Y-6041372I-7J1200016D01*
G01*
X5138159Y-4836285D02*
X5138159Y-5121285D01*
X8506967Y-4350538D02*
G75*
G03*
X9048546Y-4221372I-7J1200008D01*
G01*
X27385665Y-4836285D02*
G75*
G03*
X27100659Y-4551285I-285005J-5D01*
G01*
X12981620Y-4478140D02*
X12789698Y-4413430D01*
X19073802Y-6446035D02*
X17805659Y-6446035D01*
X22794467Y-7874785D02*
X22026850Y-7874785D01*
X5138155Y-7876285D02*
G75*
G03*
X5113159Y-7851285I-24995J5D01*
G01*
X20889467Y-4265538D02*
G75*
G03*
X21431046Y-4136372I-7J1200008D01*
G01*
X14633159Y-6446035D02*
X13365015Y-6446035D01*
X14858159Y-5851029D02*
G75*
G03*
X14833159Y-5876035I1J-25001D01*
G01*
X17605659Y-7781035D02*
X17605659Y-8026035D01*
X9048546Y-6041372D02*
X9102772Y-6013947D01*
X12789697Y-8223431D02*
G75*
G03*
X12406302Y-8160535I-383407J-1137149D01*
G01*
X12981620Y-8203140D02*
X12789698Y-8138430D01*
X10953546Y-7918948D02*
G75*
G03*
X10411967Y-7789785I-541576J-1070822D01*
G01*
X12981620Y-6298140D02*
G75*
G03*
X13365015Y-6361035I383400J1137140D01*
G01*
X21431046Y-4136372D02*
X21485272Y-4108947D01*
X12981619Y-4478141D02*
G75*
G03*
X13365015Y-4541035I383401J1137151D01*
G01*
X27100659Y-8446279D02*
G75*
G03*
X27385659Y-8161285I1J284999D01*
G01*
X10953546Y-8003948D02*
G75*
G03*
X10411967Y-7874785I-541576J-1070822D01*
G01*
X9644350Y-3979785D02*
X10411967Y-3979785D01*
X17605665Y-6161035D02*
G75*
G03*
X17805659Y-6361035I199995J-5D01*
G01*
X19073802Y-8351035D02*
X17805659Y-8351035D01*
X20032515Y-4265534D02*
G75*
G03*
X19649120Y-4328430I-5J-1199956D01*
G01*
X27385659Y-4836285D02*
X27385659Y-5121285D01*
X17545659Y-5851039D02*
G75*
G03*
X17520659Y-5876035I1J-25001D01*
G01*
X14858159Y-5051035D02*
X14893159Y-5051035D01*
X5113159Y-7051285D02*
X5078159Y-7051285D01*
X11549350Y-8160535D02*
X12406302Y-8160535D01*
X27300655Y-7026285D02*
G75*
G03*
X27325659Y-7051285I25005J5D01*
G01*
X20032515Y-4350535D02*
X20889467Y-4350535D01*
X14833159Y-6686035D02*
X14833159Y-6931035D01*
X7197772Y-6384697D02*
X7143546Y-6412122D01*
X23336045Y-6098948D02*
G75*
G03*
X22794467Y-5969785I-541576J-1070822D01*
G01*
X25295272Y-6412121D02*
G75*
G03*
X25836850Y-6541285I541578J1070821D01*
G01*
X11007773Y-6041371D02*
G75*
G03*
X11549350Y-6170535I541577J1070821D01*
G01*
X17605659Y-4781035D02*
X17605659Y-5026035D01*
X17605659Y-8066035D02*
X17605659Y-8026035D01*
X23336045Y-6013948D02*
G75*
G03*
X22794467Y-5884785I-541576J-1070822D01*
G01*
X14858159Y-7756035D02*
X14893159Y-7756035D01*
X25241045Y-6384698D02*
G75*
G03*
X24699467Y-6255535I-541575J-1070822D01*
G01*
X14833159Y-7781035D02*
X14833159Y-8066035D01*
X27300655Y-4836285D02*
G75*
G03*
X27100659Y-4636285I-199995J5D01*
G01*
X10953546Y-4108948D02*
G75*
G03*
X10411967Y-3979785I-541576J-1070822D01*
G01*
X5113159Y-7051289D02*
G75*
G03*
X5138159Y-7026285I1J24999D01*
G01*
X10411967Y-7789785D02*
X9644350Y-7789785D01*
X14858159Y-7756029D02*
G75*
G03*
X14833159Y-7781035I1J-25001D01*
G01*
X27300659Y-5971285D02*
X27300659Y-6216285D01*
X14893159Y-5051029D02*
G75*
G03*
X14918159Y-5026035I1J24999D01*
G01*
X17605659Y-6121035D02*
X17605659Y-6161035D01*
X14833159Y-5876035D02*
X14833159Y-6161035D01*
X14833159Y-6646035D02*
X14833159Y-6686035D01*
X20032516Y-6170535D02*
X20889467Y-6170535D01*
X9644350Y-3979785D02*
G75*
G03*
X9102772Y-4108947I0J-1200005D01*
G01*
X9048546Y-8031372D02*
X9102772Y-8003947D01*
X10953546Y-4108947D02*
X11007772Y-4136372D01*
X27300659Y-8161285D02*
X27300659Y-8121285D01*
X14918165Y-7781035D02*
G75*
G03*
X14893159Y-7756035I-25005J-5D01*
G01*
X10953546Y-6013947D02*
X11007772Y-6041372D01*
X7739350Y-4265535D02*
X8506967Y-4265535D01*
X17520655Y-8066035D02*
G75*
G03*
X17805659Y-8351035I285005J5D01*
G01*
X14858159Y-6956035D02*
X14893159Y-6956035D01*
X19073802Y-4541035D02*
G75*
G03*
X19457198Y-4478140I8J1199955D01*
G01*
X17805659Y-4541029D02*
G75*
G03*
X17605659Y-4741035I1J-200001D01*
G01*
X5053159Y-5971285D02*
X5053159Y-7026285D01*
D11*
X4562496Y-7451874D02*
X4602496Y-7491874D01*
X4602496Y-7451874D02*
X4562496Y-7491874D01*
X4562496Y-9057813D02*
X4602496Y-9097813D01*
X4602496Y-9057813D02*
X4562496Y-9097813D01*
X4563622Y-5559136D02*
X4603622Y-5599136D01*
X4603622Y-5559136D02*
X4563622Y-5599136D01*
X4634860Y-8984789D02*
X4674860Y-9024789D01*
X4674860Y-8984789D02*
X4634860Y-9024789D01*
X4634996Y-7379374D02*
X4674996Y-7419374D01*
X4674996Y-7379374D02*
X4634996Y-7419374D01*
X4636122Y-5486636D02*
X4676122Y-5526636D01*
X4676122Y-5486636D02*
X4636122Y-5526636D01*
X4707360Y-8907753D02*
X4747360Y-8947753D01*
X4747360Y-8907753D02*
X4707360Y-8947753D01*
X4707496Y-7302338D02*
X4747496Y-7342338D01*
X4747496Y-7302338D02*
X4707496Y-7342338D01*
X4708622Y-5409600D02*
X4748622Y-5449600D01*
X4748622Y-5409600D02*
X4708622Y-5449600D01*
X4771000Y-8818456D02*
X4811000Y-8858456D01*
X4811000Y-8818456D02*
X4771000Y-8858456D01*
X4771136Y-7213041D02*
X4811136Y-7253041D01*
X4811136Y-7213041D02*
X4771136Y-7253041D01*
X4772262Y-5320303D02*
X4812262Y-5360303D01*
X4812262Y-5320303D02*
X4772262Y-5360303D01*
X4831657Y-8729160D02*
X4871657Y-8769160D01*
X4871657Y-8729160D02*
X4831657Y-8769160D01*
X4831793Y-7123744D02*
X4871793Y-7163744D01*
X4871793Y-7123744D02*
X4831793Y-7163744D01*
X4831793Y-7957181D02*
X4871793Y-7997181D01*
X4871793Y-7957181D02*
X4831793Y-7997181D01*
X4832919Y-5231006D02*
X4872919Y-5271006D01*
X4872919Y-5231006D02*
X4832919Y-5271006D01*
X5258438Y-3829687D02*
X5298438Y-3869687D01*
X5298438Y-3829687D02*
X5258438Y-3869687D01*
X5462375Y-7415895D02*
X5502375Y-7455895D01*
X5502375Y-7415895D02*
X5462375Y-7455895D01*
X7123744Y-6915385D02*
X7163744Y-6955385D01*
X7163744Y-6915385D02*
X7123744Y-6955385D01*
X7163437Y-3551875D02*
X7203437Y-3591875D01*
X7203437Y-3551875D02*
X7163437Y-3591875D01*
X9028742Y-6617729D02*
X9068742Y-6657729D01*
X9068742Y-6617729D02*
X9028742Y-6657729D01*
X9068438Y-3234375D02*
X9108438Y-3274375D01*
X9108438Y-3234375D02*
X9068438Y-3274375D01*
X10963506Y-6587963D02*
X11003506Y-6627963D01*
X11003506Y-6587963D02*
X10963506Y-6627963D01*
X10973438Y-3353437D02*
X11013438Y-3393437D01*
X11013438Y-3353437D02*
X10973438Y-3393437D01*
X11499287Y-9679326D02*
X11539287Y-9719326D01*
X11539287Y-9679326D02*
X11499287Y-9719326D01*
X11767178Y-9564523D02*
X11807178Y-9604523D01*
X11807178Y-9564523D02*
X11767178Y-9604523D01*
X12838739Y-6826088D02*
X12878739Y-6866088D01*
X12878739Y-6826088D02*
X12838739Y-6866088D01*
X12868505Y-3581638D02*
X12908505Y-3621638D01*
X12908505Y-3581638D02*
X12868505Y-3621638D01*
X13374520Y-8731086D02*
X13414520Y-8771086D01*
X13414520Y-8731086D02*
X13374520Y-8771086D01*
X13374520Y-9802648D02*
X13414520Y-9842648D01*
X13414520Y-9802648D02*
X13374520Y-9842648D01*
X13791238Y-9683586D02*
X13831238Y-9723586D01*
X13831238Y-9683586D02*
X13791238Y-9723586D01*
X13940066Y-9594289D02*
X13980066Y-9634289D01*
X13980066Y-9594289D02*
X13940066Y-9634289D01*
X14465937Y-7957187D02*
X14505937Y-7997187D01*
X14505937Y-7957187D02*
X14465937Y-7997187D01*
X14705762Y-7539000D02*
X14745762Y-7579000D01*
X14745762Y-7539000D02*
X14705762Y-7579000D01*
X14719000Y-4209000D02*
X14759000Y-4249000D01*
X14759000Y-4209000D02*
X14719000Y-4249000D01*
X14783437Y-5496563D02*
X14823437Y-5536563D01*
X14823437Y-5496563D02*
X14783437Y-5536563D01*
X14796000Y-7495100D02*
X14836000Y-7535100D01*
X14836000Y-7495100D02*
X14796000Y-7535100D01*
X14800532Y-7395252D02*
X14840532Y-7435252D01*
X14840532Y-7395252D02*
X14800532Y-7435252D01*
X14806794Y-7295499D02*
X14846794Y-7335499D01*
X14846794Y-7295499D02*
X14806794Y-7335499D01*
X14943000Y-8488000D02*
X14983000Y-8528000D01*
X14983000Y-8488000D02*
X14943000Y-8528000D01*
X15061250Y-5496563D02*
X15101250Y-5536563D01*
X15101250Y-5496563D02*
X15061250Y-5536563D01*
X15084000Y-7560000D02*
X15124000Y-7600000D01*
X15124000Y-7560000D02*
X15084000Y-7600000D01*
X15190222Y-8135774D02*
X15230222Y-8175774D01*
X15230222Y-8135774D02*
X15190222Y-8175774D01*
X15279550Y-6763000D02*
X15319550Y-6803000D01*
X15319550Y-6763000D02*
X15279550Y-6803000D01*
X15309284Y-8016712D02*
X15349284Y-8056712D01*
X15349284Y-8016712D02*
X15309284Y-8056712D01*
X15351000Y-8946000D02*
X15391000Y-8986000D01*
X15391000Y-8946000D02*
X15351000Y-8986000D01*
X15362000Y-6659000D02*
X15402000Y-6699000D01*
X15402000Y-6659000D02*
X15362000Y-6699000D01*
X15432000Y-8009000D02*
X15472000Y-8049000D01*
X15472000Y-8009000D02*
X15432000Y-8049000D01*
X15487878Y-9832414D02*
X15527878Y-9872414D01*
X15527878Y-9832414D02*
X15487878Y-9872414D01*
X15537500Y-4266246D02*
X15577500Y-4306246D01*
X15577500Y-4266246D02*
X15537500Y-4306246D01*
X15559000Y-8003000D02*
X15599000Y-8043000D01*
X15599000Y-8003000D02*
X15559000Y-8043000D01*
X15606000Y-6476000D02*
X15646000Y-6516000D01*
X15646000Y-6476000D02*
X15606000Y-6516000D01*
X15616875Y-8909688D02*
X15656875Y-8949688D01*
X15656875Y-8909688D02*
X15616875Y-8949688D01*
X15735937Y-5695000D02*
X15775937Y-5735000D01*
X15775937Y-5695000D02*
X15735937Y-5735000D01*
X15808000Y-8555000D02*
X15848000Y-8595000D01*
X15848000Y-8555000D02*
X15808000Y-8595000D01*
X15867000Y-8705000D02*
X15907000Y-8745000D01*
X15907000Y-8705000D02*
X15867000Y-8745000D01*
X15962000Y-8976000D02*
X16002000Y-9016000D01*
X16002000Y-8976000D02*
X15962000Y-9016000D01*
X16047187Y-5966562D02*
X16087187Y-6006562D01*
X16087187Y-5966562D02*
X16047187Y-6006562D01*
X16080000Y-8716000D02*
X16120000Y-8756000D01*
X16120000Y-8716000D02*
X16080000Y-8756000D01*
X16153000Y-6157000D02*
X16193000Y-6197000D01*
X16193000Y-6157000D02*
X16153000Y-6197000D01*
X16393000Y-7969335D02*
X16433000Y-8009335D01*
X16433000Y-7969335D02*
X16393000Y-8009335D01*
X16501000Y-8851000D02*
X16541000Y-8891000D01*
X16541000Y-8851000D02*
X16501000Y-8891000D01*
X16742000Y-7721000D02*
X16782000Y-7761000D01*
X16782000Y-7721000D02*
X16742000Y-7761000D01*
X16857095Y-4305938D02*
X16897095Y-4345938D01*
X16897095Y-4305938D02*
X16857095Y-4345938D01*
X16937304Y-6899000D02*
X16977304Y-6939000D01*
X16977304Y-6899000D02*
X16937304Y-6939000D01*
X16937304Y-8110304D02*
X16977304Y-8150304D01*
X16977304Y-8110304D02*
X16937304Y-8150304D01*
X16938000Y-7412000D02*
X16978000Y-7452000D01*
X16978000Y-7412000D02*
X16938000Y-7452000D01*
X16946392Y-5933120D02*
X16986392Y-5973120D01*
X16986392Y-5933120D02*
X16946392Y-5973120D01*
X17035689Y-5862670D02*
X17075689Y-5902670D01*
X17075689Y-5862670D02*
X17035689Y-5902670D01*
X17096000Y-6166000D02*
X17136000Y-6206000D01*
X17136000Y-6166000D02*
X17096000Y-6206000D01*
X17096144Y-5783076D02*
X17136144Y-5823076D01*
X17136144Y-5783076D02*
X17096144Y-5823076D01*
X17139904Y-5680148D02*
X17179904Y-5720148D01*
X17179904Y-5680148D02*
X17139904Y-5720148D01*
X17146000Y-7510000D02*
X17186000Y-7550000D01*
X17186000Y-7510000D02*
X17146000Y-7550000D01*
X17361000Y-6929000D02*
X17401000Y-6969000D01*
X17401000Y-6929000D02*
X17361000Y-6969000D01*
X17408000Y-7569000D02*
X17448000Y-7609000D01*
X17448000Y-7569000D02*
X17408000Y-7609000D01*
X17512000Y-3730000D02*
X17552000Y-3770000D01*
X17552000Y-3730000D02*
X17512000Y-3770000D01*
X17837000Y-6109000D02*
X17877000Y-6149000D01*
X17877000Y-6109000D02*
X17837000Y-6149000D01*
X17839360Y-5546167D02*
X17879360Y-5586167D01*
X17879360Y-5546167D02*
X17839360Y-5586167D01*
X17839360Y-7451166D02*
X17879360Y-7491166D01*
X17879360Y-7451166D02*
X17839360Y-7491166D01*
X17845313Y-3998356D02*
X17885313Y-4038356D01*
X17885313Y-3998356D02*
X17845313Y-4038356D01*
X18672813Y-9068438D02*
X18712813Y-9108438D01*
X18712813Y-9068438D02*
X18672813Y-9108438D01*
X19178812Y-9594289D02*
X19218812Y-9634289D01*
X19218812Y-9594289D02*
X19178812Y-9634289D01*
X19744358Y-3730466D02*
X19784358Y-3770466D01*
X19784358Y-3730466D02*
X19744358Y-3770466D01*
X20667092Y-8731086D02*
X20707092Y-8771086D01*
X20707092Y-8731086D02*
X20667092Y-8771086D01*
X20804000Y-8594178D02*
X20844000Y-8634178D01*
X20844000Y-8594178D02*
X20804000Y-8634178D01*
X20804000Y-9182000D02*
X20844000Y-9222000D01*
X20844000Y-9182000D02*
X20804000Y-9222000D01*
X21649357Y-3432810D02*
X21689357Y-3472810D01*
X21689357Y-3432810D02*
X21649357Y-3472810D01*
X23554355Y-3670934D02*
X23594355Y-3710934D01*
X23594355Y-3670934D02*
X23554355Y-3710934D01*
X25459000Y-3928000D02*
X25499000Y-3968000D01*
X25499000Y-3928000D02*
X25459000Y-3968000D01*
X25459354Y-5933120D02*
X25499354Y-5973120D01*
X25499354Y-5933120D02*
X25459354Y-5973120D01*
X25459354Y-7838118D02*
X25499354Y-7878118D01*
X25499354Y-7838118D02*
X25459354Y-7878118D01*
X25459354Y-9743117D02*
X25499354Y-9783117D01*
X25499354Y-9743117D02*
X25459354Y-9783117D01*
X27154000Y-5544000D02*
X27194000Y-5584000D01*
X27194000Y-5544000D02*
X27154000Y-5584000D01*
X27176000Y-7608000D02*
X27216000Y-7648000D01*
X27216000Y-7608000D02*
X27176000Y-7648000D01*
X27273000Y-9460000D02*
X27313000Y-9500000D01*
X27313000Y-9460000D02*
X27273000Y-9500000D01*
X27483414Y-7361869D02*
X27523414Y-7401869D01*
X27523414Y-7361869D02*
X27483414Y-7401869D01*
X27511000Y-5371000D02*
X27551000Y-5411000D01*
X27551000Y-5371000D02*
X27511000Y-5411000D01*
X27572711Y-8819675D02*
X27612711Y-8859675D01*
X27612711Y-8819675D02*
X27572711Y-8859675D01*
X27580000Y-7225000D02*
X27620000Y-7265000D01*
X27620000Y-7225000D02*
X27580000Y-7265000D01*
X27612816Y-5375184D02*
X27652816Y-5415184D01*
X27652816Y-5375184D02*
X27612816Y-5415184D01*
X27636351Y-8908972D02*
X27676351Y-8948972D01*
X27676351Y-8908972D02*
X27636351Y-8948972D01*
X27643640Y-7314297D02*
X27683640Y-7354297D01*
X27683640Y-7314297D02*
X27643640Y-7354297D01*
X27721539Y-8998977D02*
X27761539Y-9038977D01*
X27761539Y-8998977D02*
X27721539Y-9038977D01*
X27723000Y-7397000D02*
X27763000Y-7437000D01*
X27763000Y-7397000D02*
X27723000Y-7437000D01*
X27741550Y-5418000D02*
X27781550Y-5458000D01*
X27781550Y-5418000D02*
X27741550Y-5458000D01*
X27805374Y-5520925D02*
X27845374Y-5560925D01*
X27845374Y-5520925D02*
X27805374Y-5560925D01*
X27810836Y-9058508D02*
X27850836Y-9098508D01*
X27850836Y-9058508D02*
X27810836Y-9098508D01*
X27811000Y-7478536D02*
X27851000Y-7518536D01*
X27851000Y-7478536D02*
X27811000Y-7518536D01*
D12*
X15818000Y-2254764D02*
G75*
G03*
X15818000Y-2254764I-30000J0D01*
G01*
D10*
X15758000Y-2224764D02*
X15758000Y-2284764D01*
X15818000Y-2224764D02*
X15818000Y-2284764D01*
X15758000Y-2284764D02*
G75*
G03*
X15818000Y-2284764I30000J0D01*
G01*
X15818000Y-2224764D02*
G75*
G03*
X15758000Y-2224764I-30000J0D01*
G01*
D12*
X15818000Y-2672764D02*
G75*
G03*
X15818000Y-2672764I-30000J0D01*
G01*
D10*
X15758000Y-2617764D02*
X15758000Y-2727764D01*
X15818000Y-2617764D02*
X15818000Y-2727764D01*
X15758000Y-2727764D02*
G75*
G03*
X15818000Y-2727764I30000J0D01*
G01*
X15818000Y-2617764D02*
G75*
G03*
X15758000Y-2617764I-30000J0D01*
G01*
D12*
X16682000Y-2254764D02*
G75*
G03*
X16682000Y-2254764I-30000J0D01*
G01*
D10*
X16622000Y-2224764D02*
X16622000Y-2284764D01*
X16682000Y-2224764D02*
X16682000Y-2284764D01*
X16622000Y-2284764D02*
G75*
G03*
X16682000Y-2284764I30000J0D01*
G01*
X16682000Y-2224764D02*
G75*
G03*
X16622000Y-2224764I-30000J0D01*
G01*
D12*
X16682000Y-2672764D02*
G75*
G03*
X16682000Y-2672764I-30000J0D01*
G01*
D10*
X16622000Y-2617764D02*
X16622000Y-2727764D01*
X16682000Y-2617764D02*
X16682000Y-2727764D01*
X16622000Y-2727764D02*
G75*
G03*
X16682000Y-2727764I30000J0D01*
G01*
X16682000Y-2617764D02*
G75*
G03*
X16622000Y-2617764I-30000J0D01*
G01*
D13*
X15998018Y-9288200D02*
X15998018Y-9389800D01*
X15947218Y-9339000D02*
X16048818Y-9339000D01*
X15998018Y-9542200D02*
X15998018Y-9643800D01*
X15947218Y-9593000D02*
X16048818Y-9593000D01*
X16252018Y-9288200D02*
X16252018Y-9389800D01*
X16201218Y-9339000D02*
X16302818Y-9339000D01*
X16252018Y-9542200D02*
X16252018Y-9643800D01*
X16201218Y-9593000D02*
X16302818Y-9593000D01*
X16506018Y-9288200D02*
X16506018Y-9389800D01*
X16455218Y-9339000D02*
X16556818Y-9339000D01*
X16506018Y-9542200D02*
X16506018Y-9643800D01*
X16455218Y-9593000D02*
X16556818Y-9593000D01*
D14*
X2062782Y-9587783D02*
X2062782Y-9432218D01*
X1907217Y-9432218D01*
X1907217Y-9587783D01*
X2062782Y-9587783D01*
X3252782Y-4194783D02*
X3252782Y-4039217D01*
X3097217Y-4039217D01*
X3097217Y-4194783D01*
X3252782Y-4194783D01*
X29344782Y-4194783D02*
X29344782Y-4039217D01*
X29189217Y-4039217D01*
X29189217Y-4194783D01*
X29344782Y-4194783D01*
X30535782Y-9588783D02*
X30535782Y-9433218D01*
X30380217Y-9433218D01*
X30380217Y-9588783D01*
X30535782Y-9588783D01*
D15*
X2741688Y-9061750D02*
X2891687Y-8911750D01*
X2741688Y-8761750D01*
X2591688Y-8911750D01*
X2741688Y-9061750D01*
X3217937Y-7156750D02*
X3367937Y-7006750D01*
X3217937Y-6856750D01*
X3067937Y-7006750D01*
X3217937Y-7156750D01*
X3376687Y-8807750D02*
X3526687Y-8657750D01*
X3376687Y-8507750D01*
X3226687Y-8657750D01*
X3376687Y-8807750D01*
X3456062Y-5251750D02*
X3606062Y-5101750D01*
X3456062Y-4951750D01*
X3306062Y-5101750D01*
X3456062Y-5251750D01*
X3852937Y-6902750D02*
X4002937Y-6752750D01*
X3852937Y-6602750D01*
X3702937Y-6752750D01*
X3852937Y-6902750D01*
X3932312Y-3346750D02*
X4082312Y-3196750D01*
X3932312Y-3046750D01*
X3782312Y-3196750D01*
X3932312Y-3346750D01*
X4091062Y-4997750D02*
X4241063Y-4847750D01*
X4091062Y-4697750D01*
X3941062Y-4847750D01*
X4091062Y-4997750D01*
X4567313Y-3092750D02*
X4717313Y-2942750D01*
X4567313Y-2792750D01*
X4417313Y-2942750D01*
X4567313Y-3092750D01*
X5837375Y-3538000D02*
X5987375Y-3388000D01*
X5837375Y-3238000D01*
X5687375Y-3388000D01*
X5837375Y-3538000D01*
X5837375Y-5443000D02*
X5987375Y-5293000D01*
X5837375Y-5143000D01*
X5687375Y-5293000D01*
X5837375Y-5443000D01*
X5837375Y-7348000D02*
X5987375Y-7198000D01*
X5837375Y-7048000D01*
X5687375Y-7198000D01*
X5837375Y-7348000D01*
X5837375Y-9253000D02*
X5987375Y-9103000D01*
X5837375Y-8953000D01*
X5687375Y-9103000D01*
X5837375Y-9253000D01*
X6472375Y-3284000D02*
X6622375Y-3134000D01*
X6472375Y-2984000D01*
X6322375Y-3134000D01*
X6472375Y-3284000D01*
X6472375Y-5189000D02*
X6622375Y-5039000D01*
X6472375Y-4889000D01*
X6322375Y-5039000D01*
X6472375Y-5189000D01*
X6472375Y-7094000D02*
X6622375Y-6944000D01*
X6472375Y-6794000D01*
X6322375Y-6944000D01*
X6472375Y-7094000D01*
X6472375Y-8999000D02*
X6622375Y-8849000D01*
X6472375Y-8699000D01*
X6322375Y-8849000D01*
X6472375Y-8999000D01*
X7742375Y-3253000D02*
X7892375Y-3103000D01*
X7742375Y-2953000D01*
X7592375Y-3103000D01*
X7742375Y-3253000D01*
X7742375Y-5158000D02*
X7892375Y-5008000D01*
X7742375Y-4858000D01*
X7592375Y-5008000D01*
X7742375Y-5158000D01*
X7742375Y-7063000D02*
X7892375Y-6913000D01*
X7742375Y-6763000D01*
X7592375Y-6913000D01*
X7742375Y-7063000D01*
X7980500Y-8968000D02*
X8130500Y-8818000D01*
X7980500Y-8668000D01*
X7830500Y-8818000D01*
X7980500Y-8968000D01*
X8377375Y-2999000D02*
X8527375Y-2849000D01*
X8377375Y-2699000D01*
X8227375Y-2849000D01*
X8377375Y-2999000D01*
X8377375Y-4904000D02*
X8527375Y-4754000D01*
X8377375Y-4604000D01*
X8227375Y-4754000D01*
X8377375Y-4904000D01*
X8377375Y-6809000D02*
X8527375Y-6659000D01*
X8377375Y-6509000D01*
X8227375Y-6659000D01*
X8377375Y-6809000D01*
X8615500Y-8714000D02*
X8765500Y-8564000D01*
X8615500Y-8414000D01*
X8465500Y-8564000D01*
X8615500Y-8714000D01*
X9647375Y-2967000D02*
X9797375Y-2817000D01*
X9647375Y-2667000D01*
X9497375Y-2817000D01*
X9647375Y-2967000D01*
X9647375Y-4872000D02*
X9797375Y-4722000D01*
X9647375Y-4572000D01*
X9497375Y-4722000D01*
X9647375Y-4872000D01*
X9647375Y-6777000D02*
X9797375Y-6627000D01*
X9647375Y-6477000D01*
X9497375Y-6627000D01*
X9647375Y-6777000D01*
X10122625Y-8969000D02*
X10272625Y-8819000D01*
X10122625Y-8669000D01*
X9972625Y-8819000D01*
X10122625Y-8969000D01*
X10282375Y-2713000D02*
X10432375Y-2563000D01*
X10282375Y-2413000D01*
X10132375Y-2563000D01*
X10282375Y-2713000D01*
X10282375Y-4618000D02*
X10432375Y-4468000D01*
X10282375Y-4318000D01*
X10132375Y-4468000D01*
X10282375Y-4618000D01*
X10282375Y-6523000D02*
X10432375Y-6373000D01*
X10282375Y-6223000D01*
X10132375Y-6373000D01*
X10282375Y-6523000D01*
X10757625Y-8715000D02*
X10907625Y-8565000D01*
X10757625Y-8415000D01*
X10607625Y-8565000D01*
X10757625Y-8715000D01*
X11551375Y-3254000D02*
X11701375Y-3104000D01*
X11551375Y-2954000D01*
X11401375Y-3104000D01*
X11551375Y-3254000D01*
X11551375Y-5159000D02*
X11701375Y-5009000D01*
X11551375Y-4859000D01*
X11401375Y-5009000D01*
X11551375Y-5159000D01*
X11551375Y-7064000D02*
X11701375Y-6914000D01*
X11551375Y-6764000D01*
X11401375Y-6914000D01*
X11551375Y-7064000D01*
X12027375Y-9158000D02*
X12177375Y-9008000D01*
X12027375Y-8858000D01*
X11877375Y-9008000D01*
X12027375Y-9158000D01*
X12186375Y-3000000D02*
X12336375Y-2850000D01*
X12186375Y-2700000D01*
X12036375Y-2850000D01*
X12186375Y-3000000D01*
X12186375Y-4905000D02*
X12336375Y-4755000D01*
X12186375Y-4605000D01*
X12036375Y-4755000D01*
X12186375Y-4905000D01*
X12186375Y-6810000D02*
X12336375Y-6660000D01*
X12186375Y-6510000D01*
X12036375Y-6660000D01*
X12186375Y-6810000D01*
X12394000Y-9920000D02*
X12544000Y-9770000D01*
X12394000Y-9620000D01*
X12244000Y-9770000D01*
X12394000Y-9920000D01*
X12662375Y-8904000D02*
X12812375Y-8754000D01*
X12662375Y-8604000D01*
X12512375Y-8754000D01*
X12662375Y-8904000D01*
X13029000Y-9666000D02*
X13179000Y-9516000D01*
X13029000Y-9366000D01*
X12879000Y-9516000D01*
X13029000Y-9666000D01*
X13457375Y-3443000D02*
X13607375Y-3293000D01*
X13457375Y-3143000D01*
X13307375Y-3293000D01*
X13457375Y-3443000D01*
X13457375Y-5348000D02*
X13607375Y-5198000D01*
X13457375Y-5048000D01*
X13307375Y-5198000D01*
X13457375Y-5348000D01*
X13457375Y-7253000D02*
X13607375Y-7103000D01*
X13457375Y-6953000D01*
X13307375Y-7103000D01*
X13457375Y-7253000D01*
X14092375Y-3189000D02*
X14242375Y-3039000D01*
X14092375Y-2889000D01*
X13942375Y-3039000D01*
X14092375Y-3189000D01*
X14092375Y-5094000D02*
X14242375Y-4944000D01*
X14092375Y-4794000D01*
X13942375Y-4944000D01*
X14092375Y-5094000D01*
X14092375Y-6999000D02*
X14242375Y-6849000D01*
X14092375Y-6699000D01*
X13942375Y-6849000D01*
X14092375Y-6999000D01*
X14169375Y-9157000D02*
X14319375Y-9007000D01*
X14169375Y-8857000D01*
X14019375Y-9007000D01*
X14169375Y-9157000D01*
X14535375Y-9922000D02*
X14685375Y-9772000D01*
X14535375Y-9622000D01*
X14385375Y-9772000D01*
X14535375Y-9922000D01*
X14804375Y-8903000D02*
X14954375Y-8753000D01*
X14804375Y-8603000D01*
X14654375Y-8753000D01*
X14804375Y-8903000D01*
X15170375Y-9668000D02*
X15320375Y-9518000D01*
X15170375Y-9368000D01*
X15020375Y-9518000D01*
X15170375Y-9668000D01*
X15837375Y-5157000D02*
X15987375Y-5007000D01*
X15837375Y-4857000D01*
X15687375Y-5007000D01*
X15837375Y-5157000D01*
X15964375Y-4014000D02*
X16114375Y-3864000D01*
X15964375Y-3714000D01*
X15814375Y-3864000D01*
X15964375Y-4014000D01*
X16472375Y-4903000D02*
X16622375Y-4753000D01*
X16472375Y-4603000D01*
X16322375Y-4753000D01*
X16472375Y-4903000D01*
X16599375Y-3760000D02*
X16749375Y-3610000D01*
X16599375Y-3460000D01*
X16449375Y-3610000D01*
X16599375Y-3760000D01*
X17267375Y-9157000D02*
X17417375Y-9007000D01*
X17267375Y-8857000D01*
X17117375Y-9007000D01*
X17267375Y-9157000D01*
X17633375Y-9919000D02*
X17783375Y-9769000D01*
X17633375Y-9619000D01*
X17483375Y-9769000D01*
X17633375Y-9919000D01*
X17902375Y-8903000D02*
X18052375Y-8753000D01*
X17902375Y-8603000D01*
X17752375Y-8753000D01*
X17902375Y-8903000D01*
X18220313Y-3442000D02*
X18370313Y-3292000D01*
X18220313Y-3142000D01*
X18070313Y-3292000D01*
X18220313Y-3442000D01*
X18220313Y-5347000D02*
X18370313Y-5197000D01*
X18220313Y-5047000D01*
X18070313Y-5197000D01*
X18220313Y-5347000D01*
X18220313Y-7252000D02*
X18370313Y-7102000D01*
X18220313Y-6952000D01*
X18070313Y-7102000D01*
X18220313Y-7252000D01*
X18268375Y-9665000D02*
X18418375Y-9515000D01*
X18268375Y-9365000D01*
X18118375Y-9515000D01*
X18268375Y-9665000D01*
X18855313Y-3188000D02*
X19005313Y-3038000D01*
X18855313Y-2888000D01*
X18705313Y-3038000D01*
X18855313Y-3188000D01*
X18855313Y-5093000D02*
X19005313Y-4943000D01*
X18855313Y-4793000D01*
X18705313Y-4943000D01*
X18855313Y-5093000D01*
X18855313Y-6998000D02*
X19005313Y-6848000D01*
X18855313Y-6698000D01*
X18705313Y-6848000D01*
X18855313Y-6998000D01*
X19408000Y-9157000D02*
X19558000Y-9007000D01*
X19408000Y-8857000D01*
X19258000Y-9007000D01*
X19408000Y-9157000D01*
X19776375Y-9918000D02*
X19926375Y-9768000D01*
X19776375Y-9618000D01*
X19626375Y-9768000D01*
X19776375Y-9918000D01*
X20043000Y-8903000D02*
X20193000Y-8753000D01*
X20043000Y-8603000D01*
X19893000Y-8753000D01*
X20043000Y-8903000D01*
X20125375Y-3253000D02*
X20275375Y-3103000D01*
X20125375Y-2953000D01*
X19975375Y-3103000D01*
X20125375Y-3253000D01*
X20125375Y-5158000D02*
X20275375Y-5008000D01*
X20125375Y-4858000D01*
X19975375Y-5008000D01*
X20125375Y-5158000D01*
X20125375Y-7063000D02*
X20275375Y-6913000D01*
X20125375Y-6763000D01*
X19975375Y-6913000D01*
X20125375Y-7063000D01*
X20411375Y-9664000D02*
X20561375Y-9514000D01*
X20411375Y-9364000D01*
X20261375Y-9514000D01*
X20411375Y-9664000D01*
X20760375Y-2999000D02*
X20910375Y-2849000D01*
X20760375Y-2699000D01*
X20610375Y-2849000D01*
X20760375Y-2999000D01*
X20760375Y-4904000D02*
X20910375Y-4754000D01*
X20760375Y-4604000D01*
X20610375Y-4754000D01*
X20760375Y-4904000D01*
X20760375Y-6809000D02*
X20910375Y-6659000D01*
X20760375Y-6509000D01*
X20610375Y-6659000D01*
X20760375Y-6809000D01*
X21554625Y-8968000D02*
X21704625Y-8818000D01*
X21554625Y-8668000D01*
X21404625Y-8818000D01*
X21554625Y-8968000D01*
X22030375Y-2967000D02*
X22180375Y-2817000D01*
X22030375Y-2667000D01*
X21880375Y-2817000D01*
X22030375Y-2967000D01*
X22030375Y-4872000D02*
X22180375Y-4722000D01*
X22030375Y-4572000D01*
X21880375Y-4722000D01*
X22030375Y-4872000D01*
X22030375Y-6777000D02*
X22180375Y-6627000D01*
X22030375Y-6477000D01*
X21880375Y-6627000D01*
X22030375Y-6777000D01*
X22189625Y-8714000D02*
X22339625Y-8564000D01*
X22189625Y-8414000D01*
X22039625Y-8564000D01*
X22189625Y-8714000D01*
X22665375Y-2713000D02*
X22815375Y-2563000D01*
X22665375Y-2413000D01*
X22515375Y-2563000D01*
X22665375Y-2713000D01*
X22665375Y-4618000D02*
X22815375Y-4468000D01*
X22665375Y-4318000D01*
X22515375Y-4468000D01*
X22665375Y-4618000D01*
X22665375Y-6523000D02*
X22815375Y-6373000D01*
X22665375Y-6223000D01*
X22515375Y-6373000D01*
X22665375Y-6523000D01*
X23697750Y-8968000D02*
X23847750Y-8818000D01*
X23697750Y-8668000D01*
X23547750Y-8818000D01*
X23697750Y-8968000D01*
X23935875Y-3253000D02*
X24085875Y-3103000D01*
X23935875Y-2953000D01*
X23785875Y-3103000D01*
X23935875Y-3253000D01*
X23935875Y-5158000D02*
X24085875Y-5008000D01*
X23935875Y-4858000D01*
X23785875Y-5008000D01*
X23935875Y-5158000D01*
X23935875Y-7063000D02*
X24085875Y-6913000D01*
X23935875Y-6763000D01*
X23785875Y-6913000D01*
X23935875Y-7063000D01*
X24332750Y-8714000D02*
X24482750Y-8564000D01*
X24332750Y-8414000D01*
X24182750Y-8564000D01*
X24332750Y-8714000D01*
X24570875Y-2999000D02*
X24720875Y-2849000D01*
X24570875Y-2699000D01*
X24420875Y-2849000D01*
X24570875Y-2999000D01*
X24570875Y-4904000D02*
X24720875Y-4754000D01*
X24570875Y-4604000D01*
X24420875Y-4754000D01*
X24570875Y-4904000D01*
X24570875Y-6809000D02*
X24720875Y-6659000D01*
X24570875Y-6509000D01*
X24420875Y-6659000D01*
X24570875Y-6809000D01*
X25839375Y-3538000D02*
X25989375Y-3388000D01*
X25839375Y-3238000D01*
X25689375Y-3388000D01*
X25839375Y-3538000D01*
X25839375Y-5443000D02*
X25989375Y-5293000D01*
X25839375Y-5143000D01*
X25689375Y-5293000D01*
X25839375Y-5443000D01*
X25839375Y-7348000D02*
X25989375Y-7198000D01*
X25839375Y-7048000D01*
X25689375Y-7198000D01*
X25839375Y-7348000D01*
X25839375Y-9253000D02*
X25989375Y-9103000D01*
X25839375Y-8953000D01*
X25689375Y-9103000D01*
X25839375Y-9253000D01*
X26474375Y-3284000D02*
X26624375Y-3134000D01*
X26474375Y-2984000D01*
X26324375Y-3134000D01*
X26474375Y-3284000D01*
X26474375Y-5189000D02*
X26624375Y-5039000D01*
X26474375Y-4889000D01*
X26324375Y-5039000D01*
X26474375Y-5189000D01*
X26474375Y-7094000D02*
X26624375Y-6944000D01*
X26474375Y-6794000D01*
X26324375Y-6944000D01*
X26474375Y-7094000D01*
X26474375Y-8999000D02*
X26624375Y-8849000D01*
X26474375Y-8699000D01*
X26324375Y-8849000D01*
X26474375Y-8999000D01*
X27745375Y-3348000D02*
X27895375Y-3198000D01*
X27745375Y-3048000D01*
X27595375Y-3198000D01*
X27745375Y-3348000D01*
X28221625Y-5253000D02*
X28371625Y-5103000D01*
X28221625Y-4953000D01*
X28071625Y-5103000D01*
X28221625Y-5253000D01*
X28380375Y-3094000D02*
X28530375Y-2944000D01*
X28380375Y-2794000D01*
X28230375Y-2944000D01*
X28380375Y-3094000D01*
X28459750Y-7158000D02*
X28609750Y-7008000D01*
X28459750Y-6858000D01*
X28309750Y-7008000D01*
X28459750Y-7158000D01*
X28856625Y-4999000D02*
X29006625Y-4849000D01*
X28856625Y-4699000D01*
X28706625Y-4849000D01*
X28856625Y-4999000D01*
X28936000Y-9063000D02*
X29086000Y-8913000D01*
X28936000Y-8763000D01*
X28786000Y-8913000D01*
X28936000Y-9063000D01*
X29094750Y-6904000D02*
X29244750Y-6754000D01*
X29094750Y-6604000D01*
X28944750Y-6754000D01*
X29094750Y-6904000D01*
X29571000Y-8809000D02*
X29721000Y-8659000D01*
X29571000Y-8509000D01*
X29421000Y-8659000D01*
X29571000Y-8809000D01*
D10*
X1544782Y-11055311D02*
X1544782Y-10855311D01*
X1592401Y-10855311D01*
X1620972Y-10864835D01*
X1640020Y-10883883D01*
X1649544Y-10902930D01*
X1659067Y-10941025D01*
X1659067Y-10969597D01*
X1649544Y-11007692D01*
X1640020Y-11026740D01*
X1620972Y-11045787D01*
X1592401Y-11055311D01*
X1544782Y-11055311D01*
X1744782Y-11055311D02*
X1744782Y-10921978D01*
X1744782Y-10960073D02*
X1754306Y-10941025D01*
X1763829Y-10931502D01*
X1782877Y-10921978D01*
X1801925Y-10921978D01*
X1868591Y-11055311D02*
X1868591Y-10921978D01*
X1868591Y-10855311D02*
X1859067Y-10864835D01*
X1868591Y-10874359D01*
X1878115Y-10864835D01*
X1868591Y-10855311D01*
X1868591Y-10874359D01*
X1992401Y-11055311D02*
X1973353Y-11045787D01*
X1963829Y-11026740D01*
X1963829Y-10855311D01*
X2097163Y-11055311D02*
X2078115Y-11045787D01*
X2068591Y-11026740D01*
X2068591Y-10855311D01*
X2325734Y-11055311D02*
X2325734Y-10855311D01*
X2392401Y-10998168D01*
X2459068Y-10855311D01*
X2459068Y-11055311D01*
X2640020Y-11055311D02*
X2640020Y-10950549D01*
X2630496Y-10931502D01*
X2611449Y-10921978D01*
X2573353Y-10921978D01*
X2554306Y-10931502D01*
X2640020Y-11045787D02*
X2620972Y-11055311D01*
X2573353Y-11055311D01*
X2554306Y-11045787D01*
X2544782Y-11026740D01*
X2544782Y-11007692D01*
X2554306Y-10988645D01*
X2573353Y-10979121D01*
X2620972Y-10979121D01*
X2640020Y-10969597D01*
X2735258Y-10921978D02*
X2735258Y-11121978D01*
X2735258Y-10931502D02*
X2754306Y-10921978D01*
X2792401Y-10921978D01*
X2811448Y-10931502D01*
X2820972Y-10941025D01*
X2830496Y-10960073D01*
X2830496Y-11017216D01*
X2820972Y-11036264D01*
X2811448Y-11045787D01*
X2792401Y-11055311D01*
X2754306Y-11055311D01*
X2735258Y-11045787D01*
X2916210Y-11036264D02*
X2925734Y-11045787D01*
X2916210Y-11055311D01*
X2906687Y-11045787D01*
X2916210Y-11036264D01*
X2916210Y-11055311D01*
X2916210Y-10931502D02*
X2925734Y-10941025D01*
X2916210Y-10950549D01*
X2906687Y-10941025D01*
X2916210Y-10931502D01*
X2916210Y-10950549D01*
D11*
X1247163Y-11364835D02*
X1287163Y-11404835D01*
X1287163Y-11364835D02*
X1247163Y-11404835D01*
D10*
X1582877Y-11275311D02*
X1601925Y-11275311D01*
X1620972Y-11284835D01*
X1630496Y-11294359D01*
X1640020Y-11313406D01*
X1649544Y-11351502D01*
X1649544Y-11399121D01*
X1640020Y-11437216D01*
X1630496Y-11456263D01*
X1620972Y-11465787D01*
X1601925Y-11475311D01*
X1582877Y-11475311D01*
X1563829Y-11465787D01*
X1554306Y-11456263D01*
X1544782Y-11437216D01*
X1535258Y-11399121D01*
X1535258Y-11351502D01*
X1544782Y-11313406D01*
X1554306Y-11294359D01*
X1563829Y-11284835D01*
X1582877Y-11275311D01*
X1735258Y-11456263D02*
X1744782Y-11465787D01*
X1735258Y-11475311D01*
X1725734Y-11465787D01*
X1735258Y-11456263D01*
X1735258Y-11475311D01*
X1916210Y-11341978D02*
X1916210Y-11475311D01*
X1868591Y-11265787D02*
X1820972Y-11408644D01*
X1944782Y-11408644D01*
X2059067Y-11275311D02*
X2078115Y-11275311D01*
X2097163Y-11284835D01*
X2106687Y-11294359D01*
X2116210Y-11313406D01*
X2125734Y-11351502D01*
X2125734Y-11399121D01*
X2116210Y-11437216D01*
X2106687Y-11456263D01*
X2097163Y-11465787D01*
X2078115Y-11475311D01*
X2059067Y-11475311D01*
X2040020Y-11465787D01*
X2030496Y-11456263D01*
X2020972Y-11437216D01*
X2011448Y-11399121D01*
X2011448Y-11351502D01*
X2020972Y-11313406D01*
X2030496Y-11294359D01*
X2040020Y-11284835D01*
X2059067Y-11275311D01*
X2249544Y-11275311D02*
X2268591Y-11275311D01*
X2287639Y-11284835D01*
X2297163Y-11294359D01*
X2306687Y-11313406D01*
X2316210Y-11351502D01*
X2316210Y-11399121D01*
X2306687Y-11437216D01*
X2297163Y-11456263D01*
X2287639Y-11465787D01*
X2268591Y-11475311D01*
X2249544Y-11475311D01*
X2230496Y-11465787D01*
X2220972Y-11456263D01*
X2211449Y-11437216D01*
X2201925Y-11399121D01*
X2201925Y-11351502D01*
X2211449Y-11313406D01*
X2220972Y-11294359D01*
X2230496Y-11284835D01*
X2249544Y-11275311D01*
X2401925Y-11475311D02*
X2401925Y-11341978D01*
X2401925Y-11361025D02*
X2411449Y-11351502D01*
X2430496Y-11341978D01*
X2459068Y-11341978D01*
X2478115Y-11351502D01*
X2487639Y-11370549D01*
X2487639Y-11475311D01*
X2487639Y-11370549D02*
X2497163Y-11351502D01*
X2516210Y-11341978D01*
X2544782Y-11341978D01*
X2563829Y-11351502D01*
X2573353Y-11370549D01*
X2573353Y-11475311D01*
X2668591Y-11475311D02*
X2668591Y-11341978D01*
X2668591Y-11361025D02*
X2678115Y-11351502D01*
X2697163Y-11341978D01*
X2725734Y-11341978D01*
X2744782Y-11351502D01*
X2754306Y-11370549D01*
X2754306Y-11475311D01*
X2754306Y-11370549D02*
X2763829Y-11351502D01*
X2782877Y-11341978D01*
X2811448Y-11341978D01*
X2830496Y-11351502D01*
X2840020Y-11370549D01*
X2840020Y-11475311D01*
X3230496Y-11265787D02*
X3059067Y-11522930D01*
X3487639Y-11275311D02*
X3506687Y-11275311D01*
X3525734Y-11284835D01*
X3535258Y-11294359D01*
X3544782Y-11313406D01*
X3554306Y-11351502D01*
X3554306Y-11399121D01*
X3544782Y-11437216D01*
X3535258Y-11456263D01*
X3525734Y-11465787D01*
X3506687Y-11475311D01*
X3487639Y-11475311D01*
X3468591Y-11465787D01*
X3459067Y-11456263D01*
X3449544Y-11437216D01*
X3440020Y-11399121D01*
X3440020Y-11351502D01*
X3449544Y-11313406D01*
X3459067Y-11294359D01*
X3468591Y-11284835D01*
X3487639Y-11275311D01*
X3640020Y-11456263D02*
X3649544Y-11465787D01*
X3640020Y-11475311D01*
X3630496Y-11465787D01*
X3640020Y-11456263D01*
X3640020Y-11475311D01*
X3773353Y-11275311D02*
X3792401Y-11275311D01*
X3811448Y-11284835D01*
X3820972Y-11294359D01*
X3830496Y-11313406D01*
X3840020Y-11351502D01*
X3840020Y-11399121D01*
X3830496Y-11437216D01*
X3820972Y-11456263D01*
X3811448Y-11465787D01*
X3792401Y-11475311D01*
X3773353Y-11475311D01*
X3754306Y-11465787D01*
X3744782Y-11456263D01*
X3735258Y-11437216D01*
X3725734Y-11399121D01*
X3725734Y-11351502D01*
X3735258Y-11313406D01*
X3744782Y-11294359D01*
X3754306Y-11284835D01*
X3773353Y-11275311D01*
X4030496Y-11475311D02*
X3916210Y-11475311D01*
X3973353Y-11475311D02*
X3973353Y-11275311D01*
X3954306Y-11303883D01*
X3935258Y-11322930D01*
X3916210Y-11332454D01*
X4211449Y-11275311D02*
X4116210Y-11275311D01*
X4106687Y-11370549D01*
X4116210Y-11361025D01*
X4135258Y-11351502D01*
X4182877Y-11351502D01*
X4201925Y-11361025D01*
X4211449Y-11370549D01*
X4220972Y-11389597D01*
X4220972Y-11437216D01*
X4211449Y-11456263D01*
X4201925Y-11465787D01*
X4182877Y-11475311D01*
X4135258Y-11475311D01*
X4116210Y-11465787D01*
X4106687Y-11456263D01*
X4287639Y-11275311D02*
X4420972Y-11275311D01*
X4335258Y-11475311D01*
X4487639Y-11275311D02*
X4487639Y-11313406D01*
X4563829Y-11275311D02*
X4563829Y-11313406D01*
X4859068Y-11551502D02*
X4849544Y-11541978D01*
X4830496Y-11513406D01*
X4820972Y-11494359D01*
X4811449Y-11465787D01*
X4801925Y-11418168D01*
X4801925Y-11380073D01*
X4811449Y-11332454D01*
X4820972Y-11303883D01*
X4830496Y-11284835D01*
X4849544Y-11256263D01*
X4859068Y-11246740D01*
X5040020Y-11475311D02*
X4925734Y-11475311D01*
X4982877Y-11475311D02*
X4982877Y-11275311D01*
X4963829Y-11303883D01*
X4944782Y-11322930D01*
X4925734Y-11332454D01*
X5163829Y-11275311D02*
X5182877Y-11275311D01*
X5201925Y-11284835D01*
X5211449Y-11294359D01*
X5220972Y-11313406D01*
X5230496Y-11351502D01*
X5230496Y-11399121D01*
X5220972Y-11437216D01*
X5211449Y-11456263D01*
X5201925Y-11465787D01*
X5182877Y-11475311D01*
X5163829Y-11475311D01*
X5144782Y-11465787D01*
X5135258Y-11456263D01*
X5125734Y-11437216D01*
X5116210Y-11399121D01*
X5116210Y-11351502D01*
X5125734Y-11313406D01*
X5135258Y-11294359D01*
X5144782Y-11284835D01*
X5163829Y-11275311D01*
X5344782Y-11361025D02*
X5325734Y-11351502D01*
X5316210Y-11341978D01*
X5306687Y-11322930D01*
X5306687Y-11313406D01*
X5316210Y-11294359D01*
X5325734Y-11284835D01*
X5344782Y-11275311D01*
X5382877Y-11275311D01*
X5401925Y-11284835D01*
X5411449Y-11294359D01*
X5420972Y-11313406D01*
X5420972Y-11322930D01*
X5411449Y-11341978D01*
X5401925Y-11351502D01*
X5382877Y-11361025D01*
X5344782Y-11361025D01*
X5325734Y-11370549D01*
X5316210Y-11380073D01*
X5306687Y-11399121D01*
X5306687Y-11437216D01*
X5316210Y-11456263D01*
X5325734Y-11465787D01*
X5344782Y-11475311D01*
X5382877Y-11475311D01*
X5401925Y-11465787D01*
X5411449Y-11456263D01*
X5420972Y-11437216D01*
X5420972Y-11399121D01*
X5411449Y-11380073D01*
X5401925Y-11370549D01*
X5382877Y-11361025D01*
X5659067Y-11475311D02*
X5659067Y-11275311D01*
X5744782Y-11475311D02*
X5744782Y-11370549D01*
X5735258Y-11351502D01*
X5716210Y-11341978D01*
X5687639Y-11341978D01*
X5668591Y-11351502D01*
X5659067Y-11361025D01*
X5868591Y-11475311D02*
X5849544Y-11465787D01*
X5840020Y-11456263D01*
X5830496Y-11437216D01*
X5830496Y-11380073D01*
X5840020Y-11361025D01*
X5849544Y-11351502D01*
X5868591Y-11341978D01*
X5897163Y-11341978D01*
X5916210Y-11351502D01*
X5925734Y-11361025D01*
X5935258Y-11380073D01*
X5935258Y-11437216D01*
X5925734Y-11456263D01*
X5916210Y-11465787D01*
X5897163Y-11475311D01*
X5868591Y-11475311D01*
X6049544Y-11475311D02*
X6030496Y-11465787D01*
X6020972Y-11446740D01*
X6020972Y-11275311D01*
X6201925Y-11465787D02*
X6182877Y-11475311D01*
X6144782Y-11475311D01*
X6125734Y-11465787D01*
X6116210Y-11446740D01*
X6116210Y-11370549D01*
X6125734Y-11351502D01*
X6144782Y-11341978D01*
X6182877Y-11341978D01*
X6201925Y-11351502D01*
X6211448Y-11370549D01*
X6211448Y-11389597D01*
X6116210Y-11408644D01*
X6287639Y-11465787D02*
X6306687Y-11475311D01*
X6344782Y-11475311D01*
X6363829Y-11465787D01*
X6373353Y-11446740D01*
X6373353Y-11437216D01*
X6363829Y-11418168D01*
X6344782Y-11408644D01*
X6316210Y-11408644D01*
X6297163Y-11399121D01*
X6287639Y-11380073D01*
X6287639Y-11370549D01*
X6297163Y-11351502D01*
X6316210Y-11341978D01*
X6344782Y-11341978D01*
X6363829Y-11351502D01*
X6440020Y-11551502D02*
X6449544Y-11541978D01*
X6468591Y-11513406D01*
X6478115Y-11494359D01*
X6487639Y-11465787D01*
X6497163Y-11418168D01*
X6497163Y-11380073D01*
X6487639Y-11332454D01*
X6478115Y-11303883D01*
X6468591Y-11284835D01*
X6449544Y-11256263D01*
X6440020Y-11246740D01*
D12*
X1287163Y-11648835D02*
G75*
G03*
X1287163Y-11648835I-30000J0D01*
G01*
D10*
X1582877Y-11539311D02*
X1601925Y-11539311D01*
X1620972Y-11548835D01*
X1630496Y-11558359D01*
X1640020Y-11577406D01*
X1649544Y-11615502D01*
X1649544Y-11663121D01*
X1640020Y-11701216D01*
X1630496Y-11720263D01*
X1620972Y-11729787D01*
X1601925Y-11739311D01*
X1582877Y-11739311D01*
X1563829Y-11729787D01*
X1554306Y-11720263D01*
X1544782Y-11701216D01*
X1535258Y-11663121D01*
X1535258Y-11615502D01*
X1544782Y-11577406D01*
X1554306Y-11558359D01*
X1563829Y-11548835D01*
X1582877Y-11539311D01*
X1735258Y-11720263D02*
X1744782Y-11729787D01*
X1735258Y-11739311D01*
X1725734Y-11729787D01*
X1735258Y-11720263D01*
X1735258Y-11739311D01*
X1916210Y-11539311D02*
X1878115Y-11539311D01*
X1859067Y-11548835D01*
X1849544Y-11558359D01*
X1830496Y-11586930D01*
X1820972Y-11625025D01*
X1820972Y-11701216D01*
X1830496Y-11720263D01*
X1840020Y-11729787D01*
X1859067Y-11739311D01*
X1897163Y-11739311D01*
X1916210Y-11729787D01*
X1925734Y-11720263D01*
X1935258Y-11701216D01*
X1935258Y-11653597D01*
X1925734Y-11634549D01*
X1916210Y-11625025D01*
X1897163Y-11615502D01*
X1859067Y-11615502D01*
X1840020Y-11625025D01*
X1830496Y-11634549D01*
X1820972Y-11653597D01*
X2059067Y-11539311D02*
X2078115Y-11539311D01*
X2097163Y-11548835D01*
X2106687Y-11558359D01*
X2116210Y-11577406D01*
X2125734Y-11615502D01*
X2125734Y-11663121D01*
X2116210Y-11701216D01*
X2106687Y-11720263D01*
X2097163Y-11729787D01*
X2078115Y-11739311D01*
X2059067Y-11739311D01*
X2040020Y-11729787D01*
X2030496Y-11720263D01*
X2020972Y-11701216D01*
X2011448Y-11663121D01*
X2011448Y-11615502D01*
X2020972Y-11577406D01*
X2030496Y-11558359D01*
X2040020Y-11548835D01*
X2059067Y-11539311D01*
X2249544Y-11539311D02*
X2268591Y-11539311D01*
X2287639Y-11548835D01*
X2297163Y-11558359D01*
X2306687Y-11577406D01*
X2316210Y-11615502D01*
X2316210Y-11663121D01*
X2306687Y-11701216D01*
X2297163Y-11720263D01*
X2287639Y-11729787D01*
X2268591Y-11739311D01*
X2249544Y-11739311D01*
X2230496Y-11729787D01*
X2220972Y-11720263D01*
X2211449Y-11701216D01*
X2201925Y-11663121D01*
X2201925Y-11615502D01*
X2211449Y-11577406D01*
X2220972Y-11558359D01*
X2230496Y-11548835D01*
X2249544Y-11539311D01*
X2401925Y-11739311D02*
X2401925Y-11605978D01*
X2401925Y-11625025D02*
X2411449Y-11615502D01*
X2430496Y-11605978D01*
X2459068Y-11605978D01*
X2478115Y-11615502D01*
X2487639Y-11634549D01*
X2487639Y-11739311D01*
X2487639Y-11634549D02*
X2497163Y-11615502D01*
X2516210Y-11605978D01*
X2544782Y-11605978D01*
X2563829Y-11615502D01*
X2573353Y-11634549D01*
X2573353Y-11739311D01*
X2668591Y-11739311D02*
X2668591Y-11605978D01*
X2668591Y-11625025D02*
X2678115Y-11615502D01*
X2697163Y-11605978D01*
X2725734Y-11605978D01*
X2744782Y-11615502D01*
X2754306Y-11634549D01*
X2754306Y-11739311D01*
X2754306Y-11634549D02*
X2763829Y-11615502D01*
X2782877Y-11605978D01*
X2811448Y-11605978D01*
X2830496Y-11615502D01*
X2840020Y-11634549D01*
X2840020Y-11739311D01*
X3230496Y-11529787D02*
X3059067Y-11786930D01*
X3487639Y-11539311D02*
X3506687Y-11539311D01*
X3525734Y-11548835D01*
X3535258Y-11558359D01*
X3544782Y-11577406D01*
X3554306Y-11615502D01*
X3554306Y-11663121D01*
X3544782Y-11701216D01*
X3535258Y-11720263D01*
X3525734Y-11729787D01*
X3506687Y-11739311D01*
X3487639Y-11739311D01*
X3468591Y-11729787D01*
X3459067Y-11720263D01*
X3449544Y-11701216D01*
X3440020Y-11663121D01*
X3440020Y-11615502D01*
X3449544Y-11577406D01*
X3459067Y-11558359D01*
X3468591Y-11548835D01*
X3487639Y-11539311D01*
X3640020Y-11720263D02*
X3649544Y-11729787D01*
X3640020Y-11739311D01*
X3630496Y-11729787D01*
X3640020Y-11720263D01*
X3640020Y-11739311D01*
X3773353Y-11539311D02*
X3792401Y-11539311D01*
X3811448Y-11548835D01*
X3820972Y-11558359D01*
X3830496Y-11577406D01*
X3840020Y-11615502D01*
X3840020Y-11663121D01*
X3830496Y-11701216D01*
X3820972Y-11720263D01*
X3811448Y-11729787D01*
X3792401Y-11739311D01*
X3773353Y-11739311D01*
X3754306Y-11729787D01*
X3744782Y-11720263D01*
X3735258Y-11701216D01*
X3725734Y-11663121D01*
X3725734Y-11615502D01*
X3735258Y-11577406D01*
X3744782Y-11558359D01*
X3754306Y-11548835D01*
X3773353Y-11539311D01*
X3916210Y-11558359D02*
X3925734Y-11548835D01*
X3944782Y-11539311D01*
X3992401Y-11539311D01*
X4011448Y-11548835D01*
X4020972Y-11558359D01*
X4030496Y-11577406D01*
X4030496Y-11596454D01*
X4020972Y-11625025D01*
X3906687Y-11739311D01*
X4030496Y-11739311D01*
X4097163Y-11539311D02*
X4220972Y-11539311D01*
X4154306Y-11615502D01*
X4182877Y-11615502D01*
X4201925Y-11625025D01*
X4211449Y-11634549D01*
X4220972Y-11653597D01*
X4220972Y-11701216D01*
X4211449Y-11720263D01*
X4201925Y-11729787D01*
X4182877Y-11739311D01*
X4125734Y-11739311D01*
X4106687Y-11729787D01*
X4097163Y-11720263D01*
X4392401Y-11539311D02*
X4354306Y-11539311D01*
X4335258Y-11548835D01*
X4325734Y-11558359D01*
X4306687Y-11586930D01*
X4297163Y-11625025D01*
X4297163Y-11701216D01*
X4306687Y-11720263D01*
X4316210Y-11729787D01*
X4335258Y-11739311D01*
X4373353Y-11739311D01*
X4392401Y-11729787D01*
X4401925Y-11720263D01*
X4411449Y-11701216D01*
X4411449Y-11653597D01*
X4401925Y-11634549D01*
X4392401Y-11625025D01*
X4373353Y-11615502D01*
X4335258Y-11615502D01*
X4316210Y-11625025D01*
X4306687Y-11634549D01*
X4297163Y-11653597D01*
X4487639Y-11539311D02*
X4487639Y-11577406D01*
X4563829Y-11539311D02*
X4563829Y-11577406D01*
X4859068Y-11815502D02*
X4849544Y-11805978D01*
X4830496Y-11777406D01*
X4820972Y-11758359D01*
X4811449Y-11729787D01*
X4801925Y-11682168D01*
X4801925Y-11644073D01*
X4811449Y-11596454D01*
X4820972Y-11567883D01*
X4830496Y-11548835D01*
X4849544Y-11520263D01*
X4859068Y-11510740D01*
X4973353Y-11539311D02*
X4992401Y-11539311D01*
X5011449Y-11548835D01*
X5020972Y-11558359D01*
X5030496Y-11577406D01*
X5040020Y-11615502D01*
X5040020Y-11663121D01*
X5030496Y-11701216D01*
X5020972Y-11720263D01*
X5011449Y-11729787D01*
X4992401Y-11739311D01*
X4973353Y-11739311D01*
X4954306Y-11729787D01*
X4944782Y-11720263D01*
X4935258Y-11701216D01*
X4925734Y-11663121D01*
X4925734Y-11615502D01*
X4935258Y-11577406D01*
X4944782Y-11558359D01*
X4954306Y-11548835D01*
X4973353Y-11539311D01*
X5278115Y-11739311D02*
X5278115Y-11539311D01*
X5363829Y-11739311D02*
X5363829Y-11634549D01*
X5354306Y-11615502D01*
X5335258Y-11605978D01*
X5306687Y-11605978D01*
X5287639Y-11615502D01*
X5278115Y-11625025D01*
X5487639Y-11739311D02*
X5468591Y-11729787D01*
X5459068Y-11720263D01*
X5449544Y-11701216D01*
X5449544Y-11644073D01*
X5459068Y-11625025D01*
X5468591Y-11615502D01*
X5487639Y-11605978D01*
X5516210Y-11605978D01*
X5535258Y-11615502D01*
X5544782Y-11625025D01*
X5554306Y-11644073D01*
X5554306Y-11701216D01*
X5544782Y-11720263D01*
X5535258Y-11729787D01*
X5516210Y-11739311D01*
X5487639Y-11739311D01*
X5668591Y-11739311D02*
X5649544Y-11729787D01*
X5640020Y-11710740D01*
X5640020Y-11539311D01*
X5820972Y-11729787D02*
X5801925Y-11739311D01*
X5763829Y-11739311D01*
X5744782Y-11729787D01*
X5735258Y-11710740D01*
X5735258Y-11634549D01*
X5744782Y-11615502D01*
X5763829Y-11605978D01*
X5801925Y-11605978D01*
X5820972Y-11615502D01*
X5830496Y-11634549D01*
X5830496Y-11653597D01*
X5735258Y-11672644D01*
X5906687Y-11729787D02*
X5925734Y-11739311D01*
X5963829Y-11739311D01*
X5982877Y-11729787D01*
X5992401Y-11710740D01*
X5992401Y-11701216D01*
X5982877Y-11682168D01*
X5963829Y-11672644D01*
X5935258Y-11672644D01*
X5916210Y-11663121D01*
X5906687Y-11644073D01*
X5906687Y-11634549D01*
X5916210Y-11615502D01*
X5935258Y-11605978D01*
X5963829Y-11605978D01*
X5982877Y-11615502D01*
X6230496Y-11663121D02*
X6382877Y-11663121D01*
X6306687Y-11739311D02*
X6306687Y-11586930D01*
X6716210Y-11605978D02*
X6716210Y-11739311D01*
X6668591Y-11529787D02*
X6620972Y-11672644D01*
X6744782Y-11672644D01*
X6963829Y-11729787D02*
X6982877Y-11739311D01*
X7020972Y-11739311D01*
X7040020Y-11729787D01*
X7049544Y-11710740D01*
X7049544Y-11701216D01*
X7040020Y-11682168D01*
X7020972Y-11672644D01*
X6992401Y-11672644D01*
X6973353Y-11663121D01*
X6963829Y-11644073D01*
X6963829Y-11634549D01*
X6973353Y-11615502D01*
X6992401Y-11605978D01*
X7020972Y-11605978D01*
X7040020Y-11615502D01*
X7163829Y-11739311D02*
X7144782Y-11729787D01*
X7135258Y-11710740D01*
X7135258Y-11539311D01*
X7268591Y-11739311D02*
X7249544Y-11729787D01*
X7240020Y-11720263D01*
X7230496Y-11701216D01*
X7230496Y-11644073D01*
X7240020Y-11625025D01*
X7249544Y-11615502D01*
X7268591Y-11605978D01*
X7297163Y-11605978D01*
X7316210Y-11615502D01*
X7325734Y-11625025D01*
X7335258Y-11644073D01*
X7335258Y-11701216D01*
X7325734Y-11720263D01*
X7316210Y-11729787D01*
X7297163Y-11739311D01*
X7268591Y-11739311D01*
X7392401Y-11605978D02*
X7468591Y-11605978D01*
X7420972Y-11539311D02*
X7420972Y-11710740D01*
X7430496Y-11729787D01*
X7449544Y-11739311D01*
X7468591Y-11739311D01*
X7525734Y-11729787D02*
X7544782Y-11739311D01*
X7582877Y-11739311D01*
X7601925Y-11729787D01*
X7611448Y-11710740D01*
X7611448Y-11701216D01*
X7601925Y-11682168D01*
X7582877Y-11672644D01*
X7554306Y-11672644D01*
X7535258Y-11663121D01*
X7525734Y-11644073D01*
X7525734Y-11634549D01*
X7535258Y-11615502D01*
X7554306Y-11605978D01*
X7582877Y-11605978D01*
X7601925Y-11615502D01*
X7678115Y-11815502D02*
X7687639Y-11805978D01*
X7706687Y-11777406D01*
X7716210Y-11758359D01*
X7725734Y-11729787D01*
X7735258Y-11682168D01*
X7735258Y-11644073D01*
X7725734Y-11596454D01*
X7716210Y-11567883D01*
X7706687Y-11548835D01*
X7687639Y-11520263D01*
X7678115Y-11510740D01*
D13*
X1236363Y-11862035D02*
X1236363Y-11963635D01*
X1185563Y-11912835D02*
X1287163Y-11912835D01*
D10*
X1649544Y-12003311D02*
X1535258Y-12003311D01*
X1592401Y-12003311D02*
X1592401Y-11803311D01*
X1573353Y-11831883D01*
X1554306Y-11850930D01*
X1535258Y-11860454D01*
X1735258Y-11984263D02*
X1744782Y-11993787D01*
X1735258Y-12003311D01*
X1725734Y-11993787D01*
X1735258Y-11984263D01*
X1735258Y-12003311D01*
X1868591Y-11803311D02*
X1887639Y-11803311D01*
X1906687Y-11812835D01*
X1916210Y-11822359D01*
X1925734Y-11841406D01*
X1935258Y-11879502D01*
X1935258Y-11927121D01*
X1925734Y-11965216D01*
X1916210Y-11984263D01*
X1906687Y-11993787D01*
X1887639Y-12003311D01*
X1868591Y-12003311D01*
X1849544Y-11993787D01*
X1840020Y-11984263D01*
X1830496Y-11965216D01*
X1820972Y-11927121D01*
X1820972Y-11879502D01*
X1830496Y-11841406D01*
X1840020Y-11822359D01*
X1849544Y-11812835D01*
X1868591Y-11803311D01*
X2125734Y-12003311D02*
X2011448Y-12003311D01*
X2068591Y-12003311D02*
X2068591Y-11803311D01*
X2049544Y-11831883D01*
X2030496Y-11850930D01*
X2011448Y-11860454D01*
X2297163Y-11803311D02*
X2259068Y-11803311D01*
X2240020Y-11812835D01*
X2230496Y-11822359D01*
X2211449Y-11850930D01*
X2201925Y-11889025D01*
X2201925Y-11965216D01*
X2211449Y-11984263D01*
X2220972Y-11993787D01*
X2240020Y-12003311D01*
X2278115Y-12003311D01*
X2297163Y-11993787D01*
X2306687Y-11984263D01*
X2316210Y-11965216D01*
X2316210Y-11917597D01*
X2306687Y-11898549D01*
X2297163Y-11889025D01*
X2278115Y-11879502D01*
X2240020Y-11879502D01*
X2220972Y-11889025D01*
X2211449Y-11898549D01*
X2201925Y-11917597D01*
X2401925Y-12003311D02*
X2401925Y-11869978D01*
X2401925Y-11889025D02*
X2411449Y-11879502D01*
X2430496Y-11869978D01*
X2459068Y-11869978D01*
X2478115Y-11879502D01*
X2487639Y-11898549D01*
X2487639Y-12003311D01*
X2487639Y-11898549D02*
X2497163Y-11879502D01*
X2516210Y-11869978D01*
X2544782Y-11869978D01*
X2563829Y-11879502D01*
X2573353Y-11898549D01*
X2573353Y-12003311D01*
X2668591Y-12003311D02*
X2668591Y-11869978D01*
X2668591Y-11889025D02*
X2678115Y-11879502D01*
X2697163Y-11869978D01*
X2725734Y-11869978D01*
X2744782Y-11879502D01*
X2754306Y-11898549D01*
X2754306Y-12003311D01*
X2754306Y-11898549D02*
X2763829Y-11879502D01*
X2782877Y-11869978D01*
X2811448Y-11869978D01*
X2830496Y-11879502D01*
X2840020Y-11898549D01*
X2840020Y-12003311D01*
X3230496Y-11793787D02*
X3059067Y-12050930D01*
X3487639Y-11803311D02*
X3506687Y-11803311D01*
X3525734Y-11812835D01*
X3535258Y-11822359D01*
X3544782Y-11841406D01*
X3554306Y-11879502D01*
X3554306Y-11927121D01*
X3544782Y-11965216D01*
X3535258Y-11984263D01*
X3525734Y-11993787D01*
X3506687Y-12003311D01*
X3487639Y-12003311D01*
X3468591Y-11993787D01*
X3459067Y-11984263D01*
X3449544Y-11965216D01*
X3440020Y-11927121D01*
X3440020Y-11879502D01*
X3449544Y-11841406D01*
X3459067Y-11822359D01*
X3468591Y-11812835D01*
X3487639Y-11803311D01*
X3640020Y-11984263D02*
X3649544Y-11993787D01*
X3640020Y-12003311D01*
X3630496Y-11993787D01*
X3640020Y-11984263D01*
X3640020Y-12003311D01*
X3773353Y-11803311D02*
X3792401Y-11803311D01*
X3811448Y-11812835D01*
X3820972Y-11822359D01*
X3830496Y-11841406D01*
X3840020Y-11879502D01*
X3840020Y-11927121D01*
X3830496Y-11965216D01*
X3820972Y-11984263D01*
X3811448Y-11993787D01*
X3792401Y-12003311D01*
X3773353Y-12003311D01*
X3754306Y-11993787D01*
X3744782Y-11984263D01*
X3735258Y-11965216D01*
X3725734Y-11927121D01*
X3725734Y-11879502D01*
X3735258Y-11841406D01*
X3744782Y-11822359D01*
X3754306Y-11812835D01*
X3773353Y-11803311D01*
X4011448Y-11869978D02*
X4011448Y-12003311D01*
X3963829Y-11793787D02*
X3916210Y-11936644D01*
X4040020Y-11936644D01*
X4154306Y-11803311D02*
X4173353Y-11803311D01*
X4192401Y-11812835D01*
X4201925Y-11822359D01*
X4211449Y-11841406D01*
X4220972Y-11879502D01*
X4220972Y-11927121D01*
X4211449Y-11965216D01*
X4201925Y-11984263D01*
X4192401Y-11993787D01*
X4173353Y-12003311D01*
X4154306Y-12003311D01*
X4135258Y-11993787D01*
X4125734Y-11984263D01*
X4116210Y-11965216D01*
X4106687Y-11927121D01*
X4106687Y-11879502D01*
X4116210Y-11841406D01*
X4125734Y-11822359D01*
X4135258Y-11812835D01*
X4154306Y-11803311D01*
X4344782Y-11803311D02*
X4363829Y-11803311D01*
X4382877Y-11812835D01*
X4392401Y-11822359D01*
X4401925Y-11841406D01*
X4411449Y-11879502D01*
X4411449Y-11927121D01*
X4401925Y-11965216D01*
X4392401Y-11984263D01*
X4382877Y-11993787D01*
X4363829Y-12003311D01*
X4344782Y-12003311D01*
X4325734Y-11993787D01*
X4316210Y-11984263D01*
X4306687Y-11965216D01*
X4297163Y-11927121D01*
X4297163Y-11879502D01*
X4306687Y-11841406D01*
X4316210Y-11822359D01*
X4325734Y-11812835D01*
X4344782Y-11803311D01*
X4487639Y-11803311D02*
X4487639Y-11841406D01*
X4563829Y-11803311D02*
X4563829Y-11841406D01*
X4859068Y-12079502D02*
X4849544Y-12069978D01*
X4830496Y-12041406D01*
X4820972Y-12022359D01*
X4811449Y-11993787D01*
X4801925Y-11946168D01*
X4801925Y-11908073D01*
X4811449Y-11860454D01*
X4820972Y-11831883D01*
X4830496Y-11812835D01*
X4849544Y-11784263D01*
X4859068Y-11774740D01*
X5020972Y-11803311D02*
X4982877Y-11803311D01*
X4963829Y-11812835D01*
X4954306Y-11822359D01*
X4935258Y-11850930D01*
X4925734Y-11889025D01*
X4925734Y-11965216D01*
X4935258Y-11984263D01*
X4944782Y-11993787D01*
X4963829Y-12003311D01*
X5001925Y-12003311D01*
X5020972Y-11993787D01*
X5030496Y-11984263D01*
X5040020Y-11965216D01*
X5040020Y-11917597D01*
X5030496Y-11898549D01*
X5020972Y-11889025D01*
X5001925Y-11879502D01*
X4963829Y-11879502D01*
X4944782Y-11889025D01*
X4935258Y-11898549D01*
X4925734Y-11917597D01*
X5278115Y-12003311D02*
X5278115Y-11803311D01*
X5363829Y-12003311D02*
X5363829Y-11898549D01*
X5354306Y-11879502D01*
X5335258Y-11869978D01*
X5306687Y-11869978D01*
X5287639Y-11879502D01*
X5278115Y-11889025D01*
X5487639Y-12003311D02*
X5468591Y-11993787D01*
X5459068Y-11984263D01*
X5449544Y-11965216D01*
X5449544Y-11908073D01*
X5459068Y-11889025D01*
X5468591Y-11879502D01*
X5487639Y-11869978D01*
X5516210Y-11869978D01*
X5535258Y-11879502D01*
X5544782Y-11889025D01*
X5554306Y-11908073D01*
X5554306Y-11965216D01*
X5544782Y-11984263D01*
X5535258Y-11993787D01*
X5516210Y-12003311D01*
X5487639Y-12003311D01*
X5668591Y-12003311D02*
X5649544Y-11993787D01*
X5640020Y-11974740D01*
X5640020Y-11803311D01*
X5820972Y-11993787D02*
X5801925Y-12003311D01*
X5763829Y-12003311D01*
X5744782Y-11993787D01*
X5735258Y-11974740D01*
X5735258Y-11898549D01*
X5744782Y-11879502D01*
X5763829Y-11869978D01*
X5801925Y-11869978D01*
X5820972Y-11879502D01*
X5830496Y-11898549D01*
X5830496Y-11917597D01*
X5735258Y-11936644D01*
X5906687Y-11993787D02*
X5925734Y-12003311D01*
X5963829Y-12003311D01*
X5982877Y-11993787D01*
X5992401Y-11974740D01*
X5992401Y-11965216D01*
X5982877Y-11946168D01*
X5963829Y-11936644D01*
X5935258Y-11936644D01*
X5916210Y-11927121D01*
X5906687Y-11908073D01*
X5906687Y-11898549D01*
X5916210Y-11879502D01*
X5935258Y-11869978D01*
X5963829Y-11869978D01*
X5982877Y-11879502D01*
X6059067Y-12079502D02*
X6068591Y-12069978D01*
X6087639Y-12041406D01*
X6097163Y-12022359D01*
X6106687Y-11993787D01*
X6116210Y-11946168D01*
X6116210Y-11908073D01*
X6106687Y-11860454D01*
X6097163Y-11831883D01*
X6087639Y-11812835D01*
X6068591Y-11784263D01*
X6059067Y-11774740D01*
X1257874Y-12247546D02*
X1257874Y-12106124D01*
X1116451Y-12106124D01*
X1116451Y-12247546D01*
X1257874Y-12247546D01*
X1535258Y-12086359D02*
X1544782Y-12076835D01*
X1563829Y-12067311D01*
X1611448Y-12067311D01*
X1630496Y-12076835D01*
X1640020Y-12086359D01*
X1649544Y-12105406D01*
X1649544Y-12124454D01*
X1640020Y-12153025D01*
X1525734Y-12267311D01*
X1649544Y-12267311D01*
X1735258Y-12248263D02*
X1744782Y-12257787D01*
X1735258Y-12267311D01*
X1725734Y-12257787D01*
X1735258Y-12248263D01*
X1735258Y-12267311D01*
X1820972Y-12086359D02*
X1830496Y-12076835D01*
X1849544Y-12067311D01*
X1897163Y-12067311D01*
X1916210Y-12076835D01*
X1925734Y-12086359D01*
X1935258Y-12105406D01*
X1935258Y-12124454D01*
X1925734Y-12153025D01*
X1811448Y-12267311D01*
X1935258Y-12267311D01*
X2059067Y-12067311D02*
X2078115Y-12067311D01*
X2097163Y-12076835D01*
X2106687Y-12086359D01*
X2116210Y-12105406D01*
X2125734Y-12143502D01*
X2125734Y-12191121D01*
X2116210Y-12229216D01*
X2106687Y-12248263D01*
X2097163Y-12257787D01*
X2078115Y-12267311D01*
X2059067Y-12267311D01*
X2040020Y-12257787D01*
X2030496Y-12248263D01*
X2020972Y-12229216D01*
X2011448Y-12191121D01*
X2011448Y-12143502D01*
X2020972Y-12105406D01*
X2030496Y-12086359D01*
X2040020Y-12076835D01*
X2059067Y-12067311D01*
X2249544Y-12067311D02*
X2268591Y-12067311D01*
X2287639Y-12076835D01*
X2297163Y-12086359D01*
X2306687Y-12105406D01*
X2316210Y-12143502D01*
X2316210Y-12191121D01*
X2306687Y-12229216D01*
X2297163Y-12248263D01*
X2287639Y-12257787D01*
X2268591Y-12267311D01*
X2249544Y-12267311D01*
X2230496Y-12257787D01*
X2220972Y-12248263D01*
X2211449Y-12229216D01*
X2201925Y-12191121D01*
X2201925Y-12143502D01*
X2211449Y-12105406D01*
X2220972Y-12086359D01*
X2230496Y-12076835D01*
X2249544Y-12067311D01*
X2401925Y-12267311D02*
X2401925Y-12133978D01*
X2401925Y-12153025D02*
X2411449Y-12143502D01*
X2430496Y-12133978D01*
X2459068Y-12133978D01*
X2478115Y-12143502D01*
X2487639Y-12162549D01*
X2487639Y-12267311D01*
X2487639Y-12162549D02*
X2497163Y-12143502D01*
X2516210Y-12133978D01*
X2544782Y-12133978D01*
X2563829Y-12143502D01*
X2573353Y-12162549D01*
X2573353Y-12267311D01*
X2668591Y-12267311D02*
X2668591Y-12133978D01*
X2668591Y-12153025D02*
X2678115Y-12143502D01*
X2697163Y-12133978D01*
X2725734Y-12133978D01*
X2744782Y-12143502D01*
X2754306Y-12162549D01*
X2754306Y-12267311D01*
X2754306Y-12162549D02*
X2763829Y-12143502D01*
X2782877Y-12133978D01*
X2811448Y-12133978D01*
X2830496Y-12143502D01*
X2840020Y-12162549D01*
X2840020Y-12267311D01*
X3230496Y-12057787D02*
X3059067Y-12314930D01*
X3487639Y-12067311D02*
X3506687Y-12067311D01*
X3525734Y-12076835D01*
X3535258Y-12086359D01*
X3544782Y-12105406D01*
X3554306Y-12143502D01*
X3554306Y-12191121D01*
X3544782Y-12229216D01*
X3535258Y-12248263D01*
X3525734Y-12257787D01*
X3506687Y-12267311D01*
X3487639Y-12267311D01*
X3468591Y-12257787D01*
X3459067Y-12248263D01*
X3449544Y-12229216D01*
X3440020Y-12191121D01*
X3440020Y-12143502D01*
X3449544Y-12105406D01*
X3459067Y-12086359D01*
X3468591Y-12076835D01*
X3487639Y-12067311D01*
X3640020Y-12248263D02*
X3649544Y-12257787D01*
X3640020Y-12267311D01*
X3630496Y-12257787D01*
X3640020Y-12248263D01*
X3640020Y-12267311D01*
X3773353Y-12067311D02*
X3792401Y-12067311D01*
X3811448Y-12076835D01*
X3820972Y-12086359D01*
X3830496Y-12105406D01*
X3840020Y-12143502D01*
X3840020Y-12191121D01*
X3830496Y-12229216D01*
X3820972Y-12248263D01*
X3811448Y-12257787D01*
X3792401Y-12267311D01*
X3773353Y-12267311D01*
X3754306Y-12257787D01*
X3744782Y-12248263D01*
X3735258Y-12229216D01*
X3725734Y-12191121D01*
X3725734Y-12143502D01*
X3735258Y-12105406D01*
X3744782Y-12086359D01*
X3754306Y-12076835D01*
X3773353Y-12067311D01*
X3954306Y-12153025D02*
X3935258Y-12143502D01*
X3925734Y-12133978D01*
X3916210Y-12114930D01*
X3916210Y-12105406D01*
X3925734Y-12086359D01*
X3935258Y-12076835D01*
X3954306Y-12067311D01*
X3992401Y-12067311D01*
X4011448Y-12076835D01*
X4020972Y-12086359D01*
X4030496Y-12105406D01*
X4030496Y-12114930D01*
X4020972Y-12133978D01*
X4011448Y-12143502D01*
X3992401Y-12153025D01*
X3954306Y-12153025D01*
X3935258Y-12162549D01*
X3925734Y-12172073D01*
X3916210Y-12191121D01*
X3916210Y-12229216D01*
X3925734Y-12248263D01*
X3935258Y-12257787D01*
X3954306Y-12267311D01*
X3992401Y-12267311D01*
X4011448Y-12257787D01*
X4020972Y-12248263D01*
X4030496Y-12229216D01*
X4030496Y-12191121D01*
X4020972Y-12172073D01*
X4011448Y-12162549D01*
X3992401Y-12153025D01*
X4201925Y-12067311D02*
X4163829Y-12067311D01*
X4144782Y-12076835D01*
X4135258Y-12086359D01*
X4116210Y-12114930D01*
X4106687Y-12153025D01*
X4106687Y-12229216D01*
X4116210Y-12248263D01*
X4125734Y-12257787D01*
X4144782Y-12267311D01*
X4182877Y-12267311D01*
X4201925Y-12257787D01*
X4211449Y-12248263D01*
X4220972Y-12229216D01*
X4220972Y-12181597D01*
X4211449Y-12162549D01*
X4201925Y-12153025D01*
X4182877Y-12143502D01*
X4144782Y-12143502D01*
X4125734Y-12153025D01*
X4116210Y-12162549D01*
X4106687Y-12181597D01*
X4392401Y-12067311D02*
X4354306Y-12067311D01*
X4335258Y-12076835D01*
X4325734Y-12086359D01*
X4306687Y-12114930D01*
X4297163Y-12153025D01*
X4297163Y-12229216D01*
X4306687Y-12248263D01*
X4316210Y-12257787D01*
X4335258Y-12267311D01*
X4373353Y-12267311D01*
X4392401Y-12257787D01*
X4401925Y-12248263D01*
X4411449Y-12229216D01*
X4411449Y-12181597D01*
X4401925Y-12162549D01*
X4392401Y-12153025D01*
X4373353Y-12143502D01*
X4335258Y-12143502D01*
X4316210Y-12153025D01*
X4306687Y-12162549D01*
X4297163Y-12181597D01*
X4487639Y-12067311D02*
X4487639Y-12105406D01*
X4563829Y-12067311D02*
X4563829Y-12105406D01*
X4859068Y-12343502D02*
X4849544Y-12333978D01*
X4830496Y-12305406D01*
X4820972Y-12286359D01*
X4811449Y-12257787D01*
X4801925Y-12210168D01*
X4801925Y-12172073D01*
X4811449Y-12124454D01*
X4820972Y-12095883D01*
X4830496Y-12076835D01*
X4849544Y-12048263D01*
X4859068Y-12038740D01*
X5020972Y-12133978D02*
X5020972Y-12267311D01*
X4973353Y-12057787D02*
X4925734Y-12200644D01*
X5049544Y-12200644D01*
X5278115Y-12267311D02*
X5278115Y-12067311D01*
X5363829Y-12267311D02*
X5363829Y-12162549D01*
X5354306Y-12143502D01*
X5335258Y-12133978D01*
X5306687Y-12133978D01*
X5287639Y-12143502D01*
X5278115Y-12153025D01*
X5487639Y-12267311D02*
X5468591Y-12257787D01*
X5459068Y-12248263D01*
X5449544Y-12229216D01*
X5449544Y-12172073D01*
X5459068Y-12153025D01*
X5468591Y-12143502D01*
X5487639Y-12133978D01*
X5516210Y-12133978D01*
X5535258Y-12143502D01*
X5544782Y-12153025D01*
X5554306Y-12172073D01*
X5554306Y-12229216D01*
X5544782Y-12248263D01*
X5535258Y-12257787D01*
X5516210Y-12267311D01*
X5487639Y-12267311D01*
X5668591Y-12267311D02*
X5649544Y-12257787D01*
X5640020Y-12238740D01*
X5640020Y-12067311D01*
X5820972Y-12257787D02*
X5801925Y-12267311D01*
X5763829Y-12267311D01*
X5744782Y-12257787D01*
X5735258Y-12238740D01*
X5735258Y-12162549D01*
X5744782Y-12143502D01*
X5763829Y-12133978D01*
X5801925Y-12133978D01*
X5820972Y-12143502D01*
X5830496Y-12162549D01*
X5830496Y-12181597D01*
X5735258Y-12200644D01*
X5906687Y-12257787D02*
X5925734Y-12267311D01*
X5963829Y-12267311D01*
X5982877Y-12257787D01*
X5992401Y-12238740D01*
X5992401Y-12229216D01*
X5982877Y-12210168D01*
X5963829Y-12200644D01*
X5935258Y-12200644D01*
X5916210Y-12191121D01*
X5906687Y-12172073D01*
X5906687Y-12162549D01*
X5916210Y-12143502D01*
X5935258Y-12133978D01*
X5963829Y-12133978D01*
X5982877Y-12143502D01*
X6059067Y-12343502D02*
X6068591Y-12333978D01*
X6087639Y-12305406D01*
X6097163Y-12286359D01*
X6106687Y-12257787D01*
X6116210Y-12210168D01*
X6116210Y-12172073D01*
X6106687Y-12124454D01*
X6097163Y-12095883D01*
X6087639Y-12076835D01*
X6068591Y-12048263D01*
X6059067Y-12038740D01*
X1187163Y-12596835D02*
X1287163Y-12496835D01*
X1187163Y-12396835D01*
X1087163Y-12496835D01*
X1187163Y-12596835D01*
X1525734Y-12387311D02*
X1649544Y-12387311D01*
X1582877Y-12463502D01*
X1611448Y-12463502D01*
X1630496Y-12473025D01*
X1640020Y-12482549D01*
X1649544Y-12501597D01*
X1649544Y-12549216D01*
X1640020Y-12568263D01*
X1630496Y-12577787D01*
X1611448Y-12587311D01*
X1554306Y-12587311D01*
X1535258Y-12577787D01*
X1525734Y-12568263D01*
X1735258Y-12568263D02*
X1744782Y-12577787D01*
X1735258Y-12587311D01*
X1725734Y-12577787D01*
X1735258Y-12568263D01*
X1735258Y-12587311D01*
X1868591Y-12387311D02*
X1887639Y-12387311D01*
X1906687Y-12396835D01*
X1916210Y-12406359D01*
X1925734Y-12425406D01*
X1935258Y-12463502D01*
X1935258Y-12511121D01*
X1925734Y-12549216D01*
X1916210Y-12568263D01*
X1906687Y-12577787D01*
X1887639Y-12587311D01*
X1868591Y-12587311D01*
X1849544Y-12577787D01*
X1840020Y-12568263D01*
X1830496Y-12549216D01*
X1820972Y-12511121D01*
X1820972Y-12463502D01*
X1830496Y-12425406D01*
X1840020Y-12406359D01*
X1849544Y-12396835D01*
X1868591Y-12387311D01*
X2059067Y-12387311D02*
X2078115Y-12387311D01*
X2097163Y-12396835D01*
X2106687Y-12406359D01*
X2116210Y-12425406D01*
X2125734Y-12463502D01*
X2125734Y-12511121D01*
X2116210Y-12549216D01*
X2106687Y-12568263D01*
X2097163Y-12577787D01*
X2078115Y-12587311D01*
X2059067Y-12587311D01*
X2040020Y-12577787D01*
X2030496Y-12568263D01*
X2020972Y-12549216D01*
X2011448Y-12511121D01*
X2011448Y-12463502D01*
X2020972Y-12425406D01*
X2030496Y-12406359D01*
X2040020Y-12396835D01*
X2059067Y-12387311D01*
X2249544Y-12387311D02*
X2268591Y-12387311D01*
X2287639Y-12396835D01*
X2297163Y-12406359D01*
X2306687Y-12425406D01*
X2316210Y-12463502D01*
X2316210Y-12511121D01*
X2306687Y-12549216D01*
X2297163Y-12568263D01*
X2287639Y-12577787D01*
X2268591Y-12587311D01*
X2249544Y-12587311D01*
X2230496Y-12577787D01*
X2220972Y-12568263D01*
X2211449Y-12549216D01*
X2201925Y-12511121D01*
X2201925Y-12463502D01*
X2211449Y-12425406D01*
X2220972Y-12406359D01*
X2230496Y-12396835D01*
X2249544Y-12387311D01*
X2401925Y-12587311D02*
X2401925Y-12453978D01*
X2401925Y-12473025D02*
X2411449Y-12463502D01*
X2430496Y-12453978D01*
X2459068Y-12453978D01*
X2478115Y-12463502D01*
X2487639Y-12482549D01*
X2487639Y-12587311D01*
X2487639Y-12482549D02*
X2497163Y-12463502D01*
X2516210Y-12453978D01*
X2544782Y-12453978D01*
X2563829Y-12463502D01*
X2573353Y-12482549D01*
X2573353Y-12587311D01*
X2668591Y-12587311D02*
X2668591Y-12453978D01*
X2668591Y-12473025D02*
X2678115Y-12463502D01*
X2697163Y-12453978D01*
X2725734Y-12453978D01*
X2744782Y-12463502D01*
X2754306Y-12482549D01*
X2754306Y-12587311D01*
X2754306Y-12482549D02*
X2763829Y-12463502D01*
X2782877Y-12453978D01*
X2811448Y-12453978D01*
X2830496Y-12463502D01*
X2840020Y-12482549D01*
X2840020Y-12587311D01*
X3230496Y-12377787D02*
X3059067Y-12634930D01*
X3487639Y-12387311D02*
X3506687Y-12387311D01*
X3525734Y-12396835D01*
X3535258Y-12406359D01*
X3544782Y-12425406D01*
X3554306Y-12463502D01*
X3554306Y-12511121D01*
X3544782Y-12549216D01*
X3535258Y-12568263D01*
X3525734Y-12577787D01*
X3506687Y-12587311D01*
X3487639Y-12587311D01*
X3468591Y-12577787D01*
X3459067Y-12568263D01*
X3449544Y-12549216D01*
X3440020Y-12511121D01*
X3440020Y-12463502D01*
X3449544Y-12425406D01*
X3459067Y-12406359D01*
X3468591Y-12396835D01*
X3487639Y-12387311D01*
X3640020Y-12568263D02*
X3649544Y-12577787D01*
X3640020Y-12587311D01*
X3630496Y-12577787D01*
X3640020Y-12568263D01*
X3640020Y-12587311D01*
X3840020Y-12587311D02*
X3725734Y-12587311D01*
X3782877Y-12587311D02*
X3782877Y-12387311D01*
X3763829Y-12415883D01*
X3744782Y-12434930D01*
X3725734Y-12444454D01*
X4030496Y-12587311D02*
X3916210Y-12587311D01*
X3973353Y-12587311D02*
X3973353Y-12387311D01*
X3954306Y-12415883D01*
X3935258Y-12434930D01*
X3916210Y-12444454D01*
X4144782Y-12473025D02*
X4125734Y-12463502D01*
X4116210Y-12453978D01*
X4106687Y-12434930D01*
X4106687Y-12425406D01*
X4116210Y-12406359D01*
X4125734Y-12396835D01*
X4144782Y-12387311D01*
X4182877Y-12387311D01*
X4201925Y-12396835D01*
X4211449Y-12406359D01*
X4220972Y-12425406D01*
X4220972Y-12434930D01*
X4211449Y-12453978D01*
X4201925Y-12463502D01*
X4182877Y-12473025D01*
X4144782Y-12473025D01*
X4125734Y-12482549D01*
X4116210Y-12492073D01*
X4106687Y-12511121D01*
X4106687Y-12549216D01*
X4116210Y-12568263D01*
X4125734Y-12577787D01*
X4144782Y-12587311D01*
X4182877Y-12587311D01*
X4201925Y-12577787D01*
X4211449Y-12568263D01*
X4220972Y-12549216D01*
X4220972Y-12511121D01*
X4211449Y-12492073D01*
X4201925Y-12482549D01*
X4182877Y-12473025D01*
X4411449Y-12587311D02*
X4297163Y-12587311D01*
X4354306Y-12587311D02*
X4354306Y-12387311D01*
X4335258Y-12415883D01*
X4316210Y-12434930D01*
X4297163Y-12444454D01*
X4487639Y-12387311D02*
X4487639Y-12425406D01*
X4563829Y-12387311D02*
X4563829Y-12425406D01*
X4859068Y-12663502D02*
X4849544Y-12653978D01*
X4830496Y-12625406D01*
X4820972Y-12606359D01*
X4811449Y-12577787D01*
X4801925Y-12530168D01*
X4801925Y-12492073D01*
X4811449Y-12444454D01*
X4820972Y-12415883D01*
X4830496Y-12396835D01*
X4849544Y-12368263D01*
X4859068Y-12358740D01*
X5040020Y-12587311D02*
X4925734Y-12587311D01*
X4982877Y-12587311D02*
X4982877Y-12387311D01*
X4963829Y-12415883D01*
X4944782Y-12434930D01*
X4925734Y-12444454D01*
X5163829Y-12387311D02*
X5182877Y-12387311D01*
X5201925Y-12396835D01*
X5211449Y-12406359D01*
X5220972Y-12425406D01*
X5230496Y-12463502D01*
X5230496Y-12511121D01*
X5220972Y-12549216D01*
X5211449Y-12568263D01*
X5201925Y-12577787D01*
X5182877Y-12587311D01*
X5163829Y-12587311D01*
X5144782Y-12577787D01*
X5135258Y-12568263D01*
X5125734Y-12549216D01*
X5116210Y-12511121D01*
X5116210Y-12463502D01*
X5125734Y-12425406D01*
X5135258Y-12406359D01*
X5144782Y-12396835D01*
X5163829Y-12387311D01*
X5344782Y-12473025D02*
X5325734Y-12463502D01*
X5316210Y-12453978D01*
X5306687Y-12434930D01*
X5306687Y-12425406D01*
X5316210Y-12406359D01*
X5325734Y-12396835D01*
X5344782Y-12387311D01*
X5382877Y-12387311D01*
X5401925Y-12396835D01*
X5411449Y-12406359D01*
X5420972Y-12425406D01*
X5420972Y-12434930D01*
X5411449Y-12453978D01*
X5401925Y-12463502D01*
X5382877Y-12473025D01*
X5344782Y-12473025D01*
X5325734Y-12482549D01*
X5316210Y-12492073D01*
X5306687Y-12511121D01*
X5306687Y-12549216D01*
X5316210Y-12568263D01*
X5325734Y-12577787D01*
X5344782Y-12587311D01*
X5382877Y-12587311D01*
X5401925Y-12577787D01*
X5411449Y-12568263D01*
X5420972Y-12549216D01*
X5420972Y-12511121D01*
X5411449Y-12492073D01*
X5401925Y-12482549D01*
X5382877Y-12473025D01*
X5659067Y-12587311D02*
X5659067Y-12387311D01*
X5744782Y-12587311D02*
X5744782Y-12482549D01*
X5735258Y-12463502D01*
X5716210Y-12453978D01*
X5687639Y-12453978D01*
X5668591Y-12463502D01*
X5659067Y-12473025D01*
X5868591Y-12587311D02*
X5849544Y-12577787D01*
X5840020Y-12568263D01*
X5830496Y-12549216D01*
X5830496Y-12492073D01*
X5840020Y-12473025D01*
X5849544Y-12463502D01*
X5868591Y-12453978D01*
X5897163Y-12453978D01*
X5916210Y-12463502D01*
X5925734Y-12473025D01*
X5935258Y-12492073D01*
X5935258Y-12549216D01*
X5925734Y-12568263D01*
X5916210Y-12577787D01*
X5897163Y-12587311D01*
X5868591Y-12587311D01*
X6049544Y-12587311D02*
X6030496Y-12577787D01*
X6020972Y-12558740D01*
X6020972Y-12387311D01*
X6201925Y-12577787D02*
X6182877Y-12587311D01*
X6144782Y-12587311D01*
X6125734Y-12577787D01*
X6116210Y-12558740D01*
X6116210Y-12482549D01*
X6125734Y-12463502D01*
X6144782Y-12453978D01*
X6182877Y-12453978D01*
X6201925Y-12463502D01*
X6211448Y-12482549D01*
X6211448Y-12501597D01*
X6116210Y-12520644D01*
X6287639Y-12577787D02*
X6306687Y-12587311D01*
X6344782Y-12587311D01*
X6363829Y-12577787D01*
X6373353Y-12558740D01*
X6373353Y-12549216D01*
X6363829Y-12530168D01*
X6344782Y-12520644D01*
X6316210Y-12520644D01*
X6297163Y-12511121D01*
X6287639Y-12492073D01*
X6287639Y-12482549D01*
X6297163Y-12463502D01*
X6316210Y-12453978D01*
X6344782Y-12453978D01*
X6363829Y-12463502D01*
X6440020Y-12663502D02*
X6449544Y-12653978D01*
X6468591Y-12625406D01*
X6478115Y-12606359D01*
X6487639Y-12577787D01*
X6497163Y-12530168D01*
X6497163Y-12492073D01*
X6487639Y-12444454D01*
X6478115Y-12415883D01*
X6468591Y-12396835D01*
X6449544Y-12368263D01*
X6440020Y-12358740D01*
M02*
