M48
; DRILL file {KiCad (6.0.7)} date Fri Sep 16 03:14:29 2022
; FORMAT={-:-/ absolute / inch / decimal}
; #@! TF.CreationDate,2022-09-16T03:14:29+03:00
; #@! TF.GenerationSoftware,Kicad,Pcbnew,(6.0.7)
; #@! TF.FileFunction,NonPlated,1,2,NPTH
FMAT,2
INCH
; #@! TA.AperFunction,NonPlated,NPTH,ComponentDrill
T1C0.0256
; #@! TA.AperFunction,NonPlated,NPTH,ComponentDrill
T2C0.0689
; #@! TA.AperFunction,NonPlated,NPTH,ComponentDrill
T3C0.1570
%
G90
G05
T1
X6.272Y-1.0314
X6.4996Y-1.0314
T2
X1.0294Y-3.6086
X1.2169Y-2.8586
X1.3107Y-2.1086
X1.4294Y-3.6086
X1.4982Y-1.3586
X1.6169Y-2.8586
X1.7107Y-2.1086
X1.8982Y-1.3586
X2.2482Y-1.4339
X2.2482Y-2.1839
X2.2482Y-2.9339
X2.2482Y-3.6839
X2.6482Y-1.4339
X2.6482Y-2.1839
X2.6482Y-2.9339
X2.6482Y-3.6839
X2.9982Y-1.3217
X2.9982Y-2.0717
X2.9982Y-2.8217
X3.0919Y-3.5717
X3.3982Y-1.3217
X3.3982Y-2.0717
X3.3982Y-2.8217
X3.4919Y-3.5717
X3.7482Y-1.2091
X3.7482Y-1.9591
X3.7482Y-2.7091
X3.9353Y-3.572
X4.1482Y-1.2091
X4.1482Y-1.9591
X4.1482Y-2.7091
X4.3353Y-3.572
X4.4978Y-1.322
X4.4978Y-2.072
X4.4978Y-2.822
X4.6852Y-3.6465
X4.7795Y-3.6465
X4.8978Y-1.322
X4.8978Y-2.072
X4.8978Y-2.822
X5.0852Y-3.6465
X5.1795Y-3.6465
X5.2482Y-1.3965
X5.2482Y-2.1465
X5.2482Y-2.8965
X5.5285Y-3.6461
X5.6226Y-3.6472
X5.6482Y-1.3965
X5.6482Y-2.1465
X5.6482Y-2.8965
X5.9285Y-3.6461
X6.0226Y-3.6472
X6.1852Y-1.3213
X6.1852Y-2.0713
X6.5852Y-1.3213
X6.5852Y-2.0713
X6.7482Y-3.6461
X6.8423Y-3.6461
X7.1234Y-1.3961
X7.1234Y-2.1461
X7.1234Y-2.8961
X7.1482Y-3.6461
X7.2423Y-3.6461
X7.5234Y-1.3961
X7.5234Y-2.1461
X7.5234Y-2.8961
X7.5909Y-3.6461
X7.686Y-3.6457
X7.8734Y-1.3217
X7.8734Y-2.0717
X7.8734Y-2.8217
X7.9909Y-3.6461
X8.086Y-3.6457
X8.2734Y-1.3217
X8.2734Y-2.0717
X8.2734Y-2.8217
X8.4361Y-3.5717
X8.6234Y-1.2091
X8.6234Y-1.9591
X8.6234Y-2.7091
X8.8361Y-3.5717
X9.0234Y-1.2091
X9.0234Y-1.9591
X9.0234Y-2.7091
X9.2798Y-3.5717
X9.3736Y-1.3217
X9.3736Y-2.0717
X9.3736Y-2.8217
X9.6798Y-3.5717
X9.7736Y-1.3217
X9.7736Y-2.0717
X9.7736Y-2.8217
X10.123Y-1.4339
X10.123Y-2.1839
X10.123Y-2.9339
X10.123Y-3.6839
X10.523Y-1.4339
X10.523Y-2.1839
X10.523Y-2.9339
X10.523Y-3.6839
X10.8734Y-1.3591
X11.0609Y-2.1091
X11.1546Y-2.8591
X11.2734Y-1.3591
X11.3421Y-3.6091
X11.4609Y-2.1091
X11.5546Y-2.8591
X11.7421Y-3.6091
T3
X1.2294Y-3.6086
X1.4169Y-2.8586
X1.5107Y-2.1086
X1.6982Y-1.3586
X2.4482Y-1.4339
X2.4482Y-2.1839
X2.4482Y-2.9339
X2.4482Y-3.6839
X3.1982Y-1.3217
X3.1982Y-2.0717
X3.1982Y-2.8217
X3.2919Y-3.5717
X3.9482Y-1.2091
X3.9482Y-1.9591
X3.9482Y-2.7091
X4.1353Y-3.572
X4.6978Y-1.322
X4.6978Y-2.072
X4.6978Y-2.822
X4.8852Y-3.6465
X4.9795Y-3.6465
X5.4482Y-1.3965
X5.4482Y-2.1465
X5.4482Y-2.8965
X5.7285Y-3.6461
X5.8226Y-3.6472
X6.3852Y-1.3213
X6.3852Y-2.0713
X6.9482Y-3.6461
X7.0423Y-3.6461
X7.3234Y-1.3961
X7.3234Y-2.1461
X7.3234Y-2.8961
X7.7909Y-3.6461
X7.886Y-3.6457
X8.0734Y-1.3217
X8.0734Y-2.0717
X8.0734Y-2.8217
X8.6361Y-3.5717
X8.8234Y-1.2091
X8.8234Y-1.9591
X8.8234Y-2.7091
X9.4798Y-3.5717
X9.5736Y-1.3217
X9.5736Y-2.0717
X9.5736Y-2.8217
X10.323Y-1.4339
X10.323Y-2.1839
X10.323Y-2.9339
X10.323Y-3.6839
X11.0734Y-1.3591
X11.2609Y-2.1091
X11.3546Y-2.8591
X11.5421Y-3.6091
T0
M30
