M48
; DRILL file {KiCad (6.0.7)} date Fri Sep 16 03:14:29 2022
; FORMAT={-:-/ absolute / inch / decimal}
; #@! TF.CreationDate,2022-09-16T03:14:29+03:00
; #@! TF.GenerationSoftware,Kicad,Pcbnew,(6.0.7)
; #@! TF.FileFunction,Plated,1,2,PTH
FMAT,2
INCH
; #@! TA.AperFunction,Plated,PTH,ViaDrill
T1C0.0157
; #@! TA.AperFunction,Plated,PTH,ComponentDrill
T2C0.0236
; #@! TA.AperFunction,Plated,PTH,ComponentDrill
T3C0.0400
; #@! TA.AperFunction,Plated,PTH,ComponentDrill
T4C0.0866
; #@! TA.AperFunction,Plated,PTH,ComponentDrill
T5C0.1181
%
G90
G05
T1
X1.8041Y-2.9417
X1.8041Y-3.5739
X1.8046Y-2.1965
X1.8326Y-3.5452
X1.8327Y-2.9131
X1.8331Y-2.168
X1.8612Y-3.5149
X1.8612Y-2.8828
X1.8617Y-2.1376
X1.8862Y-3.4797
X1.8863Y-2.8477
X1.8867Y-2.1025
X1.9101Y-3.4446
X1.9102Y-2.8125
X1.9102Y-3.1406
X1.9106Y-2.0673
X2.0781Y-1.5156
X2.1584Y-2.9275
X2.8125Y-2.7305
X2.8281Y-1.4062
X3.5625Y-2.6133
X3.5781Y-1.2812
X4.3242Y-2.6016
X4.3281Y-1.3281
X4.5352Y-3.8186
X4.6406Y-3.7734
X5.0625Y-2.6953
X5.0742Y-1.418
X5.2734Y-3.4453
X5.2734Y-3.8672
X5.4375Y-3.8203
X5.4961Y-3.7852
X5.7031Y-3.1406
X5.7975Y-2.976
X5.8028Y-1.665
X5.8281Y-2.1719
X5.8331Y-2.9587
X5.8349Y-2.9194
X5.8373Y-2.8801
X5.8909Y-3.3496
X5.9375Y-2.1719
X5.9465Y-2.9843
X5.9883Y-3.2109
X6.0234Y-2.6705
X6.0352Y-3.1641
X6.0516Y-3.5299
X6.0559Y-2.6295
X6.0835Y-3.161
X6.1055Y-3.8789
X6.125Y-1.6875
X6.1335Y-3.1587
X6.152Y-2.5575
X6.1562Y-3.5156
X6.2031Y-2.25
X6.2315Y-3.376
X6.2547Y-3.435
X6.2921Y-3.5417
X6.3257Y-2.3569
X6.3386Y-3.4394
X6.3673Y-2.4319
X6.4618Y-3.1454
X6.5043Y-3.4925
X6.5992Y-3.0476
X6.6445Y-1.7031
X6.6761Y-2.724
X6.6761Y-3.2009
X6.6764Y-2.926
X6.6797Y-2.3437
X6.7148Y-2.316
X6.7386Y-2.4354
X6.7386Y-2.2847
X6.7559Y-2.2442
X6.7583Y-2.9646
X6.8429Y-2.7358
X6.8614Y-2.9878
X6.9024Y-1.4764
X7.0303Y-2.413
X7.0312Y-2.1914
X7.0312Y-2.9414
X7.0336Y-1.582
X7.3594Y-3.5781
X7.5586Y-3.7852
X7.7812Y-1.4766
X8.1445Y-3.4453
X8.1984Y-3.3914
X8.1984Y-3.6228
X8.5312Y-1.3594
X9.2812Y-1.4531
X10.0311Y-1.5543
X10.0312Y-2.3437
X10.0312Y-3.0937
X10.0312Y-3.8437
X10.6984Y-2.1906
X10.7071Y-3.0031
X10.7453Y-3.7323
X10.8281Y-2.9062
X10.839Y-2.1224
X10.8633Y-3.4802
X10.8661Y-2.8524
X10.8791Y-2.1241
X10.8883Y-3.5153
X10.8912Y-2.8875
X10.9219Y-3.5508
X10.9224Y-2.9201
X10.9297Y-2.1409
X10.9549Y-2.1815
X10.957Y-3.5742
X10.9571Y-2.9522
T3
X6.2984Y-3.6768
X6.2984Y-3.7768
X6.3984Y-3.6768
X6.3984Y-3.7768
X6.4984Y-3.6768
X6.4984Y-3.7768
T4
X0.7815Y-3.7441
X1.25Y-1.6209
X11.5224Y-1.6209
X11.9913Y-3.7445
T5
X1.0794Y-3.5086
X1.2669Y-2.7586
X1.3294Y-3.4086
X1.3607Y-2.0086
X1.5169Y-2.6586
X1.5482Y-1.2586
X1.6107Y-1.9086
X1.7982Y-1.1586
X2.2982Y-1.3339
X2.2982Y-2.0839
X2.2982Y-2.8339
X2.2982Y-3.5839
X2.5482Y-1.2339
X2.5482Y-1.9839
X2.5482Y-2.7339
X2.5482Y-3.4839
X3.0482Y-1.2217
X3.0482Y-1.9717
X3.0482Y-2.7217
X3.1419Y-3.4717
X3.2982Y-1.1217
X3.2982Y-1.8717
X3.2982Y-2.6217
X3.3919Y-3.3717
X3.7982Y-1.1091
X3.7982Y-1.8591
X3.7982Y-2.6091
X3.9853Y-3.472
X4.0482Y-1.0091
X4.0482Y-1.7591
X4.0482Y-2.5091
X4.2353Y-3.372
X4.5478Y-1.222
X4.5478Y-1.972
X4.5478Y-2.722
X4.7352Y-3.5465
X4.7978Y-1.122
X4.7978Y-1.872
X4.7978Y-2.622
X4.8795Y-3.8465
X4.9852Y-3.4465
X5.1295Y-3.7465
X5.2982Y-1.2965
X5.2982Y-2.0465
X5.2982Y-2.7965
X5.5482Y-1.1965
X5.5482Y-1.9465
X5.5482Y-2.6965
X5.5785Y-3.5461
X5.7226Y-3.8472
X5.8285Y-3.4461
X5.9726Y-3.7472
X6.2352Y-1.9713
X6.2852Y-1.5213
X6.4852Y-1.8713
X6.5352Y-1.4213
X6.7982Y-3.5461
X6.9423Y-3.8461
X7.0482Y-3.4461
X7.1734Y-1.2961
X7.1734Y-2.0461
X7.1734Y-2.7961
X7.1923Y-3.7461
X7.4234Y-1.1961
X7.4234Y-1.9461
X7.4234Y-2.6961
X7.6409Y-3.5461
X7.786Y-3.8457
X7.8909Y-3.4461
X7.9234Y-1.2217
X7.9234Y-1.9717
X7.9234Y-2.7217
X8.036Y-3.7457
X8.1734Y-1.1217
X8.1734Y-1.8717
X8.1734Y-2.6217
X8.4861Y-3.4717
X8.6734Y-1.1091
X8.6734Y-1.8591
X8.6734Y-2.6091
X8.7361Y-3.3717
X8.9234Y-1.0091
X8.9234Y-1.7591
X8.9234Y-2.5091
X9.3298Y-3.4717
X9.4236Y-1.2217
X9.4236Y-1.9717
X9.4236Y-2.7217
X9.5798Y-3.3717
X9.6736Y-1.1217
X9.6736Y-1.8717
X9.6736Y-2.6217
X10.173Y-1.3339
X10.173Y-2.0839
X10.173Y-2.8339
X10.173Y-3.5839
X10.423Y-1.2339
X10.423Y-1.9839
X10.423Y-2.7339
X10.423Y-3.4839
X10.9234Y-1.2591
X11.1109Y-2.0091
X11.1734Y-1.1591
X11.2046Y-2.7591
X11.3609Y-1.9091
X11.3921Y-3.5091
X11.4546Y-2.6591
X11.6421Y-3.4091
T2
G00X6.2157Y-0.8759
M15
G01X6.2157Y-0.8995
M16
G05
G00X6.2157Y-1.0306
M15
G01X6.2157Y-1.0739
M16
G05
G00X6.5559Y-0.8759
M15
G01X6.5559Y-0.8995
M16
G05
G00X6.5559Y-1.0306
M15
G01X6.5559Y-1.0739
M16
G05
T0
M30
