%TF.GenerationSoftware,KiCad,Pcbnew,(6.0.7)*%
%TF.CreationDate,2022-09-16T03:14:30+03:00*%
%TF.ProjectId,teethless40_csl_pcb_schema,74656574-686c-4657-9373-34305f63736c,rev?*%
%TF.SameCoordinates,Original*%
%TF.FileFunction,Drillmap*%
%TF.FilePolarity,Positive*%
%FSLAX45Y45*%
G04 Gerber Fmt 4.5, Leading zero omitted, Abs format (unit mm)*
G04 Created by KiCad (PCBNEW (6.0.7)) date 2022-09-16 03:14:30*
%MOMM*%
%LPD*%
G01*
G04 APERTURE LIST*
%ADD10C,0.200000*%
%ADD11C,0.065000*%
%ADD12C,0.175000*%
%ADD13C,0.398780*%
G04 APERTURE END LIST*
D10*
X16622771Y-10466005D02*
G75*
G03*
X15819399Y-10466005I-401686J-17995684D01*
G01*
X16622771Y-10466005D02*
X20701085Y-10557039D01*
X11741085Y-10557039D02*
X15819399Y-10466005D01*
X15667828Y-2126004D02*
G75*
G03*
X16774342Y-2126004I553257J11987314D01*
G01*
X15667828Y-2126004D02*
X10664081Y-1895061D01*
X21778089Y-1895061D02*
X16774342Y-2126004D01*
X23046128Y-1903608D02*
G75*
G03*
X21778089Y-1895061I-714783J-11978641D01*
G01*
X28577514Y-2233672D02*
X23046128Y-1903608D01*
X10664081Y-1895061D02*
G75*
G03*
X9396042Y-1903608I-553256J-11987187D01*
G01*
X9396042Y-1903608D02*
X3864656Y-2233672D01*
X3864656Y-2233672D02*
G75*
G03*
X3462692Y-2370552I47653J-798581D01*
G01*
X3462692Y-2370552D02*
X3100051Y-2616962D01*
X3100051Y-2616962D02*
G75*
G03*
X2783275Y-3049221I449617J-661699D01*
G01*
X2783275Y-3049221D02*
X1823316Y-6255747D01*
X30770583Y-6928317D02*
G75*
G03*
X30618854Y-6255747I-4941668J-761422D01*
G01*
X31135676Y-9297768D02*
X30770584Y-6928317D01*
X30618854Y-6255747D02*
X29658895Y-3049221D01*
X1823316Y-6255747D02*
G75*
G03*
X1671586Y-6928316I4789941J-1433997D01*
G01*
X1671586Y-6928316D02*
X1306494Y-9297768D01*
X2038638Y-10315148D02*
G75*
G03*
X2936548Y-10591471I1020754J1719901D01*
G01*
X2936548Y-10591471D02*
X4713930Y-10700848D01*
X1688861Y-10107557D02*
X2038638Y-10315149D01*
X1306494Y-9297768D02*
G75*
G03*
X1688861Y-10107557I790669J-121829D01*
G01*
X30753310Y-10107560D02*
G75*
G03*
X31135676Y-9297768I-408306J687961D01*
G01*
X30403531Y-10315149D02*
X30753309Y-10107557D01*
X28979478Y-2370551D02*
G75*
G03*
X28577514Y-2233672I-449613J-661697D01*
G01*
X29342118Y-2616962D02*
X28979478Y-2370552D01*
X29658895Y-3049221D02*
G75*
G03*
X29342118Y-2616962I-766390J-229438D01*
G01*
X29505622Y-10591472D02*
G75*
G03*
X30403531Y-10315149I-122847J1996224D01*
G01*
X27728240Y-10700848D02*
X29505622Y-10591471D01*
X26055265Y-10725891D02*
G75*
G03*
X27728240Y-10700848I567370J17991012D01*
G01*
X20701085Y-10557039D02*
X26055265Y-10725890D01*
X4713930Y-10700848D02*
G75*
G03*
X6386905Y-10725890I1105605J17965969D01*
G01*
X6386905Y-10725890D02*
X11741085Y-10557039D01*
X19073802Y-8266034D02*
G75*
G03*
X19457197Y-8203140I8J1199964D01*
G01*
X5138159Y-6741285D02*
X5138159Y-6781285D01*
X5138159Y-7876285D02*
X5138159Y-8161285D01*
X5338159Y-6456285D02*
X6601967Y-6456285D01*
X12789698Y-4328428D02*
G75*
G03*
X12406302Y-4265535I-383398J-1137152D01*
G01*
X25241045Y-8204698D02*
G75*
G03*
X24699467Y-8075535I-541576J-1070822D01*
G01*
X23336045Y-4193947D02*
X23390272Y-4221373D01*
X7143546Y-4422122D02*
X7197772Y-4394698D01*
X7197772Y-4479698D02*
X7143546Y-4507122D01*
X17805659Y-6446029D02*
G75*
G03*
X17605659Y-6646035I1J-200001D01*
G01*
X7739350Y-8160537D02*
G75*
G03*
X7197772Y-8289697I0J-1200013D01*
G01*
X27300659Y-6256285D02*
X27300659Y-6216285D01*
X11007772Y-6126372D02*
X10953546Y-6098947D01*
X17520665Y-5026035D02*
G75*
G03*
X17545659Y-5051035I24995J-5D01*
G01*
X12406302Y-8075535D02*
X11549350Y-8075535D01*
X14833155Y-4741035D02*
G75*
G03*
X14633159Y-4541035I-199995J5D01*
G01*
X17520665Y-6931035D02*
G75*
G03*
X17545659Y-6956035I24995J-5D01*
G01*
X5078159Y-7851279D02*
G75*
G03*
X5053159Y-7876285I1J-25001D01*
G01*
X23390272Y-6041371D02*
G75*
G03*
X23931850Y-6170535I541578J1070821D01*
G01*
X19073802Y-4456035D02*
G75*
G03*
X19457198Y-4393140I8J1199955D01*
G01*
X12981619Y-8203141D02*
G75*
G03*
X13365015Y-8266035I383401J1137151D01*
G01*
X11549350Y-6170535D02*
X12406302Y-6170535D01*
X23931850Y-8075535D02*
X24699467Y-8075535D01*
X17805659Y-8266035D02*
X19073802Y-8266035D01*
X25241045Y-4479698D02*
G75*
G03*
X24699467Y-4350535I-541576J-1070822D01*
G01*
X22026850Y-4064785D02*
X22794467Y-4064785D01*
X11007772Y-4221372D02*
X10953546Y-4193947D01*
X21431046Y-6041372D02*
X21485272Y-6013947D01*
X27325659Y-5946279D02*
G75*
G03*
X27300659Y-5971285I1J-25001D01*
G01*
X9644350Y-5969786D02*
G75*
G03*
X9102772Y-6098947I0J-1200014D01*
G01*
X23390272Y-7946371D02*
G75*
G03*
X23931850Y-8075535I541578J1070821D01*
G01*
X14918165Y-5876035D02*
G75*
G03*
X14893159Y-5851035I-25005J-5D01*
G01*
X12789697Y-8138431D02*
G75*
G03*
X12406302Y-8075535I-383407J-1137149D01*
G01*
X12789697Y-6233430D02*
X12981620Y-6298140D01*
X9102772Y-4193947D02*
X9048546Y-4221372D01*
X14833159Y-4741035D02*
X14833159Y-5026035D01*
X21485272Y-8003947D02*
X21431046Y-8031372D01*
X11007773Y-6126371D02*
G75*
G03*
X11549350Y-6255535I541577J1070821D01*
G01*
X22026850Y-3979785D02*
G75*
G03*
X21485272Y-4108947I0J-1200005D01*
G01*
X23336045Y-7918948D02*
G75*
G03*
X22794467Y-7789785I-541576J-1070822D01*
G01*
X5138159Y-6256285D02*
X5138159Y-6216285D01*
X17520659Y-8066035D02*
X17520659Y-7781035D01*
X9644350Y-7874785D02*
X10411967Y-7874785D01*
X23336046Y-7918947D02*
X23390272Y-7946372D01*
X27300659Y-6781285D02*
X27300659Y-6741285D01*
X12789698Y-6233429D02*
G75*
G03*
X12406302Y-6170535I-383398J-1137141D01*
G01*
X22026850Y-7789785D02*
G75*
G03*
X21485272Y-7918947I0J-1200005D01*
G01*
X27385665Y-5971285D02*
G75*
G03*
X27360659Y-5946285I-25005J-5D01*
G01*
X7143546Y-8317122D02*
X7197772Y-8289697D01*
X20889467Y-8160535D02*
X20032515Y-8160535D01*
X23336045Y-4108948D02*
G75*
G03*
X22794467Y-3979785I-541575J-1070822D01*
G01*
X11549350Y-4265535D02*
X12406302Y-4265535D01*
X5053165Y-7026285D02*
G75*
G03*
X5078159Y-7051285I24995J-5D01*
G01*
X11007772Y-7946371D02*
G75*
G03*
X11549350Y-8075535I541578J1070821D01*
G01*
X9644350Y-7789785D02*
G75*
G03*
X9102772Y-7918947I0J-1200005D01*
G01*
X5338159Y-4551285D02*
X6601967Y-4551285D01*
X27385659Y-7876285D02*
X27385659Y-8161285D01*
X23390273Y-4136371D02*
G75*
G03*
X23931850Y-4265535I541577J1070821D01*
G01*
X25836850Y-6456285D02*
X27100659Y-6456285D01*
X14918165Y-4741035D02*
G75*
G03*
X14633159Y-4456035I-285005J-5D01*
G01*
X27300659Y-7876285D02*
X27300659Y-8121285D01*
X17545659Y-7756035D02*
X17580659Y-7756035D01*
X25241046Y-8204697D02*
X25295272Y-8232122D01*
X25241046Y-4479698D02*
X25295272Y-4507122D01*
X14893159Y-6956029D02*
G75*
G03*
X14918159Y-6931035I1J24999D01*
G01*
X8506967Y-4350535D02*
X7739350Y-4350535D01*
X21431046Y-7946372D02*
X21485272Y-7918947D01*
X19073802Y-6361035D02*
G75*
G03*
X19457198Y-6298140I8J1199955D01*
G01*
X23931850Y-4265535D02*
X24699467Y-4265535D01*
X23336045Y-8003948D02*
G75*
G03*
X22794467Y-7874785I-541576J-1070822D01*
G01*
X8506967Y-8075538D02*
G75*
G03*
X9048546Y-7946372I-7J1200008D01*
G01*
X20889467Y-8075538D02*
G75*
G03*
X21431046Y-7946372I-7J1200008D01*
G01*
X12406302Y-6255535D02*
X11549350Y-6255535D01*
X14833155Y-6646035D02*
G75*
G03*
X14633159Y-6446035I-199995J5D01*
G01*
X22026850Y-7874785D02*
G75*
G03*
X21485272Y-8003947I0J-1200005D01*
G01*
X25241046Y-4394698D02*
X25295272Y-4422122D01*
X10953546Y-6098948D02*
G75*
G03*
X10411967Y-5969785I-541576J-1070822D01*
G01*
X23336046Y-6013947D02*
X23390272Y-6041372D01*
X7739350Y-6255535D02*
G75*
G03*
X7197772Y-6384697I0J-1200005D01*
G01*
X17520659Y-5026035D02*
X17520659Y-4741035D01*
X23390272Y-6126371D02*
G75*
G03*
X23931850Y-6255535I541578J1070821D01*
G01*
X25295272Y-4507121D02*
G75*
G03*
X25836850Y-4636285I541578J1070821D01*
G01*
X22026850Y-5969786D02*
G75*
G03*
X21485272Y-6098947I0J-1200014D01*
G01*
X12789697Y-4413431D02*
G75*
G03*
X12406302Y-4350535I-383407J-1137149D01*
G01*
X13365015Y-8266035D02*
X14633159Y-8266035D01*
X23931850Y-4350535D02*
X24699467Y-4350535D01*
X6601967Y-4636285D02*
X5338159Y-4636285D01*
X5338159Y-4551285D02*
G75*
G03*
X5053159Y-4836285I0J-285000D01*
G01*
X27360659Y-7051279D02*
G75*
G03*
X27385659Y-7026285I1J24999D01*
G01*
X20032515Y-8160535D02*
G75*
G03*
X19649120Y-8223430I-5J-1199965D01*
G01*
X17805659Y-4456039D02*
G75*
G03*
X17520659Y-4741035I1J-285001D01*
G01*
X5138165Y-6256285D02*
G75*
G03*
X5338159Y-6456285I199995J-5D01*
G01*
X25836850Y-8361285D02*
X27100659Y-8361285D01*
X5078159Y-5946279D02*
G75*
G03*
X5053159Y-5971285I1J-25001D01*
G01*
X17545659Y-6956035D02*
X17580659Y-6956035D01*
X6601967Y-6541285D02*
X5338159Y-6541285D01*
X7739350Y-6170535D02*
X8506967Y-6170535D01*
X7197772Y-8204697D02*
X7143546Y-8232122D01*
X17545659Y-7756039D02*
G75*
G03*
X17520659Y-7781035I1J-25001D01*
G01*
X14858159Y-5851035D02*
X14893159Y-5851035D01*
X10953545Y-4193948D02*
G75*
G03*
X10411967Y-4064785I-541575J-1070822D01*
G01*
X19649120Y-8223430D02*
X19457197Y-8288140D01*
X20889467Y-6255536D02*
G75*
G03*
X21431046Y-6126372I-7J1200016D01*
G01*
X17545659Y-5051035D02*
X17580659Y-5051035D01*
X14633159Y-8351035D02*
X13365015Y-8351035D01*
X24699467Y-6255535D02*
X23931850Y-6255535D01*
X27300659Y-4876285D02*
X27300659Y-5121285D01*
X5138165Y-8161285D02*
G75*
G03*
X5338159Y-8361285I199995J-5D01*
G01*
X12981620Y-6383140D02*
G75*
G03*
X13365015Y-6446035I383400J1137140D01*
G01*
X20889467Y-8160538D02*
G75*
G03*
X21431046Y-8031372I-7J1200008D01*
G01*
X14918159Y-5876035D02*
X14918159Y-6931035D01*
X14833155Y-6931035D02*
G75*
G03*
X14858159Y-6956035I25005J5D01*
G01*
X22026850Y-4064785D02*
G75*
G03*
X21485272Y-4193947I0J-1200005D01*
G01*
X25836850Y-4551285D02*
X27100659Y-4551285D01*
X5053159Y-5121285D02*
X5053159Y-4836285D01*
X11007772Y-7946372D02*
X10953546Y-7918947D01*
X19073802Y-4541035D02*
X17805659Y-4541035D01*
X23390273Y-4221371D02*
G75*
G03*
X23931850Y-4350535I541577J1070821D01*
G01*
X13365015Y-4456035D02*
X14633159Y-4456035D01*
X14918159Y-7781035D02*
X14918159Y-8066035D01*
X14633159Y-4541035D02*
X13365015Y-4541035D01*
X9644350Y-7874785D02*
G75*
G03*
X9102772Y-8003947I0J-1200005D01*
G01*
X7739350Y-8160535D02*
X8506967Y-8160535D01*
X9102772Y-6098947D02*
X9048546Y-6126372D01*
X17580659Y-6956029D02*
G75*
G03*
X17605659Y-6931035I1J24999D01*
G01*
X7739350Y-6170535D02*
G75*
G03*
X7197772Y-6299697I0J-1200005D01*
G01*
X19457198Y-4393140D02*
X19649120Y-4328430D01*
X11007772Y-8031371D02*
G75*
G03*
X11549350Y-8160535I541578J1070821D01*
G01*
X9102772Y-7918947D02*
X9048546Y-7946372D01*
X5338159Y-6541285D02*
G75*
G03*
X5138159Y-6741285I0J-200000D01*
G01*
X5338159Y-4636285D02*
G75*
G03*
X5138159Y-4836285I0J-200000D01*
G01*
X20032515Y-4350534D02*
G75*
G03*
X19649120Y-4413430I-5J-1199956D01*
G01*
X27100659Y-8361289D02*
G75*
G03*
X27300659Y-8161285I1J199999D01*
G01*
X12981619Y-4393141D02*
G75*
G03*
X13365015Y-4456035I383401J1137151D01*
G01*
X9644350Y-5884787D02*
G75*
G03*
X9102772Y-6013947I0J-1200013D01*
G01*
X8506967Y-6255537D02*
G75*
G03*
X9048546Y-6126372I-7J1200017D01*
G01*
X27100659Y-4636285D02*
X25836850Y-4636285D01*
X19073802Y-6446035D02*
G75*
G03*
X19457198Y-6383140I8J1199955D01*
G01*
X17605659Y-5876035D02*
X17605659Y-6121035D01*
X20889467Y-6255535D02*
X20032516Y-6255535D01*
X27325659Y-7851285D02*
X27360659Y-7851285D01*
X6601967Y-8446287D02*
G75*
G03*
X7143546Y-8317122I-7J1200017D01*
G01*
X5138155Y-5971285D02*
G75*
G03*
X5113159Y-5946285I-24995J5D01*
G01*
X14833155Y-5026035D02*
G75*
G03*
X14858159Y-5051035I25005J5D01*
G01*
X27325659Y-5946285D02*
X27360659Y-5946285D01*
X14633159Y-8266039D02*
G75*
G03*
X14833159Y-8066035I1J199999D01*
G01*
X11007773Y-4221371D02*
G75*
G03*
X11549350Y-4350535I541577J1070821D01*
G01*
X17805659Y-6361035D02*
X19073802Y-6361035D01*
X22026850Y-7789785D02*
X22794467Y-7789785D01*
X11007773Y-4136371D02*
G75*
G03*
X11549350Y-4265535I541577J1070821D01*
G01*
X6601967Y-6541283D02*
G75*
G03*
X7143546Y-6412122I3J1200003D01*
G01*
X6601967Y-8361287D02*
G75*
G03*
X7143546Y-8232122I-7J1200017D01*
G01*
X19457197Y-8203140D02*
X19649120Y-8138430D01*
X22794467Y-5969785D02*
X22026850Y-5969785D01*
X27385665Y-7876285D02*
G75*
G03*
X27360659Y-7851285I-25005J-5D01*
G01*
X25295273Y-8232121D02*
G75*
G03*
X25836850Y-8361285I541577J1070821D01*
G01*
X12789697Y-6318431D02*
G75*
G03*
X12406302Y-6255535I-383407J-1137149D01*
G01*
X27360659Y-5146279D02*
G75*
G03*
X27385659Y-5121285I1J24999D01*
G01*
X27100659Y-8446285D02*
X25836850Y-8446285D01*
X6601967Y-6456288D02*
G75*
G03*
X7143546Y-6327122I-7J1200008D01*
G01*
X25295272Y-6327121D02*
G75*
G03*
X25836850Y-6456285I541578J1070821D01*
G01*
X20032515Y-4265535D02*
X20889467Y-4265535D01*
X13365015Y-6361035D02*
X14633159Y-6361035D01*
X25295272Y-4422121D02*
G75*
G03*
X25836850Y-4551285I541578J1070821D01*
G01*
X5053159Y-7876285D02*
X5053159Y-8161285D01*
X27325659Y-7851279D02*
G75*
G03*
X27300659Y-7876285I1J-25001D01*
G01*
X24699467Y-8160535D02*
X23931850Y-8160535D01*
X25295272Y-8317122D02*
X25241046Y-8289697D01*
X12789698Y-4328430D02*
X12981620Y-4393140D01*
X20032515Y-8075535D02*
X20889467Y-8075535D01*
X23931850Y-6170535D02*
X24699467Y-6170535D01*
X25241045Y-8289698D02*
G75*
G03*
X24699467Y-8160535I-541576J-1070822D01*
G01*
X5113159Y-5946285D02*
X5078159Y-5946285D01*
X25241045Y-6299698D02*
G75*
G03*
X24699467Y-6170535I-541575J-1070822D01*
G01*
X10953546Y-8003947D02*
X11007772Y-8031372D01*
X23390272Y-6126372D02*
X23336046Y-6098947D01*
X25241045Y-6299697D02*
X25295272Y-6327122D01*
X20032516Y-6255535D02*
G75*
G03*
X19649120Y-6318430I-6J-1199965D01*
G01*
X23390272Y-8031371D02*
G75*
G03*
X23931850Y-8160535I541578J1070821D01*
G01*
X25295273Y-8317121D02*
G75*
G03*
X25836850Y-8446285I541577J1070821D01*
G01*
X23336045Y-4193948D02*
G75*
G03*
X22794467Y-4064785I-541575J-1070822D01*
G01*
X27300655Y-6741285D02*
G75*
G03*
X27100659Y-6541285I-199995J5D01*
G01*
X10411967Y-5969785D02*
X9644350Y-5969785D01*
X17605659Y-6646035D02*
X17605659Y-6686035D01*
X8506967Y-4265537D02*
G75*
G03*
X9048546Y-4136372I-7J1200017D01*
G01*
X5338159Y-8361285D02*
X6601967Y-8361285D01*
X19073802Y-8351034D02*
G75*
G03*
X19457197Y-8288140I8J1199964D01*
G01*
X12981620Y-6383140D02*
X12789698Y-6318430D01*
X17580659Y-5051039D02*
G75*
G03*
X17605659Y-5026035I1J24999D01*
G01*
X8506967Y-6170538D02*
G75*
G03*
X9048546Y-6041372I-7J1200008D01*
G01*
X9644350Y-5884785D02*
X10411967Y-5884785D01*
X20889467Y-4350538D02*
G75*
G03*
X21431046Y-4221372I-7J1200008D01*
G01*
X7739350Y-8075537D02*
G75*
G03*
X7197772Y-8204697I0J-1200013D01*
G01*
X19457198Y-6298140D02*
X19649120Y-6233430D01*
X10411967Y-4064785D02*
X9644350Y-4064785D01*
X5138159Y-6781285D02*
X5138159Y-7026285D01*
X6601967Y-4551288D02*
G75*
G03*
X7143546Y-4422122I-7J1200008D01*
G01*
X22026850Y-3979785D02*
X22794467Y-3979785D01*
X19649120Y-6318430D02*
X19457198Y-6383140D01*
X27325659Y-5146285D02*
X27360659Y-5146285D01*
X22026850Y-5884785D02*
X22794467Y-5884785D01*
X14918159Y-5026035D02*
X14918159Y-4741035D01*
X12406302Y-4350535D02*
X11549350Y-4350535D01*
X12789698Y-8223430D02*
X12981620Y-8288140D01*
X8506967Y-8075535D02*
X7739350Y-8075535D01*
X21485272Y-6098947D02*
X21431046Y-6126372D01*
X21431046Y-4221372D02*
X21485272Y-4193947D01*
X14633159Y-6361039D02*
G75*
G03*
X14833159Y-6161035I1J199999D01*
G01*
X5053165Y-5121285D02*
G75*
G03*
X5078159Y-5146285I24995J-5D01*
G01*
X27100659Y-6456289D02*
G75*
G03*
X27300659Y-6256285I1J199999D01*
G01*
X8506967Y-8160538D02*
G75*
G03*
X9048546Y-8031372I-7J1200008D01*
G01*
X20032516Y-6170535D02*
G75*
G03*
X19649120Y-6233430I-6J-1199965D01*
G01*
X5138159Y-5971285D02*
X5138159Y-6216285D01*
X27325659Y-7051285D02*
X27360659Y-7051285D01*
X5113159Y-5146289D02*
G75*
G03*
X5138159Y-5121285I1J24999D01*
G01*
X17605659Y-6686035D02*
X17605659Y-6931035D01*
X5113159Y-5146285D02*
X5078159Y-5146285D01*
X17805659Y-4456035D02*
X19073802Y-4456035D01*
X9048546Y-4136372D02*
X9102772Y-4108947D01*
X10953546Y-6013948D02*
G75*
G03*
X10411967Y-5884785I-541576J-1070822D01*
G01*
X27300655Y-5121285D02*
G75*
G03*
X27325659Y-5146285I25005J5D01*
G01*
X17520659Y-6931035D02*
X17520659Y-5876035D01*
X14633159Y-8351029D02*
G75*
G03*
X14918159Y-8066035I1J284999D01*
G01*
X23336045Y-4108947D02*
X23390272Y-4136373D01*
X17605665Y-8066035D02*
G75*
G03*
X17805659Y-8266035I199995J-5D01*
G01*
X20032515Y-8075535D02*
G75*
G03*
X19649120Y-8138430I-5J-1199965D01*
G01*
X25295272Y-6412122D02*
X25241045Y-6384697D01*
X6601967Y-8446285D02*
X5338159Y-8446285D01*
X22026850Y-5884786D02*
G75*
G03*
X21485272Y-6013947I0J-1200014D01*
G01*
X17605655Y-5876035D02*
G75*
G03*
X17580659Y-5851035I-24995J5D01*
G01*
X12981619Y-8288141D02*
G75*
G03*
X13365015Y-8351035I383401J1137151D01*
G01*
X27300659Y-6781285D02*
X27300659Y-7026285D01*
X8506967Y-6255535D02*
X7739350Y-6255535D01*
X27100659Y-6541285D02*
X25836850Y-6541285D01*
X23390272Y-8031372D02*
X23336046Y-8003947D01*
X7143546Y-6327122D02*
X7197772Y-6299697D01*
X27300659Y-4836285D02*
X27300659Y-4876285D01*
X7739350Y-4265536D02*
G75*
G03*
X7197772Y-4394698I0J-1200005D01*
G01*
X5113159Y-7851285D02*
X5078159Y-7851285D01*
X6601967Y-4636288D02*
G75*
G03*
X7143546Y-4507122I-7J1200008D01*
G01*
X27385659Y-5971285D02*
X27385659Y-7026285D01*
X17605655Y-7781035D02*
G75*
G03*
X17580659Y-7756035I-24995J5D01*
G01*
X7739350Y-4350536D02*
G75*
G03*
X7197772Y-4479698I0J-1200005D01*
G01*
X25241045Y-4394698D02*
G75*
G03*
X24699467Y-4265535I-541576J-1070822D01*
G01*
X19457198Y-4478140D02*
X19649120Y-4413430D01*
X17545659Y-5851035D02*
X17580659Y-5851035D01*
X9644350Y-4064787D02*
G75*
G03*
X9102772Y-4193947I0J-1200013D01*
G01*
X17605659Y-4781035D02*
X17605659Y-4741035D01*
X5053155Y-8161285D02*
G75*
G03*
X5338159Y-8446285I285005J5D01*
G01*
X20889467Y-6170536D02*
G75*
G03*
X21431046Y-6041372I-7J1200016D01*
G01*
X5138159Y-4836285D02*
X5138159Y-5121285D01*
X8506967Y-4350538D02*
G75*
G03*
X9048546Y-4221372I-7J1200008D01*
G01*
X27385665Y-4836285D02*
G75*
G03*
X27100659Y-4551285I-285005J-5D01*
G01*
X12981620Y-4478140D02*
X12789698Y-4413430D01*
X19073802Y-6446035D02*
X17805659Y-6446035D01*
X22794467Y-7874785D02*
X22026850Y-7874785D01*
X5138155Y-7876285D02*
G75*
G03*
X5113159Y-7851285I-24995J5D01*
G01*
X20889467Y-4265538D02*
G75*
G03*
X21431046Y-4136372I-7J1200008D01*
G01*
X14633159Y-6446035D02*
X13365015Y-6446035D01*
X14858159Y-5851029D02*
G75*
G03*
X14833159Y-5876035I1J-25001D01*
G01*
X17605659Y-7781035D02*
X17605659Y-8026035D01*
X9048546Y-6041372D02*
X9102772Y-6013947D01*
X12789697Y-8223431D02*
G75*
G03*
X12406302Y-8160535I-383407J-1137149D01*
G01*
X12981620Y-8203140D02*
X12789698Y-8138430D01*
X10953546Y-7918948D02*
G75*
G03*
X10411967Y-7789785I-541576J-1070822D01*
G01*
X12981620Y-6298140D02*
G75*
G03*
X13365015Y-6361035I383400J1137140D01*
G01*
X21431046Y-4136372D02*
X21485272Y-4108947D01*
X12981619Y-4478141D02*
G75*
G03*
X13365015Y-4541035I383401J1137151D01*
G01*
X27100659Y-8446279D02*
G75*
G03*
X27385659Y-8161285I1J284999D01*
G01*
X10953546Y-8003948D02*
G75*
G03*
X10411967Y-7874785I-541576J-1070822D01*
G01*
X9644350Y-3979785D02*
X10411967Y-3979785D01*
X17605665Y-6161035D02*
G75*
G03*
X17805659Y-6361035I199995J-5D01*
G01*
X19073802Y-8351035D02*
X17805659Y-8351035D01*
X20032515Y-4265534D02*
G75*
G03*
X19649120Y-4328430I-5J-1199956D01*
G01*
X27385659Y-4836285D02*
X27385659Y-5121285D01*
X17545659Y-5851039D02*
G75*
G03*
X17520659Y-5876035I1J-25001D01*
G01*
X14858159Y-5051035D02*
X14893159Y-5051035D01*
X5113159Y-7051285D02*
X5078159Y-7051285D01*
X11549350Y-8160535D02*
X12406302Y-8160535D01*
X27300655Y-7026285D02*
G75*
G03*
X27325659Y-7051285I25005J5D01*
G01*
X20032515Y-4350535D02*
X20889467Y-4350535D01*
X14833159Y-6686035D02*
X14833159Y-6931035D01*
X7197772Y-6384697D02*
X7143546Y-6412122D01*
X23336045Y-6098948D02*
G75*
G03*
X22794467Y-5969785I-541576J-1070822D01*
G01*
X25295272Y-6412121D02*
G75*
G03*
X25836850Y-6541285I541578J1070821D01*
G01*
X11007773Y-6041371D02*
G75*
G03*
X11549350Y-6170535I541577J1070821D01*
G01*
X17605659Y-4781035D02*
X17605659Y-5026035D01*
X17605659Y-8066035D02*
X17605659Y-8026035D01*
X23336045Y-6013948D02*
G75*
G03*
X22794467Y-5884785I-541576J-1070822D01*
G01*
X14858159Y-7756035D02*
X14893159Y-7756035D01*
X25241045Y-6384698D02*
G75*
G03*
X24699467Y-6255535I-541575J-1070822D01*
G01*
X14833159Y-7781035D02*
X14833159Y-8066035D01*
X27300655Y-4836285D02*
G75*
G03*
X27100659Y-4636285I-199995J5D01*
G01*
X10953546Y-4108948D02*
G75*
G03*
X10411967Y-3979785I-541576J-1070822D01*
G01*
X5113159Y-7051289D02*
G75*
G03*
X5138159Y-7026285I1J24999D01*
G01*
X10411967Y-7789785D02*
X9644350Y-7789785D01*
X14858159Y-7756029D02*
G75*
G03*
X14833159Y-7781035I1J-25001D01*
G01*
X27300659Y-5971285D02*
X27300659Y-6216285D01*
X14893159Y-5051029D02*
G75*
G03*
X14918159Y-5026035I1J24999D01*
G01*
X17605659Y-6121035D02*
X17605659Y-6161035D01*
X14833159Y-5876035D02*
X14833159Y-6161035D01*
X14833159Y-6646035D02*
X14833159Y-6686035D01*
X20032516Y-6170535D02*
X20889467Y-6170535D01*
X9644350Y-3979785D02*
G75*
G03*
X9102772Y-4108947I0J-1200005D01*
G01*
X9048546Y-8031372D02*
X9102772Y-8003947D01*
X10953546Y-4108947D02*
X11007772Y-4136372D01*
X27300659Y-8161285D02*
X27300659Y-8121285D01*
X14918165Y-7781035D02*
G75*
G03*
X14893159Y-7756035I-25005J-5D01*
G01*
X10953546Y-6013947D02*
X11007772Y-6041372D01*
X7739350Y-4265535D02*
X8506967Y-4265535D01*
X17520655Y-8066035D02*
G75*
G03*
X17805659Y-8351035I285005J5D01*
G01*
X14858159Y-6956035D02*
X14893159Y-6956035D01*
X19073802Y-4541035D02*
G75*
G03*
X19457198Y-4478140I8J1199955D01*
G01*
X17805659Y-4541029D02*
G75*
G03*
X17605659Y-4741035I1J-200001D01*
G01*
X5053159Y-5971285D02*
X5053159Y-7026285D01*
D11*
X15898500Y-2587264D02*
X15963500Y-2652264D01*
X15963500Y-2587264D02*
X15898500Y-2652264D01*
X16476500Y-2587264D02*
X16541500Y-2652264D01*
X16541500Y-2587264D02*
X16476500Y-2652264D01*
D12*
X2702188Y-9165750D02*
G75*
G03*
X2702188Y-9165750I-87500J0D01*
G01*
X3178437Y-7260750D02*
G75*
G03*
X3178437Y-7260750I-87500J0D01*
G01*
X3416562Y-5355750D02*
G75*
G03*
X3416562Y-5355750I-87500J0D01*
G01*
X3718187Y-9165750D02*
G75*
G03*
X3718187Y-9165750I-87500J0D01*
G01*
X3892812Y-3450750D02*
G75*
G03*
X3892812Y-3450750I-87500J0D01*
G01*
X4194438Y-7260750D02*
G75*
G03*
X4194438Y-7260750I-87500J0D01*
G01*
X4432563Y-5355750D02*
G75*
G03*
X4432563Y-5355750I-87500J0D01*
G01*
X4908813Y-3450750D02*
G75*
G03*
X4908813Y-3450750I-87500J0D01*
G01*
X5797875Y-3642000D02*
G75*
G03*
X5797875Y-3642000I-87500J0D01*
G01*
X5797875Y-5547000D02*
G75*
G03*
X5797875Y-5547000I-87500J0D01*
G01*
X5797875Y-7452000D02*
G75*
G03*
X5797875Y-7452000I-87500J0D01*
G01*
X5797875Y-9357000D02*
G75*
G03*
X5797875Y-9357000I-87500J0D01*
G01*
X6813875Y-3642000D02*
G75*
G03*
X6813875Y-3642000I-87500J0D01*
G01*
X6813875Y-5547000D02*
G75*
G03*
X6813875Y-5547000I-87500J0D01*
G01*
X6813875Y-7452000D02*
G75*
G03*
X6813875Y-7452000I-87500J0D01*
G01*
X6813875Y-9357000D02*
G75*
G03*
X6813875Y-9357000I-87500J0D01*
G01*
X7702875Y-3357000D02*
G75*
G03*
X7702875Y-3357000I-87500J0D01*
G01*
X7702875Y-5262000D02*
G75*
G03*
X7702875Y-5262000I-87500J0D01*
G01*
X7702875Y-7167000D02*
G75*
G03*
X7702875Y-7167000I-87500J0D01*
G01*
X7941000Y-9072000D02*
G75*
G03*
X7941000Y-9072000I-87500J0D01*
G01*
X8718875Y-3357000D02*
G75*
G03*
X8718875Y-3357000I-87500J0D01*
G01*
X8718875Y-5262000D02*
G75*
G03*
X8718875Y-5262000I-87500J0D01*
G01*
X8718875Y-7167000D02*
G75*
G03*
X8718875Y-7167000I-87500J0D01*
G01*
X8957000Y-9072000D02*
G75*
G03*
X8957000Y-9072000I-87500J0D01*
G01*
X9607875Y-3071000D02*
G75*
G03*
X9607875Y-3071000I-87500J0D01*
G01*
X9607875Y-4976000D02*
G75*
G03*
X9607875Y-4976000I-87500J0D01*
G01*
X9607875Y-6881000D02*
G75*
G03*
X9607875Y-6881000I-87500J0D01*
G01*
X10083125Y-9073000D02*
G75*
G03*
X10083125Y-9073000I-87500J0D01*
G01*
X10623875Y-3071000D02*
G75*
G03*
X10623875Y-3071000I-87500J0D01*
G01*
X10623875Y-4976000D02*
G75*
G03*
X10623875Y-4976000I-87500J0D01*
G01*
X10623875Y-6881000D02*
G75*
G03*
X10623875Y-6881000I-87500J0D01*
G01*
X11099125Y-9073000D02*
G75*
G03*
X11099125Y-9073000I-87500J0D01*
G01*
X11511875Y-3358000D02*
G75*
G03*
X11511875Y-3358000I-87500J0D01*
G01*
X11511875Y-5263000D02*
G75*
G03*
X11511875Y-5263000I-87500J0D01*
G01*
X11511875Y-7168000D02*
G75*
G03*
X11511875Y-7168000I-87500J0D01*
G01*
X11987875Y-9262000D02*
G75*
G03*
X11987875Y-9262000I-87500J0D01*
G01*
X12227500Y-9262000D02*
G75*
G03*
X12227500Y-9262000I-87500J0D01*
G01*
X12527875Y-3358000D02*
G75*
G03*
X12527875Y-3358000I-87500J0D01*
G01*
X12527875Y-5263000D02*
G75*
G03*
X12527875Y-5263000I-87500J0D01*
G01*
X12527875Y-7168000D02*
G75*
G03*
X12527875Y-7168000I-87500J0D01*
G01*
X13003875Y-9262000D02*
G75*
G03*
X13003875Y-9262000I-87500J0D01*
G01*
X13243500Y-9262000D02*
G75*
G03*
X13243500Y-9262000I-87500J0D01*
G01*
X13417875Y-3547000D02*
G75*
G03*
X13417875Y-3547000I-87500J0D01*
G01*
X13417875Y-5452000D02*
G75*
G03*
X13417875Y-5452000I-87500J0D01*
G01*
X13417875Y-7357000D02*
G75*
G03*
X13417875Y-7357000I-87500J0D01*
G01*
X14129875Y-9261000D02*
G75*
G03*
X14129875Y-9261000I-87500J0D01*
G01*
X14368875Y-9264000D02*
G75*
G03*
X14368875Y-9264000I-87500J0D01*
G01*
X14433875Y-3547000D02*
G75*
G03*
X14433875Y-3547000I-87500J0D01*
G01*
X14433875Y-5452000D02*
G75*
G03*
X14433875Y-5452000I-87500J0D01*
G01*
X14433875Y-7357000D02*
G75*
G03*
X14433875Y-7357000I-87500J0D01*
G01*
X15145875Y-9261000D02*
G75*
G03*
X15145875Y-9261000I-87500J0D01*
G01*
X15384875Y-9264000D02*
G75*
G03*
X15384875Y-9264000I-87500J0D01*
G01*
X15797875Y-3356000D02*
G75*
G03*
X15797875Y-3356000I-87500J0D01*
G01*
X15797875Y-5261000D02*
G75*
G03*
X15797875Y-5261000I-87500J0D01*
G01*
X16813875Y-3356000D02*
G75*
G03*
X16813875Y-3356000I-87500J0D01*
G01*
X16813875Y-5261000D02*
G75*
G03*
X16813875Y-5261000I-87500J0D01*
G01*
X17227875Y-9261000D02*
G75*
G03*
X17227875Y-9261000I-87500J0D01*
G01*
X17466875Y-9261000D02*
G75*
G03*
X17466875Y-9261000I-87500J0D01*
G01*
X18180813Y-3546000D02*
G75*
G03*
X18180813Y-3546000I-87500J0D01*
G01*
X18180813Y-5451000D02*
G75*
G03*
X18180813Y-5451000I-87500J0D01*
G01*
X18180813Y-7356000D02*
G75*
G03*
X18180813Y-7356000I-87500J0D01*
G01*
X18243875Y-9261000D02*
G75*
G03*
X18243875Y-9261000I-87500J0D01*
G01*
X18482875Y-9261000D02*
G75*
G03*
X18482875Y-9261000I-87500J0D01*
G01*
X19196813Y-3546000D02*
G75*
G03*
X19196813Y-3546000I-87500J0D01*
G01*
X19196813Y-5451000D02*
G75*
G03*
X19196813Y-5451000I-87500J0D01*
G01*
X19196813Y-7356000D02*
G75*
G03*
X19196813Y-7356000I-87500J0D01*
G01*
X19368500Y-9261000D02*
G75*
G03*
X19368500Y-9261000I-87500J0D01*
G01*
X19609875Y-9260000D02*
G75*
G03*
X19609875Y-9260000I-87500J0D01*
G01*
X20085875Y-3357000D02*
G75*
G03*
X20085875Y-3357000I-87500J0D01*
G01*
X20085875Y-5262000D02*
G75*
G03*
X20085875Y-5262000I-87500J0D01*
G01*
X20085875Y-7167000D02*
G75*
G03*
X20085875Y-7167000I-87500J0D01*
G01*
X20384500Y-9261000D02*
G75*
G03*
X20384500Y-9261000I-87500J0D01*
G01*
X20625875Y-9260000D02*
G75*
G03*
X20625875Y-9260000I-87500J0D01*
G01*
X21101875Y-3357000D02*
G75*
G03*
X21101875Y-3357000I-87500J0D01*
G01*
X21101875Y-5262000D02*
G75*
G03*
X21101875Y-5262000I-87500J0D01*
G01*
X21101875Y-7167000D02*
G75*
G03*
X21101875Y-7167000I-87500J0D01*
G01*
X21515125Y-9072000D02*
G75*
G03*
X21515125Y-9072000I-87500J0D01*
G01*
X21990875Y-3071000D02*
G75*
G03*
X21990875Y-3071000I-87500J0D01*
G01*
X21990875Y-4976000D02*
G75*
G03*
X21990875Y-4976000I-87500J0D01*
G01*
X21990875Y-6881000D02*
G75*
G03*
X21990875Y-6881000I-87500J0D01*
G01*
X22531125Y-9072000D02*
G75*
G03*
X22531125Y-9072000I-87500J0D01*
G01*
X23006875Y-3071000D02*
G75*
G03*
X23006875Y-3071000I-87500J0D01*
G01*
X23006875Y-4976000D02*
G75*
G03*
X23006875Y-4976000I-87500J0D01*
G01*
X23006875Y-6881000D02*
G75*
G03*
X23006875Y-6881000I-87500J0D01*
G01*
X23658250Y-9072000D02*
G75*
G03*
X23658250Y-9072000I-87500J0D01*
G01*
X23896375Y-3357000D02*
G75*
G03*
X23896375Y-3357000I-87500J0D01*
G01*
X23896375Y-5262000D02*
G75*
G03*
X23896375Y-5262000I-87500J0D01*
G01*
X23896375Y-7167000D02*
G75*
G03*
X23896375Y-7167000I-87500J0D01*
G01*
X24674250Y-9072000D02*
G75*
G03*
X24674250Y-9072000I-87500J0D01*
G01*
X24912375Y-3357000D02*
G75*
G03*
X24912375Y-3357000I-87500J0D01*
G01*
X24912375Y-5262000D02*
G75*
G03*
X24912375Y-5262000I-87500J0D01*
G01*
X24912375Y-7167000D02*
G75*
G03*
X24912375Y-7167000I-87500J0D01*
G01*
X25799875Y-3642000D02*
G75*
G03*
X25799875Y-3642000I-87500J0D01*
G01*
X25799875Y-5547000D02*
G75*
G03*
X25799875Y-5547000I-87500J0D01*
G01*
X25799875Y-7452000D02*
G75*
G03*
X25799875Y-7452000I-87500J0D01*
G01*
X25799875Y-9357000D02*
G75*
G03*
X25799875Y-9357000I-87500J0D01*
G01*
X26815875Y-3642000D02*
G75*
G03*
X26815875Y-3642000I-87500J0D01*
G01*
X26815875Y-5547000D02*
G75*
G03*
X26815875Y-5547000I-87500J0D01*
G01*
X26815875Y-7452000D02*
G75*
G03*
X26815875Y-7452000I-87500J0D01*
G01*
X26815875Y-9357000D02*
G75*
G03*
X26815875Y-9357000I-87500J0D01*
G01*
X27705875Y-3452000D02*
G75*
G03*
X27705875Y-3452000I-87500J0D01*
G01*
X28182125Y-5357000D02*
G75*
G03*
X28182125Y-5357000I-87500J0D01*
G01*
X28420250Y-7262000D02*
G75*
G03*
X28420250Y-7262000I-87500J0D01*
G01*
X28721875Y-3452000D02*
G75*
G03*
X28721875Y-3452000I-87500J0D01*
G01*
X28896500Y-9167000D02*
G75*
G03*
X28896500Y-9167000I-87500J0D01*
G01*
X29198125Y-5357000D02*
G75*
G03*
X29198125Y-5357000I-87500J0D01*
G01*
X29436250Y-7262000D02*
G75*
G03*
X29436250Y-7262000I-87500J0D01*
G01*
X29912500Y-9167000D02*
G75*
G03*
X29912500Y-9167000I-87500J0D01*
G01*
D13*
X3122687Y-8966360D02*
X3122687Y-9365140D01*
X2923297Y-9165750D02*
X3322077Y-9165750D01*
X3598937Y-7061360D02*
X3598937Y-7460140D01*
X3399547Y-7260750D02*
X3798327Y-7260750D01*
X3837062Y-5156360D02*
X3837062Y-5555140D01*
X3637672Y-5355750D02*
X4036452Y-5355750D01*
X4313313Y-3251360D02*
X4313313Y-3650140D01*
X4113922Y-3450750D02*
X4512703Y-3450750D01*
X6218375Y-3442610D02*
X6218375Y-3841390D01*
X6018985Y-3642000D02*
X6417765Y-3642000D01*
X6218375Y-5347610D02*
X6218375Y-5746390D01*
X6018985Y-5547000D02*
X6417765Y-5547000D01*
X6218375Y-7252610D02*
X6218375Y-7651390D01*
X6018985Y-7452000D02*
X6417765Y-7452000D01*
X6218375Y-9157610D02*
X6218375Y-9556390D01*
X6018985Y-9357000D02*
X6417765Y-9357000D01*
X8123375Y-3157610D02*
X8123375Y-3556390D01*
X7923985Y-3357000D02*
X8322765Y-3357000D01*
X8123375Y-5062610D02*
X8123375Y-5461390D01*
X7923985Y-5262000D02*
X8322765Y-5262000D01*
X8123375Y-6967610D02*
X8123375Y-7366390D01*
X7923985Y-7167000D02*
X8322765Y-7167000D01*
X8361500Y-8872610D02*
X8361500Y-9271390D01*
X8162110Y-9072000D02*
X8560890Y-9072000D01*
X10028375Y-2871610D02*
X10028375Y-3270390D01*
X9828985Y-3071000D02*
X10227765Y-3071000D01*
X10028375Y-4776610D02*
X10028375Y-5175390D01*
X9828985Y-4976000D02*
X10227765Y-4976000D01*
X10028375Y-6681610D02*
X10028375Y-7080390D01*
X9828985Y-6881000D02*
X10227765Y-6881000D01*
X10503625Y-8873610D02*
X10503625Y-9272390D01*
X10304235Y-9073000D02*
X10703015Y-9073000D01*
X11932375Y-3158610D02*
X11932375Y-3557390D01*
X11732985Y-3358000D02*
X12131765Y-3358000D01*
X11932375Y-5063610D02*
X11932375Y-5462390D01*
X11732985Y-5263000D02*
X12131765Y-5263000D01*
X11932375Y-6968610D02*
X11932375Y-7367390D01*
X11732985Y-7168000D02*
X12131765Y-7168000D01*
X12408375Y-9062610D02*
X12408375Y-9461390D01*
X12208985Y-9262000D02*
X12607765Y-9262000D01*
X12648000Y-9062610D02*
X12648000Y-9461390D01*
X12448610Y-9262000D02*
X12847390Y-9262000D01*
X13838375Y-3347610D02*
X13838375Y-3746390D01*
X13638985Y-3547000D02*
X14037765Y-3547000D01*
X13838375Y-5252610D02*
X13838375Y-5651390D01*
X13638985Y-5452000D02*
X14037765Y-5452000D01*
X13838375Y-7157610D02*
X13838375Y-7556390D01*
X13638985Y-7357000D02*
X14037765Y-7357000D01*
X14550375Y-9061610D02*
X14550375Y-9460390D01*
X14350985Y-9261000D02*
X14749765Y-9261000D01*
X14789375Y-9064610D02*
X14789375Y-9463390D01*
X14589985Y-9264000D02*
X14988765Y-9264000D01*
X16218375Y-3156610D02*
X16218375Y-3555390D01*
X16018985Y-3356000D02*
X16417765Y-3356000D01*
X16218375Y-5061610D02*
X16218375Y-5460390D01*
X16018985Y-5261000D02*
X16417765Y-5261000D01*
X17648375Y-9061610D02*
X17648375Y-9460390D01*
X17448985Y-9261000D02*
X17847765Y-9261000D01*
X17887375Y-9061610D02*
X17887375Y-9460390D01*
X17687985Y-9261000D02*
X18086765Y-9261000D01*
X18601313Y-3346610D02*
X18601313Y-3745390D01*
X18401923Y-3546000D02*
X18800703Y-3546000D01*
X18601313Y-5251610D02*
X18601313Y-5650390D01*
X18401923Y-5451000D02*
X18800703Y-5451000D01*
X18601313Y-7156610D02*
X18601313Y-7555390D01*
X18401923Y-7356000D02*
X18800703Y-7356000D01*
X19789000Y-9061610D02*
X19789000Y-9460390D01*
X19589610Y-9261000D02*
X19988390Y-9261000D01*
X20030375Y-9060610D02*
X20030375Y-9459390D01*
X19830985Y-9260000D02*
X20229765Y-9260000D01*
X20506375Y-3157610D02*
X20506375Y-3556390D01*
X20306985Y-3357000D02*
X20705765Y-3357000D01*
X20506375Y-5062610D02*
X20506375Y-5461390D01*
X20306985Y-5262000D02*
X20705765Y-5262000D01*
X20506375Y-6967610D02*
X20506375Y-7366390D01*
X20306985Y-7167000D02*
X20705765Y-7167000D01*
X21935625Y-8872610D02*
X21935625Y-9271390D01*
X21736235Y-9072000D02*
X22135015Y-9072000D01*
X22411375Y-2871610D02*
X22411375Y-3270390D01*
X22211985Y-3071000D02*
X22610765Y-3071000D01*
X22411375Y-4776610D02*
X22411375Y-5175390D01*
X22211985Y-4976000D02*
X22610765Y-4976000D01*
X22411375Y-6681610D02*
X22411375Y-7080390D01*
X22211985Y-6881000D02*
X22610765Y-6881000D01*
X24078750Y-8872610D02*
X24078750Y-9271390D01*
X23879360Y-9072000D02*
X24278140Y-9072000D01*
X24316875Y-3157610D02*
X24316875Y-3556390D01*
X24117485Y-3357000D02*
X24516265Y-3357000D01*
X24316875Y-5062610D02*
X24316875Y-5461390D01*
X24117485Y-5262000D02*
X24516265Y-5262000D01*
X24316875Y-6967610D02*
X24316875Y-7366390D01*
X24117485Y-7167000D02*
X24516265Y-7167000D01*
X26220375Y-3442610D02*
X26220375Y-3841390D01*
X26020985Y-3642000D02*
X26419765Y-3642000D01*
X26220375Y-5347610D02*
X26220375Y-5746390D01*
X26020985Y-5547000D02*
X26419765Y-5547000D01*
X26220375Y-7252610D02*
X26220375Y-7651390D01*
X26020985Y-7452000D02*
X26419765Y-7452000D01*
X26220375Y-9157610D02*
X26220375Y-9556390D01*
X26020985Y-9357000D02*
X26419765Y-9357000D01*
X28126375Y-3252610D02*
X28126375Y-3651390D01*
X27926985Y-3452000D02*
X28325765Y-3452000D01*
X28602625Y-5157610D02*
X28602625Y-5556390D01*
X28403235Y-5357000D02*
X28802015Y-5357000D01*
X28840750Y-7062610D02*
X28840750Y-7461390D01*
X28641360Y-7262000D02*
X29040140Y-7262000D01*
X29317000Y-8967610D02*
X29317000Y-9366390D01*
X29117610Y-9167000D02*
X29516390Y-9167000D01*
D10*
X1544782Y-11055311D02*
X1544782Y-10855311D01*
X1592401Y-10855311D01*
X1620972Y-10864835D01*
X1640020Y-10883883D01*
X1649544Y-10902930D01*
X1659067Y-10941025D01*
X1659067Y-10969597D01*
X1649544Y-11007692D01*
X1640020Y-11026740D01*
X1620972Y-11045787D01*
X1592401Y-11055311D01*
X1544782Y-11055311D01*
X1744782Y-11055311D02*
X1744782Y-10921978D01*
X1744782Y-10960073D02*
X1754306Y-10941025D01*
X1763829Y-10931502D01*
X1782877Y-10921978D01*
X1801925Y-10921978D01*
X1868591Y-11055311D02*
X1868591Y-10921978D01*
X1868591Y-10855311D02*
X1859067Y-10864835D01*
X1868591Y-10874359D01*
X1878115Y-10864835D01*
X1868591Y-10855311D01*
X1868591Y-10874359D01*
X1992401Y-11055311D02*
X1973353Y-11045787D01*
X1963829Y-11026740D01*
X1963829Y-10855311D01*
X2097163Y-11055311D02*
X2078115Y-11045787D01*
X2068591Y-11026740D01*
X2068591Y-10855311D01*
X2325734Y-11055311D02*
X2325734Y-10855311D01*
X2392401Y-10998168D01*
X2459068Y-10855311D01*
X2459068Y-11055311D01*
X2640020Y-11055311D02*
X2640020Y-10950549D01*
X2630496Y-10931502D01*
X2611449Y-10921978D01*
X2573353Y-10921978D01*
X2554306Y-10931502D01*
X2640020Y-11045787D02*
X2620972Y-11055311D01*
X2573353Y-11055311D01*
X2554306Y-11045787D01*
X2544782Y-11026740D01*
X2544782Y-11007692D01*
X2554306Y-10988645D01*
X2573353Y-10979121D01*
X2620972Y-10979121D01*
X2640020Y-10969597D01*
X2735258Y-10921978D02*
X2735258Y-11121978D01*
X2735258Y-10931502D02*
X2754306Y-10921978D01*
X2792401Y-10921978D01*
X2811448Y-10931502D01*
X2820972Y-10941025D01*
X2830496Y-10960073D01*
X2830496Y-11017216D01*
X2820972Y-11036264D01*
X2811448Y-11045787D01*
X2792401Y-11055311D01*
X2754306Y-11055311D01*
X2735258Y-11045787D01*
X2916210Y-11036264D02*
X2925734Y-11045787D01*
X2916210Y-11055311D01*
X2906687Y-11045787D01*
X2916210Y-11036264D01*
X2916210Y-11055311D01*
X2916210Y-10931502D02*
X2925734Y-10941025D01*
X2916210Y-10950549D01*
X2906687Y-10941025D01*
X2916210Y-10931502D01*
X2916210Y-10950549D01*
D11*
X1222163Y-11352335D02*
X1287163Y-11417335D01*
X1287163Y-11352335D02*
X1222163Y-11417335D01*
D10*
X1582877Y-11275311D02*
X1601925Y-11275311D01*
X1620972Y-11284835D01*
X1630496Y-11294359D01*
X1640020Y-11313406D01*
X1649544Y-11351502D01*
X1649544Y-11399121D01*
X1640020Y-11437216D01*
X1630496Y-11456263D01*
X1620972Y-11465787D01*
X1601925Y-11475311D01*
X1582877Y-11475311D01*
X1563829Y-11465787D01*
X1554306Y-11456263D01*
X1544782Y-11437216D01*
X1535258Y-11399121D01*
X1535258Y-11351502D01*
X1544782Y-11313406D01*
X1554306Y-11294359D01*
X1563829Y-11284835D01*
X1582877Y-11275311D01*
X1735258Y-11456263D02*
X1744782Y-11465787D01*
X1735258Y-11475311D01*
X1725734Y-11465787D01*
X1735258Y-11456263D01*
X1735258Y-11475311D01*
X1916210Y-11275311D02*
X1878115Y-11275311D01*
X1859067Y-11284835D01*
X1849544Y-11294359D01*
X1830496Y-11322930D01*
X1820972Y-11361025D01*
X1820972Y-11437216D01*
X1830496Y-11456263D01*
X1840020Y-11465787D01*
X1859067Y-11475311D01*
X1897163Y-11475311D01*
X1916210Y-11465787D01*
X1925734Y-11456263D01*
X1935258Y-11437216D01*
X1935258Y-11389597D01*
X1925734Y-11370549D01*
X1916210Y-11361025D01*
X1897163Y-11351502D01*
X1859067Y-11351502D01*
X1840020Y-11361025D01*
X1830496Y-11370549D01*
X1820972Y-11389597D01*
X2116210Y-11275311D02*
X2020972Y-11275311D01*
X2011448Y-11370549D01*
X2020972Y-11361025D01*
X2040020Y-11351502D01*
X2087639Y-11351502D01*
X2106687Y-11361025D01*
X2116210Y-11370549D01*
X2125734Y-11389597D01*
X2125734Y-11437216D01*
X2116210Y-11456263D01*
X2106687Y-11465787D01*
X2087639Y-11475311D01*
X2040020Y-11475311D01*
X2020972Y-11465787D01*
X2011448Y-11456263D01*
X2249544Y-11275311D02*
X2268591Y-11275311D01*
X2287639Y-11284835D01*
X2297163Y-11294359D01*
X2306687Y-11313406D01*
X2316210Y-11351502D01*
X2316210Y-11399121D01*
X2306687Y-11437216D01*
X2297163Y-11456263D01*
X2287639Y-11465787D01*
X2268591Y-11475311D01*
X2249544Y-11475311D01*
X2230496Y-11465787D01*
X2220972Y-11456263D01*
X2211449Y-11437216D01*
X2201925Y-11399121D01*
X2201925Y-11351502D01*
X2211449Y-11313406D01*
X2220972Y-11294359D01*
X2230496Y-11284835D01*
X2249544Y-11275311D01*
X2401925Y-11475311D02*
X2401925Y-11341978D01*
X2401925Y-11361025D02*
X2411449Y-11351502D01*
X2430496Y-11341978D01*
X2459068Y-11341978D01*
X2478115Y-11351502D01*
X2487639Y-11370549D01*
X2487639Y-11475311D01*
X2487639Y-11370549D02*
X2497163Y-11351502D01*
X2516210Y-11341978D01*
X2544782Y-11341978D01*
X2563829Y-11351502D01*
X2573353Y-11370549D01*
X2573353Y-11475311D01*
X2668591Y-11475311D02*
X2668591Y-11341978D01*
X2668591Y-11361025D02*
X2678115Y-11351502D01*
X2697163Y-11341978D01*
X2725734Y-11341978D01*
X2744782Y-11351502D01*
X2754306Y-11370549D01*
X2754306Y-11475311D01*
X2754306Y-11370549D02*
X2763829Y-11351502D01*
X2782877Y-11341978D01*
X2811448Y-11341978D01*
X2830496Y-11351502D01*
X2840020Y-11370549D01*
X2840020Y-11475311D01*
X3230496Y-11265787D02*
X3059067Y-11522930D01*
X3487639Y-11275311D02*
X3506687Y-11275311D01*
X3525734Y-11284835D01*
X3535258Y-11294359D01*
X3544782Y-11313406D01*
X3554306Y-11351502D01*
X3554306Y-11399121D01*
X3544782Y-11437216D01*
X3535258Y-11456263D01*
X3525734Y-11465787D01*
X3506687Y-11475311D01*
X3487639Y-11475311D01*
X3468591Y-11465787D01*
X3459067Y-11456263D01*
X3449544Y-11437216D01*
X3440020Y-11399121D01*
X3440020Y-11351502D01*
X3449544Y-11313406D01*
X3459067Y-11294359D01*
X3468591Y-11284835D01*
X3487639Y-11275311D01*
X3640020Y-11456263D02*
X3649544Y-11465787D01*
X3640020Y-11475311D01*
X3630496Y-11465787D01*
X3640020Y-11456263D01*
X3640020Y-11475311D01*
X3773353Y-11275311D02*
X3792401Y-11275311D01*
X3811448Y-11284835D01*
X3820972Y-11294359D01*
X3830496Y-11313406D01*
X3840020Y-11351502D01*
X3840020Y-11399121D01*
X3830496Y-11437216D01*
X3820972Y-11456263D01*
X3811448Y-11465787D01*
X3792401Y-11475311D01*
X3773353Y-11475311D01*
X3754306Y-11465787D01*
X3744782Y-11456263D01*
X3735258Y-11437216D01*
X3725734Y-11399121D01*
X3725734Y-11351502D01*
X3735258Y-11313406D01*
X3744782Y-11294359D01*
X3754306Y-11284835D01*
X3773353Y-11275311D01*
X3916210Y-11294359D02*
X3925734Y-11284835D01*
X3944782Y-11275311D01*
X3992401Y-11275311D01*
X4011448Y-11284835D01*
X4020972Y-11294359D01*
X4030496Y-11313406D01*
X4030496Y-11332454D01*
X4020972Y-11361025D01*
X3906687Y-11475311D01*
X4030496Y-11475311D01*
X4211449Y-11275311D02*
X4116210Y-11275311D01*
X4106687Y-11370549D01*
X4116210Y-11361025D01*
X4135258Y-11351502D01*
X4182877Y-11351502D01*
X4201925Y-11361025D01*
X4211449Y-11370549D01*
X4220972Y-11389597D01*
X4220972Y-11437216D01*
X4211449Y-11456263D01*
X4201925Y-11465787D01*
X4182877Y-11475311D01*
X4135258Y-11475311D01*
X4116210Y-11465787D01*
X4106687Y-11456263D01*
X4392401Y-11275311D02*
X4354306Y-11275311D01*
X4335258Y-11284835D01*
X4325734Y-11294359D01*
X4306687Y-11322930D01*
X4297163Y-11361025D01*
X4297163Y-11437216D01*
X4306687Y-11456263D01*
X4316210Y-11465787D01*
X4335258Y-11475311D01*
X4373353Y-11475311D01*
X4392401Y-11465787D01*
X4401925Y-11456263D01*
X4411449Y-11437216D01*
X4411449Y-11389597D01*
X4401925Y-11370549D01*
X4392401Y-11361025D01*
X4373353Y-11351502D01*
X4335258Y-11351502D01*
X4316210Y-11361025D01*
X4306687Y-11370549D01*
X4297163Y-11389597D01*
X4487639Y-11275311D02*
X4487639Y-11313406D01*
X4563829Y-11275311D02*
X4563829Y-11313406D01*
X4859068Y-11551502D02*
X4849544Y-11541978D01*
X4830496Y-11513406D01*
X4820972Y-11494359D01*
X4811449Y-11465787D01*
X4801925Y-11418168D01*
X4801925Y-11380073D01*
X4811449Y-11332454D01*
X4820972Y-11303883D01*
X4830496Y-11284835D01*
X4849544Y-11256263D01*
X4859068Y-11246740D01*
X4925734Y-11294359D02*
X4935258Y-11284835D01*
X4954306Y-11275311D01*
X5001925Y-11275311D01*
X5020972Y-11284835D01*
X5030496Y-11294359D01*
X5040020Y-11313406D01*
X5040020Y-11332454D01*
X5030496Y-11361025D01*
X4916210Y-11475311D01*
X5040020Y-11475311D01*
X5278115Y-11475311D02*
X5278115Y-11275311D01*
X5363829Y-11475311D02*
X5363829Y-11370549D01*
X5354306Y-11351502D01*
X5335258Y-11341978D01*
X5306687Y-11341978D01*
X5287639Y-11351502D01*
X5278115Y-11361025D01*
X5487639Y-11475311D02*
X5468591Y-11465787D01*
X5459068Y-11456263D01*
X5449544Y-11437216D01*
X5449544Y-11380073D01*
X5459068Y-11361025D01*
X5468591Y-11351502D01*
X5487639Y-11341978D01*
X5516210Y-11341978D01*
X5535258Y-11351502D01*
X5544782Y-11361025D01*
X5554306Y-11380073D01*
X5554306Y-11437216D01*
X5544782Y-11456263D01*
X5535258Y-11465787D01*
X5516210Y-11475311D01*
X5487639Y-11475311D01*
X5668591Y-11475311D02*
X5649544Y-11465787D01*
X5640020Y-11446740D01*
X5640020Y-11275311D01*
X5820972Y-11465787D02*
X5801925Y-11475311D01*
X5763829Y-11475311D01*
X5744782Y-11465787D01*
X5735258Y-11446740D01*
X5735258Y-11370549D01*
X5744782Y-11351502D01*
X5763829Y-11341978D01*
X5801925Y-11341978D01*
X5820972Y-11351502D01*
X5830496Y-11370549D01*
X5830496Y-11389597D01*
X5735258Y-11408644D01*
X5906687Y-11465787D02*
X5925734Y-11475311D01*
X5963829Y-11475311D01*
X5982877Y-11465787D01*
X5992401Y-11446740D01*
X5992401Y-11437216D01*
X5982877Y-11418168D01*
X5963829Y-11408644D01*
X5935258Y-11408644D01*
X5916210Y-11399121D01*
X5906687Y-11380073D01*
X5906687Y-11370549D01*
X5916210Y-11351502D01*
X5935258Y-11341978D01*
X5963829Y-11341978D01*
X5982877Y-11351502D01*
X6059067Y-11551502D02*
X6068591Y-11541978D01*
X6087639Y-11513406D01*
X6097163Y-11494359D01*
X6106687Y-11465787D01*
X6116210Y-11418168D01*
X6116210Y-11380073D01*
X6106687Y-11332454D01*
X6097163Y-11303883D01*
X6087639Y-11284835D01*
X6068591Y-11256263D01*
X6059067Y-11246740D01*
X6420972Y-11551502D02*
X6411448Y-11541978D01*
X6392401Y-11513406D01*
X6382877Y-11494359D01*
X6373353Y-11465787D01*
X6363829Y-11418168D01*
X6363829Y-11380073D01*
X6373353Y-11332454D01*
X6382877Y-11303883D01*
X6392401Y-11284835D01*
X6411448Y-11256263D01*
X6420972Y-11246740D01*
X6497163Y-11341978D02*
X6497163Y-11475311D01*
X6497163Y-11361025D02*
X6506687Y-11351502D01*
X6525734Y-11341978D01*
X6554306Y-11341978D01*
X6573353Y-11351502D01*
X6582877Y-11370549D01*
X6582877Y-11475311D01*
X6706687Y-11475311D02*
X6687639Y-11465787D01*
X6678115Y-11456263D01*
X6668591Y-11437216D01*
X6668591Y-11380073D01*
X6678115Y-11361025D01*
X6687639Y-11351502D01*
X6706687Y-11341978D01*
X6735258Y-11341978D01*
X6754306Y-11351502D01*
X6763829Y-11361025D01*
X6773353Y-11380073D01*
X6773353Y-11437216D01*
X6763829Y-11456263D01*
X6754306Y-11465787D01*
X6735258Y-11475311D01*
X6706687Y-11475311D01*
X6830496Y-11341978D02*
X6906687Y-11341978D01*
X6859067Y-11275311D02*
X6859067Y-11446740D01*
X6868591Y-11465787D01*
X6887639Y-11475311D01*
X6906687Y-11475311D01*
X7125734Y-11341978D02*
X7125734Y-11541978D01*
X7125734Y-11351502D02*
X7144782Y-11341978D01*
X7182877Y-11341978D01*
X7201925Y-11351502D01*
X7211448Y-11361025D01*
X7220972Y-11380073D01*
X7220972Y-11437216D01*
X7211448Y-11456263D01*
X7201925Y-11465787D01*
X7182877Y-11475311D01*
X7144782Y-11475311D01*
X7125734Y-11465787D01*
X7335258Y-11475311D02*
X7316210Y-11465787D01*
X7306687Y-11446740D01*
X7306687Y-11275311D01*
X7497163Y-11475311D02*
X7497163Y-11370549D01*
X7487639Y-11351502D01*
X7468591Y-11341978D01*
X7430496Y-11341978D01*
X7411448Y-11351502D01*
X7497163Y-11465787D02*
X7478115Y-11475311D01*
X7430496Y-11475311D01*
X7411448Y-11465787D01*
X7401925Y-11446740D01*
X7401925Y-11427692D01*
X7411448Y-11408644D01*
X7430496Y-11399121D01*
X7478115Y-11399121D01*
X7497163Y-11389597D01*
X7563829Y-11341978D02*
X7640020Y-11341978D01*
X7592401Y-11275311D02*
X7592401Y-11446740D01*
X7601925Y-11465787D01*
X7620972Y-11475311D01*
X7640020Y-11475311D01*
X7782877Y-11465787D02*
X7763829Y-11475311D01*
X7725734Y-11475311D01*
X7706687Y-11465787D01*
X7697163Y-11446740D01*
X7697163Y-11370549D01*
X7706687Y-11351502D01*
X7725734Y-11341978D01*
X7763829Y-11341978D01*
X7782877Y-11351502D01*
X7792401Y-11370549D01*
X7792401Y-11389597D01*
X7697163Y-11408644D01*
X7963829Y-11475311D02*
X7963829Y-11275311D01*
X7963829Y-11465787D02*
X7944782Y-11475311D01*
X7906687Y-11475311D01*
X7887639Y-11465787D01*
X7878115Y-11456263D01*
X7868591Y-11437216D01*
X7868591Y-11380073D01*
X7878115Y-11361025D01*
X7887639Y-11351502D01*
X7906687Y-11341978D01*
X7944782Y-11341978D01*
X7963829Y-11351502D01*
X8040020Y-11551502D02*
X8049544Y-11541978D01*
X8068591Y-11513406D01*
X8078115Y-11494359D01*
X8087639Y-11465787D01*
X8097163Y-11418168D01*
X8097163Y-11380073D01*
X8087639Y-11332454D01*
X8078115Y-11303883D01*
X8068591Y-11284835D01*
X8049544Y-11256263D01*
X8040020Y-11246740D01*
D12*
X1287163Y-11648835D02*
G75*
G03*
X1287163Y-11648835I-87500J0D01*
G01*
D10*
X1649544Y-11739311D02*
X1535258Y-11739311D01*
X1592401Y-11739311D02*
X1592401Y-11539311D01*
X1573353Y-11567883D01*
X1554306Y-11586930D01*
X1535258Y-11596454D01*
X1735258Y-11720263D02*
X1744782Y-11729787D01*
X1735258Y-11739311D01*
X1725734Y-11729787D01*
X1735258Y-11720263D01*
X1735258Y-11739311D01*
X1811448Y-11539311D02*
X1944782Y-11539311D01*
X1859067Y-11739311D01*
X2116210Y-11539311D02*
X2020972Y-11539311D01*
X2011448Y-11634549D01*
X2020972Y-11625025D01*
X2040020Y-11615502D01*
X2087639Y-11615502D01*
X2106687Y-11625025D01*
X2116210Y-11634549D01*
X2125734Y-11653597D01*
X2125734Y-11701216D01*
X2116210Y-11720263D01*
X2106687Y-11729787D01*
X2087639Y-11739311D01*
X2040020Y-11739311D01*
X2020972Y-11729787D01*
X2011448Y-11720263D01*
X2249544Y-11539311D02*
X2268591Y-11539311D01*
X2287639Y-11548835D01*
X2297163Y-11558359D01*
X2306687Y-11577406D01*
X2316210Y-11615502D01*
X2316210Y-11663121D01*
X2306687Y-11701216D01*
X2297163Y-11720263D01*
X2287639Y-11729787D01*
X2268591Y-11739311D01*
X2249544Y-11739311D01*
X2230496Y-11729787D01*
X2220972Y-11720263D01*
X2211449Y-11701216D01*
X2201925Y-11663121D01*
X2201925Y-11615502D01*
X2211449Y-11577406D01*
X2220972Y-11558359D01*
X2230496Y-11548835D01*
X2249544Y-11539311D01*
X2401925Y-11739311D02*
X2401925Y-11605978D01*
X2401925Y-11625025D02*
X2411449Y-11615502D01*
X2430496Y-11605978D01*
X2459068Y-11605978D01*
X2478115Y-11615502D01*
X2487639Y-11634549D01*
X2487639Y-11739311D01*
X2487639Y-11634549D02*
X2497163Y-11615502D01*
X2516210Y-11605978D01*
X2544782Y-11605978D01*
X2563829Y-11615502D01*
X2573353Y-11634549D01*
X2573353Y-11739311D01*
X2668591Y-11739311D02*
X2668591Y-11605978D01*
X2668591Y-11625025D02*
X2678115Y-11615502D01*
X2697163Y-11605978D01*
X2725734Y-11605978D01*
X2744782Y-11615502D01*
X2754306Y-11634549D01*
X2754306Y-11739311D01*
X2754306Y-11634549D02*
X2763829Y-11615502D01*
X2782877Y-11605978D01*
X2811448Y-11605978D01*
X2830496Y-11615502D01*
X2840020Y-11634549D01*
X2840020Y-11739311D01*
X3230496Y-11529787D02*
X3059067Y-11786930D01*
X3487639Y-11539311D02*
X3506687Y-11539311D01*
X3525734Y-11548835D01*
X3535258Y-11558359D01*
X3544782Y-11577406D01*
X3554306Y-11615502D01*
X3554306Y-11663121D01*
X3544782Y-11701216D01*
X3535258Y-11720263D01*
X3525734Y-11729787D01*
X3506687Y-11739311D01*
X3487639Y-11739311D01*
X3468591Y-11729787D01*
X3459067Y-11720263D01*
X3449544Y-11701216D01*
X3440020Y-11663121D01*
X3440020Y-11615502D01*
X3449544Y-11577406D01*
X3459067Y-11558359D01*
X3468591Y-11548835D01*
X3487639Y-11539311D01*
X3640020Y-11720263D02*
X3649544Y-11729787D01*
X3640020Y-11739311D01*
X3630496Y-11729787D01*
X3640020Y-11720263D01*
X3640020Y-11739311D01*
X3773353Y-11539311D02*
X3792401Y-11539311D01*
X3811448Y-11548835D01*
X3820972Y-11558359D01*
X3830496Y-11577406D01*
X3840020Y-11615502D01*
X3840020Y-11663121D01*
X3830496Y-11701216D01*
X3820972Y-11720263D01*
X3811448Y-11729787D01*
X3792401Y-11739311D01*
X3773353Y-11739311D01*
X3754306Y-11729787D01*
X3744782Y-11720263D01*
X3735258Y-11701216D01*
X3725734Y-11663121D01*
X3725734Y-11615502D01*
X3735258Y-11577406D01*
X3744782Y-11558359D01*
X3754306Y-11548835D01*
X3773353Y-11539311D01*
X4011448Y-11539311D02*
X3973353Y-11539311D01*
X3954306Y-11548835D01*
X3944782Y-11558359D01*
X3925734Y-11586930D01*
X3916210Y-11625025D01*
X3916210Y-11701216D01*
X3925734Y-11720263D01*
X3935258Y-11729787D01*
X3954306Y-11739311D01*
X3992401Y-11739311D01*
X4011448Y-11729787D01*
X4020972Y-11720263D01*
X4030496Y-11701216D01*
X4030496Y-11653597D01*
X4020972Y-11634549D01*
X4011448Y-11625025D01*
X3992401Y-11615502D01*
X3954306Y-11615502D01*
X3935258Y-11625025D01*
X3925734Y-11634549D01*
X3916210Y-11653597D01*
X4144782Y-11625025D02*
X4125734Y-11615502D01*
X4116210Y-11605978D01*
X4106687Y-11586930D01*
X4106687Y-11577406D01*
X4116210Y-11558359D01*
X4125734Y-11548835D01*
X4144782Y-11539311D01*
X4182877Y-11539311D01*
X4201925Y-11548835D01*
X4211449Y-11558359D01*
X4220972Y-11577406D01*
X4220972Y-11586930D01*
X4211449Y-11605978D01*
X4201925Y-11615502D01*
X4182877Y-11625025D01*
X4144782Y-11625025D01*
X4125734Y-11634549D01*
X4116210Y-11644073D01*
X4106687Y-11663121D01*
X4106687Y-11701216D01*
X4116210Y-11720263D01*
X4125734Y-11729787D01*
X4144782Y-11739311D01*
X4182877Y-11739311D01*
X4201925Y-11729787D01*
X4211449Y-11720263D01*
X4220972Y-11701216D01*
X4220972Y-11663121D01*
X4211449Y-11644073D01*
X4201925Y-11634549D01*
X4182877Y-11625025D01*
X4316210Y-11739311D02*
X4354306Y-11739311D01*
X4373353Y-11729787D01*
X4382877Y-11720263D01*
X4401925Y-11691692D01*
X4411449Y-11653597D01*
X4411449Y-11577406D01*
X4401925Y-11558359D01*
X4392401Y-11548835D01*
X4373353Y-11539311D01*
X4335258Y-11539311D01*
X4316210Y-11548835D01*
X4306687Y-11558359D01*
X4297163Y-11577406D01*
X4297163Y-11625025D01*
X4306687Y-11644073D01*
X4316210Y-11653597D01*
X4335258Y-11663121D01*
X4373353Y-11663121D01*
X4392401Y-11653597D01*
X4401925Y-11644073D01*
X4411449Y-11625025D01*
X4487639Y-11539311D02*
X4487639Y-11577406D01*
X4563829Y-11539311D02*
X4563829Y-11577406D01*
X4859068Y-11815502D02*
X4849544Y-11805978D01*
X4830496Y-11777406D01*
X4820972Y-11758359D01*
X4811449Y-11729787D01*
X4801925Y-11682168D01*
X4801925Y-11644073D01*
X4811449Y-11596454D01*
X4820972Y-11567883D01*
X4830496Y-11548835D01*
X4849544Y-11520263D01*
X4859068Y-11510740D01*
X5040020Y-11739311D02*
X4925734Y-11739311D01*
X4982877Y-11739311D02*
X4982877Y-11539311D01*
X4963829Y-11567883D01*
X4944782Y-11586930D01*
X4925734Y-11596454D01*
X5163829Y-11539311D02*
X5182877Y-11539311D01*
X5201925Y-11548835D01*
X5211449Y-11558359D01*
X5220972Y-11577406D01*
X5230496Y-11615502D01*
X5230496Y-11663121D01*
X5220972Y-11701216D01*
X5211449Y-11720263D01*
X5201925Y-11729787D01*
X5182877Y-11739311D01*
X5163829Y-11739311D01*
X5144782Y-11729787D01*
X5135258Y-11720263D01*
X5125734Y-11701216D01*
X5116210Y-11663121D01*
X5116210Y-11615502D01*
X5125734Y-11577406D01*
X5135258Y-11558359D01*
X5144782Y-11548835D01*
X5163829Y-11539311D01*
X5344782Y-11625025D02*
X5325734Y-11615502D01*
X5316210Y-11605978D01*
X5306687Y-11586930D01*
X5306687Y-11577406D01*
X5316210Y-11558359D01*
X5325734Y-11548835D01*
X5344782Y-11539311D01*
X5382877Y-11539311D01*
X5401925Y-11548835D01*
X5411449Y-11558359D01*
X5420972Y-11577406D01*
X5420972Y-11586930D01*
X5411449Y-11605978D01*
X5401925Y-11615502D01*
X5382877Y-11625025D01*
X5344782Y-11625025D01*
X5325734Y-11634549D01*
X5316210Y-11644073D01*
X5306687Y-11663121D01*
X5306687Y-11701216D01*
X5316210Y-11720263D01*
X5325734Y-11729787D01*
X5344782Y-11739311D01*
X5382877Y-11739311D01*
X5401925Y-11729787D01*
X5411449Y-11720263D01*
X5420972Y-11701216D01*
X5420972Y-11663121D01*
X5411449Y-11644073D01*
X5401925Y-11634549D01*
X5382877Y-11625025D01*
X5659067Y-11739311D02*
X5659067Y-11539311D01*
X5744782Y-11739311D02*
X5744782Y-11634549D01*
X5735258Y-11615502D01*
X5716210Y-11605978D01*
X5687639Y-11605978D01*
X5668591Y-11615502D01*
X5659067Y-11625025D01*
X5868591Y-11739311D02*
X5849544Y-11729787D01*
X5840020Y-11720263D01*
X5830496Y-11701216D01*
X5830496Y-11644073D01*
X5840020Y-11625025D01*
X5849544Y-11615502D01*
X5868591Y-11605978D01*
X5897163Y-11605978D01*
X5916210Y-11615502D01*
X5925734Y-11625025D01*
X5935258Y-11644073D01*
X5935258Y-11701216D01*
X5925734Y-11720263D01*
X5916210Y-11729787D01*
X5897163Y-11739311D01*
X5868591Y-11739311D01*
X6049544Y-11739311D02*
X6030496Y-11729787D01*
X6020972Y-11710740D01*
X6020972Y-11539311D01*
X6201925Y-11729787D02*
X6182877Y-11739311D01*
X6144782Y-11739311D01*
X6125734Y-11729787D01*
X6116210Y-11710740D01*
X6116210Y-11634549D01*
X6125734Y-11615502D01*
X6144782Y-11605978D01*
X6182877Y-11605978D01*
X6201925Y-11615502D01*
X6211448Y-11634549D01*
X6211448Y-11653597D01*
X6116210Y-11672644D01*
X6287639Y-11729787D02*
X6306687Y-11739311D01*
X6344782Y-11739311D01*
X6363829Y-11729787D01*
X6373353Y-11710740D01*
X6373353Y-11701216D01*
X6363829Y-11682168D01*
X6344782Y-11672644D01*
X6316210Y-11672644D01*
X6297163Y-11663121D01*
X6287639Y-11644073D01*
X6287639Y-11634549D01*
X6297163Y-11615502D01*
X6316210Y-11605978D01*
X6344782Y-11605978D01*
X6363829Y-11615502D01*
X6440020Y-11815502D02*
X6449544Y-11805978D01*
X6468591Y-11777406D01*
X6478115Y-11758359D01*
X6487639Y-11729787D01*
X6497163Y-11682168D01*
X6497163Y-11644073D01*
X6487639Y-11596454D01*
X6478115Y-11567883D01*
X6468591Y-11548835D01*
X6449544Y-11520263D01*
X6440020Y-11510740D01*
X6801925Y-11815502D02*
X6792401Y-11805978D01*
X6773353Y-11777406D01*
X6763829Y-11758359D01*
X6754306Y-11729787D01*
X6744782Y-11682168D01*
X6744782Y-11644073D01*
X6754306Y-11596454D01*
X6763829Y-11567883D01*
X6773353Y-11548835D01*
X6792401Y-11520263D01*
X6801925Y-11510740D01*
X6878115Y-11605978D02*
X6878115Y-11739311D01*
X6878115Y-11625025D02*
X6887639Y-11615502D01*
X6906687Y-11605978D01*
X6935258Y-11605978D01*
X6954306Y-11615502D01*
X6963829Y-11634549D01*
X6963829Y-11739311D01*
X7087639Y-11739311D02*
X7068591Y-11729787D01*
X7059067Y-11720263D01*
X7049544Y-11701216D01*
X7049544Y-11644073D01*
X7059067Y-11625025D01*
X7068591Y-11615502D01*
X7087639Y-11605978D01*
X7116210Y-11605978D01*
X7135258Y-11615502D01*
X7144782Y-11625025D01*
X7154306Y-11644073D01*
X7154306Y-11701216D01*
X7144782Y-11720263D01*
X7135258Y-11729787D01*
X7116210Y-11739311D01*
X7087639Y-11739311D01*
X7211448Y-11605978D02*
X7287639Y-11605978D01*
X7240020Y-11539311D02*
X7240020Y-11710740D01*
X7249544Y-11729787D01*
X7268591Y-11739311D01*
X7287639Y-11739311D01*
X7506687Y-11605978D02*
X7506687Y-11805978D01*
X7506687Y-11615502D02*
X7525734Y-11605978D01*
X7563829Y-11605978D01*
X7582877Y-11615502D01*
X7592401Y-11625025D01*
X7601925Y-11644073D01*
X7601925Y-11701216D01*
X7592401Y-11720263D01*
X7582877Y-11729787D01*
X7563829Y-11739311D01*
X7525734Y-11739311D01*
X7506687Y-11729787D01*
X7716210Y-11739311D02*
X7697163Y-11729787D01*
X7687639Y-11710740D01*
X7687639Y-11539311D01*
X7878115Y-11739311D02*
X7878115Y-11634549D01*
X7868591Y-11615502D01*
X7849544Y-11605978D01*
X7811448Y-11605978D01*
X7792401Y-11615502D01*
X7878115Y-11729787D02*
X7859067Y-11739311D01*
X7811448Y-11739311D01*
X7792401Y-11729787D01*
X7782877Y-11710740D01*
X7782877Y-11691692D01*
X7792401Y-11672644D01*
X7811448Y-11663121D01*
X7859067Y-11663121D01*
X7878115Y-11653597D01*
X7944782Y-11605978D02*
X8020972Y-11605978D01*
X7973353Y-11539311D02*
X7973353Y-11710740D01*
X7982877Y-11729787D01*
X8001925Y-11739311D01*
X8020972Y-11739311D01*
X8163829Y-11729787D02*
X8144782Y-11739311D01*
X8106687Y-11739311D01*
X8087639Y-11729787D01*
X8078115Y-11710740D01*
X8078115Y-11634549D01*
X8087639Y-11615502D01*
X8106687Y-11605978D01*
X8144782Y-11605978D01*
X8163829Y-11615502D01*
X8173353Y-11634549D01*
X8173353Y-11653597D01*
X8078115Y-11672644D01*
X8344782Y-11739311D02*
X8344782Y-11539311D01*
X8344782Y-11729787D02*
X8325734Y-11739311D01*
X8287639Y-11739311D01*
X8268591Y-11729787D01*
X8259067Y-11720263D01*
X8249544Y-11701216D01*
X8249544Y-11644073D01*
X8259067Y-11625025D01*
X8268591Y-11615502D01*
X8287639Y-11605978D01*
X8325734Y-11605978D01*
X8344782Y-11615502D01*
X8420972Y-11815502D02*
X8430496Y-11805978D01*
X8449544Y-11777406D01*
X8459068Y-11758359D01*
X8468591Y-11729787D01*
X8478115Y-11682168D01*
X8478115Y-11644073D01*
X8468591Y-11596454D01*
X8459068Y-11567883D01*
X8449544Y-11548835D01*
X8430496Y-11520263D01*
X8420972Y-11510740D01*
X1187163Y-11843835D02*
X1187163Y-12043835D01*
X1087163Y-11943835D02*
X1287163Y-11943835D01*
X1525734Y-11834311D02*
X1649544Y-11834311D01*
X1582877Y-11910502D01*
X1611448Y-11910502D01*
X1630496Y-11920025D01*
X1640020Y-11929549D01*
X1649544Y-11948597D01*
X1649544Y-11996216D01*
X1640020Y-12015263D01*
X1630496Y-12024787D01*
X1611448Y-12034311D01*
X1554306Y-12034311D01*
X1535258Y-12024787D01*
X1525734Y-12015263D01*
X1735258Y-12015263D02*
X1744782Y-12024787D01*
X1735258Y-12034311D01*
X1725734Y-12024787D01*
X1735258Y-12015263D01*
X1735258Y-12034311D01*
X1840020Y-12034311D02*
X1878115Y-12034311D01*
X1897163Y-12024787D01*
X1906687Y-12015263D01*
X1925734Y-11986692D01*
X1935258Y-11948597D01*
X1935258Y-11872406D01*
X1925734Y-11853359D01*
X1916210Y-11843835D01*
X1897163Y-11834311D01*
X1859067Y-11834311D01*
X1840020Y-11843835D01*
X1830496Y-11853359D01*
X1820972Y-11872406D01*
X1820972Y-11920025D01*
X1830496Y-11939073D01*
X1840020Y-11948597D01*
X1859067Y-11958121D01*
X1897163Y-11958121D01*
X1916210Y-11948597D01*
X1925734Y-11939073D01*
X1935258Y-11920025D01*
X2049544Y-11920025D02*
X2030496Y-11910502D01*
X2020972Y-11900978D01*
X2011448Y-11881930D01*
X2011448Y-11872406D01*
X2020972Y-11853359D01*
X2030496Y-11843835D01*
X2049544Y-11834311D01*
X2087639Y-11834311D01*
X2106687Y-11843835D01*
X2116210Y-11853359D01*
X2125734Y-11872406D01*
X2125734Y-11881930D01*
X2116210Y-11900978D01*
X2106687Y-11910502D01*
X2087639Y-11920025D01*
X2049544Y-11920025D01*
X2030496Y-11929549D01*
X2020972Y-11939073D01*
X2011448Y-11958121D01*
X2011448Y-11996216D01*
X2020972Y-12015263D01*
X2030496Y-12024787D01*
X2049544Y-12034311D01*
X2087639Y-12034311D01*
X2106687Y-12024787D01*
X2116210Y-12015263D01*
X2125734Y-11996216D01*
X2125734Y-11958121D01*
X2116210Y-11939073D01*
X2106687Y-11929549D01*
X2087639Y-11920025D01*
X2240020Y-11920025D02*
X2220972Y-11910502D01*
X2211449Y-11900978D01*
X2201925Y-11881930D01*
X2201925Y-11872406D01*
X2211449Y-11853359D01*
X2220972Y-11843835D01*
X2240020Y-11834311D01*
X2278115Y-11834311D01*
X2297163Y-11843835D01*
X2306687Y-11853359D01*
X2316210Y-11872406D01*
X2316210Y-11881930D01*
X2306687Y-11900978D01*
X2297163Y-11910502D01*
X2278115Y-11920025D01*
X2240020Y-11920025D01*
X2220972Y-11929549D01*
X2211449Y-11939073D01*
X2201925Y-11958121D01*
X2201925Y-11996216D01*
X2211449Y-12015263D01*
X2220972Y-12024787D01*
X2240020Y-12034311D01*
X2278115Y-12034311D01*
X2297163Y-12024787D01*
X2306687Y-12015263D01*
X2316210Y-11996216D01*
X2316210Y-11958121D01*
X2306687Y-11939073D01*
X2297163Y-11929549D01*
X2278115Y-11920025D01*
X2401925Y-12034311D02*
X2401925Y-11900978D01*
X2401925Y-11920025D02*
X2411449Y-11910502D01*
X2430496Y-11900978D01*
X2459068Y-11900978D01*
X2478115Y-11910502D01*
X2487639Y-11929549D01*
X2487639Y-12034311D01*
X2487639Y-11929549D02*
X2497163Y-11910502D01*
X2516210Y-11900978D01*
X2544782Y-11900978D01*
X2563829Y-11910502D01*
X2573353Y-11929549D01*
X2573353Y-12034311D01*
X2668591Y-12034311D02*
X2668591Y-11900978D01*
X2668591Y-11920025D02*
X2678115Y-11910502D01*
X2697163Y-11900978D01*
X2725734Y-11900978D01*
X2744782Y-11910502D01*
X2754306Y-11929549D01*
X2754306Y-12034311D01*
X2754306Y-11929549D02*
X2763829Y-11910502D01*
X2782877Y-11900978D01*
X2811448Y-11900978D01*
X2830496Y-11910502D01*
X2840020Y-11929549D01*
X2840020Y-12034311D01*
X3230496Y-11824787D02*
X3059067Y-12081930D01*
X3487639Y-11834311D02*
X3506687Y-11834311D01*
X3525734Y-11843835D01*
X3535258Y-11853359D01*
X3544782Y-11872406D01*
X3554306Y-11910502D01*
X3554306Y-11958121D01*
X3544782Y-11996216D01*
X3535258Y-12015263D01*
X3525734Y-12024787D01*
X3506687Y-12034311D01*
X3487639Y-12034311D01*
X3468591Y-12024787D01*
X3459067Y-12015263D01*
X3449544Y-11996216D01*
X3440020Y-11958121D01*
X3440020Y-11910502D01*
X3449544Y-11872406D01*
X3459067Y-11853359D01*
X3468591Y-11843835D01*
X3487639Y-11834311D01*
X3640020Y-12015263D02*
X3649544Y-12024787D01*
X3640020Y-12034311D01*
X3630496Y-12024787D01*
X3640020Y-12015263D01*
X3640020Y-12034311D01*
X3840020Y-12034311D02*
X3725734Y-12034311D01*
X3782877Y-12034311D02*
X3782877Y-11834311D01*
X3763829Y-11862883D01*
X3744782Y-11881930D01*
X3725734Y-11891454D01*
X4020972Y-11834311D02*
X3925734Y-11834311D01*
X3916210Y-11929549D01*
X3925734Y-11920025D01*
X3944782Y-11910502D01*
X3992401Y-11910502D01*
X4011448Y-11920025D01*
X4020972Y-11929549D01*
X4030496Y-11948597D01*
X4030496Y-11996216D01*
X4020972Y-12015263D01*
X4011448Y-12024787D01*
X3992401Y-12034311D01*
X3944782Y-12034311D01*
X3925734Y-12024787D01*
X3916210Y-12015263D01*
X4097163Y-11834311D02*
X4230496Y-11834311D01*
X4144782Y-12034311D01*
X4344782Y-11834311D02*
X4363829Y-11834311D01*
X4382877Y-11843835D01*
X4392401Y-11853359D01*
X4401925Y-11872406D01*
X4411449Y-11910502D01*
X4411449Y-11958121D01*
X4401925Y-11996216D01*
X4392401Y-12015263D01*
X4382877Y-12024787D01*
X4363829Y-12034311D01*
X4344782Y-12034311D01*
X4325734Y-12024787D01*
X4316210Y-12015263D01*
X4306687Y-11996216D01*
X4297163Y-11958121D01*
X4297163Y-11910502D01*
X4306687Y-11872406D01*
X4316210Y-11853359D01*
X4325734Y-11843835D01*
X4344782Y-11834311D01*
X4487639Y-11834311D02*
X4487639Y-11872406D01*
X4563829Y-11834311D02*
X4563829Y-11872406D01*
X4859068Y-12110502D02*
X4849544Y-12100978D01*
X4830496Y-12072406D01*
X4820972Y-12053359D01*
X4811449Y-12024787D01*
X4801925Y-11977168D01*
X4801925Y-11939073D01*
X4811449Y-11891454D01*
X4820972Y-11862883D01*
X4830496Y-11843835D01*
X4849544Y-11815263D01*
X4859068Y-11805740D01*
X5030496Y-11834311D02*
X4935258Y-11834311D01*
X4925734Y-11929549D01*
X4935258Y-11920025D01*
X4954306Y-11910502D01*
X5001925Y-11910502D01*
X5020972Y-11920025D01*
X5030496Y-11929549D01*
X5040020Y-11948597D01*
X5040020Y-11996216D01*
X5030496Y-12015263D01*
X5020972Y-12024787D01*
X5001925Y-12034311D01*
X4954306Y-12034311D01*
X4935258Y-12024787D01*
X4925734Y-12015263D01*
X5211449Y-11900978D02*
X5211449Y-12034311D01*
X5163829Y-11824787D02*
X5116210Y-11967644D01*
X5240020Y-11967644D01*
X5468591Y-12034311D02*
X5468591Y-11834311D01*
X5554306Y-12034311D02*
X5554306Y-11929549D01*
X5544782Y-11910502D01*
X5525734Y-11900978D01*
X5497163Y-11900978D01*
X5478115Y-11910502D01*
X5468591Y-11920025D01*
X5678115Y-12034311D02*
X5659067Y-12024787D01*
X5649544Y-12015263D01*
X5640020Y-11996216D01*
X5640020Y-11939073D01*
X5649544Y-11920025D01*
X5659067Y-11910502D01*
X5678115Y-11900978D01*
X5706687Y-11900978D01*
X5725734Y-11910502D01*
X5735258Y-11920025D01*
X5744782Y-11939073D01*
X5744782Y-11996216D01*
X5735258Y-12015263D01*
X5725734Y-12024787D01*
X5706687Y-12034311D01*
X5678115Y-12034311D01*
X5859067Y-12034311D02*
X5840020Y-12024787D01*
X5830496Y-12005740D01*
X5830496Y-11834311D01*
X6011448Y-12024787D02*
X5992401Y-12034311D01*
X5954306Y-12034311D01*
X5935258Y-12024787D01*
X5925734Y-12005740D01*
X5925734Y-11929549D01*
X5935258Y-11910502D01*
X5954306Y-11900978D01*
X5992401Y-11900978D01*
X6011448Y-11910502D01*
X6020972Y-11929549D01*
X6020972Y-11948597D01*
X5925734Y-11967644D01*
X6097163Y-12024787D02*
X6116210Y-12034311D01*
X6154306Y-12034311D01*
X6173353Y-12024787D01*
X6182877Y-12005740D01*
X6182877Y-11996216D01*
X6173353Y-11977168D01*
X6154306Y-11967644D01*
X6125734Y-11967644D01*
X6106687Y-11958121D01*
X6097163Y-11939073D01*
X6097163Y-11929549D01*
X6106687Y-11910502D01*
X6125734Y-11900978D01*
X6154306Y-11900978D01*
X6173353Y-11910502D01*
X6249544Y-12110502D02*
X6259067Y-12100978D01*
X6278115Y-12072406D01*
X6287639Y-12053359D01*
X6297163Y-12024787D01*
X6306687Y-11977168D01*
X6306687Y-11939073D01*
X6297163Y-11891454D01*
X6287639Y-11862883D01*
X6278115Y-11843835D01*
X6259067Y-11815263D01*
X6249544Y-11805740D01*
X6611448Y-12110502D02*
X6601925Y-12100978D01*
X6582877Y-12072406D01*
X6573353Y-12053359D01*
X6563829Y-12024787D01*
X6554306Y-11977168D01*
X6554306Y-11939073D01*
X6563829Y-11891454D01*
X6573353Y-11862883D01*
X6582877Y-11843835D01*
X6601925Y-11815263D01*
X6611448Y-11805740D01*
X6687639Y-11900978D02*
X6687639Y-12034311D01*
X6687639Y-11920025D02*
X6697163Y-11910502D01*
X6716210Y-11900978D01*
X6744782Y-11900978D01*
X6763829Y-11910502D01*
X6773353Y-11929549D01*
X6773353Y-12034311D01*
X6897163Y-12034311D02*
X6878115Y-12024787D01*
X6868591Y-12015263D01*
X6859067Y-11996216D01*
X6859067Y-11939073D01*
X6868591Y-11920025D01*
X6878115Y-11910502D01*
X6897163Y-11900978D01*
X6925734Y-11900978D01*
X6944782Y-11910502D01*
X6954306Y-11920025D01*
X6963829Y-11939073D01*
X6963829Y-11996216D01*
X6954306Y-12015263D01*
X6944782Y-12024787D01*
X6925734Y-12034311D01*
X6897163Y-12034311D01*
X7020972Y-11900978D02*
X7097163Y-11900978D01*
X7049544Y-11834311D02*
X7049544Y-12005740D01*
X7059067Y-12024787D01*
X7078115Y-12034311D01*
X7097163Y-12034311D01*
X7316210Y-11900978D02*
X7316210Y-12100978D01*
X7316210Y-11910502D02*
X7335258Y-11900978D01*
X7373353Y-11900978D01*
X7392401Y-11910502D01*
X7401925Y-11920025D01*
X7411448Y-11939073D01*
X7411448Y-11996216D01*
X7401925Y-12015263D01*
X7392401Y-12024787D01*
X7373353Y-12034311D01*
X7335258Y-12034311D01*
X7316210Y-12024787D01*
X7525734Y-12034311D02*
X7506687Y-12024787D01*
X7497163Y-12005740D01*
X7497163Y-11834311D01*
X7687639Y-12034311D02*
X7687639Y-11929549D01*
X7678115Y-11910502D01*
X7659067Y-11900978D01*
X7620972Y-11900978D01*
X7601925Y-11910502D01*
X7687639Y-12024787D02*
X7668591Y-12034311D01*
X7620972Y-12034311D01*
X7601925Y-12024787D01*
X7592401Y-12005740D01*
X7592401Y-11986692D01*
X7601925Y-11967644D01*
X7620972Y-11958121D01*
X7668591Y-11958121D01*
X7687639Y-11948597D01*
X7754306Y-11900978D02*
X7830496Y-11900978D01*
X7782877Y-11834311D02*
X7782877Y-12005740D01*
X7792401Y-12024787D01*
X7811448Y-12034311D01*
X7830496Y-12034311D01*
X7973353Y-12024787D02*
X7954306Y-12034311D01*
X7916210Y-12034311D01*
X7897163Y-12024787D01*
X7887639Y-12005740D01*
X7887639Y-11929549D01*
X7897163Y-11910502D01*
X7916210Y-11900978D01*
X7954306Y-11900978D01*
X7973353Y-11910502D01*
X7982877Y-11929549D01*
X7982877Y-11948597D01*
X7887639Y-11967644D01*
X8154306Y-12034311D02*
X8154306Y-11834311D01*
X8154306Y-12024787D02*
X8135258Y-12034311D01*
X8097163Y-12034311D01*
X8078115Y-12024787D01*
X8068591Y-12015263D01*
X8059067Y-11996216D01*
X8059067Y-11939073D01*
X8068591Y-11920025D01*
X8078115Y-11910502D01*
X8097163Y-11900978D01*
X8135258Y-11900978D01*
X8154306Y-11910502D01*
X8230496Y-12110502D02*
X8240020Y-12100978D01*
X8259067Y-12072406D01*
X8268591Y-12053359D01*
X8278115Y-12024787D01*
X8287639Y-11977168D01*
X8287639Y-11939073D01*
X8278115Y-11891454D01*
X8268591Y-11862883D01*
X8259067Y-11843835D01*
X8240020Y-11815263D01*
X8230496Y-11805740D01*
M02*
