%TF.GenerationSoftware,KiCad,Pcbnew,(6.0.7)*%
%TF.CreationDate,2022-09-18T01:02:23+03:00*%
%TF.ProjectId,teethless40_csl_pcb_schema,74656574-686c-4657-9373-34305f63736c,rev?*%
%TF.SameCoordinates,Original*%
%TF.FileFunction,Soldermask,Top*%
%TF.FilePolarity,Negative*%
%FSLAX46Y46*%
G04 Gerber Fmt 4.6, Leading zero omitted, Abs format (unit mm)*
G04 Created by KiCad (PCBNEW (6.0.7)) date 2022-09-18 01:02:23*
%MOMM*%
%LPD*%
G01*
G04 APERTURE LIST*
%ADD10C,4.400000*%
%ADD11C,1.750000*%
%ADD12C,3.987800*%
%ADD13C,3.300000*%
%ADD14C,0.650000*%
%ADD15O,1.000000X1.600000*%
%ADD16O,1.000000X2.100000*%
%ADD17R,1.700000X1.700000*%
%ADD18C,1.700000*%
G04 APERTURE END LIST*
D10*
X304580000Y-95110000D03*
X31750000Y-41170000D03*
X19850000Y-95100000D03*
X292670000Y-41170000D03*
D11*
X133303750Y-73570000D03*
X143463750Y-73570000D03*
D12*
X138383750Y-73570000D03*
D13*
X134573750Y-71030000D03*
X140923750Y-68490000D03*
D11*
X119003750Y-92620000D03*
D12*
X124083750Y-92620000D03*
D11*
X129163750Y-92620000D03*
D13*
X120273750Y-90080000D03*
X126623750Y-87540000D03*
D11*
X224436250Y-90720000D03*
D12*
X219356250Y-90720000D03*
D11*
X214276250Y-90720000D03*
D13*
X215546250Y-88180000D03*
X221896250Y-85640000D03*
D11*
X133303750Y-54520000D03*
X143463750Y-54520000D03*
D12*
X138383750Y-54520000D03*
D13*
X134573750Y-51980000D03*
X140923750Y-49440000D03*
D12*
X43133125Y-34507500D03*
D11*
X38053125Y-34507500D03*
X48213125Y-34507500D03*
D13*
X39323125Y-31967500D03*
X45673125Y-29427500D03*
D11*
X171403750Y-92610000D03*
D12*
X176483750Y-92610000D03*
D11*
X181563750Y-92610000D03*
D13*
X172673750Y-90070000D03*
X179023750Y-87530000D03*
D14*
X159310000Y-26197636D03*
X165090000Y-26197636D03*
D15*
X166520000Y-22547636D03*
X157880000Y-22547636D03*
D16*
X166520000Y-26727636D03*
X157880000Y-26727636D03*
D11*
X210143750Y-71670000D03*
X199983750Y-71670000D03*
D12*
X205063750Y-71670000D03*
D13*
X201253750Y-69130000D03*
X207603750Y-66590000D03*
D12*
X38370625Y-53557500D03*
D11*
X33290625Y-53557500D03*
X43450625Y-53557500D03*
D13*
X34560625Y-51017500D03*
X40910625Y-48477500D03*
D11*
X267283750Y-93570000D03*
D12*
X262203750Y-93570000D03*
D11*
X257123750Y-93570000D03*
D13*
X258393750Y-91030000D03*
X264743750Y-88490000D03*
D11*
X86313750Y-33570000D03*
D12*
X81233750Y-33570000D03*
D11*
X76153750Y-33570000D03*
D13*
X77423750Y-31030000D03*
X83773750Y-28490000D03*
D12*
X100283750Y-49760000D03*
D11*
X105363750Y-49760000D03*
X95203750Y-49760000D03*
D13*
X96473750Y-47220000D03*
X102823750Y-44680000D03*
D11*
X219033750Y-49760000D03*
D12*
X224113750Y-49760000D03*
D11*
X229193750Y-49760000D03*
D13*
X220303750Y-47220000D03*
X226653750Y-44680000D03*
D11*
X167263750Y-33560000D03*
X157103750Y-33560000D03*
D12*
X162183750Y-33560000D03*
D13*
X165993750Y-36100000D03*
X159643750Y-38640000D03*
D11*
X26146875Y-91657500D03*
D12*
X31226875Y-91657500D03*
D11*
X36306875Y-91657500D03*
D13*
X27416875Y-89117500D03*
X33766875Y-86577500D03*
D11*
X124403750Y-33580000D03*
X114243750Y-33580000D03*
D12*
X119323750Y-33580000D03*
D13*
X115513750Y-31040000D03*
X121863750Y-28500000D03*
D11*
X105363750Y-68810000D03*
D12*
X100283750Y-68810000D03*
D11*
X95203750Y-68810000D03*
D13*
X96473750Y-66270000D03*
X102823750Y-63730000D03*
D11*
X173793750Y-92610000D03*
X183953750Y-92610000D03*
D12*
X178873750Y-92610000D03*
D13*
X182683750Y-95150000D03*
X176333750Y-97690000D03*
D12*
X286026250Y-53570000D03*
D11*
X291106250Y-53570000D03*
X280946250Y-53570000D03*
D13*
X282216250Y-51030000D03*
X288566250Y-48490000D03*
D12*
X288407500Y-72620000D03*
D11*
X283327500Y-72620000D03*
X293487500Y-72620000D03*
D13*
X284597500Y-70080000D03*
X290947500Y-67540000D03*
D11*
X248248750Y-71670000D03*
X238088750Y-71670000D03*
D12*
X243168750Y-71670000D03*
D13*
X239358750Y-69130000D03*
X245708750Y-66590000D03*
D12*
X81233750Y-52620000D03*
D11*
X76153750Y-52620000D03*
X86313750Y-52620000D03*
D13*
X77423750Y-50080000D03*
X83773750Y-47540000D03*
D12*
X119323750Y-52630000D03*
D11*
X124403750Y-52630000D03*
X114243750Y-52630000D03*
D13*
X115513750Y-50090000D03*
X121863750Y-47550000D03*
D12*
X162183750Y-52610000D03*
D11*
X157103750Y-52610000D03*
X167263750Y-52610000D03*
D13*
X158373750Y-50070000D03*
X164723750Y-47530000D03*
D12*
X62183750Y-55470000D03*
D11*
X67263750Y-55470000D03*
X57103750Y-55470000D03*
D13*
X58373750Y-52930000D03*
X64723750Y-50390000D03*
D12*
X200303750Y-92600000D03*
D11*
X205383750Y-92600000D03*
X195223750Y-92600000D03*
D13*
X204113750Y-95140000D03*
X197763750Y-97680000D03*
D11*
X229193750Y-68810000D03*
X219033750Y-68810000D03*
D12*
X224113750Y-68810000D03*
D13*
X220303750Y-66270000D03*
X226653750Y-63730000D03*
D11*
X95203750Y-30710000D03*
X105363750Y-30710000D03*
D12*
X100283750Y-30710000D03*
D13*
X96473750Y-28170000D03*
X102823750Y-25630000D03*
D11*
X57103750Y-93570000D03*
X67263750Y-93570000D03*
D12*
X62183750Y-93570000D03*
D13*
X58373750Y-91030000D03*
X64723750Y-88490000D03*
D11*
X67263750Y-74520000D03*
X57103750Y-74520000D03*
D12*
X62183750Y-74520000D03*
D13*
X58373750Y-71980000D03*
X64723750Y-69440000D03*
D12*
X197890000Y-92610000D03*
D11*
X202970000Y-92610000D03*
X192810000Y-92610000D03*
D13*
X194080000Y-90070000D03*
X200430000Y-87530000D03*
D11*
X210143750Y-33570000D03*
X199983750Y-33570000D03*
D12*
X205063750Y-33570000D03*
D13*
X201253750Y-31030000D03*
X207603750Y-28490000D03*
D12*
X262203750Y-36420000D03*
D11*
X257123750Y-36420000D03*
X267283750Y-36420000D03*
D13*
X258393750Y-33880000D03*
X264743750Y-31340000D03*
D11*
X276183750Y-34520000D03*
D12*
X281263750Y-34520000D03*
D11*
X286343750Y-34520000D03*
D13*
X277453750Y-31980000D03*
X283803750Y-29440000D03*
D11*
X110116250Y-90730000D03*
X99956250Y-90730000D03*
D12*
X105036250Y-90730000D03*
D13*
X101226250Y-88190000D03*
X107576250Y-85650000D03*
D12*
X243168750Y-52620000D03*
D11*
X238088750Y-52620000D03*
X248248750Y-52620000D03*
D13*
X239358750Y-50080000D03*
X245708750Y-47540000D03*
D11*
X229193750Y-30710000D03*
X219033750Y-30710000D03*
D12*
X224113750Y-30710000D03*
D13*
X220303750Y-28170000D03*
X226653750Y-25630000D03*
D12*
X145503750Y-92610000D03*
D11*
X150583750Y-92610000D03*
X140423750Y-92610000D03*
D13*
X141693750Y-90070000D03*
X148043750Y-87530000D03*
D12*
X81233750Y-71670000D03*
D11*
X76153750Y-71670000D03*
X86313750Y-71670000D03*
D13*
X77423750Y-69130000D03*
X83773750Y-66590000D03*
D17*
X159980176Y-93390000D03*
D18*
X159980176Y-95930000D03*
X162520176Y-93390000D03*
X162520176Y-95930000D03*
X165060176Y-93390000D03*
X165060176Y-95930000D03*
D12*
X119323750Y-71680000D03*
D11*
X114243750Y-71680000D03*
X124403750Y-71680000D03*
D13*
X115513750Y-69140000D03*
X121863750Y-66600000D03*
D12*
X262203750Y-74520000D03*
D11*
X267283750Y-74520000D03*
X257123750Y-74520000D03*
D13*
X258393750Y-71980000D03*
X264743750Y-69440000D03*
D12*
X186013125Y-35460000D03*
D11*
X191093125Y-35460000D03*
X180933125Y-35460000D03*
D13*
X182203125Y-32920000D03*
X188553125Y-30380000D03*
D11*
X41069375Y-72607500D03*
D12*
X35989375Y-72607500D03*
D11*
X30909375Y-72607500D03*
D13*
X32179375Y-70067500D03*
X38529375Y-67527500D03*
D11*
X131560000Y-92620000D03*
D12*
X126480000Y-92620000D03*
D11*
X121400000Y-92620000D03*
D13*
X130290000Y-95160000D03*
X123940000Y-97700000D03*
D11*
X235707500Y-90720000D03*
X245867500Y-90720000D03*
D12*
X240787500Y-90720000D03*
D13*
X236977500Y-88180000D03*
X243327500Y-85640000D03*
D11*
X199983750Y-52620000D03*
D12*
X205063750Y-52620000D03*
D11*
X210143750Y-52620000D03*
D13*
X201253750Y-50080000D03*
X207603750Y-47540000D03*
D12*
X262203750Y-55470000D03*
D11*
X267283750Y-55470000D03*
X257123750Y-55470000D03*
D13*
X258393750Y-52930000D03*
X264743750Y-50390000D03*
D11*
X67263750Y-36420000D03*
X57103750Y-36420000D03*
D12*
X62183750Y-36420000D03*
D13*
X58373750Y-33880000D03*
X64723750Y-31340000D03*
D11*
X298250000Y-91670000D03*
D12*
X293170000Y-91670000D03*
D11*
X288090000Y-91670000D03*
D13*
X289360000Y-89130000D03*
X295710000Y-86590000D03*
D11*
X248248750Y-33570000D03*
X238088750Y-33570000D03*
D12*
X243168750Y-33570000D03*
D13*
X239358750Y-31030000D03*
X245708750Y-28490000D03*
D11*
X88695000Y-90720000D03*
D12*
X83615000Y-90720000D03*
D11*
X78535000Y-90720000D03*
D13*
X79805000Y-88180000D03*
X86155000Y-85640000D03*
D11*
X152973750Y-92640000D03*
X142813750Y-92640000D03*
D12*
X147893750Y-92640000D03*
D13*
X151703750Y-95180000D03*
X145353750Y-97720000D03*
D11*
X133303750Y-35470000D03*
D12*
X138383750Y-35470000D03*
D11*
X143463750Y-35470000D03*
D13*
X134573750Y-32930000D03*
X140923750Y-30390000D03*
D11*
X191093125Y-54510000D03*
D12*
X186013125Y-54510000D03*
D11*
X180933125Y-54510000D03*
D13*
X182203125Y-51970000D03*
X188553125Y-49430000D03*
D11*
X191093125Y-73560000D03*
X180933125Y-73560000D03*
D12*
X186013125Y-73560000D03*
D13*
X182203125Y-71020000D03*
X188553125Y-68480000D03*
M02*
