%TF.GenerationSoftware,KiCad,Pcbnew,(6.0.7)*%
%TF.CreationDate,2022-09-18T01:02:23+03:00*%
%TF.ProjectId,teethless40_csl_pcb_schema,74656574-686c-4657-9373-34305f63736c,rev?*%
%TF.SameCoordinates,Original*%
%TF.FileFunction,Profile,NP*%
%FSLAX46Y46*%
G04 Gerber Fmt 4.6, Leading zero omitted, Abs format (unit mm)*
G04 Created by KiCad (PCBNEW (6.0.7)) date 2022-09-18 01:02:23*
%MOMM*%
%LPD*%
G01*
G04 APERTURE LIST*
%TA.AperFunction,Profile*%
%ADD10C,0.200000*%
%TD*%
G04 APERTURE END LIST*
D10*
X190738019Y-82660342D02*
G75*
G03*
X194571973Y-82031400I81J11999642D01*
G01*
X51381587Y-67412849D02*
X51381587Y-67812848D01*
X51381587Y-78762849D02*
X51381587Y-81612849D01*
X53381587Y-64562849D02*
X66019674Y-64562849D01*
X127896982Y-43284283D02*
G75*
G03*
X124063021Y-42655349I-3833982J-11371517D01*
G01*
X252410455Y-82046978D02*
G75*
G03*
X246994674Y-80755349I-5415755J-10708222D01*
G01*
X233360453Y-41939472D02*
X233902722Y-42213726D01*
X293421184Y-26169620D02*
X289794777Y-23705522D01*
X71435458Y-44221223D02*
X71977717Y-43946975D01*
X71977717Y-44796975D02*
X71435457Y-45071223D01*
X178056587Y-64460287D02*
G75*
G03*
X176056587Y-66460349I13J-2000013D01*
G01*
X77393501Y-81605366D02*
G75*
G03*
X71977719Y-82896974I-1J-12000134D01*
G01*
X273006587Y-62562849D02*
X273006587Y-62162849D01*
X110077718Y-61263724D02*
X109535457Y-60989474D01*
X175206651Y-50260349D02*
G75*
G03*
X175456587Y-50510349I249949J-51D01*
G01*
X124063020Y-80755349D02*
X115493501Y-80755349D01*
X148331551Y-47410349D02*
G75*
G03*
X146331587Y-45410349I-1999951J49D01*
G01*
X175206650Y-69310350D02*
G75*
G03*
X175456587Y-69560350I249950J-50D01*
G01*
X50781587Y-78512787D02*
G75*
G03*
X50531587Y-78762849I13J-250013D01*
G01*
X233902725Y-60413710D02*
G75*
G03*
X239318501Y-61705349I5415775J10708210D01*
G01*
X190738020Y-44560347D02*
G75*
G03*
X194571976Y-43931399I80J11999547D01*
G01*
X129816195Y-82031408D02*
G75*
G03*
X133650154Y-82660349I3834005J11371508D01*
G01*
X18233158Y-62557468D02*
G75*
G03*
X16715863Y-69283165I47899342J-14339932D01*
G01*
X156678279Y-21260037D02*
X106640806Y-18950615D01*
X115493501Y-61705349D02*
X124063020Y-61705349D01*
X239318501Y-80755349D02*
X246994674Y-80755349D01*
X178056587Y-82660349D02*
X190738019Y-82660349D01*
X252410455Y-44796978D02*
G75*
G03*
X246994673Y-43505349I-5415755J-10708222D01*
G01*
X220268501Y-40647849D02*
X227944673Y-40647849D01*
X110077718Y-42213724D02*
X109535456Y-41939474D01*
X214310455Y-60413724D02*
X214852717Y-60139474D01*
X273256587Y-59462787D02*
G75*
G03*
X273006587Y-59712850I13J-250013D01*
G01*
X96443500Y-59697865D02*
G75*
G03*
X91027717Y-60989474I0J-12000135D01*
G01*
X233902724Y-79463709D02*
G75*
G03*
X239318501Y-80755349I5415776J10708209D01*
G01*
X149181650Y-58760350D02*
G75*
G03*
X148931587Y-58510350I-250050J-50D01*
G01*
X127896971Y-81384313D02*
G75*
G03*
X124063020Y-80755349I-3834071J-11371487D01*
G01*
X127896975Y-62334298D02*
X129816200Y-62981400D01*
X91027716Y-41939475D02*
X90485458Y-42213723D01*
X148331587Y-47410349D02*
X148331587Y-50260348D01*
X214852717Y-80039475D02*
X214310457Y-80313723D01*
X110077725Y-61263710D02*
G75*
G03*
X115493501Y-62555349I5415775J10708210D01*
G01*
X220268501Y-39797855D02*
G75*
G03*
X214852717Y-41089475I-1J-12000045D01*
G01*
X233360455Y-79189478D02*
G75*
G03*
X227944673Y-77897849I-5415755J-10708222D01*
G01*
X51381587Y-62562849D02*
X51381587Y-62162848D01*
X175206587Y-80660349D02*
X175206587Y-77810348D01*
X96443501Y-78747849D02*
X104119673Y-78747849D01*
X233360457Y-79189475D02*
X233902717Y-79463723D01*
X273006587Y-67812849D02*
X273006587Y-67412849D01*
X127896979Y-62334287D02*
G75*
G03*
X124063020Y-61705349I-3833979J-11371413D01*
G01*
X220268501Y-77897855D02*
G75*
G03*
X214852717Y-79189475I-1J-12000045D01*
G01*
X31000515Y-26169619D02*
G75*
G03*
X27832751Y-30492209I4496135J-6616971D01*
G01*
X273856650Y-59712850D02*
G75*
G03*
X273606587Y-59462850I-250050J-50D01*
G01*
X71435456Y-83171224D02*
X71977719Y-82896974D01*
X208894673Y-81605349D02*
X200325153Y-81605349D01*
X233360451Y-41089476D02*
G75*
G03*
X227944673Y-39797849I-5415751J-10708224D01*
G01*
X115493501Y-42655349D02*
X124063021Y-42655349D01*
X50531651Y-70262849D02*
G75*
G03*
X50781587Y-70512849I249949J-51D01*
G01*
X110077724Y-79463709D02*
G75*
G03*
X115493501Y-80755349I5415776J10708209D01*
G01*
X306188539Y-62557469D02*
X296588949Y-30492209D01*
X96443501Y-77897855D02*
G75*
G03*
X91027717Y-79189475I-1J-12000045D01*
G01*
X53381587Y-45512849D02*
X66019674Y-45512849D01*
X273856587Y-78762850D02*
X273856587Y-81612849D01*
X233902729Y-41363712D02*
G75*
G03*
X239318501Y-42655349I5415771J10708212D01*
G01*
X258368500Y-64562849D02*
X271006587Y-64562849D01*
X149181651Y-47410349D02*
G75*
G03*
X146331587Y-44560349I-2850051J-51D01*
G01*
X273006587Y-78762850D02*
X273006587Y-81212849D01*
X217780894Y-18950615D02*
X167743422Y-21260037D01*
X175456587Y-77560348D02*
X175806587Y-77560348D01*
X252410457Y-82046974D02*
X252952719Y-82321224D01*
X63869050Y-107258904D02*
X117410850Y-105570386D01*
X252410457Y-44796975D02*
X252952717Y-45071223D01*
X148931587Y-69560287D02*
G75*
G03*
X149181587Y-69310348I13J249987D01*
G01*
X85069674Y-43505349D02*
X77393501Y-43505349D01*
X214310457Y-79463723D02*
X214852717Y-79189475D01*
X190738021Y-63610348D02*
G75*
G03*
X194571976Y-62981400I79J11999548D01*
G01*
X239318501Y-42655349D02*
X246994673Y-42655349D01*
X233360455Y-80039478D02*
G75*
G03*
X227944673Y-78747849I-5415755J-10708222D01*
G01*
X85069673Y-80755376D02*
G75*
G03*
X90485457Y-79463723I-73J12000076D01*
G01*
X208894673Y-80755376D02*
G75*
G03*
X214310457Y-79463723I-73J12000076D01*
G01*
X124063021Y-62555349D02*
X115493501Y-62555349D01*
X148331551Y-66460349D02*
G75*
G03*
X146331587Y-64460349I-1999951J49D01*
G01*
X220268501Y-78747855D02*
G75*
G03*
X214852717Y-80039475I-1J-12000045D01*
G01*
X252410457Y-43946975D02*
X252952717Y-44221223D01*
X109535455Y-60989478D02*
G75*
G03*
X104119674Y-59697849I-5415755J-10708222D01*
G01*
X233360457Y-60139474D02*
X233902718Y-60413724D01*
X77393501Y-62555354D02*
G75*
G03*
X71977717Y-63846974I-1J-12000046D01*
G01*
X175206587Y-50260349D02*
X175206587Y-47410349D01*
X233902725Y-61263710D02*
G75*
G03*
X239318501Y-62555349I5415775J10708210D01*
G01*
X252952724Y-45071209D02*
G75*
G03*
X258368501Y-46362849I5415776J10708209D01*
G01*
X220268500Y-59697865D02*
G75*
G03*
X214852717Y-60989474I0J-12000135D01*
G01*
X127896971Y-44134313D02*
G75*
G03*
X124063020Y-43505349I-3834071J-11371487D01*
G01*
X133650154Y-82660349D02*
X146331587Y-82660349D01*
X239318501Y-43505349D02*
X246994673Y-43505349D01*
X66019673Y-46362849D02*
X53381587Y-46362849D01*
X53381587Y-45512847D02*
G75*
G03*
X50531587Y-48362849I3J-2850003D01*
G01*
X273606587Y-70512787D02*
G75*
G03*
X273856587Y-70262848I13J249987D01*
G01*
X230461284Y-19036074D02*
G75*
G03*
X217780894Y-18950615I-7147784J-119787126D01*
G01*
X200325153Y-81605347D02*
G75*
G03*
X196491199Y-82234298I-53J-11999653D01*
G01*
X178056587Y-44560387D02*
G75*
G03*
X175206587Y-47410349I13J-2850013D01*
G01*
X51381651Y-62562849D02*
G75*
G03*
X53381587Y-64562849I1999949J-51D01*
G01*
X258368502Y-83612849D02*
X271006587Y-83612849D01*
X50781587Y-59462787D02*
G75*
G03*
X50531587Y-59712849I13J-250013D01*
G01*
X175456587Y-69560350D02*
X175806587Y-69560350D01*
X66019674Y-65412849D02*
X53381587Y-65412849D01*
X77393501Y-61705349D02*
X85069674Y-61705349D01*
X71977718Y-82046974D02*
X71435457Y-82321224D01*
X175456587Y-77560387D02*
G75*
G03*
X175206587Y-77810348I13J-250013D01*
G01*
X148581587Y-58510350D02*
X148931587Y-58510350D01*
X93960416Y-19036078D02*
X38646561Y-22336716D01*
X27832751Y-30492209D02*
X18233161Y-62557469D01*
X109535454Y-41939477D02*
G75*
G03*
X104119673Y-40647849I-5415754J-10708223D01*
G01*
X106640806Y-18950618D02*
G75*
G03*
X93960416Y-19036078I-5532606J-119871182D01*
G01*
X207010850Y-105570386D02*
X260552650Y-107258904D01*
X196491199Y-82234298D02*
X194571973Y-82881400D01*
X208894672Y-62555365D02*
G75*
G03*
X214310455Y-61263724I-72J12000165D01*
G01*
X175456587Y-50510349D02*
X175806587Y-50510349D01*
X146331587Y-83510349D02*
X133650154Y-83510349D01*
X246994672Y-62555349D02*
X239318501Y-62555349D01*
X273006587Y-48762849D02*
X273006587Y-51212848D01*
X51381651Y-81612849D02*
G75*
G03*
X53381587Y-83612849I1999949J-51D01*
G01*
X129816199Y-63831403D02*
G75*
G03*
X133650155Y-64460349I3834001J11371403D01*
G01*
X208894673Y-81605376D02*
G75*
G03*
X214310457Y-80313723I-73J12000076D01*
G01*
X29365483Y-105914709D02*
X47139302Y-107008483D01*
X149181587Y-58760350D02*
X149181587Y-69310348D01*
X148331552Y-69310348D02*
G75*
G03*
X148581587Y-69560348I250048J48D01*
G01*
X220268501Y-40647855D02*
G75*
G03*
X214852717Y-41939475I-1J-12000045D01*
G01*
X258368501Y-45512849D02*
X271006587Y-45512849D01*
X50531587Y-51212849D02*
X50531587Y-48362849D01*
X110077717Y-79463723D02*
X109535457Y-79189475D01*
X190738020Y-45410349D02*
X178056587Y-45410349D01*
X16715863Y-69283165D02*
X13064936Y-92977677D01*
X233902729Y-42213712D02*
G75*
G03*
X239318501Y-43505349I5415771J10708212D01*
G01*
X133650154Y-44560349D02*
X146331587Y-44560349D01*
X149181587Y-77810350D02*
X149181587Y-80660349D01*
X146331587Y-45410349D02*
X133650154Y-45410349D01*
X96443501Y-78747855D02*
G75*
G03*
X91027717Y-80039475I-1J-12000045D01*
G01*
X77393501Y-81605349D02*
X85069673Y-81605349D01*
X38646560Y-22336706D02*
G75*
G03*
X34626923Y-23705522I476540J-7985794D01*
G01*
X34626923Y-23705522D02*
X31000515Y-26169620D01*
X91027717Y-60989474D02*
X90485456Y-61263724D01*
X166227707Y-104660048D02*
X207010850Y-105570386D01*
X296588934Y-30492213D02*
G75*
G03*
X293421184Y-26169620I-7663934J-2294387D01*
G01*
X175806587Y-69560287D02*
G75*
G03*
X176056587Y-69310350I13J249987D01*
G01*
X77393501Y-61705355D02*
G75*
G03*
X71977717Y-62996975I-1J-12000045D01*
G01*
X194571976Y-43931399D02*
X196491198Y-43284299D01*
X110077724Y-80313709D02*
G75*
G03*
X115493501Y-81605349I5415776J10708209D01*
G01*
X91027717Y-79189475D02*
X90485457Y-79463723D01*
X53381587Y-65412847D02*
G75*
G03*
X51381587Y-67412849I3J-2000003D01*
G01*
X53381587Y-46362847D02*
G75*
G03*
X51381587Y-48362849I3J-2000003D01*
G01*
X200325154Y-43505343D02*
G75*
G03*
X196491198Y-44134299I-54J-11999557D01*
G01*
X271006587Y-83612887D02*
G75*
G03*
X273006587Y-81612849I13J1999987D01*
G01*
X129816195Y-43931408D02*
G75*
G03*
X133650154Y-44560349I3834005J11371508D01*
G01*
X96443501Y-58847866D02*
G75*
G03*
X91027716Y-60139475I-1J-12000134D01*
G01*
X85069673Y-62555366D02*
G75*
G03*
X90485456Y-61263724I-73J12000166D01*
G01*
X271006587Y-46362849D02*
X258368501Y-46362849D01*
X190738021Y-64460348D02*
G75*
G03*
X194571976Y-63831400I79J11999548D01*
G01*
X176056587Y-58760347D02*
X176056587Y-61210347D01*
X208894672Y-62555349D02*
X200325155Y-62555349D01*
X273256587Y-78512850D02*
X273606587Y-78512850D01*
X66019674Y-84462866D02*
G75*
G03*
X71435456Y-83171224I-74J12000166D01*
G01*
X51381551Y-59712849D02*
G75*
G03*
X51131587Y-59462849I-249951J49D01*
G01*
X148331552Y-50260348D02*
G75*
G03*
X148581587Y-50510348I250048J48D01*
G01*
X273256587Y-59462850D02*
X273606587Y-59462850D01*
X146331587Y-82660387D02*
G75*
G03*
X148331587Y-80660349I13J1999987D01*
G01*
X110077725Y-42213710D02*
G75*
G03*
X115493501Y-43505349I5415775J10708210D01*
G01*
X178056587Y-63610349D02*
X190738021Y-63610349D01*
X220268501Y-77897849D02*
X227944673Y-77897849D01*
X110077725Y-41363710D02*
G75*
G03*
X115493501Y-42655349I5415775J10708210D01*
G01*
X66019674Y-65412832D02*
G75*
G03*
X71435458Y-64121224I26J12000032D01*
G01*
X66019674Y-83612866D02*
G75*
G03*
X71435457Y-82321224I-74J12000166D01*
G01*
X194571973Y-82031400D02*
X196491199Y-81384298D01*
X227944674Y-59697849D02*
X220268500Y-59697849D01*
X273856650Y-78762850D02*
G75*
G03*
X273606587Y-78512850I-250050J-50D01*
G01*
X252952726Y-82321210D02*
G75*
G03*
X258368502Y-83612849I5415774J10708210D01*
G01*
X47139302Y-107008486D02*
G75*
G03*
X63869050Y-107258904I11055998J179661586D01*
G01*
X127896971Y-63184313D02*
G75*
G03*
X124063021Y-62555349I-3834071J-11371487D01*
G01*
X273606587Y-51462787D02*
G75*
G03*
X273856587Y-51212848I13J249987D01*
G01*
X271006587Y-84462849D02*
X258368502Y-84462849D01*
X66019674Y-64562877D02*
G75*
G03*
X71435458Y-63271223I-74J12000077D01*
G01*
X252952724Y-63271209D02*
G75*
G03*
X258368500Y-64562849I5415776J10708209D01*
G01*
X200325154Y-42655349D02*
X208894673Y-42655349D01*
X133650154Y-63610349D02*
X146331587Y-63610349D01*
X252952724Y-44221209D02*
G75*
G03*
X258368501Y-45512849I5415776J10708209D01*
G01*
X50531587Y-78762849D02*
X50531587Y-81612849D01*
X273256587Y-78512787D02*
G75*
G03*
X273006587Y-78762850I13J-250013D01*
G01*
X246994674Y-81605349D02*
X239318501Y-81605349D01*
X252952719Y-83171224D02*
X252410457Y-82896974D01*
X127896977Y-43284299D02*
X129816198Y-43931399D01*
X200325153Y-80755349D02*
X208894673Y-80755349D01*
X239318501Y-61705349D02*
X246994672Y-61705349D01*
X252410455Y-82896978D02*
G75*
G03*
X246994674Y-81605349I-5415755J-10708222D01*
G01*
X51131587Y-59462849D02*
X50781587Y-59462849D01*
X252410453Y-62996977D02*
G75*
G03*
X246994672Y-61705349I-5415753J-10708223D01*
G01*
X109535457Y-80039475D02*
X110077717Y-80313723D01*
X233902718Y-61263724D02*
X233360457Y-60989474D01*
X252410455Y-62996974D02*
X252952717Y-63271224D01*
X200325155Y-62555348D02*
G75*
G03*
X196491200Y-63184298I-55J-11999652D01*
G01*
X233902724Y-80313709D02*
G75*
G03*
X239318501Y-81605349I5415776J10708209D01*
G01*
X252952726Y-83171210D02*
G75*
G03*
X258368502Y-84462849I5415774J10708210D01*
G01*
X233360451Y-41939476D02*
G75*
G03*
X227944673Y-40647849I-5415751J-10708224D01*
G01*
X273006551Y-67412849D02*
G75*
G03*
X271006587Y-65412849I-1999951J49D01*
G01*
X104119674Y-59697849D02*
X96443500Y-59697849D01*
X307705839Y-69283166D02*
G75*
G03*
X306188539Y-62557469I-49417839J-7614534D01*
G01*
X176056587Y-66460349D02*
X176056587Y-66860350D01*
X85069674Y-42655366D02*
G75*
G03*
X90485459Y-41363723I-74J12000166D01*
G01*
X53381587Y-83612849D02*
X66019674Y-83612849D01*
X190738019Y-83510342D02*
G75*
G03*
X194571973Y-82881400I81J11999642D01*
G01*
X129816200Y-63831400D02*
X127896976Y-63184298D01*
X260552650Y-107258906D02*
G75*
G03*
X277282398Y-107008483I5673750J179908306D01*
G01*
X175806587Y-50510387D02*
G75*
G03*
X176056587Y-50260349I13J249987D01*
G01*
X85069674Y-61705377D02*
G75*
G03*
X90485458Y-60413723I-74J12000077D01*
G01*
X96443501Y-58847849D02*
X104119674Y-58847849D01*
X208894673Y-43505376D02*
G75*
G03*
X214310457Y-42213723I-73J12000076D01*
G01*
X77393501Y-80755366D02*
G75*
G03*
X71977718Y-82046974I-1J-12000134D01*
G01*
X194571976Y-62981400D02*
X196491200Y-62334298D01*
X104119673Y-40647849D02*
X96443501Y-40647849D01*
X51381587Y-67812848D02*
X51381587Y-70262849D01*
X66019674Y-45512877D02*
G75*
G03*
X71435458Y-44221223I-74J12000077D01*
G01*
X16888611Y-101075571D02*
X20386384Y-103151485D01*
X220268501Y-39797849D02*
X227944673Y-39797849D01*
X196491200Y-63184298D02*
X194571976Y-63831400D01*
X273256587Y-51462848D02*
X273606587Y-51462848D01*
X220268500Y-58847849D02*
X227944674Y-58847849D01*
X149181587Y-50260348D02*
X149181587Y-47410349D01*
X156678279Y-21260037D02*
G75*
G03*
X167743422Y-21260037I5532572J119873141D01*
G01*
X124063020Y-43505349D02*
X115493501Y-43505349D01*
X127896976Y-82234299D02*
X129816198Y-82881399D01*
X85069673Y-80755349D02*
X77393501Y-80755349D01*
X214852717Y-60989474D02*
X214310455Y-61263724D01*
X214310457Y-42213723D02*
X214852717Y-41939475D01*
X146331587Y-63610387D02*
G75*
G03*
X148331587Y-61610349I13J1999987D01*
G01*
X50531651Y-51212849D02*
G75*
G03*
X50781587Y-51462849I249949J-51D01*
G01*
X271006587Y-64562887D02*
G75*
G03*
X273006587Y-62562849I13J1999987D01*
G01*
X85069673Y-81605376D02*
G75*
G03*
X90485457Y-80313723I-73J12000076D01*
G01*
X200325155Y-61705348D02*
G75*
G03*
X196491200Y-62334298I-55J-11999652D01*
G01*
X13064932Y-92977676D02*
G75*
G03*
X16888611Y-101075571I7906698J-1218284D01*
G01*
X51381587Y-59712849D02*
X51381587Y-62162848D01*
X273256587Y-70512848D02*
X273606587Y-70512848D01*
X51131587Y-51462887D02*
G75*
G03*
X51381587Y-51212849I13J249987D01*
G01*
X176056587Y-66860350D02*
X176056587Y-69310350D01*
X51131587Y-51462849D02*
X50781587Y-51462849D01*
X178056587Y-44560349D02*
X190738020Y-44560349D01*
X304035314Y-103151486D02*
X307533089Y-101075571D01*
X90485459Y-41363723D02*
X91027717Y-41089475D01*
X109535455Y-60139478D02*
G75*
G03*
X104119674Y-58847849I-5415755J-10708222D01*
G01*
X273006552Y-51212848D02*
G75*
G03*
X273256587Y-51462848I250048J48D01*
G01*
X175206587Y-69310350D02*
X175206587Y-58760347D01*
X146331587Y-83510287D02*
G75*
G03*
X149181587Y-80660349I13J2849987D01*
G01*
X233360453Y-41089472D02*
X233902722Y-41363726D01*
X176056651Y-80660349D02*
G75*
G03*
X178056587Y-82660349I1999949J-51D01*
G01*
X200325153Y-80755347D02*
G75*
G03*
X196491199Y-81384298I-53J-11999653D01*
G01*
X252952717Y-64121224D02*
X252410455Y-63846974D01*
X66019674Y-84462849D02*
X53381587Y-84462849D01*
X220268500Y-58847865D02*
G75*
G03*
X214852717Y-60139474I0J-12000135D01*
G01*
X176056553Y-58760347D02*
G75*
G03*
X175806587Y-58510347I-249953J47D01*
G01*
X129816195Y-82881408D02*
G75*
G03*
X133650154Y-83510349I3834005J11371508D01*
G01*
X273006587Y-67812849D02*
X273006587Y-70262848D01*
X85069673Y-62555349D02*
X77393501Y-62555349D01*
X271006587Y-65412849D02*
X258368500Y-65412849D01*
X233902717Y-80313723D02*
X233360457Y-80039475D01*
X71435458Y-63271223D02*
X71977717Y-62996975D01*
X273006587Y-48362849D02*
X273006587Y-48762849D01*
X77393501Y-42655355D02*
G75*
G03*
X71977717Y-43946975I-1J-12000045D01*
G01*
X51131587Y-78512849D02*
X50781587Y-78512849D01*
X66019673Y-46362876D02*
G75*
G03*
X71435457Y-45071223I-73J12000076D01*
G01*
X273856587Y-59712850D02*
X273856587Y-70262848D01*
X176056552Y-77810348D02*
G75*
G03*
X175806587Y-77560348I-249952J48D01*
G01*
X77393501Y-43505355D02*
G75*
G03*
X71977717Y-44796975I-1J-12000045D01*
G01*
X252410455Y-43946978D02*
G75*
G03*
X246994673Y-42655349I-5415755J-10708222D01*
G01*
X295056218Y-105914729D02*
G75*
G03*
X304035314Y-103151486I-1228418J19962029D01*
G01*
X194571976Y-44781399D02*
X196491198Y-44134299D01*
X311356763Y-92977677D02*
X307705837Y-69283166D01*
X175456587Y-58510347D02*
X175806587Y-58510347D01*
X96443501Y-40647866D02*
G75*
G03*
X91027716Y-41939475I-1J-12000134D01*
G01*
X176056587Y-47810350D02*
X176056587Y-47410349D01*
X50531551Y-81612849D02*
G75*
G03*
X53381587Y-84462849I2850049J49D01*
G01*
X208894672Y-61705365D02*
G75*
G03*
X214310455Y-60413724I-72J12000165D01*
G01*
X51381587Y-48362849D02*
X51381587Y-51212849D01*
X85069674Y-43505377D02*
G75*
G03*
X90485458Y-42213723I-74J12000077D01*
G01*
X273856651Y-48362849D02*
G75*
G03*
X271006587Y-45512849I-2850051J-51D01*
G01*
X129816198Y-44781399D02*
X127896976Y-44134299D01*
X190738021Y-64460349D02*
X178056587Y-64460349D01*
X285775139Y-22336716D02*
X230461284Y-19036078D01*
X227944673Y-78747849D02*
X220268501Y-78747849D01*
X51381551Y-78762849D02*
G75*
G03*
X51131587Y-78512849I-249951J49D01*
G01*
X208894673Y-42655376D02*
G75*
G03*
X214310457Y-41363723I-73J12000076D01*
G01*
X146331587Y-64460349D02*
X133650155Y-64460349D01*
X148581587Y-58510287D02*
G75*
G03*
X148331587Y-58760350I13J-250013D01*
G01*
X20386386Y-103151482D02*
G75*
G03*
X29365483Y-105914709I10207554J17199032D01*
G01*
X176056587Y-77810348D02*
X176056587Y-80260350D01*
X90485458Y-60413723D02*
X91027716Y-60139475D01*
X127896971Y-82234313D02*
G75*
G03*
X124063020Y-81605349I-3834071J-11371487D01*
G01*
X129816198Y-82031399D02*
X127896976Y-81384299D01*
X109535455Y-79189478D02*
G75*
G03*
X104119673Y-77897849I-5415755J-10708222D01*
G01*
X129816199Y-62981403D02*
G75*
G03*
X133650154Y-63610349I3834001J11371403D01*
G01*
X214310457Y-41363723D02*
X214852717Y-41089475D01*
X129816195Y-44781408D02*
G75*
G03*
X133650154Y-45410349I3834005J11371508D01*
G01*
X271006587Y-84462787D02*
G75*
G03*
X273856587Y-81612849I13J2849987D01*
G01*
X307533100Y-101075589D02*
G75*
G03*
X311356763Y-92977677I-4083000J6879589D01*
G01*
X109535455Y-80039478D02*
G75*
G03*
X104119673Y-78747849I-5415755J-10708222D01*
G01*
X96443501Y-39797849D02*
X104119674Y-39797849D01*
X176056651Y-61610349D02*
G75*
G03*
X178056587Y-63610349I1999949J-51D01*
G01*
X190738019Y-83510349D02*
X178056587Y-83510349D01*
X200325154Y-42655343D02*
G75*
G03*
X196491198Y-43284299I-54J-11999557D01*
G01*
X273856587Y-48362849D02*
X273856587Y-51212848D01*
X175456587Y-58510387D02*
G75*
G03*
X175206587Y-58760347I13J-250013D01*
G01*
X148581587Y-50510348D02*
X148931587Y-50510348D01*
X51131587Y-70512849D02*
X50781587Y-70512849D01*
X115493501Y-81605349D02*
X124063020Y-81605349D01*
X273006552Y-70262848D02*
G75*
G03*
X273256587Y-70512848I250048J48D01*
G01*
X200325154Y-43505349D02*
X208894673Y-43505349D01*
X148331587Y-66860349D02*
X148331587Y-69310348D01*
X71977717Y-63846974D02*
X71435458Y-64121224D01*
X233360455Y-60989478D02*
G75*
G03*
X227944674Y-59697849I-5415755J-10708222D01*
G01*
X252952724Y-64121209D02*
G75*
G03*
X258368500Y-65412849I5415776J10708209D01*
G01*
X110077725Y-60413710D02*
G75*
G03*
X115493501Y-61705349I5415775J10708210D01*
G01*
X277282398Y-107008483D02*
X295056217Y-105914709D01*
X176056587Y-47810350D02*
X176056587Y-50260349D01*
X176056587Y-80660349D02*
X176056587Y-80260350D01*
X233360455Y-60139478D02*
G75*
G03*
X227944674Y-58847849I-5415755J-10708222D01*
G01*
X148581587Y-77560350D02*
X148931587Y-77560350D01*
X252410453Y-63846977D02*
G75*
G03*
X246994672Y-62555349I-5415753J-10708223D01*
G01*
X148331587Y-77810350D02*
X148331587Y-80660349D01*
X273006551Y-48362849D02*
G75*
G03*
X271006587Y-46362849I-1999951J49D01*
G01*
X109535455Y-41089478D02*
G75*
G03*
X104119674Y-39797849I-5415755J-10708222D01*
G01*
X289794780Y-23705518D02*
G75*
G03*
X285775139Y-22336716I-4496080J-6616782D01*
G01*
X51131587Y-70512887D02*
G75*
G03*
X51381587Y-70262849I13J249987D01*
G01*
X104119673Y-77897849D02*
X96443501Y-77897849D01*
X148581587Y-77560287D02*
G75*
G03*
X148331587Y-77810350I13J-250013D01*
G01*
X273006587Y-59712850D02*
X273006587Y-62162849D01*
X148931587Y-50510287D02*
G75*
G03*
X149181587Y-50260348I13J249987D01*
G01*
X176056587Y-61210347D02*
X176056587Y-61610349D01*
X148331587Y-58760350D02*
X148331587Y-61610349D01*
X148331587Y-66460349D02*
X148331587Y-66860349D01*
X200325155Y-61705349D02*
X208894672Y-61705349D01*
X96443501Y-39797855D02*
G75*
G03*
X91027717Y-41089475I-1J-12000045D01*
G01*
X90485457Y-80313723D02*
X91027717Y-80039475D01*
X109535457Y-41089474D02*
X110077718Y-41363724D01*
X273006587Y-81612849D02*
X273006587Y-81212849D01*
X149181650Y-77810350D02*
G75*
G03*
X148931587Y-77560350I-250050J-50D01*
G01*
X109535457Y-60139474D02*
X110077718Y-60413724D01*
X77393501Y-42655349D02*
X85069674Y-42655349D01*
X166227707Y-104660048D02*
G75*
G03*
X158193993Y-104660048I-4016857J-179956842D01*
G01*
X175206551Y-80660349D02*
G75*
G03*
X178056587Y-83510349I2850049J49D01*
G01*
X148581587Y-69560348D02*
X148931587Y-69560348D01*
X190738020Y-45410347D02*
G75*
G03*
X194571976Y-44781399I80J11999547D01*
G01*
X178056587Y-45410287D02*
G75*
G03*
X176056587Y-47410349I13J-2000013D01*
G01*
X50531587Y-59712849D02*
X50531587Y-70262849D01*
X117410850Y-105570386D02*
X158193993Y-104660048D01*
M02*
