%TF.GenerationSoftware,KiCad,Pcbnew,(6.0.7)*%
%TF.CreationDate,2022-09-18T01:02:23+03:00*%
%TF.ProjectId,teethless40_csl_pcb_schema,74656574-686c-4657-9373-34305f63736c,rev?*%
%TF.SameCoordinates,Original*%
%TF.FileFunction,Legend,Top*%
%TF.FilePolarity,Positive*%
%FSLAX46Y46*%
G04 Gerber Fmt 4.6, Leading zero omitted, Abs format (unit mm)*
G04 Created by KiCad (PCBNEW (6.0.7)) date 2022-09-18 01:02:23*
%MOMM*%
%LPD*%
G01*
G04 APERTURE LIST*
%ADD10C,0.160000*%
%ADD11C,0.230000*%
%ADD12C,4.400000*%
%ADD13C,1.750000*%
%ADD14C,3.987800*%
%ADD15C,3.300000*%
%ADD16C,0.650000*%
%ADD17O,1.000000X1.600000*%
%ADD18O,1.000000X2.100000*%
%ADD19R,1.700000X1.700000*%
%ADD20C,1.700000*%
G04 APERTURE END LIST*
D10*
X227802743Y-101236044D02*
X227802743Y-100236044D01*
X228183695Y-100236044D01*
X228278933Y-100283664D01*
X228326552Y-100331283D01*
X228374171Y-100426521D01*
X228374171Y-100569378D01*
X228326552Y-100664616D01*
X228278933Y-100712235D01*
X228183695Y-100759854D01*
X227802743Y-100759854D01*
X228802743Y-101236044D02*
X228802743Y-100569378D01*
X228802743Y-100759854D02*
X228850362Y-100664616D01*
X228897981Y-100616997D01*
X228993219Y-100569378D01*
X229088457Y-100569378D01*
X229564648Y-101236044D02*
X229469409Y-101188425D01*
X229421790Y-101140806D01*
X229374171Y-101045568D01*
X229374171Y-100759854D01*
X229421790Y-100664616D01*
X229469409Y-100616997D01*
X229564648Y-100569378D01*
X229707505Y-100569378D01*
X229802743Y-100616997D01*
X229850362Y-100664616D01*
X229897981Y-100759854D01*
X229897981Y-101045568D01*
X229850362Y-101140806D01*
X229802743Y-101188425D01*
X229707505Y-101236044D01*
X229564648Y-101236044D01*
X230183695Y-100569378D02*
X230564648Y-100569378D01*
X230326552Y-100236044D02*
X230326552Y-101093187D01*
X230374171Y-101188425D01*
X230469409Y-101236044D01*
X230564648Y-101236044D01*
X231040838Y-101236044D02*
X230945600Y-101188425D01*
X230897981Y-101140806D01*
X230850362Y-101045568D01*
X230850362Y-100759854D01*
X230897981Y-100664616D01*
X230945600Y-100616997D01*
X231040838Y-100569378D01*
X231183695Y-100569378D01*
X231278933Y-100616997D01*
X231326552Y-100664616D01*
X231374171Y-100759854D01*
X231374171Y-101045568D01*
X231326552Y-101140806D01*
X231278933Y-101188425D01*
X231183695Y-101236044D01*
X231040838Y-101236044D01*
X231659886Y-100569378D02*
X232040838Y-100569378D01*
X231802743Y-100236044D02*
X231802743Y-101093187D01*
X231850362Y-101188425D01*
X231945600Y-101236044D01*
X232040838Y-101236044D01*
X232278933Y-100569378D02*
X232517028Y-101236044D01*
X232755124Y-100569378D02*
X232517028Y-101236044D01*
X232421790Y-101474140D01*
X232374171Y-101521759D01*
X232278933Y-101569378D01*
X233136076Y-100569378D02*
X233136076Y-101569378D01*
X233136076Y-100616997D02*
X233231314Y-100569378D01*
X233421790Y-100569378D01*
X233517028Y-100616997D01*
X233564648Y-100664616D01*
X233612267Y-100759854D01*
X233612267Y-101045568D01*
X233564648Y-101140806D01*
X233517028Y-101188425D01*
X233421790Y-101236044D01*
X233231314Y-101236044D01*
X233136076Y-101188425D01*
X234421790Y-101188425D02*
X234326552Y-101236044D01*
X234136076Y-101236044D01*
X234040838Y-101188425D01*
X233993219Y-101093187D01*
X233993219Y-100712235D01*
X234040838Y-100616997D01*
X234136076Y-100569378D01*
X234326552Y-100569378D01*
X234421790Y-100616997D01*
X234469409Y-100712235D01*
X234469409Y-100807473D01*
X233993219Y-100902711D01*
X235564648Y-100569378D02*
X235802743Y-101236044D01*
X236040838Y-100569378D01*
X236945600Y-101236044D02*
X236374171Y-101236044D01*
X236659886Y-101236044D02*
X236659886Y-100236044D01*
X236564648Y-100378902D01*
X236469409Y-100474140D01*
X236374171Y-100521759D01*
X237374171Y-101140806D02*
X237421790Y-101188425D01*
X237374171Y-101236044D01*
X237326552Y-101188425D01*
X237374171Y-101140806D01*
X237374171Y-101236044D01*
X237755124Y-100236044D02*
X238374171Y-100236044D01*
X238040838Y-100616997D01*
X238183695Y-100616997D01*
X238278933Y-100664616D01*
X238326552Y-100712235D01*
X238374171Y-100807473D01*
X238374171Y-101045568D01*
X238326552Y-101140806D01*
X238278933Y-101188425D01*
X238183695Y-101236044D01*
X237897981Y-101236044D01*
X237802743Y-101188425D01*
X237755124Y-101140806D01*
X224397981Y-102846044D02*
X224397981Y-101846044D01*
X224636076Y-101846044D01*
X224778933Y-101893664D01*
X224874171Y-101988902D01*
X224921790Y-102084140D01*
X224969409Y-102274616D01*
X224969409Y-102417473D01*
X224921790Y-102607949D01*
X224874171Y-102703187D01*
X224778933Y-102798425D01*
X224636076Y-102846044D01*
X224397981Y-102846044D01*
X225778933Y-102798425D02*
X225683695Y-102846044D01*
X225493219Y-102846044D01*
X225397981Y-102798425D01*
X225350362Y-102703187D01*
X225350362Y-102322235D01*
X225397981Y-102226997D01*
X225493219Y-102179378D01*
X225683695Y-102179378D01*
X225778933Y-102226997D01*
X225826552Y-102322235D01*
X225826552Y-102417473D01*
X225350362Y-102512711D01*
X226207505Y-102798425D02*
X226302743Y-102846044D01*
X226493219Y-102846044D01*
X226588457Y-102798425D01*
X226636076Y-102703187D01*
X226636076Y-102655568D01*
X226588457Y-102560330D01*
X226493219Y-102512711D01*
X226350362Y-102512711D01*
X226255124Y-102465092D01*
X226207505Y-102369854D01*
X226207505Y-102322235D01*
X226255124Y-102226997D01*
X226350362Y-102179378D01*
X226493219Y-102179378D01*
X226588457Y-102226997D01*
X227064648Y-102846044D02*
X227064648Y-102179378D01*
X227064648Y-101846044D02*
X227017028Y-101893664D01*
X227064648Y-101941283D01*
X227112267Y-101893664D01*
X227064648Y-101846044D01*
X227064648Y-101941283D01*
X227969409Y-102179378D02*
X227969409Y-102988902D01*
X227921790Y-103084140D01*
X227874171Y-103131759D01*
X227778933Y-103179378D01*
X227636076Y-103179378D01*
X227540838Y-103131759D01*
X227969409Y-102798425D02*
X227874171Y-102846044D01*
X227683695Y-102846044D01*
X227588457Y-102798425D01*
X227540838Y-102750806D01*
X227493219Y-102655568D01*
X227493219Y-102369854D01*
X227540838Y-102274616D01*
X227588457Y-102226997D01*
X227683695Y-102179378D01*
X227874171Y-102179378D01*
X227969409Y-102226997D01*
X228445600Y-102179378D02*
X228445600Y-102846044D01*
X228445600Y-102274616D02*
X228493219Y-102226997D01*
X228588457Y-102179378D01*
X228731314Y-102179378D01*
X228826552Y-102226997D01*
X228874171Y-102322235D01*
X228874171Y-102846044D01*
X229731314Y-102798425D02*
X229636076Y-102846044D01*
X229445600Y-102846044D01*
X229350362Y-102798425D01*
X229302743Y-102703187D01*
X229302743Y-102322235D01*
X229350362Y-102226997D01*
X229445600Y-102179378D01*
X229636076Y-102179378D01*
X229731314Y-102226997D01*
X229778933Y-102322235D01*
X229778933Y-102417473D01*
X229302743Y-102512711D01*
X230636076Y-102846044D02*
X230636076Y-101846044D01*
X230636076Y-102798425D02*
X230540838Y-102846044D01*
X230350362Y-102846044D01*
X230255124Y-102798425D01*
X230207505Y-102750806D01*
X230159886Y-102655568D01*
X230159886Y-102369854D01*
X230207505Y-102274616D01*
X230255124Y-102226997D01*
X230350362Y-102179378D01*
X230540838Y-102179378D01*
X230636076Y-102226997D01*
X231874171Y-102846044D02*
X231874171Y-101846044D01*
X231874171Y-102226997D02*
X231969409Y-102179378D01*
X232159886Y-102179378D01*
X232255124Y-102226997D01*
X232302743Y-102274616D01*
X232350362Y-102369854D01*
X232350362Y-102655568D01*
X232302743Y-102750806D01*
X232255124Y-102798425D01*
X232159886Y-102846044D01*
X231969409Y-102846044D01*
X231874171Y-102798425D01*
X232683695Y-102179378D02*
X232921790Y-102846044D01*
X233159886Y-102179378D02*
X232921790Y-102846044D01*
X232826552Y-103084140D01*
X232778933Y-103131759D01*
X232683695Y-103179378D01*
X234302743Y-102846044D02*
X234302743Y-101846044D01*
X234778933Y-102179378D02*
X234778933Y-103179378D01*
X234778933Y-102226997D02*
X234874171Y-102179378D01*
X235064648Y-102179378D01*
X235159886Y-102226997D01*
X235207505Y-102274616D01*
X235255124Y-102369854D01*
X235255124Y-102655568D01*
X235207505Y-102750806D01*
X235159886Y-102798425D01*
X235064648Y-102846044D01*
X234874171Y-102846044D01*
X234778933Y-102798425D01*
X236112267Y-102846044D02*
X236112267Y-102322235D01*
X236064648Y-102226997D01*
X235969409Y-102179378D01*
X235778933Y-102179378D01*
X235683695Y-102226997D01*
X236112267Y-102798425D02*
X236017028Y-102846044D01*
X235778933Y-102846044D01*
X235683695Y-102798425D01*
X235636076Y-102703187D01*
X235636076Y-102607949D01*
X235683695Y-102512711D01*
X235778933Y-102465092D01*
X236017028Y-102465092D01*
X236112267Y-102417473D01*
X236731314Y-102846044D02*
X236636076Y-102798425D01*
X236588457Y-102703187D01*
X236588457Y-101846044D01*
X237874171Y-102846044D02*
X237874171Y-101846044D01*
X238112267Y-101846044D01*
X238255124Y-101893664D01*
X238350362Y-101988902D01*
X238397981Y-102084140D01*
X238445600Y-102274616D01*
X238445600Y-102417473D01*
X238397981Y-102607949D01*
X238350362Y-102703187D01*
X238255124Y-102798425D01*
X238112267Y-102846044D01*
X237874171Y-102846044D01*
X239255124Y-102798425D02*
X239159886Y-102846044D01*
X238969409Y-102846044D01*
X238874171Y-102798425D01*
X238826552Y-102703187D01*
X238826552Y-102322235D01*
X238874171Y-102226997D01*
X238969409Y-102179378D01*
X239159886Y-102179378D01*
X239255124Y-102226997D01*
X239302743Y-102322235D01*
X239302743Y-102417473D01*
X238826552Y-102512711D01*
X239683695Y-102798425D02*
X239778933Y-102846044D01*
X239969409Y-102846044D01*
X240064648Y-102798425D01*
X240112267Y-102703187D01*
X240112267Y-102655568D01*
X240064648Y-102560330D01*
X239969409Y-102512711D01*
X239826552Y-102512711D01*
X239731314Y-102465092D01*
X239683695Y-102369854D01*
X239683695Y-102322235D01*
X239731314Y-102226997D01*
X239826552Y-102179378D01*
X239969409Y-102179378D01*
X240064648Y-102226997D01*
X240493219Y-102798425D02*
X240588457Y-102846044D01*
X240778933Y-102846044D01*
X240874171Y-102798425D01*
X240921790Y-102703187D01*
X240921790Y-102655568D01*
X240874171Y-102560330D01*
X240778933Y-102512711D01*
X240636076Y-102512711D01*
X240540838Y-102465092D01*
X240493219Y-102369854D01*
X240493219Y-102322235D01*
X240540838Y-102226997D01*
X240636076Y-102179378D01*
X240778933Y-102179378D01*
X240874171Y-102226997D01*
X241731314Y-102798425D02*
X241636076Y-102846044D01*
X241445600Y-102846044D01*
X241350362Y-102798425D01*
X241302743Y-102703187D01*
X241302743Y-102322235D01*
X241350362Y-102226997D01*
X241445600Y-102179378D01*
X241636076Y-102179378D01*
X241731314Y-102226997D01*
X241778933Y-102322235D01*
X241778933Y-102417473D01*
X241302743Y-102512711D01*
X223659886Y-103456044D02*
X223659886Y-104265568D01*
X223707505Y-104360806D01*
X223755124Y-104408425D01*
X223850362Y-104456044D01*
X224040838Y-104456044D01*
X224136076Y-104408425D01*
X224183695Y-104360806D01*
X224231314Y-104265568D01*
X224231314Y-103456044D01*
X224707505Y-104456044D02*
X224707505Y-103456044D01*
X224802743Y-104075092D02*
X225088457Y-104456044D01*
X225088457Y-103789378D02*
X224707505Y-104170330D01*
X225517028Y-104456044D02*
X225517028Y-103789378D01*
X225517028Y-103979854D02*
X225564648Y-103884616D01*
X225612267Y-103836997D01*
X225707505Y-103789378D01*
X225802743Y-103789378D01*
X226564648Y-104456044D02*
X226564648Y-103932235D01*
X226517028Y-103836997D01*
X226421790Y-103789378D01*
X226231314Y-103789378D01*
X226136076Y-103836997D01*
X226564648Y-104408425D02*
X226469409Y-104456044D01*
X226231314Y-104456044D01*
X226136076Y-104408425D01*
X226088457Y-104313187D01*
X226088457Y-104217949D01*
X226136076Y-104122711D01*
X226231314Y-104075092D01*
X226469409Y-104075092D01*
X226564648Y-104027473D01*
X227040838Y-104456044D02*
X227040838Y-103789378D01*
X227040838Y-103456044D02*
X226993219Y-103503664D01*
X227040838Y-103551283D01*
X227088457Y-103503664D01*
X227040838Y-103456044D01*
X227040838Y-103551283D01*
X227517028Y-103789378D02*
X227517028Y-104456044D01*
X227517028Y-103884616D02*
X227564648Y-103836997D01*
X227659886Y-103789378D01*
X227802743Y-103789378D01*
X227897981Y-103836997D01*
X227945600Y-103932235D01*
X227945600Y-104456044D01*
X228802743Y-104408425D02*
X228707505Y-104456044D01*
X228517028Y-104456044D01*
X228421790Y-104408425D01*
X228374171Y-104313187D01*
X228374171Y-103932235D01*
X228421790Y-103836997D01*
X228517028Y-103789378D01*
X228707505Y-103789378D01*
X228802743Y-103836997D01*
X228850362Y-103932235D01*
X228850362Y-104027473D01*
X228374171Y-104122711D01*
X229326552Y-104408425D02*
X229326552Y-104456044D01*
X229278933Y-104551283D01*
X229231314Y-104598902D01*
X230469409Y-104408425D02*
X230612267Y-104456044D01*
X230850362Y-104456044D01*
X230945600Y-104408425D01*
X230993219Y-104360806D01*
X231040838Y-104265568D01*
X231040838Y-104170330D01*
X230993219Y-104075092D01*
X230945600Y-104027473D01*
X230850362Y-103979854D01*
X230659886Y-103932235D01*
X230564648Y-103884616D01*
X230517028Y-103836997D01*
X230469409Y-103741759D01*
X230469409Y-103646521D01*
X230517028Y-103551283D01*
X230564648Y-103503664D01*
X230659886Y-103456044D01*
X230897981Y-103456044D01*
X231040838Y-103503664D01*
X231850362Y-104408425D02*
X231755124Y-104456044D01*
X231564648Y-104456044D01*
X231469409Y-104408425D01*
X231421790Y-104313187D01*
X231421790Y-103932235D01*
X231469409Y-103836997D01*
X231564648Y-103789378D01*
X231755124Y-103789378D01*
X231850362Y-103836997D01*
X231897981Y-103932235D01*
X231897981Y-104027473D01*
X231421790Y-104122711D01*
X232326552Y-103789378D02*
X232326552Y-104789378D01*
X232326552Y-103836997D02*
X232421790Y-103789378D01*
X232612267Y-103789378D01*
X232707505Y-103836997D01*
X232755124Y-103884616D01*
X232802743Y-103979854D01*
X232802743Y-104265568D01*
X232755124Y-104360806D01*
X232707505Y-104408425D01*
X232612267Y-104456044D01*
X232421790Y-104456044D01*
X232326552Y-104408425D01*
X233088457Y-103789378D02*
X233469409Y-103789378D01*
X233231314Y-103456044D02*
X233231314Y-104313187D01*
X233278933Y-104408425D01*
X233374171Y-104456044D01*
X233469409Y-104456044D01*
X234183695Y-104408425D02*
X234088457Y-104456044D01*
X233897981Y-104456044D01*
X233802743Y-104408425D01*
X233755124Y-104313187D01*
X233755124Y-103932235D01*
X233802743Y-103836997D01*
X233897981Y-103789378D01*
X234088457Y-103789378D01*
X234183695Y-103836997D01*
X234231314Y-103932235D01*
X234231314Y-104027473D01*
X233755124Y-104122711D01*
X234659886Y-104456044D02*
X234659886Y-103789378D01*
X234659886Y-103884616D02*
X234707505Y-103836997D01*
X234802743Y-103789378D01*
X234945600Y-103789378D01*
X235040838Y-103836997D01*
X235088457Y-103932235D01*
X235088457Y-104456044D01*
X235088457Y-103932235D02*
X235136076Y-103836997D01*
X235231314Y-103789378D01*
X235374171Y-103789378D01*
X235469409Y-103836997D01*
X235517028Y-103932235D01*
X235517028Y-104456044D01*
X235993219Y-104456044D02*
X235993219Y-103456044D01*
X235993219Y-103836997D02*
X236088457Y-103789378D01*
X236278933Y-103789378D01*
X236374171Y-103836997D01*
X236421790Y-103884616D01*
X236469409Y-103979854D01*
X236469409Y-104265568D01*
X236421790Y-104360806D01*
X236374171Y-104408425D01*
X236278933Y-104456044D01*
X236088457Y-104456044D01*
X235993219Y-104408425D01*
X237278933Y-104408425D02*
X237183695Y-104456044D01*
X236993219Y-104456044D01*
X236897981Y-104408425D01*
X236850362Y-104313187D01*
X236850362Y-103932235D01*
X236897981Y-103836997D01*
X236993219Y-103789378D01*
X237183695Y-103789378D01*
X237278933Y-103836997D01*
X237326552Y-103932235D01*
X237326552Y-104027473D01*
X236850362Y-104122711D01*
X237755124Y-104456044D02*
X237755124Y-103789378D01*
X237755124Y-103979854D02*
X237802743Y-103884616D01*
X237850362Y-103836997D01*
X237945600Y-103789378D01*
X238040838Y-103789378D01*
X239088457Y-103551283D02*
X239136076Y-103503664D01*
X239231314Y-103456044D01*
X239469409Y-103456044D01*
X239564648Y-103503664D01*
X239612267Y-103551283D01*
X239659886Y-103646521D01*
X239659886Y-103741759D01*
X239612267Y-103884616D01*
X239040838Y-104456044D01*
X239659886Y-104456044D01*
X240278933Y-103456044D02*
X240374171Y-103456044D01*
X240469409Y-103503664D01*
X240517028Y-103551283D01*
X240564648Y-103646521D01*
X240612267Y-103836997D01*
X240612267Y-104075092D01*
X240564648Y-104265568D01*
X240517028Y-104360806D01*
X240469409Y-104408425D01*
X240374171Y-104456044D01*
X240278933Y-104456044D01*
X240183695Y-104408425D01*
X240136076Y-104360806D01*
X240088457Y-104265568D01*
X240040838Y-104075092D01*
X240040838Y-103836997D01*
X240088457Y-103646521D01*
X240136076Y-103551283D01*
X240183695Y-103503664D01*
X240278933Y-103456044D01*
X240993219Y-103551283D02*
X241040838Y-103503664D01*
X241136076Y-103456044D01*
X241374171Y-103456044D01*
X241469409Y-103503664D01*
X241517028Y-103551283D01*
X241564648Y-103646521D01*
X241564648Y-103741759D01*
X241517028Y-103884616D01*
X240945600Y-104456044D01*
X241564648Y-104456044D01*
X241945600Y-103551283D02*
X241993219Y-103503664D01*
X242088457Y-103456044D01*
X242326552Y-103456044D01*
X242421790Y-103503664D01*
X242469409Y-103551283D01*
X242517028Y-103646521D01*
X242517028Y-103741759D01*
X242469409Y-103884616D01*
X241897981Y-104456044D01*
X242517028Y-104456044D01*
D11*
X155256069Y-101572235D02*
X156113212Y-101572235D01*
X155497140Y-103072235D02*
X155684640Y-101572235D01*
X157006069Y-103000806D02*
X156854283Y-103072235D01*
X156568569Y-103072235D01*
X156434640Y-103000806D01*
X156381069Y-102857949D01*
X156452497Y-102286521D01*
X156541783Y-102143664D01*
X156693569Y-102072235D01*
X156979283Y-102072235D01*
X157113212Y-102143664D01*
X157166783Y-102286521D01*
X157148926Y-102429378D01*
X156416783Y-102572235D01*
X158291783Y-103000806D02*
X158139997Y-103072235D01*
X157854283Y-103072235D01*
X157720355Y-103000806D01*
X157666783Y-102857949D01*
X157738212Y-102286521D01*
X157827497Y-102143664D01*
X157979283Y-102072235D01*
X158264997Y-102072235D01*
X158398926Y-102143664D01*
X158452497Y-102286521D01*
X158434640Y-102429378D01*
X157702497Y-102572235D01*
X158907855Y-102072235D02*
X159479283Y-102072235D01*
X159184640Y-101572235D02*
X159023926Y-102857949D01*
X159077497Y-103000806D01*
X159211426Y-103072235D01*
X159354283Y-103072235D01*
X159854283Y-103072235D02*
X160041783Y-101572235D01*
X160497140Y-103072235D02*
X160595355Y-102286521D01*
X160541783Y-102143664D01*
X160407855Y-102072235D01*
X160193569Y-102072235D01*
X160041783Y-102143664D01*
X159961426Y-102215092D01*
X161925712Y-103072235D02*
X161211426Y-103072235D01*
X161398926Y-101572235D01*
X163006069Y-103000806D02*
X162854283Y-103072235D01*
X162568569Y-103072235D01*
X162434640Y-103000806D01*
X162381069Y-102857949D01*
X162452497Y-102286521D01*
X162541783Y-102143664D01*
X162693569Y-102072235D01*
X162979283Y-102072235D01*
X163113212Y-102143664D01*
X163166783Y-102286521D01*
X163148926Y-102429378D01*
X162416783Y-102572235D01*
X163648926Y-103000806D02*
X163782855Y-103072235D01*
X164068569Y-103072235D01*
X164220355Y-103000806D01*
X164309640Y-102857949D01*
X164318569Y-102786521D01*
X164264997Y-102643664D01*
X164131069Y-102572235D01*
X163916783Y-102572235D01*
X163782855Y-102500806D01*
X163729283Y-102357949D01*
X163738212Y-102286521D01*
X163827497Y-102143664D01*
X163979283Y-102072235D01*
X164193569Y-102072235D01*
X164327497Y-102143664D01*
X164863212Y-103000806D02*
X164997140Y-103072235D01*
X165282855Y-103072235D01*
X165434640Y-103000806D01*
X165523926Y-102857949D01*
X165532855Y-102786521D01*
X165479283Y-102643664D01*
X165345355Y-102572235D01*
X165131069Y-102572235D01*
X164997140Y-102500806D01*
X164943569Y-102357949D01*
X164952497Y-102286521D01*
X165041783Y-102143664D01*
X165193569Y-102072235D01*
X165407855Y-102072235D01*
X165541783Y-102143664D01*
X166907855Y-102072235D02*
X166782855Y-103072235D01*
X166622140Y-101500806D02*
X166131069Y-102572235D01*
X167059640Y-102572235D01*
X168041783Y-101572235D02*
X168184640Y-101572235D01*
X168318569Y-101643664D01*
X168381069Y-101715092D01*
X168434640Y-101857949D01*
X168470355Y-102143664D01*
X168425712Y-102500806D01*
X168318569Y-102786521D01*
X168229283Y-102929378D01*
X168148926Y-103000806D01*
X167997140Y-103072235D01*
X167854283Y-103072235D01*
X167720355Y-103000806D01*
X167657855Y-102929378D01*
X167604283Y-102786521D01*
X167568569Y-102500806D01*
X167613212Y-102143664D01*
X167720355Y-101857949D01*
X167809640Y-101715092D01*
X167889997Y-101643664D01*
X168041783Y-101572235D01*
%LPC*%
D12*
X304580000Y-95110000D03*
X31750000Y-41170000D03*
X19850000Y-95100000D03*
X292670000Y-41170000D03*
D13*
X133303750Y-73570000D03*
X143463750Y-73570000D03*
D14*
X138383750Y-73570000D03*
D15*
X134573750Y-71030000D03*
X140923750Y-68490000D03*
D13*
X119003750Y-92620000D03*
D14*
X124083750Y-92620000D03*
D13*
X129163750Y-92620000D03*
D15*
X120273750Y-90080000D03*
X126623750Y-87540000D03*
D13*
X224436250Y-90720000D03*
D14*
X219356250Y-90720000D03*
D13*
X214276250Y-90720000D03*
D15*
X215546250Y-88180000D03*
X221896250Y-85640000D03*
D13*
X133303750Y-54520000D03*
X143463750Y-54520000D03*
D14*
X138383750Y-54520000D03*
D15*
X134573750Y-51980000D03*
X140923750Y-49440000D03*
D14*
X43133125Y-34507500D03*
D13*
X38053125Y-34507500D03*
X48213125Y-34507500D03*
D15*
X39323125Y-31967500D03*
X45673125Y-29427500D03*
D13*
X171403750Y-92610000D03*
D14*
X176483750Y-92610000D03*
D13*
X181563750Y-92610000D03*
D15*
X172673750Y-90070000D03*
X179023750Y-87530000D03*
D16*
X159310000Y-26197636D03*
X165090000Y-26197636D03*
D17*
X166520000Y-22547636D03*
X157880000Y-22547636D03*
D18*
X166520000Y-26727636D03*
X157880000Y-26727636D03*
D13*
X210143750Y-71670000D03*
X199983750Y-71670000D03*
D14*
X205063750Y-71670000D03*
D15*
X201253750Y-69130000D03*
X207603750Y-66590000D03*
D14*
X38370625Y-53557500D03*
D13*
X33290625Y-53557500D03*
X43450625Y-53557500D03*
D15*
X34560625Y-51017500D03*
X40910625Y-48477500D03*
D13*
X267283750Y-93570000D03*
D14*
X262203750Y-93570000D03*
D13*
X257123750Y-93570000D03*
D15*
X258393750Y-91030000D03*
X264743750Y-88490000D03*
D13*
X86313750Y-33570000D03*
D14*
X81233750Y-33570000D03*
D13*
X76153750Y-33570000D03*
D15*
X77423750Y-31030000D03*
X83773750Y-28490000D03*
D14*
X100283750Y-49760000D03*
D13*
X105363750Y-49760000D03*
X95203750Y-49760000D03*
D15*
X96473750Y-47220000D03*
X102823750Y-44680000D03*
D13*
X219033750Y-49760000D03*
D14*
X224113750Y-49760000D03*
D13*
X229193750Y-49760000D03*
D15*
X220303750Y-47220000D03*
X226653750Y-44680000D03*
D13*
X167263750Y-33560000D03*
X157103750Y-33560000D03*
D14*
X162183750Y-33560000D03*
D15*
X165993750Y-36100000D03*
X159643750Y-38640000D03*
D13*
X26146875Y-91657500D03*
D14*
X31226875Y-91657500D03*
D13*
X36306875Y-91657500D03*
D15*
X27416875Y-89117500D03*
X33766875Y-86577500D03*
D13*
X124403750Y-33580000D03*
X114243750Y-33580000D03*
D14*
X119323750Y-33580000D03*
D15*
X115513750Y-31040000D03*
X121863750Y-28500000D03*
D13*
X105363750Y-68810000D03*
D14*
X100283750Y-68810000D03*
D13*
X95203750Y-68810000D03*
D15*
X96473750Y-66270000D03*
X102823750Y-63730000D03*
D13*
X173793750Y-92610000D03*
X183953750Y-92610000D03*
D14*
X178873750Y-92610000D03*
D15*
X182683750Y-95150000D03*
X176333750Y-97690000D03*
D14*
X286026250Y-53570000D03*
D13*
X291106250Y-53570000D03*
X280946250Y-53570000D03*
D15*
X282216250Y-51030000D03*
X288566250Y-48490000D03*
D14*
X288407500Y-72620000D03*
D13*
X283327500Y-72620000D03*
X293487500Y-72620000D03*
D15*
X284597500Y-70080000D03*
X290947500Y-67540000D03*
D13*
X248248750Y-71670000D03*
X238088750Y-71670000D03*
D14*
X243168750Y-71670000D03*
D15*
X239358750Y-69130000D03*
X245708750Y-66590000D03*
D14*
X81233750Y-52620000D03*
D13*
X76153750Y-52620000D03*
X86313750Y-52620000D03*
D15*
X77423750Y-50080000D03*
X83773750Y-47540000D03*
D14*
X119323750Y-52630000D03*
D13*
X124403750Y-52630000D03*
X114243750Y-52630000D03*
D15*
X115513750Y-50090000D03*
X121863750Y-47550000D03*
D14*
X162183750Y-52610000D03*
D13*
X157103750Y-52610000D03*
X167263750Y-52610000D03*
D15*
X158373750Y-50070000D03*
X164723750Y-47530000D03*
D14*
X62183750Y-55470000D03*
D13*
X67263750Y-55470000D03*
X57103750Y-55470000D03*
D15*
X58373750Y-52930000D03*
X64723750Y-50390000D03*
D14*
X200303750Y-92600000D03*
D13*
X205383750Y-92600000D03*
X195223750Y-92600000D03*
D15*
X204113750Y-95140000D03*
X197763750Y-97680000D03*
D13*
X229193750Y-68810000D03*
X219033750Y-68810000D03*
D14*
X224113750Y-68810000D03*
D15*
X220303750Y-66270000D03*
X226653750Y-63730000D03*
D13*
X95203750Y-30710000D03*
X105363750Y-30710000D03*
D14*
X100283750Y-30710000D03*
D15*
X96473750Y-28170000D03*
X102823750Y-25630000D03*
D13*
X57103750Y-93570000D03*
X67263750Y-93570000D03*
D14*
X62183750Y-93570000D03*
D15*
X58373750Y-91030000D03*
X64723750Y-88490000D03*
D13*
X67263750Y-74520000D03*
X57103750Y-74520000D03*
D14*
X62183750Y-74520000D03*
D15*
X58373750Y-71980000D03*
X64723750Y-69440000D03*
D14*
X197890000Y-92610000D03*
D13*
X202970000Y-92610000D03*
X192810000Y-92610000D03*
D15*
X194080000Y-90070000D03*
X200430000Y-87530000D03*
D13*
X210143750Y-33570000D03*
X199983750Y-33570000D03*
D14*
X205063750Y-33570000D03*
D15*
X201253750Y-31030000D03*
X207603750Y-28490000D03*
D14*
X262203750Y-36420000D03*
D13*
X257123750Y-36420000D03*
X267283750Y-36420000D03*
D15*
X258393750Y-33880000D03*
X264743750Y-31340000D03*
D13*
X276183750Y-34520000D03*
D14*
X281263750Y-34520000D03*
D13*
X286343750Y-34520000D03*
D15*
X277453750Y-31980000D03*
X283803750Y-29440000D03*
D13*
X110116250Y-90730000D03*
X99956250Y-90730000D03*
D14*
X105036250Y-90730000D03*
D15*
X101226250Y-88190000D03*
X107576250Y-85650000D03*
D14*
X243168750Y-52620000D03*
D13*
X238088750Y-52620000D03*
X248248750Y-52620000D03*
D15*
X239358750Y-50080000D03*
X245708750Y-47540000D03*
D13*
X229193750Y-30710000D03*
X219033750Y-30710000D03*
D14*
X224113750Y-30710000D03*
D15*
X220303750Y-28170000D03*
X226653750Y-25630000D03*
D14*
X145503750Y-92610000D03*
D13*
X150583750Y-92610000D03*
X140423750Y-92610000D03*
D15*
X141693750Y-90070000D03*
X148043750Y-87530000D03*
D14*
X81233750Y-71670000D03*
D13*
X76153750Y-71670000D03*
X86313750Y-71670000D03*
D15*
X77423750Y-69130000D03*
X83773750Y-66590000D03*
D19*
X159980176Y-93390000D03*
D20*
X159980176Y-95930000D03*
X162520176Y-93390000D03*
X162520176Y-95930000D03*
X165060176Y-93390000D03*
X165060176Y-95930000D03*
D14*
X119323750Y-71680000D03*
D13*
X114243750Y-71680000D03*
X124403750Y-71680000D03*
D15*
X115513750Y-69140000D03*
X121863750Y-66600000D03*
D14*
X262203750Y-74520000D03*
D13*
X267283750Y-74520000D03*
X257123750Y-74520000D03*
D15*
X258393750Y-71980000D03*
X264743750Y-69440000D03*
D14*
X186013125Y-35460000D03*
D13*
X191093125Y-35460000D03*
X180933125Y-35460000D03*
D15*
X182203125Y-32920000D03*
X188553125Y-30380000D03*
D13*
X41069375Y-72607500D03*
D14*
X35989375Y-72607500D03*
D13*
X30909375Y-72607500D03*
D15*
X32179375Y-70067500D03*
X38529375Y-67527500D03*
D13*
X131560000Y-92620000D03*
D14*
X126480000Y-92620000D03*
D13*
X121400000Y-92620000D03*
D15*
X130290000Y-95160000D03*
X123940000Y-97700000D03*
D13*
X235707500Y-90720000D03*
X245867500Y-90720000D03*
D14*
X240787500Y-90720000D03*
D15*
X236977500Y-88180000D03*
X243327500Y-85640000D03*
D13*
X199983750Y-52620000D03*
D14*
X205063750Y-52620000D03*
D13*
X210143750Y-52620000D03*
D15*
X201253750Y-50080000D03*
X207603750Y-47540000D03*
D14*
X262203750Y-55470000D03*
D13*
X267283750Y-55470000D03*
X257123750Y-55470000D03*
D15*
X258393750Y-52930000D03*
X264743750Y-50390000D03*
D13*
X67263750Y-36420000D03*
X57103750Y-36420000D03*
D14*
X62183750Y-36420000D03*
D15*
X58373750Y-33880000D03*
X64723750Y-31340000D03*
D13*
X298250000Y-91670000D03*
D14*
X293170000Y-91670000D03*
D13*
X288090000Y-91670000D03*
D15*
X289360000Y-89130000D03*
X295710000Y-86590000D03*
D13*
X248248750Y-33570000D03*
X238088750Y-33570000D03*
D14*
X243168750Y-33570000D03*
D15*
X239358750Y-31030000D03*
X245708750Y-28490000D03*
D13*
X88695000Y-90720000D03*
D14*
X83615000Y-90720000D03*
D13*
X78535000Y-90720000D03*
D15*
X79805000Y-88180000D03*
X86155000Y-85640000D03*
D13*
X152973750Y-92640000D03*
X142813750Y-92640000D03*
D14*
X147893750Y-92640000D03*
D15*
X151703750Y-95180000D03*
X145353750Y-97720000D03*
D13*
X133303750Y-35470000D03*
D14*
X138383750Y-35470000D03*
D13*
X143463750Y-35470000D03*
D15*
X134573750Y-32930000D03*
X140923750Y-30390000D03*
D13*
X191093125Y-54510000D03*
D14*
X186013125Y-54510000D03*
D13*
X180933125Y-54510000D03*
D15*
X182203125Y-51970000D03*
X188553125Y-49430000D03*
D13*
X191093125Y-73560000D03*
X180933125Y-73560000D03*
D14*
X186013125Y-73560000D03*
D15*
X182203125Y-71020000D03*
X188553125Y-68480000D03*
M02*
