%TF.GenerationSoftware,KiCad,Pcbnew,(6.0.7)*%
%TF.CreationDate,2022-09-18T01:02:23+03:00*%
%TF.ProjectId,teethless40_csl_pcb_schema,74656574-686c-4657-9373-34305f63736c,rev?*%
%TF.SameCoordinates,Original*%
%TF.FileFunction,Paste,Bot*%
%TF.FilePolarity,Positive*%
%FSLAX46Y46*%
G04 Gerber Fmt 4.6, Leading zero omitted, Abs format (unit mm)*
G04 Created by KiCad (PCBNEW (6.0.7)) date 2022-09-18 01:02:23*
%MOMM*%
%LPD*%
G01*
G04 APERTURE LIST*
G04 Aperture macros list*
%AMRoundRect*
0 Rectangle with rounded corners*
0 $1 Rounding radius*
0 $2 $3 $4 $5 $6 $7 $8 $9 X,Y pos of 4 corners*
0 Add a 4 corners polygon primitive as box body*
4,1,4,$2,$3,$4,$5,$6,$7,$8,$9,$2,$3,0*
0 Add four circle primitives for the rounded corners*
1,1,$1+$1,$2,$3*
1,1,$1+$1,$4,$5*
1,1,$1+$1,$6,$7*
1,1,$1+$1,$8,$9*
0 Add four rect primitives between the rounded corners*
20,1,$1+$1,$2,$3,$4,$5,0*
20,1,$1+$1,$4,$5,$6,$7,0*
20,1,$1+$1,$6,$7,$8,$9,0*
20,1,$1+$1,$8,$9,$2,$3,0*%
G04 Aperture macros list end*
%ADD10C,0.010000*%
%ADD11RoundRect,0.250000X1.025000X1.000000X-1.025000X1.000000X-1.025000X-1.000000X1.025000X-1.000000X0*%
%ADD12R,0.900000X1.200000*%
%ADD13RoundRect,0.250000X0.250000X0.475000X-0.250000X0.475000X-0.250000X-0.475000X0.250000X-0.475000X0*%
%ADD14R,0.600000X1.450000*%
%ADD15R,0.300000X1.450000*%
%ADD16RoundRect,0.250000X0.262500X0.450000X-0.262500X0.450000X-0.262500X-0.450000X0.262500X-0.450000X0*%
%ADD17RoundRect,0.250000X-1.025000X-1.000000X1.025000X-1.000000X1.025000X1.000000X-1.025000X1.000000X0*%
%ADD18R,1.190000X1.728000*%
%ADD19RoundRect,0.250000X0.475000X-0.250000X0.475000X0.250000X-0.475000X0.250000X-0.475000X-0.250000X0*%
%ADD20RoundRect,0.007800X0.497200X0.122200X-0.497200X0.122200X-0.497200X-0.122200X0.497200X-0.122200X0*%
%ADD21RoundRect,0.033800X0.096200X0.471200X-0.096200X0.471200X-0.096200X-0.471200X0.096200X-0.471200X0*%
%ADD22RoundRect,0.250000X-0.262500X-0.450000X0.262500X-0.450000X0.262500X0.450000X-0.262500X0.450000X0*%
%ADD23RoundRect,0.250000X-0.475000X0.250000X-0.475000X-0.250000X0.475000X-0.250000X0.475000X0.250000X0*%
%ADD24R,1.400000X1.200000*%
%ADD25RoundRect,0.250000X0.450000X-0.262500X0.450000X0.262500X-0.450000X0.262500X-0.450000X-0.262500X0*%
G04 APERTURE END LIST*
G36*
X164315000Y-73338688D02*
G01*
X162675000Y-73338688D01*
X162675000Y-71698688D01*
X164315000Y-71698688D01*
X164315000Y-73338688D01*
G37*
D10*
X164315000Y-73338688D02*
X162675000Y-73338688D01*
X162675000Y-71698688D01*
X164315000Y-71698688D01*
X164315000Y-73338688D01*
G36*
X164315000Y-75938688D02*
G01*
X162675000Y-75938688D01*
X162675000Y-74298688D01*
X164315000Y-74298688D01*
X164315000Y-75938688D01*
G37*
X164315000Y-75938688D02*
X162675000Y-75938688D01*
X162675000Y-74298688D01*
X164315000Y-74298688D01*
X164315000Y-75938688D01*
G36*
X161715000Y-73338688D02*
G01*
X160075000Y-73338688D01*
X160075000Y-71698688D01*
X161715000Y-71698688D01*
X161715000Y-73338688D01*
G37*
X161715000Y-73338688D02*
X160075000Y-73338688D01*
X160075000Y-71698688D01*
X161715000Y-71698688D01*
X161715000Y-73338688D01*
G36*
X161715000Y-75938688D02*
G01*
X160075000Y-75938688D01*
X160075000Y-74298688D01*
X161715000Y-74298688D01*
X161715000Y-75938688D01*
G37*
X161715000Y-75938688D02*
X160075000Y-75938688D01*
X160075000Y-74298688D01*
X161715000Y-74298688D01*
X161715000Y-75938688D01*
D11*
X131023750Y-71030000D03*
X144473750Y-68490000D03*
X116723750Y-90080000D03*
X130173750Y-87540000D03*
D12*
X260684375Y-99218750D03*
X263984375Y-99218750D03*
D11*
X211996250Y-88180000D03*
X225446250Y-85640000D03*
X131023750Y-51980000D03*
X144473750Y-49440000D03*
X35773125Y-31967500D03*
X49223125Y-29427500D03*
D12*
X222570000Y-74430000D03*
X225870000Y-74430000D03*
X260684375Y-80168750D03*
X263984375Y-80168750D03*
D11*
X169123750Y-90070000D03*
X182573750Y-87530000D03*
D13*
X170440000Y-64120000D03*
X168540000Y-64120000D03*
D14*
X158975000Y-27642636D03*
X159750000Y-27642636D03*
D15*
X160450000Y-27642636D03*
X160950000Y-27642636D03*
X161450000Y-27642636D03*
X161950000Y-27642636D03*
X162450000Y-27642636D03*
X162950000Y-27642636D03*
X163450000Y-27642636D03*
X163950000Y-27642636D03*
D14*
X164650000Y-27642636D03*
X165425000Y-27642636D03*
D11*
X197703750Y-69130000D03*
X211153750Y-66590000D03*
X31010625Y-51017500D03*
X44460625Y-48477500D03*
D12*
X241634375Y-58340625D03*
X244934375Y-58340625D03*
X184490000Y-41020000D03*
X187790000Y-41020000D03*
D16*
X171469388Y-28033880D03*
X169644388Y-28033880D03*
D12*
X60262500Y-99615625D03*
X63562500Y-99615625D03*
D11*
X254843750Y-91030000D03*
X268293750Y-88490000D03*
D12*
X136462500Y-41275000D03*
X139762500Y-41275000D03*
D11*
X73873750Y-31030000D03*
X87323750Y-28490000D03*
D12*
X133208750Y-100557500D03*
X136508750Y-100557500D03*
D11*
X92923750Y-47220000D03*
X106373750Y-44680000D03*
X216753750Y-47220000D03*
X230203750Y-44680000D03*
D12*
X284496875Y-59134375D03*
X287796875Y-59134375D03*
X241634375Y-77390625D03*
X244934375Y-77390625D03*
D17*
X169543750Y-36100000D03*
X156093750Y-38640000D03*
D12*
X60262500Y-80168750D03*
X63562500Y-80168750D03*
D11*
X23866875Y-89117500D03*
X37316875Y-86577500D03*
X111963750Y-31040000D03*
X125413750Y-28500000D03*
D12*
X79300000Y-58160000D03*
X82600000Y-58160000D03*
X241634375Y-39290625D03*
X244934375Y-39290625D03*
D11*
X92923750Y-66270000D03*
X106373750Y-63730000D03*
D12*
X203534375Y-77390625D03*
X206834375Y-77390625D03*
D18*
X154737840Y-26789040D03*
X151847840Y-26789040D03*
D17*
X186233750Y-95150000D03*
X172783750Y-97690000D03*
D19*
X156393750Y-84000000D03*
X156393750Y-82100000D03*
D12*
X184484375Y-79375000D03*
X187784375Y-79375000D03*
D11*
X278666250Y-51030000D03*
X292116250Y-48490000D03*
D12*
X34068750Y-78581250D03*
X37368750Y-78581250D03*
D11*
X281047500Y-70080000D03*
X294497500Y-67540000D03*
D12*
X260684375Y-61118750D03*
X263984375Y-61118750D03*
X203534375Y-39290625D03*
X206834375Y-39290625D03*
X160671875Y-43040000D03*
X163971875Y-43040000D03*
D11*
X235808750Y-69130000D03*
X249258750Y-66590000D03*
X73873750Y-50080000D03*
X87323750Y-47540000D03*
D20*
X165555000Y-71318688D03*
X165555000Y-71818688D03*
X165555000Y-72318688D03*
X165555000Y-72818688D03*
X165555000Y-73318688D03*
X165555000Y-73818688D03*
X165555000Y-74318688D03*
X165555000Y-74818688D03*
X165555000Y-75318688D03*
X165555000Y-75818688D03*
X165555000Y-76318688D03*
D21*
X164695000Y-77178688D03*
X164195000Y-77178688D03*
X163695000Y-77178688D03*
X163195000Y-77178688D03*
X162695000Y-77178688D03*
X162195000Y-77178688D03*
X161695000Y-77178688D03*
X161195000Y-77178688D03*
X160695000Y-77178688D03*
X160195000Y-77178688D03*
X159695000Y-77178688D03*
D20*
X158835000Y-76318688D03*
X158835000Y-75818688D03*
X158835000Y-75318688D03*
X158835000Y-74818688D03*
X158835000Y-74318688D03*
X158835000Y-73818688D03*
X158835000Y-73318688D03*
X158835000Y-72818688D03*
X158835000Y-72318688D03*
X158835000Y-71818688D03*
X158835000Y-71318688D03*
D21*
X159695000Y-70458688D03*
X160195000Y-70458688D03*
X160695000Y-70458688D03*
X161195000Y-70458688D03*
X161695000Y-70458688D03*
X162195000Y-70458688D03*
X162695000Y-70458688D03*
X163195000Y-70458688D03*
X163695000Y-70458688D03*
X164195000Y-70458688D03*
X164695000Y-70458688D03*
D22*
X169644388Y-23812480D03*
X171469388Y-23812480D03*
D12*
X222584375Y-36512500D03*
X225884375Y-36512500D03*
D11*
X111963750Y-50090000D03*
X125413750Y-47550000D03*
D12*
X217821875Y-96440625D03*
X221121875Y-96440625D03*
X260684375Y-42068750D03*
X263984375Y-42068750D03*
D11*
X154823750Y-50070000D03*
X168273750Y-47530000D03*
D12*
X160671875Y-58040000D03*
X163971875Y-58040000D03*
D11*
X54823750Y-52930000D03*
X68273750Y-50390000D03*
D17*
X207663750Y-95140000D03*
X194213750Y-97680000D03*
D23*
X167993750Y-81690000D03*
X167993750Y-83590000D03*
X151506904Y-76738216D03*
X151506904Y-78638216D03*
D12*
X136462500Y-79375000D03*
X139762500Y-79375000D03*
X29306250Y-97631250D03*
X32606250Y-97631250D03*
X81693750Y-96440625D03*
X84993750Y-96440625D03*
D11*
X216753750Y-66270000D03*
X230203750Y-63730000D03*
X92923750Y-28170000D03*
X106373750Y-25630000D03*
D12*
X211522500Y-100944375D03*
X208222500Y-100944375D03*
D11*
X54823750Y-91030000D03*
X68273750Y-88490000D03*
D12*
X114158750Y-100954375D03*
X117458750Y-100954375D03*
D13*
X157543750Y-63240000D03*
X155643750Y-63240000D03*
D11*
X54823750Y-71980000D03*
X68273750Y-69440000D03*
D24*
X159295000Y-81800000D03*
X161495000Y-81800000D03*
X161495000Y-83500000D03*
X159295000Y-83500000D03*
D12*
X239253125Y-96440625D03*
X242553125Y-96440625D03*
D11*
X190530000Y-90070000D03*
X203980000Y-87530000D03*
D12*
X136462500Y-60325000D03*
X139762500Y-60325000D03*
D11*
X197703750Y-31030000D03*
X211153750Y-28490000D03*
D12*
X98360000Y-36280000D03*
X101660000Y-36280000D03*
D11*
X254843750Y-33880000D03*
X268293750Y-31340000D03*
X273903750Y-31980000D03*
X287353750Y-29440000D03*
D12*
X79330000Y-77180000D03*
X82630000Y-77180000D03*
D11*
X97676250Y-88190000D03*
X111126250Y-85650000D03*
D12*
X184470000Y-60150000D03*
X187770000Y-60150000D03*
D11*
X235808750Y-50080000D03*
X249258750Y-47540000D03*
X216753750Y-28170000D03*
X230203750Y-25630000D03*
X138143750Y-90070000D03*
X151593750Y-87530000D03*
D16*
X171469388Y-31253880D03*
X169644388Y-31253880D03*
D12*
X36450000Y-59531250D03*
X39750000Y-59531250D03*
D11*
X73873750Y-69130000D03*
X87323750Y-66590000D03*
X111963750Y-69140000D03*
X125413750Y-66600000D03*
D23*
X164493750Y-81690000D03*
X164493750Y-83590000D03*
D12*
X188900625Y-100944375D03*
X185600625Y-100944375D03*
X103125000Y-96440625D03*
X106425000Y-96440625D03*
X60270000Y-42080000D03*
X63570000Y-42080000D03*
D11*
X254843750Y-71980000D03*
X268293750Y-69440000D03*
X178653125Y-32920000D03*
X192103125Y-30380000D03*
X28629375Y-70067500D03*
X42079375Y-67527500D03*
D17*
X133840000Y-95160000D03*
X120390000Y-97700000D03*
D12*
X291640625Y-97234375D03*
X294940625Y-97234375D03*
D11*
X233427500Y-88180000D03*
X246877500Y-85640000D03*
D12*
X79312500Y-39290625D03*
X82612500Y-39290625D03*
X117412500Y-58340625D03*
X120712500Y-58340625D03*
D13*
X174730000Y-72220000D03*
X172830000Y-72220000D03*
D12*
X279734375Y-40481250D03*
X283034375Y-40481250D03*
X286878125Y-78184375D03*
X290178125Y-78184375D03*
X222584375Y-55562500D03*
X225884375Y-55562500D03*
D11*
X197703750Y-50080000D03*
X211153750Y-47540000D03*
D12*
X203534375Y-58340625D03*
X206834375Y-58340625D03*
X98360000Y-55290000D03*
X101660000Y-55290000D03*
X41230000Y-40030000D03*
X44530000Y-40030000D03*
D11*
X254843750Y-52930000D03*
X268293750Y-50390000D03*
D12*
X60262500Y-61118750D03*
X63562500Y-61118750D03*
X98390000Y-74440000D03*
X101690000Y-74440000D03*
D11*
X54823750Y-33880000D03*
X68273750Y-31340000D03*
D12*
X117412500Y-39290625D03*
X120712500Y-39290625D03*
D11*
X285810000Y-89130000D03*
X299260000Y-86590000D03*
X235808750Y-31030000D03*
X249258750Y-28490000D03*
X76255000Y-88180000D03*
X89705000Y-85640000D03*
D17*
X155253750Y-95180000D03*
X141803750Y-97720000D03*
D25*
X152800000Y-64212500D03*
X152800000Y-62387500D03*
D11*
X131023750Y-32930000D03*
X144473750Y-30390000D03*
D12*
X117412500Y-77390625D03*
X120712500Y-77390625D03*
D11*
X178653125Y-51970000D03*
X192103125Y-49430000D03*
X178653125Y-71020000D03*
X192103125Y-68480000D03*
D16*
X157181900Y-30360912D03*
X155356900Y-30360912D03*
M02*
