%TF.GenerationSoftware,KiCad,Pcbnew,(6.0.7)*%
%TF.CreationDate,2022-10-14T21:09:29+03:00*%
%TF.ProjectId,tl40_fr4_gerbers,746c3430-5f66-4723-945f-676572626572,rev?*%
%TF.SameCoordinates,Original*%
%TF.FileFunction,Drillmap*%
%TF.FilePolarity,Positive*%
%FSLAX45Y45*%
G04 Gerber Fmt 4.5, Leading zero omitted, Abs format (unit mm)*
G04 Created by KiCad (PCBNEW (6.0.7)) date 2022-10-14 21:09:29*
%MOMM*%
%LPD*%
G01*
G04 APERTURE LIST*
%ADD10C,0.200000*%
G04 APERTURE END LIST*
D10*
X17382785Y-12861065D02*
X17382785Y-11771065D01*
X17467785Y-11771065D02*
X17467785Y-12861065D01*
X17442785Y-12886065D02*
G75*
G03*
X17467785Y-12861065I5J24995D01*
G01*
X17442785Y-12886065D02*
X17407785Y-12886065D01*
X17382785Y-12861065D02*
G75*
G03*
X17407785Y-12886065I24995J-5D01*
G01*
X17407785Y-11746075D02*
G75*
G03*
X17382785Y-11771065I-5J-24995D01*
G01*
X17407785Y-11746065D02*
X17442785Y-11746065D01*
X17467795Y-11771065D02*
G75*
G03*
X17442785Y-11746065I-25005J-5D01*
G01*
X18896535Y-18671315D02*
X18896535Y-17581315D01*
X18811535Y-17581315D02*
X18811535Y-18671315D01*
X18811535Y-18671315D02*
G75*
G03*
X18836535Y-18696315I24995J-5D01*
G01*
X18836535Y-18696315D02*
X18871535Y-18696315D01*
X18871535Y-18696325D02*
G75*
G03*
X18896535Y-18671315I-5J25005D01*
G01*
X18896535Y-17581315D02*
G75*
G03*
X18871535Y-17556315I-25005J-5D01*
G01*
X18871535Y-17556315D02*
X18836535Y-17556315D01*
X18836535Y-17556325D02*
G75*
G03*
X18811535Y-17581315I-5J-24995D01*
G01*
X21039660Y-18576065D02*
X21039660Y-17486065D01*
X20954660Y-17486065D02*
X20954660Y-18576065D01*
X20954665Y-18576065D02*
G75*
G03*
X20979660Y-18601065I24995J-5D01*
G01*
X20979660Y-18601065D02*
X21014660Y-18601065D01*
X21014660Y-18601070D02*
G75*
G03*
X21039660Y-18576065I0J25000D01*
G01*
X21039665Y-17486065D02*
G75*
G03*
X21014660Y-17461065I-25005J-5D01*
G01*
X21014660Y-17461065D02*
X20979660Y-17461065D01*
X20979660Y-17461070D02*
G75*
G03*
X20954660Y-17486065I0J-25000D01*
G01*
X23063722Y-18480815D02*
X23063722Y-17390815D01*
X22978722Y-17390815D02*
X22978722Y-18480815D01*
X22978725Y-18480815D02*
G75*
G03*
X23003722Y-18505815I24995J-5D01*
G01*
X23003722Y-18505815D02*
X23038722Y-18505815D01*
X23038722Y-18505822D02*
G75*
G03*
X23063722Y-18480815I-2J25002D01*
G01*
X23063725Y-17390815D02*
G75*
G03*
X23038722Y-17365815I-25005J-5D01*
G01*
X23038722Y-17365815D02*
X23003722Y-17365815D01*
X23003722Y-17365822D02*
G75*
G03*
X22978722Y-17390815I-2J-24998D01*
G01*
X25206847Y-18623690D02*
X25206847Y-17533690D01*
X25121847Y-17533690D02*
X25121847Y-18623690D01*
X25121850Y-18623690D02*
G75*
G03*
X25146847Y-18648690I25000J0D01*
G01*
X25146847Y-18648690D02*
X25181847Y-18648690D01*
X25181847Y-18648687D02*
G75*
G03*
X25206847Y-18623690I3J24997D01*
G01*
X25206850Y-17533690D02*
G75*
G03*
X25181847Y-17508690I-25000J0D01*
G01*
X25181847Y-17508690D02*
X25146847Y-17508690D01*
X25146847Y-17508687D02*
G75*
G03*
X25121847Y-17533690I3J-25003D01*
G01*
X27834035Y-13311065D02*
X28924035Y-13311065D01*
X28924035Y-13226065D02*
X27834035Y-13226065D01*
X27834035Y-13226075D02*
G75*
G03*
X27809035Y-13251065I-5J-24995D01*
G01*
X27809035Y-13251065D02*
X27809035Y-13286065D01*
X27809035Y-13286065D02*
G75*
G03*
X27834035Y-13311065I24995J-5D01*
G01*
X28924035Y-13311075D02*
G75*
G03*
X28949035Y-13286065I-5J25005D01*
G01*
X28949035Y-13286065D02*
X28949035Y-13251065D01*
X28949035Y-13251065D02*
G75*
G03*
X28924035Y-13226065I-25005J-5D01*
G01*
X28548410Y-17121065D02*
X29638410Y-17121065D01*
X29638410Y-17036065D02*
X28548410Y-17036065D01*
X28548410Y-17036070D02*
G75*
G03*
X28523410Y-17061065I0J-25000D01*
G01*
X28523410Y-17061065D02*
X28523410Y-17096065D01*
X28523415Y-17096065D02*
G75*
G03*
X28548410Y-17121065I24995J-5D01*
G01*
X29638410Y-17121070D02*
G75*
G03*
X29663410Y-17096065I0J25000D01*
G01*
X29663410Y-17096065D02*
X29663410Y-17061065D01*
X29663415Y-17061065D02*
G75*
G03*
X29638410Y-17036065I-25005J-5D01*
G01*
X28191222Y-15216065D02*
X29281222Y-15216065D01*
X29281222Y-15131065D02*
X28191222Y-15131065D01*
X28191222Y-15131072D02*
G75*
G03*
X28166222Y-15156065I-2J-24998D01*
G01*
X28166222Y-15156065D02*
X28166222Y-15191065D01*
X28166225Y-15191065D02*
G75*
G03*
X28191222Y-15216065I24995J-5D01*
G01*
X29281222Y-15216072D02*
G75*
G03*
X29306222Y-15191065I-2J25002D01*
G01*
X29306222Y-15191065D02*
X29306222Y-15156065D01*
X29306225Y-15156065D02*
G75*
G03*
X29281222Y-15131065I-25005J-5D01*
G01*
X27230910Y-12956315D02*
X27230910Y-11866315D01*
X27145910Y-11866315D02*
X27145910Y-12956315D01*
X27145915Y-12956315D02*
G75*
G03*
X27170910Y-12981315I24995J-5D01*
G01*
X27170910Y-12981315D02*
X27205910Y-12981315D01*
X27205910Y-12981320D02*
G75*
G03*
X27230910Y-12956315I0J25000D01*
G01*
X27230915Y-11866315D02*
G75*
G03*
X27205910Y-11841315I-25005J-5D01*
G01*
X27205910Y-11841315D02*
X27170910Y-11841315D01*
X27170910Y-11841320D02*
G75*
G03*
X27145910Y-11866315I0J-25000D01*
G01*
X25325910Y-12908690D02*
X25325910Y-11818690D01*
X25240910Y-11818690D02*
X25240910Y-12908690D01*
X25240910Y-12908690D02*
G75*
G03*
X25265910Y-12933690I25000J0D01*
G01*
X25265910Y-12933690D02*
X25300910Y-12933690D01*
X25300910Y-12933690D02*
G75*
G03*
X25325910Y-12908690I0J25000D01*
G01*
X25325910Y-11818690D02*
G75*
G03*
X25300910Y-11793690I-25000J0D01*
G01*
X25300910Y-11793690D02*
X25265910Y-11793690D01*
X25265910Y-11793690D02*
G75*
G03*
X25240910Y-11818690I0J-25000D01*
G01*
X23420910Y-12622940D02*
X23420910Y-11532940D01*
X23335910Y-11532940D02*
X23335910Y-12622940D01*
X23335910Y-12622940D02*
G75*
G03*
X23360910Y-12647940I25000J0D01*
G01*
X23360910Y-12647940D02*
X23395910Y-12647940D01*
X23395910Y-12647940D02*
G75*
G03*
X23420910Y-12622940I0J25000D01*
G01*
X23420910Y-11532940D02*
G75*
G03*
X23395910Y-11507940I-25000J0D01*
G01*
X23395910Y-11507940D02*
X23360910Y-11507940D01*
X23360910Y-11507940D02*
G75*
G03*
X23335910Y-11532940I0J-25000D01*
G01*
X21515910Y-12622940D02*
X21515910Y-11532940D01*
X21430910Y-11532940D02*
X21430910Y-12622940D01*
X21430910Y-12622940D02*
G75*
G03*
X21455910Y-12647940I25000J0D01*
G01*
X21455910Y-12647940D02*
X21490910Y-12647940D01*
X21490910Y-12647940D02*
G75*
G03*
X21515910Y-12622940I0J25000D01*
G01*
X21515910Y-11532940D02*
G75*
G03*
X21490910Y-11507940I-25000J0D01*
G01*
X21490910Y-11507940D02*
X21455910Y-11507940D01*
X21455910Y-11507940D02*
G75*
G03*
X21430910Y-11532940I0J-25000D01*
G01*
X19610910Y-12861065D02*
X19610910Y-11771065D01*
X19525910Y-11771065D02*
X19525910Y-12861065D01*
X19525915Y-12861065D02*
G75*
G03*
X19550910Y-12886065I24995J-5D01*
G01*
X19550910Y-12886065D02*
X19585910Y-12886065D01*
X19585910Y-12886070D02*
G75*
G03*
X19610910Y-12861065I0J25000D01*
G01*
X19610915Y-11771065D02*
G75*
G03*
X19585910Y-11746065I-25005J-5D01*
G01*
X19585910Y-11746065D02*
X19550910Y-11746065D01*
X19550910Y-11746070D02*
G75*
G03*
X19525910Y-11771065I0J-25000D01*
G01*
X25325910Y-14813690D02*
X25325910Y-13723690D01*
X25240910Y-13723690D02*
X25240910Y-14813690D01*
X25240910Y-14813690D02*
G75*
G03*
X25265910Y-14838690I25000J0D01*
G01*
X25265910Y-14838690D02*
X25300910Y-14838690D01*
X25300910Y-14838690D02*
G75*
G03*
X25325910Y-14813690I0J25000D01*
G01*
X25325910Y-13723690D02*
G75*
G03*
X25300910Y-13698690I-25000J0D01*
G01*
X25300910Y-13698690D02*
X25265910Y-13698690D01*
X25265910Y-13698690D02*
G75*
G03*
X25240910Y-13723690I0J-25000D01*
G01*
X23420910Y-14527940D02*
X23420910Y-13437940D01*
X23335910Y-13437940D02*
X23335910Y-14527940D01*
X23335910Y-14527940D02*
G75*
G03*
X23360910Y-14552940I25000J0D01*
G01*
X23360910Y-14552940D02*
X23395910Y-14552940D01*
X23395910Y-14552940D02*
G75*
G03*
X23420910Y-14527940I0J25000D01*
G01*
X23420910Y-13437940D02*
G75*
G03*
X23395910Y-13412940I-25000J0D01*
G01*
X23395910Y-13412940D02*
X23360910Y-13412940D01*
X23360910Y-13412940D02*
G75*
G03*
X23335910Y-13437940I0J-25000D01*
G01*
X21515910Y-14527940D02*
X21515910Y-13437940D01*
X21430910Y-13437940D02*
X21430910Y-14527940D01*
X21430910Y-14527940D02*
G75*
G03*
X21455910Y-14552940I25000J0D01*
G01*
X21455910Y-14552940D02*
X21490910Y-14552940D01*
X21490910Y-14552940D02*
G75*
G03*
X21515910Y-14527940I0J25000D01*
G01*
X21515910Y-13437940D02*
G75*
G03*
X21490910Y-13412940I-25000J0D01*
G01*
X21490910Y-13412940D02*
X21455910Y-13412940D01*
X21455910Y-13412940D02*
G75*
G03*
X21430910Y-13437940I0J-25000D01*
G01*
X19610910Y-14766065D02*
X19610910Y-13676065D01*
X19525910Y-13676065D02*
X19525910Y-14766065D01*
X19525915Y-14766065D02*
G75*
G03*
X19550910Y-14791065I24995J-5D01*
G01*
X19550910Y-14791065D02*
X19585910Y-14791065D01*
X19585910Y-14791070D02*
G75*
G03*
X19610910Y-14766065I0J25000D01*
G01*
X19610915Y-13676065D02*
G75*
G03*
X19585910Y-13651065I-25005J-5D01*
G01*
X19585910Y-13651065D02*
X19550910Y-13651065D01*
X19550910Y-13651070D02*
G75*
G03*
X19525910Y-13676065I0J-25000D01*
G01*
X25325910Y-16718690D02*
X25325910Y-15628690D01*
X25240910Y-15628690D02*
X25240910Y-16718690D01*
X25240910Y-16718690D02*
G75*
G03*
X25265910Y-16743690I25000J0D01*
G01*
X25265910Y-16743690D02*
X25300910Y-16743690D01*
X25300910Y-16743690D02*
G75*
G03*
X25325910Y-16718690I0J25000D01*
G01*
X25325910Y-15628690D02*
G75*
G03*
X25300910Y-15603690I-25000J0D01*
G01*
X25300910Y-15603690D02*
X25265910Y-15603690D01*
X25265910Y-15603690D02*
G75*
G03*
X25240910Y-15628690I0J-25000D01*
G01*
X23420910Y-16432940D02*
X23420910Y-15342940D01*
X23335910Y-15342940D02*
X23335910Y-16432940D01*
X23335910Y-16432940D02*
G75*
G03*
X23360910Y-16457940I25000J0D01*
G01*
X23360910Y-16457940D02*
X23395910Y-16457940D01*
X23395910Y-16457940D02*
G75*
G03*
X23420910Y-16432940I0J25000D01*
G01*
X23420910Y-15342940D02*
G75*
G03*
X23395910Y-15317940I-25000J0D01*
G01*
X23395910Y-15317940D02*
X23360910Y-15317940D01*
X23360910Y-15317940D02*
G75*
G03*
X23335910Y-15342940I0J-25000D01*
G01*
X21515910Y-16432940D02*
X21515910Y-15342940D01*
X21430910Y-15342940D02*
X21430910Y-16432940D01*
X21430910Y-16432940D02*
G75*
G03*
X21455910Y-16457940I25000J0D01*
G01*
X21455910Y-16457940D02*
X21490910Y-16457940D01*
X21490910Y-16457940D02*
G75*
G03*
X21515910Y-16432940I0J25000D01*
G01*
X21515910Y-15342940D02*
G75*
G03*
X21490910Y-15317940I-25000J0D01*
G01*
X21490910Y-15317940D02*
X21455910Y-15317940D01*
X21455910Y-15317940D02*
G75*
G03*
X21430910Y-15342940I0J-25000D01*
G01*
X19610910Y-16671065D02*
X19610910Y-15581065D01*
X19525910Y-15581065D02*
X19525910Y-16671065D01*
X19525915Y-16671065D02*
G75*
G03*
X19550910Y-16696065I24995J-5D01*
G01*
X19550910Y-16696065D02*
X19585910Y-16696065D01*
X19585910Y-16696070D02*
G75*
G03*
X19610910Y-16671065I0J25000D01*
G01*
X19610915Y-15581065D02*
G75*
G03*
X19585910Y-15556065I-25005J-5D01*
G01*
X19585910Y-15556065D02*
X19550910Y-15556065D01*
X19550910Y-15556070D02*
G75*
G03*
X19525910Y-15581065I0J-25000D01*
G01*
X15001535Y-12861065D02*
X15001535Y-11771065D01*
X15086535Y-11771065D02*
X15086535Y-12861065D01*
X15061535Y-12886065D02*
G75*
G03*
X15086535Y-12861065I5J24995D01*
G01*
X15061535Y-12886065D02*
X15026535Y-12886065D01*
X15001545Y-12861065D02*
G75*
G03*
X15026535Y-12886065I24995J-5D01*
G01*
X15026535Y-11746065D02*
G75*
G03*
X15001535Y-11771065I-5J-24995D01*
G01*
X15026535Y-11746065D02*
X15061535Y-11746065D01*
X15086535Y-11771065D02*
G75*
G03*
X15061535Y-11746065I-24995J5D01*
G01*
X13572785Y-18671315D02*
X13572785Y-17581315D01*
X13657785Y-17581315D02*
X13657785Y-18671315D01*
X13632785Y-18696315D02*
G75*
G03*
X13657785Y-18671315I5J24995D01*
G01*
X13632785Y-18696315D02*
X13597785Y-18696315D01*
X13572785Y-18671315D02*
G75*
G03*
X13597785Y-18696315I24995J-5D01*
G01*
X13597785Y-17556325D02*
G75*
G03*
X13572785Y-17581315I-5J-24995D01*
G01*
X13597785Y-17556315D02*
X13632785Y-17556315D01*
X13657795Y-17581315D02*
G75*
G03*
X13632785Y-17556315I-25005J-5D01*
G01*
X11429660Y-18576065D02*
X11429660Y-17486065D01*
X11514660Y-17486065D02*
X11514660Y-18576065D01*
X11489660Y-18601070D02*
G75*
G03*
X11514660Y-18576065I0J25000D01*
G01*
X11489660Y-18601065D02*
X11454660Y-18601065D01*
X11429665Y-18576065D02*
G75*
G03*
X11454660Y-18601065I24995J-5D01*
G01*
X11454660Y-17461070D02*
G75*
G03*
X11429660Y-17486065I0J-25000D01*
G01*
X11454660Y-17461065D02*
X11489660Y-17461065D01*
X11514665Y-17486065D02*
G75*
G03*
X11489660Y-17461065I-25005J-5D01*
G01*
X9405598Y-18480815D02*
X9405598Y-17390815D01*
X9490598Y-17390815D02*
X9490598Y-18480815D01*
X9465598Y-18505818D02*
G75*
G03*
X9490598Y-18480815I2J24998D01*
G01*
X9465598Y-18505815D02*
X9430598Y-18505815D01*
X9405605Y-18480815D02*
G75*
G03*
X9430598Y-18505815I24995J-5D01*
G01*
X9430598Y-17365818D02*
G75*
G03*
X9405598Y-17390815I2J-25002D01*
G01*
X9430598Y-17365815D02*
X9465598Y-17365815D01*
X9490605Y-17390815D02*
G75*
G03*
X9465598Y-17365815I-25005J-5D01*
G01*
X7262473Y-18623690D02*
X7262473Y-17533690D01*
X7347473Y-17533690D02*
X7347473Y-18623690D01*
X7322473Y-18648693D02*
G75*
G03*
X7347473Y-18623690I-3J25003D01*
G01*
X7322473Y-18648690D02*
X7287473Y-18648690D01*
X7262470Y-18623690D02*
G75*
G03*
X7287473Y-18648690I25000J0D01*
G01*
X7287473Y-17508693D02*
G75*
G03*
X7262473Y-17533690I-3J-24997D01*
G01*
X7287473Y-17508690D02*
X7322473Y-17508690D01*
X7347470Y-17533690D02*
G75*
G03*
X7322473Y-17508690I-25000J0D01*
G01*
X4635285Y-13311065D02*
X3545285Y-13311065D01*
X3545285Y-13226065D02*
X4635285Y-13226065D01*
X4660295Y-13251065D02*
G75*
G03*
X4635285Y-13226065I-25005J-5D01*
G01*
X4660285Y-13251065D02*
X4660285Y-13286065D01*
X4635285Y-13311065D02*
G75*
G03*
X4660285Y-13286065I5J24995D01*
G01*
X3520285Y-13286065D02*
G75*
G03*
X3545285Y-13311065I24995J-5D01*
G01*
X3520285Y-13286065D02*
X3520285Y-13251065D01*
X3545285Y-13226075D02*
G75*
G03*
X3520285Y-13251065I-5J-24995D01*
G01*
X3920910Y-17121065D02*
X2830910Y-17121065D01*
X2830910Y-17036065D02*
X3920910Y-17036065D01*
X3945915Y-17061065D02*
G75*
G03*
X3920910Y-17036065I-25005J-5D01*
G01*
X3945910Y-17061065D02*
X3945910Y-17096065D01*
X3920910Y-17121070D02*
G75*
G03*
X3945910Y-17096065I0J25000D01*
G01*
X2805910Y-17096065D02*
G75*
G03*
X2830910Y-17121065I25000J0D01*
G01*
X2805910Y-17096065D02*
X2805910Y-17061065D01*
X2830910Y-17036070D02*
G75*
G03*
X2805910Y-17061065I0J-25000D01*
G01*
X4278098Y-15216065D02*
X3188097Y-15216065D01*
X3188097Y-15131065D02*
X4278098Y-15131065D01*
X4303105Y-15156065D02*
G75*
G03*
X4278098Y-15131065I-25005J-5D01*
G01*
X4303098Y-15156065D02*
X4303098Y-15191065D01*
X4278098Y-15216068D02*
G75*
G03*
X4303098Y-15191065I2J24998D01*
G01*
X3163105Y-15191065D02*
G75*
G03*
X3188097Y-15216065I24995J-5D01*
G01*
X3163097Y-15191065D02*
X3163097Y-15156065D01*
X3188097Y-15131067D02*
G75*
G03*
X3163097Y-15156065I3J-25003D01*
G01*
X5238410Y-12956315D02*
X5238410Y-11866315D01*
X5323410Y-11866315D02*
X5323410Y-12956315D01*
X5298410Y-12981320D02*
G75*
G03*
X5323410Y-12956315I0J25000D01*
G01*
X5298410Y-12981315D02*
X5263410Y-12981315D01*
X5238415Y-12956315D02*
G75*
G03*
X5263410Y-12981315I24995J-5D01*
G01*
X5263410Y-11841320D02*
G75*
G03*
X5238410Y-11866315I0J-25000D01*
G01*
X5263410Y-11841315D02*
X5298410Y-11841315D01*
X5323415Y-11866315D02*
G75*
G03*
X5298410Y-11841315I-25005J-5D01*
G01*
X7143410Y-12908690D02*
X7143410Y-11818690D01*
X7228410Y-11818690D02*
X7228410Y-12908690D01*
X7203410Y-12933690D02*
G75*
G03*
X7228410Y-12908690I0J25000D01*
G01*
X7203410Y-12933690D02*
X7168410Y-12933690D01*
X7143410Y-12908690D02*
G75*
G03*
X7168410Y-12933690I25000J0D01*
G01*
X7168410Y-11793690D02*
G75*
G03*
X7143410Y-11818690I0J-25000D01*
G01*
X7168410Y-11793690D02*
X7203410Y-11793690D01*
X7228410Y-11818690D02*
G75*
G03*
X7203410Y-11793690I-25000J0D01*
G01*
X9048410Y-12622940D02*
X9048410Y-11532940D01*
X9133410Y-11532940D02*
X9133410Y-12622940D01*
X9108410Y-12647940D02*
G75*
G03*
X9133410Y-12622940I0J25000D01*
G01*
X9108410Y-12647940D02*
X9073410Y-12647940D01*
X9048410Y-12622940D02*
G75*
G03*
X9073410Y-12647940I25000J0D01*
G01*
X9073410Y-11507940D02*
G75*
G03*
X9048410Y-11532940I0J-25000D01*
G01*
X9073410Y-11507940D02*
X9108410Y-11507940D01*
X9133410Y-11532940D02*
G75*
G03*
X9108410Y-11507940I-25000J0D01*
G01*
X10953410Y-12622940D02*
X10953410Y-11532940D01*
X11038410Y-11532940D02*
X11038410Y-12622940D01*
X11013410Y-12647940D02*
G75*
G03*
X11038410Y-12622940I0J25000D01*
G01*
X11013410Y-12647940D02*
X10978410Y-12647940D01*
X10953410Y-12622940D02*
G75*
G03*
X10978410Y-12647940I25000J0D01*
G01*
X10978410Y-11507940D02*
G75*
G03*
X10953410Y-11532940I0J-25000D01*
G01*
X10978410Y-11507940D02*
X11013410Y-11507940D01*
X11038410Y-11532940D02*
G75*
G03*
X11013410Y-11507940I-25000J0D01*
G01*
X12858410Y-12861065D02*
X12858410Y-11771065D01*
X12943410Y-11771065D02*
X12943410Y-12861065D01*
X12918410Y-12886070D02*
G75*
G03*
X12943410Y-12861065I0J25000D01*
G01*
X12918410Y-12886065D02*
X12883410Y-12886065D01*
X12858415Y-12861065D02*
G75*
G03*
X12883410Y-12886065I24995J-5D01*
G01*
X12883410Y-11746070D02*
G75*
G03*
X12858410Y-11771065I0J-25000D01*
G01*
X12883410Y-11746065D02*
X12918410Y-11746065D01*
X12943415Y-11771065D02*
G75*
G03*
X12918410Y-11746065I-25005J-5D01*
G01*
X7143410Y-14813690D02*
X7143410Y-13723690D01*
X7228410Y-13723690D02*
X7228410Y-14813690D01*
X7203410Y-14838690D02*
G75*
G03*
X7228410Y-14813690I0J25000D01*
G01*
X7203410Y-14838690D02*
X7168410Y-14838690D01*
X7143410Y-14813690D02*
G75*
G03*
X7168410Y-14838690I25000J0D01*
G01*
X7168410Y-13698690D02*
G75*
G03*
X7143410Y-13723690I0J-25000D01*
G01*
X7168410Y-13698690D02*
X7203410Y-13698690D01*
X7228410Y-13723690D02*
G75*
G03*
X7203410Y-13698690I-25000J0D01*
G01*
X9048410Y-14527940D02*
X9048410Y-13437940D01*
X9133410Y-13437940D02*
X9133410Y-14527940D01*
X9108410Y-14552940D02*
G75*
G03*
X9133410Y-14527940I0J25000D01*
G01*
X9108410Y-14552940D02*
X9073410Y-14552940D01*
X9048410Y-14527940D02*
G75*
G03*
X9073410Y-14552940I25000J0D01*
G01*
X9073410Y-13412940D02*
G75*
G03*
X9048410Y-13437940I0J-25000D01*
G01*
X9073410Y-13412940D02*
X9108410Y-13412940D01*
X9133410Y-13437940D02*
G75*
G03*
X9108410Y-13412940I-25000J0D01*
G01*
X10953410Y-14527940D02*
X10953410Y-13437940D01*
X11038410Y-13437940D02*
X11038410Y-14527940D01*
X11013410Y-14552940D02*
G75*
G03*
X11038410Y-14527940I0J25000D01*
G01*
X11013410Y-14552940D02*
X10978410Y-14552940D01*
X10953410Y-14527940D02*
G75*
G03*
X10978410Y-14552940I25000J0D01*
G01*
X10978410Y-13412940D02*
G75*
G03*
X10953410Y-13437940I0J-25000D01*
G01*
X10978410Y-13412940D02*
X11013410Y-13412940D01*
X11038410Y-13437940D02*
G75*
G03*
X11013410Y-13412940I-25000J0D01*
G01*
X12858410Y-14766065D02*
X12858410Y-13676065D01*
X12943410Y-13676065D02*
X12943410Y-14766065D01*
X12918410Y-14791070D02*
G75*
G03*
X12943410Y-14766065I0J25000D01*
G01*
X12918410Y-14791065D02*
X12883410Y-14791065D01*
X12858415Y-14766065D02*
G75*
G03*
X12883410Y-14791065I24995J-5D01*
G01*
X12883410Y-13651070D02*
G75*
G03*
X12858410Y-13676065I0J-25000D01*
G01*
X12883410Y-13651065D02*
X12918410Y-13651065D01*
X12943415Y-13676065D02*
G75*
G03*
X12918410Y-13651065I-25005J-5D01*
G01*
X7143410Y-16718690D02*
X7143410Y-15628690D01*
X7228410Y-15628690D02*
X7228410Y-16718690D01*
X7203410Y-16743690D02*
G75*
G03*
X7228410Y-16718690I0J25000D01*
G01*
X7203410Y-16743690D02*
X7168410Y-16743690D01*
X7143410Y-16718690D02*
G75*
G03*
X7168410Y-16743690I25000J0D01*
G01*
X7168410Y-15603690D02*
G75*
G03*
X7143410Y-15628690I0J-25000D01*
G01*
X7168410Y-15603690D02*
X7203410Y-15603690D01*
X7228410Y-15628690D02*
G75*
G03*
X7203410Y-15603690I-25000J0D01*
G01*
X9048410Y-16432940D02*
X9048410Y-15342940D01*
X9133410Y-15342940D02*
X9133410Y-16432940D01*
X9108410Y-16457940D02*
G75*
G03*
X9133410Y-16432940I0J25000D01*
G01*
X9108410Y-16457940D02*
X9073410Y-16457940D01*
X9048410Y-16432940D02*
G75*
G03*
X9073410Y-16457940I25000J0D01*
G01*
X9073410Y-15317940D02*
G75*
G03*
X9048410Y-15342940I0J-25000D01*
G01*
X9073410Y-15317940D02*
X9108410Y-15317940D01*
X9133410Y-15342940D02*
G75*
G03*
X9108410Y-15317940I-25000J0D01*
G01*
X10953410Y-16432940D02*
X10953410Y-15342940D01*
X11038410Y-15342940D02*
X11038410Y-16432940D01*
X11013410Y-16457940D02*
G75*
G03*
X11038410Y-16432940I0J25000D01*
G01*
X11013410Y-16457940D02*
X10978410Y-16457940D01*
X10953410Y-16432940D02*
G75*
G03*
X10978410Y-16457940I25000J0D01*
G01*
X10978410Y-15317940D02*
G75*
G03*
X10953410Y-15342940I0J-25000D01*
G01*
X10978410Y-15317940D02*
X11013410Y-15317940D01*
X11038410Y-15342940D02*
G75*
G03*
X11013410Y-15317940I-25000J0D01*
G01*
X12858410Y-16671065D02*
X12858410Y-15581065D01*
X12943410Y-15581065D02*
X12943410Y-16671065D01*
X12918410Y-16696070D02*
G75*
G03*
X12943410Y-16671065I0J25000D01*
G01*
X12918410Y-16696065D02*
X12883410Y-16696065D01*
X12858415Y-16671065D02*
G75*
G03*
X12883410Y-16696065I24995J-5D01*
G01*
X12883410Y-15556070D02*
G75*
G03*
X12858410Y-15581065I0J-25000D01*
G01*
X12883410Y-15556065D02*
X12918410Y-15556065D01*
X12943415Y-15581065D02*
G75*
G03*
X12918410Y-15556065I-25005J-5D01*
G01*
X29390285Y-12986065D02*
G75*
G03*
X29390285Y-12986065I-110000J0D01*
G01*
X3299035Y-12986065D02*
G75*
G03*
X3299035Y-12986065I-110000J0D01*
G01*
X30580910Y-18379565D02*
G75*
G03*
X30580910Y-18379565I-110000J0D01*
G01*
X2108410Y-18379565D02*
G75*
G03*
X2108410Y-18379565I-110000J0D01*
G01*
X27290910Y-17226570D02*
G75*
G03*
X27315910Y-17201565I0J25000D01*
G01*
X27290910Y-17226565D02*
X25852102Y-17226565D01*
X27315910Y-16741565D02*
X27315910Y-17201565D01*
X27400915Y-17201565D02*
G75*
G03*
X27425910Y-17226565I24995J-5D01*
G01*
X27400910Y-17201565D02*
X27400910Y-16741565D01*
X27541223Y-17226565D02*
X27425910Y-17226565D01*
X27541223Y-17311565D02*
X25852102Y-17311565D01*
X27826225Y-17511565D02*
G75*
G03*
X27541223Y-17226565I-285005J-5D01*
G01*
X27741217Y-17511563D02*
G75*
G03*
X27541223Y-17311563I-199997J3D01*
G01*
X27741223Y-18101315D02*
X27741223Y-17511563D01*
X27826223Y-18101315D02*
X27826223Y-17511565D01*
X27801223Y-18126323D02*
G75*
G03*
X27826223Y-18101315I-3J25003D01*
G01*
X27801223Y-18126315D02*
X27766223Y-18126315D01*
X27741225Y-18101315D02*
G75*
G03*
X27766223Y-18126315I24995J-5D01*
G01*
X4928098Y-17226558D02*
G75*
G03*
X4643098Y-17511563I2J-285002D01*
G01*
X4643098Y-18101315D02*
X4643098Y-17511563D01*
X4928098Y-17226563D02*
X5043410Y-17226563D01*
X4928098Y-17311568D02*
G75*
G03*
X4728098Y-17511565I2J-200002D01*
G01*
X4728098Y-18101315D02*
X4728098Y-17511565D01*
X4928098Y-17311565D02*
X6617219Y-17311565D01*
X5153415Y-17201565D02*
G75*
G03*
X5178410Y-17226565I24995J-5D01*
G01*
X5178410Y-17226565D02*
X6617219Y-17226565D01*
X5153410Y-16741565D02*
X5153410Y-17201565D01*
X5043410Y-17226560D02*
G75*
G03*
X5068410Y-17201563I0J25000D01*
G01*
X5068410Y-16741565D02*
X5068410Y-17201563D01*
X4703098Y-18126318D02*
G75*
G03*
X4728098Y-18101315I2J24998D01*
G01*
X4703098Y-18126315D02*
X4668098Y-18126315D01*
X4643105Y-18101315D02*
G75*
G03*
X4668098Y-18126315I24995J-5D01*
G01*
X17011751Y-13150408D02*
X17838819Y-13301723D01*
X14630501Y-13301723D02*
X15457569Y-13150408D01*
X5153411Y-15606565D02*
X5153411Y-15891565D01*
X5153411Y-14836565D02*
X5153411Y-15121565D01*
X5093411Y-14811571D02*
G75*
G03*
X5068411Y-14836565I-1J-24999D01*
G01*
X5068411Y-14836565D02*
X5068411Y-15891565D01*
X5128411Y-14811565D02*
X5093411Y-14811565D01*
X5153415Y-14836565D02*
G75*
G03*
X5128411Y-14811565I-25005J-5D01*
G01*
X5128411Y-15916571D02*
G75*
G03*
X5153411Y-15891565I-1J25001D01*
G01*
X5128411Y-15916565D02*
X5093411Y-15916565D01*
X5068415Y-15891565D02*
G75*
G03*
X5093411Y-15916565I24995J-5D01*
G01*
X5353411Y-15406572D02*
G75*
G03*
X5153412Y-15606566I-1J-199998D01*
G01*
X5153411Y-15121565D02*
G75*
G03*
X5353411Y-15321565I200000J0D01*
G01*
X6617219Y-15406565D02*
X5353410Y-15406565D01*
X5353410Y-15321565D02*
X6617219Y-15321565D01*
X5093410Y-16716560D02*
G75*
G03*
X5068410Y-16741565I0J-25000D01*
G01*
X5093410Y-16716565D02*
X5128410Y-16716565D01*
X5153405Y-16741565D02*
G75*
G03*
X5128410Y-16716565I-24995J5D01*
G01*
X17467785Y-16646315D02*
X17467785Y-16931315D01*
X27315910Y-15606565D02*
X27315910Y-15891565D01*
X27315910Y-14836565D02*
X27315910Y-15121565D01*
X27315910Y-13701565D02*
X27315910Y-13986565D01*
X5068410Y-13701565D02*
X5068410Y-13986564D01*
X5068406Y-13986564D02*
G75*
G03*
X5093410Y-14011564I25005J5D01*
G01*
X5093410Y-14011564D02*
X5128410Y-14011564D01*
X5128410Y-14011560D02*
G75*
G03*
X5153410Y-13986564I0J25000D01*
G01*
X5153410Y-13701565D02*
X5153410Y-13986564D01*
X5353411Y-13501570D02*
G75*
G03*
X5153410Y-13701565I-1J-200000D01*
G01*
X5353410Y-13416570D02*
G75*
G03*
X5068410Y-13701565I0J-285000D01*
G01*
X6617219Y-13501565D02*
X5353410Y-13501565D01*
X5353410Y-13416565D02*
X6617219Y-13416565D01*
X17357785Y-15226315D02*
G75*
G03*
X17382785Y-15201315I5J24995D01*
G01*
X17382785Y-15026315D02*
X17382785Y-15201315D01*
X17182785Y-15226315D02*
X17357785Y-15226315D01*
X17382785Y-15336315D02*
G75*
G03*
X17357785Y-15311315I-24995J5D01*
G01*
X17357785Y-15311315D02*
X17182785Y-15311315D01*
X17382785Y-15336315D02*
X17382785Y-15511315D01*
X17492785Y-15311315D02*
G75*
G03*
X17467785Y-15336315I5J-25005D01*
G01*
X17467785Y-15511315D02*
X17467785Y-15336315D01*
X17667785Y-15311315D02*
X17492785Y-15311315D01*
X17467795Y-15201315D02*
G75*
G03*
X17492785Y-15226315I24995J-5D01*
G01*
X17467785Y-15026315D02*
X17467785Y-15201315D01*
X17492785Y-15226315D02*
X17667785Y-15226315D01*
X15001535Y-15336315D02*
G75*
G03*
X14976535Y-15311315I-24995J5D01*
G01*
X15001535Y-15511315D02*
X15001535Y-15336315D01*
X14801535Y-15311315D02*
X14976535Y-15311315D01*
X15111535Y-15311315D02*
G75*
G03*
X15086535Y-15336315I-5J-24995D01*
G01*
X15086535Y-15511315D02*
X15086535Y-15336315D01*
X15111535Y-15311315D02*
X15286535Y-15311315D01*
X15086535Y-15201315D02*
G75*
G03*
X15111535Y-15226315I24995J-5D01*
G01*
X15111535Y-15226315D02*
X15286535Y-15226315D01*
X15086535Y-15201315D02*
X15086535Y-15026315D01*
X14976535Y-15226315D02*
G75*
G03*
X15001535Y-15201315I5J24995D01*
G01*
X14801535Y-15226315D02*
X14976535Y-15226315D01*
X15001535Y-15026315D02*
X15001535Y-15201315D01*
X15001535Y-14546065D02*
X15001535Y-15026315D01*
X6617219Y-15406565D02*
G75*
G03*
X7158797Y-15277403I1J1199995D01*
G01*
X7213023Y-15249978D02*
X7158797Y-15277403D01*
X7754602Y-15120816D02*
G75*
G03*
X7213023Y-15249978I-2J-1200004D01*
G01*
X8522219Y-15120815D02*
X7754602Y-15120815D01*
X17467785Y-15511315D02*
X17467785Y-15991565D01*
X17667785Y-15311315D02*
X19089054Y-15311315D01*
X17667785Y-15226315D02*
X19089054Y-15226315D01*
X17467785Y-14546065D02*
X17467785Y-15026315D01*
X17838819Y-13386722D02*
G75*
G03*
X18054779Y-13406315I215961J1180412D01*
G01*
X19089053Y-13406315D02*
X18054779Y-13406315D01*
X17497284Y-13324238D02*
X17838819Y-13386723D01*
X17838819Y-13301722D02*
G75*
G03*
X18054779Y-13321315I215961J1180412D01*
G01*
X18054779Y-13321315D02*
X19089053Y-13321315D01*
X17011751Y-13235408D02*
G75*
G03*
X16795792Y-13215815I-215961J-1180412D01*
G01*
X17011751Y-13235408D02*
X17362284Y-13299539D01*
X16795792Y-13215815D02*
X15673528Y-13215815D01*
X17011751Y-13150408D02*
G75*
G03*
X16795792Y-13130815I-215961J-1180412D01*
G01*
X15673528Y-13130815D02*
X16795792Y-13130815D01*
X15673528Y-13215815D02*
G75*
G03*
X15457569Y-13235408I2J-1200005D01*
G01*
X15107036Y-13299539D02*
X15457569Y-13235408D01*
X15673528Y-13130815D02*
G75*
G03*
X15457569Y-13150408I2J-1200005D01*
G01*
X14414542Y-13406315D02*
G75*
G03*
X14630501Y-13386722I-2J1199996D01*
G01*
X14630501Y-13386722D02*
X14972036Y-13324238D01*
X14414542Y-13406315D02*
X13380267Y-13406315D01*
X14414542Y-13321315D02*
G75*
G03*
X14630501Y-13301723I-2J1200006D01*
G01*
X13380267Y-13321315D02*
X14414542Y-13321315D01*
X15001530Y-13348829D02*
G75*
G03*
X14972036Y-13324238I-25000J-1D01*
G01*
X15001535Y-13896065D02*
X15001535Y-13348829D01*
X15107035Y-13299534D02*
G75*
G03*
X15086535Y-13324131I4505J-24596D01*
G01*
X15086535Y-13896065D02*
X15086535Y-13324131D01*
X17382788Y-13324131D02*
G75*
G03*
X17362284Y-13299539I-24998J1D01*
G01*
X17382785Y-13896065D02*
X17382785Y-13324131D01*
X17497285Y-13324232D02*
G75*
G03*
X17467785Y-13348829I-4495J-24598D01*
G01*
X17467785Y-13896065D02*
X17467785Y-13348829D01*
X17382785Y-15511315D02*
X17382785Y-15991565D01*
X17182785Y-15311315D02*
X15286535Y-15311315D01*
X15286535Y-15226315D02*
X17182785Y-15226315D01*
X17382785Y-14546065D02*
X17382785Y-15026315D01*
X15086535Y-14546065D02*
X15086535Y-15026315D01*
X15086535Y-15511315D02*
X15086535Y-15991565D01*
X15001535Y-15511315D02*
X15001535Y-15991565D01*
X13380267Y-15311315D02*
X14801535Y-15311315D01*
X13380267Y-15226315D02*
X14801535Y-15226315D01*
X16277160Y-16343940D02*
X16277160Y-18771315D01*
X16192160Y-16343940D02*
X16192160Y-18771315D01*
X16217160Y-16318940D02*
G75*
G03*
X16192160Y-16343940I0J-25000D01*
G01*
X16217160Y-16318940D02*
X16252160Y-16318940D01*
X16277160Y-16343940D02*
G75*
G03*
X16252160Y-16318940I-25000J0D01*
G01*
X16192165Y-18771315D02*
G75*
G03*
X16217160Y-18796315I24995J-5D01*
G01*
X16217160Y-18796315D02*
X16252160Y-18796315D01*
X16252160Y-18796320D02*
G75*
G03*
X16277160Y-18771315I0J25000D01*
G01*
X19089053Y-17216315D02*
X17667785Y-17216315D01*
X17667785Y-17131315D02*
X19089053Y-17131315D01*
X17407785Y-16621305D02*
G75*
G03*
X17382785Y-16646315I5J-25005D01*
G01*
X17382785Y-16931315D02*
X17382785Y-16646315D01*
X17407785Y-16621315D02*
X17442785Y-16621315D01*
X17467785Y-16646315D02*
G75*
G03*
X17442785Y-16621315I-24995J5D01*
G01*
X17467795Y-16931315D02*
G75*
G03*
X17667785Y-17131315I199995J-5D01*
G01*
X17382795Y-16931315D02*
G75*
G03*
X17667785Y-17216315I284995J-5D01*
G01*
X17382785Y-13896065D02*
G75*
G03*
X17407785Y-13921065I24995J-5D01*
G01*
X17407785Y-13921065D02*
X17442785Y-13921065D01*
X17442785Y-13921065D02*
G75*
G03*
X17467785Y-13896065I5J24995D01*
G01*
X17382795Y-15991565D02*
G75*
G03*
X17407785Y-16016565I24995J-5D01*
G01*
X17407785Y-16016565D02*
X17442785Y-16016565D01*
X17442785Y-16016565D02*
G75*
G03*
X17467785Y-15991565I5J24995D01*
G01*
X17407785Y-14521065D02*
G75*
G03*
X17382785Y-14546065I5J-25005D01*
G01*
X17407785Y-14521065D02*
X17442785Y-14521065D01*
X17467795Y-14546065D02*
G75*
G03*
X17442785Y-14521065I-25005J-5D01*
G01*
X14801535Y-17216315D02*
X13380267Y-17216315D01*
X13380267Y-17131315D02*
X14801535Y-17131315D01*
X15026535Y-16621315D02*
G75*
G03*
X15001535Y-16646315I5J-25005D01*
G01*
X15001535Y-16646315D02*
X15001535Y-16931315D01*
X15026535Y-16621315D02*
X15061535Y-16621315D01*
X15086545Y-16646315D02*
G75*
G03*
X15061535Y-16621315I-25005J-5D01*
G01*
X15086535Y-16646315D02*
X15086535Y-16931315D01*
X14801535Y-17131325D02*
G75*
G03*
X15001535Y-16931315I-5J200005D01*
G01*
X14801535Y-17216325D02*
G75*
G03*
X15086535Y-16931315I-5J285005D01*
G01*
X15001535Y-15991565D02*
G75*
G03*
X15026535Y-16016565I24995J-5D01*
G01*
X15026535Y-16016565D02*
X15061535Y-16016565D01*
X15061535Y-16016565D02*
G75*
G03*
X15086535Y-15991565I5J24995D01*
G01*
X15001535Y-13896065D02*
G75*
G03*
X15026535Y-13921065I24995J-5D01*
G01*
X15026535Y-13921065D02*
X15061535Y-13921065D01*
X15061535Y-13921065D02*
G75*
G03*
X15086535Y-13896065I5J24995D01*
G01*
X15026535Y-14521075D02*
G75*
G03*
X15001535Y-14546065I-5J-24995D01*
G01*
X15026535Y-14521065D02*
X15061535Y-14521065D01*
X15086545Y-14546065D02*
G75*
G03*
X15061535Y-14521065I-25005J-5D01*
G01*
X19136535Y-18826315D02*
X20714660Y-18826315D01*
X19136535Y-17426315D02*
X20714660Y-17426315D01*
X18571535Y-18826315D02*
X16993410Y-18826315D01*
X16993410Y-17426315D02*
X18571535Y-17426315D01*
X13897785Y-18826315D02*
X15475910Y-18826315D01*
X13897785Y-17426315D02*
X15475910Y-17426315D01*
X13332785Y-18826315D02*
X11754660Y-18826315D01*
X11754660Y-17426315D02*
X13332785Y-17426315D01*
X6903410Y-18921570D02*
G75*
G03*
X6933410Y-18891565I0J30000D01*
G01*
X5533415Y-18891565D02*
G75*
G03*
X5563410Y-18921565I29995J-5D01*
G01*
X6933415Y-17551565D02*
G75*
G03*
X6903410Y-17521565I-30005J-5D01*
G01*
X5563410Y-17521570D02*
G75*
G03*
X5533410Y-17551565I0J-30000D01*
G01*
X6933410Y-17551565D02*
X6933410Y-18891565D01*
X5533410Y-17551565D02*
X5533410Y-18891565D01*
X5563410Y-18921565D02*
X6903410Y-18921565D01*
X5563410Y-17521565D02*
X6903410Y-17521565D01*
X26905910Y-18921570D02*
G75*
G03*
X26935910Y-18891565I0J30000D01*
G01*
X25535915Y-18891565D02*
G75*
G03*
X25565910Y-18921565I29995J-5D01*
G01*
X26935915Y-17551565D02*
G75*
G03*
X26905910Y-17521565I-30005J-5D01*
G01*
X25565910Y-17521570D02*
G75*
G03*
X25535910Y-17551565I0J-30000D01*
G01*
X26935910Y-17551565D02*
X26935910Y-18891565D01*
X25535910Y-17551565D02*
X25535910Y-18891565D01*
X25565910Y-18921565D02*
X26905910Y-18921565D01*
X25565910Y-17521565D02*
X26905910Y-17521565D01*
X20714660Y-18826320D02*
G75*
G03*
X20744660Y-18796315I0J30000D01*
G01*
X20744665Y-17456315D02*
G75*
G03*
X20714660Y-17426315I-30005J-5D01*
G01*
X20744660Y-17456315D02*
X20744660Y-18796315D01*
X19106545Y-18796315D02*
G75*
G03*
X19136535Y-18826315I29995J-5D01*
G01*
X19136535Y-17426315D02*
G75*
G03*
X19106535Y-17456315I5J-30005D01*
G01*
X19106535Y-17456315D02*
X19106535Y-18796315D01*
X18571535Y-18826315D02*
G75*
G03*
X18601535Y-18796315I5J29995D01*
G01*
X18601545Y-17456315D02*
G75*
G03*
X18571535Y-17426315I-30005J-5D01*
G01*
X18601535Y-17456315D02*
X18601535Y-18796315D01*
X16963415Y-18796315D02*
G75*
G03*
X16993410Y-18826315I29995J-5D01*
G01*
X16993410Y-17426320D02*
G75*
G03*
X16963410Y-17456315I0J-30000D01*
G01*
X16963410Y-17456315D02*
X16963410Y-18796315D01*
X15475910Y-18826320D02*
G75*
G03*
X15505910Y-18796315I0J30000D01*
G01*
X15505915Y-17456315D02*
G75*
G03*
X15475910Y-17426315I-30005J-5D01*
G01*
X15505910Y-17456315D02*
X15505910Y-18796315D01*
X13867795Y-18796315D02*
G75*
G03*
X13897785Y-18826315I29995J-5D01*
G01*
X13897785Y-17426315D02*
G75*
G03*
X13867785Y-17456315I5J-30005D01*
G01*
X13867785Y-17456315D02*
X13867785Y-18796315D01*
X13332785Y-18826315D02*
G75*
G03*
X13362785Y-18796315I5J29995D01*
G01*
X13362795Y-17456315D02*
G75*
G03*
X13332785Y-17426315I-30005J-5D01*
G01*
X13362785Y-17456315D02*
X13362785Y-18796315D01*
X11724665Y-18796315D02*
G75*
G03*
X11754660Y-18826315I29995J-5D01*
G01*
X11754660Y-17426320D02*
G75*
G03*
X11724660Y-17456315I0J-30000D01*
G01*
X11724660Y-17456315D02*
X11724660Y-18796315D01*
X30001535Y-18731065D02*
G75*
G03*
X30031535Y-18701065I5J29995D01*
G01*
X28631545Y-18701065D02*
G75*
G03*
X28661535Y-18731065I29995J-5D01*
G01*
X30031545Y-17361065D02*
G75*
G03*
X30001535Y-17331065I-30005J-5D01*
G01*
X28661535Y-17331065D02*
G75*
G03*
X28631535Y-17361065I5J-30005D01*
G01*
X30031535Y-17361065D02*
X30031535Y-18701065D01*
X28631535Y-17361065D02*
X28631535Y-18701065D01*
X28661535Y-18731065D02*
X30001535Y-18731065D01*
X28661535Y-17331065D02*
X30001535Y-17331065D01*
X3807785Y-18731065D02*
G75*
G03*
X3837785Y-18701065I5J29995D01*
G01*
X2437785Y-18701065D02*
G75*
G03*
X2467785Y-18731065I30000J0D01*
G01*
X3837795Y-17361065D02*
G75*
G03*
X3807785Y-17331065I-30005J-5D01*
G01*
X2467785Y-17331065D02*
G75*
G03*
X2437785Y-17361065I5J-30005D01*
G01*
X3837785Y-17361065D02*
X3837785Y-18701065D01*
X2437785Y-17361065D02*
X2437785Y-18701065D01*
X2467785Y-18731065D02*
X3807785Y-18731065D01*
X2467785Y-17331065D02*
X3807785Y-17331065D01*
X24762785Y-18635815D02*
G75*
G03*
X24792785Y-18605815I5J29995D01*
G01*
X23392795Y-18605815D02*
G75*
G03*
X23422785Y-18635815I29995J-5D01*
G01*
X24792795Y-17265815D02*
G75*
G03*
X24762785Y-17235815I-30005J-5D01*
G01*
X23422785Y-17235815D02*
G75*
G03*
X23392785Y-17265815I5J-30005D01*
G01*
X24792785Y-17265815D02*
X24792785Y-18605815D01*
X23392785Y-17265815D02*
X23392785Y-18605815D01*
X23422785Y-18635815D02*
X24762785Y-18635815D01*
X23422785Y-17235815D02*
X24762785Y-17235815D01*
X22619660Y-18635820D02*
G75*
G03*
X22649660Y-18605815I0J30000D01*
G01*
X21249665Y-18605815D02*
G75*
G03*
X21279660Y-18635815I29995J-5D01*
G01*
X22649665Y-17265815D02*
G75*
G03*
X22619660Y-17235815I-30005J-5D01*
G01*
X21279660Y-17235820D02*
G75*
G03*
X21249660Y-17265815I0J-30000D01*
G01*
X22649660Y-17265815D02*
X22649660Y-18605815D01*
X21249660Y-17265815D02*
X21249660Y-18605815D01*
X21279660Y-18635815D02*
X22619660Y-18635815D01*
X21279660Y-17235815D02*
X22619660Y-17235815D01*
X11189660Y-18635820D02*
G75*
G03*
X11219660Y-18605815I0J30000D01*
G01*
X9819665Y-18605815D02*
G75*
G03*
X9849660Y-18635815I29995J-5D01*
G01*
X11219665Y-17265815D02*
G75*
G03*
X11189660Y-17235815I-30005J-5D01*
G01*
X9849660Y-17235820D02*
G75*
G03*
X9819660Y-17265815I0J-30000D01*
G01*
X11219660Y-17265815D02*
X11219660Y-18605815D01*
X9819660Y-17265815D02*
X9819660Y-18605815D01*
X9849660Y-18635815D02*
X11189660Y-18635815D01*
X9849660Y-17235815D02*
X11189660Y-17235815D01*
X9046535Y-18635815D02*
G75*
G03*
X9076535Y-18605815I5J29995D01*
G01*
X7676545Y-18605815D02*
G75*
G03*
X7706535Y-18635815I29995J-5D01*
G01*
X9076545Y-17265815D02*
G75*
G03*
X9046535Y-17235815I-30005J-5D01*
G01*
X7706535Y-17235815D02*
G75*
G03*
X7676535Y-17265815I5J-30005D01*
G01*
X9076535Y-17265815D02*
X9076535Y-18605815D01*
X7676535Y-17265815D02*
X7676535Y-18605815D01*
X7706535Y-18635815D02*
X9046535Y-18635815D01*
X7706535Y-17235815D02*
X9046535Y-17235815D01*
X26905910Y-17016570D02*
G75*
G03*
X26935910Y-16986565I0J30000D01*
G01*
X25535915Y-16986565D02*
G75*
G03*
X25565910Y-17016565I29995J-5D01*
G01*
X26935915Y-15646565D02*
G75*
G03*
X26905910Y-15616565I-30005J-5D01*
G01*
X25565910Y-15616570D02*
G75*
G03*
X25535910Y-15646565I0J-30000D01*
G01*
X26935910Y-15646565D02*
X26935910Y-16986565D01*
X25535910Y-15646565D02*
X25535910Y-16986565D01*
X25565910Y-17016565D02*
X26905910Y-17016565D01*
X25565910Y-15616565D02*
X26905910Y-15616565D01*
X6903410Y-17016570D02*
G75*
G03*
X6933410Y-16986565I0J30000D01*
G01*
X5533415Y-16986565D02*
G75*
G03*
X5563410Y-17016565I29995J-5D01*
G01*
X6933415Y-15646565D02*
G75*
G03*
X6903410Y-15616565I-30005J-5D01*
G01*
X5563410Y-15616570D02*
G75*
G03*
X5533410Y-15646565I0J-30000D01*
G01*
X6933410Y-15646565D02*
X6933410Y-16986565D01*
X5533410Y-15646565D02*
X5533410Y-16986565D01*
X5563410Y-17016565D02*
X6903410Y-17016565D01*
X5563410Y-15616565D02*
X6903410Y-15616565D01*
X19285910Y-16921320D02*
G75*
G03*
X19315910Y-16891315I0J30000D01*
G01*
X17915915Y-16891315D02*
G75*
G03*
X17945910Y-16921315I29995J-5D01*
G01*
X19315915Y-15551315D02*
G75*
G03*
X19285910Y-15521315I-30005J-5D01*
G01*
X17945910Y-15521320D02*
G75*
G03*
X17915910Y-15551315I0J-30000D01*
G01*
X19315910Y-15551315D02*
X19315910Y-16891315D01*
X17915910Y-15551315D02*
X17915910Y-16891315D01*
X17945910Y-16921315D02*
X19285910Y-16921315D01*
X17945910Y-15521315D02*
X19285910Y-15521315D01*
X14523410Y-16921320D02*
G75*
G03*
X14553410Y-16891315I0J30000D01*
G01*
X13153415Y-16891315D02*
G75*
G03*
X13183410Y-16921315I29995J-5D01*
G01*
X14553415Y-15551315D02*
G75*
G03*
X14523410Y-15521315I-30005J-5D01*
G01*
X13183410Y-15521320D02*
G75*
G03*
X13153410Y-15551315I0J-30000D01*
G01*
X14553410Y-15551315D02*
X14553410Y-16891315D01*
X13153410Y-15551315D02*
X13153410Y-16891315D01*
X13183410Y-16921315D02*
X14523410Y-16921315D01*
X13183410Y-15521315D02*
X14523410Y-15521315D01*
X29525285Y-16826065D02*
G75*
G03*
X29555285Y-16796065I5J29995D01*
G01*
X28155295Y-16796065D02*
G75*
G03*
X28185285Y-16826065I29995J-5D01*
G01*
X29555295Y-15456065D02*
G75*
G03*
X29525285Y-15426065I-30005J-5D01*
G01*
X28185285Y-15426065D02*
G75*
G03*
X28155285Y-15456065I5J-30005D01*
G01*
X29555285Y-15456065D02*
X29555285Y-16796065D01*
X28155285Y-15456065D02*
X28155285Y-16796065D01*
X28185285Y-16826065D02*
X29525285Y-16826065D01*
X28185285Y-15426065D02*
X29525285Y-15426065D01*
X4284035Y-16826065D02*
G75*
G03*
X4314035Y-16796065I5J29995D01*
G01*
X2914035Y-16796065D02*
G75*
G03*
X2944035Y-16826065I30000J0D01*
G01*
X4314045Y-15456065D02*
G75*
G03*
X4284035Y-15426065I-30005J-5D01*
G01*
X2944035Y-15426065D02*
G75*
G03*
X2914035Y-15456065I5J-30005D01*
G01*
X4314035Y-15456065D02*
X4314035Y-16796065D01*
X2914035Y-15456065D02*
X2914035Y-16796065D01*
X2944035Y-16826065D02*
X4284035Y-16826065D01*
X2944035Y-15426065D02*
X4284035Y-15426065D01*
X25000910Y-16730820D02*
G75*
G03*
X25030910Y-16700815I0J30000D01*
G01*
X23630915Y-16700815D02*
G75*
G03*
X23660910Y-16730815I29995J-5D01*
G01*
X25030915Y-15360815D02*
G75*
G03*
X25000910Y-15330815I-30005J-5D01*
G01*
X23660910Y-15330820D02*
G75*
G03*
X23630910Y-15360815I0J-30000D01*
G01*
X25030910Y-15360815D02*
X25030910Y-16700815D01*
X23630910Y-15360815D02*
X23630910Y-16700815D01*
X23660910Y-16730815D02*
X25000910Y-16730815D01*
X23660910Y-15330815D02*
X25000910Y-15330815D01*
X21190910Y-16730820D02*
G75*
G03*
X21220910Y-16700815I0J30000D01*
G01*
X19820915Y-16700815D02*
G75*
G03*
X19850910Y-16730815I29995J-5D01*
G01*
X21220915Y-15360815D02*
G75*
G03*
X21190910Y-15330815I-30005J-5D01*
G01*
X19850910Y-15330820D02*
G75*
G03*
X19820910Y-15360815I0J-30000D01*
G01*
X21220910Y-15360815D02*
X21220910Y-16700815D01*
X19820910Y-15360815D02*
X19820910Y-16700815D01*
X19850910Y-16730815D02*
X21190910Y-16730815D01*
X19850910Y-15330815D02*
X21190910Y-15330815D01*
X12618410Y-16730820D02*
G75*
G03*
X12648410Y-16700815I0J30000D01*
G01*
X11248415Y-16700815D02*
G75*
G03*
X11278410Y-16730815I29995J-5D01*
G01*
X12648415Y-15360815D02*
G75*
G03*
X12618410Y-15330815I-30005J-5D01*
G01*
X11278410Y-15330820D02*
G75*
G03*
X11248410Y-15360815I0J-30000D01*
G01*
X12648410Y-15360815D02*
X12648410Y-16700815D01*
X11248410Y-15360815D02*
X11248410Y-16700815D01*
X11278410Y-16730815D02*
X12618410Y-16730815D01*
X11278410Y-15330815D02*
X12618410Y-15330815D01*
X8808410Y-16730820D02*
G75*
G03*
X8838410Y-16700815I0J30000D01*
G01*
X7438415Y-16700815D02*
G75*
G03*
X7468410Y-16730815I29995J-5D01*
G01*
X8838415Y-15360815D02*
G75*
G03*
X8808410Y-15330815I-30005J-5D01*
G01*
X7468410Y-15330820D02*
G75*
G03*
X7438410Y-15360815I0J-30000D01*
G01*
X8838410Y-15360815D02*
X8838410Y-16700815D01*
X7438410Y-15360815D02*
X7438410Y-16700815D01*
X7468410Y-16730815D02*
X8808410Y-16730815D01*
X7468410Y-15330815D02*
X8808410Y-15330815D01*
X23095910Y-16445070D02*
G75*
G03*
X23125910Y-16415065I0J30000D01*
G01*
X21725915Y-16415065D02*
G75*
G03*
X21755910Y-16445065I29995J-5D01*
G01*
X23125915Y-15075065D02*
G75*
G03*
X23095910Y-15045065I-30005J-5D01*
G01*
X21755910Y-15045070D02*
G75*
G03*
X21725910Y-15075065I0J-30000D01*
G01*
X23125910Y-15075065D02*
X23125910Y-16415065D01*
X21725910Y-15075065D02*
X21725910Y-16415065D01*
X21755910Y-16445065D02*
X23095910Y-16445065D01*
X21755910Y-15045065D02*
X23095910Y-15045065D01*
X10713410Y-16445070D02*
G75*
G03*
X10743410Y-16415065I0J30000D01*
G01*
X9343415Y-16415065D02*
G75*
G03*
X9373410Y-16445065I29995J-5D01*
G01*
X10743415Y-15075065D02*
G75*
G03*
X10713410Y-15045065I-30005J-5D01*
G01*
X9373410Y-15045070D02*
G75*
G03*
X9343410Y-15075065I0J-30000D01*
G01*
X10743410Y-15075065D02*
X10743410Y-16415065D01*
X9343410Y-15075065D02*
X9343410Y-16415065D01*
X9373410Y-16445065D02*
X10713410Y-16445065D01*
X9373410Y-15045065D02*
X10713410Y-15045065D01*
X26905910Y-15111570D02*
G75*
G03*
X26935910Y-15081565I0J30000D01*
G01*
X25535915Y-15081565D02*
G75*
G03*
X25565910Y-15111565I29995J-5D01*
G01*
X26935915Y-13741565D02*
G75*
G03*
X26905910Y-13711565I-30005J-5D01*
G01*
X25565910Y-13711570D02*
G75*
G03*
X25535910Y-13741565I0J-30000D01*
G01*
X26935910Y-13741565D02*
X26935910Y-15081565D01*
X25535910Y-13741565D02*
X25535910Y-15081565D01*
X25565910Y-15111565D02*
X26905910Y-15111565D01*
X25565910Y-13711565D02*
X26905910Y-13711565D01*
X6903410Y-15111570D02*
G75*
G03*
X6933410Y-15081565I0J30000D01*
G01*
X5533415Y-15081565D02*
G75*
G03*
X5563410Y-15111565I29995J-5D01*
G01*
X6933415Y-13741565D02*
G75*
G03*
X6903410Y-13711565I-30005J-5D01*
G01*
X5563410Y-13711570D02*
G75*
G03*
X5533410Y-13741565I0J-30000D01*
G01*
X6933410Y-13741565D02*
X6933410Y-15081565D01*
X5533410Y-13741565D02*
X5533410Y-15081565D01*
X5563410Y-15111565D02*
X6903410Y-15111565D01*
X5563410Y-13711565D02*
X6903410Y-13711565D01*
X19285910Y-15016320D02*
G75*
G03*
X19315910Y-14986315I0J30000D01*
G01*
X17915915Y-14986315D02*
G75*
G03*
X17945910Y-15016315I29995J-5D01*
G01*
X19315915Y-13646315D02*
G75*
G03*
X19285910Y-13616315I-30005J-5D01*
G01*
X17945910Y-13616320D02*
G75*
G03*
X17915910Y-13646315I0J-30000D01*
G01*
X19315910Y-13646315D02*
X19315910Y-14986315D01*
X17915910Y-13646315D02*
X17915910Y-14986315D01*
X17945910Y-15016315D02*
X19285910Y-15016315D01*
X17945910Y-13616315D02*
X19285910Y-13616315D01*
X14523410Y-15016320D02*
G75*
G03*
X14553410Y-14986315I0J30000D01*
G01*
X13153415Y-14986315D02*
G75*
G03*
X13183410Y-15016315I29995J-5D01*
G01*
X14553415Y-13646315D02*
G75*
G03*
X14523410Y-13616315I-30005J-5D01*
G01*
X13183410Y-13616320D02*
G75*
G03*
X13153410Y-13646315I0J-30000D01*
G01*
X14553410Y-13646315D02*
X14553410Y-14986315D01*
X13153410Y-13646315D02*
X13153410Y-14986315D01*
X13183410Y-15016315D02*
X14523410Y-15016315D01*
X13183410Y-13616315D02*
X14523410Y-13616315D01*
X29287160Y-14921070D02*
G75*
G03*
X29317160Y-14891065I0J30000D01*
G01*
X27917165Y-14891065D02*
G75*
G03*
X27947160Y-14921065I29995J-5D01*
G01*
X29317165Y-13551065D02*
G75*
G03*
X29287160Y-13521065I-30005J-5D01*
G01*
X27947160Y-13521070D02*
G75*
G03*
X27917160Y-13551065I0J-30000D01*
G01*
X29317160Y-13551065D02*
X29317160Y-14891065D01*
X27917160Y-13551065D02*
X27917160Y-14891065D01*
X27947160Y-14921065D02*
X29287160Y-14921065D01*
X27947160Y-13521065D02*
X29287160Y-13521065D01*
X4522160Y-14921070D02*
G75*
G03*
X4552160Y-14891065I0J30000D01*
G01*
X3152165Y-14891065D02*
G75*
G03*
X3182160Y-14921065I29995J-5D01*
G01*
X4552165Y-13551065D02*
G75*
G03*
X4522160Y-13521065I-30005J-5D01*
G01*
X3182160Y-13521070D02*
G75*
G03*
X3152160Y-13551065I0J-30000D01*
G01*
X4552160Y-13551065D02*
X4552160Y-14891065D01*
X3152160Y-13551065D02*
X3152160Y-14891065D01*
X3182160Y-14921065D02*
X4522160Y-14921065D01*
X3182160Y-13521065D02*
X4522160Y-13521065D01*
X25000910Y-14825820D02*
G75*
G03*
X25030910Y-14795815I0J30000D01*
G01*
X23630915Y-14795815D02*
G75*
G03*
X23660910Y-14825815I29995J-5D01*
G01*
X25030915Y-13455815D02*
G75*
G03*
X25000910Y-13425815I-30005J-5D01*
G01*
X23660910Y-13425820D02*
G75*
G03*
X23630910Y-13455815I0J-30000D01*
G01*
X25030910Y-13455815D02*
X25030910Y-14795815D01*
X23630910Y-13455815D02*
X23630910Y-14795815D01*
X23660910Y-14825815D02*
X25000910Y-14825815D01*
X23660910Y-13425815D02*
X25000910Y-13425815D01*
X21190910Y-14825820D02*
G75*
G03*
X21220910Y-14795815I0J30000D01*
G01*
X19820915Y-14795815D02*
G75*
G03*
X19850910Y-14825815I29995J-5D01*
G01*
X21220915Y-13455815D02*
G75*
G03*
X21190910Y-13425815I-30005J-5D01*
G01*
X19850910Y-13425820D02*
G75*
G03*
X19820910Y-13455815I0J-30000D01*
G01*
X21220910Y-13455815D02*
X21220910Y-14795815D01*
X19820910Y-13455815D02*
X19820910Y-14795815D01*
X19850910Y-14825815D02*
X21190910Y-14825815D01*
X19850910Y-13425815D02*
X21190910Y-13425815D01*
X16904660Y-14825820D02*
G75*
G03*
X16934660Y-14795815I0J30000D01*
G01*
X15534665Y-14795815D02*
G75*
G03*
X15564660Y-14825815I29995J-5D01*
G01*
X16934665Y-13455815D02*
G75*
G03*
X16904660Y-13425815I-30005J-5D01*
G01*
X15564660Y-13425820D02*
G75*
G03*
X15534660Y-13455815I0J-30000D01*
G01*
X16934660Y-13455815D02*
X16934660Y-14795815D01*
X15534660Y-13455815D02*
X15534660Y-14795815D01*
X15564660Y-14825815D02*
X16904660Y-14825815D01*
X15564660Y-13425815D02*
X16904660Y-13425815D01*
X12618410Y-14825820D02*
G75*
G03*
X12648410Y-14795815I0J30000D01*
G01*
X11248415Y-14795815D02*
G75*
G03*
X11278410Y-14825815I29995J-5D01*
G01*
X12648415Y-13455815D02*
G75*
G03*
X12618410Y-13425815I-30005J-5D01*
G01*
X11278410Y-13425820D02*
G75*
G03*
X11248410Y-13455815I0J-30000D01*
G01*
X12648410Y-13455815D02*
X12648410Y-14795815D01*
X11248410Y-13455815D02*
X11248410Y-14795815D01*
X11278410Y-14825815D02*
X12618410Y-14825815D01*
X11278410Y-13425815D02*
X12618410Y-13425815D01*
X8808410Y-14825820D02*
G75*
G03*
X8838410Y-14795815I0J30000D01*
G01*
X7438415Y-14795815D02*
G75*
G03*
X7468410Y-14825815I29995J-5D01*
G01*
X8838415Y-13455815D02*
G75*
G03*
X8808410Y-13425815I-30005J-5D01*
G01*
X7468410Y-13425820D02*
G75*
G03*
X7438410Y-13455815I0J-30000D01*
G01*
X8838410Y-13455815D02*
X8838410Y-14795815D01*
X7438410Y-13455815D02*
X7438410Y-14795815D01*
X7468410Y-14825815D02*
X8808410Y-14825815D01*
X7468410Y-13425815D02*
X8808410Y-13425815D01*
X23095910Y-14540070D02*
G75*
G03*
X23125910Y-14510065I0J30000D01*
G01*
X21725915Y-14510065D02*
G75*
G03*
X21755910Y-14540065I29995J-5D01*
G01*
X23125915Y-13170065D02*
G75*
G03*
X23095910Y-13140065I-30005J-5D01*
G01*
X21755910Y-13140070D02*
G75*
G03*
X21725910Y-13170065I0J-30000D01*
G01*
X23125910Y-13170065D02*
X23125910Y-14510065D01*
X21725910Y-13170065D02*
X21725910Y-14510065D01*
X21755910Y-14540065D02*
X23095910Y-14540065D01*
X21755910Y-13140065D02*
X23095910Y-13140065D01*
X10713410Y-14540070D02*
G75*
G03*
X10743410Y-14510065I0J30000D01*
G01*
X9343415Y-14510065D02*
G75*
G03*
X9373410Y-14540065I29995J-5D01*
G01*
X10743415Y-13170065D02*
G75*
G03*
X10713410Y-13140065I-30005J-5D01*
G01*
X9373410Y-13140070D02*
G75*
G03*
X9343410Y-13170065I0J-30000D01*
G01*
X10743410Y-13170065D02*
X10743410Y-14510065D01*
X9343410Y-13170065D02*
X9343410Y-14510065D01*
X9373410Y-14540065D02*
X10713410Y-14540065D01*
X9373410Y-13140065D02*
X10713410Y-13140065D01*
X26905910Y-13206570D02*
G75*
G03*
X26935910Y-13176565I0J30000D01*
G01*
X25535915Y-13176565D02*
G75*
G03*
X25565910Y-13206565I29995J-5D01*
G01*
X26935915Y-11836565D02*
G75*
G03*
X26905910Y-11806565I-30005J-5D01*
G01*
X25565910Y-11806570D02*
G75*
G03*
X25535910Y-11836565I0J-30000D01*
G01*
X26935910Y-11836565D02*
X26935910Y-13176565D01*
X25535910Y-11836565D02*
X25535910Y-13176565D01*
X25565910Y-13206565D02*
X26905910Y-13206565D01*
X25565910Y-11806565D02*
X26905910Y-11806565D01*
X6903410Y-13206570D02*
G75*
G03*
X6933410Y-13176565I0J30000D01*
G01*
X5533415Y-13176565D02*
G75*
G03*
X5563410Y-13206565I29995J-5D01*
G01*
X6933415Y-11836565D02*
G75*
G03*
X6903410Y-11806565I-30005J-5D01*
G01*
X5563410Y-11806570D02*
G75*
G03*
X5533410Y-11836565I0J-30000D01*
G01*
X6933410Y-11836565D02*
X6933410Y-13176565D01*
X5533410Y-11836565D02*
X5533410Y-13176565D01*
X5563410Y-13206565D02*
X6903410Y-13206565D01*
X5563410Y-11806565D02*
X6903410Y-11806565D01*
X19285910Y-13111320D02*
G75*
G03*
X19315910Y-13081315I0J30000D01*
G01*
X17915915Y-13081315D02*
G75*
G03*
X17945910Y-13111315I29995J-5D01*
G01*
X19315915Y-11741315D02*
G75*
G03*
X19285910Y-11711315I-30005J-5D01*
G01*
X17945910Y-11711320D02*
G75*
G03*
X17915910Y-11741315I0J-30000D01*
G01*
X19315910Y-11741315D02*
X19315910Y-13081315D01*
X17915910Y-11741315D02*
X17915910Y-13081315D01*
X17945910Y-13111315D02*
X19285910Y-13111315D01*
X17945910Y-11711315D02*
X19285910Y-11711315D01*
X14523410Y-13111320D02*
G75*
G03*
X14553410Y-13081315I0J30000D01*
G01*
X13153415Y-13081315D02*
G75*
G03*
X13183410Y-13111315I29995J-5D01*
G01*
X14553415Y-11741315D02*
G75*
G03*
X14523410Y-11711315I-30005J-5D01*
G01*
X13183410Y-11711320D02*
G75*
G03*
X13153410Y-11741315I0J-30000D01*
G01*
X14553410Y-11741315D02*
X14553410Y-13081315D01*
X13153410Y-11741315D02*
X13153410Y-13081315D01*
X13183410Y-13111315D02*
X14523410Y-13111315D01*
X13183410Y-11711315D02*
X14523410Y-11711315D01*
X28810910Y-13016070D02*
G75*
G03*
X28840910Y-12986065I0J30000D01*
G01*
X27440915Y-12986065D02*
G75*
G03*
X27470910Y-13016065I29995J-5D01*
G01*
X28840915Y-11646065D02*
G75*
G03*
X28810910Y-11616065I-30005J-5D01*
G01*
X27470910Y-11616070D02*
G75*
G03*
X27440910Y-11646065I0J-30000D01*
G01*
X28840910Y-11646065D02*
X28840910Y-12986065D01*
X27440910Y-11646065D02*
X27440910Y-12986065D01*
X27470910Y-13016065D02*
X28810910Y-13016065D01*
X27470910Y-11616065D02*
X28810910Y-11616065D01*
X4998410Y-13016070D02*
G75*
G03*
X5028410Y-12986065I0J30000D01*
G01*
X3628415Y-12986065D02*
G75*
G03*
X3658410Y-13016065I29995J-5D01*
G01*
X5028415Y-11646065D02*
G75*
G03*
X4998410Y-11616065I-30005J-5D01*
G01*
X3658410Y-11616070D02*
G75*
G03*
X3628410Y-11646065I0J-30000D01*
G01*
X5028410Y-11646065D02*
X5028410Y-12986065D01*
X3628410Y-11646065D02*
X3628410Y-12986065D01*
X3658410Y-13016065D02*
X4998410Y-13016065D01*
X3658410Y-11616065D02*
X4998410Y-11616065D01*
X25000910Y-12920820D02*
G75*
G03*
X25030910Y-12890815I0J30000D01*
G01*
X23630915Y-12890815D02*
G75*
G03*
X23660910Y-12920815I29995J-5D01*
G01*
X25030915Y-11550815D02*
G75*
G03*
X25000910Y-11520815I-30005J-5D01*
G01*
X23660910Y-11520820D02*
G75*
G03*
X23630910Y-11550815I0J-30000D01*
G01*
X25030910Y-11550815D02*
X25030910Y-12890815D01*
X23630910Y-11550815D02*
X23630910Y-12890815D01*
X23660910Y-12920815D02*
X25000910Y-12920815D01*
X23660910Y-11520815D02*
X25000910Y-11520815D01*
X21190910Y-12920820D02*
G75*
G03*
X21220910Y-12890815I0J30000D01*
G01*
X19820915Y-12890815D02*
G75*
G03*
X19850910Y-12920815I29995J-5D01*
G01*
X21220915Y-11550815D02*
G75*
G03*
X21190910Y-11520815I-30005J-5D01*
G01*
X19850910Y-11520820D02*
G75*
G03*
X19820910Y-11550815I0J-30000D01*
G01*
X21220910Y-11550815D02*
X21220910Y-12890815D01*
X19820910Y-11550815D02*
X19820910Y-12890815D01*
X19850910Y-12920815D02*
X21190910Y-12920815D01*
X19850910Y-11520815D02*
X21190910Y-11520815D01*
X16904660Y-12920820D02*
G75*
G03*
X16934660Y-12890815I0J30000D01*
G01*
X15534665Y-12890815D02*
G75*
G03*
X15564660Y-12920815I29995J-5D01*
G01*
X16934665Y-11550815D02*
G75*
G03*
X16904660Y-11520815I-30005J-5D01*
G01*
X15564660Y-11520820D02*
G75*
G03*
X15534660Y-11550815I0J-30000D01*
G01*
X16934660Y-11550815D02*
X16934660Y-12890815D01*
X15534660Y-11550815D02*
X15534660Y-12890815D01*
X15564660Y-12920815D02*
X16904660Y-12920815D01*
X15564660Y-11520815D02*
X16904660Y-11520815D01*
X12618410Y-12920820D02*
G75*
G03*
X12648410Y-12890815I0J30000D01*
G01*
X11248415Y-12890815D02*
G75*
G03*
X11278410Y-12920815I29995J-5D01*
G01*
X12648415Y-11550815D02*
G75*
G03*
X12618410Y-11520815I-30005J-5D01*
G01*
X11278410Y-11520820D02*
G75*
G03*
X11248410Y-11550815I0J-30000D01*
G01*
X12648410Y-11550815D02*
X12648410Y-12890815D01*
X11248410Y-11550815D02*
X11248410Y-12890815D01*
X11278410Y-12920815D02*
X12618410Y-12920815D01*
X11278410Y-11520815D02*
X12618410Y-11520815D01*
X8808410Y-12920820D02*
G75*
G03*
X8838410Y-12890815I0J30000D01*
G01*
X7438415Y-12890815D02*
G75*
G03*
X7468410Y-12920815I29995J-5D01*
G01*
X8838415Y-11550815D02*
G75*
G03*
X8808410Y-11520815I-30005J-5D01*
G01*
X7468410Y-11520820D02*
G75*
G03*
X7438410Y-11550815I0J-30000D01*
G01*
X8838410Y-11550815D02*
X8838410Y-12890815D01*
X7438410Y-11550815D02*
X7438410Y-12890815D01*
X7468410Y-12920815D02*
X8808410Y-12920815D01*
X7468410Y-11520815D02*
X8808410Y-11520815D01*
X23095910Y-12635070D02*
G75*
G03*
X23125910Y-12605065I0J30000D01*
G01*
X21725915Y-12605065D02*
G75*
G03*
X21755910Y-12635065I29995J-5D01*
G01*
X23125915Y-11265065D02*
G75*
G03*
X23095910Y-11235065I-30005J-5D01*
G01*
X21755910Y-11235070D02*
G75*
G03*
X21725910Y-11265065I0J-30000D01*
G01*
X23125910Y-11265065D02*
X23125910Y-12605065D01*
X21725910Y-11265065D02*
X21725910Y-12605065D01*
X21755910Y-12635065D02*
X23095910Y-12635065D01*
X21755910Y-11235065D02*
X23095910Y-11235065D01*
X10713410Y-12635070D02*
G75*
G03*
X10743410Y-12605065I0J30000D01*
G01*
X9343415Y-12605065D02*
G75*
G03*
X9373410Y-12635065I29995J-5D01*
G01*
X10743415Y-11265065D02*
G75*
G03*
X10713410Y-11235065I-30005J-5D01*
G01*
X9373410Y-11235070D02*
G75*
G03*
X9343410Y-11265065I0J-30000D01*
G01*
X10743410Y-11265065D02*
X10743410Y-12605065D01*
X9343410Y-11265065D02*
X9343410Y-12605065D01*
X9373410Y-12635065D02*
X10713410Y-12635065D01*
X9373410Y-11235065D02*
X10713410Y-11235065D01*
X27115910Y-15406565D02*
X25852101Y-15406565D01*
X25852101Y-15321565D02*
X27115910Y-15321565D01*
X27115910Y-13501565D02*
X25852101Y-13501565D01*
X25852101Y-13416565D02*
X27115910Y-13416565D01*
X27340910Y-16716570D02*
G75*
G03*
X27315910Y-16741565I0J-25000D01*
G01*
X27340910Y-16716565D02*
X27375910Y-16716565D01*
X27400915Y-16741565D02*
G75*
G03*
X27375910Y-16716565I-25005J-5D01*
G01*
X27400915Y-14836565D02*
G75*
G03*
X27375910Y-14811565I-25005J-5D01*
G01*
X27400910Y-14836565D02*
X27400910Y-15891565D01*
X27340910Y-14811565D02*
X27375910Y-14811565D01*
X27340910Y-14811570D02*
G75*
G03*
X27315910Y-14836565I0J-25000D01*
G01*
X27315915Y-15891565D02*
G75*
G03*
X27340910Y-15916565I24995J-5D01*
G01*
X27340910Y-15916565D02*
X27375910Y-15916565D01*
X27375910Y-15916570D02*
G75*
G03*
X27400910Y-15891565I0J25000D01*
G01*
X27315915Y-15606565D02*
G75*
G03*
X27115910Y-15406565I-200005J-5D01*
G01*
X27115910Y-15321570D02*
G75*
G03*
X27315910Y-15121565I0J200000D01*
G01*
X27315915Y-13986565D02*
G75*
G03*
X27340910Y-14011565I24995J-5D01*
G01*
X27340910Y-14011565D02*
X27375910Y-14011565D01*
X27375910Y-14011570D02*
G75*
G03*
X27400910Y-13986565I0J25000D01*
G01*
X27400910Y-13701565D02*
X27400910Y-13986565D01*
X27315915Y-13701565D02*
G75*
G03*
X27115910Y-13501565I-200005J-5D01*
G01*
X27400915Y-13701565D02*
G75*
G03*
X27115910Y-13416565I-285005J-5D01*
G01*
X25310523Y-13372403D02*
G75*
G03*
X25852101Y-13501565I541577J1070833D01*
G01*
X25256297Y-13344978D02*
X25310523Y-13372403D01*
X25310523Y-13287403D02*
G75*
G03*
X25852101Y-13416565I541577J1070833D01*
G01*
X25256297Y-13259978D02*
X25310523Y-13287403D01*
X25256298Y-13344977D02*
G75*
G03*
X24714719Y-13215815I-541578J-1070843D01*
G01*
X23947101Y-13215815D02*
X24714719Y-13215815D01*
X25256298Y-13259977D02*
G75*
G03*
X24714719Y-13130815I-541578J-1070843D01*
G01*
X23947101Y-13130815D02*
X24714719Y-13130815D01*
X23405523Y-13086653D02*
G75*
G03*
X23947101Y-13215815I541577J1070833D01*
G01*
X23351297Y-13059227D02*
X23405523Y-13086653D01*
X23405523Y-13001653D02*
G75*
G03*
X23947101Y-13130815I541577J1070833D01*
G01*
X23351297Y-12974227D02*
X23405523Y-13001653D01*
X23351297Y-13059227D02*
G75*
G03*
X22809719Y-12930065I-541577J-1070843D01*
G01*
X22042102Y-12930065D02*
X22809719Y-12930065D01*
X23351297Y-12974227D02*
G75*
G03*
X22809719Y-12845065I-541577J-1070843D01*
G01*
X22042102Y-12845065D02*
X22809719Y-12845065D01*
X22042102Y-12845066D02*
G75*
G03*
X21500523Y-12974228I-2J-1200004D01*
G01*
X21446297Y-13001653D02*
X21500523Y-12974228D01*
X22042102Y-12930066D02*
G75*
G03*
X21500523Y-13059228I-2J-1200004D01*
G01*
X21446297Y-13086653D02*
X21500523Y-13059228D01*
X20904719Y-13215815D02*
G75*
G03*
X21446297Y-13086653I1J1199995D01*
G01*
X20047767Y-13215815D02*
X20904719Y-13215815D01*
X20904719Y-13130815D02*
G75*
G03*
X21446297Y-13001653I1J1199995D01*
G01*
X20047767Y-13130815D02*
X20904719Y-13130815D01*
X20047767Y-13130814D02*
G75*
G03*
X19664371Y-13193710I3J-1199996D01*
G01*
X19472449Y-13258420D02*
X19664371Y-13193710D01*
X20047767Y-13215814D02*
G75*
G03*
X19664371Y-13278710I3J-1199996D01*
G01*
X19472449Y-13343420D02*
X19664371Y-13278710D01*
X19089053Y-13406316D02*
G75*
G03*
X19472449Y-13343420I-3J1199997D01*
G01*
X19089053Y-13321316D02*
G75*
G03*
X19472449Y-13258420I-3J1199997D01*
G01*
X25310523Y-17182404D02*
G75*
G03*
X25852102Y-17311565I541577J1070844D01*
G01*
X25310523Y-17182403D02*
X25256297Y-17154978D01*
X25310523Y-17097404D02*
G75*
G03*
X25852102Y-17226565I541577J1070844D01*
G01*
X25256297Y-17069978D02*
X25310523Y-17097403D01*
X25256298Y-17154977D02*
G75*
G03*
X24714719Y-17025815I-541578J-1070843D01*
G01*
X24714719Y-17025815D02*
X23947101Y-17025815D01*
X25256298Y-17069977D02*
G75*
G03*
X24714719Y-16940815I-541578J-1070843D01*
G01*
X23947101Y-16940815D02*
X24714719Y-16940815D01*
X23405523Y-16896653D02*
G75*
G03*
X23947101Y-17025815I541577J1070833D01*
G01*
X23405523Y-16896653D02*
X23351297Y-16869228D01*
X23405523Y-16811653D02*
G75*
G03*
X23947101Y-16940815I541577J1070833D01*
G01*
X23351297Y-16784228D02*
X23405523Y-16811653D01*
X23351298Y-16869227D02*
G75*
G03*
X22809719Y-16740065I-541578J-1070843D01*
G01*
X22809719Y-16740065D02*
X22042102Y-16740065D01*
X23351298Y-16784227D02*
G75*
G03*
X22809719Y-16655065I-541578J-1070843D01*
G01*
X22042102Y-16655065D02*
X22809719Y-16655065D01*
X22042102Y-16655066D02*
G75*
G03*
X21500523Y-16784228I-2J-1200004D01*
G01*
X21446297Y-16811653D02*
X21500523Y-16784228D01*
X22042102Y-16740066D02*
G75*
G03*
X21500523Y-16869228I-2J-1200004D01*
G01*
X21500523Y-16869228D02*
X21446297Y-16896653D01*
X20904719Y-17025815D02*
G75*
G03*
X21446297Y-16896653I1J1199995D01*
G01*
X20904719Y-17025815D02*
X20047767Y-17025815D01*
X20904719Y-16940815D02*
G75*
G03*
X21446297Y-16811653I1J1199995D01*
G01*
X20047767Y-16940815D02*
X20904719Y-16940815D01*
X20047767Y-16940814D02*
G75*
G03*
X19664371Y-17003710I3J-1199996D01*
G01*
X19472449Y-17068420D02*
X19664371Y-17003710D01*
X20047767Y-17025814D02*
G75*
G03*
X19664371Y-17088710I3J-1199996D01*
G01*
X19664371Y-17088710D02*
X19472449Y-17153420D01*
X19089053Y-17216317D02*
G75*
G03*
X19472449Y-17153420I-3J1199997D01*
G01*
X19089053Y-17131317D02*
G75*
G03*
X19472449Y-17068420I-3J1199997D01*
G01*
X25310523Y-15277404D02*
G75*
G03*
X25852101Y-15406565I541577J1070844D01*
G01*
X25310523Y-15277403D02*
X25256297Y-15249978D01*
X25310523Y-15192404D02*
G75*
G03*
X25852101Y-15321565I541577J1070844D01*
G01*
X25256297Y-15164978D02*
X25310523Y-15192403D01*
X25256297Y-15164977D02*
G75*
G03*
X24714719Y-15035815I-541577J-1070843D01*
G01*
X23947101Y-15035815D02*
X24714719Y-15035815D01*
X25256297Y-15249977D02*
G75*
G03*
X24714719Y-15120815I-541577J-1070843D01*
G01*
X24714719Y-15120815D02*
X23947101Y-15120815D01*
X23405523Y-14991654D02*
G75*
G03*
X23947101Y-15120815I541577J1070844D01*
G01*
X23405523Y-14991653D02*
X23351297Y-14964228D01*
X23405523Y-14906654D02*
G75*
G03*
X23947101Y-15035815I541577J1070844D01*
G01*
X23351297Y-14879228D02*
X23405523Y-14906653D01*
X23351298Y-14964227D02*
G75*
G03*
X22809719Y-14835065I-541578J-1070843D01*
G01*
X22809719Y-14835065D02*
X22042101Y-14835065D01*
X23351298Y-14879227D02*
G75*
G03*
X22809719Y-14750065I-541578J-1070843D01*
G01*
X22042101Y-14750065D02*
X22809719Y-14750065D01*
X22042101Y-14750066D02*
G75*
G03*
X21500523Y-14879228I-1J-1200004D01*
G01*
X21446297Y-14906653D02*
X21500523Y-14879228D01*
X22042101Y-14835066D02*
G75*
G03*
X21500523Y-14964228I-1J-1200004D01*
G01*
X21500523Y-14964228D02*
X21446297Y-14991653D01*
X20904719Y-15120814D02*
G75*
G03*
X21446297Y-14991653I1J1200004D01*
G01*
X20904719Y-15120815D02*
X20047767Y-15120815D01*
X20904719Y-15035814D02*
G75*
G03*
X21446297Y-14906653I1J1200004D01*
G01*
X20047767Y-15035815D02*
X20904719Y-15035815D01*
X20047767Y-15035814D02*
G75*
G03*
X19664371Y-15098710I3J-1199996D01*
G01*
X19472449Y-15163420D02*
X19664371Y-15098710D01*
X20047767Y-15120814D02*
G75*
G03*
X19664371Y-15183710I3J-1199996D01*
G01*
X19664371Y-15183710D02*
X19472449Y-15248420D01*
X19089054Y-15311316D02*
G75*
G03*
X19472449Y-15248420I-4J1199997D01*
G01*
X19089054Y-15226316D02*
G75*
G03*
X19472449Y-15163420I-4J1199997D01*
G01*
X6617219Y-17311564D02*
G75*
G03*
X7158797Y-17182403I1J1200004D01*
G01*
X7158797Y-17182403D02*
X7213023Y-17154978D01*
X6617219Y-17226564D02*
G75*
G03*
X7158797Y-17097403I1J1200004D01*
G01*
X7213023Y-17069978D02*
X7158797Y-17097403D01*
X7754601Y-17025816D02*
G75*
G03*
X7213023Y-17154978I-2J-1200004D01*
G01*
X7754601Y-17025815D02*
X8522219Y-17025815D01*
X7754601Y-16940816D02*
G75*
G03*
X7213023Y-17069978I-2J-1200004D01*
G01*
X8522219Y-16940815D02*
X7754601Y-16940815D01*
X8522219Y-17025815D02*
G75*
G03*
X9063797Y-16896653I1J1199995D01*
G01*
X9063797Y-16896653D02*
X9118023Y-16869228D01*
X8522219Y-16940815D02*
G75*
G03*
X9063797Y-16811653I1J1199995D01*
G01*
X9118023Y-16784228D02*
X9063797Y-16811653D01*
X9659602Y-16740066D02*
G75*
G03*
X9118023Y-16869228I-2J-1200004D01*
G01*
X9659602Y-16740065D02*
X10427219Y-16740065D01*
X9659602Y-16655066D02*
G75*
G03*
X9118023Y-16784228I-2J-1200004D01*
G01*
X10427219Y-16655065D02*
X9659602Y-16655065D01*
X10968798Y-16869227D02*
G75*
G03*
X10427219Y-16740065I-541578J-1070843D01*
G01*
X10968797Y-16869228D02*
X11023023Y-16896653D01*
X10968798Y-16784227D02*
G75*
G03*
X10427219Y-16655065I-541578J-1070843D01*
G01*
X11023023Y-16811653D02*
X10968797Y-16784228D01*
X11023023Y-16896653D02*
G75*
G03*
X11564601Y-17025815I541577J1070833D01*
G01*
X11564601Y-17025815D02*
X12421553Y-17025815D01*
X11023023Y-16811653D02*
G75*
G03*
X11564601Y-16940815I541577J1070833D01*
G01*
X12421553Y-16940815D02*
X11564601Y-16940815D01*
X12804949Y-17003712D02*
G75*
G03*
X12421553Y-16940815I-383399J-1137099D01*
G01*
X12996871Y-17068420D02*
X12804949Y-17003710D01*
X12804949Y-17088712D02*
G75*
G03*
X12421553Y-17025815I-383399J-1137099D01*
G01*
X12804949Y-17088710D02*
X12996871Y-17153420D01*
X12996872Y-17153419D02*
G75*
G03*
X13380267Y-17216315I383398J1137099D01*
G01*
X12996872Y-17068419D02*
G75*
G03*
X13380267Y-17131315I383398J1137099D01*
G01*
X12996872Y-15248419D02*
G75*
G03*
X13380267Y-15311315I383398J1137099D01*
G01*
X12996871Y-15248420D02*
X12804949Y-15183710D01*
X12996872Y-15163419D02*
G75*
G03*
X13380267Y-15226315I383398J1137099D01*
G01*
X12804949Y-15098710D02*
X12996871Y-15163420D01*
X12804949Y-15183711D02*
G75*
G03*
X12421553Y-15120815I-383399J-1137109D01*
G01*
X12421553Y-15120815D02*
X11564601Y-15120815D01*
X12804949Y-15098711D02*
G75*
G03*
X12421553Y-15035815I-383399J-1137109D01*
G01*
X11564601Y-15035815D02*
X12421553Y-15035815D01*
X11023023Y-14991654D02*
G75*
G03*
X11564601Y-15120815I541577J1070844D01*
G01*
X11023023Y-14991653D02*
X10968797Y-14964228D01*
X11023023Y-14906654D02*
G75*
G03*
X11564601Y-15035815I541577J1070844D01*
G01*
X10968797Y-14879228D02*
X11023023Y-14906653D01*
X10968798Y-14964227D02*
G75*
G03*
X10427219Y-14835065I-541578J-1070843D01*
G01*
X10427219Y-14835065D02*
X9659601Y-14835065D01*
X10968798Y-14879227D02*
G75*
G03*
X10427219Y-14750065I-541578J-1070843D01*
G01*
X9659602Y-14750065D02*
X10427219Y-14750065D01*
X9659602Y-14750066D02*
G75*
G03*
X9118023Y-14879228I-2J-1200004D01*
G01*
X9063797Y-14906653D02*
X9118023Y-14879228D01*
X9659601Y-14835066D02*
G75*
G03*
X9118023Y-14964228I-1J-1200004D01*
G01*
X9118023Y-14964228D02*
X9063797Y-14991653D01*
X8522219Y-15120814D02*
G75*
G03*
X9063797Y-14991653I1J1200004D01*
G01*
X8522219Y-15035815D02*
G75*
G03*
X9063797Y-14906653I1J1199995D01*
G01*
X7754601Y-15035815D02*
X8522219Y-15035815D01*
X7754601Y-15035815D02*
G75*
G03*
X7213023Y-15164978I-2J-1199995D01*
G01*
X7158797Y-15192403D02*
X7213023Y-15164978D01*
X6617219Y-15321565D02*
G75*
G03*
X7158797Y-15192403I1J1199995D01*
G01*
X12996872Y-13343419D02*
G75*
G03*
X13380267Y-13406315I383398J1137099D01*
G01*
X12996871Y-13343420D02*
X12804949Y-13278710D01*
X12996872Y-13258419D02*
G75*
G03*
X13380267Y-13321315I383398J1137099D01*
G01*
X12804949Y-13193710D02*
X12996871Y-13258420D01*
X12804949Y-13278711D02*
G75*
G03*
X12421553Y-13215815I-383399J-1137099D01*
G01*
X12421553Y-13215815D02*
X11564601Y-13215815D01*
X12804949Y-13193711D02*
G75*
G03*
X12421553Y-13130815I-383399J-1137099D01*
G01*
X11564601Y-13130815D02*
X12421553Y-13130815D01*
X11023023Y-13086654D02*
G75*
G03*
X11564601Y-13215815I541577J1070844D01*
G01*
X11023023Y-13086653D02*
X10968797Y-13059228D01*
X11023023Y-13001654D02*
G75*
G03*
X11564601Y-13130815I541577J1070844D01*
G01*
X10968797Y-12974228D02*
X11023023Y-13001653D01*
X10968798Y-13059227D02*
G75*
G03*
X10427219Y-12930065I-541578J-1070843D01*
G01*
X10427219Y-12930065D02*
X9659602Y-12930065D01*
X10968798Y-12974227D02*
G75*
G03*
X10427219Y-12845065I-541578J-1070843D01*
G01*
X9659602Y-12845065D02*
X10427219Y-12845065D01*
X9659602Y-12845065D02*
G75*
G03*
X9118023Y-12974228I-2J-1199995D01*
G01*
X9063797Y-13001653D02*
X9118023Y-12974228D01*
X9659602Y-12930066D02*
G75*
G03*
X9118023Y-13059228I-2J-1200004D01*
G01*
X9118023Y-13059228D02*
X9063797Y-13086653D01*
X7754601Y-13215816D02*
G75*
G03*
X7213023Y-13344978I-2J-1200004D01*
G01*
X7213023Y-13344978D02*
X7158797Y-13372403D01*
X8522219Y-13215815D02*
X7754601Y-13215815D01*
X7754601Y-13130816D02*
G75*
G03*
X7213023Y-13259978I-2J-1200004D01*
G01*
X7158797Y-13287403D02*
X7213023Y-13259978D01*
X7754601Y-13130815D02*
X8522219Y-13130815D01*
X8522219Y-13215815D02*
G75*
G03*
X9063797Y-13086653I1J1199995D01*
G01*
X8522219Y-13130815D02*
G75*
G03*
X9063797Y-13001653I1J1199995D01*
G01*
X6617219Y-13501565D02*
G75*
G03*
X7158797Y-13372403I1J1199995D01*
G01*
X6617219Y-13416564D02*
G75*
G03*
X7158797Y-13287403I1J1200004D01*
G01*
X16636346Y-19335281D02*
G75*
G03*
X15832974Y-19335281I-401686J-17995278D01*
G01*
X16636346Y-19335281D02*
X20714660Y-19426315D01*
X11754660Y-19426315D02*
X15832974Y-19335281D01*
X15681403Y-10995280D02*
G75*
G03*
X16787917Y-10995280I553257J11987222D01*
G01*
X15681403Y-10995280D02*
X10677656Y-10764338D01*
X21791665Y-10764338D02*
X16787917Y-10995280D01*
X23059703Y-10772885D02*
G75*
G03*
X21791665Y-10764338I-714783J-11978685D01*
G01*
X28591089Y-11102948D02*
X23059703Y-10772884D01*
X10677656Y-10764338D02*
G75*
G03*
X9409617Y-10772884I-553256J-11987232D01*
G01*
X9409617Y-10772884D02*
X3878231Y-11102948D01*
X3878231Y-11102948D02*
G75*
G03*
X3476267Y-11239829I47653J-798581D01*
G01*
X3476267Y-11239829D02*
X3113627Y-11486239D01*
X3113627Y-11486239D02*
G75*
G03*
X2796850Y-11918497I449616J-661699D01*
G01*
X2796850Y-11918497D02*
X1836891Y-15125023D01*
X30784159Y-15797593D02*
G75*
G03*
X30632429Y-15125023I-4941690J-761437D01*
G01*
X31149251Y-18167044D02*
X30784159Y-15797593D01*
X30632429Y-15125023D02*
X29672470Y-11918497D01*
X1836891Y-15125024D02*
G75*
G03*
X1685161Y-15797593I4789928J-1433996D01*
G01*
X1685161Y-15797593D02*
X1320069Y-18167044D01*
X2052213Y-19184425D02*
G75*
G03*
X2950123Y-19460748I1020754J1719901D01*
G01*
X2950123Y-19460748D02*
X4727505Y-19570125D01*
X1702436Y-18976834D02*
X2052213Y-19184425D01*
X1320069Y-18167044D02*
G75*
G03*
X1702436Y-18976834I790669J-121829D01*
G01*
X30766883Y-18976832D02*
G75*
G03*
X31149251Y-18167044I-408303J687962D01*
G01*
X30417106Y-19184425D02*
X30766884Y-18976834D01*
X28993054Y-11239827D02*
G75*
G03*
X28591089Y-11102948I-449614J-661703D01*
G01*
X29355693Y-11486238D02*
X28993053Y-11239829D01*
X29672472Y-11918497D02*
G75*
G03*
X29355693Y-11486238I-766392J-229443D01*
G01*
X29519197Y-19460748D02*
G75*
G03*
X30417106Y-19184425I-122847J1996228D01*
G01*
X27741815Y-19570125D02*
X29519197Y-19460748D01*
X26068840Y-19595167D02*
G75*
G03*
X27741815Y-19570125I567370J17991107D01*
G01*
X20714660Y-19426315D02*
X26068840Y-19595167D01*
X4727505Y-19570125D02*
G75*
G03*
X6400480Y-19595167I1105605J17966065D01*
G01*
X6400480Y-19595167D02*
X11754660Y-19426315D01*
X15688894Y-8457487D02*
G75*
G03*
X16064573Y-8720122I375676J137367D01*
G01*
X16064573Y-8720122D02*
X16422787Y-8720122D01*
X15117138Y-6893774D02*
X15688898Y-8457485D01*
X15492813Y-6356412D02*
G75*
G03*
X15117138Y-6893774I-3J-399998D01*
G01*
X16994547Y-6356411D02*
X15492813Y-6356411D01*
X16422787Y-8720118D02*
G75*
G03*
X16798461Y-8457485I3J399998D01*
G01*
X17370222Y-6893774D02*
X16798461Y-8457485D01*
X17370223Y-6893774D02*
G75*
G03*
X16994547Y-6356411I-375673J137364D01*
G01*
X14832431Y-4925698D02*
G75*
G03*
X15177455Y-5063422I199999J-2D01*
G01*
X15177455Y-5063422D02*
X15750758Y-4459722D01*
X14832430Y-4925698D02*
X14832430Y-3718308D01*
X15177453Y-3580585D02*
G75*
G03*
X14832430Y-3718308I-145023J-137725D01*
G01*
X15750757Y-4184274D02*
X15177454Y-3580584D01*
X17654933Y-3718302D02*
G75*
G03*
X17309901Y-3580577I-200003J2D01*
G01*
X17654916Y-4925698D02*
X17654926Y-3718302D01*
X17309901Y-3580577D02*
X16736599Y-4184275D01*
X17309893Y-5063415D02*
G75*
G03*
X17654916Y-4925698I145027J137715D01*
G01*
X16736598Y-4459720D02*
X17309890Y-5063418D01*
X16736601Y-4184277D02*
G75*
G03*
X16736598Y-4459720I145029J-137723D01*
G01*
X15750760Y-4459723D02*
G75*
G03*
X15750757Y-4184274I-145030J137723D01*
G01*
X16179564Y-4534133D02*
G75*
G03*
X16034539Y-4596406I-4J-199998D01*
G01*
X16179564Y-4534129D02*
X16307795Y-4534129D01*
X16034539Y-4596406D02*
X15365280Y-5301149D01*
X15365280Y-5301149D02*
G75*
G03*
X15510306Y-5638872I145030J-137721D01*
G01*
X16977042Y-5638872D02*
X15510306Y-5638872D01*
X16977042Y-5638870D02*
G75*
G03*
X17122068Y-5301150I-2J200000D01*
G01*
X17122068Y-5301150D02*
X16452821Y-4596407D01*
X16452819Y-4596410D02*
G75*
G03*
X16307795Y-4534129I-145029J-137720D01*
G01*
X16034538Y-4047590D02*
G75*
G03*
X16179563Y-4109865I145022J137720D01*
G01*
X16179563Y-4109865D02*
X16307796Y-4109865D01*
X15365283Y-3342861D02*
X16034539Y-4047589D01*
X16307796Y-4109864D02*
G75*
G03*
X16452821Y-4047588I4J199994D01*
G01*
X16452821Y-4047588D02*
X17122076Y-3342849D01*
X17122081Y-3342853D02*
G75*
G03*
X16977050Y-3005126I-145031J137723D01*
G01*
X15510306Y-3005137D02*
X16977050Y-3005126D01*
X15510306Y-3005140D02*
G75*
G03*
X15365283Y-3342861I4J-200000D01*
G01*
X18211053Y-6094999D02*
G75*
G03*
X17866705Y-6356411I31327J-398771D01*
G01*
X17198913Y-8182759D02*
X17866705Y-6356411D01*
X18211053Y-6095002D02*
X19677436Y-5979808D01*
X17198912Y-8182759D02*
G75*
G03*
X17574588Y-8720122I375678J-137361D01*
G01*
X18747280Y-8720122D02*
X17574588Y-8720122D01*
X18747280Y-8720121D02*
G75*
G03*
X19105735Y-8497634I0J400001D01*
G01*
X20067217Y-6556091D02*
X19105735Y-8497634D01*
X20067215Y-6556091D02*
G75*
G03*
X19677436Y-5979808I-358455J177511D01*
G01*
X20882860Y-5891581D02*
G75*
G03*
X20588688Y-6108870I64280J-394799D01*
G01*
X22242085Y-5670271D02*
X20882860Y-5891581D01*
X19600474Y-8104393D02*
X20588688Y-6108870D01*
X19600474Y-8104393D02*
G75*
G03*
X19981549Y-8681265I358455J-177512D01*
G01*
X22562920Y-8535047D02*
X19981549Y-8681265D01*
X24749040Y-8745554D02*
G75*
G03*
X25157978Y-8190522I41100J397884D01*
G01*
X24749040Y-8745554D02*
X22754086Y-8539478D01*
X25157978Y-8190522D02*
X24276357Y-6126921D01*
X24276357Y-6126921D02*
G75*
G03*
X23972802Y-5889269I-367837J-157149D01*
G01*
X23972802Y-5889269D02*
X22627775Y-5670271D01*
X25207790Y-6041509D02*
G75*
G03*
X24775672Y-6593455I-64280J-394801D01*
G01*
X24775672Y-6593455D02*
X25615675Y-8559640D01*
X25998224Y-6170203D02*
X25207791Y-6041505D01*
X25615673Y-8559641D02*
G75*
G03*
X26002703Y-8802030I367837J157151D01*
G01*
X26002703Y-8802030D02*
X29213181Y-8647819D01*
X29213181Y-8647820D02*
G75*
G03*
X29583838Y-8158731I-19192J399540D01*
G01*
X29583838Y-8158731D02*
X29068217Y-5914002D01*
X29068217Y-5914002D02*
G75*
G03*
X28579674Y-5615918I-389847J-89548D01*
G01*
X28579674Y-5615918D02*
X26487157Y-6148698D01*
X22754086Y-8539478D02*
G75*
G03*
X22562920Y-8535047I-123306J-1193662D01*
G01*
X22627775Y-5670271D02*
G75*
G03*
X22242085Y-5670271I-192845J-1184401D01*
G01*
X25998224Y-6170203D02*
G75*
G03*
X26487157Y-6148698I192846J1184403D01*
G01*
X14620653Y-6356412D02*
G75*
G03*
X14276307Y-6095002I-375673J-137358D01*
G01*
X15288447Y-8182759D02*
X14620655Y-6356411D01*
X14276307Y-6095002D02*
X12809924Y-5979808D01*
X14912772Y-8720121D02*
G75*
G03*
X15288447Y-8182759I-2J400001D01*
G01*
X13740080Y-8720122D02*
X14912772Y-8720122D01*
X13381624Y-8497635D02*
G75*
G03*
X13740080Y-8720122I358456J177515D01*
G01*
X12420143Y-6556091D02*
X13381625Y-8497634D01*
X12809924Y-5979806D02*
G75*
G03*
X12420143Y-6556091I-31324J-398774D01*
G01*
X11898673Y-6108870D02*
G75*
G03*
X11604500Y-5891581I-358453J-177510D01*
G01*
X10245275Y-5670271D02*
X11604500Y-5891581D01*
X12886886Y-8104393D02*
X11898672Y-6108870D01*
X12505810Y-8681274D02*
G75*
G03*
X12886886Y-8104393I22620J399364D01*
G01*
X9924440Y-8535047D02*
X12505811Y-8681265D01*
X7329381Y-8190522D02*
G75*
G03*
X7738320Y-8745554I367839J-157148D01*
G01*
X7738320Y-8745554D02*
X9733274Y-8539478D01*
X7329382Y-8190522D02*
X8211003Y-6126921D01*
X8514558Y-5889269D02*
G75*
G03*
X8211003Y-6126921I64282J-394801D01*
G01*
X8514558Y-5889269D02*
X9859585Y-5670271D01*
X7711688Y-6593455D02*
G75*
G03*
X7279569Y-6041505I-367837J157149D01*
G01*
X7711688Y-6593455D02*
X6871685Y-8559640D01*
X6489136Y-6170203D02*
X7279569Y-6041505D01*
X6484657Y-8802028D02*
G75*
G03*
X6871685Y-8559640I19193J399538D01*
G01*
X6484657Y-8802030D02*
X3274178Y-8647819D01*
X2903522Y-8158731D02*
G75*
G03*
X3274178Y-8647819I389848J-89549D01*
G01*
X2903522Y-8158731D02*
X3419142Y-5914002D01*
X3907686Y-5615917D02*
G75*
G03*
X3419142Y-5914002I-98696J-387633D01*
G01*
X3907686Y-5615918D02*
X6000203Y-6148698D01*
X9924440Y-8535046D02*
G75*
G03*
X9733274Y-8539478I-67860J-1198094D01*
G01*
X10245275Y-5670271D02*
G75*
G03*
X9859585Y-5670271I-192845J-1184401D01*
G01*
X6000203Y-6148699D02*
G75*
G03*
X6489136Y-6170203I296087J1162899D01*
G01*
X25998224Y-5470203D02*
G75*
G03*
X26487157Y-5448699I192846J1184403D01*
G01*
X25063566Y-5318022D02*
X25998224Y-5470204D01*
X26487157Y-5448699D02*
X28590581Y-4913141D01*
X19758766Y-5273422D02*
G75*
G03*
X20076972Y-4680156I-31326J398772D01*
G01*
X20076972Y-4680156D02*
X19259282Y-3210631D01*
X18386256Y-5381239D02*
X19758765Y-5273419D01*
X17954933Y-4982467D02*
G75*
G03*
X18386256Y-5381239I399997J-3D01*
G01*
X17954930Y-3405122D02*
X17954930Y-4982467D01*
X18354930Y-3005120D02*
G75*
G03*
X17954930Y-3405122I0J-400000D01*
G01*
X18909749Y-3005122D02*
X18354930Y-3005122D01*
X19259282Y-3210631D02*
G75*
G03*
X18909749Y-3005122I-349532J-194489D01*
G01*
X28581535Y-3234858D02*
G75*
G03*
X28166085Y-2932812I-388055J-97012D01*
G01*
X28166085Y-2932812D02*
X25936670Y-3085838D01*
X28879942Y-4428494D02*
X28581533Y-3234859D01*
X28590582Y-4913147D02*
G75*
G03*
X28879942Y-4428494I-98702J387637D01*
G01*
X24782043Y-4722176D02*
G75*
G03*
X25063566Y-5318022I345807J-201044D01*
G01*
X25618257Y-3283855D02*
X24782043Y-4722176D01*
X25936670Y-3085840D02*
G75*
G03*
X25618257Y-3283855I27390J-399060D01*
G01*
X25141239Y-3588344D02*
G75*
G03*
X24870522Y-2994408I-345809J201044D01*
G01*
X25141234Y-3588341D02*
X24328298Y-4986625D01*
X22641278Y-2568333D02*
X24870522Y-2994408D01*
X20009523Y-2915193D02*
G75*
G03*
X19722911Y-3504701I62917J-395017D01*
G01*
X20009523Y-2915190D02*
X22227235Y-2561937D01*
X20543354Y-4979172D02*
X19722911Y-3504701D01*
X20543356Y-4979171D02*
G75*
G03*
X20957168Y-5179482I349534J194491D01*
G01*
X22242085Y-4970272D02*
X20957168Y-5179482D01*
X23918211Y-5180384D02*
G75*
G03*
X24328298Y-4986625I64279J394804D01*
G01*
X23918211Y-5180381D02*
X22627775Y-4970272D01*
X22627775Y-4970272D02*
G75*
G03*
X22242085Y-4970272I-192845J-1184401D01*
G01*
X22641278Y-2568333D02*
G75*
G03*
X22227235Y-2561937I-225278J-1178667D01*
G01*
X6000203Y-5448699D02*
G75*
G03*
X6489136Y-5470204I296087J1162899D01*
G01*
X7423794Y-5318022D02*
X6489136Y-5470204D01*
X6000203Y-5448699D02*
X3896779Y-4913141D01*
X12410389Y-4680157D02*
G75*
G03*
X12728595Y-5273419I349532J-194491D01*
G01*
X12410388Y-4680156D02*
X13228078Y-3210631D01*
X14101104Y-5381239D02*
X12728595Y-5273419D01*
X14101104Y-5381241D02*
G75*
G03*
X14532430Y-4982467I31326J398771D01*
G01*
X14532430Y-3405122D02*
X14532430Y-4982467D01*
X14532428Y-3405122D02*
G75*
G03*
X14132430Y-3005122I-399998J2D01*
G01*
X13577611Y-3005122D02*
X14132430Y-3005122D01*
X13577611Y-3005122D02*
G75*
G03*
X13228078Y-3210631I-1J-399998D01*
G01*
X4321276Y-2932812D02*
G75*
G03*
X3905827Y-3234859I-27392J-399061D01*
G01*
X4321276Y-2932812D02*
X6550690Y-3085838D01*
X3607418Y-4428494D02*
X3905827Y-3234859D01*
X3607418Y-4428494D02*
G75*
G03*
X3896779Y-4913141I388057J-97015D01*
G01*
X7423794Y-5318022D02*
G75*
G03*
X7705317Y-4722176I-64284J394802D01*
G01*
X6869103Y-3283855D02*
X7705317Y-4722176D01*
X6869105Y-3283854D02*
G75*
G03*
X6550690Y-3085838I-345805J-201046D01*
G01*
X7616839Y-2994414D02*
G75*
G03*
X7346126Y-3588341I75091J-392886D01*
G01*
X7346126Y-3588341D02*
X8159062Y-4986625D01*
X9846082Y-2568333D02*
X7616838Y-2994408D01*
X12764451Y-3504703D02*
G75*
G03*
X12477837Y-2915190I-349531J194493D01*
G01*
X12477837Y-2915190D02*
X10260125Y-2561937D01*
X11944006Y-4979172D02*
X12764449Y-3504701D01*
X11530191Y-5179485D02*
G75*
G03*
X11944006Y-4979172I64279J394805D01*
G01*
X10245275Y-4970272D02*
X11530192Y-5179482D01*
X8159065Y-4986623D02*
G75*
G03*
X8569149Y-5180381I345805J201043D01*
G01*
X8569149Y-5180381D02*
X9859585Y-4970272D01*
X10245275Y-4970272D02*
G75*
G03*
X9859585Y-4970272I-192845J-1184401D01*
G01*
X10260125Y-2561937D02*
G75*
G03*
X9846082Y-2568333I-188765J-1185063D01*
G01*
X29399305Y-3579872D02*
G75*
G03*
X29399305Y-3579872I-110000J0D01*
G01*
X3308055Y-3579872D02*
G75*
G03*
X3308055Y-3579872I-110000J0D01*
G01*
X30589930Y-8973372D02*
G75*
G03*
X30589930Y-8973372I-110000J0D01*
G01*
X2117430Y-8973372D02*
G75*
G03*
X2117430Y-8973372I-110000J0D01*
G01*
X16645366Y-9929089D02*
G75*
G03*
X15841994Y-9929089I-401686J-17995684D01*
G01*
X16645366Y-9929089D02*
X20723680Y-10020122D01*
X11763680Y-10020122D02*
X15841994Y-9929089D01*
X15690423Y-1589087D02*
G75*
G03*
X16796937Y-1589087I553257J11987220D01*
G01*
X15690423Y-1589087D02*
X10686676Y-1358145D01*
X21800684Y-1358145D02*
X16796937Y-1589087D01*
X23068723Y-1366692D02*
G75*
G03*
X21800684Y-1358145I-714783J-11978718D01*
G01*
X28600109Y-1696755D02*
X23068723Y-1366692D01*
X10686676Y-1358145D02*
G75*
G03*
X9418637Y-1366692I-553256J-11987265D01*
G01*
X9418637Y-1366692D02*
X3887251Y-1696755D01*
X3887251Y-1696756D02*
G75*
G03*
X3485287Y-1833636I47649J-798574D01*
G01*
X3485287Y-1833636D02*
X3122646Y-2080046D01*
X3122646Y-2080046D02*
G75*
G03*
X2805870Y-2512305I449617J-661699D01*
G01*
X2805870Y-2512305D02*
X1845911Y-5718831D01*
X30793179Y-6391400D02*
G75*
G03*
X30641449Y-5718831I-4941659J-761430D01*
G01*
X31158271Y-8760851D02*
X30793179Y-6391400D01*
X30641449Y-5718831D02*
X29681490Y-2512305D01*
X1845911Y-5718831D02*
G75*
G03*
X1694181Y-6391400I4789938J-1433999D01*
G01*
X1694181Y-6391400D02*
X1329089Y-8760852D01*
X2061233Y-9778232D02*
G75*
G03*
X2959143Y-10054555I1020755J1719904D01*
G01*
X2959143Y-10054555D02*
X4736525Y-10163932D01*
X1711456Y-9570641D02*
X2061233Y-9778232D01*
X1329089Y-8760852D02*
G75*
G03*
X1711456Y-9570641I790669J-121829D01*
G01*
X30775904Y-9570642D02*
G75*
G03*
X31158271Y-8760851I-408304J687962D01*
G01*
X30426126Y-9778232D02*
X30775904Y-9570641D01*
X29002073Y-1833635D02*
G75*
G03*
X28600109Y-1696755I-449613J-661695D01*
G01*
X29364713Y-2080046D02*
X29002073Y-1833636D01*
X29681488Y-2512305D02*
G75*
G03*
X29364713Y-2080046I-766388J-229435D01*
G01*
X29528217Y-10054556D02*
G75*
G03*
X30426126Y-9778232I-122847J1996226D01*
G01*
X27750835Y-10163932D02*
X29528217Y-10054555D01*
X26077860Y-10188975D02*
G75*
G03*
X27750835Y-10163932I567370J17991015D01*
G01*
X20723680Y-10020122D02*
X26077860Y-10188974D01*
X4736525Y-10163932D02*
G75*
G03*
X6409500Y-10188974I1105605J17965972D01*
G01*
X6409500Y-10188974D02*
X11763680Y-10020122D01*
X1558357Y-19924588D02*
X1558357Y-19724588D01*
X1605976Y-19724588D01*
X1634547Y-19734111D01*
X1653595Y-19753159D01*
X1663119Y-19772207D01*
X1672642Y-19810302D01*
X1672642Y-19838873D01*
X1663119Y-19876969D01*
X1653595Y-19896016D01*
X1634547Y-19915064D01*
X1605976Y-19924588D01*
X1558357Y-19924588D01*
X1758357Y-19924588D02*
X1758357Y-19791254D01*
X1758357Y-19829349D02*
X1767881Y-19810302D01*
X1777404Y-19800778D01*
X1796452Y-19791254D01*
X1815500Y-19791254D01*
X1882166Y-19924588D02*
X1882166Y-19791254D01*
X1882166Y-19724588D02*
X1872642Y-19734111D01*
X1882166Y-19743635D01*
X1891690Y-19734111D01*
X1882166Y-19724588D01*
X1882166Y-19743635D01*
X2005976Y-19924588D02*
X1986928Y-19915064D01*
X1977404Y-19896016D01*
X1977404Y-19724588D01*
X2110738Y-19924588D02*
X2091690Y-19915064D01*
X2082166Y-19896016D01*
X2082166Y-19724588D01*
X2339309Y-19924588D02*
X2339309Y-19724588D01*
X2405976Y-19867445D01*
X2472643Y-19724588D01*
X2472643Y-19924588D01*
X2653595Y-19924588D02*
X2653595Y-19819826D01*
X2644071Y-19800778D01*
X2625024Y-19791254D01*
X2586928Y-19791254D01*
X2567881Y-19800778D01*
X2653595Y-19915064D02*
X2634547Y-19924588D01*
X2586928Y-19924588D01*
X2567881Y-19915064D01*
X2558357Y-19896016D01*
X2558357Y-19876969D01*
X2567881Y-19857921D01*
X2586928Y-19848397D01*
X2634547Y-19848397D01*
X2653595Y-19838873D01*
X2748833Y-19791254D02*
X2748833Y-19991254D01*
X2748833Y-19800778D02*
X2767881Y-19791254D01*
X2805976Y-19791254D01*
X2825023Y-19800778D01*
X2834547Y-19810302D01*
X2844071Y-19829349D01*
X2844071Y-19886492D01*
X2834547Y-19905540D01*
X2825023Y-19915064D01*
X2805976Y-19924588D01*
X2767881Y-19924588D01*
X2748833Y-19915064D01*
X2929785Y-19905540D02*
X2939309Y-19915064D01*
X2929785Y-19924588D01*
X2920262Y-19915064D01*
X2929785Y-19905540D01*
X2929785Y-19924588D01*
X2929785Y-19800778D02*
X2939309Y-19810302D01*
X2929785Y-19819826D01*
X2920262Y-19810302D01*
X2929785Y-19800778D01*
X2929785Y-19819826D01*
M02*
