999
dxfrw 0.6.3
  0
SECTION
  2
HEADER
  9
$ACADVER
  1
AC1021
  9
$DWGCODEPAGE
  3
ANSI_1252
  9
$INSBASE
 10
0
 20
0
 30
0
  9
$EXTMIN
 10
-6.364221856741518
 20
-86.21546045407406
 30
0
  9
$EXTMAX
 10
292.1142218116576
 20
2.309878076290801
 30
0
  9
$LIMMIN
 10
0
 20
0
  9
$LIMMAX
 10
420
 20
297
  9
$ORTHOMODE
 70
    0
  9
$REGENMODE
 70
    1
  9
$FILLMODE
 70
    1
  9
$QTEXTMODE
 70
    0
  9
$MIRRTEXT
 70
    0
  9
$LTSCALE
 40
1
  9
$ATTMODE
 70
    0
  9
$TEXTSIZE
 40
2.5
  9
$TRACEWID
 40
15.68
  9
$TEXTSTYLE
  7
STANDARD
  9
$CLAYER
  8
0
  9
$CELTYPE
  6
BYLAYER
  9
$CECOLOR
 62
  256
  9
$CELTSCALE
 40
1
  9
$DISPSILH
 70
    0
  9
$DIMSCALE
 40
2.5
  9
$DIMASZ
 40
2.5
  9
$DIMEXO
 40
0.625
  9
$DIMDLI
 40
3.75
  9
$DIMRND
 40
0
  9
$DIMDLE
 40
0
  9
$DIMEXE
 40
1.25
  9
$DIMTP
 40
0
  9
$DIMTM
 40
0
  9
$DIMTXT
 40
2.5
  9
$DIMCEN
 40
2.5
  9
$DIMTSZ
 40
0
  9
$DIMTOL
 70
    0
  9
$DIMLIM
 70
    0
  9
$DIMTIH
 70
    0
  9
$DIMTOH
 70
    0
  9
$DIMSE1
 70
    0
  9
$DIMSE2
 70
    0
  9
$DIMTAD
 70
    1
  9
$DIMZIN
 70
    8
  9
$DIMBLK
  1

  9
$DIMASO
 70
    1
  9
$DIMSHO
 70
    1
  9
$DIMPOST
  1

  9
$DIMAPOST
  1

  9
$DIMALT
 70
    0
  9
$DIMALTD
 70
    3
  9
$DIMALTF
 40
0.03937
  9
$DIMLFAC
 40
1
  9
$DIMTOFL
 70
    1
  9
$DIMTVP
 40
0
  9
$DIMTIX
 70
    0
  9
$DIMSOXD
 70
    0
  9
$DIMSAH
 70
    0
  9
$DIMBLK1
  1

  9
$DIMBLK2
  1

  9
$DIMSTYLE
  2
Standard
  9
$DIMCLRD
 70
    0
  9
$DIMCLRE
 70
    0
  9
$DIMCLRT
 70
    0
  9
$DIMTFAC
 40
1
  9
$DIMGAP
 40
0.625
  9
$DIMJUST
 70
    0
  9
$DIMSD1
 70
    0
  9
$DIMSD2
 70
    0
  9
$DIMTOLJ
 70
    0
  9
$DIMTZIN
 70
    8
  9
$DIMALTZ
 70
    0
  9
$DIMALTTZ
 70
    0
  9
$DIMUPT
 70
    0
  9
$DIMDEC
 70
    2
  9
$DIMTDEC
 70
    2
  9
$DIMALTU
 70
    2
  9
$DIMALTTD
 70
    3
  9
$DIMTXSTY
  7
STANDARD
  9
$DIMAUNIT
 70
    0
  9
$DIMADEC
 70
    0
  9
$DIMALTRND
 40
0
  9
$DIMAZIN
 70
    0
  9
$DIMDSEP
 70
   44
  9
$DIMATFIT
 70
    3
  9
$DIMFRAC
 70
    0
  9
$DIMLDRBLK
  1
STANDARD
  9
$DIMLUNIT
 70
    2
  9
$DIMLWD
 70
   -2
  9
$DIMLWE
 70
   -2
  9
$DIMTMOVE
 70
    0
  9
$DIMFXL
 40
1
  9
$DIMFXLON
 70
    0
  9
$DIMJOGANG
 40
0.7854
  9
$DIMTFILL
 70
    0
  9
$DIMTFILLCLR
 70
    0
  9
$DIMARCSYM
 70
    0
  9
$DIMLTYPE
  6

  9
$DIMLTEX1
  6

  9
$DIMLTEX2
  6

  9
$LUNITS
 70
    2
  9
$LUPREC
 70
    4
  9
$SKETCHINC
 40
1
  9
$FILLETRAD
 40
0
  9
$AUNITS
 70
    0
  9
$AUPREC
 70
    2
  9
$MENU
  1
.
  9
$ELEVATION
 40
0
  9
$PELEVATION
 40
0
  9
$THICKNESS
 40
0
  9
$LIMCHECK
 70
    0
  9
$CHAMFERA
 40
0
  9
$CHAMFERB
 40
0
  9
$CHAMFERC
 40
0
  9
$CHAMFERD
 40
0
  9
$SKPOLY
 70
    0
  9
$USRTIMER
 70
    1
  9
$ANGBASE
 50
0
  9
$ANGDIR
 70
    0
  9
$PDMODE
 70
   34
  9
$PDSIZE
 40
0
  9
$PLINEWID
 40
0
  9
$SPLFRAME
 70
    0
  9
$SPLINETYPE
 70
    2
  9
$SPLINESEGS
 70
    8
  9
$HANDSEED
  5
20000
  9
$SURFTAB1
 70
    6
  9
$SURFTAB2
 70
    6
  9
$SURFTYPE
 70
    6
  9
$SURFU
 70
    6
  9
$SURFV
 70
    6
  9
$UCSBASE
  2

  9
$UCSNAME
  2

  9
$UCSORG
 10
0
 20
0
 30
0
  9
$UCSXDIR
 10
1
 20
0
 30
0
  9
$UCSYDIR
 10
0
 20
1
 30
0
  9
$UCSORTHOREF
  2

  9
$UCSORTHOVIEW
 70
    0
  9
$UCSORGTOP
 10
0
 20
0
 30
0
  9
$UCSORGBOTTOM
 10
0
 20
0
 30
0
  9
$UCSORGLEFT
 10
0
 20
0
 30
0
  9
$UCSORGRIGHT
 10
0
 20
0
 30
0
  9
$UCSORGFRONT
 10
0
 20
0
 30
0
  9
$UCSORGBACK
 10
0
 20
0
 30
0
  9
$PUCSBASE
  2

  9
$PUCSNAME
  2

  9
$PUCSORG
 10
0
 20
0
 30
0
  9
$PUCSXDIR
 10
1
 20
0
 30
0
  9
$PUCSYDIR
 10
0
 20
1
 30
0
  9
$PUCSORTHOREF
  2

  9
$PUCSORTHOVIEW
 70
    0
  9
$PUCSORGTOP
 10
0
 20
0
 30
0
  9
$PUCSORGBOTTOM
 10
0
 20
0
 30
0
  9
$PUCSORGLEFT
 10
0
 20
0
 30
0
  9
$PUCSORGRIGHT
 10
0
 20
0
 30
0
  9
$PUCSORGFRONT
 10
0
 20
0
 30
0
  9
$PUCSORGBACK
 10
0
 20
0
 30
0
  9
$USERI1
 70
    0
  9
$USERI2
 70
    0
  9
$USERI3
 70
    0
  9
$USERI4
 70
    0
  9
$USERI5
 70
    0
  9
$USERR1
 40
0
  9
$USERR2
 40
0
  9
$USERR3
 40
0
  9
$USERR4
 40
0
  9
$USERR5
 40
0
  9
$WORLDVIEW
 70
    1
  9
$SHADEDGE
 70
    3
  9
$SHADEDIF
 70
   70
  9
$TILEMODE
 70
    1
  9
$MAXACTVP
 70
   64
  9
$PINSBASE
 10
0
 20
0
 30
0
  9
$PLIMCHECK
 70
    0
  9
$PEXTMIN
 10
0
 20
0
 30
0
  9
$PEXTMAX
 10
0
 20
0
 30
0
  9
$GRIDMODE
 70
    1
  9
$SNAPSTYLE
 70
    0
  9
$PLIMMIN
 10
0
 20
0
  9
$PLIMMAX
 10
210
 20
297
  9
$UNITMODE
 70
    0
  9
$VISRETAIN
 70
    1
  9
$PLINEGEN
 70
    0
  9
$PSLTSCALE
 70
    1
  9
$TREEDEPTH
 70
 3020
  9
$CMLSTYLE
  2
Standard
  9
$CMLJUST
 70
    0
  9
$CMLSCALE
 40
20
  9
$PROXYGRAPHICS
 70
    1
  9
$MEASUREMENT
 70
    1
  9
$CELWEIGHT
370
   -1
  9
$ENDCAPS
280
    0
  9
$JOINSTYLE
280
    0
  9
$LWDISPLAY
290
    0
  9
$INSUNITS
 70
    4
  9
$HYPERLINKBASE
  1

  9
$STYLESHEET
  1

  9
$XEDIT
290
    1
  9
$CEPSNTYPE
380
    0
  9
$PSTYLEMODE
290
    1
  9
$EXTNAMES
290
    1
  9
$PSVPSCALE
 40
1
  9
$OLESTARTUP
290
    0
  9
$SORTENTS
280
  127
  9
$INDEXCTL
280
    0
  9
$HIDETEXT
280
    1
  9
$XCLIPFRAME
290
    0
  9
$HALOGAP
280
    0
  9
$OBSCOLOR
 70
  257
  9
$OBSLTYPE
280
    0
  9
$INTERSECTIONDISPLAY
280
    0
  9
$INTERSECTIONCOLOR
 70
  257
  9
$DIMASSOC
280
    1
  9
$PROJECTNAME
  1

  9
$CAMERADISPLAY
290
    0
  9
$LENSLENGTH
 40
50
  9
$CAMERAHEIGHT
 40
0
  9
$STEPSPERSEC
 40
2
  9
$STEPSIZE
 40
50
  9
$3DDWFPREC
 40
2
  9
$PSOLWIDTH
 40
5
  9
$PSOLHEIGHT
 40
80
  9
$LOFTANG1
 40
1.570796326794897
  9
$LOFTANG2
 40
1.570796326794897
  9
$LOFTMAG1
 40
0
  9
$LOFTMAG2
 40
0
  9
$LOFTPARAM
 70
    7
  9
$LOFTNORMALS
280
    1
  9
$LATITUDE
 40
1
  9
$LONGITUDE
 40
1
  9
$NORTHDIRECTION
 40
0
  9
$TIMEZONE
 70
-8000
  9
$LIGHTGLYPHDISPLAY
280
    1
  9
$TILEMODELIGHTSYNCH
280
    1
  9
$SOLIDHIST
280
    1
  9
$SHOWHIST
280
    1
  9
$DWFFRAME
280
    2
  9
$DGNFRAME
280
    0
  9
$REALWORLDSCALE
290
    1
  9
$INTERFERECOLOR
 62
    1
  9
$CSHADOW
280
    0
  9
$SHADOWPLANELOCATION
 40
0
  0
ENDSEC
  0
SECTION
  2
CLASSES
  0
ENDSEC
  0
SECTION
  2
TABLES
  0
TABLE
  2
VPORT
  5
8
330
0
100
AcDbSymbolTable
 70
    1
  0
VPORT
  5
31
330
2
100
AcDbSymbolTableRecord
100
AcDbViewportTableRecord
  2
*ACTIVE
 70
    0
 10
0
 20
0
 11
1
 21
1
 12
135.9193747829553
 22
35.60016796319286
 13
0
 23
0
 14
10
 24
10
 15
10
 25
10
 16
0
 26
0
 36
1
 17
0
 27
0
 37
0
 40
222.8063282551279
 41
1.254637436762226
 42
50
 43
0
 44
0
 50
0
 51
0
 71
    0
 72
  100
 73
    1
 74
    3
 75
    0
 76
    1
 77
    0
 78
    0
281
    0
 65
    1
110
0
120
0
130
0
111
1
121
0
131
0
112
0
122
1
132
0
 79
    0
146
0
348
10020
 60
    7
 61
    5
292
1
282
    1
141
0
142
0
 63
  250
421
3358443
  0
ENDTAB
  0
TABLE
  2
LTYPE
  5
5
330
0
100
AcDbSymbolTable
 70
    4
  0
LTYPE
  5
14
330
5
100
AcDbSymbolTableRecord
100
AcDbLinetypeTableRecord
  2
ByBlock
 70
    0
  3

 72
   65
 73
    0
 40
0
  0
LTYPE
  5
15
330
5
100
AcDbSymbolTableRecord
100
AcDbLinetypeTableRecord
  2
ByLayer
 70
    0
  3

 72
   65
 73
    0
 40
0
  0
LTYPE
  5
16
330
5
100
AcDbSymbolTableRecord
100
AcDbLinetypeTableRecord
  2
Continuous
 70
    0
  3
Solid line
 72
   65
 73
    0
 40
0
  0
LTYPE
  5
32
330
5
100
AcDbSymbolTableRecord
100
AcDbLinetypeTableRecord
  2
DOT
 70
    0
  3
Dot . . . . . . . . . . . . . . . . . . . . . .
 72
   65
 73
    2
 40
6.35
 49
0
 74
    0
 49
-6.35
 74
    0
  0
LTYPE
  5
33
330
5
100
AcDbSymbolTableRecord
100
AcDbLinetypeTableRecord
  2
DOTTINY
 70
    0
  3
Dot (.15x) .....................................
 72
   65
 73
    2
 40
0.9525
 49
0
 74
    0
 49
-0.9525
 74
    0
  0
LTYPE
  5
34
330
5
100
AcDbSymbolTableRecord
100
AcDbLinetypeTableRecord
  2
DOT2
 70
    0
  3
Dot (.5x) .....................................
 72
   65
 73
    2
 40
3.175
 49
0
 74
    0
 49
-3.175
 74
    0
  0
LTYPE
  5
35
330
5
100
AcDbSymbolTableRecord
100
AcDbLinetypeTableRecord
  2
DOTX2
 70
    0
  3
Dot (2x) .  .  .  .  .  .  .  .  .  .  .  .  .
 72
   65
 73
    2
 40
12.7
 49
0
 74
    0
 49
-12.7
 74
    0
  0
LTYPE
  5
36
330
5
100
AcDbSymbolTableRecord
100
AcDbLinetypeTableRecord
  2
DASHED
 70
    0
  3
Dashed _ _ _ _ _ _ _ _ _ _ _ _ _ _ _ _ _
 72
   65
 73
    2
 40
19.05
 49
12.7
 74
    0
 49
-6.35
 74
    0
  0
LTYPE
  5
37
330
5
100
AcDbSymbolTableRecord
100
AcDbLinetypeTableRecord
  2
DASHEDTINY
 70
    0
  3
Dashed (.15x) _ _ _ _ _ _ _ _ _ _ _ _ _ _ _ _ _
 72
   65
 73
    2
 40
2.8575
 49
1.905
 74
    0
 49
-0.9525
 74
    0
  0
LTYPE
  5
38
330
5
100
AcDbSymbolTableRecord
100
AcDbLinetypeTableRecord
  2
DASHED2
 70
    0
  3
Dashed (.5x) _ _ _ _ _ _ _ _ _ _ _ _ _ _ _ _ _
 72
   65
 73
    2
 40
9.524999999999999
 49
6.35
 74
    0
 49
-3.175
 74
    0
  0
LTYPE
  5
39
330
5
100
AcDbSymbolTableRecord
100
AcDbLinetypeTableRecord
  2
DASHEDX2
 70
    0
  3
Dashed (2x) ____  ____  ____  ____  ____  ___
 72
   65
 73
    2
 40
38.09999999999999
 49
25.4
 74
    0
 49
-12.7
 74
    0
  0
LTYPE
  5
3A
330
5
100
AcDbSymbolTableRecord
100
AcDbLinetypeTableRecord
  2
DASHDOT
 70
    0
  3
Dash dot __ . __ . __ . __ . __ . __ . __ . __
 72
   65
 73
    4
 40
25.4
 49
12.7
 74
    0
 49
-6.35
 74
    0
 49
0
 74
    0
 49
-6.35
 74
    0
  0
LTYPE
  5
3B
330
5
100
AcDbSymbolTableRecord
100
AcDbLinetypeTableRecord
  2
DASHDOTTINY
 70
    0
  3
Dash dot (.15x) _._._._._._._._._._._._._._._.
 72
   65
 73
    4
 40
3.81
 49
1.905
 74
    0
 49
-0.9525
 74
    0
 49
0
 74
    0
 49
-0.9525
 74
    0
  0
LTYPE
  5
3C
330
5
100
AcDbSymbolTableRecord
100
AcDbLinetypeTableRecord
  2
DASHDOT2
 70
    0
  3
Dash dot (.5x) _._._._._._._._._._._._._._._.
 72
   65
 73
    4
 40
12.7
 49
6.35
 74
    0
 49
-3.175
 74
    0
 49
0
 74
    0
 49
-3.175
 74
    0
  0
LTYPE
  5
3D
330
5
100
AcDbSymbolTableRecord
100
AcDbLinetypeTableRecord
  2
DASHDOTX2
 70
    0
  3
Dash dot (2x) ____  .  ____  .  ____  .  ___
 72
   65
 73
    4
 40
50.8
 49
25.4
 74
    0
 49
-12.7
 74
    0
 49
0
 74
    0
 49
-12.7
 74
    0
  0
LTYPE
  5
3E
330
5
100
AcDbSymbolTableRecord
100
AcDbLinetypeTableRecord
  2
DIVIDE
 70
    0
  3
Divide ____ . . ____ . . ____ . . ____ . . ____
 72
   65
 73
    6
 40
31.75
 49
12.7
 74
    0
 49
-6.35
 74
    0
 49
0
 74
    0
 49
-6.35
 74
    0
 49
0
 74
    0
 49
-6.35
 74
    0
  0
LTYPE
  5
3F
330
5
100
AcDbSymbolTableRecord
100
AcDbLinetypeTableRecord
  2
DIVIDETINY
 70
    0
  3
Divide (.15x) __..__..__..__..__..__..__..__.._
 72
   65
 73
    6
 40
4.7625
 49
1.905
 74
    0
 49
-0.9525
 74
    0
 49
0
 74
    0
 49
-0.9525
 74
    0
 49
0
 74
    0
 49
-0.9525
 74
    0
  0
LTYPE
  5
40
330
5
100
AcDbSymbolTableRecord
100
AcDbLinetypeTableRecord
  2
DIVIDE2
 70
    0
  3
Divide (.5x) __..__..__..__..__..__..__..__.._
 72
   65
 73
    6
 40
15.875
 49
6.35
 74
    0
 49
-3.175
 74
    0
 49
0
 74
    0
 49
-3.175
 74
    0
 49
0
 74
    0
 49
-3.175
 74
    0
  0
LTYPE
  5
41
330
5
100
AcDbSymbolTableRecord
100
AcDbLinetypeTableRecord
  2
DIVIDEX2
 70
    0
  3
Divide (2x) ________  .  .  ________  .  .  _
 72
   65
 73
    6
 40
63.5
 49
25.4
 74
    0
 49
-12.7
 74
    0
 49
0
 74
    0
 49
-12.7
 74
    0
 49
0
 74
    0
 49
-12.7
 74
    0
  0
LTYPE
  5
42
330
5
100
AcDbSymbolTableRecord
100
AcDbLinetypeTableRecord
  2
BORDER
 70
    0
  3
Border __ __ . __ __ . __ __ . __ __ . __ __ .
 72
   65
 73
    6
 40
44.45
 49
12.7
 74
    0
 49
-6.35
 74
    0
 49
12.7
 74
    0
 49
-6.35
 74
    0
 49
0
 74
    0
 49
-6.35
 74
    0
  0
LTYPE
  5
43
330
5
100
AcDbSymbolTableRecord
100
AcDbLinetypeTableRecord
  2
BORDERTINY
 70
    0
  3
Border (.15x) __.__.__.__.__.__.__.__.__.__.__.
 72
   65
 73
    6
 40
6.6675
 49
1.905
 74
    0
 49
-0.9525
 74
    0
 49
1.905
 74
    0
 49
-0.9525
 74
    0
 49
0
 74
    0
 49
-0.9525
 74
    0
  0
LTYPE
  5
44
330
5
100
AcDbSymbolTableRecord
100
AcDbLinetypeTableRecord
  2
BORDER2
 70
    0
  3
Border (.5x) __.__.__.__.__.__.__.__.__.__.__.
 72
   65
 73
    6
 40
22.225
 49
6.35
 74
    0
 49
-3.175
 74
    0
 49
6.35
 74
    0
 49
-3.175
 74
    0
 49
0
 74
    0
 49
-3.175
 74
    0
  0
LTYPE
  5
45
330
5
100
AcDbSymbolTableRecord
100
AcDbLinetypeTableRecord
  2
BORDERX2
 70
    0
  3
Border (2x) ____  ____  .  ____  ____  .  ___
 72
   65
 73
    6
 40
88.89999999999999
 49
25.4
 74
    0
 49
-12.7
 74
    0
 49
25.4
 74
    0
 49
-12.7
 74
    0
 49
0
 74
    0
 49
-12.7
 74
    0
  0
LTYPE
  5
46
330
5
100
AcDbSymbolTableRecord
100
AcDbLinetypeTableRecord
  2
CENTER
 70
    0
  3
Center ____ _ ____ _ ____ _ ____ _ ____ _ ____
 72
   65
 73
    4
 40
50.8
 49
31.75
 74
    0
 49
-6.35
 74
    0
 49
6.35
 74
    0
 49
-6.35
 74
    0
  0
LTYPE
  5
47
330
5
100
AcDbSymbolTableRecord
100
AcDbLinetypeTableRecord
  2
CENTERTINY
 70
    0
  3
Center (.15x) ___ _ ___ _ ___ _ ___ _ ___ _ ___
 72
   65
 73
    4
 40
7.62
 49
4.7625
 74
    0
 49
-0.9525
 74
    0
 49
0.9525
 74
    0
 49
-0.9525
 74
    0
  0
LTYPE
  5
48
330
5
100
AcDbSymbolTableRecord
100
AcDbLinetypeTableRecord
  2
CENTER2
 70
    0
  3
Center (.5x) ___ _ ___ _ ___ _ ___ _ ___ _ ___
 72
   65
 73
    4
 40
28.575
 49
19.05
 74
    0
 49
-3.175
 74
    0
 49
3.175
 74
    0
 49
-3.175
 74
    0
  0
LTYPE
  5
49
330
5
100
AcDbSymbolTableRecord
100
AcDbLinetypeTableRecord
  2
CENTERX2
 70
    0
  3
Center (2x) ________  __  ________  __  _____
 72
   65
 73
    4
 40
101.6
 49
63.5
 74
    0
 49
-12.7
 74
    0
 49
12.7
 74
    0
 49
-12.7
 74
    0
  0
ENDTAB
  0
TABLE
  2
LAYER
  5
2
330
0
100
AcDbSymbolTable
 70
    1
  0
LAYER
  5
10
330
2
100
AcDbSymbolTableRecord
100
AcDbLayerTableRecord
  2
0
 70
    0
 62
    7
  6
CONTINUOUS
370
    0
390
F
  0
ENDTAB
  0
TABLE
  2
STYLE
  5
3
330
0
100
AcDbSymbolTable
 70
    3
  0
STYLE
  5
4A
330
2
100
AcDbSymbolTableRecord
100
AcDbTextStyleTableRecord
  2
Standard
 70
    0
 40
0
 41
1
 50
0
 71
    0
 42
1
  3
txt
  4

  0
ENDTAB
  0
TABLE
  2
VIEW
  5
6
330
0
100
AcDbSymbolTable
 70
    0
  0
ENDTAB
  0
TABLE
  2
UCS
  5
7
330
0
100
AcDbSymbolTable
 70
    0
  0
ENDTAB
  0
TABLE
  2
APPID
  5
9
330
0
100
AcDbSymbolTable
 70
    1
  0
APPID
  5
12
330
9
100
AcDbSymbolTableRecord
100
AcDbRegAppTableRecord
  2
ACAD
 70
    0
  0
APPID
  5
4B
330
9
100
AcDbSymbolTableRecord
100
AcDbRegAppTableRecord
  2
LibreCad
 70
    0
  0
ENDTAB
  0
TABLE
  2
DIMSTYLE
  5
A
330
0
100
AcDbSymbolTable
 70
    1
100
AcDbDimStyleTable
 71
    1
  0
DIMSTYLE
105
4C
330
A
100
AcDbSymbolTableRecord
100
AcDbDimStyleTableRecord
  2
Standard
 70
    0
 40
2.5
 41
2.5
 42
0.625
 43
0.38
 44
1.25
 45
0
 46
0
 47
0
 48
0
 49
1
140
2.5
141
0.09
142
0
143
25.4
144
1
145
0
146
1
147
0.625
148
0
 71
    0
 72
    0
 73
    0
 74
    1
 75
    0
 76
    0
 77
    0
 78
    8
 79
    0
170
    0
171
    2
172
    0
173
    0
174
    0
175
    0
176
    0
177
    0
178
    0
179
    0
271
    2
272
    4
273
    2
274
    2
275
    0
276
    0
277
    2
278
   44
279
    0
280
    0
281
    0
282
    0
283
    1
284
    0
285
    0
286
    0
288
    0
289
    3
340
STANDARD
341

371
   -2
372
   -2
  0
ENDTAB
  0
TABLE
  2
BLOCK_RECORD
  5
1
330
0
100
AcDbSymbolTable
 70
    2
  0
BLOCK_RECORD
  5
1F
330
1
100
AcDbSymbolTableRecord
100
AcDbBlockTableRecord
  2
*Model_Space
 70
    0
280
    1
281
    0
  0
BLOCK_RECORD
  5
1E
330
1
100
AcDbSymbolTableRecord
100
AcDbBlockTableRecord
  2
*Paper_Space
 70
    0
280
    1
281
    0
  0
BLOCK_RECORD
  5
4D
330
1
100
AcDbSymbolTableRecord
100
AcDbBlockTableRecord
  2
teethless40_csl_plate_v4
 70
    0
280
    1
281
    0
  0
BLOCK_RECORD
  5
50
330
1
100
AcDbSymbolTableRecord
100
AcDbBlockTableRecord
  2
teethless40_csl_plate_v4-0
 70
    0
280
    1
281
    0
  0
BLOCK_RECORD
  5
53
330
1
100
AcDbSymbolTableRecord
100
AcDbBlockTableRecord
  2
teethless40_csl_plate_v4_rounded_bottom_flexcuts
 70
    0
280
    1
281
    0
  0
ENDTAB
  0
ENDSEC
  0
SECTION
  2
BLOCKS
  0
BLOCK
  5
20
330
1F
100
AcDbEntity
  8
0
100
AcDbBlockBegin
  2
*Model_Space
 70
    0
 10
0
 20
0
 30
0
  3
*Model_Space
  1

  0
ENDBLK
  5
21
330
1F
100
AcDbEntity
  8
0
100
AcDbBlockEnd
  0
BLOCK
  5
1C
330
1B
100
AcDbEntity
  8
0
100
AcDbBlockBegin
  2
*Paper_Space
 70
    0
 10
0
 20
0
 30
0
  3
*Paper_Space
  1

  0
ENDBLK
  5
1D
330
1F
100
AcDbEntity
  8
0
100
AcDbBlockEnd
  0
BLOCK
  5
4E
330
4D
100
AcDbEntity
  8
0
100
AcDbBlockBegin
  2
teethless40_csl_plate_v4
 70
    0
 10
0
 20
0
  3
teethless40_csl_plate_v4
  1

  0
LINE
  5
56
100
AcDbEntity
  8
0
  6
ByLayer
 62
  256
370
   -1
100
AcDbLine
 10
74.2625
 20
-2.525
 11
87.66249999999999
 21
-2.525
  0
LINE
  5
57
100
AcDbEntity
  8
0
  6
ByLayer
 62
  256
370
   -1
100
AcDbLine
 10
74.2625
 20
-16.525
 11
87.66249999999999
 21
-16.525
  0
LINE
  5
58
100
AcDbEntity
  8
0
  6
ByLayer
 62
  256
370
   -1
100
AcDbLine
 10
73.96250000000001
 20
-2.825
 11
73.96250000000001
 21
-16.225
  0
LINE
  5
59
100
AcDbEntity
  8
0
  6
ByLayer
 62
  256
370
   -1
100
AcDbLine
 10
87.96250000000001
 20
-2.825
 11
87.96250000000001
 21
-16.225
  0
ARC
  5
5A
100
AcDbEntity
  8
0
  6
ByLayer
 62
  256
370
   -1
100
AcDbCircle
 10
74.2625
 20
-2.825
 40
0.3
100
AcDbArc
 50
90
 51
180
  0
ARC
  5
5B
100
AcDbEntity
  8
0
  6
ByLayer
 62
  256
370
   -1
100
AcDbCircle
 10
87.66249999999999
 20
-2.825
 40
0.3
100
AcDbArc
 50
0
 51
90
  0
ARC
  5
5C
100
AcDbEntity
  8
0
  6
ByLayer
 62
  256
370
   -1
100
AcDbCircle
 10
74.2625
 20
-16.225
 40
0.3
100
AcDbArc
 50
180
 51
270
  0
ARC
  5
5D
100
AcDbEntity
  8
0
  6
ByLayer
 62
  256
370
   -1
100
AcDbCircle
 10
87.66249999999999
 20
-16.225
 40
0.3
100
AcDbArc
 50
270
 51
0
  0
LINE
  5
5E
100
AcDbEntity
  8
0
  6
ByLayer
 62
  256
370
   -1
100
AcDbLine
 10
198.0875
 20
-2.525
 11
211.4875
 21
-2.525
  0
LINE
  5
5F
100
AcDbEntity
  8
0
  6
ByLayer
 62
  256
370
   -1
100
AcDbLine
 10
198.0875
 20
-16.525
 11
211.4875
 21
-16.525
  0
LINE
  5
60
100
AcDbEntity
  8
0
  6
ByLayer
 62
  256
370
   -1
100
AcDbLine
 10
197.7875
 20
-2.825
 11
197.7875
 21
-16.225
  0
LINE
  5
61
100
AcDbEntity
  8
0
  6
ByLayer
 62
  256
370
   -1
100
AcDbLine
 10
211.7875
 20
-2.825
 11
211.7875
 21
-16.225
  0
ARC
  5
62
100
AcDbEntity
  8
0
  6
ByLayer
 62
  256
370
   -1
100
AcDbCircle
 10
198.0875
 20
-2.825
 40
0.3
100
AcDbArc
 50
90
 51
180
  0
ARC
  5
63
100
AcDbEntity
  8
0
  6
ByLayer
 62
  256
370
   -1
100
AcDbCircle
 10
211.4875
 20
-2.825
 40
0.3
100
AcDbArc
 50
0
 51
90
  0
ARC
  5
64
100
AcDbEntity
  8
0
  6
ByLayer
 62
  256
370
   -1
100
AcDbCircle
 10
198.0875
 20
-16.225
 40
0.3
100
AcDbArc
 50
180
 51
270
  0
ARC
  5
65
100
AcDbEntity
  8
0
  6
ByLayer
 62
  256
370
   -1
100
AcDbCircle
 10
211.4875
 20
-16.225
 40
0.3
100
AcDbArc
 50
270
 51
0
  0
LINE
  5
66
100
AcDbEntity
  8
0
  6
ByLayer
 62
  256
370
   -1
100
AcDbLine
 10
55.2125
 20
-5.3825
 11
68.6125
 21
-5.3825
  0
LINE
  5
67
100
AcDbEntity
  8
0
  6
ByLayer
 62
  256
370
   -1
100
AcDbLine
 10
55.2125
 20
-19.3825
 11
68.6125
 21
-19.3825
  0
LINE
  5
68
100
AcDbEntity
  8
0
  6
ByLayer
 62
  256
370
   -1
100
AcDbLine
 10
54.9125
 20
-5.6825
 11
54.9125
 21
-19.0825
  0
LINE
  5
69
100
AcDbEntity
  8
0
  6
ByLayer
 62
  256
370
   -1
100
AcDbLine
 10
68.91249999999999
 20
-5.6825
 11
68.91249999999999
 21
-19.0825
  0
ARC
  5
6A
100
AcDbEntity
  8
0
  6
ByLayer
 62
  256
370
   -1
100
AcDbCircle
 10
55.2125
 20
-5.6825
 40
0.3
100
AcDbArc
 50
90
 51
180
  0
ARC
  5
6B
100
AcDbEntity
  8
0
  6
ByLayer
 62
  256
370
   -1
100
AcDbCircle
 10
68.6125
 20
-5.6825
 40
0.3
100
AcDbArc
 50
0
 51
90
  0
ARC
  5
6C
100
AcDbEntity
  8
0
  6
ByLayer
 62
  256
370
   -1
100
AcDbCircle
 10
55.2125
 20
-19.0825
 40
0.3
100
AcDbArc
 50
180
 51
270
  0
ARC
  5
6D
100
AcDbEntity
  8
0
  6
ByLayer
 62
  256
370
   -1
100
AcDbCircle
 10
68.6125
 20
-19.0825
 40
0.3
100
AcDbArc
 50
270
 51
0
  0
LINE
  5
6E
100
AcDbEntity
  8
0
  6
ByLayer
 62
  256
370
   -1
100
AcDbLine
 10
93.3125
 20
-5.3825
 11
106.7125
 21
-5.3825
  0
LINE
  5
6F
100
AcDbEntity
  8
0
  6
ByLayer
 62
  256
370
   -1
100
AcDbLine
 10
93.3125
 20
-19.3825
 11
106.7125
 21
-19.3825
  0
LINE
  5
70
100
AcDbEntity
  8
0
  6
ByLayer
 62
  256
370
   -1
100
AcDbLine
 10
93.0125
 20
-5.6825
 11
93.0125
 21
-19.0825
  0
LINE
  5
71
100
AcDbEntity
  8
0
  6
ByLayer
 62
  256
370
   -1
100
AcDbLine
 10
107.0125
 20
-5.6825
 11
107.0125
 21
-19.0825
  0
ARC
  5
72
100
AcDbEntity
  8
0
  6
ByLayer
 62
  256
370
   -1
100
AcDbCircle
 10
93.3125
 20
-5.6825
 40
0.3
100
AcDbArc
 50
90
 51
180
  0
ARC
  5
73
100
AcDbEntity
  8
0
  6
ByLayer
 62
  256
370
   -1
100
AcDbCircle
 10
106.7125
 20
-5.6825
 40
0.3
100
AcDbArc
 50
0
 51
90
  0
ARC
  5
74
100
AcDbEntity
  8
0
  6
ByLayer
 62
  256
370
   -1
100
AcDbCircle
 10
93.3125
 20
-19.0825
 40
0.3
100
AcDbArc
 50
180
 51
270
  0
ARC
  5
75
100
AcDbEntity
  8
0
  6
ByLayer
 62
  256
370
   -1
100
AcDbCircle
 10
106.7125
 20
-19.0825
 40
0.3
100
AcDbArc
 50
270
 51
0
  0
LINE
  5
76
100
AcDbEntity
  8
0
  6
ByLayer
 62
  256
370
   -1
100
AcDbLine
 10
136.175
 20
-5.3825
 11
149.575
 21
-5.3825
  0
LINE
  5
77
100
AcDbEntity
  8
0
  6
ByLayer
 62
  256
370
   -1
100
AcDbLine
 10
136.175
 20
-19.3825
 11
149.575
 21
-19.3825
  0
LINE
  5
78
100
AcDbEntity
  8
0
  6
ByLayer
 62
  256
370
   -1
100
AcDbLine
 10
135.875
 20
-5.6825
 11
135.875
 21
-19.0825
  0
LINE
  5
79
100
AcDbEntity
  8
0
  6
ByLayer
 62
  256
370
   -1
100
AcDbLine
 10
149.875
 20
-5.6825
 11
149.875
 21
-19.0825
  0
ARC
  5
7A
100
AcDbEntity
  8
0
  6
ByLayer
 62
  256
370
   -1
100
AcDbCircle
 10
136.175
 20
-5.6825
 40
0.3
100
AcDbArc
 50
90
 51
180
  0
ARC
  5
7B
100
AcDbEntity
  8
0
  6
ByLayer
 62
  256
370
   -1
100
AcDbCircle
 10
149.575
 20
-5.6825
 40
0.3
100
AcDbArc
 50
0
 51
90
  0
ARC
  5
7C
100
AcDbEntity
  8
0
  6
ByLayer
 62
  256
370
   -1
100
AcDbCircle
 10
136.175
 20
-19.0825
 40
0.3
100
AcDbArc
 50
180
 51
270
  0
ARC
  5
7D
100
AcDbEntity
  8
0
  6
ByLayer
 62
  256
370
   -1
100
AcDbCircle
 10
149.575
 20
-19.0825
 40
0.3
100
AcDbArc
 50
270
 51
0
  0
LINE
  5
7E
100
AcDbEntity
  8
0
  6
ByLayer
 62
  256
370
   -1
100
AcDbLine
 10
179.0375
 20
-5.3825
 11
192.4375
 21
-5.3825
  0
LINE
  5
7F
100
AcDbEntity
  8
0
  6
ByLayer
 62
  256
370
   -1
100
AcDbLine
 10
179.0375
 20
-19.3825
 11
192.4375
 21
-19.3825
  0
LINE
  5
80
100
AcDbEntity
  8
0
  6
ByLayer
 62
  256
370
   -1
100
AcDbLine
 10
178.7375
 20
-5.6825
 11
178.7375
 21
-19.0825
  0
LINE
  5
81
100
AcDbEntity
  8
0
  6
ByLayer
 62
  256
370
   -1
100
AcDbLine
 10
192.7375
 20
-5.6825
 11
192.7375
 21
-19.0825
  0
ARC
  5
82
100
AcDbEntity
  8
0
  6
ByLayer
 62
  256
370
   -1
100
AcDbCircle
 10
179.0375
 20
-5.6825
 40
0.3
100
AcDbArc
 50
90
 51
180
  0
ARC
  5
83
100
AcDbEntity
  8
0
  6
ByLayer
 62
  256
370
   -1
100
AcDbCircle
 10
192.4375
 20
-5.6825
 40
0.3
100
AcDbArc
 50
0
 51
90
  0
ARC
  5
84
100
AcDbEntity
  8
0
  6
ByLayer
 62
  256
370
   -1
100
AcDbCircle
 10
179.0375
 20
-19.0825
 40
0.3
100
AcDbArc
 50
180
 51
270
  0
ARC
  5
85
100
AcDbEntity
  8
0
  6
ByLayer
 62
  256
370
   -1
100
AcDbCircle
 10
192.4375
 20
-19.0825
 40
0.3
100
AcDbArc
 50
270
 51
0
  0
LINE
  5
86
100
AcDbEntity
  8
0
  6
ByLayer
 62
  256
370
   -1
100
AcDbLine
 10
217.1375
 20
-5.3825
 11
230.5375
 21
-5.3825
  0
LINE
  5
87
100
AcDbEntity
  8
0
  6
ByLayer
 62
  256
370
   -1
100
AcDbLine
 10
217.1375
 20
-19.3825
 11
230.5375
 21
-19.3825
  0
LINE
  5
88
100
AcDbEntity
  8
0
  6
ByLayer
 62
  256
370
   -1
100
AcDbLine
 10
216.8375
 20
-5.6825
 11
216.8375
 21
-19.0825
  0
LINE
  5
89
100
AcDbEntity
  8
0
  6
ByLayer
 62
  256
370
   -1
100
AcDbLine
 10
230.8375
 20
-5.6825
 11
230.8375
 21
-19.0825
  0
ARC
  5
8A
100
AcDbEntity
  8
0
  6
ByLayer
 62
  256
370
   -1
100
AcDbCircle
 10
217.1375
 20
-5.6825
 40
0.3
100
AcDbArc
 50
90
 51
180
  0
ARC
  5
8B
100
AcDbEntity
  8
0
  6
ByLayer
 62
  256
370
   -1
100
AcDbCircle
 10
230.5375
 20
-5.6825
 40
0.3
100
AcDbArc
 50
0
 51
90
  0
ARC
  5
8C
100
AcDbEntity
  8
0
  6
ByLayer
 62
  256
370
   -1
100
AcDbCircle
 10
217.1375
 20
-19.0825
 40
0.3
100
AcDbArc
 50
180
 51
270
  0
ARC
  5
8D
100
AcDbEntity
  8
0
  6
ByLayer
 62
  256
370
   -1
100
AcDbCircle
 10
230.5375
 20
-19.0825
 40
0.3
100
AcDbArc
 50
270
 51
0
  0
LINE
  5
8E
100
AcDbEntity
  8
0
  6
ByLayer
 62
  256
370
   -1
100
AcDbLine
 10
17.1125
 20
-6.335
 11
30.5125
 21
-6.335
  0
LINE
  5
8F
100
AcDbEntity
  8
0
  6
ByLayer
 62
  256
370
   -1
100
AcDbLine
 10
17.1125
 20
-20.335
 11
30.5125
 21
-20.335
  0
LINE
  5
90
100
AcDbEntity
  8
0
  6
ByLayer
 62
  256
370
   -1
100
AcDbLine
 10
16.8125
 20
-6.635
 11
16.8125
 21
-20.035
  0
LINE
  5
91
100
AcDbEntity
  8
0
  6
ByLayer
 62
  256
370
   -1
100
AcDbLine
 10
30.8125
 20
-6.635
 11
30.8125
 21
-20.035
  0
ARC
  5
92
100
AcDbEntity
  8
0
  6
ByLayer
 62
  256
370
   -1
100
AcDbCircle
 10
17.1125
 20
-6.635
 40
0.3
100
AcDbArc
 50
90
 51
180
  0
ARC
  5
93
100
AcDbEntity
  8
0
  6
ByLayer
 62
  256
370
   -1
100
AcDbCircle
 10
30.5125
 20
-6.635
 40
0.3
100
AcDbArc
 50
0
 51
90
  0
ARC
  5
94
100
AcDbEntity
  8
0
  6
ByLayer
 62
  256
370
   -1
100
AcDbCircle
 10
17.1125
 20
-20.035
 40
0.3
100
AcDbArc
 50
180
 51
270
  0
ARC
  5
95
100
AcDbEntity
  8
0
  6
ByLayer
 62
  256
370
   -1
100
AcDbCircle
 10
30.5125
 20
-20.035
 40
0.3
100
AcDbArc
 50
270
 51
0
  0
LINE
  5
96
100
AcDbEntity
  8
0
  6
ByLayer
 62
  256
370
   -1
100
AcDbLine
 10
255.2375
 20
-6.335
 11
268.6375
 21
-6.335
  0
LINE
  5
97
100
AcDbEntity
  8
0
  6
ByLayer
 62
  256
370
   -1
100
AcDbLine
 10
255.2375
 20
-20.335
 11
268.6375
 21
-20.335
  0
LINE
  5
98
100
AcDbEntity
  8
0
  6
ByLayer
 62
  256
370
   -1
100
AcDbLine
 10
254.9375
 20
-6.635
 11
254.9375
 21
-20.035
  0
LINE
  5
99
100
AcDbEntity
  8
0
  6
ByLayer
 62
  256
370
   -1
100
AcDbLine
 10
268.9375
 20
-6.635
 11
268.9375
 21
-20.035
  0
ARC
  5
9A
100
AcDbEntity
  8
0
  6
ByLayer
 62
  256
370
   -1
100
AcDbCircle
 10
255.2375
 20
-6.635
 40
0.3
100
AcDbArc
 50
90
 51
180
  0
ARC
  5
9B
100
AcDbEntity
  8
0
  6
ByLayer
 62
  256
370
   -1
100
AcDbCircle
 10
268.6375
 20
-6.635
 40
0.3
100
AcDbArc
 50
0
 51
90
  0
ARC
  5
9C
100
AcDbEntity
  8
0
  6
ByLayer
 62
  256
370
   -1
100
AcDbCircle
 10
255.2375
 20
-20.035
 40
0.3
100
AcDbArc
 50
180
 51
270
  0
ARC
  5
9D
100
AcDbEntity
  8
0
  6
ByLayer
 62
  256
370
   -1
100
AcDbCircle
 10
268.6375
 20
-20.035
 40
0.3
100
AcDbArc
 50
270
 51
0
  0
LINE
  5
9E
100
AcDbEntity
  8
0
  6
ByLayer
 62
  256
370
   -1
100
AcDbLine
 10
112.3625
 20
-7.2875
 11
125.7625
 21
-7.2875
  0
LINE
  5
9F
100
AcDbEntity
  8
0
  6
ByLayer
 62
  256
370
   -1
100
AcDbLine
 10
112.3625
 20
-21.2875
 11
125.7625
 21
-21.2875
  0
LINE
  5
A0
100
AcDbEntity
  8
0
  6
ByLayer
 62
  256
370
   -1
100
AcDbLine
 10
112.0625
 20
-7.5875
 11
112.0625
 21
-20.9875
  0
LINE
  5
A1
100
AcDbEntity
  8
0
  6
ByLayer
 62
  256
370
   -1
100
AcDbLine
 10
126.0625
 20
-7.5875
 11
126.0625
 21
-20.9875
  0
ARC
  5
A2
100
AcDbEntity
  8
0
  6
ByLayer
 62
  256
370
   -1
100
AcDbCircle
 10
112.3625
 20
-7.5875
 40
0.3
100
AcDbArc
 50
90
 51
180
  0
ARC
  5
A3
100
AcDbEntity
  8
0
  6
ByLayer
 62
  256
370
   -1
100
AcDbCircle
 10
125.7625
 20
-7.5875
 40
0.3
100
AcDbArc
 50
0
 51
90
  0
ARC
  5
A4
100
AcDbEntity
  8
0
  6
ByLayer
 62
  256
370
   -1
100
AcDbCircle
 10
112.3625
 20
-20.9875
 40
0.3
100
AcDbArc
 50
180
 51
270
  0
ARC
  5
A5
100
AcDbEntity
  8
0
  6
ByLayer
 62
  256
370
   -1
100
AcDbCircle
 10
125.7625
 20
-20.9875
 40
0.3
100
AcDbArc
 50
270
 51
0
  0
LINE
  5
A6
100
AcDbEntity
  8
0
  6
ByLayer
 62
  256
370
   -1
100
AcDbLine
 10
159.9875
 20
-7.2875
 11
173.3875
 21
-7.2875
  0
LINE
  5
A7
100
AcDbEntity
  8
0
  6
ByLayer
 62
  256
370
   -1
100
AcDbLine
 10
159.9875
 20
-21.2875
 11
173.3875
 21
-21.2875
  0
LINE
  5
A8
100
AcDbEntity
  8
0
  6
ByLayer
 62
  256
370
   -1
100
AcDbLine
 10
159.6875
 20
-7.5875
 11
159.6875
 21
-20.9875
  0
LINE
  5
A9
100
AcDbEntity
  8
0
  6
ByLayer
 62
  256
370
   -1
100
AcDbLine
 10
173.6875
 20
-7.5875
 11
173.6875
 21
-20.9875
  0
ARC
  5
AA
100
AcDbEntity
  8
0
  6
ByLayer
 62
  256
370
   -1
100
AcDbCircle
 10
159.9875
 20
-7.5875
 40
0.3
100
AcDbArc
 50
90
 51
180
  0
ARC
  5
AB
100
AcDbEntity
  8
0
  6
ByLayer
 62
  256
370
   -1
100
AcDbCircle
 10
173.3875
 20
-7.5875
 40
0.3
100
AcDbArc
 50
0
 51
90
  0
ARC
  5
AC
100
AcDbEntity
  8
0
  6
ByLayer
 62
  256
370
   -1
100
AcDbCircle
 10
159.9875
 20
-20.9875
 40
0.3
100
AcDbArc
 50
180
 51
270
  0
ARC
  5
AD
100
AcDbEntity
  8
0
  6
ByLayer
 62
  256
370
   -1
100
AcDbCircle
 10
173.3875
 20
-20.9875
 40
0.3
100
AcDbArc
 50
270
 51
0
  0
LINE
  5
AE
100
AcDbEntity
  8
0
  6
ByLayer
 62
  256
370
   -1
100
AcDbLine
 10
36.1625
 20
-8.24
 11
49.5625
 21
-8.24
  0
LINE
  5
AF
100
AcDbEntity
  8
0
  6
ByLayer
 62
  256
370
   -1
100
AcDbLine
 10
36.1625
 20
-22.24
 11
49.5625
 21
-22.24
  0
LINE
  5
B0
100
AcDbEntity
  8
0
  6
ByLayer
 62
  256
370
   -1
100
AcDbLine
 10
35.8625
 20
-8.539999999999999
 11
35.8625
 21
-21.94
  0
LINE
  5
B1
100
AcDbEntity
  8
0
  6
ByLayer
 62
  256
370
   -1
100
AcDbLine
 10
49.8625
 20
-8.539999999999999
 11
49.8625
 21
-21.94
  0
ARC
  5
B2
100
AcDbEntity
  8
0
  6
ByLayer
 62
  256
370
   -1
100
AcDbCircle
 10
36.1625
 20
-8.539999999999999
 40
0.3
100
AcDbArc
 50
90
 51
180
  0
ARC
  5
B3
100
AcDbEntity
  8
0
  6
ByLayer
 62
  256
370
   -1
100
AcDbCircle
 10
49.5625
 20
-8.539999999999999
 40
0.3
100
AcDbArc
 50
0
 51
90
  0
ARC
  5
B4
100
AcDbEntity
  8
0
  6
ByLayer
 62
  256
370
   -1
100
AcDbCircle
 10
36.1625
 20
-21.94
 40
0.3
100
AcDbArc
 50
180
 51
270
  0
ARC
  5
B5
100
AcDbEntity
  8
0
  6
ByLayer
 62
  256
370
   -1
100
AcDbCircle
 10
49.5625
 20
-21.94
 40
0.3
100
AcDbArc
 50
270
 51
0
  0
LINE
  5
B6
100
AcDbEntity
  8
0
  6
ByLayer
 62
  256
370
   -1
100
AcDbLine
 10
236.1875
 20
-8.24
 11
249.5875
 21
-8.24
  0
LINE
  5
B7
100
AcDbEntity
  8
0
  6
ByLayer
 62
  256
370
   -1
100
AcDbLine
 10
236.1875
 20
-22.24
 11
249.5875
 21
-22.24
  0
LINE
  5
B8
100
AcDbEntity
  8
0
  6
ByLayer
 62
  256
370
   -1
100
AcDbLine
 10
235.8875
 20
-8.539999999999999
 11
235.8875
 21
-21.94
  0
LINE
  5
B9
100
AcDbEntity
  8
0
  6
ByLayer
 62
  256
370
   -1
100
AcDbLine
 10
249.8875
 20
-8.539999999999999
 11
249.8875
 21
-21.94
  0
ARC
  5
BA
100
AcDbEntity
  8
0
  6
ByLayer
 62
  256
370
   -1
100
AcDbCircle
 10
236.1875
 20
-8.539999999999999
 40
0.3
100
AcDbArc
 50
90
 51
180
  0
ARC
  5
BB
100
AcDbEntity
  8
0
  6
ByLayer
 62
  256
370
   -1
100
AcDbCircle
 10
249.5875
 20
-8.539999999999999
 40
0.3
100
AcDbArc
 50
0
 51
90
  0
ARC
  5
BC
100
AcDbEntity
  8
0
  6
ByLayer
 62
  256
370
   -1
100
AcDbCircle
 10
236.1875
 20
-21.94
 40
0.3
100
AcDbArc
 50
180
 51
270
  0
ARC
  5
BD
100
AcDbEntity
  8
0
  6
ByLayer
 62
  256
370
   -1
100
AcDbCircle
 10
249.5875
 20
-21.94
 40
0.3
100
AcDbArc
 50
270
 51
0
  0
LINE
  5
BE
100
AcDbEntity
  8
0
  6
ByLayer
 62
  256
370
   -1
100
AcDbLine
 10
74.2625
 20
-21.575
 11
87.66249999999999
 21
-21.575
  0
LINE
  5
BF
100
AcDbEntity
  8
0
  6
ByLayer
 62
  256
370
   -1
100
AcDbLine
 10
74.2625
 20
-35.575
 11
87.66249999999999
 21
-35.575
  0
LINE
  5
C0
100
AcDbEntity
  8
0
  6
ByLayer
 62
  256
370
   -1
100
AcDbLine
 10
73.96250000000001
 20
-21.875
 11
73.96250000000001
 21
-35.275
  0
LINE
  5
C1
100
AcDbEntity
  8
0
  6
ByLayer
 62
  256
370
   -1
100
AcDbLine
 10
87.96250000000001
 20
-21.875
 11
87.96250000000001
 21
-35.275
  0
ARC
  5
C2
100
AcDbEntity
  8
0
  6
ByLayer
 62
  256
370
   -1
100
AcDbCircle
 10
74.2625
 20
-21.875
 40
0.3
100
AcDbArc
 50
90
 51
180
  0
ARC
  5
C3
100
AcDbEntity
  8
0
  6
ByLayer
 62
  256
370
   -1
100
AcDbCircle
 10
87.66249999999999
 20
-21.875
 40
0.3
100
AcDbArc
 50
0
 51
90
  0
ARC
  5
C4
100
AcDbEntity
  8
0
  6
ByLayer
 62
  256
370
   -1
100
AcDbCircle
 10
74.2625
 20
-35.275
 40
0.3
100
AcDbArc
 50
180
 51
270
  0
ARC
  5
C5
100
AcDbEntity
  8
0
  6
ByLayer
 62
  256
370
   -1
100
AcDbCircle
 10
87.66249999999999
 20
-35.275
 40
0.3
100
AcDbArc
 50
270
 51
0
  0
LINE
  5
C6
100
AcDbEntity
  8
0
  6
ByLayer
 62
  256
370
   -1
100
AcDbLine
 10
198.0875
 20
-21.575
 11
211.4875
 21
-21.575
  0
LINE
  5
C7
100
AcDbEntity
  8
0
  6
ByLayer
 62
  256
370
   -1
100
AcDbLine
 10
198.0875
 20
-35.575
 11
211.4875
 21
-35.575
  0
LINE
  5
C8
100
AcDbEntity
  8
0
  6
ByLayer
 62
  256
370
   -1
100
AcDbLine
 10
197.7875
 20
-21.875
 11
197.7875
 21
-35.275
  0
LINE
  5
C9
100
AcDbEntity
  8
0
  6
ByLayer
 62
  256
370
   -1
100
AcDbLine
 10
211.7875
 20
-21.875
 11
211.7875
 21
-35.275
  0
ARC
  5
CA
100
AcDbEntity
  8
0
  6
ByLayer
 62
  256
370
   -1
100
AcDbCircle
 10
198.0875
 20
-21.875
 40
0.3
100
AcDbArc
 50
90
 51
180
  0
ARC
  5
CB
100
AcDbEntity
  8
0
  6
ByLayer
 62
  256
370
   -1
100
AcDbCircle
 10
211.4875
 20
-21.875
 40
0.3
100
AcDbArc
 50
0
 51
90
  0
ARC
  5
CC
100
AcDbEntity
  8
0
  6
ByLayer
 62
  256
370
   -1
100
AcDbCircle
 10
198.0875
 20
-35.275
 40
0.3
100
AcDbArc
 50
180
 51
270
  0
ARC
  5
CD
100
AcDbEntity
  8
0
  6
ByLayer
 62
  256
370
   -1
100
AcDbCircle
 10
211.4875
 20
-35.275
 40
0.3
100
AcDbArc
 50
270
 51
0
  0
LINE
  5
CE
100
AcDbEntity
  8
0
  6
ByLayer
 62
  256
370
   -1
100
AcDbLine
 10
55.2125
 20
-24.4325
 11
68.6125
 21
-24.4325
  0
LINE
  5
CF
100
AcDbEntity
  8
0
  6
ByLayer
 62
  256
370
   -1
100
AcDbLine
 10
55.2125
 20
-38.4325
 11
68.6125
 21
-38.4325
  0
LINE
  5
D0
100
AcDbEntity
  8
0
  6
ByLayer
 62
  256
370
   -1
100
AcDbLine
 10
54.9125
 20
-24.7325
 11
54.9125
 21
-38.1325
  0
LINE
  5
D1
100
AcDbEntity
  8
0
  6
ByLayer
 62
  256
370
   -1
100
AcDbLine
 10
68.91249999999999
 20
-24.7325
 11
68.91249999999999
 21
-38.1325
  0
ARC
  5
D2
100
AcDbEntity
  8
0
  6
ByLayer
 62
  256
370
   -1
100
AcDbCircle
 10
55.2125
 20
-24.7325
 40
0.3
100
AcDbArc
 50
90
 51
180
  0
ARC
  5
D3
100
AcDbEntity
  8
0
  6
ByLayer
 62
  256
370
   -1
100
AcDbCircle
 10
68.6125
 20
-24.7325
 40
0.3
100
AcDbArc
 50
0
 51
90
  0
ARC
  5
D4
100
AcDbEntity
  8
0
  6
ByLayer
 62
  256
370
   -1
100
AcDbCircle
 10
55.2125
 20
-38.1325
 40
0.3
100
AcDbArc
 50
180
 51
270
  0
ARC
  5
D5
100
AcDbEntity
  8
0
  6
ByLayer
 62
  256
370
   -1
100
AcDbCircle
 10
68.6125
 20
-38.1325
 40
0.3
100
AcDbArc
 50
270
 51
0
  0
LINE
  5
D6
100
AcDbEntity
  8
0
  6
ByLayer
 62
  256
370
   -1
100
AcDbLine
 10
93.3125
 20
-24.4325
 11
106.7125
 21
-24.4325
  0
LINE
  5
D7
100
AcDbEntity
  8
0
  6
ByLayer
 62
  256
370
   -1
100
AcDbLine
 10
93.3125
 20
-38.4325
 11
106.7125
 21
-38.4325
  0
LINE
  5
D8
100
AcDbEntity
  8
0
  6
ByLayer
 62
  256
370
   -1
100
AcDbLine
 10
93.0125
 20
-24.7325
 11
93.0125
 21
-38.1325
  0
LINE
  5
D9
100
AcDbEntity
  8
0
  6
ByLayer
 62
  256
370
   -1
100
AcDbLine
 10
107.0125
 20
-24.7325
 11
107.0125
 21
-38.1325
  0
ARC
  5
DA
100
AcDbEntity
  8
0
  6
ByLayer
 62
  256
370
   -1
100
AcDbCircle
 10
93.3125
 20
-24.7325
 40
0.3
100
AcDbArc
 50
90
 51
180
  0
ARC
  5
DB
100
AcDbEntity
  8
0
  6
ByLayer
 62
  256
370
   -1
100
AcDbCircle
 10
106.7125
 20
-24.7325
 40
0.3
100
AcDbArc
 50
0
 51
90
  0
ARC
  5
DC
100
AcDbEntity
  8
0
  6
ByLayer
 62
  256
370
   -1
100
AcDbCircle
 10
93.3125
 20
-38.1325
 40
0.3
100
AcDbArc
 50
180
 51
270
  0
ARC
  5
DD
100
AcDbEntity
  8
0
  6
ByLayer
 62
  256
370
   -1
100
AcDbCircle
 10
106.7125
 20
-38.1325
 40
0.3
100
AcDbArc
 50
270
 51
0
  0
LINE
  5
DE
100
AcDbEntity
  8
0
  6
ByLayer
 62
  256
370
   -1
100
AcDbLine
 10
136.175
 20
-24.4325
 11
149.575
 21
-24.4325
  0
LINE
  5
DF
100
AcDbEntity
  8
0
  6
ByLayer
 62
  256
370
   -1
100
AcDbLine
 10
136.175
 20
-38.4325
 11
149.575
 21
-38.4325
  0
LINE
  5
E0
100
AcDbEntity
  8
0
  6
ByLayer
 62
  256
370
   -1
100
AcDbLine
 10
135.875
 20
-24.7325
 11
135.875
 21
-38.1325
  0
LINE
  5
E1
100
AcDbEntity
  8
0
  6
ByLayer
 62
  256
370
   -1
100
AcDbLine
 10
149.875
 20
-24.7325
 11
149.875
 21
-38.1325
  0
ARC
  5
E2
100
AcDbEntity
  8
0
  6
ByLayer
 62
  256
370
   -1
100
AcDbCircle
 10
136.175
 20
-24.7325
 40
0.3
100
AcDbArc
 50
90
 51
180
  0
ARC
  5
E3
100
AcDbEntity
  8
0
  6
ByLayer
 62
  256
370
   -1
100
AcDbCircle
 10
149.575
 20
-24.7325
 40
0.3
100
AcDbArc
 50
0
 51
90
  0
ARC
  5
E4
100
AcDbEntity
  8
0
  6
ByLayer
 62
  256
370
   -1
100
AcDbCircle
 10
136.175
 20
-38.1325
 40
0.3
100
AcDbArc
 50
180
 51
270
  0
ARC
  5
E5
100
AcDbEntity
  8
0
  6
ByLayer
 62
  256
370
   -1
100
AcDbCircle
 10
149.575
 20
-38.1325
 40
0.3
100
AcDbArc
 50
270
 51
0
  0
LINE
  5
E6
100
AcDbEntity
  8
0
  6
ByLayer
 62
  256
370
   -1
100
AcDbLine
 10
179.0375
 20
-24.4325
 11
192.4375
 21
-24.4325
  0
LINE
  5
E7
100
AcDbEntity
  8
0
  6
ByLayer
 62
  256
370
   -1
100
AcDbLine
 10
179.0375
 20
-38.4325
 11
192.4375
 21
-38.4325
  0
LINE
  5
E8
100
AcDbEntity
  8
0
  6
ByLayer
 62
  256
370
   -1
100
AcDbLine
 10
178.7375
 20
-24.7325
 11
178.7375
 21
-38.1325
  0
LINE
  5
E9
100
AcDbEntity
  8
0
  6
ByLayer
 62
  256
370
   -1
100
AcDbLine
 10
192.7375
 20
-24.7325
 11
192.7375
 21
-38.1325
  0
ARC
  5
EA
100
AcDbEntity
  8
0
  6
ByLayer
 62
  256
370
   -1
100
AcDbCircle
 10
179.0375
 20
-24.7325
 40
0.3
100
AcDbArc
 50
90
 51
180
  0
ARC
  5
EB
100
AcDbEntity
  8
0
  6
ByLayer
 62
  256
370
   -1
100
AcDbCircle
 10
192.4375
 20
-24.7325
 40
0.3
100
AcDbArc
 50
0
 51
90
  0
ARC
  5
EC
100
AcDbEntity
  8
0
  6
ByLayer
 62
  256
370
   -1
100
AcDbCircle
 10
179.0375
 20
-38.1325
 40
0.3
100
AcDbArc
 50
180
 51
270
  0
ARC
  5
ED
100
AcDbEntity
  8
0
  6
ByLayer
 62
  256
370
   -1
100
AcDbCircle
 10
192.4375
 20
-38.1325
 40
0.3
100
AcDbArc
 50
270
 51
0
  0
LINE
  5
EE
100
AcDbEntity
  8
0
  6
ByLayer
 62
  256
370
   -1
100
AcDbLine
 10
217.1375
 20
-24.4325
 11
230.5375
 21
-24.4325
  0
LINE
  5
EF
100
AcDbEntity
  8
0
  6
ByLayer
 62
  256
370
   -1
100
AcDbLine
 10
217.1375
 20
-38.4325
 11
230.5375
 21
-38.4325
  0
LINE
  5
F0
100
AcDbEntity
  8
0
  6
ByLayer
 62
  256
370
   -1
100
AcDbLine
 10
216.8375
 20
-24.7325
 11
216.8375
 21
-38.1325
  0
LINE
  5
F1
100
AcDbEntity
  8
0
  6
ByLayer
 62
  256
370
   -1
100
AcDbLine
 10
230.8375
 20
-24.7325
 11
230.8375
 21
-38.1325
  0
ARC
  5
F2
100
AcDbEntity
  8
0
  6
ByLayer
 62
  256
370
   -1
100
AcDbCircle
 10
217.1375
 20
-24.7325
 40
0.3
100
AcDbArc
 50
90
 51
180
  0
ARC
  5
F3
100
AcDbEntity
  8
0
  6
ByLayer
 62
  256
370
   -1
100
AcDbCircle
 10
230.5375
 20
-24.7325
 40
0.3
100
AcDbArc
 50
0
 51
90
  0
ARC
  5
F4
100
AcDbEntity
  8
0
  6
ByLayer
 62
  256
370
   -1
100
AcDbCircle
 10
217.1375
 20
-38.1325
 40
0.3
100
AcDbArc
 50
180
 51
270
  0
ARC
  5
F5
100
AcDbEntity
  8
0
  6
ByLayer
 62
  256
370
   -1
100
AcDbCircle
 10
230.5375
 20
-38.1325
 40
0.3
100
AcDbArc
 50
270
 51
0
  0
LINE
  5
F6
100
AcDbEntity
  8
0
  6
ByLayer
 62
  256
370
   -1
100
AcDbLine
 10
12.35
 20
-25.385
 11
25.75
 21
-25.385
  0
LINE
  5
F7
100
AcDbEntity
  8
0
  6
ByLayer
 62
  256
370
   -1
100
AcDbLine
 10
12.35
 20
-39.385
 11
25.75
 21
-39.385
  0
LINE
  5
F8
100
AcDbEntity
  8
0
  6
ByLayer
 62
  256
370
   -1
100
AcDbLine
 10
12.05
 20
-25.685
 11
12.05
 21
-39.085
  0
LINE
  5
F9
100
AcDbEntity
  8
0
  6
ByLayer
 62
  256
370
   -1
100
AcDbLine
 10
26.05
 20
-25.685
 11
26.05
 21
-39.085
  0
ARC
  5
FA
100
AcDbEntity
  8
0
  6
ByLayer
 62
  256
370
   -1
100
AcDbCircle
 10
12.35
 20
-25.685
 40
0.3
100
AcDbArc
 50
90
 51
180
  0
ARC
  5
FB
100
AcDbEntity
  8
0
  6
ByLayer
 62
  256
370
   -1
100
AcDbCircle
 10
25.75
 20
-25.685
 40
0.3
100
AcDbArc
 50
0
 51
90
  0
ARC
  5
FC
100
AcDbEntity
  8
0
  6
ByLayer
 62
  256
370
   -1
100
AcDbCircle
 10
12.35
 20
-39.085
 40
0.3
100
AcDbArc
 50
180
 51
270
  0
ARC
  5
FD
100
AcDbEntity
  8
0
  6
ByLayer
 62
  256
370
   -1
100
AcDbCircle
 10
25.75
 20
-39.085
 40
0.3
100
AcDbArc
 50
270
 51
0
  0
LINE
  5
FE
100
AcDbEntity
  8
0
  6
ByLayer
 62
  256
370
   -1
100
AcDbLine
 10
260
 20
-25.385
 11
273.4
 21
-25.385
  0
LINE
  5
FF
100
AcDbEntity
  8
0
  6
ByLayer
 62
  256
370
   -1
100
AcDbLine
 10
260
 20
-39.385
 11
273.4
 21
-39.385
  0
LINE
  5
100
100
AcDbEntity
  8
0
  6
ByLayer
 62
  256
370
   -1
100
AcDbLine
 10
259.7
 20
-25.685
 11
259.7
 21
-39.085
  0
LINE
  5
101
100
AcDbEntity
  8
0
  6
ByLayer
 62
  256
370
   -1
100
AcDbLine
 10
273.7
 20
-25.685
 11
273.7
 21
-39.085
  0
ARC
  5
102
100
AcDbEntity
  8
0
  6
ByLayer
 62
  256
370
   -1
100
AcDbCircle
 10
260
 20
-25.685
 40
0.3
100
AcDbArc
 50
90
 51
180
  0
ARC
  5
103
100
AcDbEntity
  8
0
  6
ByLayer
 62
  256
370
   -1
100
AcDbCircle
 10
273.4
 20
-25.685
 40
0.3
100
AcDbArc
 50
0
 51
90
  0
ARC
  5
104
100
AcDbEntity
  8
0
  6
ByLayer
 62
  256
370
   -1
100
AcDbCircle
 10
260
 20
-39.085
 40
0.3
100
AcDbArc
 50
180
 51
270
  0
ARC
  5
105
100
AcDbEntity
  8
0
  6
ByLayer
 62
  256
370
   -1
100
AcDbCircle
 10
273.4
 20
-39.085
 40
0.3
100
AcDbArc
 50
270
 51
0
  0
LINE
  5
106
100
AcDbEntity
  8
0
  6
ByLayer
 62
  256
370
   -1
100
AcDbLine
 10
112.3625
 20
-26.3375
 11
125.7625
 21
-26.3375
  0
LINE
  5
107
100
AcDbEntity
  8
0
  6
ByLayer
 62
  256
370
   -1
100
AcDbLine
 10
112.3625
 20
-40.3375
 11
125.7625
 21
-40.3375
  0
LINE
  5
108
100
AcDbEntity
  8
0
  6
ByLayer
 62
  256
370
   -1
100
AcDbLine
 10
112.0625
 20
-26.6375
 11
112.0625
 21
-40.0375
  0
LINE
  5
109
100
AcDbEntity
  8
0
  6
ByLayer
 62
  256
370
   -1
100
AcDbLine
 10
126.0625
 20
-26.6375
 11
126.0625
 21
-40.0375
  0
ARC
  5
10A
100
AcDbEntity
  8
0
  6
ByLayer
 62
  256
370
   -1
100
AcDbCircle
 10
112.3625
 20
-26.6375
 40
0.3
100
AcDbArc
 50
90
 51
180
  0
ARC
  5
10B
100
AcDbEntity
  8
0
  6
ByLayer
 62
  256
370
   -1
100
AcDbCircle
 10
125.7625
 20
-26.6375
 40
0.3
100
AcDbArc
 50
0
 51
90
  0
ARC
  5
10C
100
AcDbEntity
  8
0
  6
ByLayer
 62
  256
370
   -1
100
AcDbCircle
 10
112.3625
 20
-40.0375
 40
0.3
100
AcDbArc
 50
180
 51
270
  0
ARC
  5
10D
100
AcDbEntity
  8
0
  6
ByLayer
 62
  256
370
   -1
100
AcDbCircle
 10
125.7625
 20
-40.0375
 40
0.3
100
AcDbArc
 50
270
 51
0
  0
LINE
  5
10E
100
AcDbEntity
  8
0
  6
ByLayer
 62
  256
370
   -1
100
AcDbLine
 10
159.9875
 20
-26.3375
 11
173.3875
 21
-26.3375
  0
LINE
  5
10F
100
AcDbEntity
  8
0
  6
ByLayer
 62
  256
370
   -1
100
AcDbLine
 10
159.9875
 20
-40.3375
 11
173.3875
 21
-40.3375
  0
LINE
  5
110
100
AcDbEntity
  8
0
  6
ByLayer
 62
  256
370
   -1
100
AcDbLine
 10
159.6875
 20
-26.6375
 11
159.6875
 21
-40.0375
  0
LINE
  5
111
100
AcDbEntity
  8
0
  6
ByLayer
 62
  256
370
   -1
100
AcDbLine
 10
173.6875
 20
-26.6375
 11
173.6875
 21
-40.0375
  0
ARC
  5
112
100
AcDbEntity
  8
0
  6
ByLayer
 62
  256
370
   -1
100
AcDbCircle
 10
159.9875
 20
-26.6375
 40
0.3
100
AcDbArc
 50
90
 51
180
  0
ARC
  5
113
100
AcDbEntity
  8
0
  6
ByLayer
 62
  256
370
   -1
100
AcDbCircle
 10
173.3875
 20
-26.6375
 40
0.3
100
AcDbArc
 50
0
 51
90
  0
ARC
  5
114
100
AcDbEntity
  8
0
  6
ByLayer
 62
  256
370
   -1
100
AcDbCircle
 10
159.9875
 20
-40.0375
 40
0.3
100
AcDbArc
 50
180
 51
270
  0
ARC
  5
115
100
AcDbEntity
  8
0
  6
ByLayer
 62
  256
370
   -1
100
AcDbCircle
 10
173.3875
 20
-40.0375
 40
0.3
100
AcDbArc
 50
270
 51
0
  0
LINE
  5
116
100
AcDbEntity
  8
0
  6
ByLayer
 62
  256
370
   -1
100
AcDbLine
 10
36.1625
 20
-27.29
 11
49.5625
 21
-27.29
  0
LINE
  5
117
100
AcDbEntity
  8
0
  6
ByLayer
 62
  256
370
   -1
100
AcDbLine
 10
36.1625
 20
-41.29
 11
49.5625
 21
-41.29
  0
LINE
  5
118
100
AcDbEntity
  8
0
  6
ByLayer
 62
  256
370
   -1
100
AcDbLine
 10
35.8625
 20
-27.59
 11
35.8625
 21
-40.99
  0
LINE
  5
119
100
AcDbEntity
  8
0
  6
ByLayer
 62
  256
370
   -1
100
AcDbLine
 10
49.8625
 20
-27.59
 11
49.8625
 21
-40.99
  0
ARC
  5
11A
100
AcDbEntity
  8
0
  6
ByLayer
 62
  256
370
   -1
100
AcDbCircle
 10
36.1625
 20
-27.59
 40
0.3
100
AcDbArc
 50
90
 51
180
  0
ARC
  5
11B
100
AcDbEntity
  8
0
  6
ByLayer
 62
  256
370
   -1
100
AcDbCircle
 10
49.5625
 20
-27.59
 40
0.3
100
AcDbArc
 50
0
 51
90
  0
ARC
  5
11C
100
AcDbEntity
  8
0
  6
ByLayer
 62
  256
370
   -1
100
AcDbCircle
 10
36.1625
 20
-40.99
 40
0.3
100
AcDbArc
 50
180
 51
270
  0
ARC
  5
11D
100
AcDbEntity
  8
0
  6
ByLayer
 62
  256
370
   -1
100
AcDbCircle
 10
49.5625
 20
-40.99
 40
0.3
100
AcDbArc
 50
270
 51
0
  0
LINE
  5
11E
100
AcDbEntity
  8
0
  6
ByLayer
 62
  256
370
   -1
100
AcDbLine
 10
236.1875
 20
-27.29
 11
249.5875
 21
-27.29
  0
LINE
  5
11F
100
AcDbEntity
  8
0
  6
ByLayer
 62
  256
370
   -1
100
AcDbLine
 10
236.1875
 20
-41.29
 11
249.5875
 21
-41.29
  0
LINE
  5
120
100
AcDbEntity
  8
0
  6
ByLayer
 62
  256
370
   -1
100
AcDbLine
 10
235.8875
 20
-27.59
 11
235.8875
 21
-40.99
  0
LINE
  5
121
100
AcDbEntity
  8
0
  6
ByLayer
 62
  256
370
   -1
100
AcDbLine
 10
249.8875
 20
-27.59
 11
249.8875
 21
-40.99
  0
ARC
  5
122
100
AcDbEntity
  8
0
  6
ByLayer
 62
  256
370
   -1
100
AcDbCircle
 10
236.1875
 20
-27.59
 40
0.3
100
AcDbArc
 50
90
 51
180
  0
ARC
  5
123
100
AcDbEntity
  8
0
  6
ByLayer
 62
  256
370
   -1
100
AcDbCircle
 10
249.5875
 20
-27.59
 40
0.3
100
AcDbArc
 50
0
 51
90
  0
ARC
  5
124
100
AcDbEntity
  8
0
  6
ByLayer
 62
  256
370
   -1
100
AcDbCircle
 10
236.1875
 20
-40.99
 40
0.3
100
AcDbArc
 50
180
 51
270
  0
ARC
  5
125
100
AcDbEntity
  8
0
  6
ByLayer
 62
  256
370
   -1
100
AcDbCircle
 10
249.5875
 20
-40.99
 40
0.3
100
AcDbArc
 50
270
 51
0
  0
LINE
  5
126
100
AcDbEntity
  8
0
  6
ByLayer
 62
  256
370
   -1
100
AcDbLine
 10
74.2625
 20
-40.625
 11
87.66249999999999
 21
-40.625
  0
LINE
  5
127
100
AcDbEntity
  8
0
  6
ByLayer
 62
  256
370
   -1
100
AcDbLine
 10
74.2625
 20
-54.625
 11
87.66249999999999
 21
-54.625
  0
LINE
  5
128
100
AcDbEntity
  8
0
  6
ByLayer
 62
  256
370
   -1
100
AcDbLine
 10
73.96250000000001
 20
-40.925
 11
73.96250000000001
 21
-54.325
  0
LINE
  5
129
100
AcDbEntity
  8
0
  6
ByLayer
 62
  256
370
   -1
100
AcDbLine
 10
87.96250000000001
 20
-40.925
 11
87.96250000000001
 21
-54.325
  0
ARC
  5
12A
100
AcDbEntity
  8
0
  6
ByLayer
 62
  256
370
   -1
100
AcDbCircle
 10
74.2625
 20
-40.925
 40
0.3
100
AcDbArc
 50
90
 51
180
  0
ARC
  5
12B
100
AcDbEntity
  8
0
  6
ByLayer
 62
  256
370
   -1
100
AcDbCircle
 10
87.66249999999999
 20
-40.925
 40
0.3
100
AcDbArc
 50
0
 51
90
  0
ARC
  5
12C
100
AcDbEntity
  8
0
  6
ByLayer
 62
  256
370
   -1
100
AcDbCircle
 10
74.2625
 20
-54.325
 40
0.3
100
AcDbArc
 50
180
 51
270
  0
ARC
  5
12D
100
AcDbEntity
  8
0
  6
ByLayer
 62
  256
370
   -1
100
AcDbCircle
 10
87.66249999999999
 20
-54.325
 40
0.3
100
AcDbArc
 50
270
 51
0
  0
LINE
  5
12E
100
AcDbEntity
  8
0
  6
ByLayer
 62
  256
370
   -1
100
AcDbLine
 10
198.0875
 20
-40.625
 11
211.4875
 21
-40.625
  0
LINE
  5
12F
100
AcDbEntity
  8
0
  6
ByLayer
 62
  256
370
   -1
100
AcDbLine
 10
198.0875
 20
-54.625
 11
211.4875
 21
-54.625
  0
LINE
  5
130
100
AcDbEntity
  8
0
  6
ByLayer
 62
  256
370
   -1
100
AcDbLine
 10
197.7875
 20
-40.925
 11
197.7875
 21
-54.325
  0
LINE
  5
131
100
AcDbEntity
  8
0
  6
ByLayer
 62
  256
370
   -1
100
AcDbLine
 10
211.7875
 20
-40.925
 11
211.7875
 21
-54.325
  0
ARC
  5
132
100
AcDbEntity
  8
0
  6
ByLayer
 62
  256
370
   -1
100
AcDbCircle
 10
198.0875
 20
-40.925
 40
0.3
100
AcDbArc
 50
90
 51
180
  0
ARC
  5
133
100
AcDbEntity
  8
0
  6
ByLayer
 62
  256
370
   -1
100
AcDbCircle
 10
211.4875
 20
-40.925
 40
0.3
100
AcDbArc
 50
0
 51
90
  0
ARC
  5
134
100
AcDbEntity
  8
0
  6
ByLayer
 62
  256
370
   -1
100
AcDbCircle
 10
198.0875
 20
-54.325
 40
0.3
100
AcDbArc
 50
180
 51
270
  0
ARC
  5
135
100
AcDbEntity
  8
0
  6
ByLayer
 62
  256
370
   -1
100
AcDbCircle
 10
211.4875
 20
-54.325
 40
0.3
100
AcDbArc
 50
270
 51
0
  0
LINE
  5
136
100
AcDbEntity
  8
0
  6
ByLayer
 62
  256
370
   -1
100
AcDbLine
 10
55.2125
 20
-43.4825
 11
68.6125
 21
-43.4825
  0
LINE
  5
137
100
AcDbEntity
  8
0
  6
ByLayer
 62
  256
370
   -1
100
AcDbLine
 10
55.2125
 20
-57.4825
 11
68.6125
 21
-57.4825
  0
LINE
  5
138
100
AcDbEntity
  8
0
  6
ByLayer
 62
  256
370
   -1
100
AcDbLine
 10
54.9125
 20
-43.7825
 11
54.9125
 21
-57.1825
  0
LINE
  5
139
100
AcDbEntity
  8
0
  6
ByLayer
 62
  256
370
   -1
100
AcDbLine
 10
68.91249999999999
 20
-43.7825
 11
68.91249999999999
 21
-57.1825
  0
ARC
  5
13A
100
AcDbEntity
  8
0
  6
ByLayer
 62
  256
370
   -1
100
AcDbCircle
 10
55.2125
 20
-43.7825
 40
0.3
100
AcDbArc
 50
90
 51
180
  0
ARC
  5
13B
100
AcDbEntity
  8
0
  6
ByLayer
 62
  256
370
   -1
100
AcDbCircle
 10
68.6125
 20
-43.7825
 40
0.3
100
AcDbArc
 50
0
 51
90
  0
ARC
  5
13C
100
AcDbEntity
  8
0
  6
ByLayer
 62
  256
370
   -1
100
AcDbCircle
 10
55.2125
 20
-57.1825
 40
0.3
100
AcDbArc
 50
180
 51
270
  0
ARC
  5
13D
100
AcDbEntity
  8
0
  6
ByLayer
 62
  256
370
   -1
100
AcDbCircle
 10
68.6125
 20
-57.1825
 40
0.3
100
AcDbArc
 50
270
 51
0
  0
LINE
  5
13E
100
AcDbEntity
  8
0
  6
ByLayer
 62
  256
370
   -1
100
AcDbLine
 10
93.3125
 20
-43.4825
 11
106.7125
 21
-43.4825
  0
LINE
  5
13F
100
AcDbEntity
  8
0
  6
ByLayer
 62
  256
370
   -1
100
AcDbLine
 10
93.3125
 20
-57.4825
 11
106.7125
 21
-57.4825
  0
LINE
  5
140
100
AcDbEntity
  8
0
  6
ByLayer
 62
  256
370
   -1
100
AcDbLine
 10
93.0125
 20
-43.7825
 11
93.0125
 21
-57.1825
  0
LINE
  5
141
100
AcDbEntity
  8
0
  6
ByLayer
 62
  256
370
   -1
100
AcDbLine
 10
107.0125
 20
-43.7825
 11
107.0125
 21
-57.1825
  0
ARC
  5
142
100
AcDbEntity
  8
0
  6
ByLayer
 62
  256
370
   -1
100
AcDbCircle
 10
93.3125
 20
-43.7825
 40
0.3
100
AcDbArc
 50
90
 51
180
  0
ARC
  5
143
100
AcDbEntity
  8
0
  6
ByLayer
 62
  256
370
   -1
100
AcDbCircle
 10
106.7125
 20
-43.7825
 40
0.3
100
AcDbArc
 50
0
 51
90
  0
ARC
  5
144
100
AcDbEntity
  8
0
  6
ByLayer
 62
  256
370
   -1
100
AcDbCircle
 10
93.3125
 20
-57.1825
 40
0.3
100
AcDbArc
 50
180
 51
270
  0
ARC
  5
145
100
AcDbEntity
  8
0
  6
ByLayer
 62
  256
370
   -1
100
AcDbCircle
 10
106.7125
 20
-57.1825
 40
0.3
100
AcDbArc
 50
270
 51
0
  0
LINE
  5
146
100
AcDbEntity
  8
0
  6
ByLayer
 62
  256
370
   -1
100
AcDbLine
 10
136.175
 20
-43.4825
 11
149.575
 21
-43.4825
  0
LINE
  5
147
100
AcDbEntity
  8
0
  6
ByLayer
 62
  256
370
   -1
100
AcDbLine
 10
136.175
 20
-57.4825
 11
149.575
 21
-57.4825
  0
LINE
  5
148
100
AcDbEntity
  8
0
  6
ByLayer
 62
  256
370
   -1
100
AcDbLine
 10
135.875
 20
-43.7825
 11
135.875
 21
-57.1825
  0
LINE
  5
149
100
AcDbEntity
  8
0
  6
ByLayer
 62
  256
370
   -1
100
AcDbLine
 10
149.875
 20
-43.7825
 11
149.875
 21
-57.1825
  0
ARC
  5
14A
100
AcDbEntity
  8
0
  6
ByLayer
 62
  256
370
   -1
100
AcDbCircle
 10
136.175
 20
-43.7825
 40
0.3
100
AcDbArc
 50
90
 51
180
  0
ARC
  5
14B
100
AcDbEntity
  8
0
  6
ByLayer
 62
  256
370
   -1
100
AcDbCircle
 10
149.575
 20
-43.7825
 40
0.3
100
AcDbArc
 50
0
 51
90
  0
ARC
  5
14C
100
AcDbEntity
  8
0
  6
ByLayer
 62
  256
370
   -1
100
AcDbCircle
 10
136.175
 20
-57.1825
 40
0.3
100
AcDbArc
 50
180
 51
270
  0
ARC
  5
14D
100
AcDbEntity
  8
0
  6
ByLayer
 62
  256
370
   -1
100
AcDbCircle
 10
149.575
 20
-57.1825
 40
0.3
100
AcDbArc
 50
270
 51
0
  0
LINE
  5
14E
100
AcDbEntity
  8
0
  6
ByLayer
 62
  256
370
   -1
100
AcDbLine
 10
179.0375
 20
-43.4825
 11
192.4375
 21
-43.4825
  0
LINE
  5
14F
100
AcDbEntity
  8
0
  6
ByLayer
 62
  256
370
   -1
100
AcDbLine
 10
179.0375
 20
-57.4825
 11
192.4375
 21
-57.4825
  0
LINE
  5
150
100
AcDbEntity
  8
0
  6
ByLayer
 62
  256
370
   -1
100
AcDbLine
 10
178.7375
 20
-43.7825
 11
178.7375
 21
-57.1825
  0
LINE
  5
151
100
AcDbEntity
  8
0
  6
ByLayer
 62
  256
370
   -1
100
AcDbLine
 10
192.7375
 20
-43.7825
 11
192.7375
 21
-57.1825
  0
ARC
  5
152
100
AcDbEntity
  8
0
  6
ByLayer
 62
  256
370
   -1
100
AcDbCircle
 10
179.0375
 20
-43.7825
 40
0.3
100
AcDbArc
 50
90
 51
180
  0
ARC
  5
153
100
AcDbEntity
  8
0
  6
ByLayer
 62
  256
370
   -1
100
AcDbCircle
 10
192.4375
 20
-43.7825
 40
0.3
100
AcDbArc
 50
0
 51
90
  0
ARC
  5
154
100
AcDbEntity
  8
0
  6
ByLayer
 62
  256
370
   -1
100
AcDbCircle
 10
179.0375
 20
-57.1825
 40
0.3
100
AcDbArc
 50
180
 51
270
  0
ARC
  5
155
100
AcDbEntity
  8
0
  6
ByLayer
 62
  256
370
   -1
100
AcDbCircle
 10
192.4375
 20
-57.1825
 40
0.3
100
AcDbArc
 50
270
 51
0
  0
LINE
  5
156
100
AcDbEntity
  8
0
  6
ByLayer
 62
  256
370
   -1
100
AcDbLine
 10
217.1375
 20
-43.4825
 11
230.5375
 21
-43.4825
  0
LINE
  5
157
100
AcDbEntity
  8
0
  6
ByLayer
 62
  256
370
   -1
100
AcDbLine
 10
217.1375
 20
-57.4825
 11
230.5375
 21
-57.4825
  0
LINE
  5
158
100
AcDbEntity
  8
0
  6
ByLayer
 62
  256
370
   -1
100
AcDbLine
 10
216.8375
 20
-43.7825
 11
216.8375
 21
-57.1825
  0
LINE
  5
159
100
AcDbEntity
  8
0
  6
ByLayer
 62
  256
370
   -1
100
AcDbLine
 10
230.8375
 20
-43.7825
 11
230.8375
 21
-57.1825
  0
ARC
  5
15A
100
AcDbEntity
  8
0
  6
ByLayer
 62
  256
370
   -1
100
AcDbCircle
 10
217.1375
 20
-43.7825
 40
0.3
100
AcDbArc
 50
90
 51
180
  0
ARC
  5
15B
100
AcDbEntity
  8
0
  6
ByLayer
 62
  256
370
   -1
100
AcDbCircle
 10
230.5375
 20
-43.7825
 40
0.3
100
AcDbArc
 50
0
 51
90
  0
ARC
  5
15C
100
AcDbEntity
  8
0
  6
ByLayer
 62
  256
370
   -1
100
AcDbCircle
 10
217.1375
 20
-57.1825
 40
0.3
100
AcDbArc
 50
180
 51
270
  0
ARC
  5
15D
100
AcDbEntity
  8
0
  6
ByLayer
 62
  256
370
   -1
100
AcDbCircle
 10
230.5375
 20
-57.1825
 40
0.3
100
AcDbArc
 50
270
 51
0
  0
LINE
  5
15E
100
AcDbEntity
  8
0
  6
ByLayer
 62
  256
370
   -1
100
AcDbLine
 10
9.96875
 20
-44.435
 11
23.36875
 21
-44.435
  0
LINE
  5
15F
100
AcDbEntity
  8
0
  6
ByLayer
 62
  256
370
   -1
100
AcDbLine
 10
9.96875
 20
-58.435
 11
23.36875
 21
-58.435
  0
LINE
  5
160
100
AcDbEntity
  8
0
  6
ByLayer
 62
  256
370
   -1
100
AcDbLine
 10
9.668749999999999
 20
-44.735
 11
9.668749999999999
 21
-58.135
  0
LINE
  5
161
100
AcDbEntity
  8
0
  6
ByLayer
 62
  256
370
   -1
100
AcDbLine
 10
23.66875
 20
-44.735
 11
23.66875
 21
-58.135
  0
ARC
  5
162
100
AcDbEntity
  8
0
  6
ByLayer
 62
  256
370
   -1
100
AcDbCircle
 10
9.96875
 20
-44.735
 40
0.3
100
AcDbArc
 50
90
 51
180
  0
ARC
  5
163
100
AcDbEntity
  8
0
  6
ByLayer
 62
  256
370
   -1
100
AcDbCircle
 10
23.36875
 20
-44.735
 40
0.3
100
AcDbArc
 50
0
 51
90
  0
ARC
  5
164
100
AcDbEntity
  8
0
  6
ByLayer
 62
  256
370
   -1
100
AcDbCircle
 10
9.96875
 20
-58.135
 40
0.3
100
AcDbArc
 50
180
 51
270
  0
ARC
  5
165
100
AcDbEntity
  8
0
  6
ByLayer
 62
  256
370
   -1
100
AcDbCircle
 10
23.36875
 20
-58.135
 40
0.3
100
AcDbArc
 50
270
 51
0
  0
LINE
  5
166
100
AcDbEntity
  8
0
  6
ByLayer
 62
  256
370
   -1
100
AcDbLine
 10
262.38125
 20
-44.435
 11
275.78125
 21
-44.435
  0
LINE
  5
167
100
AcDbEntity
  8
0
  6
ByLayer
 62
  256
370
   -1
100
AcDbLine
 10
262.38125
 20
-58.435
 11
275.78125
 21
-58.435
  0
LINE
  5
168
100
AcDbEntity
  8
0
  6
ByLayer
 62
  256
370
   -1
100
AcDbLine
 10
262.08125
 20
-44.735
 11
262.08125
 21
-58.135
  0
LINE
  5
169
100
AcDbEntity
  8
0
  6
ByLayer
 62
  256
370
   -1
100
AcDbLine
 10
276.08125
 20
-44.735
 11
276.08125
 21
-58.135
  0
ARC
  5
16A
100
AcDbEntity
  8
0
  6
ByLayer
 62
  256
370
   -1
100
AcDbCircle
 10
262.38125
 20
-44.735
 40
0.3
100
AcDbArc
 50
90
 51
180
  0
ARC
  5
16B
100
AcDbEntity
  8
0
  6
ByLayer
 62
  256
370
   -1
100
AcDbCircle
 10
275.78125
 20
-44.735
 40
0.3
100
AcDbArc
 50
0
 51
90
  0
ARC
  5
16C
100
AcDbEntity
  8
0
  6
ByLayer
 62
  256
370
   -1
100
AcDbCircle
 10
262.38125
 20
-58.135
 40
0.3
100
AcDbArc
 50
180
 51
270
  0
ARC
  5
16D
100
AcDbEntity
  8
0
  6
ByLayer
 62
  256
370
   -1
100
AcDbCircle
 10
275.78125
 20
-58.135
 40
0.3
100
AcDbArc
 50
270
 51
0
  0
LINE
  5
16E
100
AcDbEntity
  8
0
  6
ByLayer
 62
  256
370
   -1
100
AcDbLine
 10
112.3625
 20
-45.3875
 11
125.7625
 21
-45.3875
  0
LINE
  5
16F
100
AcDbEntity
  8
0
  6
ByLayer
 62
  256
370
   -1
100
AcDbLine
 10
112.3625
 20
-59.3875
 11
125.7625
 21
-59.3875
  0
LINE
  5
170
100
AcDbEntity
  8
0
  6
ByLayer
 62
  256
370
   -1
100
AcDbLine
 10
112.0625
 20
-45.6875
 11
112.0625
 21
-59.0875
  0
LINE
  5
171
100
AcDbEntity
  8
0
  6
ByLayer
 62
  256
370
   -1
100
AcDbLine
 10
126.0625
 20
-45.6875
 11
126.0625
 21
-59.0875
  0
ARC
  5
172
100
AcDbEntity
  8
0
  6
ByLayer
 62
  256
370
   -1
100
AcDbCircle
 10
112.3625
 20
-45.6875
 40
0.3
100
AcDbArc
 50
90
 51
180
  0
ARC
  5
173
100
AcDbEntity
  8
0
  6
ByLayer
 62
  256
370
   -1
100
AcDbCircle
 10
125.7625
 20
-45.6875
 40
0.3
100
AcDbArc
 50
0
 51
90
  0
ARC
  5
174
100
AcDbEntity
  8
0
  6
ByLayer
 62
  256
370
   -1
100
AcDbCircle
 10
112.3625
 20
-59.0875
 40
0.3
100
AcDbArc
 50
180
 51
270
  0
ARC
  5
175
100
AcDbEntity
  8
0
  6
ByLayer
 62
  256
370
   -1
100
AcDbCircle
 10
125.7625
 20
-59.0875
 40
0.3
100
AcDbArc
 50
270
 51
0
  0
LINE
  5
176
100
AcDbEntity
  8
0
  6
ByLayer
 62
  256
370
   -1
100
AcDbLine
 10
159.9875
 20
-45.3875
 11
173.3875
 21
-45.3875
  0
LINE
  5
177
100
AcDbEntity
  8
0
  6
ByLayer
 62
  256
370
   -1
100
AcDbLine
 10
159.9875
 20
-59.3875
 11
173.3875
 21
-59.3875
  0
LINE
  5
178
100
AcDbEntity
  8
0
  6
ByLayer
 62
  256
370
   -1
100
AcDbLine
 10
159.6875
 20
-45.6875
 11
159.6875
 21
-59.0875
  0
LINE
  5
179
100
AcDbEntity
  8
0
  6
ByLayer
 62
  256
370
   -1
100
AcDbLine
 10
173.6875
 20
-45.6875
 11
173.6875
 21
-59.0875
  0
ARC
  5
17A
100
AcDbEntity
  8
0
  6
ByLayer
 62
  256
370
   -1
100
AcDbCircle
 10
159.9875
 20
-45.6875
 40
0.3
100
AcDbArc
 50
90
 51
180
  0
ARC
  5
17B
100
AcDbEntity
  8
0
  6
ByLayer
 62
  256
370
   -1
100
AcDbCircle
 10
173.3875
 20
-45.6875
 40
0.3
100
AcDbArc
 50
0
 51
90
  0
ARC
  5
17C
100
AcDbEntity
  8
0
  6
ByLayer
 62
  256
370
   -1
100
AcDbCircle
 10
159.9875
 20
-59.0875
 40
0.3
100
AcDbArc
 50
180
 51
270
  0
ARC
  5
17D
100
AcDbEntity
  8
0
  6
ByLayer
 62
  256
370
   -1
100
AcDbCircle
 10
173.3875
 20
-59.0875
 40
0.3
100
AcDbArc
 50
270
 51
0
  0
LINE
  5
17E
100
AcDbEntity
  8
0
  6
ByLayer
 62
  256
370
   -1
100
AcDbLine
 10
36.1625
 20
-46.34
 11
49.5625
 21
-46.34
  0
LINE
  5
17F
100
AcDbEntity
  8
0
  6
ByLayer
 62
  256
370
   -1
100
AcDbLine
 10
36.1625
 20
-60.34
 11
49.5625
 21
-60.34
  0
LINE
  5
180
100
AcDbEntity
  8
0
  6
ByLayer
 62
  256
370
   -1
100
AcDbLine
 10
35.8625
 20
-46.64
 11
35.8625
 21
-60.04
  0
LINE
  5
181
100
AcDbEntity
  8
0
  6
ByLayer
 62
  256
370
   -1
100
AcDbLine
 10
49.8625
 20
-46.64
 11
49.8625
 21
-60.04
  0
ARC
  5
182
100
AcDbEntity
  8
0
  6
ByLayer
 62
  256
370
   -1
100
AcDbCircle
 10
36.1625
 20
-46.64
 40
0.3
100
AcDbArc
 50
90
 51
180
  0
ARC
  5
183
100
AcDbEntity
  8
0
  6
ByLayer
 62
  256
370
   -1
100
AcDbCircle
 10
49.5625
 20
-46.64
 40
0.3
100
AcDbArc
 50
0
 51
90
  0
ARC
  5
184
100
AcDbEntity
  8
0
  6
ByLayer
 62
  256
370
   -1
100
AcDbCircle
 10
36.1625
 20
-60.04
 40
0.3
100
AcDbArc
 50
180
 51
270
  0
ARC
  5
185
100
AcDbEntity
  8
0
  6
ByLayer
 62
  256
370
   -1
100
AcDbCircle
 10
49.5625
 20
-60.04
 40
0.3
100
AcDbArc
 50
270
 51
0
  0
LINE
  5
186
100
AcDbEntity
  8
0
  6
ByLayer
 62
  256
370
   -1
100
AcDbLine
 10
236.1875
 20
-46.34
 11
249.5875
 21
-46.34
  0
LINE
  5
187
100
AcDbEntity
  8
0
  6
ByLayer
 62
  256
370
   -1
100
AcDbLine
 10
236.1875
 20
-60.34
 11
249.5875
 21
-60.34
  0
LINE
  5
188
100
AcDbEntity
  8
0
  6
ByLayer
 62
  256
370
   -1
100
AcDbLine
 10
235.8875
 20
-46.64
 11
235.8875
 21
-60.04
  0
LINE
  5
189
100
AcDbEntity
  8
0
  6
ByLayer
 62
  256
370
   -1
100
AcDbLine
 10
249.8875
 20
-46.64
 11
249.8875
 21
-60.04
  0
ARC
  5
18A
100
AcDbEntity
  8
0
  6
ByLayer
 62
  256
370
   -1
100
AcDbCircle
 10
236.1875
 20
-46.64
 40
0.3
100
AcDbArc
 50
90
 51
180
  0
ARC
  5
18B
100
AcDbEntity
  8
0
  6
ByLayer
 62
  256
370
   -1
100
AcDbCircle
 10
249.5875
 20
-46.64
 40
0.3
100
AcDbArc
 50
0
 51
90
  0
ARC
  5
18C
100
AcDbEntity
  8
0
  6
ByLayer
 62
  256
370
   -1
100
AcDbCircle
 10
236.1875
 20
-60.04
 40
0.3
100
AcDbArc
 50
180
 51
270
  0
ARC
  5
18D
100
AcDbEntity
  8
0
  6
ByLayer
 62
  256
370
   -1
100
AcDbCircle
 10
249.5875
 20
-60.04
 40
0.3
100
AcDbArc
 50
270
 51
0
  0
LINE
  5
18E
100
AcDbEntity
  8
0
  6
ByLayer
 62
  256
370
   -1
100
AcDbLine
 10
57.59375
 20
-62.5325
 11
70.99375000000001
 21
-62.5325
  0
LINE
  5
18F
100
AcDbEntity
  8
0
  6
ByLayer
 62
  256
370
   -1
100
AcDbLine
 10
57.59375
 20
-76.5325
 11
70.99375000000001
 21
-76.5325
  0
LINE
  5
190
100
AcDbEntity
  8
0
  6
ByLayer
 62
  256
370
   -1
100
AcDbLine
 10
57.29375
 20
-62.8325
 11
57.29375
 21
-76.2325
  0
LINE
  5
191
100
AcDbEntity
  8
0
  6
ByLayer
 62
  256
370
   -1
100
AcDbLine
 10
71.29375
 20
-62.8325
 11
71.29375
 21
-76.2325
  0
ARC
  5
192
100
AcDbEntity
  8
0
  6
ByLayer
 62
  256
370
   -1
100
AcDbCircle
 10
57.59375
 20
-62.8325
 40
0.3
100
AcDbArc
 50
90
 51
180
  0
ARC
  5
193
100
AcDbEntity
  8
0
  6
ByLayer
 62
  256
370
   -1
100
AcDbCircle
 10
70.99375000000001
 20
-62.8325
 40
0.3
100
AcDbArc
 50
0
 51
90
  0
ARC
  5
194
100
AcDbEntity
  8
0
  6
ByLayer
 62
  256
370
   -1
100
AcDbCircle
 10
57.59375
 20
-76.2325
 40
0.3
100
AcDbArc
 50
180
 51
270
  0
ARC
  5
195
100
AcDbEntity
  8
0
  6
ByLayer
 62
  256
370
   -1
100
AcDbCircle
 10
70.99375000000001
 20
-76.2325
 40
0.3
100
AcDbArc
 50
270
 51
0
  0
LINE
  5
196
100
AcDbEntity
  8
0
  6
ByLayer
 62
  256
370
   -1
100
AcDbLine
 10
79.02500000000001
 20
-62.5325
 11
92.425
 21
-62.5325
  0
LINE
  5
197
100
AcDbEntity
  8
0
  6
ByLayer
 62
  256
370
   -1
100
AcDbLine
 10
79.02500000000001
 20
-76.5325
 11
92.425
 21
-76.5325
  0
LINE
  5
198
100
AcDbEntity
  8
0
  6
ByLayer
 62
  256
370
   -1
100
AcDbLine
 10
78.72499999999999
 20
-62.8325
 11
78.72499999999999
 21
-76.2325
  0
LINE
  5
199
100
AcDbEntity
  8
0
  6
ByLayer
 62
  256
370
   -1
100
AcDbLine
 10
92.72499999999999
 20
-62.8325
 11
92.72499999999999
 21
-76.2325
  0
ARC
  5
19A
100
AcDbEntity
  8
0
  6
ByLayer
 62
  256
370
   -1
100
AcDbCircle
 10
79.02500000000001
 20
-62.8325
 40
0.3
100
AcDbArc
 50
90
 51
180
  0
ARC
  5
19B
100
AcDbEntity
  8
0
  6
ByLayer
 62
  256
370
   -1
100
AcDbCircle
 10
92.425
 20
-62.8325
 40
0.3
100
AcDbArc
 50
0
 51
90
  0
ARC
  5
19C
100
AcDbEntity
  8
0
  6
ByLayer
 62
  256
370
   -1
100
AcDbCircle
 10
79.02500000000001
 20
-76.2325
 40
0.3
100
AcDbArc
 50
180
 51
270
  0
ARC
  5
19D
100
AcDbEntity
  8
0
  6
ByLayer
 62
  256
370
   -1
100
AcDbCircle
 10
92.425
 20
-76.2325
 40
0.3
100
AcDbArc
 50
270
 51
0
  0
LINE
  5
19E
100
AcDbEntity
  8
0
  6
ByLayer
 62
  256
370
   -1
100
AcDbLine
 10
193.325
 20
-62.5325
 11
206.725
 21
-62.5325
  0
LINE
  5
19F
100
AcDbEntity
  8
0
  6
ByLayer
 62
  256
370
   -1
100
AcDbLine
 10
193.325
 20
-76.5325
 11
206.725
 21
-76.5325
  0
LINE
  5
1A0
100
AcDbEntity
  8
0
  6
ByLayer
 62
  256
370
   -1
100
AcDbLine
 10
193.025
 20
-62.8325
 11
193.025
 21
-76.2325
  0
LINE
  5
1A1
100
AcDbEntity
  8
0
  6
ByLayer
 62
  256
370
   -1
100
AcDbLine
 10
207.025
 20
-62.8325
 11
207.025
 21
-76.2325
  0
ARC
  5
1A2
100
AcDbEntity
  8
0
  6
ByLayer
 62
  256
370
   -1
100
AcDbCircle
 10
193.325
 20
-62.8325
 40
0.3
100
AcDbArc
 50
90
 51
180
  0
ARC
  5
1A3
100
AcDbEntity
  8
0
  6
ByLayer
 62
  256
370
   -1
100
AcDbCircle
 10
206.725
 20
-62.8325
 40
0.3
100
AcDbArc
 50
0
 51
90
  0
ARC
  5
1A4
100
AcDbEntity
  8
0
  6
ByLayer
 62
  256
370
   -1
100
AcDbCircle
 10
193.325
 20
-76.2325
 40
0.3
100
AcDbArc
 50
180
 51
270
  0
ARC
  5
1A5
100
AcDbEntity
  8
0
  6
ByLayer
 62
  256
370
   -1
100
AcDbCircle
 10
206.725
 20
-76.2325
 40
0.3
100
AcDbArc
 50
270
 51
0
  0
LINE
  5
1A6
100
AcDbEntity
  8
0
  6
ByLayer
 62
  256
370
   -1
100
AcDbLine
 10
214.75625
 20
-62.5325
 11
228.15625
 21
-62.5325
  0
LINE
  5
1A7
100
AcDbEntity
  8
0
  6
ByLayer
 62
  256
370
   -1
100
AcDbLine
 10
214.75625
 20
-76.5325
 11
228.15625
 21
-76.5325
  0
LINE
  5
1A8
100
AcDbEntity
  8
0
  6
ByLayer
 62
  256
370
   -1
100
AcDbLine
 10
214.45625
 20
-62.8325
 11
214.45625
 21
-76.2325
  0
LINE
  5
1A9
100
AcDbEntity
  8
0
  6
ByLayer
 62
  256
370
   -1
100
AcDbLine
 10
228.45625
 20
-62.8325
 11
228.45625
 21
-76.2325
  0
ARC
  5
1AA
100
AcDbEntity
  8
0
  6
ByLayer
 62
  256
370
   -1
100
AcDbCircle
 10
214.75625
 20
-62.8325
 40
0.3
100
AcDbArc
 50
90
 51
180
  0
ARC
  5
1AB
100
AcDbEntity
  8
0
  6
ByLayer
 62
  256
370
   -1
100
AcDbCircle
 10
228.15625
 20
-62.8325
 40
0.3
100
AcDbArc
 50
0
 51
90
  0
ARC
  5
1AC
100
AcDbEntity
  8
0
  6
ByLayer
 62
  256
370
   -1
100
AcDbCircle
 10
214.75625
 20
-76.2325
 40
0.3
100
AcDbArc
 50
180
 51
270
  0
ARC
  5
1AD
100
AcDbEntity
  8
0
  6
ByLayer
 62
  256
370
   -1
100
AcDbCircle
 10
228.15625
 20
-76.2325
 40
0.3
100
AcDbArc
 50
270
 51
0
  0
LINE
  5
1AE
100
AcDbEntity
  8
0
  6
ByLayer
 62
  256
370
   -1
100
AcDbLine
 10
5.20625
 20
-63.485
 11
18.60625
 21
-63.485
  0
LINE
  5
1AF
100
AcDbEntity
  8
0
  6
ByLayer
 62
  256
370
   -1
100
AcDbLine
 10
5.20625
 20
-77.485
 11
18.60625
 21
-77.485
  0
LINE
  5
1B0
100
AcDbEntity
  8
0
  6
ByLayer
 62
  256
370
   -1
100
AcDbLine
 10
4.90625
 20
-63.785
 11
4.90625
 21
-77.185
  0
LINE
  5
1B1
100
AcDbEntity
  8
0
  6
ByLayer
 62
  256
370
   -1
100
AcDbLine
 10
18.90625
 20
-63.785
 11
18.90625
 21
-77.185
  0
ARC
  5
1B2
100
AcDbEntity
  8
0
  6
ByLayer
 62
  256
370
   -1
100
AcDbCircle
 10
5.20625
 20
-63.785
 40
0.3
100
AcDbArc
 50
90
 51
180
  0
ARC
  5
1B3
100
AcDbEntity
  8
0
  6
ByLayer
 62
  256
370
   -1
100
AcDbCircle
 10
18.60625
 20
-63.785
 40
0.3
100
AcDbArc
 50
0
 51
90
  0
ARC
  5
1B4
100
AcDbEntity
  8
0
  6
ByLayer
 62
  256
370
   -1
100
AcDbCircle
 10
5.20625
 20
-77.185
 40
0.3
100
AcDbArc
 50
180
 51
270
  0
ARC
  5
1B5
100
AcDbEntity
  8
0
  6
ByLayer
 62
  256
370
   -1
100
AcDbCircle
 10
18.60625
 20
-77.185
 40
0.3
100
AcDbArc
 50
270
 51
0
  0
LINE
  5
1B6
100
AcDbEntity
  8
0
  6
ByLayer
 62
  256
370
   -1
100
AcDbLine
 10
267.14375
 20
-63.485
 11
280.54375
 21
-63.485
  0
LINE
  5
1B7
100
AcDbEntity
  8
0
  6
ByLayer
 62
  256
370
   -1
100
AcDbLine
 10
267.14375
 20
-77.485
 11
280.54375
 21
-77.485
  0
LINE
  5
1B8
100
AcDbEntity
  8
0
  6
ByLayer
 62
  256
370
   -1
100
AcDbLine
 10
266.84375
 20
-63.785
 11
266.84375
 21
-77.185
  0
LINE
  5
1B9
100
AcDbEntity
  8
0
  6
ByLayer
 62
  256
370
   -1
100
AcDbLine
 10
280.84375
 20
-63.785
 11
280.84375
 21
-77.185
  0
ARC
  5
1BA
100
AcDbEntity
  8
0
  6
ByLayer
 62
  256
370
   -1
100
AcDbCircle
 10
267.14375
 20
-63.785
 40
0.3
100
AcDbArc
 50
90
 51
180
  0
ARC
  5
1BB
100
AcDbEntity
  8
0
  6
ByLayer
 62
  256
370
   -1
100
AcDbCircle
 10
280.54375
 20
-63.785
 40
0.3
100
AcDbArc
 50
0
 51
90
  0
ARC
  5
1BC
100
AcDbEntity
  8
0
  6
ByLayer
 62
  256
370
   -1
100
AcDbCircle
 10
267.14375
 20
-77.185
 40
0.3
100
AcDbArc
 50
180
 51
270
  0
ARC
  5
1BD
100
AcDbEntity
  8
0
  6
ByLayer
 62
  256
370
   -1
100
AcDbCircle
 10
280.54375
 20
-77.185
 40
0.3
100
AcDbArc
 50
270
 51
0
  0
LINE
  5
1BE
100
AcDbEntity
  8
0
  6
ByLayer
 62
  256
370
   -1
100
AcDbLine
 10
97.77500000000001
 20
-64.7375
 11
97.77500000000001
 21
-78.1375
  0
ARC
  5
1BF
100
AcDbEntity
  8
0
  6
ByLayer
 62
  256
370
   -1
100
AcDbCircle
 10
98.075
 20
-64.7375
 40
0.3
100
AcDbArc
 50
90
 51
180
  0
ARC
  5
1C0
100
AcDbEntity
  8
0
  6
ByLayer
 62
  256
370
   -1
100
AcDbCircle
 10
98.075
 20
-78.1375
 40
0.3
100
AcDbArc
 50
180
 51
270
  0
LINE
  5
1C1
100
AcDbEntity
  8
0
  6
ByLayer
 62
  256
370
   -1
100
AcDbLine
 10
114.15625
 20
-64.7375
 11
114.15625
 21
-78.1375
  0
ARC
  5
1C2
100
AcDbEntity
  8
0
  6
ByLayer
 62
  256
370
   -1
100
AcDbCircle
 10
113.85625
 20
-64.7375
 40
0.3
100
AcDbArc
 50
0
 51
90
  0
ARC
  5
1C3
100
AcDbEntity
  8
0
  6
ByLayer
 62
  256
370
   -1
100
AcDbCircle
 10
113.85625
 20
-78.1375
 40
0.3
100
AcDbArc
 50
270
 51
0
  0
LINE
  5
1C4
100
AcDbEntity
  8
0
  6
ByLayer
 62
  256
370
   -1
100
AcDbLine
 10
119.20625
 20
-64.7375
 11
119.20625
 21
-78.1375
  0
ARC
  5
1C5
100
AcDbEntity
  8
0
  6
ByLayer
 62
  256
370
   -1
100
AcDbCircle
 10
119.50625
 20
-64.7375
 40
0.3
100
AcDbArc
 50
90
 51
180
  0
ARC
  5
1C6
100
AcDbEntity
  8
0
  6
ByLayer
 62
  256
370
   -1
100
AcDbCircle
 10
119.50625
 20
-78.1375
 40
0.3
100
AcDbArc
 50
180
 51
270
  0
LINE
  5
1C7
100
AcDbEntity
  8
0
  6
ByLayer
 62
  256
370
   -1
100
AcDbLine
 10
135.5875
 20
-64.7375
 11
135.5875
 21
-78.1375
  0
ARC
  5
1C8
100
AcDbEntity
  8
0
  6
ByLayer
 62
  256
370
   -1
100
AcDbCircle
 10
135.2875
 20
-64.7375
 40
0.3
100
AcDbArc
 50
0
 51
90
  0
ARC
  5
1C9
100
AcDbEntity
  8
0
  6
ByLayer
 62
  256
370
   -1
100
AcDbCircle
 10
135.2875
 20
-78.1375
 40
0.3
100
AcDbArc
 50
270
 51
0
  0
LINE
  5
1CA
100
AcDbEntity
  8
0
  6
ByLayer
 62
  256
370
   -1
100
AcDbLine
 10
150.1625
 20
-64.7375
 11
150.1625
 21
-78.1375
  0
ARC
  5
1CB
100
AcDbEntity
  8
0
  6
ByLayer
 62
  256
370
   -1
100
AcDbCircle
 10
150.4625
 20
-64.7375
 40
0.3
100
AcDbArc
 50
90
 51
180
  0
ARC
  5
1CC
100
AcDbEntity
  8
0
  6
ByLayer
 62
  256
370
   -1
100
AcDbCircle
 10
150.4625
 20
-78.1375
 40
0.3
100
AcDbArc
 50
180
 51
270
  0
LINE
  5
1CD
100
AcDbEntity
  8
0
  6
ByLayer
 62
  256
370
   -1
100
AcDbLine
 10
166.54375
 20
-64.7375
 11
166.54375
 21
-78.1375
  0
ARC
  5
1CE
100
AcDbEntity
  8
0
  6
ByLayer
 62
  256
370
   -1
100
AcDbCircle
 10
166.24375
 20
-64.7375
 40
0.3
100
AcDbArc
 50
0
 51
90
  0
ARC
  5
1CF
100
AcDbEntity
  8
0
  6
ByLayer
 62
  256
370
   -1
100
AcDbCircle
 10
166.24375
 20
-78.1375
 40
0.3
100
AcDbArc
 50
270
 51
0
  0
LINE
  5
1D0
100
AcDbEntity
  8
0
  6
ByLayer
 62
  256
370
   -1
100
AcDbLine
 10
171.59375
 20
-64.7375
 11
171.59375
 21
-78.1375
  0
ARC
  5
1D1
100
AcDbEntity
  8
0
  6
ByLayer
 62
  256
370
   -1
100
AcDbCircle
 10
171.89375
 20
-64.7375
 40
0.3
100
AcDbArc
 50
90
 51
180
  0
ARC
  5
1D2
100
AcDbEntity
  8
0
  6
ByLayer
 62
  256
370
   -1
100
AcDbCircle
 10
171.89375
 20
-78.1375
 40
0.3
100
AcDbArc
 50
180
 51
270
  0
LINE
  5
1D3
100
AcDbEntity
  8
0
  6
ByLayer
 62
  256
370
   -1
100
AcDbLine
 10
187.975
 20
-64.7375
 11
187.975
 21
-78.1375
  0
ARC
  5
1D4
100
AcDbEntity
  8
0
  6
ByLayer
 62
  256
370
   -1
100
AcDbCircle
 10
187.675
 20
-64.7375
 40
0.3
100
AcDbArc
 50
0
 51
90
  0
ARC
  5
1D5
100
AcDbEntity
  8
0
  6
ByLayer
 62
  256
370
   -1
100
AcDbCircle
 10
187.675
 20
-78.1375
 40
0.3
100
AcDbArc
 50
270
 51
0
  0
LINE
  5
1D6
100
AcDbEntity
  8
0
  6
ByLayer
 62
  256
370
   -1
100
AcDbLine
 10
236.1875
 20
-65.39
 11
249.5875
 21
-65.39
  0
LINE
  5
1D7
100
AcDbEntity
  8
0
  6
ByLayer
 62
  256
370
   -1
100
AcDbLine
 10
236.1875
 20
-79.39
 11
249.5875
 21
-79.39
  0
LINE
  5
1D8
100
AcDbEntity
  8
0
  6
ByLayer
 62
  256
370
   -1
100
AcDbLine
 10
235.8875
 20
-65.69
 11
235.8875
 21
-79.09
  0
LINE
  5
1D9
100
AcDbEntity
  8
0
  6
ByLayer
 62
  256
370
   -1
100
AcDbLine
 10
249.8875
 20
-65.69
 11
249.8875
 21
-79.09
  0
ARC
  5
1DA
100
AcDbEntity
  8
0
  6
ByLayer
 62
  256
370
   -1
100
AcDbCircle
 10
236.1875
 20
-65.69
 40
0.3
100
AcDbArc
 50
90
 51
180
  0
ARC
  5
1DB
100
AcDbEntity
  8
0
  6
ByLayer
 62
  256
370
   -1
100
AcDbCircle
 10
249.5875
 20
-65.69
 40
0.3
100
AcDbArc
 50
0
 51
90
  0
ARC
  5
1DC
100
AcDbEntity
  8
0
  6
ByLayer
 62
  256
370
   -1
100
AcDbCircle
 10
236.1875
 20
-79.09
 40
0.3
100
AcDbArc
 50
180
 51
270
  0
ARC
  5
1DD
100
AcDbEntity
  8
0
  6
ByLayer
 62
  256
370
   -1
100
AcDbCircle
 10
249.5875
 20
-79.09
 40
0.3
100
AcDbArc
 50
270
 51
0
  0
LINE
  5
1DE
100
AcDbEntity
  8
0
  6
ByLayer
 62
  256
370
   -1
100
AcDbLine
 10
36.1625
 20
-65.39
 11
49.5625
 21
-65.39
  0
LINE
  5
1DF
100
AcDbEntity
  8
0
  6
ByLayer
 62
  256
370
   -1
100
AcDbLine
 10
36.1625
 20
-79.39
 11
49.5625
 21
-79.39
  0
LINE
  5
1E0
100
AcDbEntity
  8
0
  6
ByLayer
 62
  256
370
   -1
100
AcDbLine
 10
35.8625
 20
-65.69
 11
35.8625
 21
-79.09
  0
LINE
  5
1E1
100
AcDbEntity
  8
0
  6
ByLayer
 62
  256
370
   -1
100
AcDbLine
 10
49.8625
 20
-65.69
 11
49.8625
 21
-79.09
  0
ARC
  5
1E2
100
AcDbEntity
  8
0
  6
ByLayer
 62
  256
370
   -1
100
AcDbCircle
 10
36.1625
 20
-65.69
 40
0.3
100
AcDbArc
 50
90
 51
180
  0
ARC
  5
1E3
100
AcDbEntity
  8
0
  6
ByLayer
 62
  256
370
   -1
100
AcDbCircle
 10
49.5625
 20
-65.69
 40
0.3
100
AcDbArc
 50
0
 51
90
  0
ARC
  5
1E4
100
AcDbEntity
  8
0
  6
ByLayer
 62
  256
370
   -1
100
AcDbCircle
 10
36.1625
 20
-79.09
 40
0.3
100
AcDbArc
 50
180
 51
270
  0
ARC
  5
1E5
100
AcDbEntity
  8
0
  6
ByLayer
 62
  256
370
   -1
100
AcDbCircle
 10
49.5625
 20
-79.09
 40
0.3
100
AcDbArc
 50
270
 51
0
  0
LINE
  5
1E6
100
AcDbEntity
  8
0
  6
ByLayer
 62
  256
370
   -1
100
AcDbLine
 10
-7.093750000000479
 20
-77.185
 11
5.206251110057079
 21
-84.48500000000001
  0
LINE
  5
1E7
100
AcDbEntity
  8
0
  6
ByLayer
 62
  256
370
   -1
100
AcDbLine
 10
5.206251110057079
 20
-84.48500000000001
 11
36.1625
 21
-86.39000000000061
  0
LINE
  5
1E8
100
AcDbEntity
  8
0
  6
ByLayer
 62
  256
370
   -1
100
AcDbLine
 10
36.1625
 20
-86.39000000000061
 11
98.07500046584983
 21
-84.43750000000001
  0
LINE
  5
1E9
100
AcDbEntity
  8
0
  6
ByLayer
 62
  256
370
   -1
100
AcDbLine
 10
98.07500046584983
 20
-84.43750000000001
 11
142.875
 21
-83.4375
  0
LINE
  5
1EA
100
AcDbEntity
  8
0
  6
ByLayer
 62
  256
370
   -1
100
AcDbLine
 10
142.875
 20
-83.4375
 11
187.675
 21
-84.43749999999659
  0
LINE
  5
1EB
100
AcDbEntity
  8
0
  6
ByLayer
 62
  256
370
   -1
100
AcDbLine
 10
187.675
 20
-84.43749999999659
 11
249.5875
 21
-86.39
  0
LINE
  5
1EC
100
AcDbEntity
  8
0
  6
ByLayer
 62
  256
370
   -1
100
AcDbLine
 10
249.5875
 20
-86.39
 11
280.5437477920477
 21
-84.48499999999999
  0
LINE
  5
1ED
100
AcDbEntity
  8
0
  6
ByLayer
 62
  256
370
   -1
100
AcDbLine
 10
280.5437477920477
 20
-84.48499999999999
 11
292.84375
 21
-77.185
  0
LINE
  5
1EE
100
AcDbEntity
  8
0
  6
ByLayer
 62
  256
370
   -1
100
AcDbLine
 10
292.84375
 20
-77.185
 11
287.84375
 21
-44.735
  0
LINE
  5
1EF
100
AcDbEntity
  8
0
  6
ByLayer
 62
  256
370
   -1
100
AcDbLine
 10
287.84375
 20
-44.735
 11
276.4375
 21
-6.635
  0
LINE
  5
1F0
100
AcDbEntity
  8
0
  6
ByLayer
 62
  256
370
   -1
100
AcDbLine
 10
276.4375
 20
-6.635
 11
268.6375
 21
-1.33499999999991
  0
LINE
  5
1F1
100
AcDbEntity
  8
0
  6
ByLayer
 62
  256
370
   -1
100
AcDbLine
 10
268.6375
 20
-1.33499999999991
 11
204.7875
 21
2.475000000000089
  0
LINE
  5
1F2
100
AcDbEntity
  8
0
  6
ByLayer
 62
  256
370
   -1
100
AcDbLine
 10
204.7875
 20
2.475000000000089
 11
142.8750004960591
 21
-0.3824999999999967
  0
LINE
  5
1F3
100
AcDbEntity
  8
0
  6
ByLayer
 62
  256
370
   -1
100
AcDbLine
 10
142.8750004960591
 20
-0.3824999999999967
 11
80.96249974762803
 21
2.475
  0
LINE
  5
1F4
100
AcDbEntity
  8
0
  6
ByLayer
 62
  256
370
   -1
100
AcDbLine
 10
80.96249974762803
 20
2.475
 11
17.11249974762803
 21
-1.335
  0
LINE
  5
1F5
100
AcDbEntity
  8
0
  6
ByLayer
 62
  256
370
   -1
100
AcDbLine
 10
17.11249974762803
 20
-1.335
 11
9.3125
 21
-6.635000141822142
  0
LINE
  5
1F6
100
AcDbEntity
  8
0
  6
ByLayer
 62
  256
370
   -1
100
AcDbLine
 10
9.3125
 20
-6.635000141822142
 11
-2.093749999999998
 21
-44.73499955520344
  0
LINE
  5
1F7
100
AcDbEntity
  8
0
  6
ByLayer
 62
  256
370
   -1
100
AcDbLine
 10
-2.093749999999998
 20
-44.73499955520344
 11
-7.09375000000048
 21
-77.185
  0
LINE
  5
1F8
100
AcDbEntity
  8
0
  6
ByLayer
 62
  256
370
   -1
100
AcDbLine
 10
98.075
 20
-64.4375
 11
113.85625
 21
-64.4375
  0
LINE
  5
1F9
100
AcDbEntity
  8
0
  6
ByLayer
 62
  256
370
   -1
100
AcDbLine
 10
113.85625
 20
-78.4375
 11
98.075
 21
-78.4375
  0
LINE
  5
1FA
100
AcDbEntity
  8
0
  6
ByLayer
 62
  256
370
   -1
100
AcDbLine
 10
119.50625
 20
-64.4375
 11
135.2875
 21
-64.4375
  0
LINE
  5
1FB
100
AcDbEntity
  8
0
  6
ByLayer
 62
  256
370
   -1
100
AcDbLine
 10
119.50625
 20
-78.4375
 11
135.2875
 21
-78.43750000000396
  0
LINE
  5
1FC
100
AcDbEntity
  8
0
  6
ByLayer
 62
  256
370
   -1
100
AcDbLine
 10
150.4625
 20
-64.4375
 11
166.24375
 21
-64.4375
  0
LINE
  5
1FD
100
AcDbEntity
  8
0
  6
ByLayer
 62
  256
370
   -1
100
AcDbLine
 10
166.24375
 20
-78.4375
 11
150.4625
 21
-78.4375
  0
LINE
  5
1FE
100
AcDbEntity
  8
0
  6
ByLayer
 62
  256
370
   -1
100
AcDbLine
 10
171.89375
 20
-64.4375
 11
187.675
 21
-64.4375
  0
LINE
  5
1FF
100
AcDbEntity
  8
0
  6
ByLayer
 62
  256
370
   -1
100
AcDbLine
 10
171.89375
 20
-78.4375
 11
187.675
 21
-78.43749999999659
  0
ENDBLK
  5
4F
330
4D
100
AcDbEntity
  8
0
100
AcDbBlockEnd
  0
BLOCK
  5
51
330
50
100
AcDbEntity
  8
0
100
AcDbBlockBegin
  2
teethless40_csl_plate_v4-0
 70
    0
 10
0
 20
0
  3
teethless40_csl_plate_v4-0
  1

  0
LINE
  5
200
100
AcDbEntity
  8
0
  6
ByLayer
 62
  256
370
   -1
100
AcDbLine
 10
74.2625
 20
-2.525
 11
87.66249999999999
 21
-2.525
  0
LINE
  5
201
100
AcDbEntity
  8
0
  6
ByLayer
 62
  256
370
   -1
100
AcDbLine
 10
74.2625
 20
-16.525
 11
87.66249999999999
 21
-16.525
  0
LINE
  5
202
100
AcDbEntity
  8
0
  6
ByLayer
 62
  256
370
   -1
100
AcDbLine
 10
73.96250000000001
 20
-2.825
 11
73.96250000000001
 21
-16.225
  0
LINE
  5
203
100
AcDbEntity
  8
0
  6
ByLayer
 62
  256
370
   -1
100
AcDbLine
 10
87.96250000000001
 20
-2.825
 11
87.96250000000001
 21
-16.225
  0
ARC
  5
204
100
AcDbEntity
  8
0
  6
ByLayer
 62
  256
370
   -1
100
AcDbCircle
 10
74.2625
 20
-2.825
 40
0.3
100
AcDbArc
 50
90
 51
180
  0
ARC
  5
205
100
AcDbEntity
  8
0
  6
ByLayer
 62
  256
370
   -1
100
AcDbCircle
 10
87.66249999999999
 20
-2.825
 40
0.3
100
AcDbArc
 50
0
 51
90
  0
ARC
  5
206
100
AcDbEntity
  8
0
  6
ByLayer
 62
  256
370
   -1
100
AcDbCircle
 10
74.2625
 20
-16.225
 40
0.3
100
AcDbArc
 50
180
 51
270
  0
ARC
  5
207
100
AcDbEntity
  8
0
  6
ByLayer
 62
  256
370
   -1
100
AcDbCircle
 10
87.66249999999999
 20
-16.225
 40
0.3
100
AcDbArc
 50
270
 51
0
  0
LINE
  5
208
100
AcDbEntity
  8
0
  6
ByLayer
 62
  256
370
   -1
100
AcDbLine
 10
198.0875
 20
-2.525
 11
211.4875
 21
-2.525
  0
LINE
  5
209
100
AcDbEntity
  8
0
  6
ByLayer
 62
  256
370
   -1
100
AcDbLine
 10
198.0875
 20
-16.525
 11
211.4875
 21
-16.525
  0
LINE
  5
20A
100
AcDbEntity
  8
0
  6
ByLayer
 62
  256
370
   -1
100
AcDbLine
 10
197.7875
 20
-2.825
 11
197.7875
 21
-16.225
  0
LINE
  5
20B
100
AcDbEntity
  8
0
  6
ByLayer
 62
  256
370
   -1
100
AcDbLine
 10
211.7875
 20
-2.825
 11
211.7875
 21
-16.225
  0
ARC
  5
20C
100
AcDbEntity
  8
0
  6
ByLayer
 62
  256
370
   -1
100
AcDbCircle
 10
198.0875
 20
-2.825
 40
0.3
100
AcDbArc
 50
90
 51
180
  0
ARC
  5
20D
100
AcDbEntity
  8
0
  6
ByLayer
 62
  256
370
   -1
100
AcDbCircle
 10
211.4875
 20
-2.825
 40
0.3
100
AcDbArc
 50
0
 51
90
  0
ARC
  5
20E
100
AcDbEntity
  8
0
  6
ByLayer
 62
  256
370
   -1
100
AcDbCircle
 10
198.0875
 20
-16.225
 40
0.3
100
AcDbArc
 50
180
 51
270
  0
ARC
  5
20F
100
AcDbEntity
  8
0
  6
ByLayer
 62
  256
370
   -1
100
AcDbCircle
 10
211.4875
 20
-16.225
 40
0.3
100
AcDbArc
 50
270
 51
0
  0
LINE
  5
210
100
AcDbEntity
  8
0
  6
ByLayer
 62
  256
370
   -1
100
AcDbLine
 10
55.2125
 20
-5.3825
 11
68.6125
 21
-5.3825
  0
LINE
  5
211
100
AcDbEntity
  8
0
  6
ByLayer
 62
  256
370
   -1
100
AcDbLine
 10
55.2125
 20
-19.3825
 11
68.6125
 21
-19.3825
  0
LINE
  5
212
100
AcDbEntity
  8
0
  6
ByLayer
 62
  256
370
   -1
100
AcDbLine
 10
54.9125
 20
-5.6825
 11
54.9125
 21
-19.0825
  0
LINE
  5
213
100
AcDbEntity
  8
0
  6
ByLayer
 62
  256
370
   -1
100
AcDbLine
 10
68.91249999999999
 20
-5.6825
 11
68.91249999999999
 21
-19.0825
  0
ARC
  5
214
100
AcDbEntity
  8
0
  6
ByLayer
 62
  256
370
   -1
100
AcDbCircle
 10
55.2125
 20
-5.6825
 40
0.3
100
AcDbArc
 50
90
 51
180
  0
ARC
  5
215
100
AcDbEntity
  8
0
  6
ByLayer
 62
  256
370
   -1
100
AcDbCircle
 10
68.6125
 20
-5.6825
 40
0.3
100
AcDbArc
 50
0
 51
90
  0
ARC
  5
216
100
AcDbEntity
  8
0
  6
ByLayer
 62
  256
370
   -1
100
AcDbCircle
 10
55.2125
 20
-19.0825
 40
0.3
100
AcDbArc
 50
180
 51
270
  0
ARC
  5
217
100
AcDbEntity
  8
0
  6
ByLayer
 62
  256
370
   -1
100
AcDbCircle
 10
68.6125
 20
-19.0825
 40
0.3
100
AcDbArc
 50
270
 51
0
  0
LINE
  5
218
100
AcDbEntity
  8
0
  6
ByLayer
 62
  256
370
   -1
100
AcDbLine
 10
93.3125
 20
-5.3825
 11
106.7125
 21
-5.3825
  0
LINE
  5
219
100
AcDbEntity
  8
0
  6
ByLayer
 62
  256
370
   -1
100
AcDbLine
 10
93.3125
 20
-19.3825
 11
106.7125
 21
-19.3825
  0
LINE
  5
21A
100
AcDbEntity
  8
0
  6
ByLayer
 62
  256
370
   -1
100
AcDbLine
 10
93.0125
 20
-5.6825
 11
93.0125
 21
-19.0825
  0
LINE
  5
21B
100
AcDbEntity
  8
0
  6
ByLayer
 62
  256
370
   -1
100
AcDbLine
 10
107.0125
 20
-5.6825
 11
107.0125
 21
-19.0825
  0
ARC
  5
21C
100
AcDbEntity
  8
0
  6
ByLayer
 62
  256
370
   -1
100
AcDbCircle
 10
93.3125
 20
-5.6825
 40
0.3
100
AcDbArc
 50
90
 51
180
  0
ARC
  5
21D
100
AcDbEntity
  8
0
  6
ByLayer
 62
  256
370
   -1
100
AcDbCircle
 10
106.7125
 20
-5.6825
 40
0.3
100
AcDbArc
 50
0
 51
90
  0
ARC
  5
21E
100
AcDbEntity
  8
0
  6
ByLayer
 62
  256
370
   -1
100
AcDbCircle
 10
93.3125
 20
-19.0825
 40
0.3
100
AcDbArc
 50
180
 51
270
  0
ARC
  5
21F
100
AcDbEntity
  8
0
  6
ByLayer
 62
  256
370
   -1
100
AcDbCircle
 10
106.7125
 20
-19.0825
 40
0.3
100
AcDbArc
 50
270
 51
0
  0
LINE
  5
220
100
AcDbEntity
  8
0
  6
ByLayer
 62
  256
370
   -1
100
AcDbLine
 10
136.175
 20
-5.3825
 11
149.575
 21
-5.3825
  0
LINE
  5
221
100
AcDbEntity
  8
0
  6
ByLayer
 62
  256
370
   -1
100
AcDbLine
 10
136.175
 20
-19.3825
 11
149.575
 21
-19.3825
  0
LINE
  5
222
100
AcDbEntity
  8
0
  6
ByLayer
 62
  256
370
   -1
100
AcDbLine
 10
135.875
 20
-5.6825
 11
135.875
 21
-19.0825
  0
LINE
  5
223
100
AcDbEntity
  8
0
  6
ByLayer
 62
  256
370
   -1
100
AcDbLine
 10
149.875
 20
-5.6825
 11
149.875
 21
-19.0825
  0
ARC
  5
224
100
AcDbEntity
  8
0
  6
ByLayer
 62
  256
370
   -1
100
AcDbCircle
 10
136.175
 20
-5.6825
 40
0.3
100
AcDbArc
 50
90
 51
180
  0
ARC
  5
225
100
AcDbEntity
  8
0
  6
ByLayer
 62
  256
370
   -1
100
AcDbCircle
 10
149.575
 20
-5.6825
 40
0.3
100
AcDbArc
 50
0
 51
90
  0
ARC
  5
226
100
AcDbEntity
  8
0
  6
ByLayer
 62
  256
370
   -1
100
AcDbCircle
 10
136.175
 20
-19.0825
 40
0.3
100
AcDbArc
 50
180
 51
270
  0
ARC
  5
227
100
AcDbEntity
  8
0
  6
ByLayer
 62
  256
370
   -1
100
AcDbCircle
 10
149.575
 20
-19.0825
 40
0.3
100
AcDbArc
 50
270
 51
0
  0
LINE
  5
228
100
AcDbEntity
  8
0
  6
ByLayer
 62
  256
370
   -1
100
AcDbLine
 10
179.0375
 20
-5.3825
 11
192.4375
 21
-5.3825
  0
LINE
  5
229
100
AcDbEntity
  8
0
  6
ByLayer
 62
  256
370
   -1
100
AcDbLine
 10
179.0375
 20
-19.3825
 11
192.4375
 21
-19.3825
  0
LINE
  5
22A
100
AcDbEntity
  8
0
  6
ByLayer
 62
  256
370
   -1
100
AcDbLine
 10
178.7375
 20
-5.6825
 11
178.7375
 21
-19.0825
  0
LINE
  5
22B
100
AcDbEntity
  8
0
  6
ByLayer
 62
  256
370
   -1
100
AcDbLine
 10
192.7375
 20
-5.6825
 11
192.7375
 21
-19.0825
  0
ARC
  5
22C
100
AcDbEntity
  8
0
  6
ByLayer
 62
  256
370
   -1
100
AcDbCircle
 10
179.0375
 20
-5.6825
 40
0.3
100
AcDbArc
 50
90
 51
180
  0
ARC
  5
22D
100
AcDbEntity
  8
0
  6
ByLayer
 62
  256
370
   -1
100
AcDbCircle
 10
192.4375
 20
-5.6825
 40
0.3
100
AcDbArc
 50
0
 51
90
  0
ARC
  5
22E
100
AcDbEntity
  8
0
  6
ByLayer
 62
  256
370
   -1
100
AcDbCircle
 10
179.0375
 20
-19.0825
 40
0.3
100
AcDbArc
 50
180
 51
270
  0
ARC
  5
22F
100
AcDbEntity
  8
0
  6
ByLayer
 62
  256
370
   -1
100
AcDbCircle
 10
192.4375
 20
-19.0825
 40
0.3
100
AcDbArc
 50
270
 51
0
  0
LINE
  5
230
100
AcDbEntity
  8
0
  6
ByLayer
 62
  256
370
   -1
100
AcDbLine
 10
217.1375
 20
-5.3825
 11
230.5375
 21
-5.3825
  0
LINE
  5
231
100
AcDbEntity
  8
0
  6
ByLayer
 62
  256
370
   -1
100
AcDbLine
 10
217.1375
 20
-19.3825
 11
230.5375
 21
-19.3825
  0
LINE
  5
232
100
AcDbEntity
  8
0
  6
ByLayer
 62
  256
370
   -1
100
AcDbLine
 10
216.8375
 20
-5.6825
 11
216.8375
 21
-19.0825
  0
LINE
  5
233
100
AcDbEntity
  8
0
  6
ByLayer
 62
  256
370
   -1
100
AcDbLine
 10
230.8375
 20
-5.6825
 11
230.8375
 21
-19.0825
  0
ARC
  5
234
100
AcDbEntity
  8
0
  6
ByLayer
 62
  256
370
   -1
100
AcDbCircle
 10
217.1375
 20
-5.6825
 40
0.3
100
AcDbArc
 50
90
 51
180
  0
ARC
  5
235
100
AcDbEntity
  8
0
  6
ByLayer
 62
  256
370
   -1
100
AcDbCircle
 10
230.5375
 20
-5.6825
 40
0.3
100
AcDbArc
 50
0
 51
90
  0
ARC
  5
236
100
AcDbEntity
  8
0
  6
ByLayer
 62
  256
370
   -1
100
AcDbCircle
 10
217.1375
 20
-19.0825
 40
0.3
100
AcDbArc
 50
180
 51
270
  0
ARC
  5
237
100
AcDbEntity
  8
0
  6
ByLayer
 62
  256
370
   -1
100
AcDbCircle
 10
230.5375
 20
-19.0825
 40
0.3
100
AcDbArc
 50
270
 51
0
  0
LINE
  5
238
100
AcDbEntity
  8
0
  6
ByLayer
 62
  256
370
   -1
100
AcDbLine
 10
17.1125
 20
-6.335
 11
30.5125
 21
-6.335
  0
LINE
  5
239
100
AcDbEntity
  8
0
  6
ByLayer
 62
  256
370
   -1
100
AcDbLine
 10
17.1125
 20
-20.335
 11
30.5125
 21
-20.335
  0
LINE
  5
23A
100
AcDbEntity
  8
0
  6
ByLayer
 62
  256
370
   -1
100
AcDbLine
 10
16.8125
 20
-6.635
 11
16.8125
 21
-20.035
  0
LINE
  5
23B
100
AcDbEntity
  8
0
  6
ByLayer
 62
  256
370
   -1
100
AcDbLine
 10
30.8125
 20
-6.635
 11
30.8125
 21
-20.035
  0
ARC
  5
23C
100
AcDbEntity
  8
0
  6
ByLayer
 62
  256
370
   -1
100
AcDbCircle
 10
17.1125
 20
-6.635
 40
0.3
100
AcDbArc
 50
90
 51
180
  0
ARC
  5
23D
100
AcDbEntity
  8
0
  6
ByLayer
 62
  256
370
   -1
100
AcDbCircle
 10
30.5125
 20
-6.635
 40
0.3
100
AcDbArc
 50
0
 51
90
  0
ARC
  5
23E
100
AcDbEntity
  8
0
  6
ByLayer
 62
  256
370
   -1
100
AcDbCircle
 10
17.1125
 20
-20.035
 40
0.3
100
AcDbArc
 50
180
 51
270
  0
ARC
  5
23F
100
AcDbEntity
  8
0
  6
ByLayer
 62
  256
370
   -1
100
AcDbCircle
 10
30.5125
 20
-20.035
 40
0.3
100
AcDbArc
 50
270
 51
0
  0
LINE
  5
240
100
AcDbEntity
  8
0
  6
ByLayer
 62
  256
370
   -1
100
AcDbLine
 10
255.2375
 20
-6.335
 11
268.6375
 21
-6.335
  0
LINE
  5
241
100
AcDbEntity
  8
0
  6
ByLayer
 62
  256
370
   -1
100
AcDbLine
 10
255.2375
 20
-20.335
 11
268.6375
 21
-20.335
  0
LINE
  5
242
100
AcDbEntity
  8
0
  6
ByLayer
 62
  256
370
   -1
100
AcDbLine
 10
254.9375
 20
-6.635
 11
254.9375
 21
-20.035
  0
LINE
  5
243
100
AcDbEntity
  8
0
  6
ByLayer
 62
  256
370
   -1
100
AcDbLine
 10
268.9375
 20
-6.635
 11
268.9375
 21
-20.035
  0
ARC
  5
244
100
AcDbEntity
  8
0
  6
ByLayer
 62
  256
370
   -1
100
AcDbCircle
 10
255.2375
 20
-6.635
 40
0.3
100
AcDbArc
 50
90
 51
180
  0
ARC
  5
245
100
AcDbEntity
  8
0
  6
ByLayer
 62
  256
370
   -1
100
AcDbCircle
 10
268.6375
 20
-6.635
 40
0.3
100
AcDbArc
 50
0
 51
90
  0
ARC
  5
246
100
AcDbEntity
  8
0
  6
ByLayer
 62
  256
370
   -1
100
AcDbCircle
 10
255.2375
 20
-20.035
 40
0.3
100
AcDbArc
 50
180
 51
270
  0
ARC
  5
247
100
AcDbEntity
  8
0
  6
ByLayer
 62
  256
370
   -1
100
AcDbCircle
 10
268.6375
 20
-20.035
 40
0.3
100
AcDbArc
 50
270
 51
0
  0
LINE
  5
248
100
AcDbEntity
  8
0
  6
ByLayer
 62
  256
370
   -1
100
AcDbLine
 10
112.3625
 20
-7.2875
 11
125.7625
 21
-7.2875
  0
LINE
  5
249
100
AcDbEntity
  8
0
  6
ByLayer
 62
  256
370
   -1
100
AcDbLine
 10
112.3625
 20
-21.2875
 11
125.7625
 21
-21.2875
  0
LINE
  5
24A
100
AcDbEntity
  8
0
  6
ByLayer
 62
  256
370
   -1
100
AcDbLine
 10
112.0625
 20
-7.5875
 11
112.0625
 21
-20.9875
  0
LINE
  5
24B
100
AcDbEntity
  8
0
  6
ByLayer
 62
  256
370
   -1
100
AcDbLine
 10
126.0625
 20
-7.5875
 11
126.0625
 21
-20.9875
  0
ARC
  5
24C
100
AcDbEntity
  8
0
  6
ByLayer
 62
  256
370
   -1
100
AcDbCircle
 10
112.3625
 20
-7.5875
 40
0.3
100
AcDbArc
 50
90
 51
180
  0
ARC
  5
24D
100
AcDbEntity
  8
0
  6
ByLayer
 62
  256
370
   -1
100
AcDbCircle
 10
125.7625
 20
-7.5875
 40
0.3
100
AcDbArc
 50
0
 51
90
  0
ARC
  5
24E
100
AcDbEntity
  8
0
  6
ByLayer
 62
  256
370
   -1
100
AcDbCircle
 10
112.3625
 20
-20.9875
 40
0.3
100
AcDbArc
 50
180
 51
270
  0
ARC
  5
24F
100
AcDbEntity
  8
0
  6
ByLayer
 62
  256
370
   -1
100
AcDbCircle
 10
125.7625
 20
-20.9875
 40
0.3
100
AcDbArc
 50
270
 51
0
  0
LINE
  5
250
100
AcDbEntity
  8
0
  6
ByLayer
 62
  256
370
   -1
100
AcDbLine
 10
159.9875
 20
-7.2875
 11
173.3875
 21
-7.2875
  0
LINE
  5
251
100
AcDbEntity
  8
0
  6
ByLayer
 62
  256
370
   -1
100
AcDbLine
 10
159.9875
 20
-21.2875
 11
173.3875
 21
-21.2875
  0
LINE
  5
252
100
AcDbEntity
  8
0
  6
ByLayer
 62
  256
370
   -1
100
AcDbLine
 10
159.6875
 20
-7.5875
 11
159.6875
 21
-20.9875
  0
LINE
  5
253
100
AcDbEntity
  8
0
  6
ByLayer
 62
  256
370
   -1
100
AcDbLine
 10
173.6875
 20
-7.5875
 11
173.6875
 21
-20.9875
  0
ARC
  5
254
100
AcDbEntity
  8
0
  6
ByLayer
 62
  256
370
   -1
100
AcDbCircle
 10
159.9875
 20
-7.5875
 40
0.3
100
AcDbArc
 50
90
 51
180
  0
ARC
  5
255
100
AcDbEntity
  8
0
  6
ByLayer
 62
  256
370
   -1
100
AcDbCircle
 10
173.3875
 20
-7.5875
 40
0.3
100
AcDbArc
 50
0
 51
90
  0
ARC
  5
256
100
AcDbEntity
  8
0
  6
ByLayer
 62
  256
370
   -1
100
AcDbCircle
 10
159.9875
 20
-20.9875
 40
0.3
100
AcDbArc
 50
180
 51
270
  0
ARC
  5
257
100
AcDbEntity
  8
0
  6
ByLayer
 62
  256
370
   -1
100
AcDbCircle
 10
173.3875
 20
-20.9875
 40
0.3
100
AcDbArc
 50
270
 51
0
  0
LINE
  5
258
100
AcDbEntity
  8
0
  6
ByLayer
 62
  256
370
   -1
100
AcDbLine
 10
36.1625
 20
-8.24
 11
49.5625
 21
-8.24
  0
LINE
  5
259
100
AcDbEntity
  8
0
  6
ByLayer
 62
  256
370
   -1
100
AcDbLine
 10
36.1625
 20
-22.24
 11
49.5625
 21
-22.24
  0
LINE
  5
25A
100
AcDbEntity
  8
0
  6
ByLayer
 62
  256
370
   -1
100
AcDbLine
 10
35.8625
 20
-8.539999999999999
 11
35.8625
 21
-21.94
  0
LINE
  5
25B
100
AcDbEntity
  8
0
  6
ByLayer
 62
  256
370
   -1
100
AcDbLine
 10
49.8625
 20
-8.539999999999999
 11
49.8625
 21
-21.94
  0
ARC
  5
25C
100
AcDbEntity
  8
0
  6
ByLayer
 62
  256
370
   -1
100
AcDbCircle
 10
36.1625
 20
-8.539999999999999
 40
0.3
100
AcDbArc
 50
90
 51
180
  0
ARC
  5
25D
100
AcDbEntity
  8
0
  6
ByLayer
 62
  256
370
   -1
100
AcDbCircle
 10
49.5625
 20
-8.539999999999999
 40
0.3
100
AcDbArc
 50
0
 51
90
  0
ARC
  5
25E
100
AcDbEntity
  8
0
  6
ByLayer
 62
  256
370
   -1
100
AcDbCircle
 10
36.1625
 20
-21.94
 40
0.3
100
AcDbArc
 50
180
 51
270
  0
ARC
  5
25F
100
AcDbEntity
  8
0
  6
ByLayer
 62
  256
370
   -1
100
AcDbCircle
 10
49.5625
 20
-21.94
 40
0.3
100
AcDbArc
 50
270
 51
0
  0
LINE
  5
260
100
AcDbEntity
  8
0
  6
ByLayer
 62
  256
370
   -1
100
AcDbLine
 10
236.1875
 20
-8.24
 11
249.5875
 21
-8.24
  0
LINE
  5
261
100
AcDbEntity
  8
0
  6
ByLayer
 62
  256
370
   -1
100
AcDbLine
 10
236.1875
 20
-22.24
 11
249.5875
 21
-22.24
  0
LINE
  5
262
100
AcDbEntity
  8
0
  6
ByLayer
 62
  256
370
   -1
100
AcDbLine
 10
235.8875
 20
-8.539999999999999
 11
235.8875
 21
-21.94
  0
LINE
  5
263
100
AcDbEntity
  8
0
  6
ByLayer
 62
  256
370
   -1
100
AcDbLine
 10
249.8875
 20
-8.539999999999999
 11
249.8875
 21
-21.94
  0
ARC
  5
264
100
AcDbEntity
  8
0
  6
ByLayer
 62
  256
370
   -1
100
AcDbCircle
 10
236.1875
 20
-8.539999999999999
 40
0.3
100
AcDbArc
 50
90
 51
180
  0
ARC
  5
265
100
AcDbEntity
  8
0
  6
ByLayer
 62
  256
370
   -1
100
AcDbCircle
 10
249.5875
 20
-8.539999999999999
 40
0.3
100
AcDbArc
 50
0
 51
90
  0
ARC
  5
266
100
AcDbEntity
  8
0
  6
ByLayer
 62
  256
370
   -1
100
AcDbCircle
 10
236.1875
 20
-21.94
 40
0.3
100
AcDbArc
 50
180
 51
270
  0
ARC
  5
267
100
AcDbEntity
  8
0
  6
ByLayer
 62
  256
370
   -1
100
AcDbCircle
 10
249.5875
 20
-21.94
 40
0.3
100
AcDbArc
 50
270
 51
0
  0
LINE
  5
268
100
AcDbEntity
  8
0
  6
ByLayer
 62
  256
370
   -1
100
AcDbLine
 10
74.2625
 20
-21.575
 11
87.66249999999999
 21
-21.575
  0
LINE
  5
269
100
AcDbEntity
  8
0
  6
ByLayer
 62
  256
370
   -1
100
AcDbLine
 10
74.2625
 20
-35.575
 11
87.66249999999999
 21
-35.575
  0
LINE
  5
26A
100
AcDbEntity
  8
0
  6
ByLayer
 62
  256
370
   -1
100
AcDbLine
 10
73.96250000000001
 20
-21.875
 11
73.96250000000001
 21
-35.275
  0
LINE
  5
26B
100
AcDbEntity
  8
0
  6
ByLayer
 62
  256
370
   -1
100
AcDbLine
 10
87.96250000000001
 20
-21.875
 11
87.96250000000001
 21
-35.275
  0
ARC
  5
26C
100
AcDbEntity
  8
0
  6
ByLayer
 62
  256
370
   -1
100
AcDbCircle
 10
74.2625
 20
-21.875
 40
0.3
100
AcDbArc
 50
90
 51
180
  0
ARC
  5
26D
100
AcDbEntity
  8
0
  6
ByLayer
 62
  256
370
   -1
100
AcDbCircle
 10
87.66249999999999
 20
-21.875
 40
0.3
100
AcDbArc
 50
0
 51
90
  0
ARC
  5
26E
100
AcDbEntity
  8
0
  6
ByLayer
 62
  256
370
   -1
100
AcDbCircle
 10
74.2625
 20
-35.275
 40
0.3
100
AcDbArc
 50
180
 51
270
  0
ARC
  5
26F
100
AcDbEntity
  8
0
  6
ByLayer
 62
  256
370
   -1
100
AcDbCircle
 10
87.66249999999999
 20
-35.275
 40
0.3
100
AcDbArc
 50
270
 51
0
  0
LINE
  5
270
100
AcDbEntity
  8
0
  6
ByLayer
 62
  256
370
   -1
100
AcDbLine
 10
198.0875
 20
-21.575
 11
211.4875
 21
-21.575
  0
LINE
  5
271
100
AcDbEntity
  8
0
  6
ByLayer
 62
  256
370
   -1
100
AcDbLine
 10
198.0875
 20
-35.575
 11
211.4875
 21
-35.575
  0
LINE
  5
272
100
AcDbEntity
  8
0
  6
ByLayer
 62
  256
370
   -1
100
AcDbLine
 10
197.7875
 20
-21.875
 11
197.7875
 21
-35.275
  0
LINE
  5
273
100
AcDbEntity
  8
0
  6
ByLayer
 62
  256
370
   -1
100
AcDbLine
 10
211.7875
 20
-21.875
 11
211.7875
 21
-35.275
  0
ARC
  5
274
100
AcDbEntity
  8
0
  6
ByLayer
 62
  256
370
   -1
100
AcDbCircle
 10
198.0875
 20
-21.875
 40
0.3
100
AcDbArc
 50
90
 51
180
  0
ARC
  5
275
100
AcDbEntity
  8
0
  6
ByLayer
 62
  256
370
   -1
100
AcDbCircle
 10
211.4875
 20
-21.875
 40
0.3
100
AcDbArc
 50
0
 51
90
  0
ARC
  5
276
100
AcDbEntity
  8
0
  6
ByLayer
 62
  256
370
   -1
100
AcDbCircle
 10
198.0875
 20
-35.275
 40
0.3
100
AcDbArc
 50
180
 51
270
  0
ARC
  5
277
100
AcDbEntity
  8
0
  6
ByLayer
 62
  256
370
   -1
100
AcDbCircle
 10
211.4875
 20
-35.275
 40
0.3
100
AcDbArc
 50
270
 51
0
  0
LINE
  5
278
100
AcDbEntity
  8
0
  6
ByLayer
 62
  256
370
   -1
100
AcDbLine
 10
55.2125
 20
-24.4325
 11
68.6125
 21
-24.4325
  0
LINE
  5
279
100
AcDbEntity
  8
0
  6
ByLayer
 62
  256
370
   -1
100
AcDbLine
 10
55.2125
 20
-38.4325
 11
68.6125
 21
-38.4325
  0
LINE
  5
27A
100
AcDbEntity
  8
0
  6
ByLayer
 62
  256
370
   -1
100
AcDbLine
 10
54.9125
 20
-24.7325
 11
54.9125
 21
-38.1325
  0
LINE
  5
27B
100
AcDbEntity
  8
0
  6
ByLayer
 62
  256
370
   -1
100
AcDbLine
 10
68.91249999999999
 20
-24.7325
 11
68.91249999999999
 21
-38.1325
  0
ARC
  5
27C
100
AcDbEntity
  8
0
  6
ByLayer
 62
  256
370
   -1
100
AcDbCircle
 10
55.2125
 20
-24.7325
 40
0.3
100
AcDbArc
 50
90
 51
180
  0
ARC
  5
27D
100
AcDbEntity
  8
0
  6
ByLayer
 62
  256
370
   -1
100
AcDbCircle
 10
68.6125
 20
-24.7325
 40
0.3
100
AcDbArc
 50
0
 51
90
  0
ARC
  5
27E
100
AcDbEntity
  8
0
  6
ByLayer
 62
  256
370
   -1
100
AcDbCircle
 10
55.2125
 20
-38.1325
 40
0.3
100
AcDbArc
 50
180
 51
270
  0
ARC
  5
27F
100
AcDbEntity
  8
0
  6
ByLayer
 62
  256
370
   -1
100
AcDbCircle
 10
68.6125
 20
-38.1325
 40
0.3
100
AcDbArc
 50
270
 51
0
  0
LINE
  5
280
100
AcDbEntity
  8
0
  6
ByLayer
 62
  256
370
   -1
100
AcDbLine
 10
93.3125
 20
-24.4325
 11
106.7125
 21
-24.4325
  0
LINE
  5
281
100
AcDbEntity
  8
0
  6
ByLayer
 62
  256
370
   -1
100
AcDbLine
 10
93.3125
 20
-38.4325
 11
106.7125
 21
-38.4325
  0
LINE
  5
282
100
AcDbEntity
  8
0
  6
ByLayer
 62
  256
370
   -1
100
AcDbLine
 10
93.0125
 20
-24.7325
 11
93.0125
 21
-38.1325
  0
LINE
  5
283
100
AcDbEntity
  8
0
  6
ByLayer
 62
  256
370
   -1
100
AcDbLine
 10
107.0125
 20
-24.7325
 11
107.0125
 21
-38.1325
  0
ARC
  5
284
100
AcDbEntity
  8
0
  6
ByLayer
 62
  256
370
   -1
100
AcDbCircle
 10
93.3125
 20
-24.7325
 40
0.3
100
AcDbArc
 50
90
 51
180
  0
ARC
  5
285
100
AcDbEntity
  8
0
  6
ByLayer
 62
  256
370
   -1
100
AcDbCircle
 10
106.7125
 20
-24.7325
 40
0.3
100
AcDbArc
 50
0
 51
90
  0
ARC
  5
286
100
AcDbEntity
  8
0
  6
ByLayer
 62
  256
370
   -1
100
AcDbCircle
 10
93.3125
 20
-38.1325
 40
0.3
100
AcDbArc
 50
180
 51
270
  0
ARC
  5
287
100
AcDbEntity
  8
0
  6
ByLayer
 62
  256
370
   -1
100
AcDbCircle
 10
106.7125
 20
-38.1325
 40
0.3
100
AcDbArc
 50
270
 51
0
  0
LINE
  5
288
100
AcDbEntity
  8
0
  6
ByLayer
 62
  256
370
   -1
100
AcDbLine
 10
136.175
 20
-24.4325
 11
149.575
 21
-24.4325
  0
LINE
  5
289
100
AcDbEntity
  8
0
  6
ByLayer
 62
  256
370
   -1
100
AcDbLine
 10
136.175
 20
-38.4325
 11
149.575
 21
-38.4325
  0
LINE
  5
28A
100
AcDbEntity
  8
0
  6
ByLayer
 62
  256
370
   -1
100
AcDbLine
 10
135.875
 20
-24.7325
 11
135.875
 21
-38.1325
  0
LINE
  5
28B
100
AcDbEntity
  8
0
  6
ByLayer
 62
  256
370
   -1
100
AcDbLine
 10
149.875
 20
-24.7325
 11
149.875
 21
-38.1325
  0
ARC
  5
28C
100
AcDbEntity
  8
0
  6
ByLayer
 62
  256
370
   -1
100
AcDbCircle
 10
136.175
 20
-24.7325
 40
0.3
100
AcDbArc
 50
90
 51
180
  0
ARC
  5
28D
100
AcDbEntity
  8
0
  6
ByLayer
 62
  256
370
   -1
100
AcDbCircle
 10
149.575
 20
-24.7325
 40
0.3
100
AcDbArc
 50
0
 51
90
  0
ARC
  5
28E
100
AcDbEntity
  8
0
  6
ByLayer
 62
  256
370
   -1
100
AcDbCircle
 10
136.175
 20
-38.1325
 40
0.3
100
AcDbArc
 50
180
 51
270
  0
ARC
  5
28F
100
AcDbEntity
  8
0
  6
ByLayer
 62
  256
370
   -1
100
AcDbCircle
 10
149.575
 20
-38.1325
 40
0.3
100
AcDbArc
 50
270
 51
0
  0
LINE
  5
290
100
AcDbEntity
  8
0
  6
ByLayer
 62
  256
370
   -1
100
AcDbLine
 10
179.0375
 20
-24.4325
 11
192.4375
 21
-24.4325
  0
LINE
  5
291
100
AcDbEntity
  8
0
  6
ByLayer
 62
  256
370
   -1
100
AcDbLine
 10
179.0375
 20
-38.4325
 11
192.4375
 21
-38.4325
  0
LINE
  5
292
100
AcDbEntity
  8
0
  6
ByLayer
 62
  256
370
   -1
100
AcDbLine
 10
178.7375
 20
-24.7325
 11
178.7375
 21
-38.1325
  0
LINE
  5
293
100
AcDbEntity
  8
0
  6
ByLayer
 62
  256
370
   -1
100
AcDbLine
 10
192.7375
 20
-24.7325
 11
192.7375
 21
-38.1325
  0
ARC
  5
294
100
AcDbEntity
  8
0
  6
ByLayer
 62
  256
370
   -1
100
AcDbCircle
 10
179.0375
 20
-24.7325
 40
0.3
100
AcDbArc
 50
90
 51
180
  0
ARC
  5
295
100
AcDbEntity
  8
0
  6
ByLayer
 62
  256
370
   -1
100
AcDbCircle
 10
192.4375
 20
-24.7325
 40
0.3
100
AcDbArc
 50
0
 51
90
  0
ARC
  5
296
100
AcDbEntity
  8
0
  6
ByLayer
 62
  256
370
   -1
100
AcDbCircle
 10
179.0375
 20
-38.1325
 40
0.3
100
AcDbArc
 50
180
 51
270
  0
ARC
  5
297
100
AcDbEntity
  8
0
  6
ByLayer
 62
  256
370
   -1
100
AcDbCircle
 10
192.4375
 20
-38.1325
 40
0.3
100
AcDbArc
 50
270
 51
0
  0
LINE
  5
298
100
AcDbEntity
  8
0
  6
ByLayer
 62
  256
370
   -1
100
AcDbLine
 10
217.1375
 20
-24.4325
 11
230.5375
 21
-24.4325
  0
LINE
  5
299
100
AcDbEntity
  8
0
  6
ByLayer
 62
  256
370
   -1
100
AcDbLine
 10
217.1375
 20
-38.4325
 11
230.5375
 21
-38.4325
  0
LINE
  5
29A
100
AcDbEntity
  8
0
  6
ByLayer
 62
  256
370
   -1
100
AcDbLine
 10
216.8375
 20
-24.7325
 11
216.8375
 21
-38.1325
  0
LINE
  5
29B
100
AcDbEntity
  8
0
  6
ByLayer
 62
  256
370
   -1
100
AcDbLine
 10
230.8375
 20
-24.7325
 11
230.8375
 21
-38.1325
  0
ARC
  5
29C
100
AcDbEntity
  8
0
  6
ByLayer
 62
  256
370
   -1
100
AcDbCircle
 10
217.1375
 20
-24.7325
 40
0.3
100
AcDbArc
 50
90
 51
180
  0
ARC
  5
29D
100
AcDbEntity
  8
0
  6
ByLayer
 62
  256
370
   -1
100
AcDbCircle
 10
230.5375
 20
-24.7325
 40
0.3
100
AcDbArc
 50
0
 51
90
  0
ARC
  5
29E
100
AcDbEntity
  8
0
  6
ByLayer
 62
  256
370
   -1
100
AcDbCircle
 10
217.1375
 20
-38.1325
 40
0.3
100
AcDbArc
 50
180
 51
270
  0
ARC
  5
29F
100
AcDbEntity
  8
0
  6
ByLayer
 62
  256
370
   -1
100
AcDbCircle
 10
230.5375
 20
-38.1325
 40
0.3
100
AcDbArc
 50
270
 51
0
  0
LINE
  5
2A0
100
AcDbEntity
  8
0
  6
ByLayer
 62
  256
370
   -1
100
AcDbLine
 10
12.35
 20
-25.385
 11
25.75
 21
-25.385
  0
LINE
  5
2A1
100
AcDbEntity
  8
0
  6
ByLayer
 62
  256
370
   -1
100
AcDbLine
 10
12.35
 20
-39.385
 11
25.75
 21
-39.385
  0
LINE
  5
2A2
100
AcDbEntity
  8
0
  6
ByLayer
 62
  256
370
   -1
100
AcDbLine
 10
12.05
 20
-25.685
 11
12.05
 21
-39.085
  0
LINE
  5
2A3
100
AcDbEntity
  8
0
  6
ByLayer
 62
  256
370
   -1
100
AcDbLine
 10
26.05
 20
-25.685
 11
26.05
 21
-39.085
  0
ARC
  5
2A4
100
AcDbEntity
  8
0
  6
ByLayer
 62
  256
370
   -1
100
AcDbCircle
 10
12.35
 20
-25.685
 40
0.3
100
AcDbArc
 50
90
 51
180
  0
ARC
  5
2A5
100
AcDbEntity
  8
0
  6
ByLayer
 62
  256
370
   -1
100
AcDbCircle
 10
25.75
 20
-25.685
 40
0.3
100
AcDbArc
 50
0
 51
90
  0
ARC
  5
2A6
100
AcDbEntity
  8
0
  6
ByLayer
 62
  256
370
   -1
100
AcDbCircle
 10
12.35
 20
-39.085
 40
0.3
100
AcDbArc
 50
180
 51
270
  0
ARC
  5
2A7
100
AcDbEntity
  8
0
  6
ByLayer
 62
  256
370
   -1
100
AcDbCircle
 10
25.75
 20
-39.085
 40
0.3
100
AcDbArc
 50
270
 51
0
  0
LINE
  5
2A8
100
AcDbEntity
  8
0
  6
ByLayer
 62
  256
370
   -1
100
AcDbLine
 10
260
 20
-25.385
 11
273.4
 21
-25.385
  0
LINE
  5
2A9
100
AcDbEntity
  8
0
  6
ByLayer
 62
  256
370
   -1
100
AcDbLine
 10
260
 20
-39.385
 11
273.4
 21
-39.385
  0
LINE
  5
2AA
100
AcDbEntity
  8
0
  6
ByLayer
 62
  256
370
   -1
100
AcDbLine
 10
259.7
 20
-25.685
 11
259.7
 21
-39.085
  0
LINE
  5
2AB
100
AcDbEntity
  8
0
  6
ByLayer
 62
  256
370
   -1
100
AcDbLine
 10
273.7
 20
-25.685
 11
273.7
 21
-39.085
  0
ARC
  5
2AC
100
AcDbEntity
  8
0
  6
ByLayer
 62
  256
370
   -1
100
AcDbCircle
 10
260
 20
-25.685
 40
0.3
100
AcDbArc
 50
90
 51
180
  0
ARC
  5
2AD
100
AcDbEntity
  8
0
  6
ByLayer
 62
  256
370
   -1
100
AcDbCircle
 10
273.4
 20
-25.685
 40
0.3
100
AcDbArc
 50
0
 51
90
  0
ARC
  5
2AE
100
AcDbEntity
  8
0
  6
ByLayer
 62
  256
370
   -1
100
AcDbCircle
 10
260
 20
-39.085
 40
0.3
100
AcDbArc
 50
180
 51
270
  0
ARC
  5
2AF
100
AcDbEntity
  8
0
  6
ByLayer
 62
  256
370
   -1
100
AcDbCircle
 10
273.4
 20
-39.085
 40
0.3
100
AcDbArc
 50
270
 51
0
  0
LINE
  5
2B0
100
AcDbEntity
  8
0
  6
ByLayer
 62
  256
370
   -1
100
AcDbLine
 10
112.3625
 20
-26.3375
 11
125.7625
 21
-26.3375
  0
LINE
  5
2B1
100
AcDbEntity
  8
0
  6
ByLayer
 62
  256
370
   -1
100
AcDbLine
 10
112.3625
 20
-40.3375
 11
125.7625
 21
-40.3375
  0
LINE
  5
2B2
100
AcDbEntity
  8
0
  6
ByLayer
 62
  256
370
   -1
100
AcDbLine
 10
112.0625
 20
-26.6375
 11
112.0625
 21
-40.0375
  0
LINE
  5
2B3
100
AcDbEntity
  8
0
  6
ByLayer
 62
  256
370
   -1
100
AcDbLine
 10
126.0625
 20
-26.6375
 11
126.0625
 21
-40.0375
  0
ARC
  5
2B4
100
AcDbEntity
  8
0
  6
ByLayer
 62
  256
370
   -1
100
AcDbCircle
 10
112.3625
 20
-26.6375
 40
0.3
100
AcDbArc
 50
90
 51
180
  0
ARC
  5
2B5
100
AcDbEntity
  8
0
  6
ByLayer
 62
  256
370
   -1
100
AcDbCircle
 10
125.7625
 20
-26.6375
 40
0.3
100
AcDbArc
 50
0
 51
90
  0
ARC
  5
2B6
100
AcDbEntity
  8
0
  6
ByLayer
 62
  256
370
   -1
100
AcDbCircle
 10
112.3625
 20
-40.0375
 40
0.3
100
AcDbArc
 50
180
 51
270
  0
ARC
  5
2B7
100
AcDbEntity
  8
0
  6
ByLayer
 62
  256
370
   -1
100
AcDbCircle
 10
125.7625
 20
-40.0375
 40
0.3
100
AcDbArc
 50
270
 51
0
  0
LINE
  5
2B8
100
AcDbEntity
  8
0
  6
ByLayer
 62
  256
370
   -1
100
AcDbLine
 10
159.9875
 20
-26.3375
 11
173.3875
 21
-26.3375
  0
LINE
  5
2B9
100
AcDbEntity
  8
0
  6
ByLayer
 62
  256
370
   -1
100
AcDbLine
 10
159.9875
 20
-40.3375
 11
173.3875
 21
-40.3375
  0
LINE
  5
2BA
100
AcDbEntity
  8
0
  6
ByLayer
 62
  256
370
   -1
100
AcDbLine
 10
159.6875
 20
-26.6375
 11
159.6875
 21
-40.0375
  0
LINE
  5
2BB
100
AcDbEntity
  8
0
  6
ByLayer
 62
  256
370
   -1
100
AcDbLine
 10
173.6875
 20
-26.6375
 11
173.6875
 21
-40.0375
  0
ARC
  5
2BC
100
AcDbEntity
  8
0
  6
ByLayer
 62
  256
370
   -1
100
AcDbCircle
 10
159.9875
 20
-26.6375
 40
0.3
100
AcDbArc
 50
90
 51
180
  0
ARC
  5
2BD
100
AcDbEntity
  8
0
  6
ByLayer
 62
  256
370
   -1
100
AcDbCircle
 10
173.3875
 20
-26.6375
 40
0.3
100
AcDbArc
 50
0
 51
90
  0
ARC
  5
2BE
100
AcDbEntity
  8
0
  6
ByLayer
 62
  256
370
   -1
100
AcDbCircle
 10
159.9875
 20
-40.0375
 40
0.3
100
AcDbArc
 50
180
 51
270
  0
ARC
  5
2BF
100
AcDbEntity
  8
0
  6
ByLayer
 62
  256
370
   -1
100
AcDbCircle
 10
173.3875
 20
-40.0375
 40
0.3
100
AcDbArc
 50
270
 51
0
  0
LINE
  5
2C0
100
AcDbEntity
  8
0
  6
ByLayer
 62
  256
370
   -1
100
AcDbLine
 10
36.1625
 20
-27.29
 11
49.5625
 21
-27.29
  0
LINE
  5
2C1
100
AcDbEntity
  8
0
  6
ByLayer
 62
  256
370
   -1
100
AcDbLine
 10
36.1625
 20
-41.29
 11
49.5625
 21
-41.29
  0
LINE
  5
2C2
100
AcDbEntity
  8
0
  6
ByLayer
 62
  256
370
   -1
100
AcDbLine
 10
35.8625
 20
-27.59
 11
35.8625
 21
-40.99
  0
LINE
  5
2C3
100
AcDbEntity
  8
0
  6
ByLayer
 62
  256
370
   -1
100
AcDbLine
 10
49.8625
 20
-27.59
 11
49.8625
 21
-40.99
  0
ARC
  5
2C4
100
AcDbEntity
  8
0
  6
ByLayer
 62
  256
370
   -1
100
AcDbCircle
 10
36.1625
 20
-27.59
 40
0.3
100
AcDbArc
 50
90
 51
180
  0
ARC
  5
2C5
100
AcDbEntity
  8
0
  6
ByLayer
 62
  256
370
   -1
100
AcDbCircle
 10
49.5625
 20
-27.59
 40
0.3
100
AcDbArc
 50
0
 51
90
  0
ARC
  5
2C6
100
AcDbEntity
  8
0
  6
ByLayer
 62
  256
370
   -1
100
AcDbCircle
 10
36.1625
 20
-40.99
 40
0.3
100
AcDbArc
 50
180
 51
270
  0
ARC
  5
2C7
100
AcDbEntity
  8
0
  6
ByLayer
 62
  256
370
   -1
100
AcDbCircle
 10
49.5625
 20
-40.99
 40
0.3
100
AcDbArc
 50
270
 51
0
  0
LINE
  5
2C8
100
AcDbEntity
  8
0
  6
ByLayer
 62
  256
370
   -1
100
AcDbLine
 10
236.1875
 20
-27.29
 11
249.5875
 21
-27.29
  0
LINE
  5
2C9
100
AcDbEntity
  8
0
  6
ByLayer
 62
  256
370
   -1
100
AcDbLine
 10
236.1875
 20
-41.29
 11
249.5875
 21
-41.29
  0
LINE
  5
2CA
100
AcDbEntity
  8
0
  6
ByLayer
 62
  256
370
   -1
100
AcDbLine
 10
235.8875
 20
-27.59
 11
235.8875
 21
-40.99
  0
LINE
  5
2CB
100
AcDbEntity
  8
0
  6
ByLayer
 62
  256
370
   -1
100
AcDbLine
 10
249.8875
 20
-27.59
 11
249.8875
 21
-40.99
  0
ARC
  5
2CC
100
AcDbEntity
  8
0
  6
ByLayer
 62
  256
370
   -1
100
AcDbCircle
 10
236.1875
 20
-27.59
 40
0.3
100
AcDbArc
 50
90
 51
180
  0
ARC
  5
2CD
100
AcDbEntity
  8
0
  6
ByLayer
 62
  256
370
   -1
100
AcDbCircle
 10
249.5875
 20
-27.59
 40
0.3
100
AcDbArc
 50
0
 51
90
  0
ARC
  5
2CE
100
AcDbEntity
  8
0
  6
ByLayer
 62
  256
370
   -1
100
AcDbCircle
 10
236.1875
 20
-40.99
 40
0.3
100
AcDbArc
 50
180
 51
270
  0
ARC
  5
2CF
100
AcDbEntity
  8
0
  6
ByLayer
 62
  256
370
   -1
100
AcDbCircle
 10
249.5875
 20
-40.99
 40
0.3
100
AcDbArc
 50
270
 51
0
  0
LINE
  5
2D0
100
AcDbEntity
  8
0
  6
ByLayer
 62
  256
370
   -1
100
AcDbLine
 10
74.2625
 20
-40.625
 11
87.66249999999999
 21
-40.625
  0
LINE
  5
2D1
100
AcDbEntity
  8
0
  6
ByLayer
 62
  256
370
   -1
100
AcDbLine
 10
74.2625
 20
-54.625
 11
87.66249999999999
 21
-54.625
  0
LINE
  5
2D2
100
AcDbEntity
  8
0
  6
ByLayer
 62
  256
370
   -1
100
AcDbLine
 10
73.96250000000001
 20
-40.925
 11
73.96250000000001
 21
-54.325
  0
LINE
  5
2D3
100
AcDbEntity
  8
0
  6
ByLayer
 62
  256
370
   -1
100
AcDbLine
 10
87.96250000000001
 20
-40.925
 11
87.96250000000001
 21
-54.325
  0
ARC
  5
2D4
100
AcDbEntity
  8
0
  6
ByLayer
 62
  256
370
   -1
100
AcDbCircle
 10
74.2625
 20
-40.925
 40
0.3
100
AcDbArc
 50
90
 51
180
  0
ARC
  5
2D5
100
AcDbEntity
  8
0
  6
ByLayer
 62
  256
370
   -1
100
AcDbCircle
 10
87.66249999999999
 20
-40.925
 40
0.3
100
AcDbArc
 50
0
 51
90
  0
ARC
  5
2D6
100
AcDbEntity
  8
0
  6
ByLayer
 62
  256
370
   -1
100
AcDbCircle
 10
74.2625
 20
-54.325
 40
0.3
100
AcDbArc
 50
180
 51
270
  0
ARC
  5
2D7
100
AcDbEntity
  8
0
  6
ByLayer
 62
  256
370
   -1
100
AcDbCircle
 10
87.66249999999999
 20
-54.325
 40
0.3
100
AcDbArc
 50
270
 51
0
  0
LINE
  5
2D8
100
AcDbEntity
  8
0
  6
ByLayer
 62
  256
370
   -1
100
AcDbLine
 10
198.0875
 20
-40.625
 11
211.4875
 21
-40.625
  0
LINE
  5
2D9
100
AcDbEntity
  8
0
  6
ByLayer
 62
  256
370
   -1
100
AcDbLine
 10
198.0875
 20
-54.625
 11
211.4875
 21
-54.625
  0
LINE
  5
2DA
100
AcDbEntity
  8
0
  6
ByLayer
 62
  256
370
   -1
100
AcDbLine
 10
197.7875
 20
-40.925
 11
197.7875
 21
-54.325
  0
LINE
  5
2DB
100
AcDbEntity
  8
0
  6
ByLayer
 62
  256
370
   -1
100
AcDbLine
 10
211.7875
 20
-40.925
 11
211.7875
 21
-54.325
  0
ARC
  5
2DC
100
AcDbEntity
  8
0
  6
ByLayer
 62
  256
370
   -1
100
AcDbCircle
 10
198.0875
 20
-40.925
 40
0.3
100
AcDbArc
 50
90
 51
180
  0
ARC
  5
2DD
100
AcDbEntity
  8
0
  6
ByLayer
 62
  256
370
   -1
100
AcDbCircle
 10
211.4875
 20
-40.925
 40
0.3
100
AcDbArc
 50
0
 51
90
  0
ARC
  5
2DE
100
AcDbEntity
  8
0
  6
ByLayer
 62
  256
370
   -1
100
AcDbCircle
 10
198.0875
 20
-54.325
 40
0.3
100
AcDbArc
 50
180
 51
270
  0
ARC
  5
2DF
100
AcDbEntity
  8
0
  6
ByLayer
 62
  256
370
   -1
100
AcDbCircle
 10
211.4875
 20
-54.325
 40
0.3
100
AcDbArc
 50
270
 51
0
  0
LINE
  5
2E0
100
AcDbEntity
  8
0
  6
ByLayer
 62
  256
370
   -1
100
AcDbLine
 10
55.2125
 20
-43.4825
 11
68.6125
 21
-43.4825
  0
LINE
  5
2E1
100
AcDbEntity
  8
0
  6
ByLayer
 62
  256
370
   -1
100
AcDbLine
 10
55.2125
 20
-57.4825
 11
68.6125
 21
-57.4825
  0
LINE
  5
2E2
100
AcDbEntity
  8
0
  6
ByLayer
 62
  256
370
   -1
100
AcDbLine
 10
54.9125
 20
-43.7825
 11
54.9125
 21
-57.1825
  0
LINE
  5
2E3
100
AcDbEntity
  8
0
  6
ByLayer
 62
  256
370
   -1
100
AcDbLine
 10
68.91249999999999
 20
-43.7825
 11
68.91249999999999
 21
-57.1825
  0
ARC
  5
2E4
100
AcDbEntity
  8
0
  6
ByLayer
 62
  256
370
   -1
100
AcDbCircle
 10
55.2125
 20
-43.7825
 40
0.3
100
AcDbArc
 50
90
 51
180
  0
ARC
  5
2E5
100
AcDbEntity
  8
0
  6
ByLayer
 62
  256
370
   -1
100
AcDbCircle
 10
68.6125
 20
-43.7825
 40
0.3
100
AcDbArc
 50
0
 51
90
  0
ARC
  5
2E6
100
AcDbEntity
  8
0
  6
ByLayer
 62
  256
370
   -1
100
AcDbCircle
 10
55.2125
 20
-57.1825
 40
0.3
100
AcDbArc
 50
180
 51
270
  0
ARC
  5
2E7
100
AcDbEntity
  8
0
  6
ByLayer
 62
  256
370
   -1
100
AcDbCircle
 10
68.6125
 20
-57.1825
 40
0.3
100
AcDbArc
 50
270
 51
0
  0
LINE
  5
2E8
100
AcDbEntity
  8
0
  6
ByLayer
 62
  256
370
   -1
100
AcDbLine
 10
93.3125
 20
-43.4825
 11
106.7125
 21
-43.4825
  0
LINE
  5
2E9
100
AcDbEntity
  8
0
  6
ByLayer
 62
  256
370
   -1
100
AcDbLine
 10
93.3125
 20
-57.4825
 11
106.7125
 21
-57.4825
  0
LINE
  5
2EA
100
AcDbEntity
  8
0
  6
ByLayer
 62
  256
370
   -1
100
AcDbLine
 10
93.0125
 20
-43.7825
 11
93.0125
 21
-57.1825
  0
LINE
  5
2EB
100
AcDbEntity
  8
0
  6
ByLayer
 62
  256
370
   -1
100
AcDbLine
 10
107.0125
 20
-43.7825
 11
107.0125
 21
-57.1825
  0
ARC
  5
2EC
100
AcDbEntity
  8
0
  6
ByLayer
 62
  256
370
   -1
100
AcDbCircle
 10
93.3125
 20
-43.7825
 40
0.3
100
AcDbArc
 50
90
 51
180
  0
ARC
  5
2ED
100
AcDbEntity
  8
0
  6
ByLayer
 62
  256
370
   -1
100
AcDbCircle
 10
106.7125
 20
-43.7825
 40
0.3
100
AcDbArc
 50
0
 51
90
  0
ARC
  5
2EE
100
AcDbEntity
  8
0
  6
ByLayer
 62
  256
370
   -1
100
AcDbCircle
 10
93.3125
 20
-57.1825
 40
0.3
100
AcDbArc
 50
180
 51
270
  0
ARC
  5
2EF
100
AcDbEntity
  8
0
  6
ByLayer
 62
  256
370
   -1
100
AcDbCircle
 10
106.7125
 20
-57.1825
 40
0.3
100
AcDbArc
 50
270
 51
0
  0
LINE
  5
2F0
100
AcDbEntity
  8
0
  6
ByLayer
 62
  256
370
   -1
100
AcDbLine
 10
179.0375
 20
-43.4825
 11
192.4375
 21
-43.4825
  0
LINE
  5
2F1
100
AcDbEntity
  8
0
  6
ByLayer
 62
  256
370
   -1
100
AcDbLine
 10
179.0375
 20
-57.4825
 11
192.4375
 21
-57.4825
  0
LINE
  5
2F2
100
AcDbEntity
  8
0
  6
ByLayer
 62
  256
370
   -1
100
AcDbLine
 10
178.7375
 20
-43.7825
 11
178.7375
 21
-57.1825
  0
LINE
  5
2F3
100
AcDbEntity
  8
0
  6
ByLayer
 62
  256
370
   -1
100
AcDbLine
 10
192.7375
 20
-43.7825
 11
192.7375
 21
-57.1825
  0
ARC
  5
2F4
100
AcDbEntity
  8
0
  6
ByLayer
 62
  256
370
   -1
100
AcDbCircle
 10
179.0375
 20
-43.7825
 40
0.3
100
AcDbArc
 50
90
 51
180
  0
ARC
  5
2F5
100
AcDbEntity
  8
0
  6
ByLayer
 62
  256
370
   -1
100
AcDbCircle
 10
192.4375
 20
-43.7825
 40
0.3
100
AcDbArc
 50
0
 51
90
  0
ARC
  5
2F6
100
AcDbEntity
  8
0
  6
ByLayer
 62
  256
370
   -1
100
AcDbCircle
 10
179.0375
 20
-57.1825
 40
0.3
100
AcDbArc
 50
180
 51
270
  0
ARC
  5
2F7
100
AcDbEntity
  8
0
  6
ByLayer
 62
  256
370
   -1
100
AcDbCircle
 10
192.4375
 20
-57.1825
 40
0.3
100
AcDbArc
 50
270
 51
0
  0
LINE
  5
2F8
100
AcDbEntity
  8
0
  6
ByLayer
 62
  256
370
   -1
100
AcDbLine
 10
217.1375
 20
-43.4825
 11
230.5375
 21
-43.4825
  0
LINE
  5
2F9
100
AcDbEntity
  8
0
  6
ByLayer
 62
  256
370
   -1
100
AcDbLine
 10
217.1375
 20
-57.4825
 11
230.5375
 21
-57.4825
  0
LINE
  5
2FA
100
AcDbEntity
  8
0
  6
ByLayer
 62
  256
370
   -1
100
AcDbLine
 10
216.8375
 20
-43.7825
 11
216.8375
 21
-57.1825
  0
LINE
  5
2FB
100
AcDbEntity
  8
0
  6
ByLayer
 62
  256
370
   -1
100
AcDbLine
 10
230.8375
 20
-43.7825
 11
230.8375
 21
-57.1825
  0
ARC
  5
2FC
100
AcDbEntity
  8
0
  6
ByLayer
 62
  256
370
   -1
100
AcDbCircle
 10
217.1375
 20
-43.7825
 40
0.3
100
AcDbArc
 50
90
 51
180
  0
ARC
  5
2FD
100
AcDbEntity
  8
0
  6
ByLayer
 62
  256
370
   -1
100
AcDbCircle
 10
230.5375
 20
-43.7825
 40
0.3
100
AcDbArc
 50
0
 51
90
  0
ARC
  5
2FE
100
AcDbEntity
  8
0
  6
ByLayer
 62
  256
370
   -1
100
AcDbCircle
 10
217.1375
 20
-57.1825
 40
0.3
100
AcDbArc
 50
180
 51
270
  0
ARC
  5
2FF
100
AcDbEntity
  8
0
  6
ByLayer
 62
  256
370
   -1
100
AcDbCircle
 10
230.5375
 20
-57.1825
 40
0.3
100
AcDbArc
 50
270
 51
0
  0
LINE
  5
300
100
AcDbEntity
  8
0
  6
ByLayer
 62
  256
370
   -1
100
AcDbLine
 10
9.96875
 20
-44.435
 11
23.36875
 21
-44.435
  0
LINE
  5
301
100
AcDbEntity
  8
0
  6
ByLayer
 62
  256
370
   -1
100
AcDbLine
 10
9.96875
 20
-58.435
 11
23.36875
 21
-58.435
  0
LINE
  5
302
100
AcDbEntity
  8
0
  6
ByLayer
 62
  256
370
   -1
100
AcDbLine
 10
9.668749999999999
 20
-44.735
 11
9.668749999999999
 21
-58.135
  0
LINE
  5
303
100
AcDbEntity
  8
0
  6
ByLayer
 62
  256
370
   -1
100
AcDbLine
 10
23.66875
 20
-44.735
 11
23.66875
 21
-58.135
  0
ARC
  5
304
100
AcDbEntity
  8
0
  6
ByLayer
 62
  256
370
   -1
100
AcDbCircle
 10
9.96875
 20
-44.735
 40
0.3
100
AcDbArc
 50
90
 51
180
  0
ARC
  5
305
100
AcDbEntity
  8
0
  6
ByLayer
 62
  256
370
   -1
100
AcDbCircle
 10
23.36875
 20
-44.735
 40
0.3
100
AcDbArc
 50
0
 51
90
  0
ARC
  5
306
100
AcDbEntity
  8
0
  6
ByLayer
 62
  256
370
   -1
100
AcDbCircle
 10
9.96875
 20
-58.135
 40
0.3
100
AcDbArc
 50
180
 51
270
  0
ARC
  5
307
100
AcDbEntity
  8
0
  6
ByLayer
 62
  256
370
   -1
100
AcDbCircle
 10
23.36875
 20
-58.135
 40
0.3
100
AcDbArc
 50
270
 51
0
  0
LINE
  5
308
100
AcDbEntity
  8
0
  6
ByLayer
 62
  256
370
   -1
100
AcDbLine
 10
262.38125
 20
-44.435
 11
275.78125
 21
-44.435
  0
LINE
  5
309
100
AcDbEntity
  8
0
  6
ByLayer
 62
  256
370
   -1
100
AcDbLine
 10
262.38125
 20
-58.435
 11
275.78125
 21
-58.435
  0
LINE
  5
30A
100
AcDbEntity
  8
0
  6
ByLayer
 62
  256
370
   -1
100
AcDbLine
 10
262.08125
 20
-44.735
 11
262.08125
 21
-58.135
  0
LINE
  5
30B
100
AcDbEntity
  8
0
  6
ByLayer
 62
  256
370
   -1
100
AcDbLine
 10
276.08125
 20
-44.735
 11
276.08125
 21
-58.135
  0
ARC
  5
30C
100
AcDbEntity
  8
0
  6
ByLayer
 62
  256
370
   -1
100
AcDbCircle
 10
262.38125
 20
-44.735
 40
0.3
100
AcDbArc
 50
90
 51
180
  0
ARC
  5
30D
100
AcDbEntity
  8
0
  6
ByLayer
 62
  256
370
   -1
100
AcDbCircle
 10
275.78125
 20
-44.735
 40
0.3
100
AcDbArc
 50
0
 51
90
  0
ARC
  5
30E
100
AcDbEntity
  8
0
  6
ByLayer
 62
  256
370
   -1
100
AcDbCircle
 10
262.38125
 20
-58.135
 40
0.3
100
AcDbArc
 50
180
 51
270
  0
ARC
  5
30F
100
AcDbEntity
  8
0
  6
ByLayer
 62
  256
370
   -1
100
AcDbCircle
 10
275.78125
 20
-58.135
 40
0.3
100
AcDbArc
 50
270
 51
0
  0
LINE
  5
310
100
AcDbEntity
  8
0
  6
ByLayer
 62
  256
370
   -1
100
AcDbLine
 10
112.3625
 20
-45.3875
 11
125.7625
 21
-45.3875
  0
LINE
  5
311
100
AcDbEntity
  8
0
  6
ByLayer
 62
  256
370
   -1
100
AcDbLine
 10
112.3625
 20
-59.3875
 11
125.7625
 21
-59.3875
  0
LINE
  5
312
100
AcDbEntity
  8
0
  6
ByLayer
 62
  256
370
   -1
100
AcDbLine
 10
112.0625
 20
-45.6875
 11
112.0625
 21
-59.0875
  0
LINE
  5
313
100
AcDbEntity
  8
0
  6
ByLayer
 62
  256
370
   -1
100
AcDbLine
 10
126.0625
 20
-45.6875
 11
126.0625
 21
-59.0875
  0
ARC
  5
314
100
AcDbEntity
  8
0
  6
ByLayer
 62
  256
370
   -1
100
AcDbCircle
 10
112.3625
 20
-45.6875
 40
0.3
100
AcDbArc
 50
90
 51
180
  0
ARC
  5
315
100
AcDbEntity
  8
0
  6
ByLayer
 62
  256
370
   -1
100
AcDbCircle
 10
125.7625
 20
-45.6875
 40
0.3
100
AcDbArc
 50
0
 51
90
  0
ARC
  5
316
100
AcDbEntity
  8
0
  6
ByLayer
 62
  256
370
   -1
100
AcDbCircle
 10
112.3625
 20
-59.0875
 40
0.3
100
AcDbArc
 50
180
 51
270
  0
ARC
  5
317
100
AcDbEntity
  8
0
  6
ByLayer
 62
  256
370
   -1
100
AcDbCircle
 10
125.7625
 20
-59.0875
 40
0.3
100
AcDbArc
 50
270
 51
0
  0
LINE
  5
318
100
AcDbEntity
  8
0
  6
ByLayer
 62
  256
370
   -1
100
AcDbLine
 10
159.9875
 20
-45.3875
 11
173.3875
 21
-45.3875
  0
LINE
  5
319
100
AcDbEntity
  8
0
  6
ByLayer
 62
  256
370
   -1
100
AcDbLine
 10
159.9875
 20
-59.3875
 11
173.3875
 21
-59.3875
  0
LINE
  5
31A
100
AcDbEntity
  8
0
  6
ByLayer
 62
  256
370
   -1
100
AcDbLine
 10
159.6875
 20
-45.6875
 11
159.6875
 21
-59.0875
  0
LINE
  5
31B
100
AcDbEntity
  8
0
  6
ByLayer
 62
  256
370
   -1
100
AcDbLine
 10
173.6875
 20
-45.6875
 11
173.6875
 21
-59.0875
  0
ARC
  5
31C
100
AcDbEntity
  8
0
  6
ByLayer
 62
  256
370
   -1
100
AcDbCircle
 10
159.9875
 20
-45.6875
 40
0.3
100
AcDbArc
 50
90
 51
180
  0
ARC
  5
31D
100
AcDbEntity
  8
0
  6
ByLayer
 62
  256
370
   -1
100
AcDbCircle
 10
173.3875
 20
-45.6875
 40
0.3
100
AcDbArc
 50
0
 51
90
  0
ARC
  5
31E
100
AcDbEntity
  8
0
  6
ByLayer
 62
  256
370
   -1
100
AcDbCircle
 10
159.9875
 20
-59.0875
 40
0.3
100
AcDbArc
 50
180
 51
270
  0
ARC
  5
31F
100
AcDbEntity
  8
0
  6
ByLayer
 62
  256
370
   -1
100
AcDbCircle
 10
173.3875
 20
-59.0875
 40
0.3
100
AcDbArc
 50
270
 51
0
  0
LINE
  5
320
100
AcDbEntity
  8
0
  6
ByLayer
 62
  256
370
   -1
100
AcDbLine
 10
36.1625
 20
-46.34
 11
49.5625
 21
-46.34
  0
LINE
  5
321
100
AcDbEntity
  8
0
  6
ByLayer
 62
  256
370
   -1
100
AcDbLine
 10
36.1625
 20
-60.34
 11
49.5625
 21
-60.34
  0
LINE
  5
322
100
AcDbEntity
  8
0
  6
ByLayer
 62
  256
370
   -1
100
AcDbLine
 10
35.8625
 20
-46.64
 11
35.8625
 21
-60.04
  0
LINE
  5
323
100
AcDbEntity
  8
0
  6
ByLayer
 62
  256
370
   -1
100
AcDbLine
 10
49.8625
 20
-46.64
 11
49.8625
 21
-60.04
  0
ARC
  5
324
100
AcDbEntity
  8
0
  6
ByLayer
 62
  256
370
   -1
100
AcDbCircle
 10
36.1625
 20
-46.64
 40
0.3
100
AcDbArc
 50
90
 51
180
  0
ARC
  5
325
100
AcDbEntity
  8
0
  6
ByLayer
 62
  256
370
   -1
100
AcDbCircle
 10
49.5625
 20
-46.64
 40
0.3
100
AcDbArc
 50
0
 51
90
  0
ARC
  5
326
100
AcDbEntity
  8
0
  6
ByLayer
 62
  256
370
   -1
100
AcDbCircle
 10
36.1625
 20
-60.04
 40
0.3
100
AcDbArc
 50
180
 51
270
  0
ARC
  5
327
100
AcDbEntity
  8
0
  6
ByLayer
 62
  256
370
   -1
100
AcDbCircle
 10
49.5625
 20
-60.04
 40
0.3
100
AcDbArc
 50
270
 51
0
  0
LINE
  5
328
100
AcDbEntity
  8
0
  6
ByLayer
 62
  256
370
   -1
100
AcDbLine
 10
236.1875
 20
-46.34
 11
249.5875
 21
-46.34
  0
LINE
  5
329
100
AcDbEntity
  8
0
  6
ByLayer
 62
  256
370
   -1
100
AcDbLine
 10
236.1875
 20
-60.34
 11
249.5875
 21
-60.34
  0
LINE
  5
32A
100
AcDbEntity
  8
0
  6
ByLayer
 62
  256
370
   -1
100
AcDbLine
 10
235.8875
 20
-46.64
 11
235.8875
 21
-60.04
  0
LINE
  5
32B
100
AcDbEntity
  8
0
  6
ByLayer
 62
  256
370
   -1
100
AcDbLine
 10
249.8875
 20
-46.64
 11
249.8875
 21
-60.04
  0
ARC
  5
32C
100
AcDbEntity
  8
0
  6
ByLayer
 62
  256
370
   -1
100
AcDbCircle
 10
236.1875
 20
-46.64
 40
0.3
100
AcDbArc
 50
90
 51
180
  0
ARC
  5
32D
100
AcDbEntity
  8
0
  6
ByLayer
 62
  256
370
   -1
100
AcDbCircle
 10
249.5875
 20
-46.64
 40
0.3
100
AcDbArc
 50
0
 51
90
  0
ARC
  5
32E
100
AcDbEntity
  8
0
  6
ByLayer
 62
  256
370
   -1
100
AcDbCircle
 10
236.1875
 20
-60.04
 40
0.3
100
AcDbArc
 50
180
 51
270
  0
ARC
  5
32F
100
AcDbEntity
  8
0
  6
ByLayer
 62
  256
370
   -1
100
AcDbCircle
 10
249.5875
 20
-60.04
 40
0.3
100
AcDbArc
 50
270
 51
0
  0
LINE
  5
330
100
AcDbEntity
  8
0
  6
ByLayer
 62
  256
370
   -1
100
AcDbLine
 10
57.59375
 20
-62.5325
 11
70.99375000000001
 21
-62.5325
  0
LINE
  5
331
100
AcDbEntity
  8
0
  6
ByLayer
 62
  256
370
   -1
100
AcDbLine
 10
57.59375
 20
-76.5325
 11
70.99375000000001
 21
-76.5325
  0
LINE
  5
332
100
AcDbEntity
  8
0
  6
ByLayer
 62
  256
370
   -1
100
AcDbLine
 10
57.29375
 20
-62.8325
 11
57.29375
 21
-76.2325
  0
LINE
  5
333
100
AcDbEntity
  8
0
  6
ByLayer
 62
  256
370
   -1
100
AcDbLine
 10
71.29375
 20
-62.8325
 11
71.29375
 21
-76.2325
  0
ARC
  5
334
100
AcDbEntity
  8
0
  6
ByLayer
 62
  256
370
   -1
100
AcDbCircle
 10
57.59375
 20
-62.8325
 40
0.3
100
AcDbArc
 50
90
 51
180
  0
ARC
  5
335
100
AcDbEntity
  8
0
  6
ByLayer
 62
  256
370
   -1
100
AcDbCircle
 10
70.99375000000001
 20
-62.8325
 40
0.3
100
AcDbArc
 50
0
 51
90
  0
ARC
  5
336
100
AcDbEntity
  8
0
  6
ByLayer
 62
  256
370
   -1
100
AcDbCircle
 10
57.59375
 20
-76.2325
 40
0.3
100
AcDbArc
 50
180
 51
270
  0
ARC
  5
337
100
AcDbEntity
  8
0
  6
ByLayer
 62
  256
370
   -1
100
AcDbCircle
 10
70.99375000000001
 20
-76.2325
 40
0.3
100
AcDbArc
 50
270
 51
0
  0
LINE
  5
338
100
AcDbEntity
  8
0
  6
ByLayer
 62
  256
370
   -1
100
AcDbLine
 10
79.02500000000001
 20
-62.5325
 11
92.425
 21
-62.5325
  0
LINE
  5
339
100
AcDbEntity
  8
0
  6
ByLayer
 62
  256
370
   -1
100
AcDbLine
 10
79.02500000000001
 20
-76.5325
 11
92.425
 21
-76.5325
  0
LINE
  5
33A
100
AcDbEntity
  8
0
  6
ByLayer
 62
  256
370
   -1
100
AcDbLine
 10
78.72499999999999
 20
-62.8325
 11
78.72499999999999
 21
-76.2325
  0
LINE
  5
33B
100
AcDbEntity
  8
0
  6
ByLayer
 62
  256
370
   -1
100
AcDbLine
 10
92.72499999999999
 20
-62.8325
 11
92.72499999999999
 21
-76.2325
  0
ARC
  5
33C
100
AcDbEntity
  8
0
  6
ByLayer
 62
  256
370
   -1
100
AcDbCircle
 10
79.02500000000001
 20
-62.8325
 40
0.3
100
AcDbArc
 50
90
 51
180
  0
ARC
  5
33D
100
AcDbEntity
  8
0
  6
ByLayer
 62
  256
370
   -1
100
AcDbCircle
 10
92.425
 20
-62.8325
 40
0.3
100
AcDbArc
 50
0
 51
90
  0
ARC
  5
33E
100
AcDbEntity
  8
0
  6
ByLayer
 62
  256
370
   -1
100
AcDbCircle
 10
79.02500000000001
 20
-76.2325
 40
0.3
100
AcDbArc
 50
180
 51
270
  0
ARC
  5
33F
100
AcDbEntity
  8
0
  6
ByLayer
 62
  256
370
   -1
100
AcDbCircle
 10
92.425
 20
-76.2325
 40
0.3
100
AcDbArc
 50
270
 51
0
  0
LINE
  5
340
100
AcDbEntity
  8
0
  6
ByLayer
 62
  256
370
   -1
100
AcDbLine
 10
193.325
 20
-62.5325
 11
206.725
 21
-62.5325
  0
LINE
  5
341
100
AcDbEntity
  8
0
  6
ByLayer
 62
  256
370
   -1
100
AcDbLine
 10
193.325
 20
-76.5325
 11
206.725
 21
-76.5325
  0
LINE
  5
342
100
AcDbEntity
  8
0
  6
ByLayer
 62
  256
370
   -1
100
AcDbLine
 10
193.025
 20
-62.8325
 11
193.025
 21
-76.2325
  0
LINE
  5
343
100
AcDbEntity
  8
0
  6
ByLayer
 62
  256
370
   -1
100
AcDbLine
 10
207.025
 20
-62.8325
 11
207.025
 21
-76.2325
  0
ARC
  5
344
100
AcDbEntity
  8
0
  6
ByLayer
 62
  256
370
   -1
100
AcDbCircle
 10
193.325
 20
-62.8325
 40
0.3
100
AcDbArc
 50
90
 51
180
  0
ARC
  5
345
100
AcDbEntity
  8
0
  6
ByLayer
 62
  256
370
   -1
100
AcDbCircle
 10
206.725
 20
-62.8325
 40
0.3
100
AcDbArc
 50
0
 51
90
  0
ARC
  5
346
100
AcDbEntity
  8
0
  6
ByLayer
 62
  256
370
   -1
100
AcDbCircle
 10
193.325
 20
-76.2325
 40
0.3
100
AcDbArc
 50
180
 51
270
  0
ARC
  5
347
100
AcDbEntity
  8
0
  6
ByLayer
 62
  256
370
   -1
100
AcDbCircle
 10
206.725
 20
-76.2325
 40
0.3
100
AcDbArc
 50
270
 51
0
  0
LINE
  5
348
100
AcDbEntity
  8
0
  6
ByLayer
 62
  256
370
   -1
100
AcDbLine
 10
214.75625
 20
-62.5325
 11
228.15625
 21
-62.5325
  0
LINE
  5
349
100
AcDbEntity
  8
0
  6
ByLayer
 62
  256
370
   -1
100
AcDbLine
 10
214.75625
 20
-76.5325
 11
228.15625
 21
-76.5325
  0
LINE
  5
34A
100
AcDbEntity
  8
0
  6
ByLayer
 62
  256
370
   -1
100
AcDbLine
 10
214.45625
 20
-62.8325
 11
214.45625
 21
-76.2325
  0
LINE
  5
34B
100
AcDbEntity
  8
0
  6
ByLayer
 62
  256
370
   -1
100
AcDbLine
 10
228.45625
 20
-62.8325
 11
228.45625
 21
-76.2325
  0
ARC
  5
34C
100
AcDbEntity
  8
0
  6
ByLayer
 62
  256
370
   -1
100
AcDbCircle
 10
214.75625
 20
-62.8325
 40
0.3
100
AcDbArc
 50
90
 51
180
  0
ARC
  5
34D
100
AcDbEntity
  8
0
  6
ByLayer
 62
  256
370
   -1
100
AcDbCircle
 10
228.15625
 20
-62.8325
 40
0.3
100
AcDbArc
 50
0
 51
90
  0
ARC
  5
34E
100
AcDbEntity
  8
0
  6
ByLayer
 62
  256
370
   -1
100
AcDbCircle
 10
214.75625
 20
-76.2325
 40
0.3
100
AcDbArc
 50
180
 51
270
  0
ARC
  5
34F
100
AcDbEntity
  8
0
  6
ByLayer
 62
  256
370
   -1
100
AcDbCircle
 10
228.15625
 20
-76.2325
 40
0.3
100
AcDbArc
 50
270
 51
0
  0
LINE
  5
350
100
AcDbEntity
  8
0
  6
ByLayer
 62
  256
370
   -1
100
AcDbLine
 10
5.20625
 20
-63.485
 11
18.60625
 21
-63.485
  0
LINE
  5
351
100
AcDbEntity
  8
0
  6
ByLayer
 62
  256
370
   -1
100
AcDbLine
 10
5.20625
 20
-77.485
 11
18.60625
 21
-77.485
  0
LINE
  5
352
100
AcDbEntity
  8
0
  6
ByLayer
 62
  256
370
   -1
100
AcDbLine
 10
4.90625
 20
-63.785
 11
4.90625
 21
-77.185
  0
LINE
  5
353
100
AcDbEntity
  8
0
  6
ByLayer
 62
  256
370
   -1
100
AcDbLine
 10
18.90625
 20
-63.785
 11
18.90625
 21
-77.185
  0
ARC
  5
354
100
AcDbEntity
  8
0
  6
ByLayer
 62
  256
370
   -1
100
AcDbCircle
 10
5.20625
 20
-63.785
 40
0.3
100
AcDbArc
 50
90
 51
180
  0
ARC
  5
355
100
AcDbEntity
  8
0
  6
ByLayer
 62
  256
370
   -1
100
AcDbCircle
 10
18.60625
 20
-63.785
 40
0.3
100
AcDbArc
 50
0
 51
90
  0
ARC
  5
356
100
AcDbEntity
  8
0
  6
ByLayer
 62
  256
370
   -1
100
AcDbCircle
 10
5.20625
 20
-77.185
 40
0.3
100
AcDbArc
 50
180
 51
270
  0
ARC
  5
357
100
AcDbEntity
  8
0
  6
ByLayer
 62
  256
370
   -1
100
AcDbCircle
 10
18.60625
 20
-77.185
 40
0.3
100
AcDbArc
 50
270
 51
0
  0
LINE
  5
358
100
AcDbEntity
  8
0
  6
ByLayer
 62
  256
370
   -1
100
AcDbLine
 10
267.14375
 20
-63.485
 11
280.54375
 21
-63.485
  0
LINE
  5
359
100
AcDbEntity
  8
0
  6
ByLayer
 62
  256
370
   -1
100
AcDbLine
 10
267.14375
 20
-77.485
 11
280.54375
 21
-77.485
  0
LINE
  5
35A
100
AcDbEntity
  8
0
  6
ByLayer
 62
  256
370
   -1
100
AcDbLine
 10
266.84375
 20
-63.785
 11
266.84375
 21
-77.185
  0
LINE
  5
35B
100
AcDbEntity
  8
0
  6
ByLayer
 62
  256
370
   -1
100
AcDbLine
 10
280.84375
 20
-63.785
 11
280.84375
 21
-77.185
  0
ARC
  5
35C
100
AcDbEntity
  8
0
  6
ByLayer
 62
  256
370
   -1
100
AcDbCircle
 10
267.14375
 20
-63.785
 40
0.3
100
AcDbArc
 50
90
 51
180
  0
ARC
  5
35D
100
AcDbEntity
  8
0
  6
ByLayer
 62
  256
370
   -1
100
AcDbCircle
 10
280.54375
 20
-63.785
 40
0.3
100
AcDbArc
 50
0
 51
90
  0
ARC
  5
35E
100
AcDbEntity
  8
0
  6
ByLayer
 62
  256
370
   -1
100
AcDbCircle
 10
267.14375
 20
-77.185
 40
0.3
100
AcDbArc
 50
180
 51
270
  0
ARC
  5
35F
100
AcDbEntity
  8
0
  6
ByLayer
 62
  256
370
   -1
100
AcDbCircle
 10
280.54375
 20
-77.185
 40
0.3
100
AcDbArc
 50
270
 51
0
  0
LINE
  5
360
100
AcDbEntity
  8
0
  6
ByLayer
 62
  256
370
   -1
100
AcDbLine
 10
97.77500000000001
 20
-64.7375
 11
97.77500000000001
 21
-78.1375
  0
ARC
  5
361
100
AcDbEntity
  8
0
  6
ByLayer
 62
  256
370
   -1
100
AcDbCircle
 10
98.075
 20
-64.7375
 40
0.3
100
AcDbArc
 50
90
 51
180
  0
ARC
  5
362
100
AcDbEntity
  8
0
  6
ByLayer
 62
  256
370
   -1
100
AcDbCircle
 10
98.075
 20
-78.1375
 40
0.3
100
AcDbArc
 50
180
 51
270
  0
LINE
  5
363
100
AcDbEntity
  8
0
  6
ByLayer
 62
  256
370
   -1
100
AcDbLine
 10
114.15625
 20
-64.7375
 11
114.15625
 21
-78.1375
  0
ARC
  5
364
100
AcDbEntity
  8
0
  6
ByLayer
 62
  256
370
   -1
100
AcDbCircle
 10
113.85625
 20
-64.7375
 40
0.3
100
AcDbArc
 50
0
 51
90
  0
ARC
  5
365
100
AcDbEntity
  8
0
  6
ByLayer
 62
  256
370
   -1
100
AcDbCircle
 10
113.85625
 20
-78.1375
 40
0.3
100
AcDbArc
 50
270
 51
0
  0
LINE
  5
366
100
AcDbEntity
  8
0
  6
ByLayer
 62
  256
370
   -1
100
AcDbLine
 10
119.20625
 20
-64.7375
 11
119.20625
 21
-78.1375
  0
ARC
  5
367
100
AcDbEntity
  8
0
  6
ByLayer
 62
  256
370
   -1
100
AcDbCircle
 10
119.50625
 20
-64.7375
 40
0.3
100
AcDbArc
 50
90
 51
180
  0
ARC
  5
368
100
AcDbEntity
  8
0
  6
ByLayer
 62
  256
370
   -1
100
AcDbCircle
 10
119.50625
 20
-78.1375
 40
0.3
100
AcDbArc
 50
180
 51
270
  0
LINE
  5
369
100
AcDbEntity
  8
0
  6
ByLayer
 62
  256
370
   -1
100
AcDbLine
 10
135.5875
 20
-64.7375
 11
135.5875
 21
-78.1375
  0
ARC
  5
36A
100
AcDbEntity
  8
0
  6
ByLayer
 62
  256
370
   -1
100
AcDbCircle
 10
135.2875
 20
-64.7375
 40
0.3
100
AcDbArc
 50
0
 51
90
  0
ARC
  5
36B
100
AcDbEntity
  8
0
  6
ByLayer
 62
  256
370
   -1
100
AcDbCircle
 10
135.2875
 20
-78.1375
 40
0.3
100
AcDbArc
 50
270
 51
0
  0
LINE
  5
36C
100
AcDbEntity
  8
0
  6
ByLayer
 62
  256
370
   -1
100
AcDbLine
 10
150.1625
 20
-64.7375
 11
150.1625
 21
-78.1375
  0
ARC
  5
36D
100
AcDbEntity
  8
0
  6
ByLayer
 62
  256
370
   -1
100
AcDbCircle
 10
150.4625
 20
-64.7375
 40
0.3
100
AcDbArc
 50
90
 51
180
  0
ARC
  5
36E
100
AcDbEntity
  8
0
  6
ByLayer
 62
  256
370
   -1
100
AcDbCircle
 10
150.4625
 20
-78.1375
 40
0.3
100
AcDbArc
 50
180
 51
270
  0
LINE
  5
36F
100
AcDbEntity
  8
0
  6
ByLayer
 62
  256
370
   -1
100
AcDbLine
 10
166.54375
 20
-64.7375
 11
166.54375
 21
-78.1375
  0
ARC
  5
370
100
AcDbEntity
  8
0
  6
ByLayer
 62
  256
370
   -1
100
AcDbCircle
 10
166.24375
 20
-64.7375
 40
0.3
100
AcDbArc
 50
0
 51
90
  0
ARC
  5
371
100
AcDbEntity
  8
0
  6
ByLayer
 62
  256
370
   -1
100
AcDbCircle
 10
166.24375
 20
-78.1375
 40
0.3
100
AcDbArc
 50
270
 51
0
  0
LINE
  5
372
100
AcDbEntity
  8
0
  6
ByLayer
 62
  256
370
   -1
100
AcDbLine
 10
171.59375
 20
-64.7375
 11
171.59375
 21
-78.1375
  0
ARC
  5
373
100
AcDbEntity
  8
0
  6
ByLayer
 62
  256
370
   -1
100
AcDbCircle
 10
171.89375
 20
-64.7375
 40
0.3
100
AcDbArc
 50
90
 51
180
  0
ARC
  5
374
100
AcDbEntity
  8
0
  6
ByLayer
 62
  256
370
   -1
100
AcDbCircle
 10
171.89375
 20
-78.1375
 40
0.3
100
AcDbArc
 50
180
 51
270
  0
LINE
  5
375
100
AcDbEntity
  8
0
  6
ByLayer
 62
  256
370
   -1
100
AcDbLine
 10
187.975
 20
-64.7375
 11
187.975
 21
-78.1375
  0
ARC
  5
376
100
AcDbEntity
  8
0
  6
ByLayer
 62
  256
370
   -1
100
AcDbCircle
 10
187.675
 20
-64.7375
 40
0.3
100
AcDbArc
 50
0
 51
90
  0
ARC
  5
377
100
AcDbEntity
  8
0
  6
ByLayer
 62
  256
370
   -1
100
AcDbCircle
 10
187.675
 20
-78.1375
 40
0.3
100
AcDbArc
 50
270
 51
0
  0
LINE
  5
378
100
AcDbEntity
  8
0
  6
ByLayer
 62
  256
370
   -1
100
AcDbLine
 10
236.1875
 20
-65.39
 11
249.5875
 21
-65.39
  0
LINE
  5
379
100
AcDbEntity
  8
0
  6
ByLayer
 62
  256
370
   -1
100
AcDbLine
 10
236.1875
 20
-79.39
 11
249.5875
 21
-79.39
  0
LINE
  5
37A
100
AcDbEntity
  8
0
  6
ByLayer
 62
  256
370
   -1
100
AcDbLine
 10
235.8875
 20
-65.69
 11
235.8875
 21
-79.09
  0
LINE
  5
37B
100
AcDbEntity
  8
0
  6
ByLayer
 62
  256
370
   -1
100
AcDbLine
 10
249.8875
 20
-65.69
 11
249.8875
 21
-79.09
  0
ARC
  5
37C
100
AcDbEntity
  8
0
  6
ByLayer
 62
  256
370
   -1
100
AcDbCircle
 10
236.1875
 20
-65.69
 40
0.3
100
AcDbArc
 50
90
 51
180
  0
ARC
  5
37D
100
AcDbEntity
  8
0
  6
ByLayer
 62
  256
370
   -1
100
AcDbCircle
 10
249.5875
 20
-65.69
 40
0.3
100
AcDbArc
 50
0
 51
90
  0
ARC
  5
37E
100
AcDbEntity
  8
0
  6
ByLayer
 62
  256
370
   -1
100
AcDbCircle
 10
236.1875
 20
-79.09
 40
0.3
100
AcDbArc
 50
180
 51
270
  0
ARC
  5
37F
100
AcDbEntity
  8
0
  6
ByLayer
 62
  256
370
   -1
100
AcDbCircle
 10
249.5875
 20
-79.09
 40
0.3
100
AcDbArc
 50
270
 51
0
  0
LINE
  5
380
100
AcDbEntity
  8
0
  6
ByLayer
 62
  256
370
   -1
100
AcDbLine
 10
36.1625
 20
-65.39
 11
49.5625
 21
-65.39
  0
LINE
  5
381
100
AcDbEntity
  8
0
  6
ByLayer
 62
  256
370
   -1
100
AcDbLine
 10
36.1625
 20
-79.39
 11
49.5625
 21
-79.39
  0
LINE
  5
382
100
AcDbEntity
  8
0
  6
ByLayer
 62
  256
370
   -1
100
AcDbLine
 10
35.8625
 20
-65.69
 11
35.8625
 21
-79.09
  0
LINE
  5
383
100
AcDbEntity
  8
0
  6
ByLayer
 62
  256
370
   -1
100
AcDbLine
 10
49.8625
 20
-65.69
 11
49.8625
 21
-79.09
  0
ARC
  5
384
100
AcDbEntity
  8
0
  6
ByLayer
 62
  256
370
   -1
100
AcDbCircle
 10
36.1625
 20
-65.69
 40
0.3
100
AcDbArc
 50
90
 51
180
  0
ARC
  5
385
100
AcDbEntity
  8
0
  6
ByLayer
 62
  256
370
   -1
100
AcDbCircle
 10
49.5625
 20
-65.69
 40
0.3
100
AcDbArc
 50
0
 51
90
  0
ARC
  5
386
100
AcDbEntity
  8
0
  6
ByLayer
 62
  256
370
   -1
100
AcDbCircle
 10
36.1625
 20
-79.09
 40
0.3
100
AcDbArc
 50
180
 51
270
  0
ARC
  5
387
100
AcDbEntity
  8
0
  6
ByLayer
 62
  256
370
   -1
100
AcDbCircle
 10
49.5625
 20
-79.09
 40
0.3
100
AcDbArc
 50
270
 51
0
  0
LINE
  5
388
100
AcDbEntity
  8
0
  6
ByLayer
 62
  256
370
   -1
100
AcDbLine
 10
98.075
 20
-64.4375
 11
113.85625
 21
-64.4375
  0
LINE
  5
389
100
AcDbEntity
  8
0
  6
ByLayer
 62
  256
370
   -1
100
AcDbLine
 10
113.85625
 20
-78.4375
 11
98.075
 21
-78.4375
  0
LINE
  5
38A
100
AcDbEntity
  8
0
  6
ByLayer
 62
  256
370
   -1
100
AcDbLine
 10
119.50625
 20
-64.4375
 11
135.2875
 21
-64.4375
  0
LINE
  5
38B
100
AcDbEntity
  8
0
  6
ByLayer
 62
  256
370
   -1
100
AcDbLine
 10
119.50625
 20
-78.4375
 11
135.2875
 21
-78.43750000000396
  0
LINE
  5
38C
100
AcDbEntity
  8
0
  6
ByLayer
 62
  256
370
   -1
100
AcDbLine
 10
150.4625
 20
-64.4375
 11
166.24375
 21
-64.4375
  0
LINE
  5
38D
100
AcDbEntity
  8
0
  6
ByLayer
 62
  256
370
   -1
100
AcDbLine
 10
166.24375
 20
-78.4375
 11
150.4625
 21
-78.4375
  0
LINE
  5
38E
100
AcDbEntity
  8
0
  6
ByLayer
 62
  256
370
   -1
100
AcDbLine
 10
171.89375
 20
-64.4375
 11
187.675
 21
-64.4375
  0
LINE
  5
38F
100
AcDbEntity
  8
0
  6
ByLayer
 62
  256
370
   -1
100
AcDbLine
 10
171.89375
 20
-78.4375
 11
187.675
 21
-78.43749999999659
  0
ENDBLK
  5
52
330
50
100
AcDbEntity
  8
0
100
AcDbBlockEnd
  0
BLOCK
  5
54
330
53
100
AcDbEntity
  8
0
100
AcDbBlockBegin
  2
teethless40_csl_plate_v4_rounded_bottom_flexcuts
 70
    0
 10
0
 20
0
  3
teethless40_csl_plate_v4_rounded_bottom_flexcuts
  1

  0
LINE
  5
390
100
AcDbEntity
  8
0
  6
ByLayer
 62
  256
370
   -1
100
AcDbLine
 10
44.53319952682543
 20
-86.12601791717152
 11
98.07500046584983
 21
-84.43750000000001
  0
ARC
  5
391
100
AcDbEntity
  8
0
  6
ByLayer
 62
  256
370
   -1
100
AcDbCircle
 10
38.85946060813058
 20
93.78453954592594
 40
180
100
AcDbArc
 50
266.478546497119
 51
271.8063063857022
  0
LINE
  5
392
100
AcDbEntity
  8
0
  6
ByLayer
 62
  256
370
   -1
100
AcDbLine
 10
187.675
 20
-84.43749999999659
 11
241.2168002558516
 21
-86.12601790833065
  0
ARC
  5
393
100
AcDbEntity
  8
0
  6
ByLayer
 62
  256
370
   -1
100
AcDbCircle
 10
246.8905392172033
 20
93.78453955342152
 40
180
100
AcDbArc
 50
268.1936936007129
 51
273.5214536274576
  0
LINE
  5
394
100
AcDbEntity
  8
0
  6
ByLayer
 62
  256
370
   -1
100
AcDbLine
 10
257.9465484080968
 20
-85.87559698435044
 11
275.7203667603088
 21
-84.78182346927791
  0
ARC
  5
395
100
AcDbEntity
  8
0
  6
ByLayer
 62
  256
370
   -1
100
AcDbCircle
 10
274.491921294654
 20
-64.81958607619212
 40
20
100
AcDbArc
 50
273.5214536274576
 51
300.6889542232856
  0
ARC
  5
396
100
AcDbEntity
  8
0
  6
ByLayer
 62
  256
370
   -1
100
AcDbCircle
 10
269.5891748481937
 20
-11.6537230734615
 40
8
100
AcDbArc
 50
16.66647175888174
 51
55.80439459753868
  0
LINE
  5
397
100
AcDbEntity
  8
0
  6
ByLayer
 62
  256
370
   -1
100
AcDbLine
 10
274.085334359845
 20
-5.036733603484365
 11
270.4589268385249
 21
-2.572636185151486
  0
ARC
  5
398
100
AcDbEntity
  8
0
  6
ByLayer
 62
  256
370
   -1
100
AcDbCircle
 10
265.9627673268737
 20
-9.189625655128632
 40
8
100
AcDbArc
 50
55.80439459753904
 51
86.58514675388312
  0
LINE
  5
399
100
AcDbEntity
  8
0
  6
ByLayer
 62
  256
370
   -1
100
AcDbLine
 10
284.6994641277943
 20
-82.0185996906296
 11
288.1972389449137
 21
-79.94268492791002
  0
ARC
  5
39A
100
AcDbEntity
  8
0
  6
ByLayer
 62
  256
370
   -1
100
AcDbCircle
 10
284.1142218116576
 20
-73.06307948213502
 40
8
100
AcDbArc
 50
300.6889542232856
 51
8.759429781019726
  0
ARC
  5
39B
100
AcDbEntity
  8
0
  6
ByLayer
 62
  256
370
   -1
100
AcDbCircle
 10
1.635778143258482
 20
-73.06307970152838
 40
8
100
AcDbArc
 50
171.240570337184
 51
239.3110435320938
  0
LINE
  5
39C
100
AcDbEntity
  8
0
  6
ByLayer
 62
  256
370
   -1
100
AcDbLine
 10
-2.447239259513202
 20
-79.94268498734701
 11
1.050534494581724
 21
-82.01859930446153
  0
LINE
  5
39D
100
AcDbEntity
  8
0
  6
ByLayer
 62
  256
370
   -1
100
AcDbLine
 10
10.02963257925942
 20
-84.78182348567171
 11
27.80345180786705
 21
-85.87559701588481
  0
ARC
  5
39E
100
AcDbEntity
  8
0
  6
ByLayer
 62
  256
370
   -1
100
AcDbCircle
 10
11.25807800151093
 20
-64.81958608991496
 40
20
100
AcDbArc
 50
239.3110435320939
 51
266.478546497119
  0
LINE
  5
39F
100
AcDbEntity
  8
0
  6
ByLayer
 62
  256
370
   -1
100
AcDbLine
 10
-2.619987249636575
 20
-48.15027935215821
 11
-6.27091354329225
 21
-71.84479132276515
  0
ARC
  5
3A0
100
AcDbEntity
  8
0
  6
ByLayer
 62
  256
370
   -1
100
AcDbCircle
 10
46.7968357913055
 20
-55.76458171942843
 40
50
100
AcDbArc
 50
163.3335279987398
 51
171.240570337184
  0
LINE
  5
3A1
100
AcDbEntity
  8
0
  6
ByLayer
 62
  256
370
   -1
100
AcDbLine
 10
286.8526886049843
 20
-41.42458341697767
 11
277.2530987518113
 21
-9.359323282762375
  0
LINE
  5
3A2
100
AcDbEntity
  8
0
  6
ByLayer
 62
  256
370
   -1
100
AcDbLine
 10
292.0209134956949
 20
-71.84479108705993
 11
288.3699872326083
 21
-48.15027963962793
  0
ARC
  5
3A3
100
AcDbEntity
  8
0
  6
ByLayer
 62
  256
370
   -1
100
AcDbCircle
 10
238.9531642073749
 20
-55.76458210884728
 40
50
100
AcDbArc
 50
8.759429781019751
 51
16.66647175888177
  0
LINE
  5
3A4
100
AcDbEntity
  8
0
  6
ByLayer
 62
  256
370
   -1
100
AcDbLine
 10
8.496901277638708
 20
-9.35932328426771
 11
-1.102688545641387
 21
-41.42458282492943
  0
ARC
  5
3A5
100
AcDbEntity
  8
0
  6
ByLayer
 62
  256
370
   -1
100
AcDbCircle
 10
16.16082517155021
 20
-11.65372310738755
 40
8
100
AcDbArc
 50
124.1956069769409
 51
163.3335279987398
  0
LINE
  5
3A6
100
AcDbEntity
  8
0
  6
ByLayer
 62
  256
370
   -1
100
AcDbLine
 10
15.29107284530736
 20
-2.572636301661915
 11
11.66466547806509
 21
-5.036733760964223
  0
ARC
  5
3A7
100
AcDbEntity
  8
0
  6
ByLayer
 62
  256
370
   -1
100
AcDbCircle
 10
19.78723253879248
 20
-9.189625648085253
 40
8
100
AcDbArc
 50
93.41485324611691
 51
124.1956069769409
  0
LINE
  5
3A8
100
AcDbEntity
  8
0
  6
ByLayer
 62
  256
370
   -1
100
AcDbLine
 10
74.62456550595248
 20
2.096808465766893
 11
19.31071131218438
 21
-1.203830288786849
  0
ARC
  5
3A9
100
AcDbEntity
  8
0
  6
ByLayer
 62
  256
370
   -1
100
AcDbCircle
 10
81.77238390507391
 20
-117.6901219237092
 40
120
100
AcDbArc
 50
87.35745473783449
 51
93.41485324611685
  0
LINE
  5
3AA
100
AcDbEntity
  8
0
  6
ByLayer
 62
  256
370
   -1
100
AcDbLine
 10
266.4392885534818
 20
-1.203830295830229
 11
211.1254342972781
 21
2.096808462449116
  0
ARC
  5
3AB
100
AcDbEntity
  8
0
  6
ByLayer
 62
  256
370
   -1
100
AcDbCircle
 10
203.9776158981567
 20
-117.6901219270269
 40
120
100
AcDbArc
 50
86.58514675388317
 51
92.64254531520756
  0
LINE
  5
3AC
100
AcDbEntity
  8
0
  6
ByLayer
 62
  256
370
   -1
100
AcDbLine
 10
198.4450438609142
 20
2.18227125277378
 11
148.4075724776968
 21
-0.1271505218784763
  0
LINE
  5
3AD
100
AcDbEntity
  8
0
  6
ByLayer
 62
  256
370
   -1
100
AcDbLine
 10
137.3424285141847
 20
-0.1271505270002879
 11
87.30495583134352
 21
2.18227126121333
  0
ARC
  5
3AE
100
AcDbEntity
  8
0
  6
ByLayer
 62
  256
370
   -1
100
AcDbCircle
 10
142.8750004404543
 20
119.7452426579222
 40
120
100
AcDbArc
 50
267.3574547378345
 51
272.6425453152075
  0
LINE
  5
3AF
100
AcDbEntity
  8
0
  6
ByLayer
 62
  256
370
   -1
100
AcDbLine
 10
98.07500046584983
 20
-84.43750000000001
 11
138.8581434033788
 21
-83.5271619785355
  0
LINE
  5
3B0
100
AcDbEntity
  8
0
  6
ByLayer
 62
  256
370
   -1
100
AcDbLine
 10
146.8918565966427
 20
-83.52716197760333
 11
187.675
 21
-84.43749999999659
  0
ARC
  5
3B1
100
AcDbEntity
  8
0
  6
ByLayer
 62
  256
370
   -1
100
AcDbCircle
 10
142.8750000208917
 20
-263.4823365718613
 40
180
100
AcDbArc
 50
88.72128869295457
 51
91.27871132034201
  0
CIRCLE
  5
3B2
100
AcDbEntity
  8
0
  6
ByLayer
 62
  256
370
   -1
100
AcDbCircle
 10
0.5125000000000011
 20
-73.97
 40
1.1
  0
CIRCLE
  5
3B3
100
AcDbEntity
  8
0
  6
ByLayer
 62
  256
370
   -1
100
AcDbCircle
 10
285.2375
 20
-73.97
 40
1.1
  0
CIRCLE
  5
3B4
100
AcDbEntity
  8
0
  6
ByLayer
 62
  256
370
   -1
100
AcDbCircle
 10
12.41875
 20
-20.035
 40
1.1
  0
CIRCLE
  5
3B5
100
AcDbEntity
  8
0
  6
ByLayer
 62
  256
370
   -1
100
AcDbCircle
 10
273.33125
 20
-20.035
 40
1.1
  0
ARC
  5
3B6
100
AcDbEntity
  8
0
  6
ByLayer
 62
  256
370
   -1
100
AcDbCircle
 10
81.15179947569797
 20
-21.70625320944107
 40
12
100
AcDbArc
 50
80.94956233631585
 51
100.8204365279772
  0
ARC
  5
3B7
100
AcDbEntity
  8
0
  6
ByLayer
 62
  256
370
   -1
100
AcDbCircle
 10
80.96250000000001
 20
-45.78302265143881
 40
12
100
AcDbArc
 50
80.7522230823871
 51
99.2477769176129
  0
LINE
  5
3B8
100
AcDbEntity
  8
0
  6
ByLayer
 62
  256
370
   -1
100
AcDbLine
 10
66.12969059341155
 20
-36.04008563414965
 11
79.03404876098384
 21
-33.93899141968596
  0
ARC
  5
3B9
100
AcDbEntity
  8
0
  6
ByLayer
 62
  256
370
   -1
100
AcDbCircle
 10
65.4868735137395
 20
-32.09207522356537
 40
4
100
AcDbArc
 50
210.172934788758
 51
279.2477769176129
  0
LINE
  5
3BA
100
AcDbEntity
  8
0
  6
ByLayer
 62
  256
370
   -1
100
AcDbLine
 10
82.89095123901618
 20
-33.93899141968597
 11
95.74011625396027
 21
-36.03109905673456
  0
ARC
  5
3BB
100
AcDbEntity
  8
0
  6
ByLayer
 62
  256
370
   -1
100
AcDbCircle
 10
96.38293333363232
 20
-32.08308864615027
 40
4
100
AcDbArc
 50
260.7522230823871
 51
330.9070500560814
  0
LINE
  5
3BC
100
AcDbEntity
  8
0
  6
ByLayer
 62
  256
370
   -1
100
AcDbLine
 10
99.87826156715215
 20
-34.02800009399544
 11
108.0826859141117
 21
-19.28328969009625
  0
LINE
  5
3BD
100
AcDbEntity
  8
0
  6
ByLayer
 62
  256
370
   -1
100
AcDbLine
 10
105.2165731590666
 20
-13.38817724968782
 11
83.03944591112206
 21
-9.855650231751252
  0
ARC
  5
3BE
100
AcDbEntity
  8
0
  6
ByLayer
 62
  256
370
   -1
100
AcDbCircle
 10
104.5873576805919
 20
-17.33837824225109
 40
4
100
AcDbArc
 50
330.9070500560813
 51
80.94956233631591
  0
LINE
  5
3BF
100
AcDbEntity
  8
0
  6
ByLayer
 62
  256
370
   -1
100
AcDbLine
 10
78.89901944178438
 20
-9.919608983080439
 11
56.6065833268663
 21
-14.18035988236233
  0
LINE
  5
3C0
100
AcDbEntity
  8
0
  6
ByLayer
 62
  256
370
   -1
100
AcDbLine
 10
53.89946072245495
 20
-20.11968779892145
 11
62.02882423135696
 21
-34.10252173133762
  0
ARC
  5
3C1
100
AcDbEntity
  8
0
  6
ByLayer
 62
  256
370
   -1
100
AcDbCircle
 10
57.35751000483749
 20
-18.1092412911492
 40
4
100
AcDbArc
 50
100.8204365279771
 51
210.1729347887581
  0
ARC
  5
3C2
100
AcDbEntity
  8
0
  6
ByLayer
 62
  256
370
   -1
100
AcDbCircle
 10
45.67118444890088
 20
-19.08527230573545
 40
4
100
AcDbArc
 50
30.17293478875805
 51
86.07338616577165
  0
LINE
  5
3C3
100
AcDbEntity
  8
0
  6
ByLayer
 62
  256
370
   -1
100
AcDbLine
 10
49.12923373128342
 20
-17.0748257979632
 11
57.49137118340048
 21
-31.45804032453112
  0
ARC
  5
3C4
100
AcDbEntity
  8
0
  6
ByLayer
 62
  256
370
   -1
100
AcDbCircle
 10
54.03332190101795
 20
-33.46848683230337
 40
4
100
AcDbArc
 50
279.2477769176129
 51
30.17293478875807
  0
ARC
  5
3C5
100
AcDbEntity
  8
0
  6
ByLayer
 62
  256
370
   -1
100
AcDbCircle
 10
20.39295073959417
 20
-29.4913624724807
 40
4
100
AcDbArc
 50
165.9637565320735
 51
255.7153191356427
  0
LINE
  5
3C6
100
AcDbEntity
  8
0
  6
ByLayer
 62
  256
370
   -1
100
AcDbLine
 10
16.51238073901284
 20
-28.52121997233536
 11
19.49646987271931
 21
-16.5848634375095
  0
LINE
  5
3C7
100
AcDbEntity
  8
0
  6
ByLayer
 62
  256
370
   -1
100
AcDbLine
 10
23.65095470007958
 20
-13.5643956249745
 11
45.94509927567983
 21
-15.09466199305512
  0
ARC
  5
3C8
100
AcDbEntity
  8
0
  6
ByLayer
 62
  256
370
   -1
100
AcDbCircle
 10
23.37703987330064
 20
-17.55500593765484
 40
4
100
AcDbArc
 50
86.07338616577165
 51
165.9637565320735
  0
ARC
  5
3C9
100
AcDbEntity
  8
0
  6
ByLayer
 62
  256
370
   -1
100
AcDbCircle
 10
116.2143134951506
 20
-18.2875
 40
4
100
AcDbArc
 50
90
 51
150.9070500560813
  0
LINE
  5
3CA
100
AcDbEntity
  8
0
  6
ByLayer
 62
  256
370
   -1
100
AcDbLine
 10
116.2143134951506
 20
-14.2875
 11
121.7624992931425
 21
-14.2875
  0
ARC
  5
3CB
100
AcDbEntity
  8
0
  6
ByLayer
 62
  256
370
   -1
100
AcDbCircle
 10
121.7624992931425
 20
-18.2875
 40
4
100
AcDbArc
 50
2.014922966917934e-06
 51
90
  0
LINE
  5
3CC
100
AcDbEntity
  8
0
  6
ByLayer
 62
  256
370
   -1
100
AcDbLine
 10
125.7624992931425
 20
-18.28749985933184
 11
125.762499847848
 21
-34.06094971575195
  0
ARC
  5
3CD
100
AcDbEntity
  8
0
  6
ByLayer
 62
  256
370
   -1
100
AcDbCircle
 10
121.762499847848
 20
-34.0609498564201
 40
4
100
AcDbArc
 50
265.5082571695913
 51
2.014922916029059e-06
  0
LINE
  5
3CE
100
AcDbEntity
  8
0
  6
ByLayer
 62
  256
370
   -1
100
AcDbLine
 10
121.4492381503475
 20
-38.04866437840874
 11
107.7241476601342
 21
-36.97046654814663
  0
LINE
  5
3CF
100
AcDbEntity
  8
0
  6
ByLayer
 62
  256
370
   -1
100
AcDbLine
 10
104.5420811241149
 20
-31.03784057831282
 11
112.7189852616308
 21
-16.34258855215484
  0
ARC
  5
3D0
100
AcDbEntity
  8
0
  6
ByLayer
 62
  256
370
   -1
100
AcDbCircle
 10
108.0374093576347
 20
-32.98275202615798
 40
4
100
AcDbArc
 50
150.9070500560814
 51
265.5082571695913
  0
LINE
  5
3D1
100
AcDbEntity
  8
0
  6
ByLayer
 62
  256
370
   -1
100
AcDbLine
 10
40.44023191638374
 20
-38.72326127965125
 11
19.40599106445138
 21
-33.36768941942957
  0
LINE
  5
3D2
100
AcDbEntity
  8
0
  6
ByLayer
 62
  256
370
   -1
100
AcDbLine
 10
54.67613898069001
 20
-37.41649724288765
 11
45.32956218082829
 21
-38.93831167055745
  0
ARC
  5
3D3
100
AcDbEntity
  8
0
  6
ByLayer
 62
  256
370
   -1
100
AcDbCircle
 10
43.40111094181211
 20
-27.0942804388046
 40
12
100
AcDbArc
 50
255.7153191356427
 51
279.2477769176129
  0
ARC
  5
3D4
100
AcDbEntity
  8
0
  6
ByLayer
 62
  256
370
   -1
100
AcDbCircle
 10
204.598200776674
 20
-21.70625320944107
 40
12
100
AcDbArc
 50
79.17956347202281
 51
99.05043766368412
  0
ARC
  5
3D5
100
AcDbEntity
  8
0
  6
ByLayer
 62
  256
370
   -1
100
AcDbCircle
 10
204.787500252372
 20
-45.78302265143881
 40
12
100
AcDbArc
 50
80.75222308238713
 51
99.24777691761287
  0
LINE
  5
3D6
100
AcDbEntity
  8
0
  6
ByLayer
 62
  256
370
   -1
100
AcDbLine
 10
219.6203096589604
 20
-36.04008563414965
 11
206.7159514913881
 21
-33.93899141968596
  0
ARC
  5
3D7
100
AcDbEntity
  8
0
  6
ByLayer
 62
  256
370
   -1
100
AcDbCircle
 10
220.2631267386325
 20
-32.09207522356537
 40
4
100
AcDbArc
 50
260.7522230823871
 51
329.827065211242
  0
LINE
  5
3D8
100
AcDbEntity
  8
0
  6
ByLayer
 62
  256
370
   -1
100
AcDbLine
 10
202.8590490133558
 20
-33.93899141968597
 11
190.0098839984117
 21
-36.03109905673456
  0
ARC
  5
3D9
100
AcDbEntity
  8
0
  6
ByLayer
 62
  256
370
   -1
100
AcDbCircle
 10
189.3670669187396
 20
-32.08308864615027
 40
4
100
AcDbArc
 50
209.0929499439186
 51
279.2477769176129
  0
LINE
  5
3DA
100
AcDbEntity
  8
0
  6
ByLayer
 62
  256
370
   -1
100
AcDbLine
 10
185.8717386852198
 20
-34.02800009399544
 11
177.6673143382603
 21
-19.28328969009625
  0
LINE
  5
3DB
100
AcDbEntity
  8
0
  6
ByLayer
 62
  256
370
   -1
100
AcDbLine
 10
180.5334270933054
 20
-13.38817724968782
 11
202.7105543412499
 21
-9.855650231751252
  0
ARC
  5
3DC
100
AcDbEntity
  8
0
  6
ByLayer
 62
  256
370
   -1
100
AcDbCircle
 10
181.1626425717801
 20
-17.33837824225109
 40
4
100
AcDbArc
 50
99.05043766368412
 51
209.0929499439187
  0
LINE
  5
3DD
100
AcDbEntity
  8
0
  6
ByLayer
 62
  256
370
   -1
100
AcDbLine
 10
206.8509808105876
 20
-9.919608983080437
 11
229.1434169255057
 21
-14.18035988236233
  0
LINE
  5
3DE
100
AcDbEntity
  8
0
  6
ByLayer
 62
  256
370
   -1
100
AcDbLine
 10
231.850539529917
 20
-20.11968779892145
 11
223.721176021015
 21
-34.10252173133762
  0
ARC
  5
3DF
100
AcDbEntity
  8
0
  6
ByLayer
 62
  256
370
   -1
100
AcDbCircle
 10
228.3924902475345
 20
-18.1092412911492
 40
4
100
AcDbArc
 50
329.8270652112419
 51
79.17956347202291
  0
ARC
  5
3E0
100
AcDbEntity
  8
0
  6
ByLayer
 62
  256
370
   -1
100
AcDbCircle
 10
240.0788158034711
 20
-19.08527230573545
 40
4
100
AcDbArc
 50
93.92661383422838
 51
149.8270652112419
  0
LINE
  5
3E1
100
AcDbEntity
  8
0
  6
ByLayer
 62
  256
370
   -1
100
AcDbLine
 10
236.6207665210885
 20
-17.0748257979632
 11
228.2586290689715
 21
-31.45804032453112
  0
ARC
  5
3E2
100
AcDbEntity
  8
0
  6
ByLayer
 62
  256
370
   -1
100
AcDbCircle
 10
231.716678351354
 20
-33.46848683230337
 40
4
100
AcDbArc
 50
149.8270652112419
 51
260.7522230823871
  0
ARC
  5
3E3
100
AcDbEntity
  8
0
  6
ByLayer
 62
  256
370
   -1
100
AcDbCircle
 10
265.3570495127778
 20
-29.4913624724807
 40
4
100
AcDbArc
 50
284.2846808643573
 51
14.03624346792648
  0
LINE
  5
3E4
100
AcDbEntity
  8
0
  6
ByLayer
 62
  256
370
   -1
100
AcDbLine
 10
269.2376195133591
 20
-28.52121997233536
 11
266.2535303796527
 21
-16.5848634375095
  0
LINE
  5
3E5
100
AcDbEntity
  8
0
  6
ByLayer
 62
  256
370
   -1
100
AcDbLine
 10
262.0990455522924
 20
-13.5643956249745
 11
239.8049009766921
 21
-15.09466199305512
  0
ARC
  5
3E6
100
AcDbEntity
  8
0
  6
ByLayer
 62
  256
370
   -1
100
AcDbCircle
 10
262.3729603790713
 20
-17.55500593765484
 40
4
100
AcDbArc
 50
14.03624346792653
 51
93.92661383422838
  0
ARC
  5
3E7
100
AcDbEntity
  8
0
  6
ByLayer
 62
  256
370
   -1
100
AcDbCircle
 10
169.5356867572214
 20
-18.2875
 40
4
100
AcDbArc
 50
29.09294994391871
 51
90
  0
LINE
  5
3E8
100
AcDbEntity
  8
0
  6
ByLayer
 62
  256
370
   -1
100
AcDbLine
 10
169.5356867572214
 20
-14.2875
 11
163.9875009592295
 21
-14.2875
  0
ARC
  5
3E9
100
AcDbEntity
  8
0
  6
ByLayer
 62
  256
370
   -1
100
AcDbCircle
 10
163.9875009592295
 20
-18.2875
 40
4
100
AcDbArc
 50
90
 51
179.999997985077
  0
LINE
  5
3EA
100
AcDbEntity
  8
0
  6
ByLayer
 62
  256
370
   -1
100
AcDbLine
 10
159.9875009592295
 20
-18.28749985933184
 11
159.9875004045239
 21
-34.06094971575195
  0
ARC
  5
3EB
100
AcDbEntity
  8
0
  6
ByLayer
 62
  256
370
   -1
100
AcDbCircle
 10
163.9875004045239
 20
-34.0609498564201
 40
4
100
AcDbArc
 50
179.9999979850771
 51
274.4917428304087
  0
LINE
  5
3EC
100
AcDbEntity
  8
0
  6
ByLayer
 62
  256
370
   -1
100
AcDbLine
 10
164.3007621020245
 20
-38.04866437840874
 11
178.0258525922378
 21
-36.97046654814663
  0
LINE
  5
3ED
100
AcDbEntity
  8
0
  6
ByLayer
 62
  256
370
   -1
100
AcDbLine
 10
181.2079191282571
 20
-31.03784057831282
 11
173.0310149907411
 21
-16.34258855215484
  0
ARC
  5
3EE
100
AcDbEntity
  8
0
  6
ByLayer
 62
  256
370
   -1
100
AcDbCircle
 10
177.7125908947373
 20
-32.98275202615798
 40
4
100
AcDbArc
 50
274.4917428304087
 51
29.09294994391861
  0
LINE
  5
3EF
100
AcDbEntity
  8
0
  6
ByLayer
 62
  256
370
   -1
100
AcDbLine
 10
245.3097683359882
 20
-38.72326127965125
 11
266.3440091879206
 21
-33.36768941942957
  0
LINE
  5
3F0
100
AcDbEntity
  8
0
  6
ByLayer
 62
  256
370
   -1
100
AcDbLine
 10
231.0738612716819
 20
-37.41649724288765
 11
240.4204380715437
 21
-38.93831167055745
  0
ARC
  5
3F1
100
AcDbEntity
  8
0
  6
ByLayer
 62
  256
370
   -1
100
AcDbCircle
 10
242.3488893105599
 20
-27.0942804388046
 40
12
100
AcDbArc
 50
260.7522230823871
 51
284.2846808643573
  0
ARC
  5
3F2
100
AcDbEntity
  8
0
  6
ByLayer
 62
  256
370
   -1
100
AcDbCircle
 10
43.40111094181212
 20
-34.0942804388046
 40
12
100
AcDbArc
 50
255.7153191356427
 51
279.2477769176129
  0
ARC
  5
3F3
100
AcDbEntity
  8
0
  6
ByLayer
 62
  256
370
   -1
100
AcDbCircle
 10
80.96250000000001
 20
-52.78302265143882
 40
12
100
AcDbArc
 50
80.75222308238712
 51
99.2477769176129
  0
ARC
  5
3F4
100
AcDbEntity
  8
0
  6
ByLayer
 62
  256
370
   -1
100
AcDbCircle
 10
79.00396388190445
 20
-81.5675372280256
 40
12
100
AcDbArc
 50
86.75801664702239
 51
95.89766129677014
  0
LINE
  5
3F5
100
AcDbEntity
  8
0
  6
ByLayer
 62
  256
370
   -1
100
AcDbLine
 10
19.51505817046267
 20
-40.3954592223876
 11
40.44023191638374
 21
-45.72326127965125
  0
ARC
  5
3F6
100
AcDbEntity
  8
0
  6
ByLayer
 62
  256
370
   -1
100
AcDbCircle
 10
18.52809849531988
 20
-44.27178616933649
 40
4
100
AcDbArc
 50
75.71531913564276
 51
167.063421692371
  0
LINE
  5
3F7
100
AcDbEntity
  8
0
  6
ByLayer
 62
  256
370
   -1
100
AcDbLine
 10
9.473424188393755
 20
-65.82358743785281
 11
14.62962461520818
 21
-43.3762966908462
  0
ARC
  5
3F8
100
AcDbEntity
  8
0
  6
ByLayer
 62
  256
370
   -1
100
AcDbCircle
 10
13.37189806850546
 20
-66.7190769163431
 40
4
100
AcDbArc
 50
167.063421692371
 51
267.249996452421
  0
LINE
  5
3F9
100
AcDbEntity
  8
0
  6
ByLayer
 62
  256
370
   -1
100
AcDbLine
 10
45.28477014160993
 20
-72.25657584287684
 11
13.17998530703756
 21
-70.71447045040026
  0
ARC
  5
3FA
100
AcDbEntity
  8
0
  6
ByLayer
 62
  256
370
   -1
100
AcDbCircle
 10
45.47668290307783
 20
-68.2611823088197
 40
4
100
AcDbArc
 50
267.2499964524208
 51
336.8666282113913
  0
LINE
  5
3FB
100
AcDbEntity
  8
0
  6
ByLayer
 62
  256
370
   -1
100
AcDbLine
 10
45.32956218082829
 20
-45.93831167055745
 11
53.2338933306654
 21
-44.65132441923782
  0
LINE
  5
3FC
100
AcDbEntity
  8
0
  6
ByLayer
 62
  256
370
   -1
100
AcDbLine
 10
57.55508171235628
 20
-50.1708260211701
 11
49.15505420509665
 21
-69.83267350016769
  0
ARC
  5
3FD
100
AcDbEntity
  8
0
  6
ByLayer
 62
  256
370
   -1
100
AcDbCircle
 10
53.87671041033746
 20
-48.59933482982211
 40
4
100
AcDbArc
 50
336.8666282113912
 51
99.24777691761288
  0
LINE
  5
3FE
100
AcDbEntity
  8
0
  6
ByLayer
 62
  256
370
   -1
100
AcDbLine
 10
65.58378294111239
 20
-43.12897059804965
 11
79.03404876098384
 21
-40.93899141968597
  0
ARC
  5
3FF
100
AcDbEntity
  8
0
  6
ByLayer
 62
  256
370
   -1
100
AcDbCircle
 10
66.22660002078445
 20
-47.07698100863394
 40
4
100
AcDbArc
 50
99.24777691761288
 51
156.8666282113912
  0
LINE
  5
400
100
AcDbEntity
  8
0
  6
ByLayer
 62
  256
370
   -1
100
AcDbLine
 10
53.73201661486523
 20
-66.14149578031072
 11
62.54822871876563
 21
-45.50548981728594
  0
LINE
  5
401
100
AcDbEntity
  8
0
  6
ByLayer
 62
  256
370
   -1
100
AcDbLine
 10
57.82139565628736
 20
-71.69181501998533
 11
77.77094066369452
 21
-69.63105308304576
  0
ARC
  5
402
100
AcDbEntity
  8
0
  6
ByLayer
 62
  256
370
   -1
100
AcDbCircle
 10
57.41038791688405
 20
-67.71298697165872
 40
4
100
AcDbArc
 50
156.8666282113911
 51
275.8976612967701
  0
LINE
  5
403
100
AcDbEntity
  8
0
  6
ByLayer
 62
  256
370
   -1
100
AcDbLine
 10
79.68260102377452
 20
-69.58674211127
 11
105.4963075959458
 21
-71.04892720654063
  0
ARC
  5
404
100
AcDbEntity
  8
0
  6
ByLayer
 62
  256
370
   -1
100
AcDbCircle
 10
105.7225199765692
 20
-67.05532883428877
 40
4
100
AcDbArc
 50
266.7580166470224
 51
26.34532591581174
  0
LINE
  5
405
100
AcDbEntity
  8
0
  6
ByLayer
 62
  256
370
   -1
100
AcDbLine
 10
109.3070625456823
 20
-65.28020783271846
 11
99.42492334328917
 21
-45.32497739290975
  0
LINE
  5
406
100
AcDbEntity
  8
0
  6
ByLayer
 62
  256
370
   -1
100
AcDbLine
 10
82.89095123901618
 20
-40.93899141968597
 11
96.48319785384813
 21
-43.15208798389578
  0
ARC
  5
407
100
AcDbEntity
  8
0
  6
ByLayer
 62
  256
370
   -1
100
AcDbCircle
 10
95.84038077417607
 20
-47.10009839448006
 40
4
100
AcDbArc
 50
26.34532591581184
 51
80.7522230823871
  0
ARC
  5
408
100
AcDbEntity
  8
0
  6
ByLayer
 62
  256
370
   -1
100
AcDbCircle
 10
108.2241755692901
 20
-48.02207041861829
 40
4
100
AcDbArc
 50
85.5082571695803
 51
206.3453259158117
  0
LINE
  5
409
100
AcDbEntity
  8
0
  6
ByLayer
 62
  256
370
   -1
100
AcDbLine
 10
104.6396330001769
 20
-49.7971914201886
 11
114.2544544564467
 21
-69.2126210015708
  0
ARC
  5
40A
100
AcDbEntity
  8
0
  6
ByLayer
 62
  256
370
   -1
100
AcDbCircle
 10
117.8389970255598
 20
-67.43750000000048
 40
4
100
AcDbArc
 50
206.3453259158117
 51
269.9999999999886
  0
LINE
  5
40B
100
AcDbEntity
  8
0
  6
ByLayer
 62
  256
370
   -1
100
AcDbLine
 10
117.838997025559
 20
-71.4375000000005
 11
129.5659224589759
 21
-71.43750000000281
  0
ARC
  5
40C
100
AcDbEntity
  8
0
  6
ByLayer
 62
  256
370
   -1
100
AcDbCircle
 10
129.5659224589767
 20
-67.43750000000281
 40
4
100
AcDbArc
 50
269.9999999999886
 51
20.08458182600572
  0
LINE
  5
40D
100
AcDbEntity
  8
0
  6
ByLayer
 62
  256
370
   -1
100
AcDbLine
 10
123.2012691701604
 20
-45.18629815543329
 11
108.5374372667914
 21
-44.03435589662971
  0
LINE
  5
40E
100
AcDbEntity
  8
0
  6
ByLayer
 62
  256
370
   -1
100
AcDbLine
 10
133.3226692437542
 20
-66.0638721045872
 11
126.6447542574366
 21
-47.80038478200629
  0
ARC
  5
40F
100
AcDbEntity
  8
0
  6
ByLayer
 62
  256
370
   -1
100
AcDbCircle
 10
122.8880074726591
 20
-49.17401267742188
 40
4
100
AcDbArc
 50
20.08458182600564
 51
85.50825716958032
  0
ARC
  5
410
100
AcDbEntity
  8
0
  6
ByLayer
 62
  256
370
   -1
100
AcDbCircle
 10
242.3488890581879
 20
-34.0942804388046
 40
12
100
AcDbArc
 50
260.7522230823871
 51
284.2846808643573
  0
ARC
  5
411
100
AcDbEntity
  8
0
  6
ByLayer
 62
  256
370
   -1
100
AcDbCircle
 10
204.7875
 20
-52.78302265143882
 40
12
100
AcDbArc
 50
80.7522230823871
 51
99.24777691761288
  0
ARC
  5
412
100
AcDbEntity
  8
0
  6
ByLayer
 62
  256
370
   -1
100
AcDbCircle
 10
206.7460361180956
 20
-81.5675372280256
 40
12
100
AcDbArc
 50
84.10233870322986
 51
93.24198335297761
  0
LINE
  5
413
100
AcDbEntity
  8
0
  6
ByLayer
 62
  256
370
   -1
100
AcDbLine
 10
266.2349418295373
 20
-40.3954592223876
 11
245.3097680836162
 21
-45.72326127965125
  0
ARC
  5
414
100
AcDbEntity
  8
0
  6
ByLayer
 62
  256
370
   -1
100
AcDbCircle
 10
267.2219015046801
 20
-44.27178616933649
 40
4
100
AcDbArc
 50
12.93657830762899
 51
104.2846808643572
  0
LINE
  5
415
100
AcDbEntity
  8
0
  6
ByLayer
 62
  256
370
   -1
100
AcDbLine
 10
276.2765758116062
 20
-65.82358743785281
 11
271.1203753847918
 21
-43.3762966908462
  0
ARC
  5
416
100
AcDbEntity
  8
0
  6
ByLayer
 62
  256
370
   -1
100
AcDbCircle
 10
272.3781019314945
 20
-66.7190769163431
 40
4
100
AcDbArc
 50
272.750003547579
 51
12.93657830762896
  0
LINE
  5
417
100
AcDbEntity
  8
0
  6
ByLayer
 62
  256
370
   -1
100
AcDbLine
 10
240.4652298583901
 20
-72.25657584287684
 11
272.5700146929624
 21
-70.71447045040026
  0
ARC
  5
418
100
AcDbEntity
  8
0
  6
ByLayer
 62
  256
370
   -1
100
AcDbCircle
 10
240.2733170969221
 20
-68.2611823088197
 40
4
100
AcDbArc
 50
203.1333717886087
 51
272.7500035475792
  0
LINE
  5
419
100
AcDbEntity
  8
0
  6
ByLayer
 62
  256
370
   -1
100
AcDbLine
 10
240.4204378191717
 20
-45.93831167055745
 11
232.5161066693346
 21
-44.65132441923782
  0
LINE
  5
41A
100
AcDbEntity
  8
0
  6
ByLayer
 62
  256
370
   -1
100
AcDbLine
 10
228.1949182876437
 20
-50.1708260211701
 11
236.5949457949034
 21
-69.83267350016769
  0
ARC
  5
41B
100
AcDbEntity
  8
0
  6
ByLayer
 62
  256
370
   -1
100
AcDbCircle
 10
231.8732895896625
 20
-48.59933482982211
 40
4
100
AcDbArc
 50
80.75222308238712
 51
203.1333717886088
  0
LINE
  5
41C
100
AcDbEntity
  8
0
  6
ByLayer
 62
  256
370
   -1
100
AcDbLine
 10
220.1662170588876
 20
-43.12897059804965
 11
206.7159512390161
 21
-40.93899141968597
  0
ARC
  5
41D
100
AcDbEntity
  8
0
  6
ByLayer
 62
  256
370
   -1
100
AcDbCircle
 10
219.5233999792156
 20
-47.07698100863394
 40
4
100
AcDbArc
 50
23.13337178860877
 51
80.75222308238712
  0
LINE
  5
41E
100
AcDbEntity
  8
0
  6
ByLayer
 62
  256
370
   -1
100
AcDbLine
 10
232.0179833851348
 20
-66.14149578031072
 11
223.2017712812344
 21
-45.50548981728594
  0
LINE
  5
41F
100
AcDbEntity
  8
0
  6
ByLayer
 62
  256
370
   -1
100
AcDbLine
 10
227.9286043437127
 20
-71.69181501998533
 11
207.9790593363055
 21
-69.63105308304576
  0
ARC
  5
420
100
AcDbEntity
  8
0
  6
ByLayer
 62
  256
370
   -1
100
AcDbCircle
 10
228.3396120831159
 20
-67.71298697165872
 40
4
100
AcDbArc
 50
264.1023387032299
 51
23.13337178860887
  0
LINE
  5
421
100
AcDbEntity
  8
0
  6
ByLayer
 62
  256
370
   -1
100
AcDbLine
 10
206.0673989762255
 20
-69.58674211127
 11
180.2536924040542
 21
-71.04892720654063
  0
ARC
  5
422
100
AcDbEntity
  8
0
  6
ByLayer
 62
  256
370
   -1
100
AcDbCircle
 10
180.0274800234308
 20
-67.05532883428877
 40
4
100
AcDbArc
 50
153.6546740841883
 51
273.2419833529776
  0
LINE
  5
423
100
AcDbEntity
  8
0
  6
ByLayer
 62
  256
370
   -1
100
AcDbLine
 10
176.4429374543177
 20
-65.28020783271846
 11
186.3250766567108
 21
-45.32497739290975
  0
LINE
  5
424
100
AcDbEntity
  8
0
  6
ByLayer
 62
  256
370
   -1
100
AcDbLine
 10
202.8590487609838
 20
-40.93899141968597
 11
189.2668021461519
 21
-43.15208798389578
  0
ARC
  5
425
100
AcDbEntity
  8
0
  6
ByLayer
 62
  256
370
   -1
100
AcDbCircle
 10
189.9096192258239
 20
-47.10009839448006
 40
4
100
AcDbArc
 50
99.2477769176129
 51
153.6546740841881
  0
ARC
  5
426
100
AcDbEntity
  8
0
  6
ByLayer
 62
  256
370
   -1
100
AcDbCircle
 10
177.5258244307099
 20
-48.02207041861829
 40
4
100
AcDbArc
 50
333.6546740841883
 51
94.49174283041971
  0
LINE
  5
427
100
AcDbEntity
  8
0
  6
ByLayer
 62
  256
370
   -1
100
AcDbLine
 10
181.110366999823
 20
-49.7971914201886
 11
171.4955455435533
 21
-69.2126210015708
  0
ARC
  5
428
100
AcDbEntity
  8
0
  6
ByLayer
 62
  256
370
   -1
100
AcDbCircle
 10
167.9110029744402
 20
-67.43750000000048
 40
4
100
AcDbArc
 50
270.0000000000114
 51
333.6546740841883
  0
LINE
  5
429
100
AcDbEntity
  8
0
  6
ByLayer
 62
  256
370
   -1
100
AcDbLine
 10
167.911002974441
 20
-71.4375000000005
 11
156.1840775410241
 21
-71.43750000000281
  0
ARC
  5
42A
100
AcDbEntity
  8
0
  6
ByLayer
 62
  256
370
   -1
100
AcDbCircle
 10
156.1840775410233
 20
-67.43750000000281
 40
4
100
AcDbArc
 50
159.9154181739943
 51
270.0000000000114
  0
LINE
  5
42B
100
AcDbEntity
  8
0
  6
ByLayer
 62
  256
370
   -1
100
AcDbLine
 10
162.5487308298395
 20
-45.18629815543329
 11
177.2125627332086
 21
-44.03435589662971
  0
LINE
  5
42C
100
AcDbEntity
  8
0
  6
ByLayer
 62
  256
370
   -1
100
AcDbLine
 10
152.4273307562457
 20
-66.0638721045872
 11
159.1052457425634
 21
-47.80038478200629
  0
ARC
  5
42D
100
AcDbEntity
  8
0
  6
ByLayer
 62
  256
370
   -1
100
AcDbCircle
 10
162.8619925273409
 20
-49.17401267742188
 40
4
100
AcDbArc
 50
94.49174283041968
 51
159.9154181739944
  0
ARC
  5
42E
100
AcDbEntity
  8
0
  6
ByLayer
 62
  256
370
   -1
100
AcDbCircle
 10
135.5412765018884
 20
-16.28764450568006
 40
2
100
AcDbArc
 50
90.00043242349609
 51
223.5210919008941
  0
LINE
  5
42F
100
AcDbEntity
  8
0
  6
ByLayer
 62
  256
370
   -1
100
AcDbLine
 10
135.5412614074608
 20
-14.28764450573702
 11
150.208694959746
 21
-14.28753380748055
  0
ARC
  5
430
100
AcDbEntity
  8
0
  6
ByLayer
 62
  256
370
   -1
100
AcDbCircle
 10
150.2087100541735
 20
-16.28753380742359
 40
2
100
AcDbArc
 50
316.4793748028404
 51
90.00043242349609
  0
LINE
  5
431
100
AcDbEntity
  8
0
  6
ByLayer
 62
  256
370
   -1
100
AcDbLine
 10
144.9664117690376
 20
-24.71216019716404
 11
151.6589631177567
 21
-17.66476510664953
  0
ARC
  5
432
100
AcDbEntity
  8
0
  6
ByLayer
 62
  256
370
   -1
100
AcDbCircle
 10
143.5161587054544
 20
-23.3349288979381
 40
2
100
AcDbArc
 50
270
 51
316.4793748028405
  0
LINE
  5
433
100
AcDbEntity
  8
0
  6
ByLayer
 62
  256
370
   -1
100
AcDbLine
 10
134.091034656614
 20
-17.664887617921
 11
140.7835900540925
 21
-24.71217201017903
  0
LINE
  5
434
100
AcDbEntity
  8
0
  6
ByLayer
 62
  256
370
   -1
100
AcDbLine
 10
142.2338318993669
 20
-25.33492889793811
 11
143.5161587054544
 21
-25.33492889793811
  0
ARC
  5
435
100
AcDbEntity
  8
0
  6
ByLayer
 62
  256
370
   -1
100
AcDbCircle
 10
142.2338318993669
 20
-23.33492889793811
 40
2
100
AcDbArc
 50
223.5210919008938
 51
270
  0
ARC
  5
436
100
AcDbEntity
  8
0
  6
ByLayer
 62
  256
370
   -1
100
AcDbCircle
 10
143.5161485120539
 20
-31.57756958505736
 40
2
100
AcDbArc
 50
43.5201320895202
 51
90
  0
LINE
  5
437
100
AcDbEntity
  8
0
  6
ByLayer
 62
  256
370
   -1
100
AcDbLine
 10
151.658882972739
 20
-37.24778118221324
 11
144.9664134285206
 21
-30.2003507672706
  0
ARC
  5
438
100
AcDbEntity
  8
0
  6
ByLayer
 62
  256
370
   -1
100
AcDbCircle
 10
150.2086180562724
 20
-38.62499999999999
 40
2
100
AcDbArc
 50
270
 51
43.52013208952015
  0
LINE
  5
439
100
AcDbEntity
  8
0
  6
ByLayer
 62
  256
370
   -1
100
AcDbLine
 10
150.2086180562724
 20
-40.62499999999999
 11
135.5412570472948
 21
-40.625
  0
ARC
  5
43A
100
AcDbEntity
  8
0
  6
ByLayer
 62
  256
370
   -1
100
AcDbCircle
 10
135.5412570472948
 20
-38.62499999999999
 40
2
100
AcDbArc
 50
136.4793763539172
 51
270
  0
LINE
  5
43B
100
AcDbEntity
  8
0
  6
ByLayer
 62
  256
370
   -1
100
AcDbLine
 10
140.7835884781142
 20
-30.20033832509181
 11
134.091003946428
 21
-37.24776874003444
  0
LINE
  5
43C
100
AcDbEntity
  8
0
  6
ByLayer
 62
  256
370
   -1
100
AcDbLine
 10
142.233841578981
 20
-29.57756958505736
 11
143.5161485120539
 21
-29.57756958505736
  0
ARC
  5
43D
100
AcDbEntity
  8
0
  6
ByLayer
 62
  256
370
   -1
100
AcDbCircle
 10
142.233841578981
 20
-31.57756958505736
 40
2
100
AcDbArc
 50
90
 51
136.4793763539174
  0
ARC
  5
43E
100
AcDbEntity
  8
0
  6
ByLayer
 62
  256
370
   -1
100
AcDbCircle
 10
136.4955298294573
 20
-27.45626051210963
 40
2
100
AcDbArc
 50
316.4793763539173
 51
43.52109190089405
  0
ARC
  5
43F
100
AcDbEntity
  8
0
  6
ByLayer
 62
  256
370
   -1
100
AcDbCircle
 10
149.2544485195895
 20
-27.456261110208
 40
2
100
AcDbArc
 50
136.4793748028403
 51
223.5201320895201
  0
LINE
  5
440
100
AcDbEntity
  8
0
  6
ByLayer
 62
  256
370
   -1
100
AcDbLine
 10
147.8041836031228
 20
-28.83347992799475
 11
153.5370963943818
 21
-34.87045980580911
  0
ARC
  5
441
100
AcDbEntity
  8
0
  6
ByLayer
 62
  256
370
   -1
100
AcDbCircle
 10
154.9873613108485
 20
-33.49324098802234
 40
2
100
AcDbArc
 50
223.5201320895203
 51
359.9995315267321
  0
LINE
  5
442
100
AcDbEntity
  8
0
  6
ByLayer
 62
  256
370
   -1
100
AcDbLine
 10
153.5372069688009
 20
-20.04205002794841
 11
147.8041954560063
 21
-26.07902981098206
  0
LINE
  5
443
100
AcDbEntity
  8
0
  6
ByLayer
 62
  256
370
   -1
100
AcDbLine
 10
156.9873613107816
 20
-33.49325734082431
 11
156.9874600323172
 21
-21.41929767997632
  0
ARC
  5
444
100
AcDbEntity
  8
0
  6
ByLayer
 62
  256
370
   -1
100
AcDbCircle
 10
154.9874600323841
 20
-21.41928132717435
 40
2
100
AcDbArc
 50
359.999531526732
 51
136.4793748028404
  0
LINE
  5
445
100
AcDbEntity
  8
0
  6
ByLayer
 62
  256
370
   -1
100
AcDbLine
 10
137.9457716747317
 20
-26.0790173998687
 11
132.2127417673661
 21
-20.04211672636096
  0
ARC
  5
446
100
AcDbEntity
  8
0
  6
ByLayer
 62
  256
370
   -1
100
AcDbCircle
 10
130.7624999220917
 20
-21.41935983860189
 40
2
100
AcDbArc
 50
43.52109190089405
 51
179.9999991090835
  0
LINE
  5
447
100
AcDbEntity
  8
0
  6
ByLayer
 62
  256
370
   -1
100
AcDbLine
 10
128.7624997343495
 20
-33.49326015890121
 11
128.7624999220917
 21
-21.41935980750304
  0
LINE
  5
448
100
AcDbEntity
  8
0
  6
ByLayer
 62
  256
370
   -1
100
AcDbLine
 10
132.2127528352163
 20
-34.87049144996561
 11
137.9457829303241
 21
-28.83349177207518
  0
ARC
  5
449
100
AcDbEntity
  8
0
  6
ByLayer
 62
  256
370
   -1
100
AcDbCircle
 10
130.7624997343495
 20
-33.49326019000006
 40
2
100
AcDbArc
 50
179.9999991090834
 51
316.4793763539174
  0
ARC
  5
44A
100
AcDbEntity
  8
0
  6
ByLayer
 62
  256
370
   -1
100
AcDbCircle
 10
150.3836694577796
 20
-51.80038497409114
 40
4
100
AcDbArc
 50
339.9154145033555
 51
90.00000192353474
  0
LINE
  5
44B
100
AcDbEntity
  8
0
  6
ByLayer
 62
  256
370
   -1
100
AcDbLine
 10
154.140416154556
 20
-53.17401311018173
 11
148.422814489981
 21
-68.81112813609224
  0
ARC
  5
44C
100
AcDbEntity
  8
0
  6
ByLayer
 62
  256
370
   -1
100
AcDbCircle
 10
144.6660677932046
 20
-67.43750000000165
 40
4
100
AcDbArc
 50
270
 51
339.9154145033555
  0
LINE
  5
44D
100
AcDbEntity
  8
0
  6
ByLayer
 62
  256
370
   -1
100
AcDbLine
 10
150.3836693234915
 20
-47.80038497409114
 11
135.3663301906124
 21
-47.80038529599577
  0
ARC
  5
44E
100
AcDbEntity
  8
0
  6
ByLayer
 62
  256
370
   -1
100
AcDbCircle
 10
135.3663302763545
 20
-51.80038529599577
 40
4
100
AcDbArc
 50
90.00000122816554
 51
200.084581023631
  0
LINE
  5
44F
100
AcDbEntity
  8
0
  6
ByLayer
 62
  256
370
   -1
100
AcDbLine
 10
131.6095834723406
 20
-53.1740131388016
 11
137.3271836352317
 21
-68.81112784280745
  0
LINE
  5
450
100
AcDbEntity
  8
0
  6
ByLayer
 62
  256
370
   -1
100
AcDbLine
 10
141.0839304392456
 20
-71.43750000000165
 11
144.6660677932046
 21
-71.43750000000165
  0
ARC
  5
451
100
AcDbEntity
  8
0
  6
ByLayer
 62
  256
370
   -1
100
AcDbCircle
 10
141.0839304392456
 20
-67.43750000000165
 40
4
100
AcDbArc
 50
200.0845810236308
 51
270
  0
ENDBLK
  5
55
330
53
100
AcDbEntity
  8
0
100
AcDbBlockEnd
  0
ENDSEC
  0
SECTION
  2
ENTITIES
  0
INSERT
  5
452
100
AcDbEntity
  8
0
  6
ByLayer
 62
  256
370
   -1
100
AcDbBlockReference
  2
teethless40_csl_plate_v4_rounded_bottom_flexcuts
 10
0
 20
91.52237671301165
 30
0
 41
1
 42
1
 43
0
 50
0
 70
    1
 71
    1
 44
0
 45
0
  0
ENDSEC
  0
SECTION
  2
OBJECTS
  0
DICTIONARY
  5
C
330
0
100
AcDbDictionary
281
    1
  3
ACAD_GROUP
350
D
  0
DICTIONARY
  5
D
330
C
100
AcDbDictionary
281
    1
  0
PLOTSETTINGS
  5
453
100
AcDbPlotSettings
  6
1x1
 40
0
 41
0
 42
0
 43
0
  0
ENDSEC
  0
EOF
